G04 #@! TF.FileFunction,Soldermask,Top*
%FSLAX45Y45*%
G04 Gerber Fmt 4.5, Leading zero omitted, Abs format (unit mm)*
G04 Created by KiCad (PCBNEW (2015-09-03 BZR 6154)-product) date Saturday, September 05, 2015 'PMt' 10:25:32 PM*
%MOMM*%
G01*
G04 APERTURE LIST*
%ADD10C,0.100000*%
%ADD11R,2.032000X1.727200*%
%ADD12O,2.032000X1.727200*%
%ADD13R,1.800860X1.597660*%
%ADD14R,1.727200X2.032000*%
%ADD15O,1.727200X2.032000*%
%ADD16R,1.500000X1.300000*%
%ADD17C,1.524000*%
%ADD18R,2.032000X2.032000*%
%ADD19O,2.032000X2.032000*%
%ADD20O,2.300000X1.600000*%
%ADD21R,1.550000X0.600000*%
%ADD22R,1.143000X0.508000*%
G04 APERTURE END LIST*
D10*
D11*
X18796000Y-12319000D03*
D12*
X18796000Y-12573000D03*
X18796000Y-12827000D03*
X18796000Y-13081000D03*
X18796000Y-13335000D03*
X18796000Y-13589000D03*
D13*
X21971000Y-11650472D03*
X21971000Y-11366500D03*
D11*
X23622000Y-9144000D03*
D12*
X23622000Y-9398000D03*
X23622000Y-9652000D03*
X23622000Y-9906000D03*
X23622000Y-10160000D03*
X23622000Y-10414000D03*
X23622000Y-10668000D03*
X23622000Y-10922000D03*
X23622000Y-11176000D03*
X23622000Y-11430000D03*
D11*
X23622000Y-11811000D03*
D12*
X23622000Y-12065000D03*
X23622000Y-12319000D03*
X23622000Y-12573000D03*
X23622000Y-12827000D03*
X23622000Y-13081000D03*
X23622000Y-13335000D03*
X23622000Y-13589000D03*
D14*
X19367500Y-13906500D03*
D15*
X19621500Y-13906500D03*
X19875500Y-13906500D03*
X20129500Y-13906500D03*
X20383500Y-13906500D03*
D14*
X20955000Y-13906500D03*
D15*
X21209000Y-13906500D03*
X21463000Y-13906500D03*
X21717000Y-13906500D03*
X21971000Y-13906500D03*
D14*
X21717000Y-8382000D03*
D15*
X21971000Y-8382000D03*
X22225000Y-8382000D03*
D11*
X18796000Y-10033000D03*
D12*
X18796000Y-10287000D03*
X18796000Y-10541000D03*
X18796000Y-10795000D03*
X18796000Y-11049000D03*
X18796000Y-11303000D03*
X18796000Y-11557000D03*
X18796000Y-11811000D03*
D16*
X19685000Y-13589000D03*
X19415000Y-13589000D03*
X20685000Y-13589000D03*
X20955000Y-13589000D03*
X20137500Y-8763000D03*
X19867500Y-8763000D03*
X21209000Y-8763000D03*
X20939000Y-8763000D03*
X19931000Y-13335000D03*
X20201000Y-13335000D03*
X19415000Y-13335000D03*
X19685000Y-13335000D03*
X19939000Y-13589000D03*
X20209000Y-13589000D03*
X21637500Y-12954000D03*
X21907500Y-12954000D03*
X21526500Y-13335000D03*
X21796500Y-13335000D03*
X19875500Y-10795000D03*
X20145500Y-10795000D03*
X21526500Y-13589000D03*
X21796500Y-13589000D03*
X21542500Y-10668000D03*
X21272500Y-10668000D03*
X20137500Y-9017000D03*
X19867500Y-9017000D03*
X20137500Y-9779000D03*
X19867500Y-9779000D03*
X21209000Y-9017000D03*
X20939000Y-9017000D03*
X20955000Y-11938000D03*
X21225000Y-11938000D03*
X20137500Y-9271000D03*
X19867500Y-9271000D03*
X19161000Y-11684000D03*
X19431000Y-11684000D03*
X21209000Y-9271000D03*
X20939000Y-9271000D03*
X20177000Y-11874500D03*
X20447000Y-11874500D03*
X19931000Y-13081000D03*
X20201000Y-13081000D03*
X20447000Y-13081000D03*
X20717000Y-13081000D03*
X19875500Y-10541000D03*
X20145500Y-10541000D03*
X21272500Y-10414000D03*
X21542500Y-10414000D03*
X19169000Y-11938000D03*
X19439000Y-11938000D03*
X21637500Y-12446000D03*
X21907500Y-12446000D03*
X19875500Y-10033000D03*
X20145500Y-10033000D03*
X21542500Y-9906000D03*
X21272500Y-9906000D03*
X20137500Y-9525000D03*
X19867500Y-9525000D03*
X19161000Y-11176000D03*
X19431000Y-11176000D03*
X20955000Y-11684000D03*
X21225000Y-11684000D03*
X21217000Y-11430000D03*
X20947000Y-11430000D03*
X19732500Y-12509500D03*
X20002500Y-12509500D03*
X20447000Y-12827000D03*
X20717000Y-12827000D03*
X19875500Y-10287000D03*
X20145500Y-10287000D03*
X21272500Y-10160000D03*
X21542500Y-10160000D03*
X19161000Y-11430000D03*
X19431000Y-11430000D03*
X20947000Y-11176000D03*
X21217000Y-11176000D03*
X21637500Y-11938000D03*
X21907500Y-11938000D03*
X22233000Y-8763000D03*
X21963000Y-8763000D03*
X22233000Y-9017000D03*
X21963000Y-9017000D03*
D17*
X19431000Y-9017000D03*
X19431000Y-9271000D03*
X19431000Y-8763000D03*
X20510500Y-9017000D03*
X20510500Y-9271000D03*
X20510500Y-8763000D03*
X19367500Y-12700000D03*
X19367500Y-12446000D03*
X19367500Y-12954000D03*
X21272500Y-12700000D03*
X21272500Y-12446000D03*
X21272500Y-12954000D03*
X19494500Y-10223500D03*
X19494500Y-9969500D03*
X19494500Y-10477500D03*
X21971000Y-10223500D03*
X21971000Y-9969500D03*
X21971000Y-10477500D03*
D18*
X19812000Y-8382000D03*
D19*
X20066000Y-8382000D03*
D18*
X20828000Y-8382000D03*
D19*
X21082000Y-8382000D03*
D20*
X22352000Y-11557000D03*
X22352000Y-11811000D03*
X22352000Y-12065000D03*
X22352000Y-12319000D03*
X22352000Y-12573000D03*
X22352000Y-12827000D03*
X22352000Y-13081000D03*
X22352000Y-13335000D03*
X22352000Y-13589000D03*
X23114000Y-13589000D03*
X23114000Y-13335000D03*
X23114000Y-13081000D03*
X23114000Y-12827000D03*
X23114000Y-12573000D03*
X23114000Y-12319000D03*
X23114000Y-12065000D03*
X23114000Y-11811000D03*
X23114000Y-11557000D03*
D21*
X19923000Y-11239500D03*
X19923000Y-11366500D03*
X19923000Y-11493500D03*
X19923000Y-11620500D03*
X20463000Y-11620500D03*
X20463000Y-11493500D03*
X20463000Y-11366500D03*
X20463000Y-11239500D03*
X20256500Y-12255500D03*
X20256500Y-12382500D03*
X20256500Y-12509500D03*
X20256500Y-12636500D03*
X20796500Y-12636500D03*
X20796500Y-12509500D03*
X20796500Y-12382500D03*
X20796500Y-12255500D03*
X20478500Y-10033000D03*
X20478500Y-10160000D03*
X20478500Y-10287000D03*
X20478500Y-10414000D03*
X21018500Y-10414000D03*
X21018500Y-10287000D03*
X21018500Y-10160000D03*
X21018500Y-10033000D03*
D22*
X23241000Y-10795000D03*
X23241000Y-10668000D03*
X23241000Y-10541000D03*
X23241000Y-10414000D03*
X23241000Y-10287000D03*
X23241000Y-10160000D03*
X23241000Y-10033000D03*
X22606000Y-10033000D03*
X22606000Y-10160000D03*
X22606000Y-10414000D03*
X22606000Y-10541000D03*
X22606000Y-10668000D03*
X22606000Y-10795000D03*
X22606000Y-10287000D03*
M02*
