G04 #@! TF.FileFunction,Copper,L1,Top,Signal*
%FSLAX45Y45*%
G04 Gerber Fmt 4.5, Leading zero omitted, Abs format (unit mm)*
G04 Created by KiCad (PCBNEW (2015-09-03 BZR 6154)-product) date Saturday, September 05, 2015 'PMt' 10:25:32 PM*
%MOMM*%
G01*
G04 APERTURE LIST*
%ADD10C,0.100000*%
%ADD11R,2.032000X1.727200*%
%ADD12O,2.032000X1.727200*%
%ADD13R,1.800860X1.597660*%
%ADD14R,1.727200X2.032000*%
%ADD15O,1.727200X2.032000*%
%ADD16R,1.500000X1.300000*%
%ADD17C,1.524000*%
%ADD18R,2.032000X2.032000*%
%ADD19O,2.032000X2.032000*%
%ADD20O,2.300000X1.600000*%
%ADD21R,1.550000X0.600000*%
%ADD22R,1.143000X0.508000*%
%ADD23C,0.889000*%
%ADD24C,0.304800*%
%ADD25C,0.635000*%
%ADD26C,1.270000*%
G04 APERTURE END LIST*
D10*
D11*
X18796000Y-12319000D03*
D12*
X18796000Y-12573000D03*
X18796000Y-12827000D03*
X18796000Y-13081000D03*
X18796000Y-13335000D03*
X18796000Y-13589000D03*
D13*
X21971000Y-11650472D03*
X21971000Y-11366500D03*
D11*
X23622000Y-9144000D03*
D12*
X23622000Y-9398000D03*
X23622000Y-9652000D03*
X23622000Y-9906000D03*
X23622000Y-10160000D03*
X23622000Y-10414000D03*
X23622000Y-10668000D03*
X23622000Y-10922000D03*
X23622000Y-11176000D03*
X23622000Y-11430000D03*
D11*
X23622000Y-11811000D03*
D12*
X23622000Y-12065000D03*
X23622000Y-12319000D03*
X23622000Y-12573000D03*
X23622000Y-12827000D03*
X23622000Y-13081000D03*
X23622000Y-13335000D03*
X23622000Y-13589000D03*
D14*
X19367500Y-13906500D03*
D15*
X19621500Y-13906500D03*
X19875500Y-13906500D03*
X20129500Y-13906500D03*
X20383500Y-13906500D03*
D14*
X20955000Y-13906500D03*
D15*
X21209000Y-13906500D03*
X21463000Y-13906500D03*
X21717000Y-13906500D03*
X21971000Y-13906500D03*
D14*
X21717000Y-8382000D03*
D15*
X21971000Y-8382000D03*
X22225000Y-8382000D03*
D11*
X18796000Y-10033000D03*
D12*
X18796000Y-10287000D03*
X18796000Y-10541000D03*
X18796000Y-10795000D03*
X18796000Y-11049000D03*
X18796000Y-11303000D03*
X18796000Y-11557000D03*
X18796000Y-11811000D03*
D16*
X19685000Y-13589000D03*
X19415000Y-13589000D03*
X20685000Y-13589000D03*
X20955000Y-13589000D03*
X20137500Y-8763000D03*
X19867500Y-8763000D03*
X21209000Y-8763000D03*
X20939000Y-8763000D03*
X19931000Y-13335000D03*
X20201000Y-13335000D03*
X19415000Y-13335000D03*
X19685000Y-13335000D03*
X19939000Y-13589000D03*
X20209000Y-13589000D03*
X21637500Y-12954000D03*
X21907500Y-12954000D03*
X21526500Y-13335000D03*
X21796500Y-13335000D03*
X19875500Y-10795000D03*
X20145500Y-10795000D03*
X21526500Y-13589000D03*
X21796500Y-13589000D03*
X21542500Y-10668000D03*
X21272500Y-10668000D03*
X20137500Y-9017000D03*
X19867500Y-9017000D03*
X20137500Y-9779000D03*
X19867500Y-9779000D03*
X21209000Y-9017000D03*
X20939000Y-9017000D03*
X20955000Y-11938000D03*
X21225000Y-11938000D03*
X20137500Y-9271000D03*
X19867500Y-9271000D03*
X19161000Y-11684000D03*
X19431000Y-11684000D03*
X21209000Y-9271000D03*
X20939000Y-9271000D03*
X20177000Y-11874500D03*
X20447000Y-11874500D03*
X19931000Y-13081000D03*
X20201000Y-13081000D03*
X20447000Y-13081000D03*
X20717000Y-13081000D03*
X19875500Y-10541000D03*
X20145500Y-10541000D03*
X21272500Y-10414000D03*
X21542500Y-10414000D03*
X19169000Y-11938000D03*
X19439000Y-11938000D03*
X21637500Y-12446000D03*
X21907500Y-12446000D03*
X19875500Y-10033000D03*
X20145500Y-10033000D03*
X21542500Y-9906000D03*
X21272500Y-9906000D03*
X20137500Y-9525000D03*
X19867500Y-9525000D03*
X19161000Y-11176000D03*
X19431000Y-11176000D03*
X20955000Y-11684000D03*
X21225000Y-11684000D03*
X21217000Y-11430000D03*
X20947000Y-11430000D03*
X19732500Y-12509500D03*
X20002500Y-12509500D03*
X20447000Y-12827000D03*
X20717000Y-12827000D03*
X19875500Y-10287000D03*
X20145500Y-10287000D03*
X21272500Y-10160000D03*
X21542500Y-10160000D03*
X19161000Y-11430000D03*
X19431000Y-11430000D03*
X20947000Y-11176000D03*
X21217000Y-11176000D03*
X21637500Y-11938000D03*
X21907500Y-11938000D03*
X22233000Y-8763000D03*
X21963000Y-8763000D03*
X22233000Y-9017000D03*
X21963000Y-9017000D03*
D17*
X19431000Y-9017000D03*
X19431000Y-9271000D03*
X19431000Y-8763000D03*
X20510500Y-9017000D03*
X20510500Y-9271000D03*
X20510500Y-8763000D03*
X19367500Y-12700000D03*
X19367500Y-12446000D03*
X19367500Y-12954000D03*
X21272500Y-12700000D03*
X21272500Y-12446000D03*
X21272500Y-12954000D03*
X19494500Y-10223500D03*
X19494500Y-9969500D03*
X19494500Y-10477500D03*
X21971000Y-10223500D03*
X21971000Y-9969500D03*
X21971000Y-10477500D03*
D18*
X19812000Y-8382000D03*
D19*
X20066000Y-8382000D03*
D18*
X20828000Y-8382000D03*
D19*
X21082000Y-8382000D03*
D20*
X22352000Y-11557000D03*
X22352000Y-11811000D03*
X22352000Y-12065000D03*
X22352000Y-12319000D03*
X22352000Y-12573000D03*
X22352000Y-12827000D03*
X22352000Y-13081000D03*
X22352000Y-13335000D03*
X22352000Y-13589000D03*
X23114000Y-13589000D03*
X23114000Y-13335000D03*
X23114000Y-13081000D03*
X23114000Y-12827000D03*
X23114000Y-12573000D03*
X23114000Y-12319000D03*
X23114000Y-12065000D03*
X23114000Y-11811000D03*
X23114000Y-11557000D03*
D21*
X19923000Y-11239500D03*
X19923000Y-11366500D03*
X19923000Y-11493500D03*
X19923000Y-11620500D03*
X20463000Y-11620500D03*
X20463000Y-11493500D03*
X20463000Y-11366500D03*
X20463000Y-11239500D03*
X20256500Y-12255500D03*
X20256500Y-12382500D03*
X20256500Y-12509500D03*
X20256500Y-12636500D03*
X20796500Y-12636500D03*
X20796500Y-12509500D03*
X20796500Y-12382500D03*
X20796500Y-12255500D03*
X20478500Y-10033000D03*
X20478500Y-10160000D03*
X20478500Y-10287000D03*
X20478500Y-10414000D03*
X21018500Y-10414000D03*
X21018500Y-10287000D03*
X21018500Y-10160000D03*
X21018500Y-10033000D03*
D22*
X23241000Y-10795000D03*
X23241000Y-10668000D03*
X23241000Y-10541000D03*
X23241000Y-10414000D03*
X23241000Y-10287000D03*
X23241000Y-10160000D03*
X23241000Y-10033000D03*
X22606000Y-10033000D03*
X22606000Y-10160000D03*
X22606000Y-10414000D03*
X22606000Y-10541000D03*
X22606000Y-10668000D03*
X22606000Y-10795000D03*
X22606000Y-10287000D03*
D23*
X22018308Y-12192000D03*
X23431500Y-12192000D03*
X23304500Y-11938000D03*
X21018500Y-10731500D03*
X21393115Y-10762298D03*
X20447000Y-12134500D03*
X22479000Y-9907890D03*
X23241000Y-9969500D03*
X22479000Y-10668000D03*
X20256500Y-10795000D03*
X20129500Y-12636500D03*
X19685000Y-13208000D03*
X22018308Y-12459505D03*
X20701000Y-13462000D03*
X20683290Y-14160500D03*
X21642535Y-10858500D03*
X21336000Y-11684000D03*
X21653500Y-11811000D03*
X19621500Y-11938000D03*
X19875500Y-9588500D03*
X20510500Y-10922000D03*
X22606000Y-10858500D03*
X22382798Y-8756615D03*
X20129500Y-9908450D03*
X21145500Y-9906000D03*
X19875500Y-14160500D03*
X22098000Y-10604500D03*
X20129500Y-10604500D03*
X20637500Y-11128692D03*
X19748500Y-11493500D03*
X19428803Y-10996070D03*
X19494500Y-11239500D03*
X20891500Y-11493500D03*
X20320000Y-11493500D03*
X20069099Y-12255500D03*
X20891500Y-12382500D03*
X22352000Y-10350501D03*
X19748500Y-10287000D03*
X20383500Y-10033000D03*
X21399500Y-10032997D03*
X23050500Y-10160000D03*
X20066000Y-11239500D03*
X20320000Y-11049000D03*
X20955000Y-11049000D03*
X20891500Y-12509500D03*
X21145500Y-10287000D03*
D24*
X21907500Y-11938000D02*
X21907500Y-11713972D01*
X21907500Y-11713972D02*
X21971000Y-11650472D01*
X21971000Y-11366500D02*
X21971000Y-11417114D01*
X22096283Y-11542397D02*
X22096283Y-11758547D01*
X22096283Y-11758547D02*
X22018308Y-11836522D01*
X21971000Y-11417114D02*
X22096283Y-11542397D01*
X22018308Y-12129138D02*
X22018308Y-12192000D01*
X22018308Y-11836522D02*
X22018308Y-12129138D01*
X23431500Y-12129138D02*
X23431500Y-12192000D01*
X23358206Y-10880457D02*
X23431500Y-10953750D01*
X23431500Y-10953750D02*
X23431500Y-12129138D01*
X23272750Y-10795000D02*
X23358206Y-10880457D01*
X23358206Y-10880457D02*
X23521351Y-11043601D01*
X23241000Y-10795000D02*
X23272750Y-10795000D01*
X23876000Y-9382760D02*
X23637240Y-9144000D01*
X23637240Y-9144000D02*
X23622000Y-9144000D01*
X23521351Y-11043601D02*
X23687609Y-11043601D01*
X23687609Y-11043601D02*
X23876000Y-10855210D01*
X23876000Y-10855210D02*
X23876000Y-9382760D01*
X23809322Y-10078082D02*
X23637240Y-9906000D01*
X23241000Y-10668000D02*
X23272750Y-10668000D01*
X23272750Y-10668000D02*
X23394351Y-10789601D01*
X23809322Y-10667887D02*
X23809322Y-10078082D01*
X23394351Y-10789601D02*
X23687609Y-10789601D01*
X23637240Y-9906000D02*
X23622000Y-9906000D01*
X23687609Y-10789601D02*
X23809322Y-10667887D01*
X23110122Y-10541000D02*
X23241000Y-10541000D01*
X23304500Y-11938000D02*
X23304500Y-11004482D01*
X23304500Y-11004482D02*
X23110122Y-10810104D01*
X23110122Y-10810104D02*
X23110122Y-10541000D01*
X23758841Y-10464369D02*
X23758841Y-10363631D01*
X23682210Y-10541000D02*
X23758841Y-10464369D01*
X23241000Y-10541000D02*
X23682210Y-10541000D01*
X23622000Y-10226790D02*
X23622000Y-10160000D01*
X23758841Y-10363631D02*
X23622000Y-10226790D01*
X23241000Y-10541000D02*
X23209250Y-10541000D01*
X23708360Y-10189459D02*
X23666699Y-10231120D01*
X23666699Y-10231120D02*
X23622000Y-10231120D01*
X23708360Y-10179570D02*
X23708360Y-10189459D01*
X23622000Y-10231120D02*
X23622000Y-10160000D01*
X23241000Y-10414000D02*
X23622000Y-10414000D01*
X19367500Y-13906500D02*
X19367500Y-13636500D01*
X19367500Y-13636500D02*
X19415000Y-13589000D01*
X21227000Y-11430000D02*
X21327240Y-11329760D01*
X21327240Y-11329760D02*
X21327240Y-11040240D01*
X21327240Y-11040240D02*
X21018500Y-10731500D01*
D25*
X21272500Y-10668000D02*
X21298817Y-10668000D01*
X21298817Y-10668000D02*
X21348665Y-10717848D01*
X21348665Y-10717848D02*
X21393115Y-10762298D01*
D24*
X21217000Y-11430000D02*
X21227000Y-11430000D01*
D25*
X22479000Y-10668000D02*
X22479000Y-9907890D01*
X22479000Y-9907890D02*
X22479000Y-8486140D01*
D24*
X23241000Y-10033000D02*
X23241000Y-9969500D01*
D25*
X22374860Y-8382000D02*
X22225000Y-8382000D01*
X22479000Y-8486140D02*
X22374860Y-8382000D01*
X22479000Y-10668000D02*
X22606000Y-10668000D01*
X20145500Y-10795000D02*
X20256500Y-10795000D01*
D24*
X20193000Y-10937980D02*
X20193000Y-11398000D01*
X19970500Y-11620500D02*
X19923000Y-11620500D01*
X20193000Y-11398000D02*
X19970500Y-11620500D01*
X20145500Y-10795000D02*
X20145500Y-10890480D01*
X20145500Y-10890480D02*
X20193000Y-10937980D01*
D25*
X20447000Y-12587000D02*
X20447000Y-12134500D01*
X20447000Y-12134500D02*
X20187000Y-11874500D01*
X20187000Y-11874500D02*
X20177000Y-11874500D01*
X20256500Y-12636500D02*
X20397500Y-12636500D01*
X20397500Y-12636500D02*
X20447000Y-12587000D01*
X20129500Y-12636500D02*
X20256500Y-12636500D01*
D24*
X18796000Y-11557000D02*
X18796000Y-11303000D01*
X19024000Y-11557000D02*
X18796000Y-11557000D01*
X19161000Y-11684000D02*
X19151000Y-11684000D01*
X19151000Y-11684000D02*
X19024000Y-11557000D01*
X22574250Y-10414000D02*
X22513610Y-10353360D01*
X22513610Y-10353360D02*
X22513610Y-10164760D01*
X22513610Y-10164760D02*
X22518370Y-10160000D01*
X22518370Y-10160000D02*
X22606000Y-10160000D01*
X22606000Y-10668000D02*
X22574250Y-10668000D01*
X22574250Y-10668000D02*
X22513610Y-10607360D01*
X22574250Y-10414000D02*
X22606000Y-10414000D01*
X22513610Y-10607360D02*
X22513610Y-10474640D01*
X22513610Y-10474640D02*
X22574250Y-10414000D01*
X21526500Y-13335000D02*
X21907500Y-12954000D01*
D25*
X19685000Y-13208000D02*
X19685000Y-13335000D01*
X19621500Y-13906500D02*
X19621500Y-13921740D01*
X19759610Y-14059850D02*
X21082760Y-14059850D01*
X19621500Y-13921740D02*
X19759610Y-14059850D01*
X21082760Y-14059850D02*
X21209000Y-13933610D01*
X21209000Y-13933610D02*
X21209000Y-13906500D01*
D24*
X19939000Y-13589000D02*
X19939000Y-13343000D01*
X19939000Y-13343000D02*
X19931000Y-13335000D01*
X19685000Y-13335000D02*
X19931000Y-13335000D01*
X21526500Y-13589000D02*
X21526500Y-13335000D01*
X21209000Y-13906500D02*
X21526500Y-13589000D01*
X19923000Y-11620500D02*
X20177000Y-11874500D01*
X18796000Y-11303000D02*
X19129480Y-11303000D01*
X19129480Y-11303000D02*
X19161000Y-11271480D01*
X19161000Y-11271480D02*
X19161000Y-11176000D01*
X20145500Y-10795000D02*
X20157980Y-10795000D01*
X20157980Y-10795000D02*
X20478500Y-10474480D01*
X20478500Y-10474480D02*
X20478500Y-10414000D01*
X23241000Y-10033000D02*
X23209250Y-10033000D01*
X23209250Y-10033000D02*
X23148610Y-10093640D01*
X23148610Y-10226360D02*
X23209250Y-10287000D01*
X23209250Y-10287000D02*
X23241000Y-10287000D01*
X23148610Y-10093640D02*
X23148610Y-10226360D01*
D25*
X21907500Y-12446000D02*
X21907500Y-12208000D01*
X21907500Y-12208000D02*
X21637500Y-11938000D01*
D24*
X22018308Y-12451328D02*
X22018308Y-12459505D01*
X22012980Y-12446000D02*
X22018308Y-12451328D01*
X21907500Y-12446000D02*
X22012980Y-12446000D01*
D25*
X21653500Y-11811000D02*
X21209000Y-12255500D01*
X21209000Y-12255500D02*
X21018500Y-12255500D01*
X20701000Y-13462000D02*
X21018500Y-13144500D01*
X21018500Y-13144500D02*
X21018500Y-12255500D01*
X21018500Y-12255500D02*
X20796500Y-12255500D01*
X20701000Y-13462000D02*
X20701000Y-13573000D01*
X20701000Y-13573000D02*
X20685000Y-13589000D01*
X20683290Y-14160500D02*
X19875500Y-14160500D01*
X21224240Y-14160500D02*
X20683290Y-14160500D01*
X21653500Y-11811000D02*
X21653500Y-10869466D01*
X21653500Y-10869466D02*
X21642535Y-10858500D01*
X21336000Y-11684000D02*
X21225000Y-11684000D01*
X21637500Y-11938000D02*
X21637500Y-11827000D01*
X21637500Y-11827000D02*
X21653500Y-11811000D01*
X19439000Y-11938000D02*
X19621500Y-11938000D01*
X19875500Y-9588500D02*
X19875500Y-9533000D01*
X19875500Y-9533000D02*
X19867500Y-9525000D01*
X20510500Y-10922000D02*
X20510500Y-11192000D01*
X20510500Y-11192000D02*
X20463000Y-11239500D01*
D24*
X22606000Y-10795000D02*
X22606000Y-10858500D01*
D25*
X22376413Y-8763000D02*
X22382798Y-8756615D01*
X22233000Y-8763000D02*
X22376413Y-8763000D01*
X20129500Y-9908450D02*
X20129500Y-10017000D01*
X20129500Y-10017000D02*
X20145500Y-10033000D01*
X21272500Y-9906000D02*
X21145500Y-9906000D01*
X21463000Y-13906500D02*
X21463000Y-13921740D01*
X21463000Y-13921740D02*
X21224240Y-14160500D01*
D24*
X22233000Y-9017000D02*
X22171500Y-9017000D01*
X21282500Y-9906000D02*
X21272500Y-9906000D01*
X19867500Y-9525000D02*
X19520069Y-9525000D01*
X19520069Y-9525000D02*
X19319560Y-9324491D01*
X19319560Y-9324491D02*
X19319560Y-9128440D01*
X19319560Y-9128440D02*
X19354800Y-9093200D01*
X19354800Y-9093200D02*
X19431000Y-9017000D01*
X19875500Y-13906500D02*
X19875500Y-13891260D01*
X19875500Y-13891260D02*
X19685000Y-13700760D01*
X19685000Y-13700760D02*
X19685000Y-13684480D01*
X19685000Y-13684480D02*
X19685000Y-13589000D01*
X21018500Y-10033000D02*
X21240980Y-10033000D01*
X21240980Y-10033000D02*
X21272500Y-10001480D01*
X21272500Y-10001480D02*
X21272500Y-9906000D01*
X22233000Y-9017000D02*
X22233000Y-8763000D01*
X19431000Y-8763000D02*
X19431000Y-9017000D01*
X20510500Y-8763000D02*
X20510500Y-9017000D01*
X20201000Y-13335000D02*
X20201000Y-13081000D01*
X20129500Y-13906500D02*
X20129500Y-13774420D01*
X20129500Y-13774420D02*
X20095520Y-13740440D01*
X20095520Y-13740440D02*
X20095520Y-13430480D01*
X20095520Y-13430480D02*
X20191000Y-13335000D01*
X20191000Y-13335000D02*
X20201000Y-13335000D01*
X20209000Y-13589000D02*
X20314480Y-13589000D01*
X20314480Y-13589000D02*
X20717000Y-13186480D01*
X20717000Y-13186480D02*
X20717000Y-13176480D01*
X20717000Y-13176480D02*
X20717000Y-13081000D01*
X20383500Y-13906500D02*
X20383500Y-13753500D01*
X20383500Y-13753500D02*
X20219000Y-13589000D01*
X20219000Y-13589000D02*
X20209000Y-13589000D01*
X20955000Y-13906500D02*
X20955000Y-13589000D01*
X22142450Y-10648950D02*
X22098000Y-10604500D01*
X22146764Y-10653264D02*
X22142450Y-10648950D01*
X22146764Y-12994736D02*
X22146764Y-10653264D01*
X21806500Y-13335000D02*
X22146764Y-12994736D01*
X21796500Y-13335000D02*
X21806500Y-13335000D01*
X20129500Y-10604500D02*
X20129500Y-10557000D01*
X20129500Y-10557000D02*
X20145500Y-10541000D01*
X21717000Y-13906500D02*
X21717000Y-13774420D01*
X21717000Y-13774420D02*
X21686260Y-13743680D01*
X21786500Y-13335000D02*
X21796500Y-13335000D01*
X21686260Y-13743680D02*
X21686260Y-13435240D01*
X21686260Y-13435240D02*
X21786500Y-13335000D01*
X21711480Y-10350500D02*
X22025442Y-10350500D01*
X22025442Y-10350500D02*
X22201759Y-10526817D01*
X22201759Y-10526817D02*
X22201759Y-13193741D01*
X22201759Y-13193741D02*
X21806500Y-13589000D01*
X21647980Y-10414000D02*
X21711480Y-10350500D01*
X21542500Y-10414000D02*
X21647980Y-10414000D01*
X21796500Y-13589000D02*
X21806500Y-13589000D01*
X21971000Y-13906500D02*
X21971000Y-13753500D01*
X21971000Y-13753500D02*
X21806500Y-13589000D01*
X22387000Y-13081000D02*
X22352000Y-13081000D01*
X22542500Y-12925500D02*
X22387000Y-13081000D01*
X22542500Y-11433100D02*
X22542500Y-12925500D01*
X22414576Y-11305177D02*
X22542500Y-11433100D01*
X22272310Y-10515751D02*
X22288500Y-10531942D01*
X22272310Y-10121749D02*
X22272310Y-10515751D01*
X22288500Y-10531942D02*
X22288500Y-11176924D01*
X22288500Y-11176924D02*
X22414576Y-11303000D01*
X22414576Y-11303000D02*
X22414576Y-11305177D01*
X21963000Y-9017000D02*
X21963000Y-9112480D01*
X21963000Y-9112480D02*
X22288500Y-9437980D01*
X22288500Y-9437980D02*
X22288500Y-10105559D01*
X22288500Y-10105559D02*
X22272310Y-10121749D01*
X21963000Y-9017000D02*
X21857520Y-9017000D01*
X21857520Y-9017000D02*
X21717000Y-8876480D01*
X21717000Y-8876480D02*
X21717000Y-8514080D01*
X21717000Y-8514080D02*
X21717000Y-8382000D01*
X22698390Y-8474390D02*
X22469159Y-8245159D01*
X22092601Y-8245159D02*
X21971000Y-8366760D01*
X22469159Y-8245159D02*
X22092601Y-8245159D01*
X21971000Y-8366760D02*
X21971000Y-8382000D01*
X23114000Y-13589000D02*
X23079000Y-13589000D01*
X22698390Y-13208390D02*
X22698390Y-8474390D01*
X23079000Y-13589000D02*
X22698390Y-13208390D01*
X21971000Y-8382000D02*
X21971000Y-8755000D01*
X21971000Y-8755000D02*
X21963000Y-8763000D01*
D26*
X20137500Y-8763000D02*
X20137500Y-8453500D01*
X20137500Y-8453500D02*
X20066000Y-8382000D01*
D24*
X19867500Y-9779000D02*
X19972980Y-9779000D01*
X19972980Y-9779000D02*
X20027260Y-9724720D01*
X20027260Y-9724720D02*
X20027260Y-8863240D01*
X20027260Y-8863240D02*
X20127500Y-8763000D01*
X20127500Y-8763000D02*
X20137500Y-8763000D01*
D26*
X19867500Y-8763000D02*
X19867500Y-8437500D01*
X19867500Y-8437500D02*
X19812000Y-8382000D01*
D24*
X19867500Y-8763000D02*
X19867500Y-9017000D01*
D26*
X21209000Y-8763000D02*
X21209000Y-8509000D01*
X21209000Y-8509000D02*
X21082000Y-8382000D01*
D24*
X21219000Y-8763000D02*
X21209000Y-8763000D01*
X21319240Y-8863240D02*
X21219000Y-8763000D01*
X21319240Y-9364192D02*
X21319240Y-8863240D01*
X21415690Y-11014622D02*
X20905760Y-10504692D01*
X21415690Y-11757310D02*
X21415690Y-11014622D01*
X21225000Y-11938000D02*
X21235000Y-11938000D01*
X20905760Y-9777672D02*
X21319240Y-9364192D01*
X20905760Y-10504692D02*
X20905760Y-9777672D01*
X21235000Y-11938000D02*
X21415690Y-11757310D01*
D26*
X20939000Y-8763000D02*
X20828000Y-8652000D01*
X20828000Y-8652000D02*
X20828000Y-8382000D01*
D24*
X20939000Y-8763000D02*
X20939000Y-9017000D01*
X19415000Y-13335000D02*
X19415000Y-13001500D01*
X19415000Y-13001500D02*
X19367500Y-12954000D01*
X21637500Y-12954000D02*
X21272500Y-12954000D01*
X19494500Y-10477500D02*
X19494500Y-10585263D01*
X19704237Y-10795000D02*
X19770020Y-10795000D01*
X19494500Y-10585263D02*
X19704237Y-10795000D01*
X19770020Y-10795000D02*
X19875500Y-10795000D01*
X21971000Y-10477500D02*
X21733000Y-10477500D01*
X21733000Y-10477500D02*
X21647980Y-10562520D01*
X21647980Y-10562520D02*
X21647980Y-10572520D01*
X21647980Y-10572520D02*
X21552500Y-10668000D01*
X21552500Y-10668000D02*
X21542500Y-10668000D01*
X20147500Y-9271000D02*
X20637500Y-9761000D01*
X20637500Y-9761000D02*
X20637500Y-11065830D01*
X20137500Y-9271000D02*
X20147500Y-9271000D01*
X20637500Y-11065830D02*
X20637500Y-11128692D01*
X19431000Y-11684000D02*
X19536480Y-11684000D01*
X19726980Y-11493500D02*
X19815020Y-11493500D01*
X19536480Y-11684000D02*
X19726980Y-11493500D01*
X19815020Y-11493500D02*
X19923000Y-11493500D01*
X20137500Y-9017000D02*
X20137500Y-9271000D01*
X19384354Y-10951620D02*
X19428803Y-10996070D01*
X19441009Y-9858060D02*
X19383060Y-9916009D01*
X19573560Y-9858060D02*
X19441009Y-9858060D01*
X19594740Y-9879240D02*
X19573560Y-9858060D01*
X20027260Y-9879240D02*
X19594740Y-9879240D01*
X20127500Y-9779000D02*
X20027260Y-9879240D01*
X20137500Y-9779000D02*
X20127500Y-9779000D01*
X19383060Y-10950326D02*
X19384354Y-10951620D01*
X19383060Y-9916009D02*
X19383060Y-10950326D01*
X19494500Y-11239500D02*
X19431000Y-11176000D01*
X20137500Y-9779000D02*
X20137500Y-9525000D01*
X19431000Y-11430000D02*
X19536480Y-11430000D01*
X19536480Y-11430000D02*
X19599980Y-11366500D01*
X19599980Y-11366500D02*
X19815020Y-11366500D01*
X19815020Y-11366500D02*
X19923000Y-11366500D01*
X19431000Y-11176000D02*
X19431000Y-11430000D01*
X20463000Y-11620500D02*
X20510500Y-11620500D01*
X20510500Y-11620500D02*
X20764500Y-11366500D01*
X20764500Y-11366500D02*
X20764500Y-9810980D01*
X20764500Y-9810980D02*
X21209000Y-9366480D01*
X21209000Y-9366480D02*
X21209000Y-9271000D01*
X21209000Y-9271000D02*
X21209000Y-9017000D01*
X20447000Y-11874500D02*
X20447000Y-11636500D01*
X20447000Y-11636500D02*
X20463000Y-11620500D01*
X20947000Y-11430000D02*
X20947000Y-11438000D01*
X20947000Y-11438000D02*
X20891500Y-11493500D01*
X20463000Y-11493500D02*
X20320000Y-11493500D01*
X20955000Y-11938000D02*
X20955000Y-11684000D01*
X20947000Y-11430000D02*
X20957000Y-11430000D01*
X20957000Y-11430000D02*
X21211000Y-11176000D01*
X21211000Y-11176000D02*
X21217000Y-11176000D01*
X20947000Y-11430000D02*
X20947000Y-11676000D01*
X20947000Y-11676000D02*
X20955000Y-11684000D01*
X20883500Y-11493500D02*
X20947000Y-11430000D01*
X19431000Y-9271000D02*
X19867500Y-9271000D01*
X20939000Y-9271000D02*
X20510500Y-9271000D01*
X20002500Y-12509500D02*
X20256500Y-12509500D01*
X19931000Y-13081000D02*
X19931000Y-12581000D01*
X19931000Y-12581000D02*
X20002500Y-12509500D01*
X20717000Y-12827000D02*
X20717000Y-12716000D01*
X20717000Y-12716000D02*
X20796500Y-12636500D01*
X20447000Y-13081000D02*
X20457000Y-13081000D01*
X20457000Y-13081000D02*
X20711000Y-12827000D01*
X20711000Y-12827000D02*
X20717000Y-12827000D01*
X20145500Y-10287000D02*
X20478500Y-10287000D01*
X19875500Y-10541000D02*
X19885500Y-10541000D01*
X19885500Y-10541000D02*
X20139500Y-10287000D01*
X20139500Y-10287000D02*
X20145500Y-10287000D01*
X21542500Y-10160000D02*
X21532500Y-10160000D01*
X21532500Y-10160000D02*
X21278500Y-10414000D01*
X21278500Y-10414000D02*
X21272500Y-10414000D01*
X21542500Y-10160000D02*
X21542500Y-10178634D01*
X21542500Y-10178634D02*
X21538136Y-10182998D01*
X21272500Y-10414000D02*
X21018500Y-10414000D01*
X19367500Y-12446000D02*
X19367500Y-12126500D01*
X19367500Y-12126500D02*
X19179000Y-11938000D01*
X19179000Y-11938000D02*
X19169000Y-11938000D01*
X21637500Y-12446000D02*
X21532020Y-12446000D01*
X21532020Y-12446000D02*
X21272500Y-12446000D01*
X19494500Y-9969500D02*
X19812000Y-9969500D01*
X19812000Y-9969500D02*
X19875500Y-10033000D01*
X21971000Y-9969500D02*
X21606000Y-9969500D01*
X21606000Y-9969500D02*
X21542500Y-9906000D01*
X19732500Y-12509500D02*
X19742500Y-12509500D01*
X19742500Y-12509500D02*
X19996500Y-12255500D01*
X19996500Y-12255500D02*
X20148520Y-12255500D01*
X20148520Y-12255500D02*
X20256500Y-12255500D01*
X20796500Y-12382500D02*
X20891500Y-12382500D01*
X20447000Y-12827000D02*
X20447000Y-12684500D01*
X20447000Y-12684500D02*
X20749000Y-12382500D01*
X20749000Y-12382500D02*
X20796500Y-12382500D01*
X22352000Y-10722441D02*
X22352000Y-10413362D01*
X22352000Y-10413362D02*
X22352000Y-10350501D01*
X22606000Y-10976441D02*
X22352000Y-10722441D01*
X22606000Y-13116000D02*
X22606000Y-10976441D01*
X22352000Y-13335000D02*
X22387000Y-13335000D01*
X22606000Y-12382500D02*
X22606000Y-10976441D01*
X22606000Y-10976441D02*
X22399310Y-10769751D01*
X22606000Y-13226480D02*
X22606000Y-12382500D01*
X22352000Y-13335000D02*
X22497480Y-13335000D01*
X22497480Y-13335000D02*
X22606000Y-13226480D01*
X19748500Y-10287000D02*
X19875500Y-10287000D01*
X20478500Y-10033000D02*
X20383500Y-10033000D01*
X21282500Y-10160000D02*
X21399500Y-10043000D01*
X21272500Y-10160000D02*
X21282500Y-10160000D01*
X21399500Y-10043000D02*
X21399500Y-10032997D01*
X22923500Y-13179500D02*
X22923500Y-10287000D01*
X22923500Y-10287000D02*
X23050500Y-10160000D01*
X23114000Y-13335000D02*
X23079000Y-13335000D01*
X23079000Y-13335000D02*
X22923500Y-13179500D01*
X21018500Y-10160000D02*
X21272500Y-10160000D01*
X19923000Y-11239500D02*
X19697932Y-11239500D01*
X19697932Y-11239500D02*
X19534192Y-11075760D01*
X19534192Y-11075760D02*
X19327808Y-11075760D01*
X19327808Y-11075760D02*
X19320760Y-11082808D01*
X19320760Y-11082808D02*
X19320760Y-11280240D01*
X19320760Y-11280240D02*
X19171000Y-11430000D01*
X19171000Y-11430000D02*
X19161000Y-11430000D01*
X20066000Y-11239500D02*
X19923000Y-11239500D01*
X20320000Y-11049000D02*
X20320000Y-11271000D01*
X20320000Y-11271000D02*
X20415500Y-11366500D01*
X20415500Y-11366500D02*
X20463000Y-11366500D01*
X20955000Y-11049000D02*
X20955000Y-11168000D01*
X20955000Y-11168000D02*
X20947000Y-11176000D01*
X20300432Y-12128500D02*
X19910068Y-12128500D01*
X19910068Y-12128500D02*
X19443700Y-12594868D01*
X19443700Y-12594868D02*
X19443700Y-12623800D01*
X19443700Y-12623800D02*
X19367500Y-12700000D01*
X20256500Y-12382500D02*
X20304000Y-12382500D01*
X20304000Y-12382500D02*
X20369240Y-12317260D01*
X20369240Y-12317260D02*
X20369240Y-12197308D01*
X20369240Y-12197308D02*
X20300432Y-12128500D01*
X20796500Y-12509500D02*
X20891500Y-12509500D01*
X19494500Y-10223500D02*
X19570700Y-10147300D01*
X19570700Y-10147300D02*
X20465800Y-10147300D01*
X20465800Y-10147300D02*
X20478500Y-10160000D01*
X21018500Y-10287000D02*
X21145500Y-10287000D01*
M02*
