M48
;DRILL file {KiCad (2015-09-03 BZR 6154)-product} date Saturday, September 05, 2015 'PMt' 10:25:48 PM
;FORMAT={2:4/ absolute / inch / keep zeros}
FMAT,2
INCH,TZ
T1C0.016
T2C0.031
T3C0.032
T4C0.040
%
G90
G05
M72
T1
X076491Y-043292
X076750Y-044250
X077250Y-047000
X077500Y-052000
X077750Y-040500
X077750Y-045250
X078250Y-037750
X078250Y-055750
X079000Y-044250
X079012Y-048250
X079250Y-039010
X079250Y-041750
X079250Y-049750
X079750Y-042500
X080000Y-043500
X080000Y-045250
X080250Y-039500
X080500Y-047774
X080750Y-043000
X081250Y-043814
X081430Y-055750
X081500Y-053000
X082250Y-045250
X082250Y-049250
X082250Y-048750
X082500Y-043500
X082750Y-042250
X083250Y-039000
X083250Y-040500
X084000Y-046000
X084225Y-042371
X084250Y-039500
X085207Y-042750
X085250Y-046500
X086686Y-048000
X086686Y-049053
X087000Y-041750
X088000Y-040750
X088121Y-034475
X088500Y-039007
X088500Y-042000
X089000Y-042750
X090750Y-040000
X091500Y-039250
X091750Y-047000
X092250Y-048000
T2
X088000Y-045500
X088000Y-046500
X088000Y-047500
X088000Y-048500
X088000Y-049500
X088000Y-050500
X088000Y-051500
X088000Y-052500
X088000Y-053500
X091000Y-045500
X091000Y-046500
X091000Y-047500
X091000Y-048500
X091000Y-049500
X091000Y-050500
X091000Y-051500
X091000Y-052500
X091000Y-053500
T3
X076250Y-049000
X076250Y-050000
X076250Y-051000
X076500Y-034500
X076500Y-035500
X076500Y-036500
X076750Y-039250
X076750Y-040250
X076750Y-041250
X080750Y-034500
X080750Y-035500
X080750Y-036500
X083750Y-049000
X083750Y-050000
X083750Y-051000
X086500Y-039250
X086500Y-040250
X086500Y-041250
T4
X074000Y-039500
X074000Y-040500
X074000Y-041500
X074000Y-042500
X074000Y-043500
X074000Y-044500
X074000Y-045500
X074000Y-046500
X074000Y-048500
X074000Y-049500
X074000Y-050500
X074000Y-051500
X074000Y-052500
X074000Y-053500
X076250Y-054750
X077250Y-054750
X078000Y-033000
X078250Y-054750
X079000Y-033000
X079250Y-054750
X080250Y-054750
X082000Y-033000
X082500Y-054750
X083000Y-033000
X083500Y-054750
X084500Y-054750
X085500Y-033000
X085500Y-054750
X086500Y-033000
X086500Y-054750
X087500Y-033000
X093000Y-036000
X093000Y-037000
X093000Y-038000
X093000Y-039000
X093000Y-040000
X093000Y-041000
X093000Y-042000
X093000Y-043000
X093000Y-044000
X093000Y-045000
X093000Y-046500
X093000Y-047500
X093000Y-048500
X093000Y-049500
X093000Y-050500
X093000Y-051500
X093000Y-052500
X093000Y-053500
T0
M30
