%FSLAX45Y45*%
G04 Gerber Fmt 4.5, Leading zero omitted, Abs format (unit mm)*
G04 Created by KiCad (PCBNEW (2015-09-03 BZR 6154)-product) date Saturday, September 05, 2015 'PMt' 10:25:49 PM*
%MOMM*%
G01*
G04 APERTURE LIST*
%ADD10C,0.127000*%
%ADD11C,0.100000*%
%ADD12C,0.200000*%
%ADD13C,0.300000*%
G04 APERTURE END LIST*
D10*
D11*
X24003000Y-14351000D02*
X18542000Y-14351000D01*
X24003000Y-14224000D02*
X24003000Y-14351000D01*
X24003000Y-8001000D02*
X24003000Y-14224000D01*
X18542000Y-8001000D02*
X24003000Y-8001000D01*
X18542000Y-14351000D02*
X18542000Y-8001000D01*
D12*
X19408803Y-10976070D02*
X19448803Y-11016070D01*
X19448803Y-10976070D02*
X19408803Y-11016070D01*
X19474500Y-11219500D02*
X19514500Y-11259500D01*
X19514500Y-11219500D02*
X19474500Y-11259500D01*
X19601500Y-11918000D02*
X19641500Y-11958000D01*
X19641500Y-11918000D02*
X19601500Y-11958000D01*
X19665000Y-13188000D02*
X19705000Y-13228000D01*
X19705000Y-13188000D02*
X19665000Y-13228000D01*
X19728500Y-10267000D02*
X19768500Y-10307000D01*
X19768500Y-10267000D02*
X19728500Y-10307000D01*
X19728500Y-11473500D02*
X19768500Y-11513500D01*
X19768500Y-11473500D02*
X19728500Y-11513500D01*
X19855500Y-9568500D02*
X19895500Y-9608500D01*
X19895500Y-9568500D02*
X19855500Y-9608500D01*
X19855500Y-14140500D02*
X19895500Y-14180500D01*
X19895500Y-14140500D02*
X19855500Y-14180500D01*
X20046000Y-11219500D02*
X20086000Y-11259500D01*
X20086000Y-11219500D02*
X20046000Y-11259500D01*
X20049099Y-12235500D02*
X20089099Y-12275500D01*
X20089099Y-12235500D02*
X20049099Y-12275500D01*
X20109500Y-9888450D02*
X20149500Y-9928450D01*
X20149500Y-9888450D02*
X20109500Y-9928450D01*
X20109500Y-10584500D02*
X20149500Y-10624500D01*
X20149500Y-10584500D02*
X20109500Y-10624500D01*
X20109500Y-12616500D02*
X20149500Y-12656500D01*
X20149500Y-12616500D02*
X20109500Y-12656500D01*
X20236500Y-10775000D02*
X20276500Y-10815000D01*
X20276500Y-10775000D02*
X20236500Y-10815000D01*
X20300000Y-11029000D02*
X20340000Y-11069000D01*
X20340000Y-11029000D02*
X20300000Y-11069000D01*
X20300000Y-11473500D02*
X20340000Y-11513500D01*
X20340000Y-11473500D02*
X20300000Y-11513500D01*
X20363500Y-10013000D02*
X20403500Y-10053000D01*
X20403500Y-10013000D02*
X20363500Y-10053000D01*
X20427000Y-12114500D02*
X20467000Y-12154500D01*
X20467000Y-12114500D02*
X20427000Y-12154500D01*
X20490500Y-10902000D02*
X20530500Y-10942000D01*
X20530500Y-10902000D02*
X20490500Y-10942000D01*
X20617500Y-11108692D02*
X20657500Y-11148692D01*
X20657500Y-11108692D02*
X20617500Y-11148692D01*
X20663290Y-14140500D02*
X20703290Y-14180500D01*
X20703290Y-14140500D02*
X20663290Y-14180500D01*
X20681000Y-13442000D02*
X20721000Y-13482000D01*
X20721000Y-13442000D02*
X20681000Y-13482000D01*
X20871500Y-11473500D02*
X20911500Y-11513500D01*
X20911500Y-11473500D02*
X20871500Y-11513500D01*
X20871500Y-12489500D02*
X20911500Y-12529500D01*
X20911500Y-12489500D02*
X20871500Y-12529500D01*
X20871500Y-12362500D02*
X20911500Y-12402500D01*
X20911500Y-12362500D02*
X20871500Y-12402500D01*
X20935000Y-11029000D02*
X20975000Y-11069000D01*
X20975000Y-11029000D02*
X20935000Y-11069000D01*
X20998500Y-10711500D02*
X21038500Y-10751500D01*
X21038500Y-10711500D02*
X20998500Y-10751500D01*
X21125500Y-9886000D02*
X21165500Y-9926000D01*
X21165500Y-9886000D02*
X21125500Y-9926000D01*
X21125500Y-10267000D02*
X21165500Y-10307000D01*
X21165500Y-10267000D02*
X21125500Y-10307000D01*
X21316000Y-11664000D02*
X21356000Y-11704000D01*
X21356000Y-11664000D02*
X21316000Y-11704000D01*
X21373115Y-10742298D02*
X21413115Y-10782298D01*
X21413115Y-10742298D02*
X21373115Y-10782298D01*
X21379500Y-10012997D02*
X21419500Y-10052997D01*
X21419500Y-10012997D02*
X21379500Y-10052997D01*
X21622535Y-10838500D02*
X21662535Y-10878500D01*
X21662535Y-10838500D02*
X21622535Y-10878500D01*
X21633500Y-11791000D02*
X21673500Y-11831000D01*
X21673500Y-11791000D02*
X21633500Y-11831000D01*
X21998308Y-12172000D02*
X22038308Y-12212000D01*
X22038308Y-12172000D02*
X21998308Y-12212000D01*
X21998308Y-12439505D02*
X22038308Y-12479505D01*
X22038308Y-12439505D02*
X21998308Y-12479505D01*
X22078000Y-10584500D02*
X22118000Y-10624500D01*
X22118000Y-10584500D02*
X22078000Y-10624500D01*
X22332000Y-10330501D02*
X22372000Y-10370501D01*
X22372000Y-10330501D02*
X22332000Y-10370501D01*
X22362798Y-8736615D02*
X22402798Y-8776615D01*
X22402798Y-8736615D02*
X22362798Y-8776615D01*
X22459000Y-9887890D02*
X22499000Y-9927890D01*
X22499000Y-9887890D02*
X22459000Y-9927890D01*
X22459000Y-10648000D02*
X22499000Y-10688000D01*
X22499000Y-10648000D02*
X22459000Y-10688000D01*
X22586000Y-10838500D02*
X22626000Y-10878500D01*
X22626000Y-10838500D02*
X22586000Y-10878500D01*
X23030500Y-10140000D02*
X23070500Y-10180000D01*
X23070500Y-10140000D02*
X23030500Y-10180000D01*
X23221000Y-9949500D02*
X23261000Y-9989500D01*
X23261000Y-9949500D02*
X23221000Y-9989500D01*
X23284500Y-11918000D02*
X23324500Y-11958000D01*
X23324500Y-11918000D02*
X23284500Y-11958000D01*
X23411500Y-12172000D02*
X23451500Y-12212000D01*
X23451500Y-12172000D02*
X23411500Y-12212000D01*
X22392000Y-11557000D02*
G75*
G03X22392000Y-11557000I-40000J0D01*
G01*
X22392000Y-11811000D02*
G75*
G03X22392000Y-11811000I-40000J0D01*
G01*
X22392000Y-12065000D02*
G75*
G03X22392000Y-12065000I-40000J0D01*
G01*
X22392000Y-12319000D02*
G75*
G03X22392000Y-12319000I-40000J0D01*
G01*
X22392000Y-12573000D02*
G75*
G03X22392000Y-12573000I-40000J0D01*
G01*
X22392000Y-12827000D02*
G75*
G03X22392000Y-12827000I-40000J0D01*
G01*
X22392000Y-13081000D02*
G75*
G03X22392000Y-13081000I-40000J0D01*
G01*
X22392000Y-13335000D02*
G75*
G03X22392000Y-13335000I-40000J0D01*
G01*
X22392000Y-13589000D02*
G75*
G03X22392000Y-13589000I-40000J0D01*
G01*
X23154000Y-11557000D02*
G75*
G03X23154000Y-11557000I-40000J0D01*
G01*
X23154000Y-11811000D02*
G75*
G03X23154000Y-11811000I-40000J0D01*
G01*
X23154000Y-12065000D02*
G75*
G03X23154000Y-12065000I-40000J0D01*
G01*
X23154000Y-12319000D02*
G75*
G03X23154000Y-12319000I-40000J0D01*
G01*
X23154000Y-12573000D02*
G75*
G03X23154000Y-12573000I-40000J0D01*
G01*
X23154000Y-12827000D02*
G75*
G03X23154000Y-12827000I-40000J0D01*
G01*
X23154000Y-13081000D02*
G75*
G03X23154000Y-13081000I-40000J0D01*
G01*
X23154000Y-13335000D02*
G75*
G03X23154000Y-13335000I-40000J0D01*
G01*
X23154000Y-13589000D02*
G75*
G03X23154000Y-13589000I-40000J0D01*
G01*
X19367500Y-12405360D02*
X19367500Y-12486640D01*
X19326860Y-12446000D02*
X19408140Y-12446000D01*
X19367500Y-12659360D02*
X19367500Y-12740640D01*
X19326860Y-12700000D02*
X19408140Y-12700000D01*
X19367500Y-12913360D02*
X19367500Y-12994640D01*
X19326860Y-12954000D02*
X19408140Y-12954000D01*
X19431000Y-8722360D02*
X19431000Y-8803640D01*
X19390360Y-8763000D02*
X19471640Y-8763000D01*
X19431000Y-8976360D02*
X19431000Y-9057640D01*
X19390360Y-9017000D02*
X19471640Y-9017000D01*
X19431000Y-9230360D02*
X19431000Y-9311640D01*
X19390360Y-9271000D02*
X19471640Y-9271000D01*
X19494500Y-9928860D02*
X19494500Y-10010140D01*
X19453860Y-9969500D02*
X19535140Y-9969500D01*
X19494500Y-10182860D02*
X19494500Y-10264140D01*
X19453860Y-10223500D02*
X19535140Y-10223500D01*
X19494500Y-10436860D02*
X19494500Y-10518140D01*
X19453860Y-10477500D02*
X19535140Y-10477500D01*
X20510500Y-8722360D02*
X20510500Y-8803640D01*
X20469860Y-8763000D02*
X20551140Y-8763000D01*
X20510500Y-8976360D02*
X20510500Y-9057640D01*
X20469860Y-9017000D02*
X20551140Y-9017000D01*
X20510500Y-9230360D02*
X20510500Y-9311640D01*
X20469860Y-9271000D02*
X20551140Y-9271000D01*
X21272500Y-12405360D02*
X21272500Y-12486640D01*
X21231860Y-12446000D02*
X21313140Y-12446000D01*
X21272500Y-12659360D02*
X21272500Y-12740640D01*
X21231860Y-12700000D02*
X21313140Y-12700000D01*
X21272500Y-12913360D02*
X21272500Y-12994640D01*
X21231860Y-12954000D02*
X21313140Y-12954000D01*
X21971000Y-9928860D02*
X21971000Y-10010140D01*
X21930360Y-9969500D02*
X22011640Y-9969500D01*
X21971000Y-10182860D02*
X21971000Y-10264140D01*
X21930360Y-10223500D02*
X22011640Y-10223500D01*
X21971000Y-10436860D02*
X21971000Y-10518140D01*
X21930360Y-10477500D02*
X22011640Y-10477500D01*
X18831921Y-10068921D02*
X18831921Y-9997079D01*
X18760079Y-9997079D01*
X18760079Y-10068921D01*
X18831921Y-10068921D01*
X18831921Y-10322921D02*
X18831921Y-10251079D01*
X18760079Y-10251079D01*
X18760079Y-10322921D01*
X18831921Y-10322921D01*
X18831921Y-10576921D02*
X18831921Y-10505079D01*
X18760079Y-10505079D01*
X18760079Y-10576921D01*
X18831921Y-10576921D01*
X18831921Y-10830921D02*
X18831921Y-10759079D01*
X18760079Y-10759079D01*
X18760079Y-10830921D01*
X18831921Y-10830921D01*
X18831921Y-11084921D02*
X18831921Y-11013079D01*
X18760079Y-11013079D01*
X18760079Y-11084921D01*
X18831921Y-11084921D01*
X18831921Y-11338921D02*
X18831921Y-11267079D01*
X18760079Y-11267079D01*
X18760079Y-11338921D01*
X18831921Y-11338921D01*
X18831921Y-11592921D02*
X18831921Y-11521079D01*
X18760079Y-11521079D01*
X18760079Y-11592921D01*
X18831921Y-11592921D01*
X18831921Y-11846921D02*
X18831921Y-11775079D01*
X18760079Y-11775079D01*
X18760079Y-11846921D01*
X18831921Y-11846921D01*
X18831921Y-12354921D02*
X18831921Y-12283079D01*
X18760079Y-12283079D01*
X18760079Y-12354921D01*
X18831921Y-12354921D01*
X18831921Y-12608921D02*
X18831921Y-12537079D01*
X18760079Y-12537079D01*
X18760079Y-12608921D01*
X18831921Y-12608921D01*
X18831921Y-12862921D02*
X18831921Y-12791079D01*
X18760079Y-12791079D01*
X18760079Y-12862921D01*
X18831921Y-12862921D01*
X18831921Y-13116921D02*
X18831921Y-13045079D01*
X18760079Y-13045079D01*
X18760079Y-13116921D01*
X18831921Y-13116921D01*
X18831921Y-13370921D02*
X18831921Y-13299079D01*
X18760079Y-13299079D01*
X18760079Y-13370921D01*
X18831921Y-13370921D01*
X18831921Y-13624921D02*
X18831921Y-13553079D01*
X18760079Y-13553079D01*
X18760079Y-13624921D01*
X18831921Y-13624921D01*
X19403421Y-13942421D02*
X19403421Y-13870579D01*
X19331579Y-13870579D01*
X19331579Y-13942421D01*
X19403421Y-13942421D01*
X19657421Y-13942421D02*
X19657421Y-13870579D01*
X19585579Y-13870579D01*
X19585579Y-13942421D01*
X19657421Y-13942421D01*
X19847921Y-8417921D02*
X19847921Y-8346079D01*
X19776079Y-8346079D01*
X19776079Y-8417921D01*
X19847921Y-8417921D01*
X19911421Y-13942421D02*
X19911421Y-13870579D01*
X19839579Y-13870579D01*
X19839579Y-13942421D01*
X19911421Y-13942421D01*
X20101921Y-8417921D02*
X20101921Y-8346079D01*
X20030079Y-8346079D01*
X20030079Y-8417921D01*
X20101921Y-8417921D01*
X20165421Y-13942421D02*
X20165421Y-13870579D01*
X20093579Y-13870579D01*
X20093579Y-13942421D01*
X20165421Y-13942421D01*
X20419421Y-13942421D02*
X20419421Y-13870579D01*
X20347579Y-13870579D01*
X20347579Y-13942421D01*
X20419421Y-13942421D01*
X20863921Y-8417921D02*
X20863921Y-8346079D01*
X20792079Y-8346079D01*
X20792079Y-8417921D01*
X20863921Y-8417921D01*
X20990921Y-13942421D02*
X20990921Y-13870579D01*
X20919079Y-13870579D01*
X20919079Y-13942421D01*
X20990921Y-13942421D01*
X21117921Y-8417921D02*
X21117921Y-8346079D01*
X21046079Y-8346079D01*
X21046079Y-8417921D01*
X21117921Y-8417921D01*
X21244921Y-13942421D02*
X21244921Y-13870579D01*
X21173079Y-13870579D01*
X21173079Y-13942421D01*
X21244921Y-13942421D01*
X21498921Y-13942421D02*
X21498921Y-13870579D01*
X21427079Y-13870579D01*
X21427079Y-13942421D01*
X21498921Y-13942421D01*
X21752921Y-8417921D02*
X21752921Y-8346079D01*
X21681079Y-8346079D01*
X21681079Y-8417921D01*
X21752921Y-8417921D01*
X21752921Y-13942421D02*
X21752921Y-13870579D01*
X21681079Y-13870579D01*
X21681079Y-13942421D01*
X21752921Y-13942421D01*
X22006921Y-8417921D02*
X22006921Y-8346079D01*
X21935079Y-8346079D01*
X21935079Y-8417921D01*
X22006921Y-8417921D01*
X22006921Y-13942421D02*
X22006921Y-13870579D01*
X21935079Y-13870579D01*
X21935079Y-13942421D01*
X22006921Y-13942421D01*
X22260921Y-8417921D02*
X22260921Y-8346079D01*
X22189079Y-8346079D01*
X22189079Y-8417921D01*
X22260921Y-8417921D01*
X23657921Y-9179921D02*
X23657921Y-9108079D01*
X23586079Y-9108079D01*
X23586079Y-9179921D01*
X23657921Y-9179921D01*
X23657921Y-9433921D02*
X23657921Y-9362079D01*
X23586079Y-9362079D01*
X23586079Y-9433921D01*
X23657921Y-9433921D01*
X23657921Y-9687921D02*
X23657921Y-9616079D01*
X23586079Y-9616079D01*
X23586079Y-9687921D01*
X23657921Y-9687921D01*
X23657921Y-9941921D02*
X23657921Y-9870079D01*
X23586079Y-9870079D01*
X23586079Y-9941921D01*
X23657921Y-9941921D01*
X23657921Y-10195921D02*
X23657921Y-10124079D01*
X23586079Y-10124079D01*
X23586079Y-10195921D01*
X23657921Y-10195921D01*
X23657921Y-10449921D02*
X23657921Y-10378079D01*
X23586079Y-10378079D01*
X23586079Y-10449921D01*
X23657921Y-10449921D01*
X23657921Y-10703921D02*
X23657921Y-10632079D01*
X23586079Y-10632079D01*
X23586079Y-10703921D01*
X23657921Y-10703921D01*
X23657921Y-10957921D02*
X23657921Y-10886079D01*
X23586079Y-10886079D01*
X23586079Y-10957921D01*
X23657921Y-10957921D01*
X23657921Y-11211921D02*
X23657921Y-11140079D01*
X23586079Y-11140079D01*
X23586079Y-11211921D01*
X23657921Y-11211921D01*
X23657921Y-11465921D02*
X23657921Y-11394079D01*
X23586079Y-11394079D01*
X23586079Y-11465921D01*
X23657921Y-11465921D01*
X23657921Y-11846921D02*
X23657921Y-11775079D01*
X23586079Y-11775079D01*
X23586079Y-11846921D01*
X23657921Y-11846921D01*
X23657921Y-12100921D02*
X23657921Y-12029079D01*
X23586079Y-12029079D01*
X23586079Y-12100921D01*
X23657921Y-12100921D01*
X23657921Y-12354921D02*
X23657921Y-12283079D01*
X23586079Y-12283079D01*
X23586079Y-12354921D01*
X23657921Y-12354921D01*
X23657921Y-12608921D02*
X23657921Y-12537079D01*
X23586079Y-12537079D01*
X23586079Y-12608921D01*
X23657921Y-12608921D01*
X23657921Y-12862921D02*
X23657921Y-12791079D01*
X23586079Y-12791079D01*
X23586079Y-12862921D01*
X23657921Y-12862921D01*
X23657921Y-13116921D02*
X23657921Y-13045079D01*
X23586079Y-13045079D01*
X23586079Y-13116921D01*
X23657921Y-13116921D01*
X23657921Y-13370921D02*
X23657921Y-13299079D01*
X23586079Y-13299079D01*
X23586079Y-13370921D01*
X23657921Y-13370921D01*
X23657921Y-13624921D02*
X23657921Y-13553079D01*
X23586079Y-13553079D01*
X23586079Y-13624921D01*
X23657921Y-13624921D01*
D13*
X18808429Y-14821714D02*
X18808429Y-14521714D01*
X18879857Y-14521714D01*
X18922714Y-14536000D01*
X18951286Y-14564571D01*
X18965571Y-14593143D01*
X18979857Y-14650286D01*
X18979857Y-14693143D01*
X18965571Y-14750286D01*
X18951286Y-14778857D01*
X18922714Y-14807429D01*
X18879857Y-14821714D01*
X18808429Y-14821714D01*
X19108429Y-14821714D02*
X19108429Y-14621714D01*
X19108429Y-14678857D02*
X19122714Y-14650286D01*
X19137000Y-14636000D01*
X19165571Y-14621714D01*
X19194143Y-14621714D01*
X19294143Y-14821714D02*
X19294143Y-14621714D01*
X19294143Y-14521714D02*
X19279857Y-14536000D01*
X19294143Y-14550286D01*
X19308429Y-14536000D01*
X19294143Y-14521714D01*
X19294143Y-14550286D01*
X19479857Y-14821714D02*
X19451286Y-14807429D01*
X19437000Y-14778857D01*
X19437000Y-14521714D01*
X19637000Y-14821714D02*
X19608429Y-14807429D01*
X19594143Y-14778857D01*
X19594143Y-14521714D01*
X19979857Y-14821714D02*
X19979857Y-14521714D01*
X20079857Y-14736000D01*
X20179857Y-14521714D01*
X20179857Y-14821714D01*
X20451286Y-14821714D02*
X20451286Y-14664571D01*
X20437000Y-14636000D01*
X20408429Y-14621714D01*
X20351286Y-14621714D01*
X20322714Y-14636000D01*
X20451286Y-14807429D02*
X20422714Y-14821714D01*
X20351286Y-14821714D01*
X20322714Y-14807429D01*
X20308429Y-14778857D01*
X20308429Y-14750286D01*
X20322714Y-14721714D01*
X20351286Y-14707429D01*
X20422714Y-14707429D01*
X20451286Y-14693143D01*
X20594143Y-14621714D02*
X20594143Y-14921714D01*
X20594143Y-14636000D02*
X20622714Y-14621714D01*
X20679857Y-14621714D01*
X20708429Y-14636000D01*
X20722714Y-14650286D01*
X20737000Y-14678857D01*
X20737000Y-14764571D01*
X20722714Y-14793143D01*
X20708429Y-14807429D01*
X20679857Y-14821714D01*
X20622714Y-14821714D01*
X20594143Y-14807429D01*
X20865571Y-14793143D02*
X20879857Y-14807429D01*
X20865571Y-14821714D01*
X20851286Y-14807429D01*
X20865571Y-14793143D01*
X20865571Y-14821714D01*
X20865571Y-14636000D02*
X20879857Y-14650286D01*
X20865571Y-14664571D01*
X20851286Y-14650286D01*
X20865571Y-14636000D01*
X20865571Y-14664571D01*
X18497000Y-15296000D02*
X18537000Y-15336000D01*
X18537000Y-15296000D02*
X18497000Y-15336000D01*
X18865571Y-15151714D02*
X18894143Y-15151714D01*
X18922714Y-15166000D01*
X18937000Y-15180286D01*
X18951286Y-15208857D01*
X18965571Y-15266000D01*
X18965571Y-15337429D01*
X18951286Y-15394571D01*
X18937000Y-15423143D01*
X18922714Y-15437429D01*
X18894143Y-15451714D01*
X18865571Y-15451714D01*
X18837000Y-15437429D01*
X18822714Y-15423143D01*
X18808429Y-15394571D01*
X18794143Y-15337429D01*
X18794143Y-15266000D01*
X18808429Y-15208857D01*
X18822714Y-15180286D01*
X18837000Y-15166000D01*
X18865571Y-15151714D01*
X19094143Y-15423143D02*
X19108429Y-15437429D01*
X19094143Y-15451714D01*
X19079857Y-15437429D01*
X19094143Y-15423143D01*
X19094143Y-15451714D01*
X19365571Y-15251714D02*
X19365571Y-15451714D01*
X19294143Y-15137429D02*
X19222714Y-15351714D01*
X19408428Y-15351714D01*
X19579857Y-15151714D02*
X19608429Y-15151714D01*
X19637000Y-15166000D01*
X19651286Y-15180286D01*
X19665571Y-15208857D01*
X19679857Y-15266000D01*
X19679857Y-15337429D01*
X19665571Y-15394571D01*
X19651286Y-15423143D01*
X19637000Y-15437429D01*
X19608429Y-15451714D01*
X19579857Y-15451714D01*
X19551286Y-15437429D01*
X19537000Y-15423143D01*
X19522714Y-15394571D01*
X19508429Y-15337429D01*
X19508429Y-15266000D01*
X19522714Y-15208857D01*
X19537000Y-15180286D01*
X19551286Y-15166000D01*
X19579857Y-15151714D01*
X19808429Y-15451714D02*
X19808429Y-15251714D01*
X19808429Y-15280286D02*
X19822714Y-15266000D01*
X19851286Y-15251714D01*
X19894143Y-15251714D01*
X19922714Y-15266000D01*
X19937000Y-15294571D01*
X19937000Y-15451714D01*
X19937000Y-15294571D02*
X19951286Y-15266000D01*
X19979857Y-15251714D01*
X20022714Y-15251714D01*
X20051286Y-15266000D01*
X20065571Y-15294571D01*
X20065571Y-15451714D01*
X20208429Y-15451714D02*
X20208429Y-15251714D01*
X20208429Y-15280286D02*
X20222714Y-15266000D01*
X20251286Y-15251714D01*
X20294143Y-15251714D01*
X20322714Y-15266000D01*
X20337000Y-15294571D01*
X20337000Y-15451714D01*
X20337000Y-15294571D02*
X20351286Y-15266000D01*
X20379857Y-15251714D01*
X20422714Y-15251714D01*
X20451286Y-15266000D01*
X20465571Y-15294571D01*
X20465571Y-15451714D01*
X21051286Y-15137429D02*
X20794143Y-15523143D01*
X21437000Y-15151714D02*
X21465571Y-15151714D01*
X21494143Y-15166000D01*
X21508428Y-15180286D01*
X21522714Y-15208857D01*
X21537000Y-15266000D01*
X21537000Y-15337429D01*
X21522714Y-15394571D01*
X21508428Y-15423143D01*
X21494143Y-15437429D01*
X21465571Y-15451714D01*
X21437000Y-15451714D01*
X21408428Y-15437429D01*
X21394143Y-15423143D01*
X21379857Y-15394571D01*
X21365571Y-15337429D01*
X21365571Y-15266000D01*
X21379857Y-15208857D01*
X21394143Y-15180286D01*
X21408428Y-15166000D01*
X21437000Y-15151714D01*
X21665571Y-15423143D02*
X21679857Y-15437429D01*
X21665571Y-15451714D01*
X21651286Y-15437429D01*
X21665571Y-15423143D01*
X21665571Y-15451714D01*
X21865571Y-15151714D02*
X21894143Y-15151714D01*
X21922714Y-15166000D01*
X21937000Y-15180286D01*
X21951286Y-15208857D01*
X21965571Y-15266000D01*
X21965571Y-15337429D01*
X21951286Y-15394571D01*
X21937000Y-15423143D01*
X21922714Y-15437429D01*
X21894143Y-15451714D01*
X21865571Y-15451714D01*
X21837000Y-15437429D01*
X21822714Y-15423143D01*
X21808428Y-15394571D01*
X21794143Y-15337429D01*
X21794143Y-15266000D01*
X21808428Y-15208857D01*
X21822714Y-15180286D01*
X21837000Y-15166000D01*
X21865571Y-15151714D01*
X22251286Y-15451714D02*
X22079857Y-15451714D01*
X22165571Y-15451714D02*
X22165571Y-15151714D01*
X22137000Y-15194571D01*
X22108428Y-15223143D01*
X22079857Y-15237429D01*
X22508428Y-15151714D02*
X22451285Y-15151714D01*
X22422714Y-15166000D01*
X22408428Y-15180286D01*
X22379857Y-15223143D01*
X22365571Y-15280286D01*
X22365571Y-15394571D01*
X22379857Y-15423143D01*
X22394143Y-15437429D01*
X22422714Y-15451714D01*
X22479857Y-15451714D01*
X22508428Y-15437429D01*
X22522714Y-15423143D01*
X22537000Y-15394571D01*
X22537000Y-15323143D01*
X22522714Y-15294571D01*
X22508428Y-15280286D01*
X22479857Y-15266000D01*
X22422714Y-15266000D01*
X22394143Y-15280286D01*
X22379857Y-15294571D01*
X22365571Y-15323143D01*
X22651286Y-15151714D02*
X22651286Y-15208857D01*
X22765571Y-15151714D02*
X22765571Y-15208857D01*
X23208428Y-15566000D02*
X23194143Y-15551714D01*
X23165571Y-15508857D01*
X23151285Y-15480286D01*
X23137000Y-15437429D01*
X23122714Y-15366000D01*
X23122714Y-15308857D01*
X23137000Y-15237429D01*
X23151285Y-15194571D01*
X23165571Y-15166000D01*
X23194143Y-15123143D01*
X23208428Y-15108857D01*
X23451285Y-15251714D02*
X23451285Y-15451714D01*
X23379857Y-15137429D02*
X23308428Y-15351714D01*
X23494143Y-15351714D01*
X23737000Y-15151714D02*
X23679857Y-15151714D01*
X23651285Y-15166000D01*
X23637000Y-15180286D01*
X23608428Y-15223143D01*
X23594143Y-15280286D01*
X23594143Y-15394571D01*
X23608428Y-15423143D01*
X23622714Y-15437429D01*
X23651285Y-15451714D01*
X23708428Y-15451714D01*
X23737000Y-15437429D01*
X23751285Y-15423143D01*
X23765571Y-15394571D01*
X23765571Y-15323143D01*
X23751285Y-15294571D01*
X23737000Y-15280286D01*
X23708428Y-15266000D01*
X23651285Y-15266000D01*
X23622714Y-15280286D01*
X23608428Y-15294571D01*
X23594143Y-15323143D01*
X24122714Y-15451714D02*
X24122714Y-15151714D01*
X24251285Y-15451714D02*
X24251285Y-15294571D01*
X24237000Y-15266000D01*
X24208428Y-15251714D01*
X24165571Y-15251714D01*
X24137000Y-15266000D01*
X24122714Y-15280286D01*
X24437000Y-15451714D02*
X24408428Y-15437429D01*
X24394143Y-15423143D01*
X24379857Y-15394571D01*
X24379857Y-15308857D01*
X24394143Y-15280286D01*
X24408428Y-15266000D01*
X24437000Y-15251714D01*
X24479857Y-15251714D01*
X24508428Y-15266000D01*
X24522714Y-15280286D01*
X24537000Y-15308857D01*
X24537000Y-15394571D01*
X24522714Y-15423143D01*
X24508428Y-15437429D01*
X24479857Y-15451714D01*
X24437000Y-15451714D01*
X24708428Y-15451714D02*
X24679857Y-15437429D01*
X24665571Y-15408857D01*
X24665571Y-15151714D01*
X24937000Y-15437429D02*
X24908428Y-15451714D01*
X24851286Y-15451714D01*
X24822714Y-15437429D01*
X24808428Y-15408857D01*
X24808428Y-15294571D01*
X24822714Y-15266000D01*
X24851286Y-15251714D01*
X24908428Y-15251714D01*
X24937000Y-15266000D01*
X24951286Y-15294571D01*
X24951286Y-15323143D01*
X24808428Y-15351714D01*
X25065571Y-15437429D02*
X25094143Y-15451714D01*
X25151286Y-15451714D01*
X25179857Y-15437429D01*
X25194143Y-15408857D01*
X25194143Y-15394571D01*
X25179857Y-15366000D01*
X25151286Y-15351714D01*
X25108428Y-15351714D01*
X25079857Y-15337429D01*
X25065571Y-15308857D01*
X25065571Y-15294571D01*
X25079857Y-15266000D01*
X25108428Y-15251714D01*
X25151286Y-15251714D01*
X25179857Y-15266000D01*
X25294143Y-15566000D02*
X25308428Y-15551714D01*
X25337000Y-15508857D01*
X25351286Y-15480286D01*
X25365571Y-15437429D01*
X25379857Y-15366000D01*
X25379857Y-15308857D01*
X25365571Y-15237429D01*
X25351286Y-15194571D01*
X25337000Y-15166000D01*
X25308428Y-15123143D01*
X25294143Y-15108857D01*
X18537000Y-15712000D02*
G75*
G03X18537000Y-15712000I-40000J0D01*
G01*
X18865571Y-15547714D02*
X18894143Y-15547714D01*
X18922714Y-15562000D01*
X18937000Y-15576286D01*
X18951286Y-15604857D01*
X18965571Y-15662000D01*
X18965571Y-15733429D01*
X18951286Y-15790571D01*
X18937000Y-15819143D01*
X18922714Y-15833429D01*
X18894143Y-15847714D01*
X18865571Y-15847714D01*
X18837000Y-15833429D01*
X18822714Y-15819143D01*
X18808429Y-15790571D01*
X18794143Y-15733429D01*
X18794143Y-15662000D01*
X18808429Y-15604857D01*
X18822714Y-15576286D01*
X18837000Y-15562000D01*
X18865571Y-15547714D01*
X19094143Y-15819143D02*
X19108429Y-15833429D01*
X19094143Y-15847714D01*
X19079857Y-15833429D01*
X19094143Y-15819143D01*
X19094143Y-15847714D01*
X19279857Y-15676286D02*
X19251286Y-15662000D01*
X19237000Y-15647714D01*
X19222714Y-15619143D01*
X19222714Y-15604857D01*
X19237000Y-15576286D01*
X19251286Y-15562000D01*
X19279857Y-15547714D01*
X19337000Y-15547714D01*
X19365571Y-15562000D01*
X19379857Y-15576286D01*
X19394143Y-15604857D01*
X19394143Y-15619143D01*
X19379857Y-15647714D01*
X19365571Y-15662000D01*
X19337000Y-15676286D01*
X19279857Y-15676286D01*
X19251286Y-15690571D01*
X19237000Y-15704857D01*
X19222714Y-15733429D01*
X19222714Y-15790571D01*
X19237000Y-15819143D01*
X19251286Y-15833429D01*
X19279857Y-15847714D01*
X19337000Y-15847714D01*
X19365571Y-15833429D01*
X19379857Y-15819143D01*
X19394143Y-15790571D01*
X19394143Y-15733429D01*
X19379857Y-15704857D01*
X19365571Y-15690571D01*
X19337000Y-15676286D01*
X19579857Y-15547714D02*
X19608429Y-15547714D01*
X19637000Y-15562000D01*
X19651286Y-15576286D01*
X19665571Y-15604857D01*
X19679857Y-15662000D01*
X19679857Y-15733429D01*
X19665571Y-15790571D01*
X19651286Y-15819143D01*
X19637000Y-15833429D01*
X19608429Y-15847714D01*
X19579857Y-15847714D01*
X19551286Y-15833429D01*
X19537000Y-15819143D01*
X19522714Y-15790571D01*
X19508429Y-15733429D01*
X19508429Y-15662000D01*
X19522714Y-15604857D01*
X19537000Y-15576286D01*
X19551286Y-15562000D01*
X19579857Y-15547714D01*
X19808429Y-15847714D02*
X19808429Y-15647714D01*
X19808429Y-15676286D02*
X19822714Y-15662000D01*
X19851286Y-15647714D01*
X19894143Y-15647714D01*
X19922714Y-15662000D01*
X19937000Y-15690571D01*
X19937000Y-15847714D01*
X19937000Y-15690571D02*
X19951286Y-15662000D01*
X19979857Y-15647714D01*
X20022714Y-15647714D01*
X20051286Y-15662000D01*
X20065571Y-15690571D01*
X20065571Y-15847714D01*
X20208429Y-15847714D02*
X20208429Y-15647714D01*
X20208429Y-15676286D02*
X20222714Y-15662000D01*
X20251286Y-15647714D01*
X20294143Y-15647714D01*
X20322714Y-15662000D01*
X20337000Y-15690571D01*
X20337000Y-15847714D01*
X20337000Y-15690571D02*
X20351286Y-15662000D01*
X20379857Y-15647714D01*
X20422714Y-15647714D01*
X20451286Y-15662000D01*
X20465571Y-15690571D01*
X20465571Y-15847714D01*
X21051286Y-15533429D02*
X20794143Y-15919143D01*
X21437000Y-15547714D02*
X21465571Y-15547714D01*
X21494143Y-15562000D01*
X21508428Y-15576286D01*
X21522714Y-15604857D01*
X21537000Y-15662000D01*
X21537000Y-15733429D01*
X21522714Y-15790571D01*
X21508428Y-15819143D01*
X21494143Y-15833429D01*
X21465571Y-15847714D01*
X21437000Y-15847714D01*
X21408428Y-15833429D01*
X21394143Y-15819143D01*
X21379857Y-15790571D01*
X21365571Y-15733429D01*
X21365571Y-15662000D01*
X21379857Y-15604857D01*
X21394143Y-15576286D01*
X21408428Y-15562000D01*
X21437000Y-15547714D01*
X21665571Y-15819143D02*
X21679857Y-15833429D01*
X21665571Y-15847714D01*
X21651286Y-15833429D01*
X21665571Y-15819143D01*
X21665571Y-15847714D01*
X21865571Y-15547714D02*
X21894143Y-15547714D01*
X21922714Y-15562000D01*
X21937000Y-15576286D01*
X21951286Y-15604857D01*
X21965571Y-15662000D01*
X21965571Y-15733429D01*
X21951286Y-15790571D01*
X21937000Y-15819143D01*
X21922714Y-15833429D01*
X21894143Y-15847714D01*
X21865571Y-15847714D01*
X21837000Y-15833429D01*
X21822714Y-15819143D01*
X21808428Y-15790571D01*
X21794143Y-15733429D01*
X21794143Y-15662000D01*
X21808428Y-15604857D01*
X21822714Y-15576286D01*
X21837000Y-15562000D01*
X21865571Y-15547714D01*
X22065571Y-15547714D02*
X22251286Y-15547714D01*
X22151286Y-15662000D01*
X22194143Y-15662000D01*
X22222714Y-15676286D01*
X22237000Y-15690571D01*
X22251286Y-15719143D01*
X22251286Y-15790571D01*
X22237000Y-15819143D01*
X22222714Y-15833429D01*
X22194143Y-15847714D01*
X22108428Y-15847714D01*
X22079857Y-15833429D01*
X22065571Y-15819143D01*
X22537000Y-15847714D02*
X22365571Y-15847714D01*
X22451285Y-15847714D02*
X22451285Y-15547714D01*
X22422714Y-15590571D01*
X22394143Y-15619143D01*
X22365571Y-15633429D01*
X22651286Y-15547714D02*
X22651286Y-15604857D01*
X22765571Y-15547714D02*
X22765571Y-15604857D01*
X23208428Y-15962000D02*
X23194143Y-15947714D01*
X23165571Y-15904857D01*
X23151285Y-15876286D01*
X23137000Y-15833429D01*
X23122714Y-15762000D01*
X23122714Y-15704857D01*
X23137000Y-15633429D01*
X23151285Y-15590571D01*
X23165571Y-15562000D01*
X23194143Y-15519143D01*
X23208428Y-15504857D01*
X23479857Y-15847714D02*
X23308428Y-15847714D01*
X23394143Y-15847714D02*
X23394143Y-15547714D01*
X23365571Y-15590571D01*
X23337000Y-15619143D01*
X23308428Y-15633429D01*
X23651285Y-15676286D02*
X23622714Y-15662000D01*
X23608428Y-15647714D01*
X23594143Y-15619143D01*
X23594143Y-15604857D01*
X23608428Y-15576286D01*
X23622714Y-15562000D01*
X23651285Y-15547714D01*
X23708428Y-15547714D01*
X23737000Y-15562000D01*
X23751285Y-15576286D01*
X23765571Y-15604857D01*
X23765571Y-15619143D01*
X23751285Y-15647714D01*
X23737000Y-15662000D01*
X23708428Y-15676286D01*
X23651285Y-15676286D01*
X23622714Y-15690571D01*
X23608428Y-15704857D01*
X23594143Y-15733429D01*
X23594143Y-15790571D01*
X23608428Y-15819143D01*
X23622714Y-15833429D01*
X23651285Y-15847714D01*
X23708428Y-15847714D01*
X23737000Y-15833429D01*
X23751285Y-15819143D01*
X23765571Y-15790571D01*
X23765571Y-15733429D01*
X23751285Y-15704857D01*
X23737000Y-15690571D01*
X23708428Y-15676286D01*
X24122714Y-15847714D02*
X24122714Y-15547714D01*
X24251285Y-15847714D02*
X24251285Y-15690571D01*
X24237000Y-15662000D01*
X24208428Y-15647714D01*
X24165571Y-15647714D01*
X24137000Y-15662000D01*
X24122714Y-15676286D01*
X24437000Y-15847714D02*
X24408428Y-15833429D01*
X24394143Y-15819143D01*
X24379857Y-15790571D01*
X24379857Y-15704857D01*
X24394143Y-15676286D01*
X24408428Y-15662000D01*
X24437000Y-15647714D01*
X24479857Y-15647714D01*
X24508428Y-15662000D01*
X24522714Y-15676286D01*
X24537000Y-15704857D01*
X24537000Y-15790571D01*
X24522714Y-15819143D01*
X24508428Y-15833429D01*
X24479857Y-15847714D01*
X24437000Y-15847714D01*
X24708428Y-15847714D02*
X24679857Y-15833429D01*
X24665571Y-15804857D01*
X24665571Y-15547714D01*
X24937000Y-15833429D02*
X24908428Y-15847714D01*
X24851286Y-15847714D01*
X24822714Y-15833429D01*
X24808428Y-15804857D01*
X24808428Y-15690571D01*
X24822714Y-15662000D01*
X24851286Y-15647714D01*
X24908428Y-15647714D01*
X24937000Y-15662000D01*
X24951286Y-15690571D01*
X24951286Y-15719143D01*
X24808428Y-15747714D01*
X25065571Y-15833429D02*
X25094143Y-15847714D01*
X25151286Y-15847714D01*
X25179857Y-15833429D01*
X25194143Y-15804857D01*
X25194143Y-15790571D01*
X25179857Y-15762000D01*
X25151286Y-15747714D01*
X25108428Y-15747714D01*
X25079857Y-15733429D01*
X25065571Y-15704857D01*
X25065571Y-15690571D01*
X25079857Y-15662000D01*
X25108428Y-15647714D01*
X25151286Y-15647714D01*
X25179857Y-15662000D01*
X25294143Y-15962000D02*
X25308428Y-15947714D01*
X25337000Y-15904857D01*
X25351286Y-15876286D01*
X25365571Y-15833429D01*
X25379857Y-15762000D01*
X25379857Y-15704857D01*
X25365571Y-15633429D01*
X25351286Y-15590571D01*
X25337000Y-15562000D01*
X25308428Y-15519143D01*
X25294143Y-15504857D01*
X18496360Y-16067360D02*
X18496360Y-16148640D01*
X18455720Y-16108000D02*
X18537000Y-16108000D01*
X18865571Y-15943714D02*
X18894143Y-15943714D01*
X18922714Y-15958000D01*
X18937000Y-15972286D01*
X18951286Y-16000857D01*
X18965571Y-16058000D01*
X18965571Y-16129429D01*
X18951286Y-16186571D01*
X18937000Y-16215143D01*
X18922714Y-16229429D01*
X18894143Y-16243714D01*
X18865571Y-16243714D01*
X18837000Y-16229429D01*
X18822714Y-16215143D01*
X18808429Y-16186571D01*
X18794143Y-16129429D01*
X18794143Y-16058000D01*
X18808429Y-16000857D01*
X18822714Y-15972286D01*
X18837000Y-15958000D01*
X18865571Y-15943714D01*
X19094143Y-16215143D02*
X19108429Y-16229429D01*
X19094143Y-16243714D01*
X19079857Y-16229429D01*
X19094143Y-16215143D01*
X19094143Y-16243714D01*
X19279857Y-16072286D02*
X19251286Y-16058000D01*
X19237000Y-16043714D01*
X19222714Y-16015143D01*
X19222714Y-16000857D01*
X19237000Y-15972286D01*
X19251286Y-15958000D01*
X19279857Y-15943714D01*
X19337000Y-15943714D01*
X19365571Y-15958000D01*
X19379857Y-15972286D01*
X19394143Y-16000857D01*
X19394143Y-16015143D01*
X19379857Y-16043714D01*
X19365571Y-16058000D01*
X19337000Y-16072286D01*
X19279857Y-16072286D01*
X19251286Y-16086571D01*
X19237000Y-16100857D01*
X19222714Y-16129429D01*
X19222714Y-16186571D01*
X19237000Y-16215143D01*
X19251286Y-16229429D01*
X19279857Y-16243714D01*
X19337000Y-16243714D01*
X19365571Y-16229429D01*
X19379857Y-16215143D01*
X19394143Y-16186571D01*
X19394143Y-16129429D01*
X19379857Y-16100857D01*
X19365571Y-16086571D01*
X19337000Y-16072286D01*
X19679857Y-16243714D02*
X19508429Y-16243714D01*
X19594143Y-16243714D02*
X19594143Y-15943714D01*
X19565571Y-15986571D01*
X19537000Y-16015143D01*
X19508429Y-16029429D01*
X19808429Y-16243714D02*
X19808429Y-16043714D01*
X19808429Y-16072286D02*
X19822714Y-16058000D01*
X19851286Y-16043714D01*
X19894143Y-16043714D01*
X19922714Y-16058000D01*
X19937000Y-16086571D01*
X19937000Y-16243714D01*
X19937000Y-16086571D02*
X19951286Y-16058000D01*
X19979857Y-16043714D01*
X20022714Y-16043714D01*
X20051286Y-16058000D01*
X20065571Y-16086571D01*
X20065571Y-16243714D01*
X20208429Y-16243714D02*
X20208429Y-16043714D01*
X20208429Y-16072286D02*
X20222714Y-16058000D01*
X20251286Y-16043714D01*
X20294143Y-16043714D01*
X20322714Y-16058000D01*
X20337000Y-16086571D01*
X20337000Y-16243714D01*
X20337000Y-16086571D02*
X20351286Y-16058000D01*
X20379857Y-16043714D01*
X20422714Y-16043714D01*
X20451286Y-16058000D01*
X20465571Y-16086571D01*
X20465571Y-16243714D01*
X21051286Y-15929429D02*
X20794143Y-16315143D01*
X21437000Y-15943714D02*
X21465571Y-15943714D01*
X21494143Y-15958000D01*
X21508428Y-15972286D01*
X21522714Y-16000857D01*
X21537000Y-16058000D01*
X21537000Y-16129429D01*
X21522714Y-16186571D01*
X21508428Y-16215143D01*
X21494143Y-16229429D01*
X21465571Y-16243714D01*
X21437000Y-16243714D01*
X21408428Y-16229429D01*
X21394143Y-16215143D01*
X21379857Y-16186571D01*
X21365571Y-16129429D01*
X21365571Y-16058000D01*
X21379857Y-16000857D01*
X21394143Y-15972286D01*
X21408428Y-15958000D01*
X21437000Y-15943714D01*
X21665571Y-16215143D02*
X21679857Y-16229429D01*
X21665571Y-16243714D01*
X21651286Y-16229429D01*
X21665571Y-16215143D01*
X21665571Y-16243714D01*
X21865571Y-15943714D02*
X21894143Y-15943714D01*
X21922714Y-15958000D01*
X21937000Y-15972286D01*
X21951286Y-16000857D01*
X21965571Y-16058000D01*
X21965571Y-16129429D01*
X21951286Y-16186571D01*
X21937000Y-16215143D01*
X21922714Y-16229429D01*
X21894143Y-16243714D01*
X21865571Y-16243714D01*
X21837000Y-16229429D01*
X21822714Y-16215143D01*
X21808428Y-16186571D01*
X21794143Y-16129429D01*
X21794143Y-16058000D01*
X21808428Y-16000857D01*
X21822714Y-15972286D01*
X21837000Y-15958000D01*
X21865571Y-15943714D01*
X22065571Y-15943714D02*
X22251286Y-15943714D01*
X22151286Y-16058000D01*
X22194143Y-16058000D01*
X22222714Y-16072286D01*
X22237000Y-16086571D01*
X22251286Y-16115143D01*
X22251286Y-16186571D01*
X22237000Y-16215143D01*
X22222714Y-16229429D01*
X22194143Y-16243714D01*
X22108428Y-16243714D01*
X22079857Y-16229429D01*
X22065571Y-16215143D01*
X22365571Y-15972286D02*
X22379857Y-15958000D01*
X22408428Y-15943714D01*
X22479857Y-15943714D01*
X22508428Y-15958000D01*
X22522714Y-15972286D01*
X22537000Y-16000857D01*
X22537000Y-16029429D01*
X22522714Y-16072286D01*
X22351286Y-16243714D01*
X22537000Y-16243714D01*
X22651286Y-15943714D02*
X22651286Y-16000857D01*
X22765571Y-15943714D02*
X22765571Y-16000857D01*
X23208428Y-16358000D02*
X23194143Y-16343714D01*
X23165571Y-16300857D01*
X23151285Y-16272286D01*
X23137000Y-16229429D01*
X23122714Y-16158000D01*
X23122714Y-16100857D01*
X23137000Y-16029429D01*
X23151285Y-15986571D01*
X23165571Y-15958000D01*
X23194143Y-15915143D01*
X23208428Y-15900857D01*
X23479857Y-16243714D02*
X23308428Y-16243714D01*
X23394143Y-16243714D02*
X23394143Y-15943714D01*
X23365571Y-15986571D01*
X23337000Y-16015143D01*
X23308428Y-16029429D01*
X23651285Y-16072286D02*
X23622714Y-16058000D01*
X23608428Y-16043714D01*
X23594143Y-16015143D01*
X23594143Y-16000857D01*
X23608428Y-15972286D01*
X23622714Y-15958000D01*
X23651285Y-15943714D01*
X23708428Y-15943714D01*
X23737000Y-15958000D01*
X23751285Y-15972286D01*
X23765571Y-16000857D01*
X23765571Y-16015143D01*
X23751285Y-16043714D01*
X23737000Y-16058000D01*
X23708428Y-16072286D01*
X23651285Y-16072286D01*
X23622714Y-16086571D01*
X23608428Y-16100857D01*
X23594143Y-16129429D01*
X23594143Y-16186571D01*
X23608428Y-16215143D01*
X23622714Y-16229429D01*
X23651285Y-16243714D01*
X23708428Y-16243714D01*
X23737000Y-16229429D01*
X23751285Y-16215143D01*
X23765571Y-16186571D01*
X23765571Y-16129429D01*
X23751285Y-16100857D01*
X23737000Y-16086571D01*
X23708428Y-16072286D01*
X24122714Y-16243714D02*
X24122714Y-15943714D01*
X24251285Y-16243714D02*
X24251285Y-16086571D01*
X24237000Y-16058000D01*
X24208428Y-16043714D01*
X24165571Y-16043714D01*
X24137000Y-16058000D01*
X24122714Y-16072286D01*
X24437000Y-16243714D02*
X24408428Y-16229429D01*
X24394143Y-16215143D01*
X24379857Y-16186571D01*
X24379857Y-16100857D01*
X24394143Y-16072286D01*
X24408428Y-16058000D01*
X24437000Y-16043714D01*
X24479857Y-16043714D01*
X24508428Y-16058000D01*
X24522714Y-16072286D01*
X24537000Y-16100857D01*
X24537000Y-16186571D01*
X24522714Y-16215143D01*
X24508428Y-16229429D01*
X24479857Y-16243714D01*
X24437000Y-16243714D01*
X24708428Y-16243714D02*
X24679857Y-16229429D01*
X24665571Y-16200857D01*
X24665571Y-15943714D01*
X24937000Y-16229429D02*
X24908428Y-16243714D01*
X24851286Y-16243714D01*
X24822714Y-16229429D01*
X24808428Y-16200857D01*
X24808428Y-16086571D01*
X24822714Y-16058000D01*
X24851286Y-16043714D01*
X24908428Y-16043714D01*
X24937000Y-16058000D01*
X24951286Y-16086571D01*
X24951286Y-16115143D01*
X24808428Y-16143714D01*
X25065571Y-16229429D02*
X25094143Y-16243714D01*
X25151286Y-16243714D01*
X25179857Y-16229429D01*
X25194143Y-16200857D01*
X25194143Y-16186571D01*
X25179857Y-16158000D01*
X25151286Y-16143714D01*
X25108428Y-16143714D01*
X25079857Y-16129429D01*
X25065571Y-16100857D01*
X25065571Y-16086571D01*
X25079857Y-16058000D01*
X25108428Y-16043714D01*
X25151286Y-16043714D01*
X25179857Y-16058000D01*
X25294143Y-16358000D02*
X25308428Y-16343714D01*
X25337000Y-16300857D01*
X25351286Y-16272286D01*
X25365571Y-16229429D01*
X25379857Y-16158000D01*
X25379857Y-16100857D01*
X25365571Y-16029429D01*
X25351286Y-15986571D01*
X25337000Y-15958000D01*
X25308428Y-15915143D01*
X25294143Y-15900857D01*
X18522121Y-16539921D02*
X18522121Y-16468079D01*
X18450279Y-16468079D01*
X18450279Y-16539921D01*
X18522121Y-16539921D01*
X18965571Y-16639714D02*
X18794143Y-16639714D01*
X18879857Y-16639714D02*
X18879857Y-16339714D01*
X18851286Y-16382571D01*
X18822714Y-16411143D01*
X18794143Y-16425429D01*
X19094143Y-16611143D02*
X19108429Y-16625429D01*
X19094143Y-16639714D01*
X19079857Y-16625429D01*
X19094143Y-16611143D01*
X19094143Y-16639714D01*
X19294143Y-16339714D02*
X19322714Y-16339714D01*
X19351286Y-16354000D01*
X19365571Y-16368286D01*
X19379857Y-16396857D01*
X19394143Y-16454000D01*
X19394143Y-16525429D01*
X19379857Y-16582571D01*
X19365571Y-16611143D01*
X19351286Y-16625429D01*
X19322714Y-16639714D01*
X19294143Y-16639714D01*
X19265571Y-16625429D01*
X19251286Y-16611143D01*
X19237000Y-16582571D01*
X19222714Y-16525429D01*
X19222714Y-16454000D01*
X19237000Y-16396857D01*
X19251286Y-16368286D01*
X19265571Y-16354000D01*
X19294143Y-16339714D01*
X19508429Y-16368286D02*
X19522714Y-16354000D01*
X19551286Y-16339714D01*
X19622714Y-16339714D01*
X19651286Y-16354000D01*
X19665571Y-16368286D01*
X19679857Y-16396857D01*
X19679857Y-16425429D01*
X19665571Y-16468286D01*
X19494143Y-16639714D01*
X19679857Y-16639714D01*
X19808429Y-16639714D02*
X19808429Y-16439714D01*
X19808429Y-16468286D02*
X19822714Y-16454000D01*
X19851286Y-16439714D01*
X19894143Y-16439714D01*
X19922714Y-16454000D01*
X19937000Y-16482571D01*
X19937000Y-16639714D01*
X19937000Y-16482571D02*
X19951286Y-16454000D01*
X19979857Y-16439714D01*
X20022714Y-16439714D01*
X20051286Y-16454000D01*
X20065571Y-16482571D01*
X20065571Y-16639714D01*
X20208429Y-16639714D02*
X20208429Y-16439714D01*
X20208429Y-16468286D02*
X20222714Y-16454000D01*
X20251286Y-16439714D01*
X20294143Y-16439714D01*
X20322714Y-16454000D01*
X20337000Y-16482571D01*
X20337000Y-16639714D01*
X20337000Y-16482571D02*
X20351286Y-16454000D01*
X20379857Y-16439714D01*
X20422714Y-16439714D01*
X20451286Y-16454000D01*
X20465571Y-16482571D01*
X20465571Y-16639714D01*
X21051286Y-16325429D02*
X20794143Y-16711143D01*
X21437000Y-16339714D02*
X21465571Y-16339714D01*
X21494143Y-16354000D01*
X21508428Y-16368286D01*
X21522714Y-16396857D01*
X21537000Y-16454000D01*
X21537000Y-16525429D01*
X21522714Y-16582571D01*
X21508428Y-16611143D01*
X21494143Y-16625429D01*
X21465571Y-16639714D01*
X21437000Y-16639714D01*
X21408428Y-16625429D01*
X21394143Y-16611143D01*
X21379857Y-16582571D01*
X21365571Y-16525429D01*
X21365571Y-16454000D01*
X21379857Y-16396857D01*
X21394143Y-16368286D01*
X21408428Y-16354000D01*
X21437000Y-16339714D01*
X21665571Y-16611143D02*
X21679857Y-16625429D01*
X21665571Y-16639714D01*
X21651286Y-16625429D01*
X21665571Y-16611143D01*
X21665571Y-16639714D01*
X21865571Y-16339714D02*
X21894143Y-16339714D01*
X21922714Y-16354000D01*
X21937000Y-16368286D01*
X21951286Y-16396857D01*
X21965571Y-16454000D01*
X21965571Y-16525429D01*
X21951286Y-16582571D01*
X21937000Y-16611143D01*
X21922714Y-16625429D01*
X21894143Y-16639714D01*
X21865571Y-16639714D01*
X21837000Y-16625429D01*
X21822714Y-16611143D01*
X21808428Y-16582571D01*
X21794143Y-16525429D01*
X21794143Y-16454000D01*
X21808428Y-16396857D01*
X21822714Y-16368286D01*
X21837000Y-16354000D01*
X21865571Y-16339714D01*
X22222714Y-16439714D02*
X22222714Y-16639714D01*
X22151286Y-16325429D02*
X22079857Y-16539714D01*
X22265571Y-16539714D01*
X22437000Y-16339714D02*
X22465571Y-16339714D01*
X22494143Y-16354000D01*
X22508428Y-16368286D01*
X22522714Y-16396857D01*
X22537000Y-16454000D01*
X22537000Y-16525429D01*
X22522714Y-16582571D01*
X22508428Y-16611143D01*
X22494143Y-16625429D01*
X22465571Y-16639714D01*
X22437000Y-16639714D01*
X22408428Y-16625429D01*
X22394143Y-16611143D01*
X22379857Y-16582571D01*
X22365571Y-16525429D01*
X22365571Y-16454000D01*
X22379857Y-16396857D01*
X22394143Y-16368286D01*
X22408428Y-16354000D01*
X22437000Y-16339714D01*
X22651286Y-16339714D02*
X22651286Y-16396857D01*
X22765571Y-16339714D02*
X22765571Y-16396857D01*
X23208428Y-16754000D02*
X23194143Y-16739714D01*
X23165571Y-16696857D01*
X23151285Y-16668286D01*
X23137000Y-16625429D01*
X23122714Y-16554000D01*
X23122714Y-16496857D01*
X23137000Y-16425429D01*
X23151285Y-16382571D01*
X23165571Y-16354000D01*
X23194143Y-16311143D01*
X23208428Y-16296857D01*
X23451285Y-16439714D02*
X23451285Y-16639714D01*
X23379857Y-16325429D02*
X23308428Y-16539714D01*
X23494143Y-16539714D01*
X23622714Y-16639714D02*
X23679857Y-16639714D01*
X23708428Y-16625429D01*
X23722714Y-16611143D01*
X23751285Y-16568286D01*
X23765571Y-16511143D01*
X23765571Y-16396857D01*
X23751285Y-16368286D01*
X23737000Y-16354000D01*
X23708428Y-16339714D01*
X23651285Y-16339714D01*
X23622714Y-16354000D01*
X23608428Y-16368286D01*
X23594143Y-16396857D01*
X23594143Y-16468286D01*
X23608428Y-16496857D01*
X23622714Y-16511143D01*
X23651285Y-16525429D01*
X23708428Y-16525429D01*
X23737000Y-16511143D01*
X23751285Y-16496857D01*
X23765571Y-16468286D01*
X24122714Y-16639714D02*
X24122714Y-16339714D01*
X24251285Y-16639714D02*
X24251285Y-16482571D01*
X24237000Y-16454000D01*
X24208428Y-16439714D01*
X24165571Y-16439714D01*
X24137000Y-16454000D01*
X24122714Y-16468286D01*
X24437000Y-16639714D02*
X24408428Y-16625429D01*
X24394143Y-16611143D01*
X24379857Y-16582571D01*
X24379857Y-16496857D01*
X24394143Y-16468286D01*
X24408428Y-16454000D01*
X24437000Y-16439714D01*
X24479857Y-16439714D01*
X24508428Y-16454000D01*
X24522714Y-16468286D01*
X24537000Y-16496857D01*
X24537000Y-16582571D01*
X24522714Y-16611143D01*
X24508428Y-16625429D01*
X24479857Y-16639714D01*
X24437000Y-16639714D01*
X24708428Y-16639714D02*
X24679857Y-16625429D01*
X24665571Y-16596857D01*
X24665571Y-16339714D01*
X24937000Y-16625429D02*
X24908428Y-16639714D01*
X24851286Y-16639714D01*
X24822714Y-16625429D01*
X24808428Y-16596857D01*
X24808428Y-16482571D01*
X24822714Y-16454000D01*
X24851286Y-16439714D01*
X24908428Y-16439714D01*
X24937000Y-16454000D01*
X24951286Y-16482571D01*
X24951286Y-16511143D01*
X24808428Y-16539714D01*
X25065571Y-16625429D02*
X25094143Y-16639714D01*
X25151286Y-16639714D01*
X25179857Y-16625429D01*
X25194143Y-16596857D01*
X25194143Y-16582571D01*
X25179857Y-16554000D01*
X25151286Y-16539714D01*
X25108428Y-16539714D01*
X25079857Y-16525429D01*
X25065571Y-16496857D01*
X25065571Y-16482571D01*
X25079857Y-16454000D01*
X25108428Y-16439714D01*
X25151286Y-16439714D01*
X25179857Y-16454000D01*
X25294143Y-16754000D02*
X25308428Y-16739714D01*
X25337000Y-16696857D01*
X25351286Y-16668286D01*
X25365571Y-16625429D01*
X25379857Y-16554000D01*
X25379857Y-16496857D01*
X25365571Y-16425429D01*
X25351286Y-16382571D01*
X25337000Y-16354000D01*
X25308428Y-16311143D01*
X25294143Y-16296857D01*
M02*
