G04 #@! TF.FileFunction,Copper,L2,Bot,Signal*
%FSLAX45Y45*%
G04 Gerber Fmt 4.5, Leading zero omitted, Abs format (unit mm)*
G04 Created by KiCad (PCBNEW (2015-09-03 BZR 6154)-product) date Saturday, September 05, 2015 'PMt' 10:25:32 PM*
%MOMM*%
G01*
G04 APERTURE LIST*
%ADD10C,0.100000*%
%ADD11R,2.032000X1.727200*%
%ADD12O,2.032000X1.727200*%
%ADD13R,1.727200X2.032000*%
%ADD14O,1.727200X2.032000*%
%ADD15C,1.524000*%
%ADD16R,2.032000X2.032000*%
%ADD17O,2.032000X2.032000*%
%ADD18O,2.300000X1.600000*%
%ADD19C,0.889000*%
%ADD20C,0.304800*%
%ADD21C,0.635000*%
G04 APERTURE END LIST*
D10*
D11*
X18796000Y-12319000D03*
D12*
X18796000Y-12573000D03*
X18796000Y-12827000D03*
X18796000Y-13081000D03*
X18796000Y-13335000D03*
X18796000Y-13589000D03*
D11*
X23622000Y-9144000D03*
D12*
X23622000Y-9398000D03*
X23622000Y-9652000D03*
X23622000Y-9906000D03*
X23622000Y-10160000D03*
X23622000Y-10414000D03*
X23622000Y-10668000D03*
X23622000Y-10922000D03*
X23622000Y-11176000D03*
X23622000Y-11430000D03*
D11*
X23622000Y-11811000D03*
D12*
X23622000Y-12065000D03*
X23622000Y-12319000D03*
X23622000Y-12573000D03*
X23622000Y-12827000D03*
X23622000Y-13081000D03*
X23622000Y-13335000D03*
X23622000Y-13589000D03*
D13*
X19367500Y-13906500D03*
D14*
X19621500Y-13906500D03*
X19875500Y-13906500D03*
X20129500Y-13906500D03*
X20383500Y-13906500D03*
D13*
X20955000Y-13906500D03*
D14*
X21209000Y-13906500D03*
X21463000Y-13906500D03*
X21717000Y-13906500D03*
X21971000Y-13906500D03*
D13*
X21717000Y-8382000D03*
D14*
X21971000Y-8382000D03*
X22225000Y-8382000D03*
D11*
X18796000Y-10033000D03*
D12*
X18796000Y-10287000D03*
X18796000Y-10541000D03*
X18796000Y-10795000D03*
X18796000Y-11049000D03*
X18796000Y-11303000D03*
X18796000Y-11557000D03*
X18796000Y-11811000D03*
D15*
X19431000Y-9017000D03*
X19431000Y-9271000D03*
X19431000Y-8763000D03*
X20510500Y-9017000D03*
X20510500Y-9271000D03*
X20510500Y-8763000D03*
X19367500Y-12700000D03*
X19367500Y-12446000D03*
X19367500Y-12954000D03*
X21272500Y-12700000D03*
X21272500Y-12446000D03*
X21272500Y-12954000D03*
X19494500Y-10223500D03*
X19494500Y-9969500D03*
X19494500Y-10477500D03*
X21971000Y-10223500D03*
X21971000Y-9969500D03*
X21971000Y-10477500D03*
D16*
X19812000Y-8382000D03*
D17*
X20066000Y-8382000D03*
D16*
X20828000Y-8382000D03*
D17*
X21082000Y-8382000D03*
D18*
X22352000Y-11557000D03*
X22352000Y-11811000D03*
X22352000Y-12065000D03*
X22352000Y-12319000D03*
X22352000Y-12573000D03*
X22352000Y-12827000D03*
X22352000Y-13081000D03*
X22352000Y-13335000D03*
X22352000Y-13589000D03*
X23114000Y-13589000D03*
X23114000Y-13335000D03*
X23114000Y-13081000D03*
X23114000Y-12827000D03*
X23114000Y-12573000D03*
X23114000Y-12319000D03*
X23114000Y-12065000D03*
X23114000Y-11811000D03*
X23114000Y-11557000D03*
D19*
X22018308Y-12192000D03*
X23431500Y-12192000D03*
X23304500Y-11938000D03*
X21018500Y-10731500D03*
X21393115Y-10762298D03*
X20447000Y-12134500D03*
X22479000Y-9907890D03*
X23241000Y-9969500D03*
X22479000Y-10668000D03*
X20256500Y-10795000D03*
X20129500Y-12636500D03*
X19685000Y-13208000D03*
X22018308Y-12459505D03*
X20701000Y-13462000D03*
X20683290Y-14160500D03*
X21642535Y-10858500D03*
X21336000Y-11684000D03*
X21653500Y-11811000D03*
X19621500Y-11938000D03*
X19875500Y-9588500D03*
X20510500Y-10922000D03*
X22606000Y-10858500D03*
X22382798Y-8756615D03*
X20129500Y-9908450D03*
X21145500Y-9906000D03*
X19875500Y-14160500D03*
X22098000Y-10604500D03*
X20129500Y-10604500D03*
X20637500Y-11128692D03*
X19748500Y-11493500D03*
X19428803Y-10996070D03*
X19494500Y-11239500D03*
X20891500Y-11493500D03*
X20320000Y-11493500D03*
X20069099Y-12255500D03*
X20891500Y-12382500D03*
X22352000Y-10350501D03*
X19748500Y-10287000D03*
X20383500Y-10033000D03*
X21399500Y-10032997D03*
X23050500Y-10160000D03*
X20066000Y-11239500D03*
X20320000Y-11049000D03*
X20955000Y-11049000D03*
X20891500Y-12509500D03*
X21145500Y-10287000D03*
D20*
X23114000Y-12319000D02*
X22924230Y-12319000D01*
X22924230Y-12319000D02*
X22797230Y-12192000D01*
X22797230Y-12192000D02*
X22081170Y-12192000D01*
X22081170Y-12192000D02*
X22018308Y-12192000D01*
X23368638Y-12192000D02*
X23431500Y-12192000D01*
X22352000Y-12065000D02*
X22883172Y-12065000D01*
X23010172Y-12192000D02*
X23368638Y-12192000D01*
X22883172Y-12065000D02*
X23010172Y-12192000D01*
X23368000Y-13532975D02*
X23368000Y-12385790D01*
X23368000Y-12385790D02*
X23556391Y-12197399D01*
X23556391Y-12197399D02*
X23676811Y-12197399D01*
X23676811Y-12197399D02*
X23758841Y-12115369D01*
X23758841Y-12115369D02*
X23758841Y-9519601D01*
X23758841Y-9519601D02*
X23637240Y-9398000D01*
X23637240Y-9398000D02*
X23622000Y-9398000D01*
X22624480Y-13716000D02*
X23184975Y-13716000D01*
X23184975Y-13716000D02*
X23368000Y-13532975D01*
X22352000Y-13589000D02*
X22497480Y-13589000D01*
X22497480Y-13589000D02*
X22624480Y-13716000D01*
X23441177Y-11772823D02*
X23485159Y-11728841D01*
X23368000Y-12065000D02*
X23441177Y-11991823D01*
X23441177Y-11991823D02*
X23441177Y-11772823D01*
X23114000Y-12065000D02*
X23368000Y-12065000D01*
X23485159Y-9773601D02*
X23606760Y-9652000D01*
X23485159Y-11728841D02*
X23485159Y-9773601D01*
X23606760Y-9652000D02*
X23622000Y-9652000D01*
X22352000Y-11811000D02*
X22497480Y-11811000D01*
X22497480Y-11811000D02*
X22624480Y-11938000D01*
X22624480Y-11938000D02*
X23304500Y-11938000D01*
D21*
X21455976Y-10762298D02*
X21393115Y-10762298D01*
X22384702Y-10762298D02*
X21455976Y-10762298D01*
X22479000Y-10668000D02*
X22384702Y-10762298D01*
X20256500Y-10795000D02*
X21017507Y-10795000D01*
D20*
X21018500Y-10731500D02*
X21018500Y-10794362D01*
X21018500Y-10794362D02*
X21017862Y-10795000D01*
X21017862Y-10795000D02*
X21017507Y-10795000D01*
D21*
X21017507Y-10795000D02*
X21104078Y-10795000D01*
X21104078Y-10795000D02*
X21136780Y-10762298D01*
X21136780Y-10762298D02*
X21330253Y-10762298D01*
X21330253Y-10762298D02*
X21393115Y-10762298D01*
X21272500Y-12128500D02*
X20453000Y-12128500D01*
X20453000Y-12128500D02*
X20447000Y-12134500D01*
X21717000Y-12573000D02*
X21272500Y-12128500D01*
X22352000Y-12573000D02*
X21717000Y-12573000D01*
D20*
X23241000Y-9969500D02*
X22540610Y-9969500D01*
X22540610Y-9969500D02*
X22479000Y-9907890D01*
D21*
X19685000Y-13208000D02*
X19685000Y-13081000D01*
X19685000Y-13081000D02*
X20129500Y-12636500D01*
X19685000Y-13208000D02*
X19432134Y-13208000D01*
X19432134Y-13208000D02*
X18961100Y-12736966D01*
X18961100Y-12736966D02*
X18961100Y-11706860D01*
X18961100Y-11706860D02*
X18811240Y-11557000D01*
X18811240Y-11557000D02*
X18796000Y-11557000D01*
X19621500Y-13906500D02*
X19621500Y-13271500D01*
X19621500Y-13271500D02*
X19685000Y-13208000D01*
D20*
X22094675Y-12446000D02*
X22081170Y-12459505D01*
X22841520Y-12446000D02*
X22094675Y-12446000D01*
X23114000Y-12573000D02*
X22968520Y-12573000D01*
X22968520Y-12573000D02*
X22841520Y-12446000D01*
X22081170Y-12459505D02*
X22018308Y-12459505D01*
D21*
X20683290Y-14160500D02*
X20683290Y-13479710D01*
X20683290Y-13479710D02*
X20701000Y-13462000D01*
X22606000Y-10858500D02*
X21642535Y-10858500D01*
X21642535Y-10858500D02*
X21237175Y-10858500D01*
X21463000Y-11811000D02*
X21336000Y-11684000D01*
X21653500Y-11811000D02*
X21463000Y-11811000D01*
X20510500Y-10922000D02*
X19617110Y-10922000D01*
X19617110Y-10922000D02*
X19499308Y-10922000D01*
X19621500Y-11938000D02*
X19621500Y-10926390D01*
X19621500Y-10926390D02*
X19617110Y-10922000D01*
X19477176Y-10899868D02*
X19135632Y-10899868D01*
X19135632Y-10899868D02*
X18986500Y-11049000D01*
X19499308Y-10922000D02*
X19477176Y-10899868D01*
X18986500Y-11049000D02*
X18796000Y-11049000D01*
X20129500Y-9908450D02*
X20129500Y-9842500D01*
X20129500Y-9842500D02*
X19875500Y-9588500D01*
X21094799Y-10950175D02*
X21066624Y-10922000D01*
X21066624Y-10922000D02*
X20510500Y-10922000D01*
X21237175Y-10858500D02*
X21237175Y-10900151D01*
X21237175Y-10900151D02*
X21187151Y-10950175D01*
X21187151Y-10950175D02*
X21094799Y-10950175D01*
X22376413Y-8763000D02*
X22382798Y-8756615D01*
X20510500Y-8763000D02*
X22376413Y-8763000D01*
X20510500Y-8763000D02*
X19431000Y-8763000D01*
X21145500Y-9906000D02*
X20131950Y-9906000D01*
X20131950Y-9906000D02*
X20129500Y-9908450D01*
X19875500Y-14160500D02*
X19875500Y-13906500D01*
D20*
X20129500Y-10604500D02*
X22098000Y-10604500D01*
X20605118Y-11128690D02*
X20621308Y-11112500D01*
X20050448Y-11128690D02*
X20605118Y-11128690D01*
X19748500Y-11493500D02*
X19748500Y-11430638D01*
X19939000Y-11112500D02*
X19955190Y-11128690D01*
X19748500Y-11430638D02*
X20050448Y-11128690D01*
X19955190Y-11128690D02*
X20605118Y-11128690D01*
X20621308Y-11112500D02*
X20637500Y-11128692D01*
X19428803Y-11058932D02*
X19428803Y-10996070D01*
X19428803Y-11173803D02*
X19428803Y-11058932D01*
X19431000Y-11176000D02*
X19428803Y-11173803D01*
X20320000Y-11493500D02*
X20891500Y-11493500D01*
X23114000Y-13081000D02*
X22968520Y-13081000D01*
X22968520Y-13081000D02*
X22853279Y-12965759D01*
X22853279Y-12965759D02*
X22269266Y-12965759D01*
X22269266Y-12965759D02*
X22154025Y-13081000D01*
X22154025Y-13081000D02*
X20894599Y-13081000D01*
X20894599Y-13081000D02*
X20069099Y-12255500D01*
X21044125Y-12408125D02*
X21018500Y-12382500D01*
X21193440Y-12557440D02*
X21044125Y-12408125D01*
X21018500Y-12382500D02*
X20891500Y-12382500D01*
X20954362Y-12382500D02*
X20891500Y-12382500D01*
X20980400Y-12382500D02*
X20954362Y-12382500D01*
X21449190Y-12711759D02*
X21294872Y-12557440D01*
X22853279Y-12711759D02*
X21449190Y-12711759D01*
X22968520Y-12827000D02*
X22853279Y-12711759D01*
X23114000Y-12827000D02*
X22968520Y-12827000D01*
X21294872Y-12557440D02*
X21193440Y-12557440D01*
X20383500Y-10033000D02*
X20463193Y-10112693D01*
X20463193Y-10112693D02*
X21437751Y-10112693D01*
X21437751Y-10112693D02*
X21470134Y-10080310D01*
X21470134Y-10080310D02*
X21501251Y-10080310D01*
X21501882Y-10080940D02*
X22209440Y-10080940D01*
X21501251Y-10080310D02*
X21501882Y-10080940D01*
X22209440Y-10080940D02*
X22352000Y-10223500D01*
X22352000Y-10223500D02*
X22352000Y-10350501D01*
X20383500Y-10033000D02*
X20002500Y-10033000D01*
X20002500Y-10033000D02*
X19748500Y-10287000D01*
X22971440Y-10080940D02*
X22400072Y-10080940D01*
X22251148Y-9932016D02*
X22400072Y-10080940D01*
X22251016Y-9932016D02*
X22251148Y-9932016D01*
X22161500Y-9842500D02*
X21589997Y-9842500D01*
X21589997Y-9842500D02*
X21399500Y-10032997D01*
X22251016Y-9932016D02*
X22161500Y-9842500D01*
X23050500Y-10160000D02*
X22971440Y-10080940D01*
X23114000Y-11811000D02*
X23079000Y-11811000D01*
X23079000Y-11811000D02*
X22507500Y-11239500D01*
X22507500Y-11239500D02*
X20066000Y-11239500D01*
X20955000Y-11049000D02*
X20320000Y-11049000D01*
X21021353Y-11052491D02*
X21017862Y-11049000D01*
X23114000Y-11557000D02*
X22968520Y-11557000D01*
X22968520Y-11557000D02*
X22464011Y-11052491D01*
X21017862Y-11049000D02*
X20955000Y-11049000D01*
X22464011Y-11052491D02*
X21021353Y-11052491D01*
X21272500Y-12700000D02*
X21082000Y-12700000D01*
X21082000Y-12700000D02*
X20891500Y-12509500D01*
X21971000Y-10223500D02*
X21209000Y-10223500D01*
X21209000Y-10223500D02*
X21145500Y-10287000D01*
M02*
