  0
SECTION
  2
BLOCKS
  0
ENDSEC
  0
SECTION
  2
ENTITIES
  0
LINE
  8
0
 10
305.117
 20
-31.9805
 11
306.232
 21
-31.922
  0
LINE
  8
0
 10
306.232
 20
-31.922
 11
307.345
 21
-31.8247
  0
LINE
  8
0
 10
307.345
 20
-31.8247
 11
308.454
 21
-31.6886
  0
LINE
  8
0
 10
308.454
 20
-31.6886
 11
309.557
 21
-31.5138
  0
LINE
  8
0
 10
309.557
 20
-31.5138
 11
310.653
 21
-31.3007
  0
LINE
  8
0
 10
310.653
 20
-31.3007
 11
311.741
 21
-31.0495
  0
LINE
  8
0
 10
311.741
 20
-31.0495
 11
312.82
 21
-30.7604
  0
LINE
  8
0
 10
312.82
 20
-30.7604
 11
313.889
 21
-30.4338
  0
LINE
  8
0
 10
313.889
 20
-30.4338
 11
314.945
 21
-30.0702
  0
LINE
  8
0
 10
314.945
 20
-30.0702
 11
315.987
 21
-29.6699
  0
LINE
  8
0
 10
315.987
 20
-29.6699
 11
317.016
 21
-29.2334
  0
LINE
  8
0
 10
317.016
 20
-29.2334
 11
318.028
 21
-28.7614
  0
LINE
  8
0
 10
318.028
 20
-28.7614
 11
319.023
 21
-28.2543
  0
LINE
  8
0
 10
319.023
 20
-28.2543
 11
320
 21
-27.7128
  0
LINE
  8
0
 10
320
 20
-27.7128
 11
320.957
 21
-27.1375
  0
LINE
  8
0
 10
320.957
 20
-27.1375
 11
321.894
 21
-26.5292
  0
LINE
  8
0
 10
321.894
 20
-26.5292
 11
322.809
 21
-25.8885
  0
LINE
  8
0
 10
322.809
 20
-25.8885
 11
323.701
 21
-25.2163
  0
LINE
  8
0
 10
323.701
 20
-25.2163
 11
324.569
 21
-24.5134
  0
LINE
  8
0
 10
324.569
 20
-24.5134
 11
325.412
 21
-23.7806
  0
LINE
  8
0
 10
325.412
 20
-23.7806
 11
326.229
 21
-23.0189
  0
LINE
  8
0
 10
326.229
 20
-23.0189
 11
327.019
 21
-22.2291
  0
LINE
  8
0
 10
327.019
 20
-22.2291
 11
327.781
 21
-21.4122
  0
LINE
  8
0
 10
327.781
 20
-21.4122
 11
328.513
 21
-20.5692
  0
LINE
  8
0
 10
328.513
 20
-20.5692
 11
329.216
 21
-19.7012
  0
LINE
  8
0
 10
329.216
 20
-19.7012
 11
329.889
 21
-18.8091
  0
LINE
  8
0
 10
329.889
 20
-18.8091
 11
330.529
 21
-17.8942
  0
LINE
  8
0
 10
330.529
 20
-17.8942
 11
331.138
 21
-16.9574
  0
LINE
  8
0
 10
331.138
 20
-16.9574
 11
331.713
 21
-16
  0
LINE
  8
0
 10
331.713
 20
-16
 11
332.254
 21
-15.0231
  0
LINE
  8
0
 10
332.254
 20
-15.0231
 11
332.761
 21
-14.0279
  0
LINE
  8
0
 10
332.761
 20
-14.0279
 11
333.233
 21
-13.0156
  0
LINE
  8
0
 10
333.233
 20
-13.0156
 11
333.67
 21
-11.9874
  0
LINE
  8
0
 10
333.67
 20
-11.9874
 11
334.07
 21
-10.9446
  0
LINE
  8
0
 10
334.07
 20
-10.9446
 11
334.434
 21
-9.88853
  0
LINE
  8
0
 10
334.434
 20
-9.88853
 11
334.76
 21
-8.82039
  0
LINE
  8
0
 10
334.76
 20
-8.82039
 11
335.049
 21
-7.74149
  0
LINE
  8
0
 10
335.049
 20
-7.74149
 11
335.301
 21
-6.65317
  0
LINE
  8
0
 10
335.301
 20
-6.65317
 11
335.514
 21
-5.55673
  0
LINE
  8
0
 10
335.514
 20
-5.55673
 11
335.689
 21
-4.45354
  0
LINE
  8
0
 10
335.689
 20
-4.45354
 11
335.825
 21
-3.34491
  0
LINE
  8
0
 10
335.825
 20
-3.34491
 11
335.922
 21
-2.23219
  0
LINE
  8
0
 10
335.922
 20
-2.23219
 11
335.98
 21
-1.11678
  0
LINE
  8
0
 10
335.98
 20
-1.11678
 11
336
 21
0
  0
LINE
  8
0
 10
336
 20
0
 11
335.98
 21
1.11678
  0
LINE
  8
0
 10
335.98
 20
1.11678
 11
335.922
 21
2.23219
  0
LINE
  8
0
 10
335.922
 20
2.23219
 11
335.825
 21
3.34491
  0
LINE
  8
0
 10
335.825
 20
3.34491
 11
335.689
 21
4.45354
  0
LINE
  8
0
 10
335.689
 20
4.45354
 11
335.514
 21
5.55673
  0
LINE
  8
0
 10
335.514
 20
5.55673
 11
335.301
 21
6.65317
  0
LINE
  8
0
 10
335.301
 20
6.65317
 11
335.049
 21
7.74149
  0
LINE
  8
0
 10
335.049
 20
7.74149
 11
334.76
 21
8.82039
  0
LINE
  8
0
 10
334.76
 20
8.82039
 11
334.434
 21
9.88853
  0
LINE
  8
0
 10
334.434
 20
9.88853
 11
334.07
 21
10.9446
  0
LINE
  8
0
 10
334.07
 20
10.9446
 11
333.67
 21
11.9874
  0
LINE
  8
0
 10
333.67
 20
11.9874
 11
333.233
 21
13.0156
  0
LINE
  8
0
 10
333.233
 20
13.0156
 11
332.761
 21
14.0279
  0
LINE
  8
0
 10
332.761
 20
14.0279
 11
332.254
 21
15.0231
  0
LINE
  8
0
 10
332.254
 20
15.0231
 11
331.713
 21
16
  0
LINE
  8
0
 10
331.713
 20
16
 11
331.138
 21
16.9574
  0
LINE
  8
0
 10
331.138
 20
16.9574
 11
330.529
 21
17.8942
  0
LINE
  8
0
 10
330.529
 20
17.8942
 11
329.889
 21
18.8091
  0
LINE
  8
0
 10
329.889
 20
18.8091
 11
329.216
 21
19.7012
  0
LINE
  8
0
 10
329.216
 20
19.7012
 11
328.513
 21
20.5692
  0
LINE
  8
0
 10
328.513
 20
20.5692
 11
327.781
 21
21.4122
  0
LINE
  8
0
 10
327.781
 20
21.4122
 11
327.019
 21
22.2291
  0
LINE
  8
0
 10
327.019
 20
22.2291
 11
326.229
 21
23.0189
  0
LINE
  8
0
 10
326.229
 20
23.0189
 11
325.412
 21
23.7806
  0
LINE
  8
0
 10
325.412
 20
23.7806
 11
324.569
 21
24.5134
  0
LINE
  8
0
 10
324.569
 20
24.5134
 11
323.701
 21
25.2163
  0
LINE
  8
0
 10
323.701
 20
25.2163
 11
322.809
 21
25.8885
  0
LINE
  8
0
 10
322.809
 20
25.8885
 11
321.894
 21
26.5292
  0
LINE
  8
0
 10
321.894
 20
26.5292
 11
320.957
 21
27.1375
  0
LINE
  8
0
 10
320.957
 20
27.1375
 11
320
 21
27.7128
  0
LINE
  8
0
 10
320
 20
27.7128
 11
319.023
 21
28.2543
  0
LINE
  8
0
 10
319.023
 20
28.2543
 11
318.028
 21
28.7614
  0
LINE
  8
0
 10
318.028
 20
28.7614
 11
317.016
 21
29.2334
  0
LINE
  8
0
 10
317.016
 20
29.2334
 11
315.987
 21
29.6699
  0
LINE
  8
0
 10
315.987
 20
29.6699
 11
314.945
 21
30.0702
  0
LINE
  8
0
 10
314.945
 20
30.0702
 11
313.889
 21
30.4338
  0
LINE
  8
0
 10
313.889
 20
30.4338
 11
312.82
 21
30.7604
  0
LINE
  8
0
 10
312.82
 20
30.7604
 11
311.741
 21
31.0495
  0
LINE
  8
0
 10
311.741
 20
31.0495
 11
310.653
 21
31.3007
  0
LINE
  8
0
 10
310.653
 20
31.3007
 11
309.557
 21
31.5138
  0
LINE
  8
0
 10
309.557
 20
31.5138
 11
308.454
 21
31.6886
  0
LINE
  8
0
 10
308.454
 20
31.6886
 11
307.345
 21
31.8247
  0
LINE
  8
0
 10
307.345
 20
31.8247
 11
306.232
 21
31.922
  0
LINE
  8
0
 10
306.232
 20
31.922
 11
305.117
 21
31.9805
  0
LINE
  8
0
 10
305.117
 20
31.9805
 11
304
 21
32
  0
LINE
  8
0
 10
304
 20
32
 11
0
 21
32
  0
LINE
  8
0
 10
0
 20
32
 11
-1.11678
 21
31.9805
  0
LINE
  8
0
 10
-1.11678
 20
31.9805
 11
-2.23219
 21
31.922
  0
LINE
  8
0
 10
-2.23219
 20
31.922
 11
-3.34491
 21
31.8247
  0
LINE
  8
0
 10
-3.34491
 20
31.8247
 11
-4.45354
 21
31.6886
  0
LINE
  8
0
 10
-4.45354
 20
31.6886
 11
-5.55673
 21
31.5138
  0
LINE
  8
0
 10
-5.55673
 20
31.5138
 11
-6.65317
 21
31.3007
  0
LINE
  8
0
 10
-6.65317
 20
31.3007
 11
-7.74149
 21
31.0495
  0
LINE
  8
0
 10
-7.74149
 20
31.0495
 11
-8.82039
 21
30.7604
  0
LINE
  8
0
 10
-8.82039
 20
30.7604
 11
-9.88853
 21
30.4338
  0
LINE
  8
0
 10
-9.88853
 20
30.4338
 11
-10.9446
 21
30.0702
  0
LINE
  8
0
 10
-10.9446
 20
30.0702
 11
-11.9874
 21
29.6699
  0
LINE
  8
0
 10
-11.9874
 20
29.6699
 11
-13.0156
 21
29.2334
  0
LINE
  8
0
 10
-13.0156
 20
29.2334
 11
-14.0279
 21
28.7614
  0
LINE
  8
0
 10
-14.0279
 20
28.7614
 11
-15.0231
 21
28.2543
  0
LINE
  8
0
 10
-15.0231
 20
28.2543
 11
-16
 21
27.7128
  0
LINE
  8
0
 10
-16
 20
27.7128
 11
-16.9574
 21
27.1375
  0
LINE
  8
0
 10
-16.9574
 20
27.1375
 11
-17.8942
 21
26.5292
  0
LINE
  8
0
 10
-17.8942
 20
26.5292
 11
-18.8091
 21
25.8885
  0
LINE
  8
0
 10
-18.8091
 20
25.8885
 11
-19.7012
 21
25.2163
  0
LINE
  8
0
 10
-19.7012
 20
25.2163
 11
-20.5692
 21
24.5134
  0
LINE
  8
0
 10
-20.5692
 20
24.5134
 11
-21.4122
 21
23.7806
  0
LINE
  8
0
 10
-21.4122
 20
23.7806
 11
-22.2291
 21
23.0189
  0
LINE
  8
0
 10
-22.2291
 20
23.0189
 11
-23.0189
 21
22.2291
  0
LINE
  8
0
 10
-23.0189
 20
22.2291
 11
-23.7806
 21
21.4122
  0
LINE
  8
0
 10
-23.7806
 20
21.4122
 11
-24.5134
 21
20.5692
  0
LINE
  8
0
 10
-24.5134
 20
20.5692
 11
-25.2163
 21
19.7012
  0
LINE
  8
0
 10
-25.2163
 20
19.7012
 11
-25.8885
 21
18.8091
  0
LINE
  8
0
 10
-25.8885
 20
18.8091
 11
-26.5292
 21
17.8942
  0
LINE
  8
0
 10
-26.5292
 20
17.8942
 11
-27.1375
 21
16.9574
  0
LINE
  8
0
 10
-27.1375
 20
16.9574
 11
-27.7128
 21
16
  0
LINE
  8
0
 10
-27.7128
 20
16
 11
-28.2543
 21
15.0231
  0
LINE
  8
0
 10
-28.2543
 20
15.0231
 11
-28.7614
 21
14.0279
  0
LINE
  8
0
 10
-28.7614
 20
14.0279
 11
-29.2334
 21
13.0156
  0
LINE
  8
0
 10
-29.2334
 20
13.0156
 11
-29.6699
 21
11.9874
  0
LINE
  8
0
 10
-29.6699
 20
11.9874
 11
-30.0702
 21
10.9446
  0
LINE
  8
0
 10
-30.0702
 20
10.9446
 11
-30.4338
 21
9.88853
  0
LINE
  8
0
 10
-30.4338
 20
9.88853
 11
-30.7604
 21
8.82039
  0
LINE
  8
0
 10
-30.7604
 20
8.82039
 11
-31.0495
 21
7.74149
  0
LINE
  8
0
 10
-31.0495
 20
7.74149
 11
-31.3007
 21
6.65317
  0
LINE
  8
0
 10
-31.3007
 20
6.65317
 11
-31.5138
 21
5.55673
  0
LINE
  8
0
 10
-31.5138
 20
5.55673
 11
-31.6886
 21
4.45354
  0
LINE
  8
0
 10
-31.6886
 20
4.45354
 11
-31.8247
 21
3.34491
  0
LINE
  8
0
 10
-31.8247
 20
3.34491
 11
-31.922
 21
2.23219
  0
LINE
  8
0
 10
-31.922
 20
2.23219
 11
-31.9805
 21
1.11678
  0
LINE
  8
0
 10
-31.9805
 20
1.11678
 11
-32
 21
0
  0
LINE
  8
0
 10
-32
 20
0
 11
-31.9805
 21
-1.11678
  0
LINE
  8
0
 10
-31.9805
 20
-1.11678
 11
-31.922
 21
-2.23219
  0
LINE
  8
0
 10
-31.922
 20
-2.23219
 11
-31.8247
 21
-3.34491
  0
LINE
  8
0
 10
-31.8247
 20
-3.34491
 11
-31.6886
 21
-4.45354
  0
LINE
  8
0
 10
-31.6886
 20
-4.45354
 11
-31.5138
 21
-5.55673
  0
LINE
  8
0
 10
-31.5138
 20
-5.55673
 11
-31.3007
 21
-6.65317
  0
LINE
  8
0
 10
-31.3007
 20
-6.65317
 11
-31.0495
 21
-7.74149
  0
LINE
  8
0
 10
-31.0495
 20
-7.74149
 11
-30.7604
 21
-8.82039
  0
LINE
  8
0
 10
-30.7604
 20
-8.82039
 11
-30.4338
 21
-9.88853
  0
LINE
  8
0
 10
-30.4338
 20
-9.88853
 11
-30.0702
 21
-10.9446
  0
LINE
  8
0
 10
-30.0702
 20
-10.9446
 11
-29.6699
 21
-11.9874
  0
LINE
  8
0
 10
-29.6699
 20
-11.9874
 11
-29.2334
 21
-13.0156
  0
LINE
  8
0
 10
-29.2334
 20
-13.0156
 11
-28.7614
 21
-14.0279
  0
LINE
  8
0
 10
-28.7614
 20
-14.0279
 11
-28.2543
 21
-15.0231
  0
LINE
  8
0
 10
-28.2543
 20
-15.0231
 11
-27.7128
 21
-16
  0
LINE
  8
0
 10
-27.7128
 20
-16
 11
-27.1375
 21
-16.9574
  0
LINE
  8
0
 10
-27.1375
 20
-16.9574
 11
-26.5292
 21
-17.8942
  0
LINE
  8
0
 10
-26.5292
 20
-17.8942
 11
-25.8885
 21
-18.8091
  0
LINE
  8
0
 10
-25.8885
 20
-18.8091
 11
-25.2163
 21
-19.7012
  0
LINE
  8
0
 10
-25.2163
 20
-19.7012
 11
-24.5134
 21
-20.5692
  0
LINE
  8
0
 10
-24.5134
 20
-20.5692
 11
-23.7806
 21
-21.4122
  0
LINE
  8
0
 10
-23.7806
 20
-21.4122
 11
-23.0189
 21
-22.2291
  0
LINE
  8
0
 10
-23.0189
 20
-22.2291
 11
-22.2291
 21
-23.0189
  0
LINE
  8
0
 10
-22.2291
 20
-23.0189
 11
-21.4122
 21
-23.7806
  0
LINE
  8
0
 10
-21.4122
 20
-23.7806
 11
-20.5692
 21
-24.5134
  0
LINE
  8
0
 10
-20.5692
 20
-24.5134
 11
-19.7012
 21
-25.2163
  0
LINE
  8
0
 10
-19.7012
 20
-25.2163
 11
-18.8091
 21
-25.8885
  0
LINE
  8
0
 10
-18.8091
 20
-25.8885
 11
-17.8942
 21
-26.5292
  0
LINE
  8
0
 10
-17.8942
 20
-26.5292
 11
-16.9574
 21
-27.1375
  0
LINE
  8
0
 10
-16.9574
 20
-27.1375
 11
-16
 21
-27.7128
  0
LINE
  8
0
 10
-16
 20
-27.7128
 11
-15.0231
 21
-28.2543
  0
LINE
  8
0
 10
-15.0231
 20
-28.2543
 11
-14.0279
 21
-28.7614
  0
LINE
  8
0
 10
-14.0279
 20
-28.7614
 11
-13.0156
 21
-29.2334
  0
LINE
  8
0
 10
-13.0156
 20
-29.2334
 11
-11.9874
 21
-29.6699
  0
LINE
  8
0
 10
-11.9874
 20
-29.6699
 11
-10.9446
 21
-30.0702
  0
LINE
  8
0
 10
-10.9446
 20
-30.0702
 11
-9.88853
 21
-30.4338
  0
LINE
  8
0
 10
-9.88853
 20
-30.4338
 11
-8.82039
 21
-30.7604
  0
LINE
  8
0
 10
-8.82039
 20
-30.7604
 11
-7.74149
 21
-31.0495
  0
LINE
  8
0
 10
-7.74149
 20
-31.0495
 11
-6.65317
 21
-31.3007
  0
LINE
  8
0
 10
-6.65317
 20
-31.3007
 11
-5.55673
 21
-31.5138
  0
LINE
  8
0
 10
-5.55673
 20
-31.5138
 11
-4.45354
 21
-31.6886
  0
LINE
  8
0
 10
-4.45354
 20
-31.6886
 11
-3.34491
 21
-31.8247
  0
LINE
  8
0
 10
-3.34491
 20
-31.8247
 11
-2.23219
 21
-31.922
  0
LINE
  8
0
 10
-2.23219
 20
-31.922
 11
-1.11678
 21
-31.9805
  0
LINE
  8
0
 10
-1.11678
 20
-31.9805
 11
0
 21
-32
  0
LINE
  8
0
 10
0
 20
-32
 11
304
 21
-32
  0
LINE
  8
0
 10
304
 20
-32
 11
305.117
 21
-31.9805
  0
LINE
  8
0
 10
47.4302
 20
22.0012
 11
47.3605
 21
22.0049
  0
LINE
  8
0
 10
47.3605
 20
22.0049
 11
47.291
 21
22.011
  0
LINE
  8
0
 10
47.291
 20
22.011
 11
47.2217
 21
22.0195
  0
LINE
  8
0
 10
47.2217
 20
22.0195
 11
47.1527
 21
22.0304
  0
LINE
  8
0
 10
47.1527
 20
22.0304
 11
47.0842
 21
22.0437
  0
LINE
  8
0
 10
47.0842
 20
22.0437
 11
47.0162
 21
22.0594
  0
LINE
  8
0
 10
47.0162
 20
22.0594
 11
46.9487
 21
22.0775
  0
LINE
  8
0
 10
46.9487
 20
22.0775
 11
46.882
 21
22.0979
  0
LINE
  8
0
 10
46.882
 20
22.0979
 11
46.816
 21
22.1206
  0
LINE
  8
0
 10
46.816
 20
22.1206
 11
46.7508
 21
22.1456
  0
LINE
  8
0
 10
46.7508
 20
22.1456
 11
46.6865
 21
22.1729
  0
LINE
  8
0
 10
46.6865
 20
22.1729
 11
46.6233
 21
22.2024
  0
LINE
  8
0
 10
46.6233
 20
22.2024
 11
46.5611
 21
22.2341
  0
LINE
  8
0
 10
46.5611
 20
22.2341
 11
46.5
 21
22.2679
  0
LINE
  8
0
 10
46.5
 20
22.2679
 11
46.4402
 21
22.3039
  0
LINE
  8
0
 10
46.4402
 20
22.3039
 11
46.3816
 21
22.3419
  0
LINE
  8
0
 10
46.3816
 20
22.3419
 11
46.3244
 21
22.382
  0
LINE
  8
0
 10
46.3244
 20
22.382
 11
46.2687
 21
22.424
  0
LINE
  8
0
 10
46.2687
 20
22.424
 11
46.2144
 21
22.4679
  0
LINE
  8
0
 10
46.2144
 20
22.4679
 11
46.1617
 21
22.5137
  0
LINE
  8
0
 10
46.1617
 20
22.5137
 11
46.1107
 21
22.5613
  0
LINE
  8
0
 10
46.1107
 20
22.5613
 11
46.0613
 21
22.6107
  0
LINE
  8
0
 10
46.0613
 20
22.6107
 11
46.0137
 21
22.6617
  0
LINE
  8
0
 10
46.0137
 20
22.6617
 11
45.9679
 21
22.7144
  0
LINE
  8
0
 10
45.9679
 20
22.7144
 11
45.924
 21
22.7687
  0
LINE
  8
0
 10
45.924
 20
22.7687
 11
45.882
 21
22.8244
  0
LINE
  8
0
 10
45.882
 20
22.8244
 11
45.8419
 21
22.8816
  0
LINE
  8
0
 10
45.8419
 20
22.8816
 11
45.8039
 21
22.9402
  0
LINE
  8
0
 10
45.8039
 20
22.9402
 11
45.768
 21
23
  0
LINE
  8
0
 10
45.768
 20
23
 11
45.7341
 21
23.0611
  0
LINE
  8
0
 10
45.7341
 20
23.0611
 11
45.7024
 21
23.1232
  0
LINE
  8
0
 10
45.7024
 20
23.1232
 11
45.6729
 21
23.1865
  0
LINE
  8
0
 10
45.6729
 20
23.1865
 11
45.6456
 21
23.2508
  0
LINE
  8
0
 10
45.6456
 20
23.2508
 11
45.6206
 21
23.3159
  0
LINE
  8
0
 10
45.6206
 20
23.3159
 11
45.5979
 21
23.382
  0
LINE
  8
0
 10
45.5979
 20
23.382
 11
45.5775
 21
23.4487
  0
LINE
  8
0
 10
45.5775
 20
23.4487
 11
45.5594
 21
23.5161
  0
LINE
  8
0
 10
45.5594
 20
23.5161
 11
45.5437
 21
23.5842
  0
LINE
  8
0
 10
45.5437
 20
23.5842
 11
45.5304
 21
23.6527
  0
LINE
  8
0
 10
45.5304
 20
23.6527
 11
45.5195
 21
23.7216
  0
LINE
  8
0
 10
45.5195
 20
23.7216
 11
45.511
 21
23.7909
  0
LINE
  8
0
 10
45.511
 20
23.7909
 11
45.5049
 21
23.8605
  0
LINE
  8
0
 10
45.5049
 20
23.8605
 11
45.5012
 21
23.9302
  0
LINE
  8
0
 10
45.5012
 20
23.9302
 11
45.5
 21
24
  0
LINE
  8
0
 10
45.5
 20
24
 11
45.5012
 21
24.0698
  0
LINE
  8
0
 10
45.5012
 20
24.0698
 11
45.5049
 21
24.1395
  0
LINE
  8
0
 10
45.5049
 20
24.1395
 11
45.511
 21
24.209
  0
LINE
  8
0
 10
45.511
 20
24.209
 11
45.5195
 21
24.2783
  0
LINE
  8
0
 10
45.5195
 20
24.2783
 11
45.5304
 21
24.3473
  0
LINE
  8
0
 10
45.5304
 20
24.3473
 11
45.5437
 21
24.4158
  0
LINE
  8
0
 10
45.5437
 20
24.4158
 11
45.5594
 21
24.4838
  0
LINE
  8
0
 10
45.5594
 20
24.4838
 11
45.5775
 21
24.5513
  0
LINE
  8
0
 10
45.5775
 20
24.5513
 11
45.5979
 21
24.618
  0
LINE
  8
0
 10
45.5979
 20
24.618
 11
45.6206
 21
24.684
  0
LINE
  8
0
 10
45.6206
 20
24.684
 11
45.6456
 21
24.7492
  0
LINE
  8
0
 10
45.6456
 20
24.7492
 11
45.6729
 21
24.8135
  0
LINE
  8
0
 10
45.6729
 20
24.8135
 11
45.7024
 21
24.8767
  0
LINE
  8
0
 10
45.7024
 20
24.8767
 11
45.7341
 21
24.9389
  0
LINE
  8
0
 10
45.7341
 20
24.9389
 11
45.768
 21
25
  0
LINE
  8
0
 10
45.768
 20
25
 11
45.8039
 21
25.0598
  0
LINE
  8
0
 10
45.8039
 20
25.0598
 11
45.8419
 21
25.1184
  0
LINE
  8
0
 10
45.8419
 20
25.1184
 11
45.882
 21
25.1756
  0
LINE
  8
0
 10
45.882
 20
25.1756
 11
45.924
 21
25.2313
  0
LINE
  8
0
 10
45.924
 20
25.2313
 11
45.9679
 21
25.2856
  0
LINE
  8
0
 10
45.9679
 20
25.2856
 11
46.0137
 21
25.3383
  0
LINE
  8
0
 10
46.0137
 20
25.3383
 11
46.0613
 21
25.3893
  0
LINE
  8
0
 10
46.0613
 20
25.3893
 11
46.1107
 21
25.4387
  0
LINE
  8
0
 10
46.1107
 20
25.4387
 11
46.1617
 21
25.4863
  0
LINE
  8
0
 10
46.1617
 20
25.4863
 11
46.2144
 21
25.5321
  0
LINE
  8
0
 10
46.2144
 20
25.5321
 11
46.2687
 21
25.576
  0
LINE
  8
0
 10
46.2687
 20
25.576
 11
46.3244
 21
25.618
  0
LINE
  8
0
 10
46.3244
 20
25.618
 11
46.3816
 21
25.6581
  0
LINE
  8
0
 10
46.3816
 20
25.6581
 11
46.4402
 21
25.6961
  0
LINE
  8
0
 10
46.4402
 20
25.6961
 11
46.5
 21
25.732
  0
LINE
  8
0
 10
46.5
 20
25.732
 11
46.5611
 21
25.7659
  0
LINE
  8
0
 10
46.5611
 20
25.7659
 11
46.6233
 21
25.7976
  0
LINE
  8
0
 10
46.6233
 20
25.7976
 11
46.6865
 21
25.8271
  0
LINE
  8
0
 10
46.6865
 20
25.8271
 11
46.7508
 21
25.8544
  0
LINE
  8
0
 10
46.7508
 20
25.8544
 11
46.816
 21
25.8794
  0
LINE
  8
0
 10
46.816
 20
25.8794
 11
46.882
 21
25.9021
  0
LINE
  8
0
 10
46.882
 20
25.9021
 11
46.9487
 21
25.9225
  0
LINE
  8
0
 10
46.9487
 20
25.9225
 11
47.0162
 21
25.9406
  0
LINE
  8
0
 10
47.0162
 20
25.9406
 11
47.0842
 21
25.9563
  0
LINE
  8
0
 10
47.0842
 20
25.9563
 11
47.1527
 21
25.9696
  0
LINE
  8
0
 10
47.1527
 20
25.9696
 11
47.2217
 21
25.9805
  0
LINE
  8
0
 10
47.2217
 20
25.9805
 11
47.291
 21
25.989
  0
LINE
  8
0
 10
47.291
 20
25.989
 11
47.3605
 21
25.9951
  0
LINE
  8
0
 10
47.3605
 20
25.9951
 11
47.4302
 21
25.9988
  0
LINE
  8
0
 10
47.4302
 20
25.9988
 11
47.5
 21
26
  0
LINE
  8
0
 10
47.5
 20
26
 11
47.5698
 21
25.9988
  0
LINE
  8
0
 10
47.5698
 20
25.9988
 11
47.6395
 21
25.9951
  0
LINE
  8
0
 10
47.6395
 20
25.9951
 11
47.709
 21
25.989
  0
LINE
  8
0
 10
47.709
 20
25.989
 11
47.7783
 21
25.9805
  0
LINE
  8
0
 10
47.7783
 20
25.9805
 11
47.8473
 21
25.9696
  0
LINE
  8
0
 10
47.8473
 20
25.9696
 11
47.9158
 21
25.9563
  0
LINE
  8
0
 10
47.9158
 20
25.9563
 11
47.9838
 21
25.9406
  0
LINE
  8
0
 10
47.9838
 20
25.9406
 11
48.0513
 21
25.9225
  0
LINE
  8
0
 10
48.0513
 20
25.9225
 11
48.118
 21
25.9021
  0
LINE
  8
0
 10
48.118
 20
25.9021
 11
48.184
 21
25.8794
  0
LINE
  8
0
 10
48.184
 20
25.8794
 11
48.2492
 21
25.8544
  0
LINE
  8
0
 10
48.2492
 20
25.8544
 11
48.3135
 21
25.8271
  0
LINE
  8
0
 10
48.3135
 20
25.8271
 11
48.3767
 21
25.7976
  0
LINE
  8
0
 10
48.3767
 20
25.7976
 11
48.4389
 21
25.7659
  0
LINE
  8
0
 10
48.4389
 20
25.7659
 11
48.5
 21
25.732
  0
LINE
  8
0
 10
48.5
 20
25.732
 11
48.5598
 21
25.6961
  0
LINE
  8
0
 10
48.5598
 20
25.6961
 11
48.6184
 21
25.6581
  0
LINE
  8
0
 10
48.6184
 20
25.6581
 11
48.6756
 21
25.618
  0
LINE
  8
0
 10
48.6756
 20
25.618
 11
48.7313
 21
25.576
  0
LINE
  8
0
 10
48.7313
 20
25.576
 11
48.7856
 21
25.5321
  0
LINE
  8
0
 10
48.7856
 20
25.5321
 11
48.8383
 21
25.4863
  0
LINE
  8
0
 10
48.8383
 20
25.4863
 11
48.8893
 21
25.4387
  0
LINE
  8
0
 10
48.8893
 20
25.4387
 11
48.9387
 21
25.3893
  0
LINE
  8
0
 10
48.9387
 20
25.3893
 11
48.9863
 21
25.3383
  0
LINE
  8
0
 10
48.9863
 20
25.3383
 11
49.0321
 21
25.2856
  0
LINE
  8
0
 10
49.0321
 20
25.2856
 11
49.076
 21
25.2313
  0
LINE
  8
0
 10
49.076
 20
25.2313
 11
49.118
 21
25.1756
  0
LINE
  8
0
 10
49.118
 20
25.1756
 11
49.1581
 21
25.1184
  0
LINE
  8
0
 10
49.1581
 20
25.1184
 11
49.1961
 21
25.0598
  0
LINE
  8
0
 10
49.1961
 20
25.0598
 11
49.232
 21
25
  0
LINE
  8
0
 10
49.232
 20
25
 11
49.2659
 21
24.9389
  0
LINE
  8
0
 10
49.2659
 20
24.9389
 11
49.2976
 21
24.8767
  0
LINE
  8
0
 10
49.2976
 20
24.8767
 11
49.3271
 21
24.8135
  0
LINE
  8
0
 10
49.3271
 20
24.8135
 11
49.3544
 21
24.7492
  0
LINE
  8
0
 10
49.3544
 20
24.7492
 11
49.3794
 21
24.684
  0
LINE
  8
0
 10
49.3794
 20
24.684
 11
49.4021
 21
24.618
  0
LINE
  8
0
 10
49.4021
 20
24.618
 11
49.4225
 21
24.5513
  0
LINE
  8
0
 10
49.4225
 20
24.5513
 11
49.4406
 21
24.4838
  0
LINE
  8
0
 10
49.4406
 20
24.4838
 11
49.4563
 21
24.4158
  0
LINE
  8
0
 10
49.4563
 20
24.4158
 11
49.4696
 21
24.3473
  0
LINE
  8
0
 10
49.4696
 20
24.3473
 11
49.4805
 21
24.2783
  0
LINE
  8
0
 10
49.4805
 20
24.2783
 11
49.489
 21
24.209
  0
LINE
  8
0
 10
49.489
 20
24.209
 11
49.4951
 21
24.1395
  0
LINE
  8
0
 10
49.4951
 20
24.1395
 11
49.4988
 21
24.0698
  0
LINE
  8
0
 10
49.4988
 20
24.0698
 11
49.5
 21
24
  0
LINE
  8
0
 10
49.5
 20
24
 11
49.4988
 21
23.9302
  0
LINE
  8
0
 10
49.4988
 20
23.9302
 11
49.4951
 21
23.8605
  0
LINE
  8
0
 10
49.4951
 20
23.8605
 11
49.489
 21
23.7909
  0
LINE
  8
0
 10
49.489
 20
23.7909
 11
49.4805
 21
23.7216
  0
LINE
  8
0
 10
49.4805
 20
23.7216
 11
49.4696
 21
23.6527
  0
LINE
  8
0
 10
49.4696
 20
23.6527
 11
49.4563
 21
23.5842
  0
LINE
  8
0
 10
49.4563
 20
23.5842
 11
49.4406
 21
23.5161
  0
LINE
  8
0
 10
49.4406
 20
23.5161
 11
49.4225
 21
23.4487
  0
LINE
  8
0
 10
49.4225
 20
23.4487
 11
49.4021
 21
23.382
  0
LINE
  8
0
 10
49.4021
 20
23.382
 11
49.3794
 21
23.3159
  0
LINE
  8
0
 10
49.3794
 20
23.3159
 11
49.3544
 21
23.2508
  0
LINE
  8
0
 10
49.3544
 20
23.2508
 11
49.3271
 21
23.1865
  0
LINE
  8
0
 10
49.3271
 20
23.1865
 11
49.2976
 21
23.1232
  0
LINE
  8
0
 10
49.2976
 20
23.1232
 11
49.2659
 21
23.0611
  0
LINE
  8
0
 10
49.2659
 20
23.0611
 11
49.232
 21
23
  0
LINE
  8
0
 10
49.232
 20
23
 11
49.1961
 21
22.9402
  0
LINE
  8
0
 10
49.1961
 20
22.9402
 11
49.1581
 21
22.8816
  0
LINE
  8
0
 10
49.1581
 20
22.8816
 11
49.118
 21
22.8244
  0
LINE
  8
0
 10
49.118
 20
22.8244
 11
49.076
 21
22.7687
  0
LINE
  8
0
 10
49.076
 20
22.7687
 11
49.0321
 21
22.7144
  0
LINE
  8
0
 10
49.0321
 20
22.7144
 11
48.9863
 21
22.6617
  0
LINE
  8
0
 10
48.9863
 20
22.6617
 11
48.9387
 21
22.6107
  0
LINE
  8
0
 10
48.9387
 20
22.6107
 11
48.8893
 21
22.5613
  0
LINE
  8
0
 10
48.8893
 20
22.5613
 11
48.8383
 21
22.5137
  0
LINE
  8
0
 10
48.8383
 20
22.5137
 11
48.7856
 21
22.4679
  0
LINE
  8
0
 10
48.7856
 20
22.4679
 11
48.7313
 21
22.424
  0
LINE
  8
0
 10
48.7313
 20
22.424
 11
48.6756
 21
22.382
  0
LINE
  8
0
 10
48.6756
 20
22.382
 11
48.6184
 21
22.3419
  0
LINE
  8
0
 10
48.6184
 20
22.3419
 11
48.5598
 21
22.3039
  0
LINE
  8
0
 10
48.5598
 20
22.3039
 11
48.5
 21
22.2679
  0
LINE
  8
0
 10
48.5
 20
22.2679
 11
48.4389
 21
22.2341
  0
LINE
  8
0
 10
48.4389
 20
22.2341
 11
48.3767
 21
22.2024
  0
LINE
  8
0
 10
48.3767
 20
22.2024
 11
48.3135
 21
22.1729
  0
LINE
  8
0
 10
48.3135
 20
22.1729
 11
48.2492
 21
22.1456
  0
LINE
  8
0
 10
48.2492
 20
22.1456
 11
48.184
 21
22.1206
  0
LINE
  8
0
 10
48.184
 20
22.1206
 11
48.118
 21
22.0979
  0
LINE
  8
0
 10
48.118
 20
22.0979
 11
48.0513
 21
22.0775
  0
LINE
  8
0
 10
48.0513
 20
22.0775
 11
47.9838
 21
22.0594
  0
LINE
  8
0
 10
47.9838
 20
22.0594
 11
47.9158
 21
22.0437
  0
LINE
  8
0
 10
47.9158
 20
22.0437
 11
47.8473
 21
22.0304
  0
LINE
  8
0
 10
47.8473
 20
22.0304
 11
47.7783
 21
22.0195
  0
LINE
  8
0
 10
47.7783
 20
22.0195
 11
47.709
 21
22.011
  0
LINE
  8
0
 10
47.709
 20
22.011
 11
47.6395
 21
22.0049
  0
LINE
  8
0
 10
47.6395
 20
22.0049
 11
47.5698
 21
22.0012
  0
LINE
  8
0
 10
47.5698
 20
22.0012
 11
47.5
 21
22
  0
LINE
  8
0
 10
47.5
 20
22
 11
47.4302
 21
22.0012
  0
LINE
  8
0
 10
151.93
 20
22.0012
 11
151.86
 21
22.0049
  0
LINE
  8
0
 10
151.86
 20
22.0049
 11
151.791
 21
22.011
  0
LINE
  8
0
 10
151.791
 20
22.011
 11
151.722
 21
22.0195
  0
LINE
  8
0
 10
151.722
 20
22.0195
 11
151.653
 21
22.0304
  0
LINE
  8
0
 10
151.653
 20
22.0304
 11
151.584
 21
22.0437
  0
LINE
  8
0
 10
151.584
 20
22.0437
 11
151.516
 21
22.0594
  0
LINE
  8
0
 10
151.516
 20
22.0594
 11
151.449
 21
22.0775
  0
LINE
  8
0
 10
151.449
 20
22.0775
 11
151.382
 21
22.0979
  0
LINE
  8
0
 10
151.382
 20
22.0979
 11
151.316
 21
22.1206
  0
LINE
  8
0
 10
151.316
 20
22.1206
 11
151.251
 21
22.1456
  0
LINE
  8
0
 10
151.251
 20
22.1456
 11
151.187
 21
22.1729
  0
LINE
  8
0
 10
151.187
 20
22.1729
 11
151.123
 21
22.2024
  0
LINE
  8
0
 10
151.123
 20
22.2024
 11
151.061
 21
22.2341
  0
LINE
  8
0
 10
151.061
 20
22.2341
 11
151
 21
22.2679
  0
LINE
  8
0
 10
151
 20
22.2679
 11
150.94
 21
22.3039
  0
LINE
  8
0
 10
150.94
 20
22.3039
 11
150.882
 21
22.3419
  0
LINE
  8
0
 10
150.882
 20
22.3419
 11
150.824
 21
22.382
  0
LINE
  8
0
 10
150.824
 20
22.382
 11
150.769
 21
22.424
  0
LINE
  8
0
 10
150.769
 20
22.424
 11
150.714
 21
22.4679
  0
LINE
  8
0
 10
150.714
 20
22.4679
 11
150.662
 21
22.5137
  0
LINE
  8
0
 10
150.662
 20
22.5137
 11
150.611
 21
22.5613
  0
LINE
  8
0
 10
150.611
 20
22.5613
 11
150.561
 21
22.6107
  0
LINE
  8
0
 10
150.561
 20
22.6107
 11
150.514
 21
22.6617
  0
LINE
  8
0
 10
150.514
 20
22.6617
 11
150.468
 21
22.7144
  0
LINE
  8
0
 10
150.468
 20
22.7144
 11
150.424
 21
22.7687
  0
LINE
  8
0
 10
150.424
 20
22.7687
 11
150.382
 21
22.8244
  0
LINE
  8
0
 10
150.382
 20
22.8244
 11
150.342
 21
22.8816
  0
LINE
  8
0
 10
150.342
 20
22.8816
 11
150.304
 21
22.9402
  0
LINE
  8
0
 10
150.304
 20
22.9402
 11
150.268
 21
23
  0
LINE
  8
0
 10
150.268
 20
23
 11
150.234
 21
23.0611
  0
LINE
  8
0
 10
150.234
 20
23.0611
 11
150.202
 21
23.1232
  0
LINE
  8
0
 10
150.202
 20
23.1232
 11
150.173
 21
23.1865
  0
LINE
  8
0
 10
150.173
 20
23.1865
 11
150.146
 21
23.2508
  0
LINE
  8
0
 10
150.146
 20
23.2508
 11
150.121
 21
23.3159
  0
LINE
  8
0
 10
150.121
 20
23.3159
 11
150.098
 21
23.382
  0
LINE
  8
0
 10
150.098
 20
23.382
 11
150.077
 21
23.4487
  0
LINE
  8
0
 10
150.077
 20
23.4487
 11
150.059
 21
23.5161
  0
LINE
  8
0
 10
150.059
 20
23.5161
 11
150.044
 21
23.5842
  0
LINE
  8
0
 10
150.044
 20
23.5842
 11
150.03
 21
23.6527
  0
LINE
  8
0
 10
150.03
 20
23.6527
 11
150.019
 21
23.7216
  0
LINE
  8
0
 10
150.019
 20
23.7216
 11
150.011
 21
23.7909
  0
LINE
  8
0
 10
150.011
 20
23.7909
 11
150.005
 21
23.8605
  0
LINE
  8
0
 10
150.005
 20
23.8605
 11
150.001
 21
23.9302
  0
LINE
  8
0
 10
150.001
 20
23.9302
 11
150
 21
24
  0
LINE
  8
0
 10
150
 20
24
 11
150.001
 21
24.0698
  0
LINE
  8
0
 10
150.001
 20
24.0698
 11
150.005
 21
24.1395
  0
LINE
  8
0
 10
150.005
 20
24.1395
 11
150.011
 21
24.209
  0
LINE
  8
0
 10
150.011
 20
24.209
 11
150.019
 21
24.2783
  0
LINE
  8
0
 10
150.019
 20
24.2783
 11
150.03
 21
24.3473
  0
LINE
  8
0
 10
150.03
 20
24.3473
 11
150.044
 21
24.4158
  0
LINE
  8
0
 10
150.044
 20
24.4158
 11
150.059
 21
24.4838
  0
LINE
  8
0
 10
150.059
 20
24.4838
 11
150.077
 21
24.5513
  0
LINE
  8
0
 10
150.077
 20
24.5513
 11
150.098
 21
24.618
  0
LINE
  8
0
 10
150.098
 20
24.618
 11
150.121
 21
24.684
  0
LINE
  8
0
 10
150.121
 20
24.684
 11
150.146
 21
24.7492
  0
LINE
  8
0
 10
150.146
 20
24.7492
 11
150.173
 21
24.8135
  0
LINE
  8
0
 10
150.173
 20
24.8135
 11
150.202
 21
24.8767
  0
LINE
  8
0
 10
150.202
 20
24.8767
 11
150.234
 21
24.9389
  0
LINE
  8
0
 10
150.234
 20
24.9389
 11
150.268
 21
25
  0
LINE
  8
0
 10
150.268
 20
25
 11
150.304
 21
25.0598
  0
LINE
  8
0
 10
150.304
 20
25.0598
 11
150.342
 21
25.1184
  0
LINE
  8
0
 10
150.342
 20
25.1184
 11
150.382
 21
25.1756
  0
LINE
  8
0
 10
150.382
 20
25.1756
 11
150.424
 21
25.2313
  0
LINE
  8
0
 10
150.424
 20
25.2313
 11
150.468
 21
25.2856
  0
LINE
  8
0
 10
150.468
 20
25.2856
 11
150.514
 21
25.3383
  0
LINE
  8
0
 10
150.514
 20
25.3383
 11
150.561
 21
25.3893
  0
LINE
  8
0
 10
150.561
 20
25.3893
 11
150.611
 21
25.4387
  0
LINE
  8
0
 10
150.611
 20
25.4387
 11
150.662
 21
25.4863
  0
LINE
  8
0
 10
150.662
 20
25.4863
 11
150.714
 21
25.5321
  0
LINE
  8
0
 10
150.714
 20
25.5321
 11
150.769
 21
25.576
  0
LINE
  8
0
 10
150.769
 20
25.576
 11
150.824
 21
25.618
  0
LINE
  8
0
 10
150.824
 20
25.618
 11
150.882
 21
25.6581
  0
LINE
  8
0
 10
150.882
 20
25.6581
 11
150.94
 21
25.6961
  0
LINE
  8
0
 10
150.94
 20
25.6961
 11
151
 21
25.732
  0
LINE
  8
0
 10
151
 20
25.732
 11
151.061
 21
25.7659
  0
LINE
  8
0
 10
151.061
 20
25.7659
 11
151.123
 21
25.7976
  0
LINE
  8
0
 10
151.123
 20
25.7976
 11
151.187
 21
25.8271
  0
LINE
  8
0
 10
151.187
 20
25.8271
 11
151.251
 21
25.8544
  0
LINE
  8
0
 10
151.251
 20
25.8544
 11
151.316
 21
25.8794
  0
LINE
  8
0
 10
151.316
 20
25.8794
 11
151.382
 21
25.9021
  0
LINE
  8
0
 10
151.382
 20
25.9021
 11
151.449
 21
25.9225
  0
LINE
  8
0
 10
151.449
 20
25.9225
 11
151.516
 21
25.9406
  0
LINE
  8
0
 10
151.516
 20
25.9406
 11
151.584
 21
25.9563
  0
LINE
  8
0
 10
151.584
 20
25.9563
 11
151.653
 21
25.9696
  0
LINE
  8
0
 10
151.653
 20
25.9696
 11
151.722
 21
25.9805
  0
LINE
  8
0
 10
151.722
 20
25.9805
 11
151.791
 21
25.989
  0
LINE
  8
0
 10
151.791
 20
25.989
 11
151.86
 21
25.9951
  0
LINE
  8
0
 10
151.86
 20
25.9951
 11
151.93
 21
25.9988
  0
LINE
  8
0
 10
151.93
 20
25.9988
 11
152
 21
26
  0
LINE
  8
0
 10
152
 20
26
 11
152.07
 21
25.9988
  0
LINE
  8
0
 10
152.07
 20
25.9988
 11
152.14
 21
25.9951
  0
LINE
  8
0
 10
152.14
 20
25.9951
 11
152.209
 21
25.989
  0
LINE
  8
0
 10
152.209
 20
25.989
 11
152.278
 21
25.9805
  0
LINE
  8
0
 10
152.278
 20
25.9805
 11
152.347
 21
25.9696
  0
LINE
  8
0
 10
152.347
 20
25.9696
 11
152.416
 21
25.9563
  0
LINE
  8
0
 10
152.416
 20
25.9563
 11
152.484
 21
25.9406
  0
LINE
  8
0
 10
152.484
 20
25.9406
 11
152.551
 21
25.9225
  0
LINE
  8
0
 10
152.551
 20
25.9225
 11
152.618
 21
25.9021
  0
LINE
  8
0
 10
152.618
 20
25.9021
 11
152.684
 21
25.8794
  0
LINE
  8
0
 10
152.684
 20
25.8794
 11
152.749
 21
25.8544
  0
LINE
  8
0
 10
152.749
 20
25.8544
 11
152.813
 21
25.8271
  0
LINE
  8
0
 10
152.813
 20
25.8271
 11
152.877
 21
25.7976
  0
LINE
  8
0
 10
152.877
 20
25.7976
 11
152.939
 21
25.7659
  0
LINE
  8
0
 10
152.939
 20
25.7659
 11
153
 21
25.732
  0
LINE
  8
0
 10
153
 20
25.732
 11
153.06
 21
25.6961
  0
LINE
  8
0
 10
153.06
 20
25.6961
 11
153.118
 21
25.6581
  0
LINE
  8
0
 10
153.118
 20
25.6581
 11
153.176
 21
25.618
  0
LINE
  8
0
 10
153.176
 20
25.618
 11
153.231
 21
25.576
  0
LINE
  8
0
 10
153.231
 20
25.576
 11
153.286
 21
25.5321
  0
LINE
  8
0
 10
153.286
 20
25.5321
 11
153.338
 21
25.4863
  0
LINE
  8
0
 10
153.338
 20
25.4863
 11
153.389
 21
25.4387
  0
LINE
  8
0
 10
153.389
 20
25.4387
 11
153.439
 21
25.3893
  0
LINE
  8
0
 10
153.439
 20
25.3893
 11
153.486
 21
25.3383
  0
LINE
  8
0
 10
153.486
 20
25.3383
 11
153.532
 21
25.2856
  0
LINE
  8
0
 10
153.532
 20
25.2856
 11
153.576
 21
25.2313
  0
LINE
  8
0
 10
153.576
 20
25.2313
 11
153.618
 21
25.1756
  0
LINE
  8
0
 10
153.618
 20
25.1756
 11
153.658
 21
25.1184
  0
LINE
  8
0
 10
153.658
 20
25.1184
 11
153.696
 21
25.0598
  0
LINE
  8
0
 10
153.696
 20
25.0598
 11
153.732
 21
25
  0
LINE
  8
0
 10
153.732
 20
25
 11
153.766
 21
24.9389
  0
LINE
  8
0
 10
153.766
 20
24.9389
 11
153.798
 21
24.8767
  0
LINE
  8
0
 10
153.798
 20
24.8767
 11
153.827
 21
24.8135
  0
LINE
  8
0
 10
153.827
 20
24.8135
 11
153.854
 21
24.7492
  0
LINE
  8
0
 10
153.854
 20
24.7492
 11
153.879
 21
24.684
  0
LINE
  8
0
 10
153.879
 20
24.684
 11
153.902
 21
24.618
  0
LINE
  8
0
 10
153.902
 20
24.618
 11
153.923
 21
24.5513
  0
LINE
  8
0
 10
153.923
 20
24.5513
 11
153.941
 21
24.4838
  0
LINE
  8
0
 10
153.941
 20
24.4838
 11
153.956
 21
24.4158
  0
LINE
  8
0
 10
153.956
 20
24.4158
 11
153.97
 21
24.3473
  0
LINE
  8
0
 10
153.97
 20
24.3473
 11
153.981
 21
24.2783
  0
LINE
  8
0
 10
153.981
 20
24.2783
 11
153.989
 21
24.209
  0
LINE
  8
0
 10
153.989
 20
24.209
 11
153.995
 21
24.1395
  0
LINE
  8
0
 10
153.995
 20
24.1395
 11
153.999
 21
24.0698
  0
LINE
  8
0
 10
153.999
 20
24.0698
 11
154
 21
24
  0
LINE
  8
0
 10
154
 20
24
 11
153.999
 21
23.9302
  0
LINE
  8
0
 10
153.999
 20
23.9302
 11
153.995
 21
23.8605
  0
LINE
  8
0
 10
153.995
 20
23.8605
 11
153.989
 21
23.7909
  0
LINE
  8
0
 10
153.989
 20
23.7909
 11
153.981
 21
23.7216
  0
LINE
  8
0
 10
153.981
 20
23.7216
 11
153.97
 21
23.6527
  0
LINE
  8
0
 10
153.97
 20
23.6527
 11
153.956
 21
23.5842
  0
LINE
  8
0
 10
153.956
 20
23.5842
 11
153.941
 21
23.5161
  0
LINE
  8
0
 10
153.941
 20
23.5161
 11
153.923
 21
23.4487
  0
LINE
  8
0
 10
153.923
 20
23.4487
 11
153.902
 21
23.382
  0
LINE
  8
0
 10
153.902
 20
23.382
 11
153.879
 21
23.3159
  0
LINE
  8
0
 10
153.879
 20
23.3159
 11
153.854
 21
23.2508
  0
LINE
  8
0
 10
153.854
 20
23.2508
 11
153.827
 21
23.1865
  0
LINE
  8
0
 10
153.827
 20
23.1865
 11
153.798
 21
23.1232
  0
LINE
  8
0
 10
153.798
 20
23.1232
 11
153.766
 21
23.0611
  0
LINE
  8
0
 10
153.766
 20
23.0611
 11
153.732
 21
23
  0
LINE
  8
0
 10
153.732
 20
23
 11
153.696
 21
22.9402
  0
LINE
  8
0
 10
153.696
 20
22.9402
 11
153.658
 21
22.8816
  0
LINE
  8
0
 10
153.658
 20
22.8816
 11
153.618
 21
22.8244
  0
LINE
  8
0
 10
153.618
 20
22.8244
 11
153.576
 21
22.7687
  0
LINE
  8
0
 10
153.576
 20
22.7687
 11
153.532
 21
22.7144
  0
LINE
  8
0
 10
153.532
 20
22.7144
 11
153.486
 21
22.6617
  0
LINE
  8
0
 10
153.486
 20
22.6617
 11
153.439
 21
22.6107
  0
LINE
  8
0
 10
153.439
 20
22.6107
 11
153.389
 21
22.5613
  0
LINE
  8
0
 10
153.389
 20
22.5613
 11
153.338
 21
22.5137
  0
LINE
  8
0
 10
153.338
 20
22.5137
 11
153.286
 21
22.4679
  0
LINE
  8
0
 10
153.286
 20
22.4679
 11
153.231
 21
22.424
  0
LINE
  8
0
 10
153.231
 20
22.424
 11
153.176
 21
22.382
  0
LINE
  8
0
 10
153.176
 20
22.382
 11
153.118
 21
22.3419
  0
LINE
  8
0
 10
153.118
 20
22.3419
 11
153.06
 21
22.3039
  0
LINE
  8
0
 10
153.06
 20
22.3039
 11
153
 21
22.2679
  0
LINE
  8
0
 10
153
 20
22.2679
 11
152.939
 21
22.2341
  0
LINE
  8
0
 10
152.939
 20
22.2341
 11
152.877
 21
22.2024
  0
LINE
  8
0
 10
152.877
 20
22.2024
 11
152.813
 21
22.1729
  0
LINE
  8
0
 10
152.813
 20
22.1729
 11
152.749
 21
22.1456
  0
LINE
  8
0
 10
152.749
 20
22.1456
 11
152.684
 21
22.1206
  0
LINE
  8
0
 10
152.684
 20
22.1206
 11
152.618
 21
22.0979
  0
LINE
  8
0
 10
152.618
 20
22.0979
 11
152.551
 21
22.0775
  0
LINE
  8
0
 10
152.551
 20
22.0775
 11
152.484
 21
22.0594
  0
LINE
  8
0
 10
152.484
 20
22.0594
 11
152.416
 21
22.0437
  0
LINE
  8
0
 10
152.416
 20
22.0437
 11
152.347
 21
22.0304
  0
LINE
  8
0
 10
152.347
 20
22.0304
 11
152.278
 21
22.0195
  0
LINE
  8
0
 10
152.278
 20
22.0195
 11
152.209
 21
22.011
  0
LINE
  8
0
 10
152.209
 20
22.011
 11
152.14
 21
22.0049
  0
LINE
  8
0
 10
152.14
 20
22.0049
 11
152.07
 21
22.0012
  0
LINE
  8
0
 10
152.07
 20
22.0012
 11
152
 21
22
  0
LINE
  8
0
 10
152
 20
22
 11
151.93
 21
22.0012
  0
LINE
  8
0
 10
256.43
 20
22.0012
 11
256.36
 21
22.0049
  0
LINE
  8
0
 10
256.36
 20
22.0049
 11
256.291
 21
22.011
  0
LINE
  8
0
 10
256.291
 20
22.011
 11
256.222
 21
22.0195
  0
LINE
  8
0
 10
256.222
 20
22.0195
 11
256.153
 21
22.0304
  0
LINE
  8
0
 10
256.153
 20
22.0304
 11
256.084
 21
22.0437
  0
LINE
  8
0
 10
256.084
 20
22.0437
 11
256.016
 21
22.0594
  0
LINE
  8
0
 10
256.016
 20
22.0594
 11
255.949
 21
22.0775
  0
LINE
  8
0
 10
255.949
 20
22.0775
 11
255.882
 21
22.0979
  0
LINE
  8
0
 10
255.882
 20
22.0979
 11
255.816
 21
22.1206
  0
LINE
  8
0
 10
255.816
 20
22.1206
 11
255.751
 21
22.1456
  0
LINE
  8
0
 10
255.751
 20
22.1456
 11
255.687
 21
22.1729
  0
LINE
  8
0
 10
255.687
 20
22.1729
 11
255.623
 21
22.2024
  0
LINE
  8
0
 10
255.623
 20
22.2024
 11
255.561
 21
22.2341
  0
LINE
  8
0
 10
255.561
 20
22.2341
 11
255.5
 21
22.2679
  0
LINE
  8
0
 10
255.5
 20
22.2679
 11
255.44
 21
22.3039
  0
LINE
  8
0
 10
255.44
 20
22.3039
 11
255.382
 21
22.3419
  0
LINE
  8
0
 10
255.382
 20
22.3419
 11
255.324
 21
22.382
  0
LINE
  8
0
 10
255.324
 20
22.382
 11
255.269
 21
22.424
  0
LINE
  8
0
 10
255.269
 20
22.424
 11
255.214
 21
22.4679
  0
LINE
  8
0
 10
255.214
 20
22.4679
 11
255.162
 21
22.5137
  0
LINE
  8
0
 10
255.162
 20
22.5137
 11
255.111
 21
22.5613
  0
LINE
  8
0
 10
255.111
 20
22.5613
 11
255.061
 21
22.6107
  0
LINE
  8
0
 10
255.061
 20
22.6107
 11
255.014
 21
22.6617
  0
LINE
  8
0
 10
255.014
 20
22.6617
 11
254.968
 21
22.7144
  0
LINE
  8
0
 10
254.968
 20
22.7144
 11
254.924
 21
22.7687
  0
LINE
  8
0
 10
254.924
 20
22.7687
 11
254.882
 21
22.8244
  0
LINE
  8
0
 10
254.882
 20
22.8244
 11
254.842
 21
22.8816
  0
LINE
  8
0
 10
254.842
 20
22.8816
 11
254.804
 21
22.9402
  0
LINE
  8
0
 10
254.804
 20
22.9402
 11
254.768
 21
23
  0
LINE
  8
0
 10
254.768
 20
23
 11
254.734
 21
23.0611
  0
LINE
  8
0
 10
254.734
 20
23.0611
 11
254.702
 21
23.1232
  0
LINE
  8
0
 10
254.702
 20
23.1232
 11
254.673
 21
23.1865
  0
LINE
  8
0
 10
254.673
 20
23.1865
 11
254.646
 21
23.2508
  0
LINE
  8
0
 10
254.646
 20
23.2508
 11
254.621
 21
23.3159
  0
LINE
  8
0
 10
254.621
 20
23.3159
 11
254.598
 21
23.382
  0
LINE
  8
0
 10
254.598
 20
23.382
 11
254.577
 21
23.4487
  0
LINE
  8
0
 10
254.577
 20
23.4487
 11
254.559
 21
23.5161
  0
LINE
  8
0
 10
254.559
 20
23.5161
 11
254.544
 21
23.5842
  0
LINE
  8
0
 10
254.544
 20
23.5842
 11
254.53
 21
23.6527
  0
LINE
  8
0
 10
254.53
 20
23.6527
 11
254.519
 21
23.7216
  0
LINE
  8
0
 10
254.519
 20
23.7216
 11
254.511
 21
23.7909
  0
LINE
  8
0
 10
254.511
 20
23.7909
 11
254.505
 21
23.8605
  0
LINE
  8
0
 10
254.505
 20
23.8605
 11
254.501
 21
23.9302
  0
LINE
  8
0
 10
254.501
 20
23.9302
 11
254.5
 21
24
  0
LINE
  8
0
 10
254.5
 20
24
 11
254.501
 21
24.0698
  0
LINE
  8
0
 10
254.501
 20
24.0698
 11
254.505
 21
24.1395
  0
LINE
  8
0
 10
254.505
 20
24.1395
 11
254.511
 21
24.209
  0
LINE
  8
0
 10
254.511
 20
24.209
 11
254.519
 21
24.2783
  0
LINE
  8
0
 10
254.519
 20
24.2783
 11
254.53
 21
24.3473
  0
LINE
  8
0
 10
254.53
 20
24.3473
 11
254.544
 21
24.4158
  0
LINE
  8
0
 10
254.544
 20
24.4158
 11
254.559
 21
24.4838
  0
LINE
  8
0
 10
254.559
 20
24.4838
 11
254.577
 21
24.5513
  0
LINE
  8
0
 10
254.577
 20
24.5513
 11
254.598
 21
24.618
  0
LINE
  8
0
 10
254.598
 20
24.618
 11
254.621
 21
24.684
  0
LINE
  8
0
 10
254.621
 20
24.684
 11
254.646
 21
24.7492
  0
LINE
  8
0
 10
254.646
 20
24.7492
 11
254.673
 21
24.8135
  0
LINE
  8
0
 10
254.673
 20
24.8135
 11
254.702
 21
24.8767
  0
LINE
  8
0
 10
254.702
 20
24.8767
 11
254.734
 21
24.9389
  0
LINE
  8
0
 10
254.734
 20
24.9389
 11
254.768
 21
25
  0
LINE
  8
0
 10
254.768
 20
25
 11
254.804
 21
25.0598
  0
LINE
  8
0
 10
254.804
 20
25.0598
 11
254.842
 21
25.1184
  0
LINE
  8
0
 10
254.842
 20
25.1184
 11
254.882
 21
25.1756
  0
LINE
  8
0
 10
254.882
 20
25.1756
 11
254.924
 21
25.2313
  0
LINE
  8
0
 10
254.924
 20
25.2313
 11
254.968
 21
25.2856
  0
LINE
  8
0
 10
254.968
 20
25.2856
 11
255.014
 21
25.3383
  0
LINE
  8
0
 10
255.014
 20
25.3383
 11
255.061
 21
25.3893
  0
LINE
  8
0
 10
255.061
 20
25.3893
 11
255.111
 21
25.4387
  0
LINE
  8
0
 10
255.111
 20
25.4387
 11
255.162
 21
25.4863
  0
LINE
  8
0
 10
255.162
 20
25.4863
 11
255.214
 21
25.5321
  0
LINE
  8
0
 10
255.214
 20
25.5321
 11
255.269
 21
25.576
  0
LINE
  8
0
 10
255.269
 20
25.576
 11
255.324
 21
25.618
  0
LINE
  8
0
 10
255.324
 20
25.618
 11
255.382
 21
25.6581
  0
LINE
  8
0
 10
255.382
 20
25.6581
 11
255.44
 21
25.6961
  0
LINE
  8
0
 10
255.44
 20
25.6961
 11
255.5
 21
25.732
  0
LINE
  8
0
 10
255.5
 20
25.732
 11
255.561
 21
25.7659
  0
LINE
  8
0
 10
255.561
 20
25.7659
 11
255.623
 21
25.7976
  0
LINE
  8
0
 10
255.623
 20
25.7976
 11
255.687
 21
25.8271
  0
LINE
  8
0
 10
255.687
 20
25.8271
 11
255.751
 21
25.8544
  0
LINE
  8
0
 10
255.751
 20
25.8544
 11
255.816
 21
25.8794
  0
LINE
  8
0
 10
255.816
 20
25.8794
 11
255.882
 21
25.9021
  0
LINE
  8
0
 10
255.882
 20
25.9021
 11
255.949
 21
25.9225
  0
LINE
  8
0
 10
255.949
 20
25.9225
 11
256.016
 21
25.9406
  0
LINE
  8
0
 10
256.016
 20
25.9406
 11
256.084
 21
25.9563
  0
LINE
  8
0
 10
256.084
 20
25.9563
 11
256.153
 21
25.9696
  0
LINE
  8
0
 10
256.153
 20
25.9696
 11
256.222
 21
25.9805
  0
LINE
  8
0
 10
256.222
 20
25.9805
 11
256.291
 21
25.989
  0
LINE
  8
0
 10
256.291
 20
25.989
 11
256.36
 21
25.9951
  0
LINE
  8
0
 10
256.36
 20
25.9951
 11
256.43
 21
25.9988
  0
LINE
  8
0
 10
256.43
 20
25.9988
 11
256.5
 21
26
  0
LINE
  8
0
 10
256.5
 20
26
 11
256.57
 21
25.9988
  0
LINE
  8
0
 10
256.57
 20
25.9988
 11
256.64
 21
25.9951
  0
LINE
  8
0
 10
256.64
 20
25.9951
 11
256.709
 21
25.989
  0
LINE
  8
0
 10
256.709
 20
25.989
 11
256.778
 21
25.9805
  0
LINE
  8
0
 10
256.778
 20
25.9805
 11
256.847
 21
25.9696
  0
LINE
  8
0
 10
256.847
 20
25.9696
 11
256.916
 21
25.9563
  0
LINE
  8
0
 10
256.916
 20
25.9563
 11
256.984
 21
25.9406
  0
LINE
  8
0
 10
256.984
 20
25.9406
 11
257.051
 21
25.9225
  0
LINE
  8
0
 10
257.051
 20
25.9225
 11
257.118
 21
25.9021
  0
LINE
  8
0
 10
257.118
 20
25.9021
 11
257.184
 21
25.8794
  0
LINE
  8
0
 10
257.184
 20
25.8794
 11
257.249
 21
25.8544
  0
LINE
  8
0
 10
257.249
 20
25.8544
 11
257.313
 21
25.8271
  0
LINE
  8
0
 10
257.313
 20
25.8271
 11
257.377
 21
25.7976
  0
LINE
  8
0
 10
257.377
 20
25.7976
 11
257.439
 21
25.7659
  0
LINE
  8
0
 10
257.439
 20
25.7659
 11
257.5
 21
25.732
  0
LINE
  8
0
 10
257.5
 20
25.732
 11
257.56
 21
25.6961
  0
LINE
  8
0
 10
257.56
 20
25.6961
 11
257.618
 21
25.6581
  0
LINE
  8
0
 10
257.618
 20
25.6581
 11
257.676
 21
25.618
  0
LINE
  8
0
 10
257.676
 20
25.618
 11
257.731
 21
25.576
  0
LINE
  8
0
 10
257.731
 20
25.576
 11
257.786
 21
25.5321
  0
LINE
  8
0
 10
257.786
 20
25.5321
 11
257.838
 21
25.4863
  0
LINE
  8
0
 10
257.838
 20
25.4863
 11
257.889
 21
25.4387
  0
LINE
  8
0
 10
257.889
 20
25.4387
 11
257.939
 21
25.3893
  0
LINE
  8
0
 10
257.939
 20
25.3893
 11
257.986
 21
25.3383
  0
LINE
  8
0
 10
257.986
 20
25.3383
 11
258.032
 21
25.2856
  0
LINE
  8
0
 10
258.032
 20
25.2856
 11
258.076
 21
25.2313
  0
LINE
  8
0
 10
258.076
 20
25.2313
 11
258.118
 21
25.1756
  0
LINE
  8
0
 10
258.118
 20
25.1756
 11
258.158
 21
25.1184
  0
LINE
  8
0
 10
258.158
 20
25.1184
 11
258.196
 21
25.0598
  0
LINE
  8
0
 10
258.196
 20
25.0598
 11
258.232
 21
25
  0
LINE
  8
0
 10
258.232
 20
25
 11
258.266
 21
24.9389
  0
LINE
  8
0
 10
258.266
 20
24.9389
 11
258.298
 21
24.8767
  0
LINE
  8
0
 10
258.298
 20
24.8767
 11
258.327
 21
24.8135
  0
LINE
  8
0
 10
258.327
 20
24.8135
 11
258.354
 21
24.7492
  0
LINE
  8
0
 10
258.354
 20
24.7492
 11
258.379
 21
24.684
  0
LINE
  8
0
 10
258.379
 20
24.684
 11
258.402
 21
24.618
  0
LINE
  8
0
 10
258.402
 20
24.618
 11
258.423
 21
24.5513
  0
LINE
  8
0
 10
258.423
 20
24.5513
 11
258.441
 21
24.4838
  0
LINE
  8
0
 10
258.441
 20
24.4838
 11
258.456
 21
24.4158
  0
LINE
  8
0
 10
258.456
 20
24.4158
 11
258.47
 21
24.3473
  0
LINE
  8
0
 10
258.47
 20
24.3473
 11
258.481
 21
24.2783
  0
LINE
  8
0
 10
258.481
 20
24.2783
 11
258.489
 21
24.209
  0
LINE
  8
0
 10
258.489
 20
24.209
 11
258.495
 21
24.1395
  0
LINE
  8
0
 10
258.495
 20
24.1395
 11
258.499
 21
24.0698
  0
LINE
  8
0
 10
258.499
 20
24.0698
 11
258.5
 21
24
  0
LINE
  8
0
 10
258.5
 20
24
 11
258.499
 21
23.9302
  0
LINE
  8
0
 10
258.499
 20
23.9302
 11
258.495
 21
23.8605
  0
LINE
  8
0
 10
258.495
 20
23.8605
 11
258.489
 21
23.7909
  0
LINE
  8
0
 10
258.489
 20
23.7909
 11
258.481
 21
23.7216
  0
LINE
  8
0
 10
258.481
 20
23.7216
 11
258.47
 21
23.6527
  0
LINE
  8
0
 10
258.47
 20
23.6527
 11
258.456
 21
23.5842
  0
LINE
  8
0
 10
258.456
 20
23.5842
 11
258.441
 21
23.5161
  0
LINE
  8
0
 10
258.441
 20
23.5161
 11
258.423
 21
23.4487
  0
LINE
  8
0
 10
258.423
 20
23.4487
 11
258.402
 21
23.382
  0
LINE
  8
0
 10
258.402
 20
23.382
 11
258.379
 21
23.3159
  0
LINE
  8
0
 10
258.379
 20
23.3159
 11
258.354
 21
23.2508
  0
LINE
  8
0
 10
258.354
 20
23.2508
 11
258.327
 21
23.1865
  0
LINE
  8
0
 10
258.327
 20
23.1865
 11
258.298
 21
23.1232
  0
LINE
  8
0
 10
258.298
 20
23.1232
 11
258.266
 21
23.0611
  0
LINE
  8
0
 10
258.266
 20
23.0611
 11
258.232
 21
23
  0
LINE
  8
0
 10
258.232
 20
23
 11
258.196
 21
22.9402
  0
LINE
  8
0
 10
258.196
 20
22.9402
 11
258.158
 21
22.8816
  0
LINE
  8
0
 10
258.158
 20
22.8816
 11
258.118
 21
22.8244
  0
LINE
  8
0
 10
258.118
 20
22.8244
 11
258.076
 21
22.7687
  0
LINE
  8
0
 10
258.076
 20
22.7687
 11
258.032
 21
22.7144
  0
LINE
  8
0
 10
258.032
 20
22.7144
 11
257.986
 21
22.6617
  0
LINE
  8
0
 10
257.986
 20
22.6617
 11
257.939
 21
22.6107
  0
LINE
  8
0
 10
257.939
 20
22.6107
 11
257.889
 21
22.5613
  0
LINE
  8
0
 10
257.889
 20
22.5613
 11
257.838
 21
22.5137
  0
LINE
  8
0
 10
257.838
 20
22.5137
 11
257.786
 21
22.4679
  0
LINE
  8
0
 10
257.786
 20
22.4679
 11
257.731
 21
22.424
  0
LINE
  8
0
 10
257.731
 20
22.424
 11
257.676
 21
22.382
  0
LINE
  8
0
 10
257.676
 20
22.382
 11
257.618
 21
22.3419
  0
LINE
  8
0
 10
257.618
 20
22.3419
 11
257.56
 21
22.3039
  0
LINE
  8
0
 10
257.56
 20
22.3039
 11
257.5
 21
22.2679
  0
LINE
  8
0
 10
257.5
 20
22.2679
 11
257.439
 21
22.2341
  0
LINE
  8
0
 10
257.439
 20
22.2341
 11
257.377
 21
22.2024
  0
LINE
  8
0
 10
257.377
 20
22.2024
 11
257.313
 21
22.1729
  0
LINE
  8
0
 10
257.313
 20
22.1729
 11
257.249
 21
22.1456
  0
LINE
  8
0
 10
257.249
 20
22.1456
 11
257.184
 21
22.1206
  0
LINE
  8
0
 10
257.184
 20
22.1206
 11
257.118
 21
22.0979
  0
LINE
  8
0
 10
257.118
 20
22.0979
 11
257.051
 21
22.0775
  0
LINE
  8
0
 10
257.051
 20
22.0775
 11
256.984
 21
22.0594
  0
LINE
  8
0
 10
256.984
 20
22.0594
 11
256.916
 21
22.0437
  0
LINE
  8
0
 10
256.916
 20
22.0437
 11
256.847
 21
22.0304
  0
LINE
  8
0
 10
256.847
 20
22.0304
 11
256.778
 21
22.0195
  0
LINE
  8
0
 10
256.778
 20
22.0195
 11
256.709
 21
22.011
  0
LINE
  8
0
 10
256.709
 20
22.011
 11
256.64
 21
22.0049
  0
LINE
  8
0
 10
256.64
 20
22.0049
 11
256.57
 21
22.0012
  0
LINE
  8
0
 10
256.57
 20
22.0012
 11
256.5
 21
22
  0
LINE
  8
0
 10
256.5
 20
22
 11
256.43
 21
22.0012
  0
LINE
  8
0
 10
296.888
 20
10.5282
 11
296.777
 21
10.5399
  0
LINE
  8
0
 10
296.777
 20
10.5399
 11
296.667
 21
10.5593
  0
LINE
  8
0
 10
296.667
 20
10.5593
 11
296.559
 21
10.5863
  0
LINE
  8
0
 10
296.559
 20
10.5863
 11
296.453
 21
10.6208
  0
LINE
  8
0
 10
296.453
 20
10.6208
 11
296.349
 21
10.6627
  0
LINE
  8
0
 10
296.349
 20
10.6627
 11
296.249
 21
10.7116
  0
LINE
  8
0
 10
296.249
 20
10.7116
 11
296.152
 21
10.7675
  0
LINE
  8
0
 10
296.152
 20
10.7675
 11
296.06
 21
10.8299
  0
LINE
  8
0
 10
296.06
 20
10.8299
 11
295.972
 21
10.8987
  0
LINE
  8
0
 10
295.972
 20
10.8987
 11
295.889
 21
10.9734
  0
LINE
  8
0
 10
295.889
 20
10.9734
 11
295.811
 21
11.0537
  0
LINE
  8
0
 10
295.811
 20
11.0537
 11
295.739
 21
11.1393
  0
LINE
  8
0
 10
295.739
 20
11.1393
 11
295.674
 21
11.2296
  0
LINE
  8
0
 10
295.674
 20
11.2296
 11
295.614
 21
11.3243
  0
LINE
  8
0
 10
295.614
 20
11.3243
 11
295.562
 21
11.423
  0
LINE
  8
0
 10
295.562
 20
11.423
 11
295.517
 21
11.525
  0
LINE
  8
0
 10
295.517
 20
11.525
 11
295.478
 21
11.6299
  0
LINE
  8
0
 10
295.478
 20
11.6299
 11
295.448
 21
11.7373
  0
LINE
  8
0
 10
295.448
 20
11.7373
 11
295.424
 21
11.8465
  0
LINE
  8
0
 10
295.424
 20
11.8465
 11
295.409
 21
11.9571
  0
LINE
  8
0
 10
295.409
 20
11.9571
 11
295.401
 21
12.0685
  0
LINE
  8
0
 10
295.401
 20
12.0685
 11
295.401
 21
12.1802
  0
LINE
  8
0
 10
295.401
 20
12.1802
 11
295.409
 21
12.2916
  0
LINE
  8
0
 10
295.409
 20
12.2916
 11
295.424
 21
12.4022
  0
LINE
  8
0
 10
295.424
 20
12.4022
 11
295.448
 21
12.5114
  0
LINE
  8
0
 10
295.448
 20
12.5114
 11
295.478
 21
12.6188
  0
LINE
  8
0
 10
295.478
 20
12.6188
 11
295.517
 21
12.7237
  0
LINE
  8
0
 10
295.517
 20
12.7237
 11
295.562
 21
12.8257
  0
LINE
  8
0
 10
295.562
 20
12.8257
 11
295.614
 21
12.9243
  0
LINE
  8
0
 10
295.614
 20
12.9243
 11
295.674
 21
13.0191
  0
LINE
  8
0
 10
295.674
 20
13.0191
 11
295.739
 21
13.1094
  0
LINE
  8
0
 10
295.739
 20
13.1094
 11
295.811
 21
13.195
  0
LINE
  8
0
 10
295.811
 20
13.195
 11
295.889
 21
13.2753
  0
LINE
  8
0
 10
295.889
 20
13.2753
 11
295.972
 21
13.35
  0
LINE
  8
0
 10
295.972
 20
13.35
 11
296.06
 21
13.4188
  0
LINE
  8
0
 10
296.06
 20
13.4188
 11
296.152
 21
13.4812
  0
LINE
  8
0
 10
296.152
 20
13.4812
 11
296.249
 21
13.5371
  0
LINE
  8
0
 10
296.249
 20
13.5371
 11
296.349
 21
13.586
  0
LINE
  8
0
 10
296.349
 20
13.586
 11
296.453
 21
13.6279
  0
LINE
  8
0
 10
296.453
 20
13.6279
 11
296.559
 21
13.6624
  0
LINE
  8
0
 10
296.559
 20
13.6624
 11
296.667
 21
13.6894
  0
LINE
  8
0
 10
296.667
 20
13.6894
 11
296.777
 21
13.7088
  0
LINE
  8
0
 10
296.777
 20
13.7088
 11
296.888
 21
13.7204
  0
LINE
  8
0
 10
296.888
 20
13.7204
 11
297
 21
13.7243
  0
LINE
  8
0
 10
297
 20
13.7243
 11
297.112
 21
13.7204
  0
LINE
  8
0
 10
297.112
 20
13.7204
 11
297.223
 21
13.7088
  0
LINE
  8
0
 10
297.223
 20
13.7088
 11
297.333
 21
13.6894
  0
LINE
  8
0
 10
297.333
 20
13.6894
 11
297.441
 21
13.6624
  0
LINE
  8
0
 10
297.441
 20
13.6624
 11
297.547
 21
13.6279
  0
LINE
  8
0
 10
297.547
 20
13.6279
 11
297.651
 21
13.586
  0
LINE
  8
0
 10
297.651
 20
13.586
 11
297.751
 21
13.5371
  0
LINE
  8
0
 10
297.751
 20
13.5371
 11
297.848
 21
13.4812
  0
LINE
  8
0
 10
297.848
 20
13.4812
 11
297.94
 21
13.4188
  0
LINE
  8
0
 10
297.94
 20
13.4188
 11
298.028
 21
13.35
  0
LINE
  8
0
 10
298.028
 20
13.35
 11
298.111
 21
13.2753
  0
LINE
  8
0
 10
298.111
 20
13.2753
 11
298.189
 21
13.195
  0
LINE
  8
0
 10
298.189
 20
13.195
 11
298.261
 21
13.1094
  0
LINE
  8
0
 10
298.261
 20
13.1094
 11
298.326
 21
13.0191
  0
LINE
  8
0
 10
298.326
 20
13.0191
 11
298.386
 21
12.9243
  0
LINE
  8
0
 10
298.386
 20
12.9243
 11
298.438
 21
12.8257
  0
LINE
  8
0
 10
298.438
 20
12.8257
 11
298.484
 21
12.7237
  0
LINE
  8
0
 10
298.484
 20
12.7237
 11
298.522
 21
12.6188
  0
LINE
  8
0
 10
298.522
 20
12.6188
 11
298.552
 21
12.5114
  0
LINE
  8
0
 10
298.552
 20
12.5114
 11
298.576
 21
12.4022
  0
LINE
  8
0
 10
298.576
 20
12.4022
 11
298.591
 21
12.2916
  0
LINE
  8
0
 10
298.591
 20
12.2916
 11
298.599
 21
12.1802
  0
LINE
  8
0
 10
298.599
 20
12.1802
 11
298.599
 21
12.0685
  0
LINE
  8
0
 10
298.599
 20
12.0685
 11
298.591
 21
11.9571
  0
LINE
  8
0
 10
298.591
 20
11.9571
 11
298.576
 21
11.8465
  0
LINE
  8
0
 10
298.576
 20
11.8465
 11
298.552
 21
11.7373
  0
LINE
  8
0
 10
298.552
 20
11.7373
 11
298.522
 21
11.6299
  0
LINE
  8
0
 10
298.522
 20
11.6299
 11
298.484
 21
11.525
  0
LINE
  8
0
 10
298.484
 20
11.525
 11
298.438
 21
11.423
  0
LINE
  8
0
 10
298.438
 20
11.423
 11
298.386
 21
11.3243
  0
LINE
  8
0
 10
298.386
 20
11.3243
 11
298.326
 21
11.2296
  0
LINE
  8
0
 10
298.326
 20
11.2296
 11
298.261
 21
11.1393
  0
LINE
  8
0
 10
298.261
 20
11.1393
 11
298.189
 21
11.0537
  0
LINE
  8
0
 10
298.189
 20
11.0537
 11
298.111
 21
10.9734
  0
LINE
  8
0
 10
298.111
 20
10.9734
 11
298.028
 21
10.8987
  0
LINE
  8
0
 10
298.028
 20
10.8987
 11
297.94
 21
10.8299
  0
LINE
  8
0
 10
297.94
 20
10.8299
 11
297.848
 21
10.7675
  0
LINE
  8
0
 10
297.848
 20
10.7675
 11
297.751
 21
10.7116
  0
LINE
  8
0
 10
297.751
 20
10.7116
 11
297.651
 21
10.6627
  0
LINE
  8
0
 10
297.651
 20
10.6627
 11
297.547
 21
10.6208
  0
LINE
  8
0
 10
297.547
 20
10.6208
 11
297.441
 21
10.5863
  0
LINE
  8
0
 10
297.441
 20
10.5863
 11
297.333
 21
10.5593
  0
LINE
  8
0
 10
297.333
 20
10.5593
 11
297.223
 21
10.5399
  0
LINE
  8
0
 10
297.223
 20
10.5399
 11
297.112
 21
10.5282
  0
LINE
  8
0
 10
297.112
 20
10.5282
 11
297
 21
10.5244
  0
LINE
  8
0
 10
297
 20
10.5244
 11
296.888
 21
10.5282
  0
LINE
  8
0
 10
303.791
 20
-5.99634
 11
303.581
 21
-5.98538
  0
LINE
  8
0
 10
303.581
 20
-5.98538
 11
303.373
 21
-5.96712
  0
LINE
  8
0
 10
303.373
 20
-5.96712
 11
303.165
 21
-5.9416
  0
LINE
  8
0
 10
303.165
 20
-5.9416
 11
302.958
 21
-5.90884
  0
LINE
  8
0
 10
302.958
 20
-5.90884
 11
302.753
 21
-5.86888
  0
LINE
  8
0
 10
302.753
 20
-5.86888
 11
302.548
 21
-5.82176
  0
LINE
  8
0
 10
302.548
 20
-5.82176
 11
302.346
 21
-5.76756
  0
LINE
  8
0
 10
302.346
 20
-5.76756
 11
302.146
 21
-5.70633
  0
LINE
  8
0
 10
302.146
 20
-5.70633
 11
301.948
 21
-5.63815
  0
LINE
  8
0
 10
301.948
 20
-5.63815
 11
301.752
 21
-5.5631
  0
LINE
  8
0
 10
301.752
 20
-5.5631
 11
301.56
 21
-5.48126
  0
LINE
  8
0
 10
301.56
 20
-5.48126
 11
301.37
 21
-5.39276
  0
LINE
  8
0
 10
301.37
 20
-5.39276
 11
301.183
 21
-5.29768
  0
LINE
  8
0
 10
301.183
 20
-5.29768
 11
301
 21
-5.19615
  0
LINE
  8
0
 10
301
 20
-5.19615
 11
300.82
 21
-5.08829
  0
LINE
  8
0
 10
300.82
 20
-5.08829
 11
300.645
 21
-4.97421
  0
LINE
  8
0
 10
300.645
 20
-4.97421
 11
300.473
 21
-4.8541
  0
LINE
  8
0
 10
300.473
 20
-4.8541
 11
300.306
 21
-4.72806
  0
LINE
  8
0
 10
300.306
 20
-4.72806
 11
300.143
 21
-4.59625
  0
LINE
  8
0
 10
300.143
 20
-4.59625
 11
299.985
 21
-4.45886
  0
LINE
  8
0
 10
299.985
 20
-4.45886
 11
299.832
 21
-4.31602
  0
LINE
  8
0
 10
299.832
 20
-4.31602
 11
299.684
 21
-4.16794
  0
LINE
  8
0
 10
299.684
 20
-4.16794
 11
299.541
 21
-4.01477
  0
LINE
  8
0
 10
299.541
 20
-4.01477
 11
299.404
 21
-3.85672
  0
LINE
  8
0
 10
299.404
 20
-3.85672
 11
299.272
 21
-3.69395
  0
LINE
  8
0
 10
299.272
 20
-3.69395
 11
299.146
 21
-3.5267
  0
LINE
  8
0
 10
299.146
 20
-3.5267
 11
299.026
 21
-3.35515
  0
LINE
  8
0
 10
299.026
 20
-3.35515
 11
298.912
 21
-3.1795
  0
LINE
  8
0
 10
298.912
 20
-3.1795
 11
298.804
 21
-3
  0
LINE
  8
0
 10
298.804
 20
-3
 11
298.702
 21
-2.81682
  0
LINE
  8
0
 10
298.702
 20
-2.81682
 11
298.607
 21
-2.63022
  0
LINE
  8
0
 10
298.607
 20
-2.63022
 11
298.519
 21
-2.44041
  0
LINE
  8
0
 10
298.519
 20
-2.44041
 11
298.437
 21
-2.24763
  0
LINE
  8
0
 10
298.437
 20
-2.24763
 11
298.362
 21
-2.05211
  0
LINE
  8
0
 10
298.362
 20
-2.05211
 11
298.294
 21
-1.8541
  0
LINE
  8
0
 10
298.294
 20
-1.8541
 11
298.232
 21
-1.65382
  0
LINE
  8
0
 10
298.232
 20
-1.65382
 11
298.178
 21
-1.45152
  0
LINE
  8
0
 10
298.178
 20
-1.45152
 11
298.131
 21
-1.24747
  0
LINE
  8
0
 10
298.131
 20
-1.24747
 11
298.091
 21
-1.04189
  0
LINE
  8
0
 10
298.091
 20
-1.04189
 11
298.058
 21
-0.835037
  0
LINE
  8
0
 10
298.058
 20
-0.835037
 11
298.033
 21
-0.627167
  0
LINE
  8
0
 10
298.033
 20
-0.627167
 11
298.015
 21
-0.418533
  0
LINE
  8
0
 10
298.015
 20
-0.418533
 11
298.004
 21
-0.209396
  0
LINE
  8
0
 10
298.004
 20
-0.209396
 11
298
 21
0
  0
LINE
  8
0
 10
298
 20
0
 11
298.004
 21
0.209396
  0
LINE
  8
0
 10
298.004
 20
0.209396
 11
298.015
 21
0.418533
  0
LINE
  8
0
 10
298.015
 20
0.418533
 11
298.033
 21
0.627167
  0
LINE
  8
0
 10
298.033
 20
0.627167
 11
298.058
 21
0.835037
  0
LINE
  8
0
 10
298.058
 20
0.835037
 11
298.091
 21
1.04189
  0
LINE
  8
0
 10
298.091
 20
1.04189
 11
298.131
 21
1.24747
  0
LINE
  8
0
 10
298.131
 20
1.24747
 11
298.178
 21
1.45152
  0
LINE
  8
0
 10
298.178
 20
1.45152
 11
298.232
 21
1.65382
  0
LINE
  8
0
 10
298.232
 20
1.65382
 11
298.294
 21
1.8541
  0
LINE
  8
0
 10
298.294
 20
1.8541
 11
298.362
 21
2.05211
  0
LINE
  8
0
 10
298.362
 20
2.05211
 11
298.437
 21
2.24763
  0
LINE
  8
0
 10
298.437
 20
2.24763
 11
298.519
 21
2.44041
  0
LINE
  8
0
 10
298.519
 20
2.44041
 11
298.607
 21
2.63022
  0
LINE
  8
0
 10
298.607
 20
2.63022
 11
298.702
 21
2.81682
  0
LINE
  8
0
 10
298.702
 20
2.81682
 11
298.804
 21
2.99998
  0
LINE
  8
0
 10
298.804
 20
2.99998
 11
298.912
 21
3.1795
  0
LINE
  8
0
 10
298.912
 20
3.1795
 11
299.026
 21
3.35515
  0
LINE
  8
0
 10
299.026
 20
3.35515
 11
299.146
 21
3.5267
  0
LINE
  8
0
 10
299.146
 20
3.5267
 11
299.272
 21
3.69395
  0
LINE
  8
0
 10
299.272
 20
3.69395
 11
299.404
 21
3.85672
  0
LINE
  8
0
 10
299.404
 20
3.85672
 11
299.541
 21
4.01477
  0
LINE
  8
0
 10
299.541
 20
4.01477
 11
299.684
 21
4.16794
  0
LINE
  8
0
 10
299.684
 20
4.16794
 11
299.832
 21
4.31602
  0
LINE
  8
0
 10
299.832
 20
4.31602
 11
299.985
 21
4.45886
  0
LINE
  8
0
 10
299.985
 20
4.45886
 11
300.143
 21
4.59625
  0
LINE
  8
0
 10
300.143
 20
4.59625
 11
300.306
 21
4.72806
  0
LINE
  8
0
 10
300.306
 20
4.72806
 11
300.473
 21
4.8541
  0
LINE
  8
0
 10
300.473
 20
4.8541
 11
300.645
 21
4.97421
  0
LINE
  8
0
 10
300.645
 20
4.97421
 11
300.82
 21
5.08829
  0
LINE
  8
0
 10
300.82
 20
5.08829
 11
301
 21
5.19615
  0
LINE
  8
0
 10
301
 20
5.19615
 11
301.183
 21
5.29768
  0
LINE
  8
0
 10
301.183
 20
5.29768
 11
301.37
 21
5.39276
  0
LINE
  8
0
 10
301.37
 20
5.39276
 11
301.56
 21
5.48126
  0
LINE
  8
0
 10
301.56
 20
5.48126
 11
301.752
 21
5.5631
  0
LINE
  8
0
 10
301.752
 20
5.5631
 11
301.948
 21
5.63815
  0
LINE
  8
0
 10
301.948
 20
5.63815
 11
302.146
 21
5.70633
  0
LINE
  8
0
 10
302.146
 20
5.70633
 11
302.346
 21
5.76756
  0
LINE
  8
0
 10
302.346
 20
5.76756
 11
302.548
 21
5.82176
  0
LINE
  8
0
 10
302.548
 20
5.82176
 11
302.753
 21
5.86888
  0
LINE
  8
0
 10
302.753
 20
5.86888
 11
302.958
 21
5.90884
  0
LINE
  8
0
 10
302.958
 20
5.90884
 11
303.165
 21
5.9416
  0
LINE
  8
0
 10
303.165
 20
5.9416
 11
303.373
 21
5.96712
  0
LINE
  8
0
 10
303.373
 20
5.96712
 11
303.581
 21
5.98538
  0
LINE
  8
0
 10
303.581
 20
5.98538
 11
303.791
 21
5.99634
  0
LINE
  8
0
 10
303.791
 20
5.99634
 11
304
 21
6
  0
LINE
  8
0
 10
304
 20
6
 11
304.209
 21
5.99634
  0
LINE
  8
0
 10
304.209
 20
5.99634
 11
304.419
 21
5.98538
  0
LINE
  8
0
 10
304.419
 20
5.98538
 11
304.627
 21
5.96712
  0
LINE
  8
0
 10
304.627
 20
5.96712
 11
304.835
 21
5.9416
  0
LINE
  8
0
 10
304.835
 20
5.9416
 11
305.042
 21
5.90884
  0
LINE
  8
0
 10
305.042
 20
5.90884
 11
305.247
 21
5.86888
  0
LINE
  8
0
 10
305.247
 20
5.86888
 11
305.452
 21
5.82176
  0
LINE
  8
0
 10
305.452
 20
5.82176
 11
305.654
 21
5.76756
  0
LINE
  8
0
 10
305.654
 20
5.76756
 11
305.854
 21
5.70633
  0
LINE
  8
0
 10
305.854
 20
5.70633
 11
306.052
 21
5.63815
  0
LINE
  8
0
 10
306.052
 20
5.63815
 11
306.248
 21
5.5631
  0
LINE
  8
0
 10
306.248
 20
5.5631
 11
306.44
 21
5.48126
  0
LINE
  8
0
 10
306.44
 20
5.48126
 11
306.63
 21
5.39276
  0
LINE
  8
0
 10
306.63
 20
5.39276
 11
306.817
 21
5.29768
  0
LINE
  8
0
 10
306.817
 20
5.29768
 11
307
 21
5.19615
  0
LINE
  8
0
 10
307
 20
5.19615
 11
307.18
 21
5.08829
  0
LINE
  8
0
 10
307.18
 20
5.08829
 11
307.355
 21
4.97421
  0
LINE
  8
0
 10
307.355
 20
4.97421
 11
307.527
 21
4.8541
  0
LINE
  8
0
 10
307.527
 20
4.8541
 11
307.694
 21
4.72806
  0
LINE
  8
0
 10
307.694
 20
4.72806
 11
307.857
 21
4.59625
  0
LINE
  8
0
 10
307.857
 20
4.59625
 11
308.015
 21
4.45886
  0
LINE
  8
0
 10
308.015
 20
4.45886
 11
308.168
 21
4.31602
  0
LINE
  8
0
 10
308.168
 20
4.31602
 11
308.316
 21
4.16794
  0
LINE
  8
0
 10
308.316
 20
4.16794
 11
308.459
 21
4.01477
  0
LINE
  8
0
 10
308.459
 20
4.01477
 11
308.596
 21
3.85672
  0
LINE
  8
0
 10
308.596
 20
3.85672
 11
308.728
 21
3.69395
  0
LINE
  8
0
 10
308.728
 20
3.69395
 11
308.854
 21
3.5267
  0
LINE
  8
0
 10
308.854
 20
3.5267
 11
308.974
 21
3.35515
  0
LINE
  8
0
 10
308.974
 20
3.35515
 11
309.088
 21
3.1795
  0
LINE
  8
0
 10
309.088
 20
3.1795
 11
309.196
 21
2.99998
  0
LINE
  8
0
 10
309.196
 20
2.99998
 11
309.298
 21
2.81682
  0
LINE
  8
0
 10
309.298
 20
2.81682
 11
309.393
 21
2.63022
  0
LINE
  8
0
 10
309.393
 20
2.63022
 11
309.481
 21
2.44041
  0
LINE
  8
0
 10
309.481
 20
2.44041
 11
309.563
 21
2.24763
  0
LINE
  8
0
 10
309.563
 20
2.24763
 11
309.638
 21
2.05211
  0
LINE
  8
0
 10
309.638
 20
2.05211
 11
309.706
 21
1.8541
  0
LINE
  8
0
 10
309.706
 20
1.8541
 11
309.768
 21
1.65382
  0
LINE
  8
0
 10
309.768
 20
1.65382
 11
309.822
 21
1.45152
  0
LINE
  8
0
 10
309.822
 20
1.45152
 11
309.869
 21
1.24747
  0
LINE
  8
0
 10
309.869
 20
1.24747
 11
309.909
 21
1.04189
  0
LINE
  8
0
 10
309.909
 20
1.04189
 11
309.942
 21
0.835037
  0
LINE
  8
0
 10
309.942
 20
0.835037
 11
309.967
 21
0.627167
  0
LINE
  8
0
 10
309.967
 20
0.627167
 11
309.985
 21
0.418533
  0
LINE
  8
0
 10
309.985
 20
0.418533
 11
309.996
 21
0.209396
  0
LINE
  8
0
 10
309.996
 20
0.209396
 11
310
 21
0
  0
LINE
  8
0
 10
310
 20
0
 11
309.996
 21
-0.209396
  0
LINE
  8
0
 10
309.996
 20
-0.209396
 11
309.985
 21
-0.418533
  0
LINE
  8
0
 10
309.985
 20
-0.418533
 11
309.967
 21
-0.627167
  0
LINE
  8
0
 10
309.967
 20
-0.627167
 11
309.942
 21
-0.835037
  0
LINE
  8
0
 10
309.942
 20
-0.835037
 11
309.909
 21
-1.04189
  0
LINE
  8
0
 10
309.909
 20
-1.04189
 11
309.869
 21
-1.24747
  0
LINE
  8
0
 10
309.869
 20
-1.24747
 11
309.822
 21
-1.45152
  0
LINE
  8
0
 10
309.822
 20
-1.45152
 11
309.768
 21
-1.65382
  0
LINE
  8
0
 10
309.768
 20
-1.65382
 11
309.706
 21
-1.8541
  0
LINE
  8
0
 10
309.706
 20
-1.8541
 11
309.638
 21
-2.05211
  0
LINE
  8
0
 10
309.638
 20
-2.05211
 11
309.563
 21
-2.24763
  0
LINE
  8
0
 10
309.563
 20
-2.24763
 11
309.481
 21
-2.44041
  0
LINE
  8
0
 10
309.481
 20
-2.44041
 11
309.393
 21
-2.63022
  0
LINE
  8
0
 10
309.393
 20
-2.63022
 11
309.298
 21
-2.81682
  0
LINE
  8
0
 10
309.298
 20
-2.81682
 11
309.196
 21
-3
  0
LINE
  8
0
 10
309.196
 20
-3
 11
309.088
 21
-3.1795
  0
LINE
  8
0
 10
309.088
 20
-3.1795
 11
308.974
 21
-3.35515
  0
LINE
  8
0
 10
308.974
 20
-3.35515
 11
308.854
 21
-3.5267
  0
LINE
  8
0
 10
308.854
 20
-3.5267
 11
308.728
 21
-3.69395
  0
LINE
  8
0
 10
308.728
 20
-3.69395
 11
308.596
 21
-3.85672
  0
LINE
  8
0
 10
308.596
 20
-3.85672
 11
308.459
 21
-4.01477
  0
LINE
  8
0
 10
308.459
 20
-4.01477
 11
308.316
 21
-4.16794
  0
LINE
  8
0
 10
308.316
 20
-4.16794
 11
308.168
 21
-4.31602
  0
LINE
  8
0
 10
308.168
 20
-4.31602
 11
308.015
 21
-4.45886
  0
LINE
  8
0
 10
308.015
 20
-4.45886
 11
307.857
 21
-4.59625
  0
LINE
  8
0
 10
307.857
 20
-4.59625
 11
307.694
 21
-4.72806
  0
LINE
  8
0
 10
307.694
 20
-4.72806
 11
307.527
 21
-4.8541
  0
LINE
  8
0
 10
307.527
 20
-4.8541
 11
307.355
 21
-4.97421
  0
LINE
  8
0
 10
307.355
 20
-4.97421
 11
307.18
 21
-5.08829
  0
LINE
  8
0
 10
307.18
 20
-5.08829
 11
307
 21
-5.19615
  0
LINE
  8
0
 10
307
 20
-5.19615
 11
306.817
 21
-5.29768
  0
LINE
  8
0
 10
306.817
 20
-5.29768
 11
306.63
 21
-5.39276
  0
LINE
  8
0
 10
306.63
 20
-5.39276
 11
306.44
 21
-5.48126
  0
LINE
  8
0
 10
306.44
 20
-5.48126
 11
306.248
 21
-5.5631
  0
LINE
  8
0
 10
306.248
 20
-5.5631
 11
306.052
 21
-5.63815
  0
LINE
  8
0
 10
306.052
 20
-5.63815
 11
305.854
 21
-5.70633
  0
LINE
  8
0
 10
305.854
 20
-5.70633
 11
305.654
 21
-5.76756
  0
LINE
  8
0
 10
305.654
 20
-5.76756
 11
305.452
 21
-5.82176
  0
LINE
  8
0
 10
305.452
 20
-5.82176
 11
305.247
 21
-5.86888
  0
LINE
  8
0
 10
305.247
 20
-5.86888
 11
305.042
 21
-5.90884
  0
LINE
  8
0
 10
305.042
 20
-5.90884
 11
304.835
 21
-5.9416
  0
LINE
  8
0
 10
304.835
 20
-5.9416
 11
304.627
 21
-5.96712
  0
LINE
  8
0
 10
304.627
 20
-5.96712
 11
304.419
 21
-5.98538
  0
LINE
  8
0
 10
304.419
 20
-5.98538
 11
304.209
 21
-5.99634
  0
LINE
  8
0
 10
304.209
 20
-5.99634
 11
304
 21
-6
  0
LINE
  8
0
 10
304
 20
-6
 11
303.791
 21
-5.99634
  0
LINE
  8
0
 10
-0.137146
 20
-3.9276
 11
-0.274139
 21
-3.92043
  0
LINE
  8
0
 10
-0.274139
 20
-3.92043
 11
-0.410782
 21
-3.90846
  0
LINE
  8
0
 10
-0.410782
 20
-3.90846
 11
-0.546936
 21
-3.89174
  0
LINE
  8
0
 10
-0.546936
 20
-3.89174
 11
-0.682434
 21
-3.87029
  0
LINE
  8
0
 10
-0.682434
 20
-3.87029
 11
-0.817093
 21
-3.84412
  0
LINE
  8
0
 10
-0.817093
 20
-3.84412
 11
-0.950745
 21
-3.81325
  0
LINE
  8
0
 10
-0.950745
 20
-3.81325
 11
-1.08325
 21
-3.77776
  0
LINE
  8
0
 10
-1.08325
 20
-3.77776
 11
-1.21443
 21
-3.73764
  0
LINE
  8
0
 10
-1.21443
 20
-3.73764
 11
-1.34413
 21
-3.69298
  0
LINE
  8
0
 10
-1.34413
 20
-3.69298
 11
-1.4722
 21
-3.64383
  0
LINE
  8
0
 10
-1.4722
 20
-3.64383
 11
-1.59846
 21
-3.59023
  0
LINE
  8
0
 10
-1.59846
 20
-3.59023
 11
-1.72279
 21
-3.53226
  0
LINE
  8
0
 10
-1.72279
 20
-3.53226
 11
-1.84502
 21
-3.46997
  0
LINE
  8
0
 10
-1.84502
 20
-3.46997
 11
-1.965
 21
-3.40347
  0
LINE
  8
0
 10
-1.965
 20
-3.40347
 11
-2.08258
 21
-3.33282
  0
LINE
  8
0
 10
-2.08258
 20
-3.33282
 11
-2.19762
 21
-3.2581
  0
LINE
  8
0
 10
-2.19762
 20
-3.2581
 11
-2.30998
 21
-3.17943
  0
LINE
  8
0
 10
-2.30998
 20
-3.17943
 11
-2.41954
 21
-3.09688
  0
LINE
  8
0
 10
-2.41954
 20
-3.09688
 11
-2.52615
 21
-3.01054
  0
LINE
  8
0
 10
-2.52615
 20
-3.01054
 11
-2.62967
 21
-2.92055
  0
LINE
  8
0
 10
-2.62967
 20
-2.92055
 11
-2.73
 21
-2.827
  0
LINE
  8
0
 10
-2.73
 20
-2.827
 11
-2.827
 21
-2.73
  0
LINE
  8
0
 10
-2.827
 20
-2.73
 11
-2.92055
 21
-2.62967
  0
LINE
  8
0
 10
-2.92055
 20
-2.62967
 11
-3.01054
 21
-2.52615
  0
LINE
  8
0
 10
-3.01054
 20
-2.52615
 11
-3.09688
 21
-2.41954
  0
LINE
  8
0
 10
-3.09688
 20
-2.41954
 11
-3.17943
 21
-2.30998
  0
LINE
  8
0
 10
-3.17943
 20
-2.30998
 11
-3.2581
 21
-2.19762
  0
LINE
  8
0
 10
-3.2581
 20
-2.19762
 11
-3.33282
 21
-2.08258
  0
LINE
  8
0
 10
-3.33282
 20
-2.08258
 11
-3.40347
 21
-1.965
  0
LINE
  8
0
 10
-3.40347
 20
-1.965
 11
-3.46997
 21
-1.84502
  0
LINE
  8
0
 10
-3.46997
 20
-1.84502
 11
-3.53226
 21
-1.72279
  0
LINE
  8
0
 10
-3.53226
 20
-1.72279
 11
-3.59023
 21
-1.59846
  0
LINE
  8
0
 10
-3.59023
 20
-1.59846
 11
-3.64383
 21
-1.4722
  0
LINE
  8
0
 10
-3.64383
 20
-1.4722
 11
-3.69298
 21
-1.34413
  0
LINE
  8
0
 10
-3.69298
 20
-1.34413
 11
-3.73764
 21
-1.21443
  0
LINE
  8
0
 10
-3.73764
 20
-1.21443
 11
-3.77776
 21
-1.08325
  0
LINE
  8
0
 10
-3.77776
 20
-1.08325
 11
-3.81325
 21
-0.950745
  0
LINE
  8
0
 10
-3.81325
 20
-0.950745
 11
-3.84412
 21
-0.817093
  0
LINE
  8
0
 10
-3.84412
 20
-0.817093
 11
-3.87029
 21
-0.682434
  0
LINE
  8
0
 10
-3.87029
 20
-0.682434
 11
-3.89174
 21
-0.546936
  0
LINE
  8
0
 10
-3.89174
 20
-0.546936
 11
-3.90846
 21
-0.410782
  0
LINE
  8
0
 10
-3.90846
 20
-0.410782
 11
-3.92043
 21
-0.274139
  0
LINE
  8
0
 10
-3.92043
 20
-0.274139
 11
-3.9276
 21
-0.137146
  0
LINE
  8
0
 10
-3.9276
 20
-0.137146
 11
-3.92999
 21
0
  0
LINE
  8
0
 10
-3.92999
 20
0
 11
-3.9276
 21
0.137146
  0
LINE
  8
0
 10
-3.9276
 20
0.137146
 11
-3.92043
 21
0.274139
  0
LINE
  8
0
 10
-3.92043
 20
0.274139
 11
-3.90846
 21
0.410782
  0
LINE
  8
0
 10
-3.90846
 20
0.410782
 11
-3.89174
 21
0.546936
  0
LINE
  8
0
 10
-3.89174
 20
0.546936
 11
-3.87029
 21
0.682434
  0
LINE
  8
0
 10
-3.87029
 20
0.682434
 11
-3.84412
 21
0.817093
  0
LINE
  8
0
 10
-3.84412
 20
0.817093
 11
-3.81325
 21
0.950745
  0
LINE
  8
0
 10
-3.81325
 20
0.950745
 11
-3.77776
 21
1.08325
  0
LINE
  8
0
 10
-3.77776
 20
1.08325
 11
-3.73764
 21
1.21443
  0
LINE
  8
0
 10
-3.73764
 20
1.21443
 11
-3.69298
 21
1.34413
  0
LINE
  8
0
 10
-3.69298
 20
1.34413
 11
-3.64383
 21
1.4722
  0
LINE
  8
0
 10
-3.64383
 20
1.4722
 11
-3.59023
 21
1.59846
  0
LINE
  8
0
 10
-3.59023
 20
1.59846
 11
-3.53226
 21
1.72279
  0
LINE
  8
0
 10
-3.53226
 20
1.72279
 11
-3.46997
 21
1.84502
  0
LINE
  8
0
 10
-3.46997
 20
1.84502
 11
-3.40347
 21
1.965
  0
LINE
  8
0
 10
-3.40347
 20
1.965
 11
-3.33282
 21
2.08258
  0
LINE
  8
0
 10
-3.33282
 20
2.08258
 11
-3.2581
 21
2.19762
  0
LINE
  8
0
 10
-3.2581
 20
2.19762
 11
-3.17943
 21
2.30998
  0
LINE
  8
0
 10
-3.17943
 20
2.30998
 11
-3.09688
 21
2.41954
  0
LINE
  8
0
 10
-3.09688
 20
2.41954
 11
-3.01054
 21
2.52615
  0
LINE
  8
0
 10
-3.01054
 20
2.52615
 11
-2.92055
 21
2.62967
  0
LINE
  8
0
 10
-2.92055
 20
2.62967
 11
-2.827
 21
2.73
  0
LINE
  8
0
 10
-2.827
 20
2.73
 11
-2.73
 21
2.827
  0
LINE
  8
0
 10
-2.73
 20
2.827
 11
-2.62967
 21
2.92055
  0
LINE
  8
0
 10
-2.62967
 20
2.92055
 11
-2.52615
 21
3.01054
  0
LINE
  8
0
 10
-2.52615
 20
3.01054
 11
-2.41954
 21
3.09688
  0
LINE
  8
0
 10
-2.41954
 20
3.09688
 11
-2.30998
 21
3.17943
  0
LINE
  8
0
 10
-2.30998
 20
3.17943
 11
-2.19762
 21
3.2581
  0
LINE
  8
0
 10
-2.19762
 20
3.2581
 11
-2.08258
 21
3.33282
  0
LINE
  8
0
 10
-2.08258
 20
3.33282
 11
-1.965
 21
3.40347
  0
LINE
  8
0
 10
-1.965
 20
3.40347
 11
-1.84502
 21
3.46997
  0
LINE
  8
0
 10
-1.84502
 20
3.46997
 11
-1.72279
 21
3.53226
  0
LINE
  8
0
 10
-1.72279
 20
3.53226
 11
-1.59846
 21
3.59023
  0
LINE
  8
0
 10
-1.59846
 20
3.59023
 11
-1.4722
 21
3.64383
  0
LINE
  8
0
 10
-1.4722
 20
3.64383
 11
-1.34413
 21
3.69298
  0
LINE
  8
0
 10
-1.34413
 20
3.69298
 11
-1.21443
 21
3.73764
  0
LINE
  8
0
 10
-1.21443
 20
3.73764
 11
-1.08325
 21
3.77776
  0
LINE
  8
0
 10
-1.08325
 20
3.77776
 11
-0.950745
 21
3.81325
  0
LINE
  8
0
 10
-0.950745
 20
3.81325
 11
-0.817093
 21
3.84412
  0
LINE
  8
0
 10
-0.817093
 20
3.84412
 11
-0.682434
 21
3.87029
  0
LINE
  8
0
 10
-0.682434
 20
3.87029
 11
-0.546936
 21
3.89174
  0
LINE
  8
0
 10
-0.546936
 20
3.89174
 11
-0.410782
 21
3.90846
  0
LINE
  8
0
 10
-0.410782
 20
3.90846
 11
-0.274139
 21
3.92043
  0
LINE
  8
0
 10
-0.274139
 20
3.92043
 11
-0.137146
 21
3.9276
  0
LINE
  8
0
 10
-0.137146
 20
3.9276
 11
0
 21
3.92999
  0
LINE
  8
0
 10
0
 20
3.92999
 11
0.137146
 21
3.9276
  0
LINE
  8
0
 10
0.137146
 20
3.9276
 11
0.274139
 21
3.92043
  0
LINE
  8
0
 10
0.274139
 20
3.92043
 11
0.410782
 21
3.90846
  0
LINE
  8
0
 10
0.410782
 20
3.90846
 11
0.546936
 21
3.89174
  0
LINE
  8
0
 10
0.546936
 20
3.89174
 11
0.682434
 21
3.87029
  0
LINE
  8
0
 10
0.682434
 20
3.87029
 11
0.817093
 21
3.84412
  0
LINE
  8
0
 10
0.817093
 20
3.84412
 11
0.950745
 21
3.81325
  0
LINE
  8
0
 10
0.950745
 20
3.81325
 11
1.08325
 21
3.77776
  0
LINE
  8
0
 10
1.08325
 20
3.77776
 11
1.21443
 21
3.73764
  0
LINE
  8
0
 10
1.21443
 20
3.73764
 11
1.34413
 21
3.69298
  0
LINE
  8
0
 10
1.34413
 20
3.69298
 11
1.4722
 21
3.64383
  0
LINE
  8
0
 10
1.4722
 20
3.64383
 11
1.59846
 21
3.59023
  0
LINE
  8
0
 10
1.59846
 20
3.59023
 11
1.72279
 21
3.53226
  0
LINE
  8
0
 10
1.72279
 20
3.53226
 11
1.84502
 21
3.46997
  0
LINE
  8
0
 10
1.84502
 20
3.46997
 11
1.965
 21
3.40347
  0
LINE
  8
0
 10
1.965
 20
3.40347
 11
2.08258
 21
3.33282
  0
LINE
  8
0
 10
2.08258
 20
3.33282
 11
2.19762
 21
3.2581
  0
LINE
  8
0
 10
2.19762
 20
3.2581
 11
2.30998
 21
3.17943
  0
LINE
  8
0
 10
2.30998
 20
3.17943
 11
2.41954
 21
3.09688
  0
LINE
  8
0
 10
2.41954
 20
3.09688
 11
2.52615
 21
3.01054
  0
LINE
  8
0
 10
2.52615
 20
3.01054
 11
2.62967
 21
2.92055
  0
LINE
  8
0
 10
2.62967
 20
2.92055
 11
2.73
 21
2.827
  0
LINE
  8
0
 10
2.73
 20
2.827
 11
2.827
 21
2.73
  0
LINE
  8
0
 10
2.827
 20
2.73
 11
2.92055
 21
2.62967
  0
LINE
  8
0
 10
2.92055
 20
2.62967
 11
3.01054
 21
2.52615
  0
LINE
  8
0
 10
3.01054
 20
2.52615
 11
3.09688
 21
2.41954
  0
LINE
  8
0
 10
3.09688
 20
2.41954
 11
3.17943
 21
2.30998
  0
LINE
  8
0
 10
3.17943
 20
2.30998
 11
3.2581
 21
2.19762
  0
LINE
  8
0
 10
3.2581
 20
2.19762
 11
3.33282
 21
2.08258
  0
LINE
  8
0
 10
3.33282
 20
2.08258
 11
3.40347
 21
1.965
  0
LINE
  8
0
 10
3.40347
 20
1.965
 11
3.46997
 21
1.84502
  0
LINE
  8
0
 10
3.46997
 20
1.84502
 11
3.53226
 21
1.72279
  0
LINE
  8
0
 10
3.53226
 20
1.72279
 11
3.59023
 21
1.59846
  0
LINE
  8
0
 10
3.59023
 20
1.59846
 11
3.64383
 21
1.4722
  0
LINE
  8
0
 10
3.64383
 20
1.4722
 11
3.69298
 21
1.34413
  0
LINE
  8
0
 10
3.69298
 20
1.34413
 11
3.73764
 21
1.21443
  0
LINE
  8
0
 10
3.73764
 20
1.21443
 11
3.77776
 21
1.08325
  0
LINE
  8
0
 10
3.77776
 20
1.08325
 11
3.81325
 21
0.950745
  0
LINE
  8
0
 10
3.81325
 20
0.950745
 11
3.84412
 21
0.817093
  0
LINE
  8
0
 10
3.84412
 20
0.817093
 11
3.87029
 21
0.682434
  0
LINE
  8
0
 10
3.87029
 20
0.682434
 11
3.89174
 21
0.546936
  0
LINE
  8
0
 10
3.89174
 20
0.546936
 11
3.90846
 21
0.410782
  0
LINE
  8
0
 10
3.90846
 20
0.410782
 11
3.92043
 21
0.274139
  0
LINE
  8
0
 10
3.92043
 20
0.274139
 11
3.9276
 21
0.137146
  0
LINE
  8
0
 10
3.9276
 20
0.137146
 11
3.92999
 21
0
  0
LINE
  8
0
 10
3.92999
 20
0
 11
3.9276
 21
-0.137146
  0
LINE
  8
0
 10
3.9276
 20
-0.137146
 11
3.92043
 21
-0.274139
  0
LINE
  8
0
 10
3.92043
 20
-0.274139
 11
3.90846
 21
-0.410782
  0
LINE
  8
0
 10
3.90846
 20
-0.410782
 11
3.89174
 21
-0.546936
  0
LINE
  8
0
 10
3.89174
 20
-0.546936
 11
3.87029
 21
-0.682434
  0
LINE
  8
0
 10
3.87029
 20
-0.682434
 11
3.84412
 21
-0.817093
  0
LINE
  8
0
 10
3.84412
 20
-0.817093
 11
3.81325
 21
-0.950745
  0
LINE
  8
0
 10
3.81325
 20
-0.950745
 11
3.77776
 21
-1.08325
  0
LINE
  8
0
 10
3.77776
 20
-1.08325
 11
3.73764
 21
-1.21443
  0
LINE
  8
0
 10
3.73764
 20
-1.21443
 11
3.69298
 21
-1.34413
  0
LINE
  8
0
 10
3.69298
 20
-1.34413
 11
3.64383
 21
-1.4722
  0
LINE
  8
0
 10
3.64383
 20
-1.4722
 11
3.59023
 21
-1.59846
  0
LINE
  8
0
 10
3.59023
 20
-1.59846
 11
3.53226
 21
-1.72279
  0
LINE
  8
0
 10
3.53226
 20
-1.72279
 11
3.46997
 21
-1.84502
  0
LINE
  8
0
 10
3.46997
 20
-1.84502
 11
3.40347
 21
-1.965
  0
LINE
  8
0
 10
3.40347
 20
-1.965
 11
3.33282
 21
-2.08258
  0
LINE
  8
0
 10
3.33282
 20
-2.08258
 11
3.2581
 21
-2.19762
  0
LINE
  8
0
 10
3.2581
 20
-2.19762
 11
3.17943
 21
-2.30998
  0
LINE
  8
0
 10
3.17943
 20
-2.30998
 11
3.09688
 21
-2.41954
  0
LINE
  8
0
 10
3.09688
 20
-2.41954
 11
3.01054
 21
-2.52615
  0
LINE
  8
0
 10
3.01054
 20
-2.52615
 11
2.92055
 21
-2.62967
  0
LINE
  8
0
 10
2.92055
 20
-2.62967
 11
2.827
 21
-2.73
  0
LINE
  8
0
 10
2.827
 20
-2.73
 11
2.73
 21
-2.827
  0
LINE
  8
0
 10
2.73
 20
-2.827
 11
2.62967
 21
-2.92055
  0
LINE
  8
0
 10
2.62967
 20
-2.92055
 11
2.52615
 21
-3.01054
  0
LINE
  8
0
 10
2.52615
 20
-3.01054
 11
2.41954
 21
-3.09688
  0
LINE
  8
0
 10
2.41954
 20
-3.09688
 11
2.30998
 21
-3.17943
  0
LINE
  8
0
 10
2.30998
 20
-3.17943
 11
2.19762
 21
-3.2581
  0
LINE
  8
0
 10
2.19762
 20
-3.2581
 11
2.08258
 21
-3.33282
  0
LINE
  8
0
 10
2.08258
 20
-3.33282
 11
1.965
 21
-3.40347
  0
LINE
  8
0
 10
1.965
 20
-3.40347
 11
1.84502
 21
-3.46997
  0
LINE
  8
0
 10
1.84502
 20
-3.46997
 11
1.72279
 21
-3.53226
  0
LINE
  8
0
 10
1.72279
 20
-3.53226
 11
1.59846
 21
-3.59023
  0
LINE
  8
0
 10
1.59846
 20
-3.59023
 11
1.4722
 21
-3.64383
  0
LINE
  8
0
 10
1.4722
 20
-3.64383
 11
1.34413
 21
-3.69298
  0
LINE
  8
0
 10
1.34413
 20
-3.69298
 11
1.21443
 21
-3.73764
  0
LINE
  8
0
 10
1.21443
 20
-3.73764
 11
1.08325
 21
-3.77776
  0
LINE
  8
0
 10
1.08325
 20
-3.77776
 11
0.950745
 21
-3.81325
  0
LINE
  8
0
 10
0.950745
 20
-3.81325
 11
0.817093
 21
-3.84412
  0
LINE
  8
0
 10
0.817093
 20
-3.84412
 11
0.682434
 21
-3.87029
  0
LINE
  8
0
 10
0.682434
 20
-3.87029
 11
0.546936
 21
-3.89174
  0
LINE
  8
0
 10
0.546936
 20
-3.89174
 11
0.410782
 21
-3.90846
  0
LINE
  8
0
 10
0.410782
 20
-3.90846
 11
0.274139
 21
-3.92043
  0
LINE
  8
0
 10
0.274139
 20
-3.92043
 11
0.137146
 21
-3.9276
  0
LINE
  8
0
 10
0.137146
 20
-3.9276
 11
0
 21
-3.92999
  0
LINE
  8
0
 10
0
 20
-3.92999
 11
-0.137146
 21
-3.9276
  0
LINE
  8
0
 10
94.8628
 20
-3.9276
 11
94.7258
 21
-3.92043
  0
LINE
  8
0
 10
94.7258
 20
-3.92043
 11
94.5892
 21
-3.90846
  0
LINE
  8
0
 10
94.5892
 20
-3.90846
 11
94.453
 21
-3.89174
  0
LINE
  8
0
 10
94.453
 20
-3.89174
 11
94.3176
 21
-3.87029
  0
LINE
  8
0
 10
94.3176
 20
-3.87029
 11
94.1829
 21
-3.84412
  0
LINE
  8
0
 10
94.1829
 20
-3.84412
 11
94.0492
 21
-3.81325
  0
LINE
  8
0
 10
94.0492
 20
-3.81325
 11
93.9167
 21
-3.77776
  0
LINE
  8
0
 10
93.9167
 20
-3.77776
 11
93.7856
 21
-3.73764
  0
LINE
  8
0
 10
93.7856
 20
-3.73764
 11
93.6559
 21
-3.69298
  0
LINE
  8
0
 10
93.6559
 20
-3.69298
 11
93.5278
 21
-3.64383
  0
LINE
  8
0
 10
93.5278
 20
-3.64383
 11
93.4015
 21
-3.59023
  0
LINE
  8
0
 10
93.4015
 20
-3.59023
 11
93.2772
 21
-3.53226
  0
LINE
  8
0
 10
93.2772
 20
-3.53226
 11
93.155
 21
-3.46997
  0
LINE
  8
0
 10
93.155
 20
-3.46997
 11
93.035
 21
-3.40347
  0
LINE
  8
0
 10
93.035
 20
-3.40347
 11
92.9174
 21
-3.33282
  0
LINE
  8
0
 10
92.9174
 20
-3.33282
 11
92.8024
 21
-3.2581
  0
LINE
  8
0
 10
92.8024
 20
-3.2581
 11
92.69
 21
-3.17943
  0
LINE
  8
0
 10
92.69
 20
-3.17943
 11
92.5804
 21
-3.09688
  0
LINE
  8
0
 10
92.5804
 20
-3.09688
 11
92.4738
 21
-3.01054
  0
LINE
  8
0
 10
92.4738
 20
-3.01054
 11
92.3703
 21
-2.92055
  0
LINE
  8
0
 10
92.3703
 20
-2.92055
 11
92.27
 21
-2.827
  0
LINE
  8
0
 10
92.27
 20
-2.827
 11
92.173
 21
-2.73
  0
LINE
  8
0
 10
92.173
 20
-2.73
 11
92.0794
 21
-2.62967
  0
LINE
  8
0
 10
92.0794
 20
-2.62967
 11
91.9894
 21
-2.52615
  0
LINE
  8
0
 10
91.9894
 20
-2.52615
 11
91.9031
 21
-2.41954
  0
LINE
  8
0
 10
91.9031
 20
-2.41954
 11
91.8206
 21
-2.30998
  0
LINE
  8
0
 10
91.8206
 20
-2.30998
 11
91.7419
 21
-2.19762
  0
LINE
  8
0
 10
91.7419
 20
-2.19762
 11
91.6672
 21
-2.08258
  0
LINE
  8
0
 10
91.6672
 20
-2.08258
 11
91.5965
 21
-1.965
  0
LINE
  8
0
 10
91.5965
 20
-1.965
 11
91.53
 21
-1.84502
  0
LINE
  8
0
 10
91.53
 20
-1.84502
 11
91.4677
 21
-1.72279
  0
LINE
  8
0
 10
91.4677
 20
-1.72279
 11
91.4098
 21
-1.59846
  0
LINE
  8
0
 10
91.4098
 20
-1.59846
 11
91.3562
 21
-1.4722
  0
LINE
  8
0
 10
91.3562
 20
-1.4722
 11
91.307
 21
-1.34413
  0
LINE
  8
0
 10
91.307
 20
-1.34413
 11
91.2623
 21
-1.21443
  0
LINE
  8
0
 10
91.2623
 20
-1.21443
 11
91.2222
 21
-1.08325
  0
LINE
  8
0
 10
91.2222
 20
-1.08325
 11
91.1867
 21
-0.950745
  0
LINE
  8
0
 10
91.1867
 20
-0.950745
 11
91.1559
 21
-0.817093
  0
LINE
  8
0
 10
91.1559
 20
-0.817093
 11
91.1297
 21
-0.682434
  0
LINE
  8
0
 10
91.1297
 20
-0.682434
 11
91.1082
 21
-0.546936
  0
LINE
  8
0
 10
91.1082
 20
-0.546936
 11
91.0915
 21
-0.410782
  0
LINE
  8
0
 10
91.0915
 20
-0.410782
 11
91.0796
 21
-0.274139
  0
LINE
  8
0
 10
91.0796
 20
-0.274139
 11
91.0724
 21
-0.137146
  0
LINE
  8
0
 10
91.0724
 20
-0.137146
 11
91.07
 21
0
  0
LINE
  8
0
 10
91.07
 20
0
 11
91.0724
 21
0.137146
  0
LINE
  8
0
 10
91.0724
 20
0.137146
 11
91.0796
 21
0.274139
  0
LINE
  8
0
 10
91.0796
 20
0.274139
 11
91.0915
 21
0.410782
  0
LINE
  8
0
 10
91.0915
 20
0.410782
 11
91.1082
 21
0.546936
  0
LINE
  8
0
 10
91.1082
 20
0.546936
 11
91.1297
 21
0.682434
  0
LINE
  8
0
 10
91.1297
 20
0.682434
 11
91.1559
 21
0.817093
  0
LINE
  8
0
 10
91.1559
 20
0.817093
 11
91.1867
 21
0.950745
  0
LINE
  8
0
 10
91.1867
 20
0.950745
 11
91.2222
 21
1.08325
  0
LINE
  8
0
 10
91.2222
 20
1.08325
 11
91.2623
 21
1.21443
  0
LINE
  8
0
 10
91.2623
 20
1.21443
 11
91.307
 21
1.34413
  0
LINE
  8
0
 10
91.307
 20
1.34413
 11
91.3562
 21
1.4722
  0
LINE
  8
0
 10
91.3562
 20
1.4722
 11
91.4098
 21
1.59846
  0
LINE
  8
0
 10
91.4098
 20
1.59846
 11
91.4677
 21
1.72279
  0
LINE
  8
0
 10
91.4677
 20
1.72279
 11
91.53
 21
1.84502
  0
LINE
  8
0
 10
91.53
 20
1.84502
 11
91.5965
 21
1.965
  0
LINE
  8
0
 10
91.5965
 20
1.965
 11
91.6672
 21
2.08258
  0
LINE
  8
0
 10
91.6672
 20
2.08258
 11
91.7419
 21
2.19762
  0
LINE
  8
0
 10
91.7419
 20
2.19762
 11
91.8206
 21
2.30998
  0
LINE
  8
0
 10
91.8206
 20
2.30998
 11
91.9031
 21
2.41954
  0
LINE
  8
0
 10
91.9031
 20
2.41954
 11
91.9894
 21
2.52615
  0
LINE
  8
0
 10
91.9894
 20
2.52615
 11
92.0794
 21
2.62967
  0
LINE
  8
0
 10
92.0794
 20
2.62967
 11
92.173
 21
2.73
  0
LINE
  8
0
 10
92.173
 20
2.73
 11
92.27
 21
2.827
  0
LINE
  8
0
 10
92.27
 20
2.827
 11
92.3703
 21
2.92055
  0
LINE
  8
0
 10
92.3703
 20
2.92055
 11
92.4738
 21
3.01054
  0
LINE
  8
0
 10
92.4738
 20
3.01054
 11
92.5804
 21
3.09688
  0
LINE
  8
0
 10
92.5804
 20
3.09688
 11
92.69
 21
3.17943
  0
LINE
  8
0
 10
92.69
 20
3.17943
 11
92.8024
 21
3.2581
  0
LINE
  8
0
 10
92.8024
 20
3.2581
 11
92.9174
 21
3.33282
  0
LINE
  8
0
 10
92.9174
 20
3.33282
 11
93.035
 21
3.40347
  0
LINE
  8
0
 10
93.035
 20
3.40347
 11
93.155
 21
3.46997
  0
LINE
  8
0
 10
93.155
 20
3.46997
 11
93.2772
 21
3.53226
  0
LINE
  8
0
 10
93.2772
 20
3.53226
 11
93.4015
 21
3.59023
  0
LINE
  8
0
 10
93.4015
 20
3.59023
 11
93.5278
 21
3.64383
  0
LINE
  8
0
 10
93.5278
 20
3.64383
 11
93.6559
 21
3.69298
  0
LINE
  8
0
 10
93.6559
 20
3.69298
 11
93.7856
 21
3.73764
  0
LINE
  8
0
 10
93.7856
 20
3.73764
 11
93.9167
 21
3.77776
  0
LINE
  8
0
 10
93.9167
 20
3.77776
 11
94.0492
 21
3.81325
  0
LINE
  8
0
 10
94.0492
 20
3.81325
 11
94.1829
 21
3.84412
  0
LINE
  8
0
 10
94.1829
 20
3.84412
 11
94.3176
 21
3.87029
  0
LINE
  8
0
 10
94.3176
 20
3.87029
 11
94.453
 21
3.89174
  0
LINE
  8
0
 10
94.453
 20
3.89174
 11
94.5892
 21
3.90846
  0
LINE
  8
0
 10
94.5892
 20
3.90846
 11
94.7258
 21
3.92043
  0
LINE
  8
0
 10
94.7258
 20
3.92043
 11
94.8628
 21
3.9276
  0
LINE
  8
0
 10
94.8628
 20
3.9276
 11
95
 21
3.92999
  0
LINE
  8
0
 10
95
 20
3.92999
 11
95.1371
 21
3.9276
  0
LINE
  8
0
 10
95.1371
 20
3.9276
 11
95.2741
 21
3.92043
  0
LINE
  8
0
 10
95.2741
 20
3.92043
 11
95.4108
 21
3.90846
  0
LINE
  8
0
 10
95.4108
 20
3.90846
 11
95.5469
 21
3.89174
  0
LINE
  8
0
 10
95.5469
 20
3.89174
 11
95.6824
 21
3.87029
  0
LINE
  8
0
 10
95.6824
 20
3.87029
 11
95.8171
 21
3.84412
  0
LINE
  8
0
 10
95.8171
 20
3.84412
 11
95.9507
 21
3.81325
  0
LINE
  8
0
 10
95.9507
 20
3.81325
 11
96.0833
 21
3.77776
  0
LINE
  8
0
 10
96.0833
 20
3.77776
 11
96.2144
 21
3.73764
  0
LINE
  8
0
 10
96.2144
 20
3.73764
 11
96.3441
 21
3.69298
  0
LINE
  8
0
 10
96.3441
 20
3.69298
 11
96.4722
 21
3.64383
  0
LINE
  8
0
 10
96.4722
 20
3.64383
 11
96.5985
 21
3.59023
  0
LINE
  8
0
 10
96.5985
 20
3.59023
 11
96.7228
 21
3.53226
  0
LINE
  8
0
 10
96.7228
 20
3.53226
 11
96.845
 21
3.46997
  0
LINE
  8
0
 10
96.845
 20
3.46997
 11
96.965
 21
3.40347
  0
LINE
  8
0
 10
96.965
 20
3.40347
 11
97.0826
 21
3.33282
  0
LINE
  8
0
 10
97.0826
 20
3.33282
 11
97.1976
 21
3.2581
  0
LINE
  8
0
 10
97.1976
 20
3.2581
 11
97.31
 21
3.17943
  0
LINE
  8
0
 10
97.31
 20
3.17943
 11
97.4195
 21
3.09688
  0
LINE
  8
0
 10
97.4195
 20
3.09688
 11
97.5262
 21
3.01054
  0
LINE
  8
0
 10
97.5262
 20
3.01054
 11
97.6297
 21
2.92055
  0
LINE
  8
0
 10
97.6297
 20
2.92055
 11
97.73
 21
2.827
  0
LINE
  8
0
 10
97.73
 20
2.827
 11
97.827
 21
2.73
  0
LINE
  8
0
 10
97.827
 20
2.73
 11
97.9205
 21
2.62967
  0
LINE
  8
0
 10
97.9205
 20
2.62967
 11
98.0105
 21
2.52615
  0
LINE
  8
0
 10
98.0105
 20
2.52615
 11
98.0969
 21
2.41954
  0
LINE
  8
0
 10
98.0969
 20
2.41954
 11
98.1794
 21
2.30998
  0
LINE
  8
0
 10
98.1794
 20
2.30998
 11
98.2581
 21
2.19762
  0
LINE
  8
0
 10
98.2581
 20
2.19762
 11
98.3328
 21
2.08258
  0
LINE
  8
0
 10
98.3328
 20
2.08258
 11
98.4035
 21
1.965
  0
LINE
  8
0
 10
98.4035
 20
1.965
 11
98.47
 21
1.84502
  0
LINE
  8
0
 10
98.47
 20
1.84502
 11
98.5323
 21
1.72279
  0
LINE
  8
0
 10
98.5323
 20
1.72279
 11
98.5902
 21
1.59846
  0
LINE
  8
0
 10
98.5902
 20
1.59846
 11
98.6438
 21
1.4722
  0
LINE
  8
0
 10
98.6438
 20
1.4722
 11
98.693
 21
1.34413
  0
LINE
  8
0
 10
98.693
 20
1.34413
 11
98.7376
 21
1.21443
  0
LINE
  8
0
 10
98.7376
 20
1.21443
 11
98.7778
 21
1.08325
  0
LINE
  8
0
 10
98.7778
 20
1.08325
 11
98.8132
 21
0.950745
  0
LINE
  8
0
 10
98.8132
 20
0.950745
 11
98.8441
 21
0.817093
  0
LINE
  8
0
 10
98.8441
 20
0.817093
 11
98.8703
 21
0.682434
  0
LINE
  8
0
 10
98.8703
 20
0.682434
 11
98.8917
 21
0.546936
  0
LINE
  8
0
 10
98.8917
 20
0.546936
 11
98.9085
 21
0.410782
  0
LINE
  8
0
 10
98.9085
 20
0.410782
 11
98.9204
 21
0.274139
  0
LINE
  8
0
 10
98.9204
 20
0.274139
 11
98.9276
 21
0.137146
  0
LINE
  8
0
 10
98.9276
 20
0.137146
 11
98.93
 21
0
  0
LINE
  8
0
 10
98.93
 20
0
 11
98.9276
 21
-0.137146
  0
LINE
  8
0
 10
98.9276
 20
-0.137146
 11
98.9204
 21
-0.274139
  0
LINE
  8
0
 10
98.9204
 20
-0.274139
 11
98.9085
 21
-0.410782
  0
LINE
  8
0
 10
98.9085
 20
-0.410782
 11
98.8917
 21
-0.546936
  0
LINE
  8
0
 10
98.8917
 20
-0.546936
 11
98.8703
 21
-0.682434
  0
LINE
  8
0
 10
98.8703
 20
-0.682434
 11
98.8441
 21
-0.817093
  0
LINE
  8
0
 10
98.8441
 20
-0.817093
 11
98.8132
 21
-0.950745
  0
LINE
  8
0
 10
98.8132
 20
-0.950745
 11
98.7778
 21
-1.08325
  0
LINE
  8
0
 10
98.7778
 20
-1.08325
 11
98.7376
 21
-1.21443
  0
LINE
  8
0
 10
98.7376
 20
-1.21443
 11
98.693
 21
-1.34413
  0
LINE
  8
0
 10
98.693
 20
-1.34413
 11
98.6438
 21
-1.4722
  0
LINE
  8
0
 10
98.6438
 20
-1.4722
 11
98.5902
 21
-1.59846
  0
LINE
  8
0
 10
98.5902
 20
-1.59846
 11
98.5323
 21
-1.72279
  0
LINE
  8
0
 10
98.5323
 20
-1.72279
 11
98.47
 21
-1.84502
  0
LINE
  8
0
 10
98.47
 20
-1.84502
 11
98.4035
 21
-1.965
  0
LINE
  8
0
 10
98.4035
 20
-1.965
 11
98.3328
 21
-2.08258
  0
LINE
  8
0
 10
98.3328
 20
-2.08258
 11
98.2581
 21
-2.19762
  0
LINE
  8
0
 10
98.2581
 20
-2.19762
 11
98.1794
 21
-2.30998
  0
LINE
  8
0
 10
98.1794
 20
-2.30998
 11
98.0969
 21
-2.41954
  0
LINE
  8
0
 10
98.0969
 20
-2.41954
 11
98.0105
 21
-2.52615
  0
LINE
  8
0
 10
98.0105
 20
-2.52615
 11
97.9205
 21
-2.62967
  0
LINE
  8
0
 10
97.9205
 20
-2.62967
 11
97.827
 21
-2.73
  0
LINE
  8
0
 10
97.827
 20
-2.73
 11
97.73
 21
-2.827
  0
LINE
  8
0
 10
97.73
 20
-2.827
 11
97.6297
 21
-2.92055
  0
LINE
  8
0
 10
97.6297
 20
-2.92055
 11
97.5262
 21
-3.01054
  0
LINE
  8
0
 10
97.5262
 20
-3.01054
 11
97.4195
 21
-3.09688
  0
LINE
  8
0
 10
97.4195
 20
-3.09688
 11
97.31
 21
-3.17943
  0
LINE
  8
0
 10
97.31
 20
-3.17943
 11
97.1976
 21
-3.2581
  0
LINE
  8
0
 10
97.1976
 20
-3.2581
 11
97.0826
 21
-3.33282
  0
LINE
  8
0
 10
97.0826
 20
-3.33282
 11
96.965
 21
-3.40347
  0
LINE
  8
0
 10
96.965
 20
-3.40347
 11
96.845
 21
-3.46997
  0
LINE
  8
0
 10
96.845
 20
-3.46997
 11
96.7228
 21
-3.53226
  0
LINE
  8
0
 10
96.7228
 20
-3.53226
 11
96.5985
 21
-3.59023
  0
LINE
  8
0
 10
96.5985
 20
-3.59023
 11
96.4722
 21
-3.64383
  0
LINE
  8
0
 10
96.4722
 20
-3.64383
 11
96.3441
 21
-3.69298
  0
LINE
  8
0
 10
96.3441
 20
-3.69298
 11
96.2144
 21
-3.73764
  0
LINE
  8
0
 10
96.2144
 20
-3.73764
 11
96.0833
 21
-3.77776
  0
LINE
  8
0
 10
96.0833
 20
-3.77776
 11
95.9507
 21
-3.81325
  0
LINE
  8
0
 10
95.9507
 20
-3.81325
 11
95.8171
 21
-3.84412
  0
LINE
  8
0
 10
95.8171
 20
-3.84412
 11
95.6824
 21
-3.87029
  0
LINE
  8
0
 10
95.6824
 20
-3.87029
 11
95.5469
 21
-3.89174
  0
LINE
  8
0
 10
95.5469
 20
-3.89174
 11
95.4108
 21
-3.90846
  0
LINE
  8
0
 10
95.4108
 20
-3.90846
 11
95.2741
 21
-3.92043
  0
LINE
  8
0
 10
95.2741
 20
-3.92043
 11
95.1371
 21
-3.9276
  0
LINE
  8
0
 10
95.1371
 20
-3.9276
 11
95
 21
-3.92999
  0
LINE
  8
0
 10
95
 20
-3.92999
 11
94.8628
 21
-3.9276
  0
LINE
  8
0
 10
208.863
 20
-3.9276
 11
208.726
 21
-3.92043
  0
LINE
  8
0
 10
208.726
 20
-3.92043
 11
208.589
 21
-3.90846
  0
LINE
  8
0
 10
208.589
 20
-3.90846
 11
208.453
 21
-3.89174
  0
LINE
  8
0
 10
208.453
 20
-3.89174
 11
208.318
 21
-3.87029
  0
LINE
  8
0
 10
208.318
 20
-3.87029
 11
208.183
 21
-3.84412
  0
LINE
  8
0
 10
208.183
 20
-3.84412
 11
208.049
 21
-3.81325
  0
LINE
  8
0
 10
208.049
 20
-3.81325
 11
207.917
 21
-3.77776
  0
LINE
  8
0
 10
207.917
 20
-3.77776
 11
207.786
 21
-3.73764
  0
LINE
  8
0
 10
207.786
 20
-3.73764
 11
207.656
 21
-3.69298
  0
LINE
  8
0
 10
207.656
 20
-3.69298
 11
207.528
 21
-3.64383
  0
LINE
  8
0
 10
207.528
 20
-3.64383
 11
207.402
 21
-3.59023
  0
LINE
  8
0
 10
207.402
 20
-3.59023
 11
207.277
 21
-3.53226
  0
LINE
  8
0
 10
207.277
 20
-3.53226
 11
207.155
 21
-3.46997
  0
LINE
  8
0
 10
207.155
 20
-3.46997
 11
207.035
 21
-3.40347
  0
LINE
  8
0
 10
207.035
 20
-3.40347
 11
206.917
 21
-3.33282
  0
LINE
  8
0
 10
206.917
 20
-3.33282
 11
206.802
 21
-3.2581
  0
LINE
  8
0
 10
206.802
 20
-3.2581
 11
206.69
 21
-3.17943
  0
LINE
  8
0
 10
206.69
 20
-3.17943
 11
206.58
 21
-3.09688
  0
LINE
  8
0
 10
206.58
 20
-3.09688
 11
206.474
 21
-3.01054
  0
LINE
  8
0
 10
206.474
 20
-3.01054
 11
206.37
 21
-2.92055
  0
LINE
  8
0
 10
206.37
 20
-2.92055
 11
206.27
 21
-2.827
  0
LINE
  8
0
 10
206.27
 20
-2.827
 11
206.173
 21
-2.73
  0
LINE
  8
0
 10
206.173
 20
-2.73
 11
206.079
 21
-2.62967
  0
LINE
  8
0
 10
206.079
 20
-2.62967
 11
205.989
 21
-2.52615
  0
LINE
  8
0
 10
205.989
 20
-2.52615
 11
205.903
 21
-2.41954
  0
LINE
  8
0
 10
205.903
 20
-2.41954
 11
205.821
 21
-2.30998
  0
LINE
  8
0
 10
205.821
 20
-2.30998
 11
205.742
 21
-2.19762
  0
LINE
  8
0
 10
205.742
 20
-2.19762
 11
205.667
 21
-2.08258
  0
LINE
  8
0
 10
205.667
 20
-2.08258
 11
205.597
 21
-1.965
  0
LINE
  8
0
 10
205.597
 20
-1.965
 11
205.53
 21
-1.84502
  0
LINE
  8
0
 10
205.53
 20
-1.84502
 11
205.468
 21
-1.72279
  0
LINE
  8
0
 10
205.468
 20
-1.72279
 11
205.41
 21
-1.59846
  0
LINE
  8
0
 10
205.41
 20
-1.59846
 11
205.356
 21
-1.4722
  0
LINE
  8
0
 10
205.356
 20
-1.4722
 11
205.307
 21
-1.34413
  0
LINE
  8
0
 10
205.307
 20
-1.34413
 11
205.262
 21
-1.21443
  0
LINE
  8
0
 10
205.262
 20
-1.21443
 11
205.222
 21
-1.08325
  0
LINE
  8
0
 10
205.222
 20
-1.08325
 11
205.187
 21
-0.950745
  0
LINE
  8
0
 10
205.187
 20
-0.950745
 11
205.156
 21
-0.817093
  0
LINE
  8
0
 10
205.156
 20
-0.817093
 11
205.13
 21
-0.682434
  0
LINE
  8
0
 10
205.13
 20
-0.682434
 11
205.108
 21
-0.546936
  0
LINE
  8
0
 10
205.108
 20
-0.546936
 11
205.092
 21
-0.410782
  0
LINE
  8
0
 10
205.092
 20
-0.410782
 11
205.08
 21
-0.274139
  0
LINE
  8
0
 10
205.08
 20
-0.274139
 11
205.072
 21
-0.137146
  0
LINE
  8
0
 10
205.072
 20
-0.137146
 11
205.07
 21
0
  0
LINE
  8
0
 10
205.07
 20
0
 11
205.072
 21
0.137146
  0
LINE
  8
0
 10
205.072
 20
0.137146
 11
205.08
 21
0.274139
  0
LINE
  8
0
 10
205.08
 20
0.274139
 11
205.092
 21
0.410782
  0
LINE
  8
0
 10
205.092
 20
0.410782
 11
205.108
 21
0.546936
  0
LINE
  8
0
 10
205.108
 20
0.546936
 11
205.13
 21
0.682434
  0
LINE
  8
0
 10
205.13
 20
0.682434
 11
205.156
 21
0.817093
  0
LINE
  8
0
 10
205.156
 20
0.817093
 11
205.187
 21
0.950745
  0
LINE
  8
0
 10
205.187
 20
0.950745
 11
205.222
 21
1.08325
  0
LINE
  8
0
 10
205.222
 20
1.08325
 11
205.262
 21
1.21443
  0
LINE
  8
0
 10
205.262
 20
1.21443
 11
205.307
 21
1.34413
  0
LINE
  8
0
 10
205.307
 20
1.34413
 11
205.356
 21
1.4722
  0
LINE
  8
0
 10
205.356
 20
1.4722
 11
205.41
 21
1.59846
  0
LINE
  8
0
 10
205.41
 20
1.59846
 11
205.468
 21
1.72279
  0
LINE
  8
0
 10
205.468
 20
1.72279
 11
205.53
 21
1.84502
  0
LINE
  8
0
 10
205.53
 20
1.84502
 11
205.597
 21
1.965
  0
LINE
  8
0
 10
205.597
 20
1.965
 11
205.667
 21
2.08258
  0
LINE
  8
0
 10
205.667
 20
2.08258
 11
205.742
 21
2.19762
  0
LINE
  8
0
 10
205.742
 20
2.19762
 11
205.821
 21
2.30998
  0
LINE
  8
0
 10
205.821
 20
2.30998
 11
205.903
 21
2.41954
  0
LINE
  8
0
 10
205.903
 20
2.41954
 11
205.989
 21
2.52615
  0
LINE
  8
0
 10
205.989
 20
2.52615
 11
206.079
 21
2.62967
  0
LINE
  8
0
 10
206.079
 20
2.62967
 11
206.173
 21
2.73
  0
LINE
  8
0
 10
206.173
 20
2.73
 11
206.27
 21
2.827
  0
LINE
  8
0
 10
206.27
 20
2.827
 11
206.37
 21
2.92055
  0
LINE
  8
0
 10
206.37
 20
2.92055
 11
206.474
 21
3.01054
  0
LINE
  8
0
 10
206.474
 20
3.01054
 11
206.58
 21
3.09688
  0
LINE
  8
0
 10
206.58
 20
3.09688
 11
206.69
 21
3.17943
  0
LINE
  8
0
 10
206.69
 20
3.17943
 11
206.802
 21
3.2581
  0
LINE
  8
0
 10
206.802
 20
3.2581
 11
206.917
 21
3.33282
  0
LINE
  8
0
 10
206.917
 20
3.33282
 11
207.035
 21
3.40347
  0
LINE
  8
0
 10
207.035
 20
3.40347
 11
207.155
 21
3.46997
  0
LINE
  8
0
 10
207.155
 20
3.46997
 11
207.277
 21
3.53226
  0
LINE
  8
0
 10
207.277
 20
3.53226
 11
207.402
 21
3.59023
  0
LINE
  8
0
 10
207.402
 20
3.59023
 11
207.528
 21
3.64383
  0
LINE
  8
0
 10
207.528
 20
3.64383
 11
207.656
 21
3.69298
  0
LINE
  8
0
 10
207.656
 20
3.69298
 11
207.786
 21
3.73764
  0
LINE
  8
0
 10
207.786
 20
3.73764
 11
207.917
 21
3.77776
  0
LINE
  8
0
 10
207.917
 20
3.77776
 11
208.049
 21
3.81325
  0
LINE
  8
0
 10
208.049
 20
3.81325
 11
208.183
 21
3.84412
  0
LINE
  8
0
 10
208.183
 20
3.84412
 11
208.318
 21
3.87029
  0
LINE
  8
0
 10
208.318
 20
3.87029
 11
208.453
 21
3.89174
  0
LINE
  8
0
 10
208.453
 20
3.89174
 11
208.589
 21
3.90846
  0
LINE
  8
0
 10
208.589
 20
3.90846
 11
208.726
 21
3.92043
  0
LINE
  8
0
 10
208.726
 20
3.92043
 11
208.863
 21
3.9276
  0
LINE
  8
0
 10
208.863
 20
3.9276
 11
209
 21
3.92999
  0
LINE
  8
0
 10
209
 20
3.92999
 11
209.137
 21
3.9276
  0
LINE
  8
0
 10
209.137
 20
3.9276
 11
209.274
 21
3.92043
  0
LINE
  8
0
 10
209.274
 20
3.92043
 11
209.411
 21
3.90846
  0
LINE
  8
0
 10
209.411
 20
3.90846
 11
209.547
 21
3.89174
  0
LINE
  8
0
 10
209.547
 20
3.89174
 11
209.682
 21
3.87029
  0
LINE
  8
0
 10
209.682
 20
3.87029
 11
209.817
 21
3.84412
  0
LINE
  8
0
 10
209.817
 20
3.84412
 11
209.951
 21
3.81325
  0
LINE
  8
0
 10
209.951
 20
3.81325
 11
210.083
 21
3.77776
  0
LINE
  8
0
 10
210.083
 20
3.77776
 11
210.214
 21
3.73764
  0
LINE
  8
0
 10
210.214
 20
3.73764
 11
210.344
 21
3.69298
  0
LINE
  8
0
 10
210.344
 20
3.69298
 11
210.472
 21
3.64383
  0
LINE
  8
0
 10
210.472
 20
3.64383
 11
210.598
 21
3.59023
  0
LINE
  8
0
 10
210.598
 20
3.59023
 11
210.723
 21
3.53226
  0
LINE
  8
0
 10
210.723
 20
3.53226
 11
210.845
 21
3.46997
  0
LINE
  8
0
 10
210.845
 20
3.46997
 11
210.965
 21
3.40347
  0
LINE
  8
0
 10
210.965
 20
3.40347
 11
211.083
 21
3.33282
  0
LINE
  8
0
 10
211.083
 20
3.33282
 11
211.198
 21
3.2581
  0
LINE
  8
0
 10
211.198
 20
3.2581
 11
211.31
 21
3.17943
  0
LINE
  8
0
 10
211.31
 20
3.17943
 11
211.42
 21
3.09688
  0
LINE
  8
0
 10
211.42
 20
3.09688
 11
211.526
 21
3.01054
  0
LINE
  8
0
 10
211.526
 20
3.01054
 11
211.63
 21
2.92055
  0
LINE
  8
0
 10
211.63
 20
2.92055
 11
211.73
 21
2.827
  0
LINE
  8
0
 10
211.73
 20
2.827
 11
211.827
 21
2.73
  0
LINE
  8
0
 10
211.827
 20
2.73
 11
211.921
 21
2.62967
  0
LINE
  8
0
 10
211.921
 20
2.62967
 11
212.011
 21
2.52615
  0
LINE
  8
0
 10
212.011
 20
2.52615
 11
212.097
 21
2.41954
  0
LINE
  8
0
 10
212.097
 20
2.41954
 11
212.179
 21
2.30998
  0
LINE
  8
0
 10
212.179
 20
2.30998
 11
212.258
 21
2.19762
  0
LINE
  8
0
 10
212.258
 20
2.19762
 11
212.333
 21
2.08258
  0
LINE
  8
0
 10
212.333
 20
2.08258
 11
212.403
 21
1.965
  0
LINE
  8
0
 10
212.403
 20
1.965
 11
212.47
 21
1.84502
  0
LINE
  8
0
 10
212.47
 20
1.84502
 11
212.532
 21
1.72279
  0
LINE
  8
0
 10
212.532
 20
1.72279
 11
212.59
 21
1.59846
  0
LINE
  8
0
 10
212.59
 20
1.59846
 11
212.644
 21
1.4722
  0
LINE
  8
0
 10
212.644
 20
1.4722
 11
212.693
 21
1.34413
  0
LINE
  8
0
 10
212.693
 20
1.34413
 11
212.738
 21
1.21443
  0
LINE
  8
0
 10
212.738
 20
1.21443
 11
212.778
 21
1.08325
  0
LINE
  8
0
 10
212.778
 20
1.08325
 11
212.813
 21
0.950745
  0
LINE
  8
0
 10
212.813
 20
0.950745
 11
212.844
 21
0.817093
  0
LINE
  8
0
 10
212.844
 20
0.817093
 11
212.87
 21
0.682434
  0
LINE
  8
0
 10
212.87
 20
0.682434
 11
212.892
 21
0.546936
  0
LINE
  8
0
 10
212.892
 20
0.546936
 11
212.908
 21
0.410782
  0
LINE
  8
0
 10
212.908
 20
0.410782
 11
212.92
 21
0.274139
  0
LINE
  8
0
 10
212.92
 20
0.274139
 11
212.928
 21
0.137146
  0
LINE
  8
0
 10
212.928
 20
0.137146
 11
212.93
 21
0
  0
LINE
  8
0
 10
212.93
 20
0
 11
212.928
 21
-0.137146
  0
LINE
  8
0
 10
212.928
 20
-0.137146
 11
212.92
 21
-0.274139
  0
LINE
  8
0
 10
212.92
 20
-0.274139
 11
212.908
 21
-0.410782
  0
LINE
  8
0
 10
212.908
 20
-0.410782
 11
212.892
 21
-0.546936
  0
LINE
  8
0
 10
212.892
 20
-0.546936
 11
212.87
 21
-0.682434
  0
LINE
  8
0
 10
212.87
 20
-0.682434
 11
212.844
 21
-0.817093
  0
LINE
  8
0
 10
212.844
 20
-0.817093
 11
212.813
 21
-0.950745
  0
LINE
  8
0
 10
212.813
 20
-0.950745
 11
212.778
 21
-1.08325
  0
LINE
  8
0
 10
212.778
 20
-1.08325
 11
212.738
 21
-1.21443
  0
LINE
  8
0
 10
212.738
 20
-1.21443
 11
212.693
 21
-1.34413
  0
LINE
  8
0
 10
212.693
 20
-1.34413
 11
212.644
 21
-1.4722
  0
LINE
  8
0
 10
212.644
 20
-1.4722
 11
212.59
 21
-1.59846
  0
LINE
  8
0
 10
212.59
 20
-1.59846
 11
212.532
 21
-1.72279
  0
LINE
  8
0
 10
212.532
 20
-1.72279
 11
212.47
 21
-1.84502
  0
LINE
  8
0
 10
212.47
 20
-1.84502
 11
212.403
 21
-1.965
  0
LINE
  8
0
 10
212.403
 20
-1.965
 11
212.333
 21
-2.08258
  0
LINE
  8
0
 10
212.333
 20
-2.08258
 11
212.258
 21
-2.19762
  0
LINE
  8
0
 10
212.258
 20
-2.19762
 11
212.179
 21
-2.30998
  0
LINE
  8
0
 10
212.179
 20
-2.30998
 11
212.097
 21
-2.41954
  0
LINE
  8
0
 10
212.097
 20
-2.41954
 11
212.011
 21
-2.52615
  0
LINE
  8
0
 10
212.011
 20
-2.52615
 11
211.921
 21
-2.62967
  0
LINE
  8
0
 10
211.921
 20
-2.62967
 11
211.827
 21
-2.73
  0
LINE
  8
0
 10
211.827
 20
-2.73
 11
211.73
 21
-2.827
  0
LINE
  8
0
 10
211.73
 20
-2.827
 11
211.63
 21
-2.92055
  0
LINE
  8
0
 10
211.63
 20
-2.92055
 11
211.526
 21
-3.01054
  0
LINE
  8
0
 10
211.526
 20
-3.01054
 11
211.42
 21
-3.09688
  0
LINE
  8
0
 10
211.42
 20
-3.09688
 11
211.31
 21
-3.17943
  0
LINE
  8
0
 10
211.31
 20
-3.17943
 11
211.198
 21
-3.2581
  0
LINE
  8
0
 10
211.198
 20
-3.2581
 11
211.083
 21
-3.33282
  0
LINE
  8
0
 10
211.083
 20
-3.33282
 11
210.965
 21
-3.40347
  0
LINE
  8
0
 10
210.965
 20
-3.40347
 11
210.845
 21
-3.46997
  0
LINE
  8
0
 10
210.845
 20
-3.46997
 11
210.723
 21
-3.53226
  0
LINE
  8
0
 10
210.723
 20
-3.53226
 11
210.598
 21
-3.59023
  0
LINE
  8
0
 10
210.598
 20
-3.59023
 11
210.472
 21
-3.64383
  0
LINE
  8
0
 10
210.472
 20
-3.64383
 11
210.344
 21
-3.69298
  0
LINE
  8
0
 10
210.344
 20
-3.69298
 11
210.214
 21
-3.73764
  0
LINE
  8
0
 10
210.214
 20
-3.73764
 11
210.083
 21
-3.77776
  0
LINE
  8
0
 10
210.083
 20
-3.77776
 11
209.951
 21
-3.81325
  0
LINE
  8
0
 10
209.951
 20
-3.81325
 11
209.817
 21
-3.84412
  0
LINE
  8
0
 10
209.817
 20
-3.84412
 11
209.682
 21
-3.87029
  0
LINE
  8
0
 10
209.682
 20
-3.87029
 11
209.547
 21
-3.89174
  0
LINE
  8
0
 10
209.547
 20
-3.89174
 11
209.411
 21
-3.90846
  0
LINE
  8
0
 10
209.411
 20
-3.90846
 11
209.274
 21
-3.92043
  0
LINE
  8
0
 10
209.274
 20
-3.92043
 11
209.137
 21
-3.9276
  0
LINE
  8
0
 10
209.137
 20
-3.9276
 11
209
 21
-3.92999
  0
LINE
  8
0
 10
209
 20
-3.92999
 11
208.863
 21
-3.9276
  0
LINE
  8
0
 10
317.888
 20
-1.5961
 11
317.777
 21
-1.58443
  0
LINE
  8
0
 10
317.777
 20
-1.58443
 11
317.667
 21
-1.56503
  0
LINE
  8
0
 10
317.667
 20
-1.56503
 11
317.559
 21
-1.53801
  0
LINE
  8
0
 10
317.559
 20
-1.53801
 11
317.453
 21
-1.50349
  0
LINE
  8
0
 10
317.453
 20
-1.50349
 11
317.349
 21
-1.46167
  0
LINE
  8
0
 10
317.349
 20
-1.46167
 11
317.249
 21
-1.4127
  0
LINE
  8
0
 10
317.249
 20
-1.4127
 11
317.152
 21
-1.35687
  0
LINE
  8
0
 10
317.152
 20
-1.35687
 11
317.06
 21
-1.29442
  0
LINE
  8
0
 10
317.06
 20
-1.29442
 11
316.972
 21
-1.22566
  0
LINE
  8
0
 10
316.972
 20
-1.22566
 11
316.889
 21
-1.15094
  0
LINE
  8
0
 10
316.889
 20
-1.15094
 11
316.811
 21
-1.0706
  0
LINE
  8
0
 10
316.811
 20
-1.0706
 11
316.739
 21
-0.985046
  0
LINE
  8
0
 10
316.739
 20
-0.985046
 11
316.674
 21
-0.894699
  0
LINE
  8
0
 10
316.674
 20
-0.894699
 11
316.614
 21
-0.799988
  0
LINE
  8
0
 10
316.614
 20
-0.799988
 11
316.562
 21
-0.701385
  0
LINE
  8
0
 10
316.562
 20
-0.701385
 11
316.516
 21
-0.599365
  0
LINE
  8
0
 10
316.516
 20
-0.599365
 11
316.478
 21
-0.494415
  0
LINE
  8
0
 10
316.478
 20
-0.494415
 11
316.448
 21
-0.38707
  0
LINE
  8
0
 10
316.448
 20
-0.38707
 11
316.424
 21
-0.277832
  0
LINE
  8
0
 10
316.424
 20
-0.277832
 11
316.409
 21
-0.167236
  0
LINE
  8
0
 10
316.409
 20
-0.167236
 11
316.401
 21
-0.0558319
  0
LINE
  8
0
 10
316.401
 20
-0.0558319
 11
316.401
 21
0.0558319
  0
LINE
  8
0
 10
316.401
 20
0.0558319
 11
316.409
 21
0.167236
  0
LINE
  8
0
 10
316.409
 20
0.167236
 11
316.424
 21
0.277832
  0
LINE
  8
0
 10
316.424
 20
0.277832
 11
316.448
 21
0.38707
  0
LINE
  8
0
 10
316.448
 20
0.38707
 11
316.478
 21
0.494415
  0
LINE
  8
0
 10
316.478
 20
0.494415
 11
316.516
 21
0.599365
  0
LINE
  8
0
 10
316.516
 20
0.599365
 11
316.562
 21
0.701385
  0
LINE
  8
0
 10
316.562
 20
0.701385
 11
316.614
 21
0.799988
  0
LINE
  8
0
 10
316.614
 20
0.799988
 11
316.674
 21
0.894699
  0
LINE
  8
0
 10
316.674
 20
0.894699
 11
316.739
 21
0.985046
  0
LINE
  8
0
 10
316.739
 20
0.985046
 11
316.811
 21
1.0706
  0
LINE
  8
0
 10
316.811
 20
1.0706
 11
316.889
 21
1.15094
  0
LINE
  8
0
 10
316.889
 20
1.15094
 11
316.972
 21
1.22566
  0
LINE
  8
0
 10
316.972
 20
1.22566
 11
317.06
 21
1.29442
  0
LINE
  8
0
 10
317.06
 20
1.29442
 11
317.152
 21
1.35687
  0
LINE
  8
0
 10
317.152
 20
1.35687
 11
317.249
 21
1.4127
  0
LINE
  8
0
 10
317.249
 20
1.4127
 11
317.349
 21
1.46167
  0
LINE
  8
0
 10
317.349
 20
1.46167
 11
317.453
 21
1.50349
  0
LINE
  8
0
 10
317.453
 20
1.50349
 11
317.559
 21
1.53801
  0
LINE
  8
0
 10
317.559
 20
1.53801
 11
317.667
 21
1.56503
  0
LINE
  8
0
 10
317.667
 20
1.56503
 11
317.777
 21
1.58443
  0
LINE
  8
0
 10
317.777
 20
1.58443
 11
317.888
 21
1.5961
  0
LINE
  8
0
 10
317.888
 20
1.5961
 11
318
 21
1.59999
  0
LINE
  8
0
 10
318
 20
1.59999
 11
318.112
 21
1.5961
  0
LINE
  8
0
 10
318.112
 20
1.5961
 11
318.223
 21
1.58443
  0
LINE
  8
0
 10
318.223
 20
1.58443
 11
318.333
 21
1.56503
  0
LINE
  8
0
 10
318.333
 20
1.56503
 11
318.441
 21
1.53801
  0
LINE
  8
0
 10
318.441
 20
1.53801
 11
318.547
 21
1.50349
  0
LINE
  8
0
 10
318.547
 20
1.50349
 11
318.651
 21
1.46167
  0
LINE
  8
0
 10
318.651
 20
1.46167
 11
318.751
 21
1.4127
  0
LINE
  8
0
 10
318.751
 20
1.4127
 11
318.848
 21
1.35687
  0
LINE
  8
0
 10
318.848
 20
1.35687
 11
318.94
 21
1.29442
  0
LINE
  8
0
 10
318.94
 20
1.29442
 11
319.028
 21
1.22566
  0
LINE
  8
0
 10
319.028
 20
1.22566
 11
319.111
 21
1.15094
  0
LINE
  8
0
 10
319.111
 20
1.15094
 11
319.189
 21
1.0706
  0
LINE
  8
0
 10
319.189
 20
1.0706
 11
319.261
 21
0.985046
  0
LINE
  8
0
 10
319.261
 20
0.985046
 11
319.326
 21
0.894699
  0
LINE
  8
0
 10
319.326
 20
0.894699
 11
319.386
 21
0.799988
  0
LINE
  8
0
 10
319.386
 20
0.799988
 11
319.438
 21
0.701385
  0
LINE
  8
0
 10
319.438
 20
0.701385
 11
319.483
 21
0.599365
  0
LINE
  8
0
 10
319.483
 20
0.599365
 11
319.522
 21
0.494415
  0
LINE
  8
0
 10
319.522
 20
0.494415
 11
319.552
 21
0.38707
  0
LINE
  8
0
 10
319.552
 20
0.38707
 11
319.576
 21
0.277832
  0
LINE
  8
0
 10
319.576
 20
0.277832
 11
319.591
 21
0.167236
  0
LINE
  8
0
 10
319.591
 20
0.167236
 11
319.599
 21
0.0558319
  0
LINE
  8
0
 10
319.599
 20
0.0558319
 11
319.599
 21
-0.0558319
  0
LINE
  8
0
 10
319.599
 20
-0.0558319
 11
319.591
 21
-0.167236
  0
LINE
  8
0
 10
319.591
 20
-0.167236
 11
319.576
 21
-0.277832
  0
LINE
  8
0
 10
319.576
 20
-0.277832
 11
319.552
 21
-0.38707
  0
LINE
  8
0
 10
319.552
 20
-0.38707
 11
319.522
 21
-0.494415
  0
LINE
  8
0
 10
319.522
 20
-0.494415
 11
319.483
 21
-0.599365
  0
LINE
  8
0
 10
319.483
 20
-0.599365
 11
319.438
 21
-0.701385
  0
LINE
  8
0
 10
319.438
 20
-0.701385
 11
319.386
 21
-0.799988
  0
LINE
  8
0
 10
319.386
 20
-0.799988
 11
319.326
 21
-0.894699
  0
LINE
  8
0
 10
319.326
 20
-0.894699
 11
319.261
 21
-0.985046
  0
LINE
  8
0
 10
319.261
 20
-0.985046
 11
319.189
 21
-1.0706
  0
LINE
  8
0
 10
319.189
 20
-1.0706
 11
319.111
 21
-1.15094
  0
LINE
  8
0
 10
319.111
 20
-1.15094
 11
319.028
 21
-1.22566
  0
LINE
  8
0
 10
319.028
 20
-1.22566
 11
318.94
 21
-1.29442
  0
LINE
  8
0
 10
318.94
 20
-1.29442
 11
318.848
 21
-1.35687
  0
LINE
  8
0
 10
318.848
 20
-1.35687
 11
318.751
 21
-1.4127
  0
LINE
  8
0
 10
318.751
 20
-1.4127
 11
318.651
 21
-1.46167
  0
LINE
  8
0
 10
318.651
 20
-1.46167
 11
318.547
 21
-1.50349
  0
LINE
  8
0
 10
318.547
 20
-1.50349
 11
318.441
 21
-1.53801
  0
LINE
  8
0
 10
318.441
 20
-1.53801
 11
318.333
 21
-1.56503
  0
LINE
  8
0
 10
318.333
 20
-1.56503
 11
318.223
 21
-1.58443
  0
LINE
  8
0
 10
318.223
 20
-1.58443
 11
318.112
 21
-1.5961
  0
LINE
  8
0
 10
318.112
 20
-1.5961
 11
318
 21
-1.59999
  0
LINE
  8
0
 10
318
 20
-1.59999
 11
317.888
 21
-1.5961
  0
LINE
  8
0
 10
296.888
 20
-13.7204
 11
296.777
 21
-13.7088
  0
LINE
  8
0
 10
296.777
 20
-13.7088
 11
296.667
 21
-13.6894
  0
LINE
  8
0
 10
296.667
 20
-13.6894
 11
296.559
 21
-13.6624
  0
LINE
  8
0
 10
296.559
 20
-13.6624
 11
296.453
 21
-13.6279
  0
LINE
  8
0
 10
296.453
 20
-13.6279
 11
296.349
 21
-13.586
  0
LINE
  8
0
 10
296.349
 20
-13.586
 11
296.249
 21
-13.5371
  0
LINE
  8
0
 10
296.249
 20
-13.5371
 11
296.152
 21
-13.4812
  0
LINE
  8
0
 10
296.152
 20
-13.4812
 11
296.06
 21
-13.4188
  0
LINE
  8
0
 10
296.06
 20
-13.4188
 11
295.972
 21
-13.35
  0
LINE
  8
0
 10
295.972
 20
-13.35
 11
295.889
 21
-13.2753
  0
LINE
  8
0
 10
295.889
 20
-13.2753
 11
295.811
 21
-13.195
  0
LINE
  8
0
 10
295.811
 20
-13.195
 11
295.739
 21
-13.1094
  0
LINE
  8
0
 10
295.739
 20
-13.1094
 11
295.674
 21
-13.0191
  0
LINE
  8
0
 10
295.674
 20
-13.0191
 11
295.614
 21
-12.9243
  0
LINE
  8
0
 10
295.614
 20
-12.9243
 11
295.562
 21
-12.8257
  0
LINE
  8
0
 10
295.562
 20
-12.8257
 11
295.517
 21
-12.7237
  0
LINE
  8
0
 10
295.517
 20
-12.7237
 11
295.478
 21
-12.6188
  0
LINE
  8
0
 10
295.478
 20
-12.6188
 11
295.448
 21
-12.5114
  0
LINE
  8
0
 10
295.448
 20
-12.5114
 11
295.424
 21
-12.4022
  0
LINE
  8
0
 10
295.424
 20
-12.4022
 11
295.409
 21
-12.2916
  0
LINE
  8
0
 10
295.409
 20
-12.2916
 11
295.401
 21
-12.1802
  0
LINE
  8
0
 10
295.401
 20
-12.1802
 11
295.401
 21
-12.0685
  0
LINE
  8
0
 10
295.401
 20
-12.0685
 11
295.409
 21
-11.9571
  0
LINE
  8
0
 10
295.409
 20
-11.9571
 11
295.424
 21
-11.8465
  0
LINE
  8
0
 10
295.424
 20
-11.8465
 11
295.448
 21
-11.7373
  0
LINE
  8
0
 10
295.448
 20
-11.7373
 11
295.478
 21
-11.6299
  0
LINE
  8
0
 10
295.478
 20
-11.6299
 11
295.517
 21
-11.525
  0
LINE
  8
0
 10
295.517
 20
-11.525
 11
295.562
 21
-11.423
  0
LINE
  8
0
 10
295.562
 20
-11.423
 11
295.614
 21
-11.3243
  0
LINE
  8
0
 10
295.614
 20
-11.3243
 11
295.674
 21
-11.2296
  0
LINE
  8
0
 10
295.674
 20
-11.2296
 11
295.739
 21
-11.1393
  0
LINE
  8
0
 10
295.739
 20
-11.1393
 11
295.811
 21
-11.0537
  0
LINE
  8
0
 10
295.811
 20
-11.0537
 11
295.889
 21
-10.9734
  0
LINE
  8
0
 10
295.889
 20
-10.9734
 11
295.972
 21
-10.8987
  0
LINE
  8
0
 10
295.972
 20
-10.8987
 11
296.06
 21
-10.8299
  0
LINE
  8
0
 10
296.06
 20
-10.8299
 11
296.152
 21
-10.7675
  0
LINE
  8
0
 10
296.152
 20
-10.7675
 11
296.249
 21
-10.7116
  0
LINE
  8
0
 10
296.249
 20
-10.7116
 11
296.349
 21
-10.6627
  0
LINE
  8
0
 10
296.349
 20
-10.6627
 11
296.453
 21
-10.6208
  0
LINE
  8
0
 10
296.453
 20
-10.6208
 11
296.559
 21
-10.5863
  0
LINE
  8
0
 10
296.559
 20
-10.5863
 11
296.667
 21
-10.5593
  0
LINE
  8
0
 10
296.667
 20
-10.5593
 11
296.777
 21
-10.5399
  0
LINE
  8
0
 10
296.777
 20
-10.5399
 11
296.888
 21
-10.5282
  0
LINE
  8
0
 10
296.888
 20
-10.5282
 11
297
 21
-10.5244
  0
LINE
  8
0
 10
297
 20
-10.5244
 11
297.112
 21
-10.5282
  0
LINE
  8
0
 10
297.112
 20
-10.5282
 11
297.223
 21
-10.5399
  0
LINE
  8
0
 10
297.223
 20
-10.5399
 11
297.333
 21
-10.5593
  0
LINE
  8
0
 10
297.333
 20
-10.5593
 11
297.441
 21
-10.5863
  0
LINE
  8
0
 10
297.441
 20
-10.5863
 11
297.547
 21
-10.6208
  0
LINE
  8
0
 10
297.547
 20
-10.6208
 11
297.651
 21
-10.6627
  0
LINE
  8
0
 10
297.651
 20
-10.6627
 11
297.751
 21
-10.7116
  0
LINE
  8
0
 10
297.751
 20
-10.7116
 11
297.848
 21
-10.7675
  0
LINE
  8
0
 10
297.848
 20
-10.7675
 11
297.94
 21
-10.8299
  0
LINE
  8
0
 10
297.94
 20
-10.8299
 11
298.028
 21
-10.8987
  0
LINE
  8
0
 10
298.028
 20
-10.8987
 11
298.111
 21
-10.9734
  0
LINE
  8
0
 10
298.111
 20
-10.9734
 11
298.189
 21
-11.0537
  0
LINE
  8
0
 10
298.189
 20
-11.0537
 11
298.261
 21
-11.1393
  0
LINE
  8
0
 10
298.261
 20
-11.1393
 11
298.326
 21
-11.2296
  0
LINE
  8
0
 10
298.326
 20
-11.2296
 11
298.386
 21
-11.3243
  0
LINE
  8
0
 10
298.386
 20
-11.3243
 11
298.438
 21
-11.423
  0
LINE
  8
0
 10
298.438
 20
-11.423
 11
298.484
 21
-11.525
  0
LINE
  8
0
 10
298.484
 20
-11.525
 11
298.522
 21
-11.6299
  0
LINE
  8
0
 10
298.522
 20
-11.6299
 11
298.552
 21
-11.7373
  0
LINE
  8
0
 10
298.552
 20
-11.7373
 11
298.576
 21
-11.8465
  0
LINE
  8
0
 10
298.576
 20
-11.8465
 11
298.591
 21
-11.9571
  0
LINE
  8
0
 10
298.591
 20
-11.9571
 11
298.599
 21
-12.0685
  0
LINE
  8
0
 10
298.599
 20
-12.0685
 11
298.599
 21
-12.1802
  0
LINE
  8
0
 10
298.599
 20
-12.1802
 11
298.591
 21
-12.2916
  0
LINE
  8
0
 10
298.591
 20
-12.2916
 11
298.576
 21
-12.4022
  0
LINE
  8
0
 10
298.576
 20
-12.4022
 11
298.552
 21
-12.5114
  0
LINE
  8
0
 10
298.552
 20
-12.5114
 11
298.522
 21
-12.6188
  0
LINE
  8
0
 10
298.522
 20
-12.6188
 11
298.484
 21
-12.7237
  0
LINE
  8
0
 10
298.484
 20
-12.7237
 11
298.438
 21
-12.8257
  0
LINE
  8
0
 10
298.438
 20
-12.8257
 11
298.386
 21
-12.9243
  0
LINE
  8
0
 10
298.386
 20
-12.9243
 11
298.326
 21
-13.0191
  0
LINE
  8
0
 10
298.326
 20
-13.0191
 11
298.261
 21
-13.1094
  0
LINE
  8
0
 10
298.261
 20
-13.1094
 11
298.189
 21
-13.195
  0
LINE
  8
0
 10
298.189
 20
-13.195
 11
298.111
 21
-13.2753
  0
LINE
  8
0
 10
298.111
 20
-13.2753
 11
298.028
 21
-13.35
  0
LINE
  8
0
 10
298.028
 20
-13.35
 11
297.94
 21
-13.4188
  0
LINE
  8
0
 10
297.94
 20
-13.4188
 11
297.848
 21
-13.4812
  0
LINE
  8
0
 10
297.848
 20
-13.4812
 11
297.751
 21
-13.5371
  0
LINE
  8
0
 10
297.751
 20
-13.5371
 11
297.651
 21
-13.586
  0
LINE
  8
0
 10
297.651
 20
-13.586
 11
297.547
 21
-13.6279
  0
LINE
  8
0
 10
297.547
 20
-13.6279
 11
297.441
 21
-13.6624
  0
LINE
  8
0
 10
297.441
 20
-13.6624
 11
297.333
 21
-13.6894
  0
LINE
  8
0
 10
297.333
 20
-13.6894
 11
297.223
 21
-13.7088
  0
LINE
  8
0
 10
297.223
 20
-13.7088
 11
297.112
 21
-13.7204
  0
LINE
  8
0
 10
297.112
 20
-13.7204
 11
297
 21
-13.7243
  0
LINE
  8
0
 10
297
 20
-13.7243
 11
296.888
 21
-13.7204
  0
LINE
  8
0
 10
47.4302
 20
-25.9988
 11
47.3605
 21
-25.9951
  0
LINE
  8
0
 10
47.3605
 20
-25.9951
 11
47.291
 21
-25.989
  0
LINE
  8
0
 10
47.291
 20
-25.989
 11
47.2217
 21
-25.9805
  0
LINE
  8
0
 10
47.2217
 20
-25.9805
 11
47.1527
 21
-25.9696
  0
LINE
  8
0
 10
47.1527
 20
-25.9696
 11
47.0842
 21
-25.9563
  0
LINE
  8
0
 10
47.0842
 20
-25.9563
 11
47.0162
 21
-25.9406
  0
LINE
  8
0
 10
47.0162
 20
-25.9406
 11
46.9487
 21
-25.9225
  0
LINE
  8
0
 10
46.9487
 20
-25.9225
 11
46.882
 21
-25.9021
  0
LINE
  8
0
 10
46.882
 20
-25.9021
 11
46.816
 21
-25.8794
  0
LINE
  8
0
 10
46.816
 20
-25.8794
 11
46.7508
 21
-25.8544
  0
LINE
  8
0
 10
46.7508
 20
-25.8544
 11
46.6865
 21
-25.8271
  0
LINE
  8
0
 10
46.6865
 20
-25.8271
 11
46.6233
 21
-25.7976
  0
LINE
  8
0
 10
46.6233
 20
-25.7976
 11
46.5611
 21
-25.7659
  0
LINE
  8
0
 10
46.5611
 20
-25.7659
 11
46.5
 21
-25.732
  0
LINE
  8
0
 10
46.5
 20
-25.732
 11
46.4402
 21
-25.6961
  0
LINE
  8
0
 10
46.4402
 20
-25.6961
 11
46.3816
 21
-25.6581
  0
LINE
  8
0
 10
46.3816
 20
-25.6581
 11
46.3244
 21
-25.618
  0
LINE
  8
0
 10
46.3244
 20
-25.618
 11
46.2687
 21
-25.576
  0
LINE
  8
0
 10
46.2687
 20
-25.576
 11
46.2144
 21
-25.5321
  0
LINE
  8
0
 10
46.2144
 20
-25.5321
 11
46.1617
 21
-25.4863
  0
LINE
  8
0
 10
46.1617
 20
-25.4863
 11
46.1107
 21
-25.4387
  0
LINE
  8
0
 10
46.1107
 20
-25.4387
 11
46.0613
 21
-25.3893
  0
LINE
  8
0
 10
46.0613
 20
-25.3893
 11
46.0137
 21
-25.3383
  0
LINE
  8
0
 10
46.0137
 20
-25.3383
 11
45.9679
 21
-25.2856
  0
LINE
  8
0
 10
45.9679
 20
-25.2856
 11
45.924
 21
-25.2313
  0
LINE
  8
0
 10
45.924
 20
-25.2313
 11
45.882
 21
-25.1756
  0
LINE
  8
0
 10
45.882
 20
-25.1756
 11
45.8419
 21
-25.1184
  0
LINE
  8
0
 10
45.8419
 20
-25.1184
 11
45.8039
 21
-25.0598
  0
LINE
  8
0
 10
45.8039
 20
-25.0598
 11
45.768
 21
-25
  0
LINE
  8
0
 10
45.768
 20
-25
 11
45.7341
 21
-24.9389
  0
LINE
  8
0
 10
45.7341
 20
-24.9389
 11
45.7024
 21
-24.8767
  0
LINE
  8
0
 10
45.7024
 20
-24.8767
 11
45.6729
 21
-24.8135
  0
LINE
  8
0
 10
45.6729
 20
-24.8135
 11
45.6456
 21
-24.7492
  0
LINE
  8
0
 10
45.6456
 20
-24.7492
 11
45.6206
 21
-24.684
  0
LINE
  8
0
 10
45.6206
 20
-24.684
 11
45.5979
 21
-24.618
  0
LINE
  8
0
 10
45.5979
 20
-24.618
 11
45.5775
 21
-24.5513
  0
LINE
  8
0
 10
45.5775
 20
-24.5513
 11
45.5594
 21
-24.4838
  0
LINE
  8
0
 10
45.5594
 20
-24.4838
 11
45.5437
 21
-24.4158
  0
LINE
  8
0
 10
45.5437
 20
-24.4158
 11
45.5304
 21
-24.3473
  0
LINE
  8
0
 10
45.5304
 20
-24.3473
 11
45.5195
 21
-24.2783
  0
LINE
  8
0
 10
45.5195
 20
-24.2783
 11
45.511
 21
-24.209
  0
LINE
  8
0
 10
45.511
 20
-24.209
 11
45.5049
 21
-24.1395
  0
LINE
  8
0
 10
45.5049
 20
-24.1395
 11
45.5012
 21
-24.0698
  0
LINE
  8
0
 10
45.5012
 20
-24.0698
 11
45.5
 21
-24
  0
LINE
  8
0
 10
45.5
 20
-24
 11
45.5012
 21
-23.9302
  0
LINE
  8
0
 10
45.5012
 20
-23.9302
 11
45.5049
 21
-23.8605
  0
LINE
  8
0
 10
45.5049
 20
-23.8605
 11
45.511
 21
-23.7909
  0
LINE
  8
0
 10
45.511
 20
-23.7909
 11
45.5195
 21
-23.7216
  0
LINE
  8
0
 10
45.5195
 20
-23.7216
 11
45.5304
 21
-23.6527
  0
LINE
  8
0
 10
45.5304
 20
-23.6527
 11
45.5437
 21
-23.5842
  0
LINE
  8
0
 10
45.5437
 20
-23.5842
 11
45.5594
 21
-23.5161
  0
LINE
  8
0
 10
45.5594
 20
-23.5161
 11
45.5775
 21
-23.4487
  0
LINE
  8
0
 10
45.5775
 20
-23.4487
 11
45.5979
 21
-23.382
  0
LINE
  8
0
 10
45.5979
 20
-23.382
 11
45.6206
 21
-23.3159
  0
LINE
  8
0
 10
45.6206
 20
-23.3159
 11
45.6456
 21
-23.2508
  0
LINE
  8
0
 10
45.6456
 20
-23.2508
 11
45.6729
 21
-23.1865
  0
LINE
  8
0
 10
45.6729
 20
-23.1865
 11
45.7024
 21
-23.1232
  0
LINE
  8
0
 10
45.7024
 20
-23.1232
 11
45.7341
 21
-23.0611
  0
LINE
  8
0
 10
45.7341
 20
-23.0611
 11
45.768
 21
-23
  0
LINE
  8
0
 10
45.768
 20
-23
 11
45.8039
 21
-22.9402
  0
LINE
  8
0
 10
45.8039
 20
-22.9402
 11
45.8419
 21
-22.8816
  0
LINE
  8
0
 10
45.8419
 20
-22.8816
 11
45.882
 21
-22.8244
  0
LINE
  8
0
 10
45.882
 20
-22.8244
 11
45.924
 21
-22.7687
  0
LINE
  8
0
 10
45.924
 20
-22.7687
 11
45.9679
 21
-22.7144
  0
LINE
  8
0
 10
45.9679
 20
-22.7144
 11
46.0137
 21
-22.6617
  0
LINE
  8
0
 10
46.0137
 20
-22.6617
 11
46.0613
 21
-22.6107
  0
LINE
  8
0
 10
46.0613
 20
-22.6107
 11
46.1107
 21
-22.5613
  0
LINE
  8
0
 10
46.1107
 20
-22.5613
 11
46.1617
 21
-22.5137
  0
LINE
  8
0
 10
46.1617
 20
-22.5137
 11
46.2144
 21
-22.4679
  0
LINE
  8
0
 10
46.2144
 20
-22.4679
 11
46.2687
 21
-22.424
  0
LINE
  8
0
 10
46.2687
 20
-22.424
 11
46.3244
 21
-22.382
  0
LINE
  8
0
 10
46.3244
 20
-22.382
 11
46.3816
 21
-22.3419
  0
LINE
  8
0
 10
46.3816
 20
-22.3419
 11
46.4402
 21
-22.3039
  0
LINE
  8
0
 10
46.4402
 20
-22.3039
 11
46.5
 21
-22.2679
  0
LINE
  8
0
 10
46.5
 20
-22.2679
 11
46.5611
 21
-22.2341
  0
LINE
  8
0
 10
46.5611
 20
-22.2341
 11
46.6233
 21
-22.2024
  0
LINE
  8
0
 10
46.6233
 20
-22.2024
 11
46.6865
 21
-22.1729
  0
LINE
  8
0
 10
46.6865
 20
-22.1729
 11
46.7508
 21
-22.1456
  0
LINE
  8
0
 10
46.7508
 20
-22.1456
 11
46.816
 21
-22.1206
  0
LINE
  8
0
 10
46.816
 20
-22.1206
 11
46.882
 21
-22.0979
  0
LINE
  8
0
 10
46.882
 20
-22.0979
 11
46.9487
 21
-22.0775
  0
LINE
  8
0
 10
46.9487
 20
-22.0775
 11
47.0162
 21
-22.0594
  0
LINE
  8
0
 10
47.0162
 20
-22.0594
 11
47.0842
 21
-22.0437
  0
LINE
  8
0
 10
47.0842
 20
-22.0437
 11
47.1527
 21
-22.0304
  0
LINE
  8
0
 10
47.1527
 20
-22.0304
 11
47.2217
 21
-22.0195
  0
LINE
  8
0
 10
47.2217
 20
-22.0195
 11
47.291
 21
-22.011
  0
LINE
  8
0
 10
47.291
 20
-22.011
 11
47.3605
 21
-22.0049
  0
LINE
  8
0
 10
47.3605
 20
-22.0049
 11
47.4302
 21
-22.0012
  0
LINE
  8
0
 10
47.4302
 20
-22.0012
 11
47.5
 21
-22
  0
LINE
  8
0
 10
47.5
 20
-22
 11
47.5698
 21
-22.0012
  0
LINE
  8
0
 10
47.5698
 20
-22.0012
 11
47.6395
 21
-22.0049
  0
LINE
  8
0
 10
47.6395
 20
-22.0049
 11
47.709
 21
-22.011
  0
LINE
  8
0
 10
47.709
 20
-22.011
 11
47.7783
 21
-22.0195
  0
LINE
  8
0
 10
47.7783
 20
-22.0195
 11
47.8473
 21
-22.0304
  0
LINE
  8
0
 10
47.8473
 20
-22.0304
 11
47.9158
 21
-22.0437
  0
LINE
  8
0
 10
47.9158
 20
-22.0437
 11
47.9838
 21
-22.0594
  0
LINE
  8
0
 10
47.9838
 20
-22.0594
 11
48.0513
 21
-22.0775
  0
LINE
  8
0
 10
48.0513
 20
-22.0775
 11
48.118
 21
-22.0979
  0
LINE
  8
0
 10
48.118
 20
-22.0979
 11
48.184
 21
-22.1206
  0
LINE
  8
0
 10
48.184
 20
-22.1206
 11
48.2492
 21
-22.1456
  0
LINE
  8
0
 10
48.2492
 20
-22.1456
 11
48.3135
 21
-22.1729
  0
LINE
  8
0
 10
48.3135
 20
-22.1729
 11
48.3767
 21
-22.2024
  0
LINE
  8
0
 10
48.3767
 20
-22.2024
 11
48.4389
 21
-22.2341
  0
LINE
  8
0
 10
48.4389
 20
-22.2341
 11
48.5
 21
-22.2679
  0
LINE
  8
0
 10
48.5
 20
-22.2679
 11
48.5598
 21
-22.3039
  0
LINE
  8
0
 10
48.5598
 20
-22.3039
 11
48.6184
 21
-22.3419
  0
LINE
  8
0
 10
48.6184
 20
-22.3419
 11
48.6756
 21
-22.382
  0
LINE
  8
0
 10
48.6756
 20
-22.382
 11
48.7313
 21
-22.424
  0
LINE
  8
0
 10
48.7313
 20
-22.424
 11
48.7856
 21
-22.4679
  0
LINE
  8
0
 10
48.7856
 20
-22.4679
 11
48.8383
 21
-22.5137
  0
LINE
  8
0
 10
48.8383
 20
-22.5137
 11
48.8893
 21
-22.5613
  0
LINE
  8
0
 10
48.8893
 20
-22.5613
 11
48.9387
 21
-22.6107
  0
LINE
  8
0
 10
48.9387
 20
-22.6107
 11
48.9863
 21
-22.6617
  0
LINE
  8
0
 10
48.9863
 20
-22.6617
 11
49.0321
 21
-22.7144
  0
LINE
  8
0
 10
49.0321
 20
-22.7144
 11
49.076
 21
-22.7687
  0
LINE
  8
0
 10
49.076
 20
-22.7687
 11
49.118
 21
-22.8244
  0
LINE
  8
0
 10
49.118
 20
-22.8244
 11
49.1581
 21
-22.8816
  0
LINE
  8
0
 10
49.1581
 20
-22.8816
 11
49.1961
 21
-22.9402
  0
LINE
  8
0
 10
49.1961
 20
-22.9402
 11
49.232
 21
-23
  0
LINE
  8
0
 10
49.232
 20
-23
 11
49.2659
 21
-23.0611
  0
LINE
  8
0
 10
49.2659
 20
-23.0611
 11
49.2976
 21
-23.1232
  0
LINE
  8
0
 10
49.2976
 20
-23.1232
 11
49.3271
 21
-23.1865
  0
LINE
  8
0
 10
49.3271
 20
-23.1865
 11
49.3544
 21
-23.2508
  0
LINE
  8
0
 10
49.3544
 20
-23.2508
 11
49.3794
 21
-23.3159
  0
LINE
  8
0
 10
49.3794
 20
-23.3159
 11
49.4021
 21
-23.382
  0
LINE
  8
0
 10
49.4021
 20
-23.382
 11
49.4225
 21
-23.4487
  0
LINE
  8
0
 10
49.4225
 20
-23.4487
 11
49.4406
 21
-23.5161
  0
LINE
  8
0
 10
49.4406
 20
-23.5161
 11
49.4563
 21
-23.5842
  0
LINE
  8
0
 10
49.4563
 20
-23.5842
 11
49.4696
 21
-23.6527
  0
LINE
  8
0
 10
49.4696
 20
-23.6527
 11
49.4805
 21
-23.7216
  0
LINE
  8
0
 10
49.4805
 20
-23.7216
 11
49.489
 21
-23.7909
  0
LINE
  8
0
 10
49.489
 20
-23.7909
 11
49.4951
 21
-23.8605
  0
LINE
  8
0
 10
49.4951
 20
-23.8605
 11
49.4988
 21
-23.9302
  0
LINE
  8
0
 10
49.4988
 20
-23.9302
 11
49.5
 21
-24
  0
LINE
  8
0
 10
49.5
 20
-24
 11
49.4988
 21
-24.0698
  0
LINE
  8
0
 10
49.4988
 20
-24.0698
 11
49.4951
 21
-24.1395
  0
LINE
  8
0
 10
49.4951
 20
-24.1395
 11
49.489
 21
-24.209
  0
LINE
  8
0
 10
49.489
 20
-24.209
 11
49.4805
 21
-24.2783
  0
LINE
  8
0
 10
49.4805
 20
-24.2783
 11
49.4696
 21
-24.3473
  0
LINE
  8
0
 10
49.4696
 20
-24.3473
 11
49.4563
 21
-24.4158
  0
LINE
  8
0
 10
49.4563
 20
-24.4158
 11
49.4406
 21
-24.4838
  0
LINE
  8
0
 10
49.4406
 20
-24.4838
 11
49.4225
 21
-24.5513
  0
LINE
  8
0
 10
49.4225
 20
-24.5513
 11
49.4021
 21
-24.618
  0
LINE
  8
0
 10
49.4021
 20
-24.618
 11
49.3794
 21
-24.684
  0
LINE
  8
0
 10
49.3794
 20
-24.684
 11
49.3544
 21
-24.7492
  0
LINE
  8
0
 10
49.3544
 20
-24.7492
 11
49.3271
 21
-24.8135
  0
LINE
  8
0
 10
49.3271
 20
-24.8135
 11
49.2976
 21
-24.8767
  0
LINE
  8
0
 10
49.2976
 20
-24.8767
 11
49.2659
 21
-24.9389
  0
LINE
  8
0
 10
49.2659
 20
-24.9389
 11
49.232
 21
-25
  0
LINE
  8
0
 10
49.232
 20
-25
 11
49.1961
 21
-25.0598
  0
LINE
  8
0
 10
49.1961
 20
-25.0598
 11
49.1581
 21
-25.1184
  0
LINE
  8
0
 10
49.1581
 20
-25.1184
 11
49.118
 21
-25.1756
  0
LINE
  8
0
 10
49.118
 20
-25.1756
 11
49.076
 21
-25.2313
  0
LINE
  8
0
 10
49.076
 20
-25.2313
 11
49.0321
 21
-25.2856
  0
LINE
  8
0
 10
49.0321
 20
-25.2856
 11
48.9863
 21
-25.3383
  0
LINE
  8
0
 10
48.9863
 20
-25.3383
 11
48.9387
 21
-25.3893
  0
LINE
  8
0
 10
48.9387
 20
-25.3893
 11
48.8893
 21
-25.4387
  0
LINE
  8
0
 10
48.8893
 20
-25.4387
 11
48.8383
 21
-25.4863
  0
LINE
  8
0
 10
48.8383
 20
-25.4863
 11
48.7856
 21
-25.5321
  0
LINE
  8
0
 10
48.7856
 20
-25.5321
 11
48.7313
 21
-25.576
  0
LINE
  8
0
 10
48.7313
 20
-25.576
 11
48.6756
 21
-25.618
  0
LINE
  8
0
 10
48.6756
 20
-25.618
 11
48.6184
 21
-25.6581
  0
LINE
  8
0
 10
48.6184
 20
-25.6581
 11
48.5598
 21
-25.6961
  0
LINE
  8
0
 10
48.5598
 20
-25.6961
 11
48.5
 21
-25.732
  0
LINE
  8
0
 10
48.5
 20
-25.732
 11
48.4389
 21
-25.7659
  0
LINE
  8
0
 10
48.4389
 20
-25.7659
 11
48.3767
 21
-25.7976
  0
LINE
  8
0
 10
48.3767
 20
-25.7976
 11
48.3135
 21
-25.8271
  0
LINE
  8
0
 10
48.3135
 20
-25.8271
 11
48.2492
 21
-25.8544
  0
LINE
  8
0
 10
48.2492
 20
-25.8544
 11
48.184
 21
-25.8794
  0
LINE
  8
0
 10
48.184
 20
-25.8794
 11
48.118
 21
-25.9021
  0
LINE
  8
0
 10
48.118
 20
-25.9021
 11
48.0513
 21
-25.9225
  0
LINE
  8
0
 10
48.0513
 20
-25.9225
 11
47.9838
 21
-25.9406
  0
LINE
  8
0
 10
47.9838
 20
-25.9406
 11
47.9158
 21
-25.9563
  0
LINE
  8
0
 10
47.9158
 20
-25.9563
 11
47.8473
 21
-25.9696
  0
LINE
  8
0
 10
47.8473
 20
-25.9696
 11
47.7783
 21
-25.9805
  0
LINE
  8
0
 10
47.7783
 20
-25.9805
 11
47.709
 21
-25.989
  0
LINE
  8
0
 10
47.709
 20
-25.989
 11
47.6395
 21
-25.9951
  0
LINE
  8
0
 10
47.6395
 20
-25.9951
 11
47.5698
 21
-25.9988
  0
LINE
  8
0
 10
47.5698
 20
-25.9988
 11
47.5
 21
-26
  0
LINE
  8
0
 10
47.5
 20
-26
 11
47.4302
 21
-25.9988
  0
LINE
  8
0
 10
151.93
 20
-25.9988
 11
151.86
 21
-25.9951
  0
LINE
  8
0
 10
151.86
 20
-25.9951
 11
151.791
 21
-25.989
  0
LINE
  8
0
 10
151.791
 20
-25.989
 11
151.722
 21
-25.9805
  0
LINE
  8
0
 10
151.722
 20
-25.9805
 11
151.653
 21
-25.9696
  0
LINE
  8
0
 10
151.653
 20
-25.9696
 11
151.584
 21
-25.9563
  0
LINE
  8
0
 10
151.584
 20
-25.9563
 11
151.516
 21
-25.9406
  0
LINE
  8
0
 10
151.516
 20
-25.9406
 11
151.449
 21
-25.9225
  0
LINE
  8
0
 10
151.449
 20
-25.9225
 11
151.382
 21
-25.9021
  0
LINE
  8
0
 10
151.382
 20
-25.9021
 11
151.316
 21
-25.8794
  0
LINE
  8
0
 10
151.316
 20
-25.8794
 11
151.251
 21
-25.8544
  0
LINE
  8
0
 10
151.251
 20
-25.8544
 11
151.187
 21
-25.8271
  0
LINE
  8
0
 10
151.187
 20
-25.8271
 11
151.123
 21
-25.7976
  0
LINE
  8
0
 10
151.123
 20
-25.7976
 11
151.061
 21
-25.7659
  0
LINE
  8
0
 10
151.061
 20
-25.7659
 11
151
 21
-25.732
  0
LINE
  8
0
 10
151
 20
-25.732
 11
150.94
 21
-25.6961
  0
LINE
  8
0
 10
150.94
 20
-25.6961
 11
150.882
 21
-25.6581
  0
LINE
  8
0
 10
150.882
 20
-25.6581
 11
150.824
 21
-25.618
  0
LINE
  8
0
 10
150.824
 20
-25.618
 11
150.769
 21
-25.576
  0
LINE
  8
0
 10
150.769
 20
-25.576
 11
150.714
 21
-25.5321
  0
LINE
  8
0
 10
150.714
 20
-25.5321
 11
150.662
 21
-25.4863
  0
LINE
  8
0
 10
150.662
 20
-25.4863
 11
150.611
 21
-25.4387
  0
LINE
  8
0
 10
150.611
 20
-25.4387
 11
150.561
 21
-25.3893
  0
LINE
  8
0
 10
150.561
 20
-25.3893
 11
150.514
 21
-25.3383
  0
LINE
  8
0
 10
150.514
 20
-25.3383
 11
150.468
 21
-25.2856
  0
LINE
  8
0
 10
150.468
 20
-25.2856
 11
150.424
 21
-25.2313
  0
LINE
  8
0
 10
150.424
 20
-25.2313
 11
150.382
 21
-25.1756
  0
LINE
  8
0
 10
150.382
 20
-25.1756
 11
150.342
 21
-25.1184
  0
LINE
  8
0
 10
150.342
 20
-25.1184
 11
150.304
 21
-25.0598
  0
LINE
  8
0
 10
150.304
 20
-25.0598
 11
150.268
 21
-25
  0
LINE
  8
0
 10
150.268
 20
-25
 11
150.234
 21
-24.9389
  0
LINE
  8
0
 10
150.234
 20
-24.9389
 11
150.202
 21
-24.8767
  0
LINE
  8
0
 10
150.202
 20
-24.8767
 11
150.173
 21
-24.8135
  0
LINE
  8
0
 10
150.173
 20
-24.8135
 11
150.146
 21
-24.7492
  0
LINE
  8
0
 10
150.146
 20
-24.7492
 11
150.121
 21
-24.684
  0
LINE
  8
0
 10
150.121
 20
-24.684
 11
150.098
 21
-24.618
  0
LINE
  8
0
 10
150.098
 20
-24.618
 11
150.077
 21
-24.5513
  0
LINE
  8
0
 10
150.077
 20
-24.5513
 11
150.059
 21
-24.4838
  0
LINE
  8
0
 10
150.059
 20
-24.4838
 11
150.044
 21
-24.4158
  0
LINE
  8
0
 10
150.044
 20
-24.4158
 11
150.03
 21
-24.3473
  0
LINE
  8
0
 10
150.03
 20
-24.3473
 11
150.019
 21
-24.2783
  0
LINE
  8
0
 10
150.019
 20
-24.2783
 11
150.011
 21
-24.209
  0
LINE
  8
0
 10
150.011
 20
-24.209
 11
150.005
 21
-24.1395
  0
LINE
  8
0
 10
150.005
 20
-24.1395
 11
150.001
 21
-24.0698
  0
LINE
  8
0
 10
150.001
 20
-24.0698
 11
150
 21
-24
  0
LINE
  8
0
 10
150
 20
-24
 11
150.001
 21
-23.9302
  0
LINE
  8
0
 10
150.001
 20
-23.9302
 11
150.005
 21
-23.8605
  0
LINE
  8
0
 10
150.005
 20
-23.8605
 11
150.011
 21
-23.7909
  0
LINE
  8
0
 10
150.011
 20
-23.7909
 11
150.019
 21
-23.7216
  0
LINE
  8
0
 10
150.019
 20
-23.7216
 11
150.03
 21
-23.6527
  0
LINE
  8
0
 10
150.03
 20
-23.6527
 11
150.044
 21
-23.5842
  0
LINE
  8
0
 10
150.044
 20
-23.5842
 11
150.059
 21
-23.5161
  0
LINE
  8
0
 10
150.059
 20
-23.5161
 11
150.077
 21
-23.4487
  0
LINE
  8
0
 10
150.077
 20
-23.4487
 11
150.098
 21
-23.382
  0
LINE
  8
0
 10
150.098
 20
-23.382
 11
150.121
 21
-23.3159
  0
LINE
  8
0
 10
150.121
 20
-23.3159
 11
150.146
 21
-23.2508
  0
LINE
  8
0
 10
150.146
 20
-23.2508
 11
150.173
 21
-23.1865
  0
LINE
  8
0
 10
150.173
 20
-23.1865
 11
150.202
 21
-23.1232
  0
LINE
  8
0
 10
150.202
 20
-23.1232
 11
150.234
 21
-23.0611
  0
LINE
  8
0
 10
150.234
 20
-23.0611
 11
150.268
 21
-23
  0
LINE
  8
0
 10
150.268
 20
-23
 11
150.304
 21
-22.9402
  0
LINE
  8
0
 10
150.304
 20
-22.9402
 11
150.342
 21
-22.8816
  0
LINE
  8
0
 10
150.342
 20
-22.8816
 11
150.382
 21
-22.8244
  0
LINE
  8
0
 10
150.382
 20
-22.8244
 11
150.424
 21
-22.7687
  0
LINE
  8
0
 10
150.424
 20
-22.7687
 11
150.468
 21
-22.7144
  0
LINE
  8
0
 10
150.468
 20
-22.7144
 11
150.514
 21
-22.6617
  0
LINE
  8
0
 10
150.514
 20
-22.6617
 11
150.561
 21
-22.6107
  0
LINE
  8
0
 10
150.561
 20
-22.6107
 11
150.611
 21
-22.5613
  0
LINE
  8
0
 10
150.611
 20
-22.5613
 11
150.662
 21
-22.5137
  0
LINE
  8
0
 10
150.662
 20
-22.5137
 11
150.714
 21
-22.4679
  0
LINE
  8
0
 10
150.714
 20
-22.4679
 11
150.769
 21
-22.424
  0
LINE
  8
0
 10
150.769
 20
-22.424
 11
150.824
 21
-22.382
  0
LINE
  8
0
 10
150.824
 20
-22.382
 11
150.882
 21
-22.3419
  0
LINE
  8
0
 10
150.882
 20
-22.3419
 11
150.94
 21
-22.3039
  0
LINE
  8
0
 10
150.94
 20
-22.3039
 11
151
 21
-22.2679
  0
LINE
  8
0
 10
151
 20
-22.2679
 11
151.061
 21
-22.2341
  0
LINE
  8
0
 10
151.061
 20
-22.2341
 11
151.123
 21
-22.2024
  0
LINE
  8
0
 10
151.123
 20
-22.2024
 11
151.187
 21
-22.1729
  0
LINE
  8
0
 10
151.187
 20
-22.1729
 11
151.251
 21
-22.1456
  0
LINE
  8
0
 10
151.251
 20
-22.1456
 11
151.316
 21
-22.1206
  0
LINE
  8
0
 10
151.316
 20
-22.1206
 11
151.382
 21
-22.0979
  0
LINE
  8
0
 10
151.382
 20
-22.0979
 11
151.449
 21
-22.0775
  0
LINE
  8
0
 10
151.449
 20
-22.0775
 11
151.516
 21
-22.0594
  0
LINE
  8
0
 10
151.516
 20
-22.0594
 11
151.584
 21
-22.0437
  0
LINE
  8
0
 10
151.584
 20
-22.0437
 11
151.653
 21
-22.0304
  0
LINE
  8
0
 10
151.653
 20
-22.0304
 11
151.722
 21
-22.0195
  0
LINE
  8
0
 10
151.722
 20
-22.0195
 11
151.791
 21
-22.011
  0
LINE
  8
0
 10
151.791
 20
-22.011
 11
151.86
 21
-22.0049
  0
LINE
  8
0
 10
151.86
 20
-22.0049
 11
151.93
 21
-22.0012
  0
LINE
  8
0
 10
151.93
 20
-22.0012
 11
152
 21
-22
  0
LINE
  8
0
 10
152
 20
-22
 11
152.07
 21
-22.0012
  0
LINE
  8
0
 10
152.07
 20
-22.0012
 11
152.14
 21
-22.0049
  0
LINE
  8
0
 10
152.14
 20
-22.0049
 11
152.209
 21
-22.011
  0
LINE
  8
0
 10
152.209
 20
-22.011
 11
152.278
 21
-22.0195
  0
LINE
  8
0
 10
152.278
 20
-22.0195
 11
152.347
 21
-22.0304
  0
LINE
  8
0
 10
152.347
 20
-22.0304
 11
152.416
 21
-22.0437
  0
LINE
  8
0
 10
152.416
 20
-22.0437
 11
152.484
 21
-22.0594
  0
LINE
  8
0
 10
152.484
 20
-22.0594
 11
152.551
 21
-22.0775
  0
LINE
  8
0
 10
152.551
 20
-22.0775
 11
152.618
 21
-22.0979
  0
LINE
  8
0
 10
152.618
 20
-22.0979
 11
152.684
 21
-22.1206
  0
LINE
  8
0
 10
152.684
 20
-22.1206
 11
152.749
 21
-22.1456
  0
LINE
  8
0
 10
152.749
 20
-22.1456
 11
152.813
 21
-22.1729
  0
LINE
  8
0
 10
152.813
 20
-22.1729
 11
152.877
 21
-22.2024
  0
LINE
  8
0
 10
152.877
 20
-22.2024
 11
152.939
 21
-22.2341
  0
LINE
  8
0
 10
152.939
 20
-22.2341
 11
153
 21
-22.2679
  0
LINE
  8
0
 10
153
 20
-22.2679
 11
153.06
 21
-22.3039
  0
LINE
  8
0
 10
153.06
 20
-22.3039
 11
153.118
 21
-22.3419
  0
LINE
  8
0
 10
153.118
 20
-22.3419
 11
153.176
 21
-22.382
  0
LINE
  8
0
 10
153.176
 20
-22.382
 11
153.231
 21
-22.424
  0
LINE
  8
0
 10
153.231
 20
-22.424
 11
153.286
 21
-22.4679
  0
LINE
  8
0
 10
153.286
 20
-22.4679
 11
153.338
 21
-22.5137
  0
LINE
  8
0
 10
153.338
 20
-22.5137
 11
153.389
 21
-22.5613
  0
LINE
  8
0
 10
153.389
 20
-22.5613
 11
153.439
 21
-22.6107
  0
LINE
  8
0
 10
153.439
 20
-22.6107
 11
153.486
 21
-22.6617
  0
LINE
  8
0
 10
153.486
 20
-22.6617
 11
153.532
 21
-22.7144
  0
LINE
  8
0
 10
153.532
 20
-22.7144
 11
153.576
 21
-22.7687
  0
LINE
  8
0
 10
153.576
 20
-22.7687
 11
153.618
 21
-22.8244
  0
LINE
  8
0
 10
153.618
 20
-22.8244
 11
153.658
 21
-22.8816
  0
LINE
  8
0
 10
153.658
 20
-22.8816
 11
153.696
 21
-22.9402
  0
LINE
  8
0
 10
153.696
 20
-22.9402
 11
153.732
 21
-23
  0
LINE
  8
0
 10
153.732
 20
-23
 11
153.766
 21
-23.0611
  0
LINE
  8
0
 10
153.766
 20
-23.0611
 11
153.798
 21
-23.1232
  0
LINE
  8
0
 10
153.798
 20
-23.1232
 11
153.827
 21
-23.1865
  0
LINE
  8
0
 10
153.827
 20
-23.1865
 11
153.854
 21
-23.2508
  0
LINE
  8
0
 10
153.854
 20
-23.2508
 11
153.879
 21
-23.3159
  0
LINE
  8
0
 10
153.879
 20
-23.3159
 11
153.902
 21
-23.382
  0
LINE
  8
0
 10
153.902
 20
-23.382
 11
153.923
 21
-23.4487
  0
LINE
  8
0
 10
153.923
 20
-23.4487
 11
153.941
 21
-23.5161
  0
LINE
  8
0
 10
153.941
 20
-23.5161
 11
153.956
 21
-23.5842
  0
LINE
  8
0
 10
153.956
 20
-23.5842
 11
153.97
 21
-23.6527
  0
LINE
  8
0
 10
153.97
 20
-23.6527
 11
153.981
 21
-23.7216
  0
LINE
  8
0
 10
153.981
 20
-23.7216
 11
153.989
 21
-23.7909
  0
LINE
  8
0
 10
153.989
 20
-23.7909
 11
153.995
 21
-23.8605
  0
LINE
  8
0
 10
153.995
 20
-23.8605
 11
153.999
 21
-23.9302
  0
LINE
  8
0
 10
153.999
 20
-23.9302
 11
154
 21
-24
  0
LINE
  8
0
 10
154
 20
-24
 11
153.999
 21
-24.0698
  0
LINE
  8
0
 10
153.999
 20
-24.0698
 11
153.995
 21
-24.1395
  0
LINE
  8
0
 10
153.995
 20
-24.1395
 11
153.989
 21
-24.209
  0
LINE
  8
0
 10
153.989
 20
-24.209
 11
153.981
 21
-24.2783
  0
LINE
  8
0
 10
153.981
 20
-24.2783
 11
153.97
 21
-24.3473
  0
LINE
  8
0
 10
153.97
 20
-24.3473
 11
153.956
 21
-24.4158
  0
LINE
  8
0
 10
153.956
 20
-24.4158
 11
153.941
 21
-24.4838
  0
LINE
  8
0
 10
153.941
 20
-24.4838
 11
153.923
 21
-24.5513
  0
LINE
  8
0
 10
153.923
 20
-24.5513
 11
153.902
 21
-24.618
  0
LINE
  8
0
 10
153.902
 20
-24.618
 11
153.879
 21
-24.684
  0
LINE
  8
0
 10
153.879
 20
-24.684
 11
153.854
 21
-24.7492
  0
LINE
  8
0
 10
153.854
 20
-24.7492
 11
153.827
 21
-24.8135
  0
LINE
  8
0
 10
153.827
 20
-24.8135
 11
153.798
 21
-24.8767
  0
LINE
  8
0
 10
153.798
 20
-24.8767
 11
153.766
 21
-24.9389
  0
LINE
  8
0
 10
153.766
 20
-24.9389
 11
153.732
 21
-25
  0
LINE
  8
0
 10
153.732
 20
-25
 11
153.696
 21
-25.0598
  0
LINE
  8
0
 10
153.696
 20
-25.0598
 11
153.658
 21
-25.1184
  0
LINE
  8
0
 10
153.658
 20
-25.1184
 11
153.618
 21
-25.1756
  0
LINE
  8
0
 10
153.618
 20
-25.1756
 11
153.576
 21
-25.2313
  0
LINE
  8
0
 10
153.576
 20
-25.2313
 11
153.532
 21
-25.2856
  0
LINE
  8
0
 10
153.532
 20
-25.2856
 11
153.486
 21
-25.3383
  0
LINE
  8
0
 10
153.486
 20
-25.3383
 11
153.439
 21
-25.3893
  0
LINE
  8
0
 10
153.439
 20
-25.3893
 11
153.389
 21
-25.4387
  0
LINE
  8
0
 10
153.389
 20
-25.4387
 11
153.338
 21
-25.4863
  0
LINE
  8
0
 10
153.338
 20
-25.4863
 11
153.286
 21
-25.5321
  0
LINE
  8
0
 10
153.286
 20
-25.5321
 11
153.231
 21
-25.576
  0
LINE
  8
0
 10
153.231
 20
-25.576
 11
153.176
 21
-25.618
  0
LINE
  8
0
 10
153.176
 20
-25.618
 11
153.118
 21
-25.6581
  0
LINE
  8
0
 10
153.118
 20
-25.6581
 11
153.06
 21
-25.6961
  0
LINE
  8
0
 10
153.06
 20
-25.6961
 11
153
 21
-25.732
  0
LINE
  8
0
 10
153
 20
-25.732
 11
152.939
 21
-25.7659
  0
LINE
  8
0
 10
152.939
 20
-25.7659
 11
152.877
 21
-25.7976
  0
LINE
  8
0
 10
152.877
 20
-25.7976
 11
152.813
 21
-25.8271
  0
LINE
  8
0
 10
152.813
 20
-25.8271
 11
152.749
 21
-25.8544
  0
LINE
  8
0
 10
152.749
 20
-25.8544
 11
152.684
 21
-25.8794
  0
LINE
  8
0
 10
152.684
 20
-25.8794
 11
152.618
 21
-25.9021
  0
LINE
  8
0
 10
152.618
 20
-25.9021
 11
152.551
 21
-25.9225
  0
LINE
  8
0
 10
152.551
 20
-25.9225
 11
152.484
 21
-25.9406
  0
LINE
  8
0
 10
152.484
 20
-25.9406
 11
152.416
 21
-25.9563
  0
LINE
  8
0
 10
152.416
 20
-25.9563
 11
152.347
 21
-25.9696
  0
LINE
  8
0
 10
152.347
 20
-25.9696
 11
152.278
 21
-25.9805
  0
LINE
  8
0
 10
152.278
 20
-25.9805
 11
152.209
 21
-25.989
  0
LINE
  8
0
 10
152.209
 20
-25.989
 11
152.14
 21
-25.9951
  0
LINE
  8
0
 10
152.14
 20
-25.9951
 11
152.07
 21
-25.9988
  0
LINE
  8
0
 10
152.07
 20
-25.9988
 11
152
 21
-26
  0
LINE
  8
0
 10
152
 20
-26
 11
151.93
 21
-25.9988
  0
LINE
  8
0
 10
256.43
 20
-25.9988
 11
256.36
 21
-25.9951
  0
LINE
  8
0
 10
256.36
 20
-25.9951
 11
256.291
 21
-25.989
  0
LINE
  8
0
 10
256.291
 20
-25.989
 11
256.222
 21
-25.9805
  0
LINE
  8
0
 10
256.222
 20
-25.9805
 11
256.153
 21
-25.9696
  0
LINE
  8
0
 10
256.153
 20
-25.9696
 11
256.084
 21
-25.9563
  0
LINE
  8
0
 10
256.084
 20
-25.9563
 11
256.016
 21
-25.9406
  0
LINE
  8
0
 10
256.016
 20
-25.9406
 11
255.949
 21
-25.9225
  0
LINE
  8
0
 10
255.949
 20
-25.9225
 11
255.882
 21
-25.9021
  0
LINE
  8
0
 10
255.882
 20
-25.9021
 11
255.816
 21
-25.8794
  0
LINE
  8
0
 10
255.816
 20
-25.8794
 11
255.751
 21
-25.8544
  0
LINE
  8
0
 10
255.751
 20
-25.8544
 11
255.687
 21
-25.8271
  0
LINE
  8
0
 10
255.687
 20
-25.8271
 11
255.623
 21
-25.7976
  0
LINE
  8
0
 10
255.623
 20
-25.7976
 11
255.561
 21
-25.7659
  0
LINE
  8
0
 10
255.561
 20
-25.7659
 11
255.5
 21
-25.732
  0
LINE
  8
0
 10
255.5
 20
-25.732
 11
255.44
 21
-25.6961
  0
LINE
  8
0
 10
255.44
 20
-25.6961
 11
255.382
 21
-25.6581
  0
LINE
  8
0
 10
255.382
 20
-25.6581
 11
255.324
 21
-25.618
  0
LINE
  8
0
 10
255.324
 20
-25.618
 11
255.269
 21
-25.576
  0
LINE
  8
0
 10
255.269
 20
-25.576
 11
255.214
 21
-25.5321
  0
LINE
  8
0
 10
255.214
 20
-25.5321
 11
255.162
 21
-25.4863
  0
LINE
  8
0
 10
255.162
 20
-25.4863
 11
255.111
 21
-25.4387
  0
LINE
  8
0
 10
255.111
 20
-25.4387
 11
255.061
 21
-25.3893
  0
LINE
  8
0
 10
255.061
 20
-25.3893
 11
255.014
 21
-25.3383
  0
LINE
  8
0
 10
255.014
 20
-25.3383
 11
254.968
 21
-25.2856
  0
LINE
  8
0
 10
254.968
 20
-25.2856
 11
254.924
 21
-25.2313
  0
LINE
  8
0
 10
254.924
 20
-25.2313
 11
254.882
 21
-25.1756
  0
LINE
  8
0
 10
254.882
 20
-25.1756
 11
254.842
 21
-25.1184
  0
LINE
  8
0
 10
254.842
 20
-25.1184
 11
254.804
 21
-25.0598
  0
LINE
  8
0
 10
254.804
 20
-25.0598
 11
254.768
 21
-25
  0
LINE
  8
0
 10
254.768
 20
-25
 11
254.734
 21
-24.9389
  0
LINE
  8
0
 10
254.734
 20
-24.9389
 11
254.702
 21
-24.8767
  0
LINE
  8
0
 10
254.702
 20
-24.8767
 11
254.673
 21
-24.8135
  0
LINE
  8
0
 10
254.673
 20
-24.8135
 11
254.646
 21
-24.7492
  0
LINE
  8
0
 10
254.646
 20
-24.7492
 11
254.621
 21
-24.684
  0
LINE
  8
0
 10
254.621
 20
-24.684
 11
254.598
 21
-24.618
  0
LINE
  8
0
 10
254.598
 20
-24.618
 11
254.577
 21
-24.5513
  0
LINE
  8
0
 10
254.577
 20
-24.5513
 11
254.559
 21
-24.4838
  0
LINE
  8
0
 10
254.559
 20
-24.4838
 11
254.544
 21
-24.4158
  0
LINE
  8
0
 10
254.544
 20
-24.4158
 11
254.53
 21
-24.3473
  0
LINE
  8
0
 10
254.53
 20
-24.3473
 11
254.519
 21
-24.2783
  0
LINE
  8
0
 10
254.519
 20
-24.2783
 11
254.511
 21
-24.209
  0
LINE
  8
0
 10
254.511
 20
-24.209
 11
254.505
 21
-24.1395
  0
LINE
  8
0
 10
254.505
 20
-24.1395
 11
254.501
 21
-24.0698
  0
LINE
  8
0
 10
254.501
 20
-24.0698
 11
254.5
 21
-24
  0
LINE
  8
0
 10
254.5
 20
-24
 11
254.501
 21
-23.9302
  0
LINE
  8
0
 10
254.501
 20
-23.9302
 11
254.505
 21
-23.8605
  0
LINE
  8
0
 10
254.505
 20
-23.8605
 11
254.511
 21
-23.7909
  0
LINE
  8
0
 10
254.511
 20
-23.7909
 11
254.519
 21
-23.7216
  0
LINE
  8
0
 10
254.519
 20
-23.7216
 11
254.53
 21
-23.6527
  0
LINE
  8
0
 10
254.53
 20
-23.6527
 11
254.544
 21
-23.5842
  0
LINE
  8
0
 10
254.544
 20
-23.5842
 11
254.559
 21
-23.5161
  0
LINE
  8
0
 10
254.559
 20
-23.5161
 11
254.577
 21
-23.4487
  0
LINE
  8
0
 10
254.577
 20
-23.4487
 11
254.598
 21
-23.382
  0
LINE
  8
0
 10
254.598
 20
-23.382
 11
254.621
 21
-23.3159
  0
LINE
  8
0
 10
254.621
 20
-23.3159
 11
254.646
 21
-23.2508
  0
LINE
  8
0
 10
254.646
 20
-23.2508
 11
254.673
 21
-23.1865
  0
LINE
  8
0
 10
254.673
 20
-23.1865
 11
254.702
 21
-23.1232
  0
LINE
  8
0
 10
254.702
 20
-23.1232
 11
254.734
 21
-23.0611
  0
LINE
  8
0
 10
254.734
 20
-23.0611
 11
254.768
 21
-23
  0
LINE
  8
0
 10
254.768
 20
-23
 11
254.804
 21
-22.9402
  0
LINE
  8
0
 10
254.804
 20
-22.9402
 11
254.842
 21
-22.8816
  0
LINE
  8
0
 10
254.842
 20
-22.8816
 11
254.882
 21
-22.8244
  0
LINE
  8
0
 10
254.882
 20
-22.8244
 11
254.924
 21
-22.7687
  0
LINE
  8
0
 10
254.924
 20
-22.7687
 11
254.968
 21
-22.7144
  0
LINE
  8
0
 10
254.968
 20
-22.7144
 11
255.014
 21
-22.6617
  0
LINE
  8
0
 10
255.014
 20
-22.6617
 11
255.061
 21
-22.6107
  0
LINE
  8
0
 10
255.061
 20
-22.6107
 11
255.111
 21
-22.5613
  0
LINE
  8
0
 10
255.111
 20
-22.5613
 11
255.162
 21
-22.5137
  0
LINE
  8
0
 10
255.162
 20
-22.5137
 11
255.214
 21
-22.4679
  0
LINE
  8
0
 10
255.214
 20
-22.4679
 11
255.269
 21
-22.424
  0
LINE
  8
0
 10
255.269
 20
-22.424
 11
255.324
 21
-22.382
  0
LINE
  8
0
 10
255.324
 20
-22.382
 11
255.382
 21
-22.3419
  0
LINE
  8
0
 10
255.382
 20
-22.3419
 11
255.44
 21
-22.3039
  0
LINE
  8
0
 10
255.44
 20
-22.3039
 11
255.5
 21
-22.2679
  0
LINE
  8
0
 10
255.5
 20
-22.2679
 11
255.561
 21
-22.2341
  0
LINE
  8
0
 10
255.561
 20
-22.2341
 11
255.623
 21
-22.2024
  0
LINE
  8
0
 10
255.623
 20
-22.2024
 11
255.687
 21
-22.1729
  0
LINE
  8
0
 10
255.687
 20
-22.1729
 11
255.751
 21
-22.1456
  0
LINE
  8
0
 10
255.751
 20
-22.1456
 11
255.816
 21
-22.1206
  0
LINE
  8
0
 10
255.816
 20
-22.1206
 11
255.882
 21
-22.0979
  0
LINE
  8
0
 10
255.882
 20
-22.0979
 11
255.949
 21
-22.0775
  0
LINE
  8
0
 10
255.949
 20
-22.0775
 11
256.016
 21
-22.0594
  0
LINE
  8
0
 10
256.016
 20
-22.0594
 11
256.084
 21
-22.0437
  0
LINE
  8
0
 10
256.084
 20
-22.0437
 11
256.153
 21
-22.0304
  0
LINE
  8
0
 10
256.153
 20
-22.0304
 11
256.222
 21
-22.0195
  0
LINE
  8
0
 10
256.222
 20
-22.0195
 11
256.291
 21
-22.011
  0
LINE
  8
0
 10
256.291
 20
-22.011
 11
256.36
 21
-22.0049
  0
LINE
  8
0
 10
256.36
 20
-22.0049
 11
256.43
 21
-22.0012
  0
LINE
  8
0
 10
256.43
 20
-22.0012
 11
256.5
 21
-22
  0
LINE
  8
0
 10
256.5
 20
-22
 11
256.57
 21
-22.0012
  0
LINE
  8
0
 10
256.57
 20
-22.0012
 11
256.64
 21
-22.0049
  0
LINE
  8
0
 10
256.64
 20
-22.0049
 11
256.709
 21
-22.011
  0
LINE
  8
0
 10
256.709
 20
-22.011
 11
256.778
 21
-22.0195
  0
LINE
  8
0
 10
256.778
 20
-22.0195
 11
256.847
 21
-22.0304
  0
LINE
  8
0
 10
256.847
 20
-22.0304
 11
256.916
 21
-22.0437
  0
LINE
  8
0
 10
256.916
 20
-22.0437
 11
256.984
 21
-22.0594
  0
LINE
  8
0
 10
256.984
 20
-22.0594
 11
257.051
 21
-22.0775
  0
LINE
  8
0
 10
257.051
 20
-22.0775
 11
257.118
 21
-22.0979
  0
LINE
  8
0
 10
257.118
 20
-22.0979
 11
257.184
 21
-22.1206
  0
LINE
  8
0
 10
257.184
 20
-22.1206
 11
257.249
 21
-22.1456
  0
LINE
  8
0
 10
257.249
 20
-22.1456
 11
257.313
 21
-22.1729
  0
LINE
  8
0
 10
257.313
 20
-22.1729
 11
257.377
 21
-22.2024
  0
LINE
  8
0
 10
257.377
 20
-22.2024
 11
257.439
 21
-22.2341
  0
LINE
  8
0
 10
257.439
 20
-22.2341
 11
257.5
 21
-22.2679
  0
LINE
  8
0
 10
257.5
 20
-22.2679
 11
257.56
 21
-22.3039
  0
LINE
  8
0
 10
257.56
 20
-22.3039
 11
257.618
 21
-22.3419
  0
LINE
  8
0
 10
257.618
 20
-22.3419
 11
257.676
 21
-22.382
  0
LINE
  8
0
 10
257.676
 20
-22.382
 11
257.731
 21
-22.424
  0
LINE
  8
0
 10
257.731
 20
-22.424
 11
257.786
 21
-22.4679
  0
LINE
  8
0
 10
257.786
 20
-22.4679
 11
257.838
 21
-22.5137
  0
LINE
  8
0
 10
257.838
 20
-22.5137
 11
257.889
 21
-22.5613
  0
LINE
  8
0
 10
257.889
 20
-22.5613
 11
257.939
 21
-22.6107
  0
LINE
  8
0
 10
257.939
 20
-22.6107
 11
257.986
 21
-22.6617
  0
LINE
  8
0
 10
257.986
 20
-22.6617
 11
258.032
 21
-22.7144
  0
LINE
  8
0
 10
258.032
 20
-22.7144
 11
258.076
 21
-22.7687
  0
LINE
  8
0
 10
258.076
 20
-22.7687
 11
258.118
 21
-22.8244
  0
LINE
  8
0
 10
258.118
 20
-22.8244
 11
258.158
 21
-22.8816
  0
LINE
  8
0
 10
258.158
 20
-22.8816
 11
258.196
 21
-22.9402
  0
LINE
  8
0
 10
258.196
 20
-22.9402
 11
258.232
 21
-23
  0
LINE
  8
0
 10
258.232
 20
-23
 11
258.266
 21
-23.0611
  0
LINE
  8
0
 10
258.266
 20
-23.0611
 11
258.298
 21
-23.1232
  0
LINE
  8
0
 10
258.298
 20
-23.1232
 11
258.327
 21
-23.1865
  0
LINE
  8
0
 10
258.327
 20
-23.1865
 11
258.354
 21
-23.2508
  0
LINE
  8
0
 10
258.354
 20
-23.2508
 11
258.379
 21
-23.3159
  0
LINE
  8
0
 10
258.379
 20
-23.3159
 11
258.402
 21
-23.382
  0
LINE
  8
0
 10
258.402
 20
-23.382
 11
258.423
 21
-23.4487
  0
LINE
  8
0
 10
258.423
 20
-23.4487
 11
258.441
 21
-23.5161
  0
LINE
  8
0
 10
258.441
 20
-23.5161
 11
258.456
 21
-23.5842
  0
LINE
  8
0
 10
258.456
 20
-23.5842
 11
258.47
 21
-23.6527
  0
LINE
  8
0
 10
258.47
 20
-23.6527
 11
258.481
 21
-23.7216
  0
LINE
  8
0
 10
258.481
 20
-23.7216
 11
258.489
 21
-23.7909
  0
LINE
  8
0
 10
258.489
 20
-23.7909
 11
258.495
 21
-23.8605
  0
LINE
  8
0
 10
258.495
 20
-23.8605
 11
258.499
 21
-23.9302
  0
LINE
  8
0
 10
258.499
 20
-23.9302
 11
258.5
 21
-24
  0
LINE
  8
0
 10
258.5
 20
-24
 11
258.499
 21
-24.0698
  0
LINE
  8
0
 10
258.499
 20
-24.0698
 11
258.495
 21
-24.1395
  0
LINE
  8
0
 10
258.495
 20
-24.1395
 11
258.489
 21
-24.209
  0
LINE
  8
0
 10
258.489
 20
-24.209
 11
258.481
 21
-24.2783
  0
LINE
  8
0
 10
258.481
 20
-24.2783
 11
258.47
 21
-24.3473
  0
LINE
  8
0
 10
258.47
 20
-24.3473
 11
258.456
 21
-24.4158
  0
LINE
  8
0
 10
258.456
 20
-24.4158
 11
258.441
 21
-24.4838
  0
LINE
  8
0
 10
258.441
 20
-24.4838
 11
258.423
 21
-24.5513
  0
LINE
  8
0
 10
258.423
 20
-24.5513
 11
258.402
 21
-24.618
  0
LINE
  8
0
 10
258.402
 20
-24.618
 11
258.379
 21
-24.684
  0
LINE
  8
0
 10
258.379
 20
-24.684
 11
258.354
 21
-24.7492
  0
LINE
  8
0
 10
258.354
 20
-24.7492
 11
258.327
 21
-24.8135
  0
LINE
  8
0
 10
258.327
 20
-24.8135
 11
258.298
 21
-24.8767
  0
LINE
  8
0
 10
258.298
 20
-24.8767
 11
258.266
 21
-24.9389
  0
LINE
  8
0
 10
258.266
 20
-24.9389
 11
258.232
 21
-25
  0
LINE
  8
0
 10
258.232
 20
-25
 11
258.196
 21
-25.0598
  0
LINE
  8
0
 10
258.196
 20
-25.0598
 11
258.158
 21
-25.1184
  0
LINE
  8
0
 10
258.158
 20
-25.1184
 11
258.118
 21
-25.1756
  0
LINE
  8
0
 10
258.118
 20
-25.1756
 11
258.076
 21
-25.2313
  0
LINE
  8
0
 10
258.076
 20
-25.2313
 11
258.032
 21
-25.2856
  0
LINE
  8
0
 10
258.032
 20
-25.2856
 11
257.986
 21
-25.3383
  0
LINE
  8
0
 10
257.986
 20
-25.3383
 11
257.939
 21
-25.3893
  0
LINE
  8
0
 10
257.939
 20
-25.3893
 11
257.889
 21
-25.4387
  0
LINE
  8
0
 10
257.889
 20
-25.4387
 11
257.838
 21
-25.4863
  0
LINE
  8
0
 10
257.838
 20
-25.4863
 11
257.786
 21
-25.5321
  0
LINE
  8
0
 10
257.786
 20
-25.5321
 11
257.731
 21
-25.576
  0
LINE
  8
0
 10
257.731
 20
-25.576
 11
257.676
 21
-25.618
  0
LINE
  8
0
 10
257.676
 20
-25.618
 11
257.618
 21
-25.6581
  0
LINE
  8
0
 10
257.618
 20
-25.6581
 11
257.56
 21
-25.6961
  0
LINE
  8
0
 10
257.56
 20
-25.6961
 11
257.5
 21
-25.732
  0
LINE
  8
0
 10
257.5
 20
-25.732
 11
257.439
 21
-25.7659
  0
LINE
  8
0
 10
257.439
 20
-25.7659
 11
257.377
 21
-25.7976
  0
LINE
  8
0
 10
257.377
 20
-25.7976
 11
257.313
 21
-25.8271
  0
LINE
  8
0
 10
257.313
 20
-25.8271
 11
257.249
 21
-25.8544
  0
LINE
  8
0
 10
257.249
 20
-25.8544
 11
257.184
 21
-25.8794
  0
LINE
  8
0
 10
257.184
 20
-25.8794
 11
257.118
 21
-25.9021
  0
LINE
  8
0
 10
257.118
 20
-25.9021
 11
257.051
 21
-25.9225
  0
LINE
  8
0
 10
257.051
 20
-25.9225
 11
256.984
 21
-25.9406
  0
LINE
  8
0
 10
256.984
 20
-25.9406
 11
256.916
 21
-25.9563
  0
LINE
  8
0
 10
256.916
 20
-25.9563
 11
256.847
 21
-25.9696
  0
LINE
  8
0
 10
256.847
 20
-25.9696
 11
256.778
 21
-25.9805
  0
LINE
  8
0
 10
256.778
 20
-25.9805
 11
256.709
 21
-25.989
  0
LINE
  8
0
 10
256.709
 20
-25.989
 11
256.64
 21
-25.9951
  0
LINE
  8
0
 10
256.64
 20
-25.9951
 11
256.57
 21
-25.9988
  0
LINE
  8
0
 10
256.57
 20
-25.9988
 11
256.5
 21
-26
  0
LINE
  8
0
 10
256.5
 20
-26
 11
256.43
 21
-25.9988
  0
ENDSEC
  0
SECTION
  2
OBJECTS
  0
DICTIONARY
  0
ENDSEC
  0
EOF
