  0
SECTION
  2
BLOCKS
  0
ENDSEC
  0
SECTION
  2
ENTITIES
  0
LINE
  8
0
 10
305.117
 20
-31.9805
 11
306.232
 21
-31.922
  0
LINE
  8
0
 10
306.232
 20
-31.922
 11
307.345
 21
-31.8247
  0
LINE
  8
0
 10
307.345
 20
-31.8247
 11
308.454
 21
-31.6886
  0
LINE
  8
0
 10
308.454
 20
-31.6886
 11
309.557
 21
-31.5138
  0
LINE
  8
0
 10
309.557
 20
-31.5138
 11
310.653
 21
-31.3007
  0
LINE
  8
0
 10
310.653
 20
-31.3007
 11
311.741
 21
-31.0495
  0
LINE
  8
0
 10
311.741
 20
-31.0495
 11
312.82
 21
-30.7604
  0
LINE
  8
0
 10
312.82
 20
-30.7604
 11
313.889
 21
-30.4338
  0
LINE
  8
0
 10
313.889
 20
-30.4338
 11
314.945
 21
-30.0702
  0
LINE
  8
0
 10
314.945
 20
-30.0702
 11
315.987
 21
-29.6699
  0
LINE
  8
0
 10
315.987
 20
-29.6699
 11
317.016
 21
-29.2334
  0
LINE
  8
0
 10
317.016
 20
-29.2334
 11
318.028
 21
-28.7614
  0
LINE
  8
0
 10
318.028
 20
-28.7614
 11
319.023
 21
-28.2543
  0
LINE
  8
0
 10
319.023
 20
-28.2543
 11
320
 21
-27.7128
  0
LINE
  8
0
 10
320
 20
-27.7128
 11
320.957
 21
-27.1375
  0
LINE
  8
0
 10
320.957
 20
-27.1375
 11
321.894
 21
-26.5292
  0
LINE
  8
0
 10
321.894
 20
-26.5292
 11
322.809
 21
-25.8885
  0
LINE
  8
0
 10
322.809
 20
-25.8885
 11
323.701
 21
-25.2163
  0
LINE
  8
0
 10
323.701
 20
-25.2163
 11
324.569
 21
-24.5134
  0
LINE
  8
0
 10
324.569
 20
-24.5134
 11
325.412
 21
-23.7806
  0
LINE
  8
0
 10
325.412
 20
-23.7806
 11
326.229
 21
-23.0189
  0
LINE
  8
0
 10
326.229
 20
-23.0189
 11
327.019
 21
-22.2291
  0
LINE
  8
0
 10
327.019
 20
-22.2291
 11
327.781
 21
-21.4122
  0
LINE
  8
0
 10
327.781
 20
-21.4122
 11
328.513
 21
-20.5692
  0
LINE
  8
0
 10
328.513
 20
-20.5692
 11
329.216
 21
-19.7012
  0
LINE
  8
0
 10
329.216
 20
-19.7012
 11
329.889
 21
-18.8091
  0
LINE
  8
0
 10
329.889
 20
-18.8091
 11
330.529
 21
-17.8942
  0
LINE
  8
0
 10
330.529
 20
-17.8942
 11
331.138
 21
-16.9574
  0
LINE
  8
0
 10
331.138
 20
-16.9574
 11
331.713
 21
-16
  0
LINE
  8
0
 10
331.713
 20
-16
 11
332.254
 21
-15.0231
  0
LINE
  8
0
 10
332.254
 20
-15.0231
 11
332.761
 21
-14.0279
  0
LINE
  8
0
 10
332.761
 20
-14.0279
 11
333.233
 21
-13.0156
  0
LINE
  8
0
 10
333.233
 20
-13.0156
 11
333.67
 21
-11.9874
  0
LINE
  8
0
 10
333.67
 20
-11.9874
 11
334.07
 21
-10.9446
  0
LINE
  8
0
 10
334.07
 20
-10.9446
 11
334.434
 21
-9.88853
  0
LINE
  8
0
 10
334.434
 20
-9.88853
 11
334.76
 21
-8.82039
  0
LINE
  8
0
 10
334.76
 20
-8.82039
 11
335.049
 21
-7.74149
  0
LINE
  8
0
 10
335.049
 20
-7.74149
 11
335.301
 21
-6.65317
  0
LINE
  8
0
 10
335.301
 20
-6.65317
 11
335.514
 21
-5.55673
  0
LINE
  8
0
 10
335.514
 20
-5.55673
 11
335.689
 21
-4.45354
  0
LINE
  8
0
 10
335.689
 20
-4.45354
 11
335.825
 21
-3.34491
  0
LINE
  8
0
 10
335.825
 20
-3.34491
 11
335.922
 21
-2.23219
  0
LINE
  8
0
 10
335.922
 20
-2.23219
 11
335.98
 21
-1.11678
  0
LINE
  8
0
 10
335.98
 20
-1.11678
 11
336
 21
0
  0
LINE
  8
0
 10
336
 20
0
 11
335.98
 21
1.11678
  0
LINE
  8
0
 10
335.98
 20
1.11678
 11
335.922
 21
2.23219
  0
LINE
  8
0
 10
335.922
 20
2.23219
 11
335.825
 21
3.34491
  0
LINE
  8
0
 10
335.825
 20
3.34491
 11
335.689
 21
4.45354
  0
LINE
  8
0
 10
335.689
 20
4.45354
 11
335.514
 21
5.55673
  0
LINE
  8
0
 10
335.514
 20
5.55673
 11
335.301
 21
6.65317
  0
LINE
  8
0
 10
335.301
 20
6.65317
 11
335.049
 21
7.74149
  0
LINE
  8
0
 10
335.049
 20
7.74149
 11
334.76
 21
8.82039
  0
LINE
  8
0
 10
334.76
 20
8.82039
 11
334.434
 21
9.88853
  0
LINE
  8
0
 10
334.434
 20
9.88853
 11
334.07
 21
10.9446
  0
LINE
  8
0
 10
334.07
 20
10.9446
 11
333.67
 21
11.9874
  0
LINE
  8
0
 10
333.67
 20
11.9874
 11
333.233
 21
13.0156
  0
LINE
  8
0
 10
333.233
 20
13.0156
 11
332.761
 21
14.0279
  0
LINE
  8
0
 10
332.761
 20
14.0279
 11
332.254
 21
15.0231
  0
LINE
  8
0
 10
332.254
 20
15.0231
 11
331.713
 21
16
  0
LINE
  8
0
 10
331.713
 20
16
 11
331.138
 21
16.9574
  0
LINE
  8
0
 10
331.138
 20
16.9574
 11
330.529
 21
17.8942
  0
LINE
  8
0
 10
330.529
 20
17.8942
 11
329.889
 21
18.8091
  0
LINE
  8
0
 10
329.889
 20
18.8091
 11
329.216
 21
19.7012
  0
LINE
  8
0
 10
329.216
 20
19.7012
 11
328.513
 21
20.5692
  0
LINE
  8
0
 10
328.513
 20
20.5692
 11
327.781
 21
21.4122
  0
LINE
  8
0
 10
327.781
 20
21.4122
 11
327.019
 21
22.2291
  0
LINE
  8
0
 10
327.019
 20
22.2291
 11
326.229
 21
23.0189
  0
LINE
  8
0
 10
326.229
 20
23.0189
 11
325.412
 21
23.7806
  0
LINE
  8
0
 10
325.412
 20
23.7806
 11
324.569
 21
24.5134
  0
LINE
  8
0
 10
324.569
 20
24.5134
 11
323.701
 21
25.2163
  0
LINE
  8
0
 10
323.701
 20
25.2163
 11
322.809
 21
25.8885
  0
LINE
  8
0
 10
322.809
 20
25.8885
 11
321.894
 21
26.5292
  0
LINE
  8
0
 10
321.894
 20
26.5292
 11
320.957
 21
27.1375
  0
LINE
  8
0
 10
320.957
 20
27.1375
 11
320
 21
27.7128
  0
LINE
  8
0
 10
320
 20
27.7128
 11
319.023
 21
28.2543
  0
LINE
  8
0
 10
319.023
 20
28.2543
 11
318.028
 21
28.7614
  0
LINE
  8
0
 10
318.028
 20
28.7614
 11
317.016
 21
29.2334
  0
LINE
  8
0
 10
317.016
 20
29.2334
 11
315.987
 21
29.6699
  0
LINE
  8
0
 10
315.987
 20
29.6699
 11
314.945
 21
30.0702
  0
LINE
  8
0
 10
314.945
 20
30.0702
 11
313.889
 21
30.4338
  0
LINE
  8
0
 10
313.889
 20
30.4338
 11
312.82
 21
30.7604
  0
LINE
  8
0
 10
312.82
 20
30.7604
 11
311.741
 21
31.0495
  0
LINE
  8
0
 10
311.741
 20
31.0495
 11
310.653
 21
31.3007
  0
LINE
  8
0
 10
310.653
 20
31.3007
 11
309.557
 21
31.5138
  0
LINE
  8
0
 10
309.557
 20
31.5138
 11
308.454
 21
31.6886
  0
LINE
  8
0
 10
308.454
 20
31.6886
 11
307.345
 21
31.8247
  0
LINE
  8
0
 10
307.345
 20
31.8247
 11
306.232
 21
31.922
  0
LINE
  8
0
 10
306.232
 20
31.922
 11
305.117
 21
31.9805
  0
LINE
  8
0
 10
305.117
 20
31.9805
 11
304
 21
32
  0
LINE
  8
0
 10
304
 20
32
 11
0
 21
32
  0
LINE
  8
0
 10
0
 20
32
 11
-1.11678
 21
31.9805
  0
LINE
  8
0
 10
-1.11678
 20
31.9805
 11
-2.23219
 21
31.922
  0
LINE
  8
0
 10
-2.23219
 20
31.922
 11
-3.34491
 21
31.8247
  0
LINE
  8
0
 10
-3.34491
 20
31.8247
 11
-4.45354
 21
31.6886
  0
LINE
  8
0
 10
-4.45354
 20
31.6886
 11
-5.55673
 21
31.5138
  0
LINE
  8
0
 10
-5.55673
 20
31.5138
 11
-6.65317
 21
31.3007
  0
LINE
  8
0
 10
-6.65317
 20
31.3007
 11
-7.74149
 21
31.0495
  0
LINE
  8
0
 10
-7.74149
 20
31.0495
 11
-8.82039
 21
30.7604
  0
LINE
  8
0
 10
-8.82039
 20
30.7604
 11
-9.88853
 21
30.4338
  0
LINE
  8
0
 10
-9.88853
 20
30.4338
 11
-10.9446
 21
30.0702
  0
LINE
  8
0
 10
-10.9446
 20
30.0702
 11
-11.9874
 21
29.6699
  0
LINE
  8
0
 10
-11.9874
 20
29.6699
 11
-13.0156
 21
29.2334
  0
LINE
  8
0
 10
-13.0156
 20
29.2334
 11
-14.0279
 21
28.7614
  0
LINE
  8
0
 10
-14.0279
 20
28.7614
 11
-15.0231
 21
28.2543
  0
LINE
  8
0
 10
-15.0231
 20
28.2543
 11
-16
 21
27.7128
  0
LINE
  8
0
 10
-16
 20
27.7128
 11
-16.9574
 21
27.1375
  0
LINE
  8
0
 10
-16.9574
 20
27.1375
 11
-17.8942
 21
26.5292
  0
LINE
  8
0
 10
-17.8942
 20
26.5292
 11
-18.8091
 21
25.8885
  0
LINE
  8
0
 10
-18.8091
 20
25.8885
 11
-19.7012
 21
25.2163
  0
LINE
  8
0
 10
-19.7012
 20
25.2163
 11
-20.5692
 21
24.5134
  0
LINE
  8
0
 10
-20.5692
 20
24.5134
 11
-21.4122
 21
23.7806
  0
LINE
  8
0
 10
-21.4122
 20
23.7806
 11
-22.2291
 21
23.0189
  0
LINE
  8
0
 10
-22.2291
 20
23.0189
 11
-23.0189
 21
22.2291
  0
LINE
  8
0
 10
-23.0189
 20
22.2291
 11
-23.7806
 21
21.4122
  0
LINE
  8
0
 10
-23.7806
 20
21.4122
 11
-24.5134
 21
20.5692
  0
LINE
  8
0
 10
-24.5134
 20
20.5692
 11
-25.2163
 21
19.7012
  0
LINE
  8
0
 10
-25.2163
 20
19.7012
 11
-25.8885
 21
18.8091
  0
LINE
  8
0
 10
-25.8885
 20
18.8091
 11
-26.5292
 21
17.8942
  0
LINE
  8
0
 10
-26.5292
 20
17.8942
 11
-27.1375
 21
16.9574
  0
LINE
  8
0
 10
-27.1375
 20
16.9574
 11
-27.7128
 21
16
  0
LINE
  8
0
 10
-27.7128
 20
16
 11
-28.2543
 21
15.0231
  0
LINE
  8
0
 10
-28.2543
 20
15.0231
 11
-28.7614
 21
14.0279
  0
LINE
  8
0
 10
-28.7614
 20
14.0279
 11
-29.2334
 21
13.0156
  0
LINE
  8
0
 10
-29.2334
 20
13.0156
 11
-29.6699
 21
11.9874
  0
LINE
  8
0
 10
-29.6699
 20
11.9874
 11
-30.0702
 21
10.9446
  0
LINE
  8
0
 10
-30.0702
 20
10.9446
 11
-30.4338
 21
9.88853
  0
LINE
  8
0
 10
-30.4338
 20
9.88853
 11
-30.7604
 21
8.82039
  0
LINE
  8
0
 10
-30.7604
 20
8.82039
 11
-31.0495
 21
7.74149
  0
LINE
  8
0
 10
-31.0495
 20
7.74149
 11
-31.3007
 21
6.65317
  0
LINE
  8
0
 10
-31.3007
 20
6.65317
 11
-31.5138
 21
5.55673
  0
LINE
  8
0
 10
-31.5138
 20
5.55673
 11
-31.6886
 21
4.45354
  0
LINE
  8
0
 10
-31.6886
 20
4.45354
 11
-31.8247
 21
3.34491
  0
LINE
  8
0
 10
-31.8247
 20
3.34491
 11
-31.922
 21
2.23219
  0
LINE
  8
0
 10
-31.922
 20
2.23219
 11
-31.9805
 21
1.11678
  0
LINE
  8
0
 10
-31.9805
 20
1.11678
 11
-32
 21
0
  0
LINE
  8
0
 10
-32
 20
0
 11
-31.9805
 21
-1.11678
  0
LINE
  8
0
 10
-31.9805
 20
-1.11678
 11
-31.922
 21
-2.23219
  0
LINE
  8
0
 10
-31.922
 20
-2.23219
 11
-31.8247
 21
-3.34491
  0
LINE
  8
0
 10
-31.8247
 20
-3.34491
 11
-31.6886
 21
-4.45354
  0
LINE
  8
0
 10
-31.6886
 20
-4.45354
 11
-31.5138
 21
-5.55673
  0
LINE
  8
0
 10
-31.5138
 20
-5.55673
 11
-31.3007
 21
-6.65317
  0
LINE
  8
0
 10
-31.3007
 20
-6.65317
 11
-31.0495
 21
-7.74149
  0
LINE
  8
0
 10
-31.0495
 20
-7.74149
 11
-30.7604
 21
-8.82039
  0
LINE
  8
0
 10
-30.7604
 20
-8.82039
 11
-30.4338
 21
-9.88853
  0
LINE
  8
0
 10
-30.4338
 20
-9.88853
 11
-30.0702
 21
-10.9446
  0
LINE
  8
0
 10
-30.0702
 20
-10.9446
 11
-29.6699
 21
-11.9874
  0
LINE
  8
0
 10
-29.6699
 20
-11.9874
 11
-29.2334
 21
-13.0156
  0
LINE
  8
0
 10
-29.2334
 20
-13.0156
 11
-28.7614
 21
-14.0279
  0
LINE
  8
0
 10
-28.7614
 20
-14.0279
 11
-28.2543
 21
-15.0231
  0
LINE
  8
0
 10
-28.2543
 20
-15.0231
 11
-27.7128
 21
-16
  0
LINE
  8
0
 10
-27.7128
 20
-16
 11
-27.1375
 21
-16.9574
  0
LINE
  8
0
 10
-27.1375
 20
-16.9574
 11
-26.5292
 21
-17.8942
  0
LINE
  8
0
 10
-26.5292
 20
-17.8942
 11
-25.8885
 21
-18.8091
  0
LINE
  8
0
 10
-25.8885
 20
-18.8091
 11
-25.2163
 21
-19.7012
  0
LINE
  8
0
 10
-25.2163
 20
-19.7012
 11
-24.5134
 21
-20.5692
  0
LINE
  8
0
 10
-24.5134
 20
-20.5692
 11
-23.7806
 21
-21.4122
  0
LINE
  8
0
 10
-23.7806
 20
-21.4122
 11
-23.0189
 21
-22.2291
  0
LINE
  8
0
 10
-23.0189
 20
-22.2291
 11
-22.2291
 21
-23.0189
  0
LINE
  8
0
 10
-22.2291
 20
-23.0189
 11
-21.4122
 21
-23.7806
  0
LINE
  8
0
 10
-21.4122
 20
-23.7806
 11
-20.5692
 21
-24.5134
  0
LINE
  8
0
 10
-20.5692
 20
-24.5134
 11
-19.7012
 21
-25.2163
  0
LINE
  8
0
 10
-19.7012
 20
-25.2163
 11
-18.8091
 21
-25.8885
  0
LINE
  8
0
 10
-18.8091
 20
-25.8885
 11
-17.8942
 21
-26.5292
  0
LINE
  8
0
 10
-17.8942
 20
-26.5292
 11
-16.9574
 21
-27.1375
  0
LINE
  8
0
 10
-16.9574
 20
-27.1375
 11
-16
 21
-27.7128
  0
LINE
  8
0
 10
-16
 20
-27.7128
 11
-15.0231
 21
-28.2543
  0
LINE
  8
0
 10
-15.0231
 20
-28.2543
 11
-14.0279
 21
-28.7614
  0
LINE
  8
0
 10
-14.0279
 20
-28.7614
 11
-13.0156
 21
-29.2334
  0
LINE
  8
0
 10
-13.0156
 20
-29.2334
 11
-11.9874
 21
-29.6699
  0
LINE
  8
0
 10
-11.9874
 20
-29.6699
 11
-10.9446
 21
-30.0702
  0
LINE
  8
0
 10
-10.9446
 20
-30.0702
 11
-9.88853
 21
-30.4338
  0
LINE
  8
0
 10
-9.88853
 20
-30.4338
 11
-8.82039
 21
-30.7604
  0
LINE
  8
0
 10
-8.82039
 20
-30.7604
 11
-7.74149
 21
-31.0495
  0
LINE
  8
0
 10
-7.74149
 20
-31.0495
 11
-6.65317
 21
-31.3007
  0
LINE
  8
0
 10
-6.65317
 20
-31.3007
 11
-5.55673
 21
-31.5138
  0
LINE
  8
0
 10
-5.55673
 20
-31.5138
 11
-4.45354
 21
-31.6886
  0
LINE
  8
0
 10
-4.45354
 20
-31.6886
 11
-3.34491
 21
-31.8247
  0
LINE
  8
0
 10
-3.34491
 20
-31.8247
 11
-2.23219
 21
-31.922
  0
LINE
  8
0
 10
-2.23219
 20
-31.922
 11
-1.11678
 21
-31.9805
  0
LINE
  8
0
 10
-1.11678
 20
-31.9805
 11
0
 21
-32
  0
LINE
  8
0
 10
0
 20
-32
 11
304
 21
-32
  0
LINE
  8
0
 10
304
 20
-32
 11
305.117
 21
-31.9805
  0
LINE
  8
0
 10
48.6802
 20
22.0012
 11
48.6105
 21
22.0049
  0
LINE
  8
0
 10
48.6105
 20
22.0049
 11
48.541
 21
22.011
  0
LINE
  8
0
 10
48.541
 20
22.011
 11
48.4717
 21
22.0195
  0
LINE
  8
0
 10
48.4717
 20
22.0195
 11
48.4027
 21
22.0304
  0
LINE
  8
0
 10
48.4027
 20
22.0304
 11
48.3342
 21
22.0437
  0
LINE
  8
0
 10
48.3342
 20
22.0437
 11
48.2662
 21
22.0594
  0
LINE
  8
0
 10
48.2662
 20
22.0594
 11
48.1987
 21
22.0775
  0
LINE
  8
0
 10
48.1987
 20
22.0775
 11
48.132
 21
22.0979
  0
LINE
  8
0
 10
48.132
 20
22.0979
 11
48.066
 21
22.1206
  0
LINE
  8
0
 10
48.066
 20
22.1206
 11
48.0008
 21
22.1456
  0
LINE
  8
0
 10
48.0008
 20
22.1456
 11
47.9365
 21
22.1729
  0
LINE
  8
0
 10
47.9365
 20
22.1729
 11
47.8733
 21
22.2024
  0
LINE
  8
0
 10
47.8733
 20
22.2024
 11
47.8111
 21
22.2341
  0
LINE
  8
0
 10
47.8111
 20
22.2341
 11
47.75
 21
22.2679
  0
LINE
  8
0
 10
47.75
 20
22.2679
 11
47.6902
 21
22.3039
  0
LINE
  8
0
 10
47.6902
 20
22.3039
 11
47.6316
 21
22.3419
  0
LINE
  8
0
 10
47.6316
 20
22.3419
 11
47.5744
 21
22.382
  0
LINE
  8
0
 10
47.5744
 20
22.382
 11
47.5187
 21
22.424
  0
LINE
  8
0
 10
47.5187
 20
22.424
 11
47.4644
 21
22.4679
  0
LINE
  8
0
 10
47.4644
 20
22.4679
 11
47.4117
 21
22.5137
  0
LINE
  8
0
 10
47.4117
 20
22.5137
 11
47.3607
 21
22.5613
  0
LINE
  8
0
 10
47.3607
 20
22.5613
 11
47.3113
 21
22.6107
  0
LINE
  8
0
 10
47.3113
 20
22.6107
 11
47.2637
 21
22.6617
  0
LINE
  8
0
 10
47.2637
 20
22.6617
 11
47.2179
 21
22.7144
  0
LINE
  8
0
 10
47.2179
 20
22.7144
 11
47.174
 21
22.7687
  0
LINE
  8
0
 10
47.174
 20
22.7687
 11
47.132
 21
22.8244
  0
LINE
  8
0
 10
47.132
 20
22.8244
 11
47.0919
 21
22.8816
  0
LINE
  8
0
 10
47.0919
 20
22.8816
 11
47.0539
 21
22.9402
  0
LINE
  8
0
 10
47.0539
 20
22.9402
 11
47.018
 21
23
  0
LINE
  8
0
 10
47.018
 20
23
 11
46.9841
 21
23.0611
  0
LINE
  8
0
 10
46.9841
 20
23.0611
 11
46.9524
 21
23.1232
  0
LINE
  8
0
 10
46.9524
 20
23.1232
 11
46.9229
 21
23.1865
  0
LINE
  8
0
 10
46.9229
 20
23.1865
 11
46.8956
 21
23.2508
  0
LINE
  8
0
 10
46.8956
 20
23.2508
 11
46.8706
 21
23.3159
  0
LINE
  8
0
 10
46.8706
 20
23.3159
 11
46.8479
 21
23.382
  0
LINE
  8
0
 10
46.8479
 20
23.382
 11
46.8275
 21
23.4487
  0
LINE
  8
0
 10
46.8275
 20
23.4487
 11
46.8094
 21
23.5161
  0
LINE
  8
0
 10
46.8094
 20
23.5161
 11
46.7937
 21
23.5842
  0
LINE
  8
0
 10
46.7937
 20
23.5842
 11
46.7804
 21
23.6527
  0
LINE
  8
0
 10
46.7804
 20
23.6527
 11
46.7695
 21
23.7216
  0
LINE
  8
0
 10
46.7695
 20
23.7216
 11
46.761
 21
23.7909
  0
LINE
  8
0
 10
46.761
 20
23.7909
 11
46.7549
 21
23.8605
  0
LINE
  8
0
 10
46.7549
 20
23.8605
 11
46.7512
 21
23.9302
  0
LINE
  8
0
 10
46.7512
 20
23.9302
 11
46.75
 21
24
  0
LINE
  8
0
 10
46.75
 20
24
 11
46.7512
 21
24.0698
  0
LINE
  8
0
 10
46.7512
 20
24.0698
 11
46.7549
 21
24.1395
  0
LINE
  8
0
 10
46.7549
 20
24.1395
 11
46.761
 21
24.209
  0
LINE
  8
0
 10
46.761
 20
24.209
 11
46.7695
 21
24.2783
  0
LINE
  8
0
 10
46.7695
 20
24.2783
 11
46.7804
 21
24.3473
  0
LINE
  8
0
 10
46.7804
 20
24.3473
 11
46.7937
 21
24.4158
  0
LINE
  8
0
 10
46.7937
 20
24.4158
 11
46.8094
 21
24.4838
  0
LINE
  8
0
 10
46.8094
 20
24.4838
 11
46.8275
 21
24.5513
  0
LINE
  8
0
 10
46.8275
 20
24.5513
 11
46.8479
 21
24.618
  0
LINE
  8
0
 10
46.8479
 20
24.618
 11
46.8706
 21
24.684
  0
LINE
  8
0
 10
46.8706
 20
24.684
 11
46.8956
 21
24.7492
  0
LINE
  8
0
 10
46.8956
 20
24.7492
 11
46.9229
 21
24.8135
  0
LINE
  8
0
 10
46.9229
 20
24.8135
 11
46.9524
 21
24.8767
  0
LINE
  8
0
 10
46.9524
 20
24.8767
 11
46.9841
 21
24.9389
  0
LINE
  8
0
 10
46.9841
 20
24.9389
 11
47.018
 21
25
  0
LINE
  8
0
 10
47.018
 20
25
 11
47.0539
 21
25.0598
  0
LINE
  8
0
 10
47.0539
 20
25.0598
 11
47.0919
 21
25.1184
  0
LINE
  8
0
 10
47.0919
 20
25.1184
 11
47.132
 21
25.1756
  0
LINE
  8
0
 10
47.132
 20
25.1756
 11
47.174
 21
25.2313
  0
LINE
  8
0
 10
47.174
 20
25.2313
 11
47.2179
 21
25.2856
  0
LINE
  8
0
 10
47.2179
 20
25.2856
 11
47.2637
 21
25.3383
  0
LINE
  8
0
 10
47.2637
 20
25.3383
 11
47.3113
 21
25.3893
  0
LINE
  8
0
 10
47.3113
 20
25.3893
 11
47.3607
 21
25.4387
  0
LINE
  8
0
 10
47.3607
 20
25.4387
 11
47.4117
 21
25.4863
  0
LINE
  8
0
 10
47.4117
 20
25.4863
 11
47.4644
 21
25.5321
  0
LINE
  8
0
 10
47.4644
 20
25.5321
 11
47.5187
 21
25.576
  0
LINE
  8
0
 10
47.5187
 20
25.576
 11
47.5744
 21
25.618
  0
LINE
  8
0
 10
47.5744
 20
25.618
 11
47.6316
 21
25.6581
  0
LINE
  8
0
 10
47.6316
 20
25.6581
 11
47.6902
 21
25.6961
  0
LINE
  8
0
 10
47.6902
 20
25.6961
 11
47.75
 21
25.732
  0
LINE
  8
0
 10
47.75
 20
25.732
 11
47.8111
 21
25.7659
  0
LINE
  8
0
 10
47.8111
 20
25.7659
 11
47.8733
 21
25.7976
  0
LINE
  8
0
 10
47.8733
 20
25.7976
 11
47.9365
 21
25.8271
  0
LINE
  8
0
 10
47.9365
 20
25.8271
 11
48.0008
 21
25.8544
  0
LINE
  8
0
 10
48.0008
 20
25.8544
 11
48.066
 21
25.8794
  0
LINE
  8
0
 10
48.066
 20
25.8794
 11
48.132
 21
25.9021
  0
LINE
  8
0
 10
48.132
 20
25.9021
 11
48.1987
 21
25.9225
  0
LINE
  8
0
 10
48.1987
 20
25.9225
 11
48.2662
 21
25.9406
  0
LINE
  8
0
 10
48.2662
 20
25.9406
 11
48.3342
 21
25.9563
  0
LINE
  8
0
 10
48.3342
 20
25.9563
 11
48.4027
 21
25.9696
  0
LINE
  8
0
 10
48.4027
 20
25.9696
 11
48.4717
 21
25.9805
  0
LINE
  8
0
 10
48.4717
 20
25.9805
 11
48.541
 21
25.989
  0
LINE
  8
0
 10
48.541
 20
25.989
 11
48.6105
 21
25.9951
  0
LINE
  8
0
 10
48.6105
 20
25.9951
 11
48.6802
 21
25.9988
  0
LINE
  8
0
 10
48.6802
 20
25.9988
 11
48.75
 21
26
  0
LINE
  8
0
 10
48.75
 20
26
 11
48.8198
 21
25.9988
  0
LINE
  8
0
 10
48.8198
 20
25.9988
 11
48.8895
 21
25.9951
  0
LINE
  8
0
 10
48.8895
 20
25.9951
 11
48.959
 21
25.989
  0
LINE
  8
0
 10
48.959
 20
25.989
 11
49.0283
 21
25.9805
  0
LINE
  8
0
 10
49.0283
 20
25.9805
 11
49.0973
 21
25.9696
  0
LINE
  8
0
 10
49.0973
 20
25.9696
 11
49.1658
 21
25.9563
  0
LINE
  8
0
 10
49.1658
 20
25.9563
 11
49.2338
 21
25.9406
  0
LINE
  8
0
 10
49.2338
 20
25.9406
 11
49.3013
 21
25.9225
  0
LINE
  8
0
 10
49.3013
 20
25.9225
 11
49.368
 21
25.9021
  0
LINE
  8
0
 10
49.368
 20
25.9021
 11
49.434
 21
25.8794
  0
LINE
  8
0
 10
49.434
 20
25.8794
 11
49.4992
 21
25.8544
  0
LINE
  8
0
 10
49.4992
 20
25.8544
 11
49.5635
 21
25.8271
  0
LINE
  8
0
 10
49.5635
 20
25.8271
 11
49.6267
 21
25.7976
  0
LINE
  8
0
 10
49.6267
 20
25.7976
 11
49.6889
 21
25.7659
  0
LINE
  8
0
 10
49.6889
 20
25.7659
 11
49.75
 21
25.732
  0
LINE
  8
0
 10
49.75
 20
25.732
 11
49.8098
 21
25.6961
  0
LINE
  8
0
 10
49.8098
 20
25.6961
 11
49.8684
 21
25.6581
  0
LINE
  8
0
 10
49.8684
 20
25.6581
 11
49.9256
 21
25.618
  0
LINE
  8
0
 10
49.9256
 20
25.618
 11
49.9813
 21
25.576
  0
LINE
  8
0
 10
49.9813
 20
25.576
 11
50.0356
 21
25.5321
  0
LINE
  8
0
 10
50.0356
 20
25.5321
 11
50.0883
 21
25.4863
  0
LINE
  8
0
 10
50.0883
 20
25.4863
 11
50.1393
 21
25.4387
  0
LINE
  8
0
 10
50.1393
 20
25.4387
 11
50.1887
 21
25.3893
  0
LINE
  8
0
 10
50.1887
 20
25.3893
 11
50.2363
 21
25.3383
  0
LINE
  8
0
 10
50.2363
 20
25.3383
 11
50.2821
 21
25.2856
  0
LINE
  8
0
 10
50.2821
 20
25.2856
 11
50.326
 21
25.2313
  0
LINE
  8
0
 10
50.326
 20
25.2313
 11
50.368
 21
25.1756
  0
LINE
  8
0
 10
50.368
 20
25.1756
 11
50.4081
 21
25.1184
  0
LINE
  8
0
 10
50.4081
 20
25.1184
 11
50.4461
 21
25.0598
  0
LINE
  8
0
 10
50.4461
 20
25.0598
 11
50.482
 21
25
  0
LINE
  8
0
 10
50.482
 20
25
 11
50.5159
 21
24.9389
  0
LINE
  8
0
 10
50.5159
 20
24.9389
 11
50.5476
 21
24.8767
  0
LINE
  8
0
 10
50.5476
 20
24.8767
 11
50.5771
 21
24.8135
  0
LINE
  8
0
 10
50.5771
 20
24.8135
 11
50.6044
 21
24.7492
  0
LINE
  8
0
 10
50.6044
 20
24.7492
 11
50.6294
 21
24.684
  0
LINE
  8
0
 10
50.6294
 20
24.684
 11
50.6521
 21
24.618
  0
LINE
  8
0
 10
50.6521
 20
24.618
 11
50.6725
 21
24.5513
  0
LINE
  8
0
 10
50.6725
 20
24.5513
 11
50.6906
 21
24.4838
  0
LINE
  8
0
 10
50.6906
 20
24.4838
 11
50.7063
 21
24.4158
  0
LINE
  8
0
 10
50.7063
 20
24.4158
 11
50.7196
 21
24.3473
  0
LINE
  8
0
 10
50.7196
 20
24.3473
 11
50.7305
 21
24.2783
  0
LINE
  8
0
 10
50.7305
 20
24.2783
 11
50.739
 21
24.209
  0
LINE
  8
0
 10
50.739
 20
24.209
 11
50.7451
 21
24.1395
  0
LINE
  8
0
 10
50.7451
 20
24.1395
 11
50.7488
 21
24.0698
  0
LINE
  8
0
 10
50.7488
 20
24.0698
 11
50.75
 21
24
  0
LINE
  8
0
 10
50.75
 20
24
 11
50.7488
 21
23.9302
  0
LINE
  8
0
 10
50.7488
 20
23.9302
 11
50.7451
 21
23.8605
  0
LINE
  8
0
 10
50.7451
 20
23.8605
 11
50.739
 21
23.7909
  0
LINE
  8
0
 10
50.739
 20
23.7909
 11
50.7305
 21
23.7216
  0
LINE
  8
0
 10
50.7305
 20
23.7216
 11
50.7196
 21
23.6527
  0
LINE
  8
0
 10
50.7196
 20
23.6527
 11
50.7063
 21
23.5842
  0
LINE
  8
0
 10
50.7063
 20
23.5842
 11
50.6906
 21
23.5161
  0
LINE
  8
0
 10
50.6906
 20
23.5161
 11
50.6725
 21
23.4487
  0
LINE
  8
0
 10
50.6725
 20
23.4487
 11
50.6521
 21
23.382
  0
LINE
  8
0
 10
50.6521
 20
23.382
 11
50.6294
 21
23.3159
  0
LINE
  8
0
 10
50.6294
 20
23.3159
 11
50.6044
 21
23.2508
  0
LINE
  8
0
 10
50.6044
 20
23.2508
 11
50.5771
 21
23.1865
  0
LINE
  8
0
 10
50.5771
 20
23.1865
 11
50.5476
 21
23.1232
  0
LINE
  8
0
 10
50.5476
 20
23.1232
 11
50.5159
 21
23.0611
  0
LINE
  8
0
 10
50.5159
 20
23.0611
 11
50.482
 21
23
  0
LINE
  8
0
 10
50.482
 20
23
 11
50.4461
 21
22.9402
  0
LINE
  8
0
 10
50.4461
 20
22.9402
 11
50.4081
 21
22.8816
  0
LINE
  8
0
 10
50.4081
 20
22.8816
 11
50.368
 21
22.8244
  0
LINE
  8
0
 10
50.368
 20
22.8244
 11
50.326
 21
22.7687
  0
LINE
  8
0
 10
50.326
 20
22.7687
 11
50.2821
 21
22.7144
  0
LINE
  8
0
 10
50.2821
 20
22.7144
 11
50.2363
 21
22.6617
  0
LINE
  8
0
 10
50.2363
 20
22.6617
 11
50.1887
 21
22.6107
  0
LINE
  8
0
 10
50.1887
 20
22.6107
 11
50.1393
 21
22.5613
  0
LINE
  8
0
 10
50.1393
 20
22.5613
 11
50.0883
 21
22.5137
  0
LINE
  8
0
 10
50.0883
 20
22.5137
 11
50.0356
 21
22.4679
  0
LINE
  8
0
 10
50.0356
 20
22.4679
 11
49.9813
 21
22.424
  0
LINE
  8
0
 10
49.9813
 20
22.424
 11
49.9256
 21
22.382
  0
LINE
  8
0
 10
49.9256
 20
22.382
 11
49.8684
 21
22.3419
  0
LINE
  8
0
 10
49.8684
 20
22.3419
 11
49.8098
 21
22.3039
  0
LINE
  8
0
 10
49.8098
 20
22.3039
 11
49.75
 21
22.2679
  0
LINE
  8
0
 10
49.75
 20
22.2679
 11
49.6889
 21
22.2341
  0
LINE
  8
0
 10
49.6889
 20
22.2341
 11
49.6267
 21
22.2024
  0
LINE
  8
0
 10
49.6267
 20
22.2024
 11
49.5635
 21
22.1729
  0
LINE
  8
0
 10
49.5635
 20
22.1729
 11
49.4992
 21
22.1456
  0
LINE
  8
0
 10
49.4992
 20
22.1456
 11
49.434
 21
22.1206
  0
LINE
  8
0
 10
49.434
 20
22.1206
 11
49.368
 21
22.0979
  0
LINE
  8
0
 10
49.368
 20
22.0979
 11
49.3013
 21
22.0775
  0
LINE
  8
0
 10
49.3013
 20
22.0775
 11
49.2338
 21
22.0594
  0
LINE
  8
0
 10
49.2338
 20
22.0594
 11
49.1658
 21
22.0437
  0
LINE
  8
0
 10
49.1658
 20
22.0437
 11
49.0973
 21
22.0304
  0
LINE
  8
0
 10
49.0973
 20
22.0304
 11
49.0283
 21
22.0195
  0
LINE
  8
0
 10
49.0283
 20
22.0195
 11
48.959
 21
22.011
  0
LINE
  8
0
 10
48.959
 20
22.011
 11
48.8895
 21
22.0049
  0
LINE
  8
0
 10
48.8895
 20
22.0049
 11
48.8198
 21
22.0012
  0
LINE
  8
0
 10
48.8198
 20
22.0012
 11
48.75
 21
22
  0
LINE
  8
0
 10
48.75
 20
22
 11
48.6802
 21
22.0012
  0
LINE
  8
0
 10
255.18
 20
22.0012
 11
255.11
 21
22.0049
  0
LINE
  8
0
 10
255.11
 20
22.0049
 11
255.041
 21
22.011
  0
LINE
  8
0
 10
255.041
 20
22.011
 11
254.972
 21
22.0195
  0
LINE
  8
0
 10
254.972
 20
22.0195
 11
254.903
 21
22.0304
  0
LINE
  8
0
 10
254.903
 20
22.0304
 11
254.834
 21
22.0437
  0
LINE
  8
0
 10
254.834
 20
22.0437
 11
254.766
 21
22.0594
  0
LINE
  8
0
 10
254.766
 20
22.0594
 11
254.699
 21
22.0775
  0
LINE
  8
0
 10
254.699
 20
22.0775
 11
254.632
 21
22.0979
  0
LINE
  8
0
 10
254.632
 20
22.0979
 11
254.566
 21
22.1206
  0
LINE
  8
0
 10
254.566
 20
22.1206
 11
254.501
 21
22.1456
  0
LINE
  8
0
 10
254.501
 20
22.1456
 11
254.437
 21
22.1729
  0
LINE
  8
0
 10
254.437
 20
22.1729
 11
254.373
 21
22.2024
  0
LINE
  8
0
 10
254.373
 20
22.2024
 11
254.311
 21
22.2341
  0
LINE
  8
0
 10
254.311
 20
22.2341
 11
254.25
 21
22.2679
  0
LINE
  8
0
 10
254.25
 20
22.2679
 11
254.19
 21
22.3039
  0
LINE
  8
0
 10
254.19
 20
22.3039
 11
254.132
 21
22.3419
  0
LINE
  8
0
 10
254.132
 20
22.3419
 11
254.074
 21
22.382
  0
LINE
  8
0
 10
254.074
 20
22.382
 11
254.019
 21
22.424
  0
LINE
  8
0
 10
254.019
 20
22.424
 11
253.964
 21
22.4679
  0
LINE
  8
0
 10
253.964
 20
22.4679
 11
253.912
 21
22.5137
  0
LINE
  8
0
 10
253.912
 20
22.5137
 11
253.861
 21
22.5613
  0
LINE
  8
0
 10
253.861
 20
22.5613
 11
253.811
 21
22.6107
  0
LINE
  8
0
 10
253.811
 20
22.6107
 11
253.764
 21
22.6617
  0
LINE
  8
0
 10
253.764
 20
22.6617
 11
253.718
 21
22.7144
  0
LINE
  8
0
 10
253.718
 20
22.7144
 11
253.674
 21
22.7687
  0
LINE
  8
0
 10
253.674
 20
22.7687
 11
253.632
 21
22.8244
  0
LINE
  8
0
 10
253.632
 20
22.8244
 11
253.592
 21
22.8816
  0
LINE
  8
0
 10
253.592
 20
22.8816
 11
253.554
 21
22.9402
  0
LINE
  8
0
 10
253.554
 20
22.9402
 11
253.518
 21
23
  0
LINE
  8
0
 10
253.518
 20
23
 11
253.484
 21
23.0611
  0
LINE
  8
0
 10
253.484
 20
23.0611
 11
253.452
 21
23.1232
  0
LINE
  8
0
 10
253.452
 20
23.1232
 11
253.423
 21
23.1865
  0
LINE
  8
0
 10
253.423
 20
23.1865
 11
253.396
 21
23.2508
  0
LINE
  8
0
 10
253.396
 20
23.2508
 11
253.371
 21
23.3159
  0
LINE
  8
0
 10
253.371
 20
23.3159
 11
253.348
 21
23.382
  0
LINE
  8
0
 10
253.348
 20
23.382
 11
253.327
 21
23.4487
  0
LINE
  8
0
 10
253.327
 20
23.4487
 11
253.309
 21
23.5161
  0
LINE
  8
0
 10
253.309
 20
23.5161
 11
253.294
 21
23.5842
  0
LINE
  8
0
 10
253.294
 20
23.5842
 11
253.28
 21
23.6527
  0
LINE
  8
0
 10
253.28
 20
23.6527
 11
253.269
 21
23.7216
  0
LINE
  8
0
 10
253.269
 20
23.7216
 11
253.261
 21
23.7909
  0
LINE
  8
0
 10
253.261
 20
23.7909
 11
253.255
 21
23.8605
  0
LINE
  8
0
 10
253.255
 20
23.8605
 11
253.251
 21
23.9302
  0
LINE
  8
0
 10
253.251
 20
23.9302
 11
253.25
 21
24
  0
LINE
  8
0
 10
253.25
 20
24
 11
253.251
 21
24.0698
  0
LINE
  8
0
 10
253.251
 20
24.0698
 11
253.255
 21
24.1395
  0
LINE
  8
0
 10
253.255
 20
24.1395
 11
253.261
 21
24.209
  0
LINE
  8
0
 10
253.261
 20
24.209
 11
253.269
 21
24.2783
  0
LINE
  8
0
 10
253.269
 20
24.2783
 11
253.28
 21
24.3473
  0
LINE
  8
0
 10
253.28
 20
24.3473
 11
253.294
 21
24.4158
  0
LINE
  8
0
 10
253.294
 20
24.4158
 11
253.309
 21
24.4838
  0
LINE
  8
0
 10
253.309
 20
24.4838
 11
253.327
 21
24.5513
  0
LINE
  8
0
 10
253.327
 20
24.5513
 11
253.348
 21
24.618
  0
LINE
  8
0
 10
253.348
 20
24.618
 11
253.371
 21
24.684
  0
LINE
  8
0
 10
253.371
 20
24.684
 11
253.396
 21
24.7492
  0
LINE
  8
0
 10
253.396
 20
24.7492
 11
253.423
 21
24.8135
  0
LINE
  8
0
 10
253.423
 20
24.8135
 11
253.452
 21
24.8767
  0
LINE
  8
0
 10
253.452
 20
24.8767
 11
253.484
 21
24.9389
  0
LINE
  8
0
 10
253.484
 20
24.9389
 11
253.518
 21
25
  0
LINE
  8
0
 10
253.518
 20
25
 11
253.554
 21
25.0598
  0
LINE
  8
0
 10
253.554
 20
25.0598
 11
253.592
 21
25.1184
  0
LINE
  8
0
 10
253.592
 20
25.1184
 11
253.632
 21
25.1756
  0
LINE
  8
0
 10
253.632
 20
25.1756
 11
253.674
 21
25.2313
  0
LINE
  8
0
 10
253.674
 20
25.2313
 11
253.718
 21
25.2856
  0
LINE
  8
0
 10
253.718
 20
25.2856
 11
253.764
 21
25.3383
  0
LINE
  8
0
 10
253.764
 20
25.3383
 11
253.811
 21
25.3893
  0
LINE
  8
0
 10
253.811
 20
25.3893
 11
253.861
 21
25.4387
  0
LINE
  8
0
 10
253.861
 20
25.4387
 11
253.912
 21
25.4863
  0
LINE
  8
0
 10
253.912
 20
25.4863
 11
253.964
 21
25.5321
  0
LINE
  8
0
 10
253.964
 20
25.5321
 11
254.019
 21
25.576
  0
LINE
  8
0
 10
254.019
 20
25.576
 11
254.074
 21
25.618
  0
LINE
  8
0
 10
254.074
 20
25.618
 11
254.132
 21
25.6581
  0
LINE
  8
0
 10
254.132
 20
25.6581
 11
254.19
 21
25.6961
  0
LINE
  8
0
 10
254.19
 20
25.6961
 11
254.25
 21
25.732
  0
LINE
  8
0
 10
254.25
 20
25.732
 11
254.311
 21
25.7659
  0
LINE
  8
0
 10
254.311
 20
25.7659
 11
254.373
 21
25.7976
  0
LINE
  8
0
 10
254.373
 20
25.7976
 11
254.437
 21
25.8271
  0
LINE
  8
0
 10
254.437
 20
25.8271
 11
254.501
 21
25.8544
  0
LINE
  8
0
 10
254.501
 20
25.8544
 11
254.566
 21
25.8794
  0
LINE
  8
0
 10
254.566
 20
25.8794
 11
254.632
 21
25.9021
  0
LINE
  8
0
 10
254.632
 20
25.9021
 11
254.699
 21
25.9225
  0
LINE
  8
0
 10
254.699
 20
25.9225
 11
254.766
 21
25.9406
  0
LINE
  8
0
 10
254.766
 20
25.9406
 11
254.834
 21
25.9563
  0
LINE
  8
0
 10
254.834
 20
25.9563
 11
254.903
 21
25.9696
  0
LINE
  8
0
 10
254.903
 20
25.9696
 11
254.972
 21
25.9805
  0
LINE
  8
0
 10
254.972
 20
25.9805
 11
255.041
 21
25.989
  0
LINE
  8
0
 10
255.041
 20
25.989
 11
255.11
 21
25.9951
  0
LINE
  8
0
 10
255.11
 20
25.9951
 11
255.18
 21
25.9988
  0
LINE
  8
0
 10
255.18
 20
25.9988
 11
255.25
 21
26
  0
LINE
  8
0
 10
255.25
 20
26
 11
255.32
 21
25.9988
  0
LINE
  8
0
 10
255.32
 20
25.9988
 11
255.39
 21
25.9951
  0
LINE
  8
0
 10
255.39
 20
25.9951
 11
255.459
 21
25.989
  0
LINE
  8
0
 10
255.459
 20
25.989
 11
255.528
 21
25.9805
  0
LINE
  8
0
 10
255.528
 20
25.9805
 11
255.597
 21
25.9696
  0
LINE
  8
0
 10
255.597
 20
25.9696
 11
255.666
 21
25.9563
  0
LINE
  8
0
 10
255.666
 20
25.9563
 11
255.734
 21
25.9406
  0
LINE
  8
0
 10
255.734
 20
25.9406
 11
255.801
 21
25.9225
  0
LINE
  8
0
 10
255.801
 20
25.9225
 11
255.868
 21
25.9021
  0
LINE
  8
0
 10
255.868
 20
25.9021
 11
255.934
 21
25.8794
  0
LINE
  8
0
 10
255.934
 20
25.8794
 11
255.999
 21
25.8544
  0
LINE
  8
0
 10
255.999
 20
25.8544
 11
256.063
 21
25.8271
  0
LINE
  8
0
 10
256.063
 20
25.8271
 11
256.127
 21
25.7976
  0
LINE
  8
0
 10
256.127
 20
25.7976
 11
256.189
 21
25.7659
  0
LINE
  8
0
 10
256.189
 20
25.7659
 11
256.25
 21
25.732
  0
LINE
  8
0
 10
256.25
 20
25.732
 11
256.31
 21
25.6961
  0
LINE
  8
0
 10
256.31
 20
25.6961
 11
256.368
 21
25.6581
  0
LINE
  8
0
 10
256.368
 20
25.6581
 11
256.426
 21
25.618
  0
LINE
  8
0
 10
256.426
 20
25.618
 11
256.481
 21
25.576
  0
LINE
  8
0
 10
256.481
 20
25.576
 11
256.536
 21
25.5321
  0
LINE
  8
0
 10
256.536
 20
25.5321
 11
256.588
 21
25.4863
  0
LINE
  8
0
 10
256.588
 20
25.4863
 11
256.639
 21
25.4387
  0
LINE
  8
0
 10
256.639
 20
25.4387
 11
256.689
 21
25.3893
  0
LINE
  8
0
 10
256.689
 20
25.3893
 11
256.736
 21
25.3383
  0
LINE
  8
0
 10
256.736
 20
25.3383
 11
256.782
 21
25.2856
  0
LINE
  8
0
 10
256.782
 20
25.2856
 11
256.826
 21
25.2313
  0
LINE
  8
0
 10
256.826
 20
25.2313
 11
256.868
 21
25.1756
  0
LINE
  8
0
 10
256.868
 20
25.1756
 11
256.908
 21
25.1184
  0
LINE
  8
0
 10
256.908
 20
25.1184
 11
256.946
 21
25.0598
  0
LINE
  8
0
 10
256.946
 20
25.0598
 11
256.982
 21
25
  0
LINE
  8
0
 10
256.982
 20
25
 11
257.016
 21
24.9389
  0
LINE
  8
0
 10
257.016
 20
24.9389
 11
257.048
 21
24.8767
  0
LINE
  8
0
 10
257.048
 20
24.8767
 11
257.077
 21
24.8135
  0
LINE
  8
0
 10
257.077
 20
24.8135
 11
257.104
 21
24.7492
  0
LINE
  8
0
 10
257.104
 20
24.7492
 11
257.129
 21
24.684
  0
LINE
  8
0
 10
257.129
 20
24.684
 11
257.152
 21
24.618
  0
LINE
  8
0
 10
257.152
 20
24.618
 11
257.173
 21
24.5513
  0
LINE
  8
0
 10
257.173
 20
24.5513
 11
257.191
 21
24.4838
  0
LINE
  8
0
 10
257.191
 20
24.4838
 11
257.206
 21
24.4158
  0
LINE
  8
0
 10
257.206
 20
24.4158
 11
257.22
 21
24.3473
  0
LINE
  8
0
 10
257.22
 20
24.3473
 11
257.231
 21
24.2783
  0
LINE
  8
0
 10
257.231
 20
24.2783
 11
257.239
 21
24.209
  0
LINE
  8
0
 10
257.239
 20
24.209
 11
257.245
 21
24.1395
  0
LINE
  8
0
 10
257.245
 20
24.1395
 11
257.249
 21
24.0698
  0
LINE
  8
0
 10
257.249
 20
24.0698
 11
257.25
 21
24
  0
LINE
  8
0
 10
257.25
 20
24
 11
257.249
 21
23.9302
  0
LINE
  8
0
 10
257.249
 20
23.9302
 11
257.245
 21
23.8605
  0
LINE
  8
0
 10
257.245
 20
23.8605
 11
257.239
 21
23.7909
  0
LINE
  8
0
 10
257.239
 20
23.7909
 11
257.231
 21
23.7216
  0
LINE
  8
0
 10
257.231
 20
23.7216
 11
257.22
 21
23.6527
  0
LINE
  8
0
 10
257.22
 20
23.6527
 11
257.206
 21
23.5842
  0
LINE
  8
0
 10
257.206
 20
23.5842
 11
257.191
 21
23.5161
  0
LINE
  8
0
 10
257.191
 20
23.5161
 11
257.173
 21
23.4487
  0
LINE
  8
0
 10
257.173
 20
23.4487
 11
257.152
 21
23.382
  0
LINE
  8
0
 10
257.152
 20
23.382
 11
257.129
 21
23.3159
  0
LINE
  8
0
 10
257.129
 20
23.3159
 11
257.104
 21
23.2508
  0
LINE
  8
0
 10
257.104
 20
23.2508
 11
257.077
 21
23.1865
  0
LINE
  8
0
 10
257.077
 20
23.1865
 11
257.048
 21
23.1232
  0
LINE
  8
0
 10
257.048
 20
23.1232
 11
257.016
 21
23.0611
  0
LINE
  8
0
 10
257.016
 20
23.0611
 11
256.982
 21
23
  0
LINE
  8
0
 10
256.982
 20
23
 11
256.946
 21
22.9402
  0
LINE
  8
0
 10
256.946
 20
22.9402
 11
256.908
 21
22.8816
  0
LINE
  8
0
 10
256.908
 20
22.8816
 11
256.868
 21
22.8244
  0
LINE
  8
0
 10
256.868
 20
22.8244
 11
256.826
 21
22.7687
  0
LINE
  8
0
 10
256.826
 20
22.7687
 11
256.782
 21
22.7144
  0
LINE
  8
0
 10
256.782
 20
22.7144
 11
256.736
 21
22.6617
  0
LINE
  8
0
 10
256.736
 20
22.6617
 11
256.689
 21
22.6107
  0
LINE
  8
0
 10
256.689
 20
22.6107
 11
256.639
 21
22.5613
  0
LINE
  8
0
 10
256.639
 20
22.5613
 11
256.588
 21
22.5137
  0
LINE
  8
0
 10
256.588
 20
22.5137
 11
256.536
 21
22.4679
  0
LINE
  8
0
 10
256.536
 20
22.4679
 11
256.481
 21
22.424
  0
LINE
  8
0
 10
256.481
 20
22.424
 11
256.426
 21
22.382
  0
LINE
  8
0
 10
256.426
 20
22.382
 11
256.368
 21
22.3419
  0
LINE
  8
0
 10
256.368
 20
22.3419
 11
256.31
 21
22.3039
  0
LINE
  8
0
 10
256.31
 20
22.3039
 11
256.25
 21
22.2679
  0
LINE
  8
0
 10
256.25
 20
22.2679
 11
256.189
 21
22.2341
  0
LINE
  8
0
 10
256.189
 20
22.2341
 11
256.127
 21
22.2024
  0
LINE
  8
0
 10
256.127
 20
22.2024
 11
256.063
 21
22.1729
  0
LINE
  8
0
 10
256.063
 20
22.1729
 11
255.999
 21
22.1456
  0
LINE
  8
0
 10
255.999
 20
22.1456
 11
255.934
 21
22.1206
  0
LINE
  8
0
 10
255.934
 20
22.1206
 11
255.868
 21
22.0979
  0
LINE
  8
0
 10
255.868
 20
22.0979
 11
255.801
 21
22.0775
  0
LINE
  8
0
 10
255.801
 20
22.0775
 11
255.734
 21
22.0594
  0
LINE
  8
0
 10
255.734
 20
22.0594
 11
255.666
 21
22.0437
  0
LINE
  8
0
 10
255.666
 20
22.0437
 11
255.597
 21
22.0304
  0
LINE
  8
0
 10
255.597
 20
22.0304
 11
255.528
 21
22.0195
  0
LINE
  8
0
 10
255.528
 20
22.0195
 11
255.459
 21
22.011
  0
LINE
  8
0
 10
255.459
 20
22.011
 11
255.39
 21
22.0049
  0
LINE
  8
0
 10
255.39
 20
22.0049
 11
255.32
 21
22.0012
  0
LINE
  8
0
 10
255.32
 20
22.0012
 11
255.25
 21
22
  0
LINE
  8
0
 10
255.25
 20
22
 11
255.18
 21
22.0012
  0
LINE
  8
0
 10
151.93
 20
22.0012
 11
151.86
 21
22.0049
  0
LINE
  8
0
 10
151.86
 20
22.0049
 11
151.791
 21
22.011
  0
LINE
  8
0
 10
151.791
 20
22.011
 11
151.722
 21
22.0195
  0
LINE
  8
0
 10
151.722
 20
22.0195
 11
151.653
 21
22.0304
  0
LINE
  8
0
 10
151.653
 20
22.0304
 11
151.584
 21
22.0437
  0
LINE
  8
0
 10
151.584
 20
22.0437
 11
151.516
 21
22.0594
  0
LINE
  8
0
 10
151.516
 20
22.0594
 11
151.449
 21
22.0775
  0
LINE
  8
0
 10
151.449
 20
22.0775
 11
151.382
 21
22.0979
  0
LINE
  8
0
 10
151.382
 20
22.0979
 11
151.316
 21
22.1206
  0
LINE
  8
0
 10
151.316
 20
22.1206
 11
151.251
 21
22.1456
  0
LINE
  8
0
 10
151.251
 20
22.1456
 11
151.187
 21
22.1729
  0
LINE
  8
0
 10
151.187
 20
22.1729
 11
151.123
 21
22.2024
  0
LINE
  8
0
 10
151.123
 20
22.2024
 11
151.061
 21
22.2341
  0
LINE
  8
0
 10
151.061
 20
22.2341
 11
151
 21
22.2679
  0
LINE
  8
0
 10
151
 20
22.2679
 11
150.94
 21
22.3039
  0
LINE
  8
0
 10
150.94
 20
22.3039
 11
150.882
 21
22.3419
  0
LINE
  8
0
 10
150.882
 20
22.3419
 11
150.824
 21
22.382
  0
LINE
  8
0
 10
150.824
 20
22.382
 11
150.769
 21
22.424
  0
LINE
  8
0
 10
150.769
 20
22.424
 11
150.714
 21
22.4679
  0
LINE
  8
0
 10
150.714
 20
22.4679
 11
150.662
 21
22.5137
  0
LINE
  8
0
 10
150.662
 20
22.5137
 11
150.611
 21
22.5613
  0
LINE
  8
0
 10
150.611
 20
22.5613
 11
150.561
 21
22.6107
  0
LINE
  8
0
 10
150.561
 20
22.6107
 11
150.514
 21
22.6617
  0
LINE
  8
0
 10
150.514
 20
22.6617
 11
150.468
 21
22.7144
  0
LINE
  8
0
 10
150.468
 20
22.7144
 11
150.424
 21
22.7687
  0
LINE
  8
0
 10
150.424
 20
22.7687
 11
150.382
 21
22.8244
  0
LINE
  8
0
 10
150.382
 20
22.8244
 11
150.342
 21
22.8816
  0
LINE
  8
0
 10
150.342
 20
22.8816
 11
150.304
 21
22.9402
  0
LINE
  8
0
 10
150.304
 20
22.9402
 11
150.268
 21
23
  0
LINE
  8
0
 10
150.268
 20
23
 11
150.234
 21
23.0611
  0
LINE
  8
0
 10
150.234
 20
23.0611
 11
150.202
 21
23.1232
  0
LINE
  8
0
 10
150.202
 20
23.1232
 11
150.173
 21
23.1865
  0
LINE
  8
0
 10
150.173
 20
23.1865
 11
150.146
 21
23.2508
  0
LINE
  8
0
 10
150.146
 20
23.2508
 11
150.121
 21
23.3159
  0
LINE
  8
0
 10
150.121
 20
23.3159
 11
150.098
 21
23.382
  0
LINE
  8
0
 10
150.098
 20
23.382
 11
150.077
 21
23.4487
  0
LINE
  8
0
 10
150.077
 20
23.4487
 11
150.059
 21
23.5161
  0
LINE
  8
0
 10
150.059
 20
23.5161
 11
150.044
 21
23.5842
  0
LINE
  8
0
 10
150.044
 20
23.5842
 11
150.03
 21
23.6527
  0
LINE
  8
0
 10
150.03
 20
23.6527
 11
150.019
 21
23.7216
  0
LINE
  8
0
 10
150.019
 20
23.7216
 11
150.011
 21
23.7909
  0
LINE
  8
0
 10
150.011
 20
23.7909
 11
150.005
 21
23.8605
  0
LINE
  8
0
 10
150.005
 20
23.8605
 11
150.001
 21
23.9302
  0
LINE
  8
0
 10
150.001
 20
23.9302
 11
150
 21
24
  0
LINE
  8
0
 10
150
 20
24
 11
150.001
 21
24.0698
  0
LINE
  8
0
 10
150.001
 20
24.0698
 11
150.005
 21
24.1395
  0
LINE
  8
0
 10
150.005
 20
24.1395
 11
150.011
 21
24.209
  0
LINE
  8
0
 10
150.011
 20
24.209
 11
150.019
 21
24.2783
  0
LINE
  8
0
 10
150.019
 20
24.2783
 11
150.03
 21
24.3473
  0
LINE
  8
0
 10
150.03
 20
24.3473
 11
150.044
 21
24.4158
  0
LINE
  8
0
 10
150.044
 20
24.4158
 11
150.059
 21
24.4838
  0
LINE
  8
0
 10
150.059
 20
24.4838
 11
150.077
 21
24.5513
  0
LINE
  8
0
 10
150.077
 20
24.5513
 11
150.098
 21
24.618
  0
LINE
  8
0
 10
150.098
 20
24.618
 11
150.121
 21
24.684
  0
LINE
  8
0
 10
150.121
 20
24.684
 11
150.146
 21
24.7492
  0
LINE
  8
0
 10
150.146
 20
24.7492
 11
150.173
 21
24.8135
  0
LINE
  8
0
 10
150.173
 20
24.8135
 11
150.202
 21
24.8767
  0
LINE
  8
0
 10
150.202
 20
24.8767
 11
150.234
 21
24.9389
  0
LINE
  8
0
 10
150.234
 20
24.9389
 11
150.268
 21
25
  0
LINE
  8
0
 10
150.268
 20
25
 11
150.304
 21
25.0598
  0
LINE
  8
0
 10
150.304
 20
25.0598
 11
150.342
 21
25.1184
  0
LINE
  8
0
 10
150.342
 20
25.1184
 11
150.382
 21
25.1756
  0
LINE
  8
0
 10
150.382
 20
25.1756
 11
150.424
 21
25.2313
  0
LINE
  8
0
 10
150.424
 20
25.2313
 11
150.468
 21
25.2856
  0
LINE
  8
0
 10
150.468
 20
25.2856
 11
150.514
 21
25.3383
  0
LINE
  8
0
 10
150.514
 20
25.3383
 11
150.561
 21
25.3893
  0
LINE
  8
0
 10
150.561
 20
25.3893
 11
150.611
 21
25.4387
  0
LINE
  8
0
 10
150.611
 20
25.4387
 11
150.662
 21
25.4863
  0
LINE
  8
0
 10
150.662
 20
25.4863
 11
150.714
 21
25.5321
  0
LINE
  8
0
 10
150.714
 20
25.5321
 11
150.769
 21
25.576
  0
LINE
  8
0
 10
150.769
 20
25.576
 11
150.824
 21
25.618
  0
LINE
  8
0
 10
150.824
 20
25.618
 11
150.882
 21
25.6581
  0
LINE
  8
0
 10
150.882
 20
25.6581
 11
150.94
 21
25.6961
  0
LINE
  8
0
 10
150.94
 20
25.6961
 11
151
 21
25.732
  0
LINE
  8
0
 10
151
 20
25.732
 11
151.061
 21
25.7659
  0
LINE
  8
0
 10
151.061
 20
25.7659
 11
151.123
 21
25.7976
  0
LINE
  8
0
 10
151.123
 20
25.7976
 11
151.187
 21
25.8271
  0
LINE
  8
0
 10
151.187
 20
25.8271
 11
151.251
 21
25.8544
  0
LINE
  8
0
 10
151.251
 20
25.8544
 11
151.316
 21
25.8794
  0
LINE
  8
0
 10
151.316
 20
25.8794
 11
151.382
 21
25.9021
  0
LINE
  8
0
 10
151.382
 20
25.9021
 11
151.449
 21
25.9225
  0
LINE
  8
0
 10
151.449
 20
25.9225
 11
151.516
 21
25.9406
  0
LINE
  8
0
 10
151.516
 20
25.9406
 11
151.584
 21
25.9563
  0
LINE
  8
0
 10
151.584
 20
25.9563
 11
151.653
 21
25.9696
  0
LINE
  8
0
 10
151.653
 20
25.9696
 11
151.722
 21
25.9805
  0
LINE
  8
0
 10
151.722
 20
25.9805
 11
151.791
 21
25.989
  0
LINE
  8
0
 10
151.791
 20
25.989
 11
151.86
 21
25.9951
  0
LINE
  8
0
 10
151.86
 20
25.9951
 11
151.93
 21
25.9988
  0
LINE
  8
0
 10
151.93
 20
25.9988
 11
152
 21
26
  0
LINE
  8
0
 10
152
 20
26
 11
152.07
 21
25.9988
  0
LINE
  8
0
 10
152.07
 20
25.9988
 11
152.14
 21
25.9951
  0
LINE
  8
0
 10
152.14
 20
25.9951
 11
152.209
 21
25.989
  0
LINE
  8
0
 10
152.209
 20
25.989
 11
152.278
 21
25.9805
  0
LINE
  8
0
 10
152.278
 20
25.9805
 11
152.347
 21
25.9696
  0
LINE
  8
0
 10
152.347
 20
25.9696
 11
152.416
 21
25.9563
  0
LINE
  8
0
 10
152.416
 20
25.9563
 11
152.484
 21
25.9406
  0
LINE
  8
0
 10
152.484
 20
25.9406
 11
152.551
 21
25.9225
  0
LINE
  8
0
 10
152.551
 20
25.9225
 11
152.618
 21
25.9021
  0
LINE
  8
0
 10
152.618
 20
25.9021
 11
152.684
 21
25.8794
  0
LINE
  8
0
 10
152.684
 20
25.8794
 11
152.749
 21
25.8544
  0
LINE
  8
0
 10
152.749
 20
25.8544
 11
152.813
 21
25.8271
  0
LINE
  8
0
 10
152.813
 20
25.8271
 11
152.877
 21
25.7976
  0
LINE
  8
0
 10
152.877
 20
25.7976
 11
152.939
 21
25.7659
  0
LINE
  8
0
 10
152.939
 20
25.7659
 11
153
 21
25.732
  0
LINE
  8
0
 10
153
 20
25.732
 11
153.06
 21
25.6961
  0
LINE
  8
0
 10
153.06
 20
25.6961
 11
153.118
 21
25.6581
  0
LINE
  8
0
 10
153.118
 20
25.6581
 11
153.176
 21
25.618
  0
LINE
  8
0
 10
153.176
 20
25.618
 11
153.231
 21
25.576
  0
LINE
  8
0
 10
153.231
 20
25.576
 11
153.286
 21
25.5321
  0
LINE
  8
0
 10
153.286
 20
25.5321
 11
153.338
 21
25.4863
  0
LINE
  8
0
 10
153.338
 20
25.4863
 11
153.389
 21
25.4387
  0
LINE
  8
0
 10
153.389
 20
25.4387
 11
153.439
 21
25.3893
  0
LINE
  8
0
 10
153.439
 20
25.3893
 11
153.486
 21
25.3383
  0
LINE
  8
0
 10
153.486
 20
25.3383
 11
153.532
 21
25.2856
  0
LINE
  8
0
 10
153.532
 20
25.2856
 11
153.576
 21
25.2313
  0
LINE
  8
0
 10
153.576
 20
25.2313
 11
153.618
 21
25.1756
  0
LINE
  8
0
 10
153.618
 20
25.1756
 11
153.658
 21
25.1184
  0
LINE
  8
0
 10
153.658
 20
25.1184
 11
153.696
 21
25.0598
  0
LINE
  8
0
 10
153.696
 20
25.0598
 11
153.732
 21
25
  0
LINE
  8
0
 10
153.732
 20
25
 11
153.766
 21
24.9389
  0
LINE
  8
0
 10
153.766
 20
24.9389
 11
153.798
 21
24.8767
  0
LINE
  8
0
 10
153.798
 20
24.8767
 11
153.827
 21
24.8135
  0
LINE
  8
0
 10
153.827
 20
24.8135
 11
153.854
 21
24.7492
  0
LINE
  8
0
 10
153.854
 20
24.7492
 11
153.879
 21
24.684
  0
LINE
  8
0
 10
153.879
 20
24.684
 11
153.902
 21
24.618
  0
LINE
  8
0
 10
153.902
 20
24.618
 11
153.923
 21
24.5513
  0
LINE
  8
0
 10
153.923
 20
24.5513
 11
153.941
 21
24.4838
  0
LINE
  8
0
 10
153.941
 20
24.4838
 11
153.956
 21
24.4158
  0
LINE
  8
0
 10
153.956
 20
24.4158
 11
153.97
 21
24.3473
  0
LINE
  8
0
 10
153.97
 20
24.3473
 11
153.981
 21
24.2783
  0
LINE
  8
0
 10
153.981
 20
24.2783
 11
153.989
 21
24.209
  0
LINE
  8
0
 10
153.989
 20
24.209
 11
153.995
 21
24.1395
  0
LINE
  8
0
 10
153.995
 20
24.1395
 11
153.999
 21
24.0698
  0
LINE
  8
0
 10
153.999
 20
24.0698
 11
154
 21
24
  0
LINE
  8
0
 10
154
 20
24
 11
153.999
 21
23.9302
  0
LINE
  8
0
 10
153.999
 20
23.9302
 11
153.995
 21
23.8605
  0
LINE
  8
0
 10
153.995
 20
23.8605
 11
153.989
 21
23.7909
  0
LINE
  8
0
 10
153.989
 20
23.7909
 11
153.981
 21
23.7216
  0
LINE
  8
0
 10
153.981
 20
23.7216
 11
153.97
 21
23.6527
  0
LINE
  8
0
 10
153.97
 20
23.6527
 11
153.956
 21
23.5842
  0
LINE
  8
0
 10
153.956
 20
23.5842
 11
153.941
 21
23.5161
  0
LINE
  8
0
 10
153.941
 20
23.5161
 11
153.923
 21
23.4487
  0
LINE
  8
0
 10
153.923
 20
23.4487
 11
153.902
 21
23.382
  0
LINE
  8
0
 10
153.902
 20
23.382
 11
153.879
 21
23.3159
  0
LINE
  8
0
 10
153.879
 20
23.3159
 11
153.854
 21
23.2508
  0
LINE
  8
0
 10
153.854
 20
23.2508
 11
153.827
 21
23.1865
  0
LINE
  8
0
 10
153.827
 20
23.1865
 11
153.798
 21
23.1232
  0
LINE
  8
0
 10
153.798
 20
23.1232
 11
153.766
 21
23.0611
  0
LINE
  8
0
 10
153.766
 20
23.0611
 11
153.732
 21
23
  0
LINE
  8
0
 10
153.732
 20
23
 11
153.696
 21
22.9402
  0
LINE
  8
0
 10
153.696
 20
22.9402
 11
153.658
 21
22.8816
  0
LINE
  8
0
 10
153.658
 20
22.8816
 11
153.618
 21
22.8244
  0
LINE
  8
0
 10
153.618
 20
22.8244
 11
153.576
 21
22.7687
  0
LINE
  8
0
 10
153.576
 20
22.7687
 11
153.532
 21
22.7144
  0
LINE
  8
0
 10
153.532
 20
22.7144
 11
153.486
 21
22.6617
  0
LINE
  8
0
 10
153.486
 20
22.6617
 11
153.439
 21
22.6107
  0
LINE
  8
0
 10
153.439
 20
22.6107
 11
153.389
 21
22.5613
  0
LINE
  8
0
 10
153.389
 20
22.5613
 11
153.338
 21
22.5137
  0
LINE
  8
0
 10
153.338
 20
22.5137
 11
153.286
 21
22.4679
  0
LINE
  8
0
 10
153.286
 20
22.4679
 11
153.231
 21
22.424
  0
LINE
  8
0
 10
153.231
 20
22.424
 11
153.176
 21
22.382
  0
LINE
  8
0
 10
153.176
 20
22.382
 11
153.118
 21
22.3419
  0
LINE
  8
0
 10
153.118
 20
22.3419
 11
153.06
 21
22.3039
  0
LINE
  8
0
 10
153.06
 20
22.3039
 11
153
 21
22.2679
  0
LINE
  8
0
 10
153
 20
22.2679
 11
152.939
 21
22.2341
  0
LINE
  8
0
 10
152.939
 20
22.2341
 11
152.877
 21
22.2024
  0
LINE
  8
0
 10
152.877
 20
22.2024
 11
152.813
 21
22.1729
  0
LINE
  8
0
 10
152.813
 20
22.1729
 11
152.749
 21
22.1456
  0
LINE
  8
0
 10
152.749
 20
22.1456
 11
152.684
 21
22.1206
  0
LINE
  8
0
 10
152.684
 20
22.1206
 11
152.618
 21
22.0979
  0
LINE
  8
0
 10
152.618
 20
22.0979
 11
152.551
 21
22.0775
  0
LINE
  8
0
 10
152.551
 20
22.0775
 11
152.484
 21
22.0594
  0
LINE
  8
0
 10
152.484
 20
22.0594
 11
152.416
 21
22.0437
  0
LINE
  8
0
 10
152.416
 20
22.0437
 11
152.347
 21
22.0304
  0
LINE
  8
0
 10
152.347
 20
22.0304
 11
152.278
 21
22.0195
  0
LINE
  8
0
 10
152.278
 20
22.0195
 11
152.209
 21
22.011
  0
LINE
  8
0
 10
152.209
 20
22.011
 11
152.14
 21
22.0049
  0
LINE
  8
0
 10
152.14
 20
22.0049
 11
152.07
 21
22.0012
  0
LINE
  8
0
 10
152.07
 20
22.0012
 11
152
 21
22
  0
LINE
  8
0
 10
152
 20
22
 11
151.93
 21
22.0012
  0
LINE
  8
0
 10
295.944
 20
10.5253
 11
295.833
 21
10.5331
  0
LINE
  8
0
 10
295.833
 20
10.5331
 11
295.722
 21
10.5487
  0
LINE
  8
0
 10
295.722
 20
10.5487
 11
295.613
 21
10.5719
  0
LINE
  8
0
 10
295.613
 20
10.5719
 11
295.506
 21
10.6027
  0
LINE
  8
0
 10
295.506
 20
10.6027
 11
295.401
 21
10.6409
  0
LINE
  8
0
 10
295.401
 20
10.6409
 11
295.299
 21
10.6863
  0
LINE
  8
0
 10
295.299
 20
10.6863
 11
295.2
 21
10.7387
  0
LINE
  8
0
 10
295.2
 20
10.7387
 11
295.105
 21
10.7979
  0
LINE
  8
0
 10
295.105
 20
10.7979
 11
295.015
 21
10.8635
  0
LINE
  8
0
 10
295.015
 20
10.8635
 11
294.929
 21
10.9353
  0
LINE
  8
0
 10
294.929
 20
10.9353
 11
294.849
 21
11.0129
  0
LINE
  8
0
 10
294.849
 20
11.0129
 11
294.774
 21
11.0959
  0
LINE
  8
0
 10
294.774
 20
11.0959
 11
294.706
 21
11.1839
  0
LINE
  8
0
 10
294.706
 20
11.1839
 11
294.643
 21
11.2765
  0
LINE
  8
0
 10
294.643
 20
11.2765
 11
294.587
 21
11.3732
  0
LINE
  8
0
 10
294.587
 20
11.3732
 11
294.538
 21
11.4736
  0
LINE
  8
0
 10
294.538
 20
11.4736
 11
294.497
 21
11.5771
  0
LINE
  8
0
 10
294.497
 20
11.5771
 11
294.462
 21
11.6833
  0
LINE
  8
0
 10
294.462
 20
11.6833
 11
294.435
 21
11.7917
  0
LINE
  8
0
 10
294.435
 20
11.7917
 11
294.416
 21
11.9017
  0
LINE
  8
0
 10
294.416
 20
11.9017
 11
294.404
 21
12.0127
  0
LINE
  8
0
 10
294.404
 20
12.0127
 11
294.4
 21
12.1243
  0
LINE
  8
0
 10
294.4
 20
12.1243
 11
294.404
 21
12.236
  0
LINE
  8
0
 10
294.404
 20
12.236
 11
294.416
 21
12.347
  0
LINE
  8
0
 10
294.416
 20
12.347
 11
294.435
 21
12.457
  0
LINE
  8
0
 10
294.435
 20
12.457
 11
294.462
 21
12.5654
  0
LINE
  8
0
 10
294.462
 20
12.5654
 11
294.497
 21
12.6716
  0
LINE
  8
0
 10
294.497
 20
12.6716
 11
294.538
 21
12.7751
  0
LINE
  8
0
 10
294.538
 20
12.7751
 11
294.587
 21
12.8755
  0
LINE
  8
0
 10
294.587
 20
12.8755
 11
294.643
 21
12.9722
  0
LINE
  8
0
 10
294.643
 20
12.9722
 11
294.706
 21
13.0648
  0
LINE
  8
0
 10
294.706
 20
13.0648
 11
294.774
 21
13.1528
  0
LINE
  8
0
 10
294.774
 20
13.1528
 11
294.849
 21
13.2358
  0
LINE
  8
0
 10
294.849
 20
13.2358
 11
294.929
 21
13.3134
  0
LINE
  8
0
 10
294.929
 20
13.3134
 11
295.015
 21
13.3852
  0
LINE
  8
0
 10
295.015
 20
13.3852
 11
295.105
 21
13.4508
  0
LINE
  8
0
 10
295.105
 20
13.4508
 11
295.2
 21
13.51
  0
LINE
  8
0
 10
295.2
 20
13.51
 11
295.299
 21
13.5624
  0
LINE
  8
0
 10
295.299
 20
13.5624
 11
295.401
 21
13.6078
  0
LINE
  8
0
 10
295.401
 20
13.6078
 11
295.506
 21
13.646
  0
LINE
  8
0
 10
295.506
 20
13.646
 11
295.613
 21
13.6768
  0
LINE
  8
0
 10
295.613
 20
13.6768
 11
295.722
 21
13.7
  0
LINE
  8
0
 10
295.722
 20
13.7
 11
295.833
 21
13.7156
  0
LINE
  8
0
 10
295.833
 20
13.7156
 11
295.944
 21
13.7234
  0
LINE
  8
0
 10
295.944
 20
13.7234
 11
298
 21
13.7243
  0
LINE
  8
0
 10
298
 20
13.7243
 11
298.112
 21
13.7204
  0
LINE
  8
0
 10
298.112
 20
13.7204
 11
298.223
 21
13.7088
  0
LINE
  8
0
 10
298.223
 20
13.7088
 11
298.333
 21
13.6894
  0
LINE
  8
0
 10
298.333
 20
13.6894
 11
298.441
 21
13.6624
  0
LINE
  8
0
 10
298.441
 20
13.6624
 11
298.547
 21
13.6279
  0
LINE
  8
0
 10
298.547
 20
13.6279
 11
298.651
 21
13.586
  0
LINE
  8
0
 10
298.651
 20
13.586
 11
298.751
 21
13.5371
  0
LINE
  8
0
 10
298.751
 20
13.5371
 11
298.848
 21
13.4812
  0
LINE
  8
0
 10
298.848
 20
13.4812
 11
298.94
 21
13.4188
  0
LINE
  8
0
 10
298.94
 20
13.4188
 11
299.028
 21
13.35
  0
LINE
  8
0
 10
299.028
 20
13.35
 11
299.111
 21
13.2753
  0
LINE
  8
0
 10
299.111
 20
13.2753
 11
299.189
 21
13.195
  0
LINE
  8
0
 10
299.189
 20
13.195
 11
299.261
 21
13.1094
  0
LINE
  8
0
 10
299.261
 20
13.1094
 11
299.326
 21
13.0191
  0
LINE
  8
0
 10
299.326
 20
13.0191
 11
299.386
 21
12.9243
  0
LINE
  8
0
 10
299.386
 20
12.9243
 11
299.438
 21
12.8257
  0
LINE
  8
0
 10
299.438
 20
12.8257
 11
299.484
 21
12.7237
  0
LINE
  8
0
 10
299.484
 20
12.7237
 11
299.522
 21
12.6188
  0
LINE
  8
0
 10
299.522
 20
12.6188
 11
299.552
 21
12.5114
  0
LINE
  8
0
 10
299.552
 20
12.5114
 11
299.576
 21
12.4022
  0
LINE
  8
0
 10
299.576
 20
12.4022
 11
299.591
 21
12.2916
  0
LINE
  8
0
 10
299.591
 20
12.2916
 11
299.599
 21
12.1802
  0
LINE
  8
0
 10
299.599
 20
12.1802
 11
299.599
 21
12.0685
  0
LINE
  8
0
 10
299.599
 20
12.0685
 11
299.591
 21
11.9571
  0
LINE
  8
0
 10
299.591
 20
11.9571
 11
299.576
 21
11.8465
  0
LINE
  8
0
 10
299.576
 20
11.8465
 11
299.552
 21
11.7373
  0
LINE
  8
0
 10
299.552
 20
11.7373
 11
299.522
 21
11.6299
  0
LINE
  8
0
 10
299.522
 20
11.6299
 11
299.484
 21
11.525
  0
LINE
  8
0
 10
299.484
 20
11.525
 11
299.438
 21
11.423
  0
LINE
  8
0
 10
299.438
 20
11.423
 11
299.386
 21
11.3243
  0
LINE
  8
0
 10
299.386
 20
11.3243
 11
299.326
 21
11.2296
  0
LINE
  8
0
 10
299.326
 20
11.2296
 11
299.261
 21
11.1393
  0
LINE
  8
0
 10
299.261
 20
11.1393
 11
299.189
 21
11.0537
  0
LINE
  8
0
 10
299.189
 20
11.0537
 11
299.111
 21
10.9734
  0
LINE
  8
0
 10
299.111
 20
10.9734
 11
299.028
 21
10.8987
  0
LINE
  8
0
 10
299.028
 20
10.8987
 11
298.94
 21
10.8299
  0
LINE
  8
0
 10
298.94
 20
10.8299
 11
298.848
 21
10.7675
  0
LINE
  8
0
 10
298.848
 20
10.7675
 11
298.751
 21
10.7116
  0
LINE
  8
0
 10
298.751
 20
10.7116
 11
298.651
 21
10.6627
  0
LINE
  8
0
 10
298.651
 20
10.6627
 11
298.547
 21
10.6208
  0
LINE
  8
0
 10
298.547
 20
10.6208
 11
298.441
 21
10.5863
  0
LINE
  8
0
 10
298.441
 20
10.5863
 11
298.333
 21
10.5593
  0
LINE
  8
0
 10
298.333
 20
10.5593
 11
298.223
 21
10.5399
  0
LINE
  8
0
 10
298.223
 20
10.5399
 11
298.112
 21
10.5282
  0
LINE
  8
0
 10
298.112
 20
10.5282
 11
298
 21
10.5244
  0
LINE
  8
0
 10
298
 20
10.5244
 11
295.944
 21
10.5253
  0
LINE
  8
0
 10
15
 20
5.89999
 11
14.8884
 21
5.90388
  0
LINE
  8
0
 10
14.8884
 20
5.90388
 11
14.7773
 21
5.91556
  0
LINE
  8
0
 10
14.7773
 20
5.91556
 11
14.6673
 21
5.93495
  0
LINE
  8
0
 10
14.6673
 20
5.93495
 11
14.559
 21
5.96198
  0
LINE
  8
0
 10
14.559
 20
5.96198
 11
14.4528
 21
5.99649
  0
LINE
  8
0
 10
14.4528
 20
5.99649
 11
14.3492
 21
6.03831
  0
LINE
  8
0
 10
14.3492
 20
6.03831
 11
14.2488
 21
6.08728
  0
LINE
  8
0
 10
14.2488
 20
6.08728
 11
14.1521
 21
6.14311
  0
LINE
  8
0
 10
14.1521
 20
6.14311
 11
14.0595
 21
6.20557
  0
LINE
  8
0
 10
14.0595
 20
6.20557
 11
13.9715
 21
6.27432
  0
LINE
  8
0
 10
13.9715
 20
6.27432
 11
13.8885
 21
6.34904
  0
LINE
  8
0
 10
13.8885
 20
6.34904
 11
13.811
 21
6.42938
  0
LINE
  8
0
 10
13.811
 20
6.42938
 11
13.7392
 21
6.51494
  0
LINE
  8
0
 10
13.7392
 20
6.51494
 11
13.6735
 21
6.60529
  0
LINE
  8
0
 10
13.6735
 20
6.60529
 11
13.6143
 21
6.7
  0
LINE
  8
0
 10
13.6143
 20
6.7
 11
13.5619
 21
6.7986
  0
LINE
  8
0
 10
13.5619
 20
6.7986
 11
13.5165
 21
6.90062
  0
LINE
  8
0
 10
13.5165
 20
6.90062
 11
13.4783
 21
7.00557
  0
LINE
  8
0
 10
13.4783
 20
7.00557
 11
13.4475
 21
7.11292
  0
LINE
  8
0
 10
13.4475
 20
7.11292
 11
13.4243
 21
7.22215
  0
LINE
  8
0
 10
13.4243
 20
7.22215
 11
13.4088
 21
7.33275
  0
LINE
  8
0
 10
13.4088
 20
7.33275
 11
13.401
 21
7.44415
  0
LINE
  8
0
 10
13.401
 20
7.44415
 11
13.401
 21
7.55583
  0
LINE
  8
0
 10
13.401
 20
7.55583
 11
13.4088
 21
7.66724
  0
LINE
  8
0
 10
13.4088
 20
7.66724
 11
13.4243
 21
7.77783
  0
LINE
  8
0
 10
13.4243
 20
7.77783
 11
13.4475
 21
7.88707
  0
LINE
  8
0
 10
13.4475
 20
7.88707
 11
13.4783
 21
7.99442
  0
LINE
  8
0
 10
13.4783
 20
7.99442
 11
13.5165
 21
8.09937
  0
LINE
  8
0
 10
13.5165
 20
8.09937
 11
13.5619
 21
8.20139
  0
LINE
  8
0
 10
13.5619
 20
8.20139
 11
13.6143
 21
8.29999
  0
LINE
  8
0
 10
13.6143
 20
8.29999
 11
13.6735
 21
8.3947
  0
LINE
  8
0
 10
13.6735
 20
8.3947
 11
13.7392
 21
8.48505
  0
LINE
  8
0
 10
13.7392
 20
8.48505
 11
13.811
 21
8.5706
  0
LINE
  8
0
 10
13.811
 20
8.5706
 11
13.8885
 21
8.65094
  0
LINE
  8
0
 10
13.8885
 20
8.65094
 11
13.9715
 21
8.72566
  0
LINE
  8
0
 10
13.9715
 20
8.72566
 11
14.0595
 21
8.79442
  0
LINE
  8
0
 10
14.0595
 20
8.79442
 11
14.1521
 21
8.85687
  0
LINE
  8
0
 10
14.1521
 20
8.85687
 11
14.2488
 21
8.9127
  0
LINE
  8
0
 10
14.2488
 20
8.9127
 11
14.3492
 21
8.96167
  0
LINE
  8
0
 10
14.3492
 20
8.96167
 11
14.4528
 21
9.00349
  0
LINE
  8
0
 10
14.4528
 20
9.00349
 11
14.559
 21
9.03801
  0
LINE
  8
0
 10
14.559
 20
9.03801
 11
14.6673
 21
9.06503
  0
LINE
  8
0
 10
14.6673
 20
9.06503
 11
14.7773
 21
9.08443
  0
LINE
  8
0
 10
14.7773
 20
9.08443
 11
14.8884
 21
9.0961
  0
LINE
  8
0
 10
14.8884
 20
9.0961
 11
15
 21
9.09999
  0
LINE
  8
0
 10
15
 20
9.09999
 11
15.1116
 21
9.0961
  0
LINE
  8
0
 10
15.1116
 20
9.0961
 11
15.2227
 21
9.08443
  0
LINE
  8
0
 10
15.2227
 20
9.08443
 11
15.3327
 21
9.06503
  0
LINE
  8
0
 10
15.3327
 20
9.06503
 11
15.441
 21
9.03801
  0
LINE
  8
0
 10
15.441
 20
9.03801
 11
15.5472
 21
9.00349
  0
LINE
  8
0
 10
15.5472
 20
9.00349
 11
15.6508
 21
8.96167
  0
LINE
  8
0
 10
15.6508
 20
8.96167
 11
15.7511
 21
8.9127
  0
LINE
  8
0
 10
15.7511
 20
8.9127
 11
15.8479
 21
8.85687
  0
LINE
  8
0
 10
15.8479
 20
8.85687
 11
15.9404
 21
8.79442
  0
LINE
  8
0
 10
15.9404
 20
8.79442
 11
16.0285
 21
8.72566
  0
LINE
  8
0
 10
16.0285
 20
8.72566
 11
16.1115
 21
8.65094
  0
LINE
  8
0
 10
16.1115
 20
8.65094
 11
16.189
 21
8.5706
  0
LINE
  8
0
 10
16.189
 20
8.5706
 11
16.2608
 21
8.48505
  0
LINE
  8
0
 10
16.2608
 20
8.48505
 11
16.3264
 21
8.3947
  0
LINE
  8
0
 10
16.3264
 20
8.3947
 11
16.3856
 21
8.29999
  0
LINE
  8
0
 10
16.3856
 20
8.29999
 11
16.4381
 21
8.20139
  0
LINE
  8
0
 10
16.4381
 20
8.20139
 11
16.4835
 21
8.09937
  0
LINE
  8
0
 10
16.4835
 20
8.09937
 11
16.5217
 21
7.99442
  0
LINE
  8
0
 10
16.5217
 20
7.99442
 11
16.5525
 21
7.88707
  0
LINE
  8
0
 10
16.5525
 20
7.88707
 11
16.5757
 21
7.77783
  0
LINE
  8
0
 10
16.5757
 20
7.77783
 11
16.5912
 21
7.66724
  0
LINE
  8
0
 10
16.5912
 20
7.66724
 11
16.599
 21
7.55583
  0
LINE
  8
0
 10
16.599
 20
7.55583
 11
16.599
 21
7.44415
  0
LINE
  8
0
 10
16.599
 20
7.44415
 11
16.5912
 21
7.33275
  0
LINE
  8
0
 10
16.5912
 20
7.33275
 11
16.5757
 21
7.22215
  0
LINE
  8
0
 10
16.5757
 20
7.22215
 11
16.5525
 21
7.11292
  0
LINE
  8
0
 10
16.5525
 20
7.11292
 11
16.5217
 21
7.00557
  0
LINE
  8
0
 10
16.5217
 20
7.00557
 11
16.4835
 21
6.90062
  0
LINE
  8
0
 10
16.4835
 20
6.90062
 11
16.4381
 21
6.7986
  0
LINE
  8
0
 10
16.4381
 20
6.7986
 11
16.3856
 21
6.7
  0
LINE
  8
0
 10
16.3856
 20
6.7
 11
16.3264
 21
6.60529
  0
LINE
  8
0
 10
16.3264
 20
6.60529
 11
16.2608
 21
6.51494
  0
LINE
  8
0
 10
16.2608
 20
6.51494
 11
16.189
 21
6.42938
  0
LINE
  8
0
 10
16.189
 20
6.42938
 11
16.1115
 21
6.34904
  0
LINE
  8
0
 10
16.1115
 20
6.34904
 11
16.0285
 21
6.27432
  0
LINE
  8
0
 10
16.0285
 20
6.27432
 11
15.9404
 21
6.20557
  0
LINE
  8
0
 10
15.9404
 20
6.20557
 11
15.8479
 21
6.14311
  0
LINE
  8
0
 10
15.8479
 20
6.14311
 11
15.7511
 21
6.08728
  0
LINE
  8
0
 10
15.7511
 20
6.08728
 11
15.6508
 21
6.03831
  0
LINE
  8
0
 10
15.6508
 20
6.03831
 11
15.5472
 21
5.99649
  0
LINE
  8
0
 10
15.5472
 20
5.99649
 11
15.441
 21
5.96198
  0
LINE
  8
0
 10
15.441
 20
5.96198
 11
15.3327
 21
5.93495
  0
LINE
  8
0
 10
15.3327
 20
5.93495
 11
15.2227
 21
5.91556
  0
LINE
  8
0
 10
15.2227
 20
5.91556
 11
15.1116
 21
5.90388
  0
LINE
  8
0
 10
15.1116
 20
5.90388
 11
15
 21
5.89999
  0
LINE
  8
0
 10
303
 20
-6
 11
302.791
 21
-5.99634
  0
LINE
  8
0
 10
302.791
 20
-5.99634
 11
302.581
 21
-5.98538
  0
LINE
  8
0
 10
302.581
 20
-5.98538
 11
302.373
 21
-5.96712
  0
LINE
  8
0
 10
302.373
 20
-5.96712
 11
302.165
 21
-5.9416
  0
LINE
  8
0
 10
302.165
 20
-5.9416
 11
301.958
 21
-5.90884
  0
LINE
  8
0
 10
301.958
 20
-5.90884
 11
301.753
 21
-5.86888
  0
LINE
  8
0
 10
301.753
 20
-5.86888
 11
301.548
 21
-5.82176
  0
LINE
  8
0
 10
301.548
 20
-5.82176
 11
301.346
 21
-5.76756
  0
LINE
  8
0
 10
301.346
 20
-5.76756
 11
301.146
 21
-5.70633
  0
LINE
  8
0
 10
301.146
 20
-5.70633
 11
300.948
 21
-5.63815
  0
LINE
  8
0
 10
300.948
 20
-5.63815
 11
300.752
 21
-5.5631
  0
LINE
  8
0
 10
300.752
 20
-5.5631
 11
300.56
 21
-5.48126
  0
LINE
  8
0
 10
300.56
 20
-5.48126
 11
300.37
 21
-5.39276
  0
LINE
  8
0
 10
300.37
 20
-5.39276
 11
300.183
 21
-5.29768
  0
LINE
  8
0
 10
300.183
 20
-5.29768
 11
300
 21
-5.19615
  0
LINE
  8
0
 10
300
 20
-5.19615
 11
299.82
 21
-5.08829
  0
LINE
  8
0
 10
299.82
 20
-5.08829
 11
299.645
 21
-4.97421
  0
LINE
  8
0
 10
299.645
 20
-4.97421
 11
299.473
 21
-4.8541
  0
LINE
  8
0
 10
299.473
 20
-4.8541
 11
299.306
 21
-4.72806
  0
LINE
  8
0
 10
299.306
 20
-4.72806
 11
299.143
 21
-4.59625
  0
LINE
  8
0
 10
299.143
 20
-4.59625
 11
298.985
 21
-4.45886
  0
LINE
  8
0
 10
298.985
 20
-4.45886
 11
298.832
 21
-4.31602
  0
LINE
  8
0
 10
298.832
 20
-4.31602
 11
298.684
 21
-4.16794
  0
LINE
  8
0
 10
298.684
 20
-4.16794
 11
298.541
 21
-4.01477
  0
LINE
  8
0
 10
298.541
 20
-4.01477
 11
298.404
 21
-3.85672
  0
LINE
  8
0
 10
298.404
 20
-3.85672
 11
298.272
 21
-3.69395
  0
LINE
  8
0
 10
298.272
 20
-3.69395
 11
298.146
 21
-3.5267
  0
LINE
  8
0
 10
298.146
 20
-3.5267
 11
298.026
 21
-3.35515
  0
LINE
  8
0
 10
298.026
 20
-3.35515
 11
297.912
 21
-3.1795
  0
LINE
  8
0
 10
297.912
 20
-3.1795
 11
297.804
 21
-3
  0
LINE
  8
0
 10
297.804
 20
-3
 11
297.702
 21
-2.81682
  0
LINE
  8
0
 10
297.702
 20
-2.81682
 11
297.607
 21
-2.63022
  0
LINE
  8
0
 10
297.607
 20
-2.63022
 11
297.519
 21
-2.44041
  0
LINE
  8
0
 10
297.519
 20
-2.44041
 11
297.437
 21
-2.24763
  0
LINE
  8
0
 10
297.437
 20
-2.24763
 11
297.362
 21
-2.05211
  0
LINE
  8
0
 10
297.362
 20
-2.05211
 11
297.294
 21
-1.8541
  0
LINE
  8
0
 10
297.294
 20
-1.8541
 11
297.232
 21
-1.65382
  0
LINE
  8
0
 10
297.232
 20
-1.65382
 11
297.178
 21
-1.45152
  0
LINE
  8
0
 10
297.178
 20
-1.45152
 11
297.131
 21
-1.24747
  0
LINE
  8
0
 10
297.131
 20
-1.24747
 11
297.091
 21
-1.04189
  0
LINE
  8
0
 10
297.091
 20
-1.04189
 11
297.058
 21
-0.835037
  0
LINE
  8
0
 10
297.058
 20
-0.835037
 11
297.033
 21
-0.627167
  0
LINE
  8
0
 10
297.033
 20
-0.627167
 11
297.015
 21
-0.418533
  0
LINE
  8
0
 10
297.015
 20
-0.418533
 11
297.004
 21
-0.209396
  0
LINE
  8
0
 10
297.004
 20
-0.209396
 11
297
 21
0
  0
LINE
  8
0
 10
297
 20
0
 11
297.004
 21
0.209396
  0
LINE
  8
0
 10
297.004
 20
0.209396
 11
297.015
 21
0.418533
  0
LINE
  8
0
 10
297.015
 20
0.418533
 11
297.033
 21
0.627167
  0
LINE
  8
0
 10
297.033
 20
0.627167
 11
297.058
 21
0.835037
  0
LINE
  8
0
 10
297.058
 20
0.835037
 11
297.091
 21
1.04189
  0
LINE
  8
0
 10
297.091
 20
1.04189
 11
297.131
 21
1.24747
  0
LINE
  8
0
 10
297.131
 20
1.24747
 11
297.178
 21
1.45152
  0
LINE
  8
0
 10
297.178
 20
1.45152
 11
297.232
 21
1.65382
  0
LINE
  8
0
 10
297.232
 20
1.65382
 11
297.294
 21
1.8541
  0
LINE
  8
0
 10
297.294
 20
1.8541
 11
297.362
 21
2.05211
  0
LINE
  8
0
 10
297.362
 20
2.05211
 11
297.437
 21
2.24763
  0
LINE
  8
0
 10
297.437
 20
2.24763
 11
297.519
 21
2.44041
  0
LINE
  8
0
 10
297.519
 20
2.44041
 11
297.607
 21
2.63022
  0
LINE
  8
0
 10
297.607
 20
2.63022
 11
297.702
 21
2.81682
  0
LINE
  8
0
 10
297.702
 20
2.81682
 11
297.804
 21
2.99998
  0
LINE
  8
0
 10
297.804
 20
2.99998
 11
297.912
 21
3.1795
  0
LINE
  8
0
 10
297.912
 20
3.1795
 11
298.026
 21
3.35515
  0
LINE
  8
0
 10
298.026
 20
3.35515
 11
298.146
 21
3.5267
  0
LINE
  8
0
 10
298.146
 20
3.5267
 11
298.272
 21
3.69395
  0
LINE
  8
0
 10
298.272
 20
3.69395
 11
298.404
 21
3.85672
  0
LINE
  8
0
 10
298.404
 20
3.85672
 11
298.541
 21
4.01477
  0
LINE
  8
0
 10
298.541
 20
4.01477
 11
298.684
 21
4.16794
  0
LINE
  8
0
 10
298.684
 20
4.16794
 11
298.832
 21
4.31602
  0
LINE
  8
0
 10
298.832
 20
4.31602
 11
298.985
 21
4.45886
  0
LINE
  8
0
 10
298.985
 20
4.45886
 11
299.143
 21
4.59625
  0
LINE
  8
0
 10
299.143
 20
4.59625
 11
299.306
 21
4.72806
  0
LINE
  8
0
 10
299.306
 20
4.72806
 11
299.473
 21
4.8541
  0
LINE
  8
0
 10
299.473
 20
4.8541
 11
299.645
 21
4.97421
  0
LINE
  8
0
 10
299.645
 20
4.97421
 11
299.82
 21
5.08829
  0
LINE
  8
0
 10
299.82
 20
5.08829
 11
300
 21
5.19615
  0
LINE
  8
0
 10
300
 20
5.19615
 11
300.183
 21
5.29768
  0
LINE
  8
0
 10
300.183
 20
5.29768
 11
300.37
 21
5.39276
  0
LINE
  8
0
 10
300.37
 20
5.39276
 11
300.56
 21
5.48126
  0
LINE
  8
0
 10
300.56
 20
5.48126
 11
300.752
 21
5.5631
  0
LINE
  8
0
 10
300.752
 20
5.5631
 11
300.948
 21
5.63815
  0
LINE
  8
0
 10
300.948
 20
5.63815
 11
301.146
 21
5.70633
  0
LINE
  8
0
 10
301.146
 20
5.70633
 11
301.346
 21
5.76756
  0
LINE
  8
0
 10
301.346
 20
5.76756
 11
301.548
 21
5.82176
  0
LINE
  8
0
 10
301.548
 20
5.82176
 11
301.753
 21
5.86888
  0
LINE
  8
0
 10
301.753
 20
5.86888
 11
301.958
 21
5.90884
  0
LINE
  8
0
 10
301.958
 20
5.90884
 11
302.165
 21
5.9416
  0
LINE
  8
0
 10
302.165
 20
5.9416
 11
302.373
 21
5.96712
  0
LINE
  8
0
 10
302.373
 20
5.96712
 11
302.581
 21
5.98538
  0
LINE
  8
0
 10
302.581
 20
5.98538
 11
302.791
 21
5.99634
  0
LINE
  8
0
 10
302.791
 20
5.99634
 11
303
 21
6
  0
LINE
  8
0
 10
303
 20
6
 11
305
 21
6
  0
LINE
  8
0
 10
305
 20
6
 11
305.209
 21
5.99634
  0
LINE
  8
0
 10
305.209
 20
5.99634
 11
305.419
 21
5.98538
  0
LINE
  8
0
 10
305.419
 20
5.98538
 11
305.627
 21
5.96712
  0
LINE
  8
0
 10
305.627
 20
5.96712
 11
305.835
 21
5.9416
  0
LINE
  8
0
 10
305.835
 20
5.9416
 11
306.042
 21
5.90884
  0
LINE
  8
0
 10
306.042
 20
5.90884
 11
306.247
 21
5.86888
  0
LINE
  8
0
 10
306.247
 20
5.86888
 11
306.452
 21
5.82176
  0
LINE
  8
0
 10
306.452
 20
5.82176
 11
306.654
 21
5.76756
  0
LINE
  8
0
 10
306.654
 20
5.76756
 11
306.854
 21
5.70633
  0
LINE
  8
0
 10
306.854
 20
5.70633
 11
307.052
 21
5.63815
  0
LINE
  8
0
 10
307.052
 20
5.63815
 11
307.248
 21
5.5631
  0
LINE
  8
0
 10
307.248
 20
5.5631
 11
307.44
 21
5.48126
  0
LINE
  8
0
 10
307.44
 20
5.48126
 11
307.63
 21
5.39276
  0
LINE
  8
0
 10
307.63
 20
5.39276
 11
307.817
 21
5.29768
  0
LINE
  8
0
 10
307.817
 20
5.29768
 11
308
 21
5.19615
  0
LINE
  8
0
 10
308
 20
5.19615
 11
308.18
 21
5.08829
  0
LINE
  8
0
 10
308.18
 20
5.08829
 11
308.355
 21
4.97421
  0
LINE
  8
0
 10
308.355
 20
4.97421
 11
308.527
 21
4.8541
  0
LINE
  8
0
 10
308.527
 20
4.8541
 11
308.694
 21
4.72806
  0
LINE
  8
0
 10
308.694
 20
4.72806
 11
308.857
 21
4.59625
  0
LINE
  8
0
 10
308.857
 20
4.59625
 11
309.015
 21
4.45886
  0
LINE
  8
0
 10
309.015
 20
4.45886
 11
309.168
 21
4.31602
  0
LINE
  8
0
 10
309.168
 20
4.31602
 11
309.316
 21
4.16794
  0
LINE
  8
0
 10
309.316
 20
4.16794
 11
309.459
 21
4.01477
  0
LINE
  8
0
 10
309.459
 20
4.01477
 11
309.596
 21
3.85672
  0
LINE
  8
0
 10
309.596
 20
3.85672
 11
309.728
 21
3.69395
  0
LINE
  8
0
 10
309.728
 20
3.69395
 11
309.854
 21
3.5267
  0
LINE
  8
0
 10
309.854
 20
3.5267
 11
309.974
 21
3.35515
  0
LINE
  8
0
 10
309.974
 20
3.35515
 11
310.088
 21
3.1795
  0
LINE
  8
0
 10
310.088
 20
3.1795
 11
310.196
 21
2.99998
  0
LINE
  8
0
 10
310.196
 20
2.99998
 11
310.298
 21
2.81682
  0
LINE
  8
0
 10
310.298
 20
2.81682
 11
310.393
 21
2.63022
  0
LINE
  8
0
 10
310.393
 20
2.63022
 11
310.481
 21
2.44041
  0
LINE
  8
0
 10
310.481
 20
2.44041
 11
310.563
 21
2.24763
  0
LINE
  8
0
 10
310.563
 20
2.24763
 11
310.638
 21
2.05211
  0
LINE
  8
0
 10
310.638
 20
2.05211
 11
310.706
 21
1.8541
  0
LINE
  8
0
 10
310.706
 20
1.8541
 11
310.768
 21
1.65382
  0
LINE
  8
0
 10
310.768
 20
1.65382
 11
310.822
 21
1.45152
  0
LINE
  8
0
 10
310.822
 20
1.45152
 11
310.869
 21
1.24747
  0
LINE
  8
0
 10
310.869
 20
1.24747
 11
310.909
 21
1.04189
  0
LINE
  8
0
 10
310.909
 20
1.04189
 11
310.942
 21
0.835037
  0
LINE
  8
0
 10
310.942
 20
0.835037
 11
310.967
 21
0.627167
  0
LINE
  8
0
 10
310.967
 20
0.627167
 11
310.985
 21
0.418533
  0
LINE
  8
0
 10
310.985
 20
0.418533
 11
310.996
 21
0.209396
  0
LINE
  8
0
 10
310.996
 20
0.209396
 11
311
 21
0
  0
LINE
  8
0
 10
311
 20
0
 11
310.996
 21
-0.209396
  0
LINE
  8
0
 10
310.996
 20
-0.209396
 11
310.985
 21
-0.418533
  0
LINE
  8
0
 10
310.985
 20
-0.418533
 11
310.967
 21
-0.627167
  0
LINE
  8
0
 10
310.967
 20
-0.627167
 11
310.942
 21
-0.835037
  0
LINE
  8
0
 10
310.942
 20
-0.835037
 11
310.909
 21
-1.04189
  0
LINE
  8
0
 10
310.909
 20
-1.04189
 11
310.869
 21
-1.24747
  0
LINE
  8
0
 10
310.869
 20
-1.24747
 11
310.822
 21
-1.45152
  0
LINE
  8
0
 10
310.822
 20
-1.45152
 11
310.768
 21
-1.65382
  0
LINE
  8
0
 10
310.768
 20
-1.65382
 11
310.706
 21
-1.8541
  0
LINE
  8
0
 10
310.706
 20
-1.8541
 11
310.638
 21
-2.05211
  0
LINE
  8
0
 10
310.638
 20
-2.05211
 11
310.563
 21
-2.24763
  0
LINE
  8
0
 10
310.563
 20
-2.24763
 11
310.481
 21
-2.44041
  0
LINE
  8
0
 10
310.481
 20
-2.44041
 11
310.393
 21
-2.63022
  0
LINE
  8
0
 10
310.393
 20
-2.63022
 11
310.298
 21
-2.81682
  0
LINE
  8
0
 10
310.298
 20
-2.81682
 11
310.196
 21
-3
  0
LINE
  8
0
 10
310.196
 20
-3
 11
310.088
 21
-3.1795
  0
LINE
  8
0
 10
310.088
 20
-3.1795
 11
309.974
 21
-3.35515
  0
LINE
  8
0
 10
309.974
 20
-3.35515
 11
309.854
 21
-3.5267
  0
LINE
  8
0
 10
309.854
 20
-3.5267
 11
309.728
 21
-3.69395
  0
LINE
  8
0
 10
309.728
 20
-3.69395
 11
309.596
 21
-3.85672
  0
LINE
  8
0
 10
309.596
 20
-3.85672
 11
309.459
 21
-4.01477
  0
LINE
  8
0
 10
309.459
 20
-4.01477
 11
309.316
 21
-4.16794
  0
LINE
  8
0
 10
309.316
 20
-4.16794
 11
309.168
 21
-4.31602
  0
LINE
  8
0
 10
309.168
 20
-4.31602
 11
309.015
 21
-4.45886
  0
LINE
  8
0
 10
309.015
 20
-4.45886
 11
308.857
 21
-4.59625
  0
LINE
  8
0
 10
308.857
 20
-4.59625
 11
308.694
 21
-4.72806
  0
LINE
  8
0
 10
308.694
 20
-4.72806
 11
308.527
 21
-4.8541
  0
LINE
  8
0
 10
308.527
 20
-4.8541
 11
308.355
 21
-4.97421
  0
LINE
  8
0
 10
308.355
 20
-4.97421
 11
308.18
 21
-5.08829
  0
LINE
  8
0
 10
308.18
 20
-5.08829
 11
308
 21
-5.19615
  0
LINE
  8
0
 10
308
 20
-5.19615
 11
307.817
 21
-5.29768
  0
LINE
  8
0
 10
307.817
 20
-5.29768
 11
307.63
 21
-5.39276
  0
LINE
  8
0
 10
307.63
 20
-5.39276
 11
307.44
 21
-5.48126
  0
LINE
  8
0
 10
307.44
 20
-5.48126
 11
307.248
 21
-5.5631
  0
LINE
  8
0
 10
307.248
 20
-5.5631
 11
307.052
 21
-5.63815
  0
LINE
  8
0
 10
307.052
 20
-5.63815
 11
306.854
 21
-5.70633
  0
LINE
  8
0
 10
306.854
 20
-5.70633
 11
306.654
 21
-5.76756
  0
LINE
  8
0
 10
306.654
 20
-5.76756
 11
306.452
 21
-5.82176
  0
LINE
  8
0
 10
306.452
 20
-5.82176
 11
306.247
 21
-5.86888
  0
LINE
  8
0
 10
306.247
 20
-5.86888
 11
306.042
 21
-5.90884
  0
LINE
  8
0
 10
306.042
 20
-5.90884
 11
305.835
 21
-5.9416
  0
LINE
  8
0
 10
305.835
 20
-5.9416
 11
305.627
 21
-5.96712
  0
LINE
  8
0
 10
305.627
 20
-5.96712
 11
305.419
 21
-5.98538
  0
LINE
  8
0
 10
305.419
 20
-5.98538
 11
305.209
 21
-5.99634
  0
LINE
  8
0
 10
305.209
 20
-5.99634
 11
305
 21
-6
  0
LINE
  8
0
 10
305
 20
-6
 11
303
 21
-6
  0
LINE
  8
0
 10
-0.137146
 20
-3.9276
 11
-0.274139
 21
-3.92043
  0
LINE
  8
0
 10
-0.274139
 20
-3.92043
 11
-0.410782
 21
-3.90846
  0
LINE
  8
0
 10
-0.410782
 20
-3.90846
 11
-0.546936
 21
-3.89174
  0
LINE
  8
0
 10
-0.546936
 20
-3.89174
 11
-0.682434
 21
-3.87029
  0
LINE
  8
0
 10
-0.682434
 20
-3.87029
 11
-0.817093
 21
-3.84412
  0
LINE
  8
0
 10
-0.817093
 20
-3.84412
 11
-0.950745
 21
-3.81325
  0
LINE
  8
0
 10
-0.950745
 20
-3.81325
 11
-1.08325
 21
-3.77776
  0
LINE
  8
0
 10
-1.08325
 20
-3.77776
 11
-1.21443
 21
-3.73764
  0
LINE
  8
0
 10
-1.21443
 20
-3.73764
 11
-1.34413
 21
-3.69298
  0
LINE
  8
0
 10
-1.34413
 20
-3.69298
 11
-1.4722
 21
-3.64383
  0
LINE
  8
0
 10
-1.4722
 20
-3.64383
 11
-1.59846
 21
-3.59023
  0
LINE
  8
0
 10
-1.59846
 20
-3.59023
 11
-1.72279
 21
-3.53226
  0
LINE
  8
0
 10
-1.72279
 20
-3.53226
 11
-1.84502
 21
-3.46997
  0
LINE
  8
0
 10
-1.84502
 20
-3.46997
 11
-1.965
 21
-3.40347
  0
LINE
  8
0
 10
-1.965
 20
-3.40347
 11
-2.08258
 21
-3.33282
  0
LINE
  8
0
 10
-2.08258
 20
-3.33282
 11
-2.19762
 21
-3.2581
  0
LINE
  8
0
 10
-2.19762
 20
-3.2581
 11
-2.30998
 21
-3.17943
  0
LINE
  8
0
 10
-2.30998
 20
-3.17943
 11
-2.41954
 21
-3.09688
  0
LINE
  8
0
 10
-2.41954
 20
-3.09688
 11
-2.52615
 21
-3.01054
  0
LINE
  8
0
 10
-2.52615
 20
-3.01054
 11
-2.62967
 21
-2.92055
  0
LINE
  8
0
 10
-2.62967
 20
-2.92055
 11
-2.73
 21
-2.827
  0
LINE
  8
0
 10
-2.73
 20
-2.827
 11
-2.827
 21
-2.73
  0
LINE
  8
0
 10
-2.827
 20
-2.73
 11
-2.92055
 21
-2.62967
  0
LINE
  8
0
 10
-2.92055
 20
-2.62967
 11
-3.01054
 21
-2.52615
  0
LINE
  8
0
 10
-3.01054
 20
-2.52615
 11
-3.09688
 21
-2.41954
  0
LINE
  8
0
 10
-3.09688
 20
-2.41954
 11
-3.17943
 21
-2.30998
  0
LINE
  8
0
 10
-3.17943
 20
-2.30998
 11
-3.2581
 21
-2.19762
  0
LINE
  8
0
 10
-3.2581
 20
-2.19762
 11
-3.33282
 21
-2.08258
  0
LINE
  8
0
 10
-3.33282
 20
-2.08258
 11
-3.40347
 21
-1.965
  0
LINE
  8
0
 10
-3.40347
 20
-1.965
 11
-3.46997
 21
-1.84502
  0
LINE
  8
0
 10
-3.46997
 20
-1.84502
 11
-3.53226
 21
-1.72279
  0
LINE
  8
0
 10
-3.53226
 20
-1.72279
 11
-3.59023
 21
-1.59846
  0
LINE
  8
0
 10
-3.59023
 20
-1.59846
 11
-3.64383
 21
-1.4722
  0
LINE
  8
0
 10
-3.64383
 20
-1.4722
 11
-3.69298
 21
-1.34413
  0
LINE
  8
0
 10
-3.69298
 20
-1.34413
 11
-3.73764
 21
-1.21443
  0
LINE
  8
0
 10
-3.73764
 20
-1.21443
 11
-3.77776
 21
-1.08325
  0
LINE
  8
0
 10
-3.77776
 20
-1.08325
 11
-3.81325
 21
-0.950745
  0
LINE
  8
0
 10
-3.81325
 20
-0.950745
 11
-3.84412
 21
-0.817093
  0
LINE
  8
0
 10
-3.84412
 20
-0.817093
 11
-3.87029
 21
-0.682434
  0
LINE
  8
0
 10
-3.87029
 20
-0.682434
 11
-3.89174
 21
-0.546936
  0
LINE
  8
0
 10
-3.89174
 20
-0.546936
 11
-3.90846
 21
-0.410782
  0
LINE
  8
0
 10
-3.90846
 20
-0.410782
 11
-3.92043
 21
-0.274139
  0
LINE
  8
0
 10
-3.92043
 20
-0.274139
 11
-3.9276
 21
-0.137146
  0
LINE
  8
0
 10
-3.9276
 20
-0.137146
 11
-3.92999
 21
0
  0
LINE
  8
0
 10
-3.92999
 20
0
 11
-3.9276
 21
0.137146
  0
LINE
  8
0
 10
-3.9276
 20
0.137146
 11
-3.92043
 21
0.274139
  0
LINE
  8
0
 10
-3.92043
 20
0.274139
 11
-3.90846
 21
0.410782
  0
LINE
  8
0
 10
-3.90846
 20
0.410782
 11
-3.89174
 21
0.546936
  0
LINE
  8
0
 10
-3.89174
 20
0.546936
 11
-3.87029
 21
0.682434
  0
LINE
  8
0
 10
-3.87029
 20
0.682434
 11
-3.84412
 21
0.817093
  0
LINE
  8
0
 10
-3.84412
 20
0.817093
 11
-3.81325
 21
0.950745
  0
LINE
  8
0
 10
-3.81325
 20
0.950745
 11
-3.77776
 21
1.08325
  0
LINE
  8
0
 10
-3.77776
 20
1.08325
 11
-3.73764
 21
1.21443
  0
LINE
  8
0
 10
-3.73764
 20
1.21443
 11
-3.69298
 21
1.34413
  0
LINE
  8
0
 10
-3.69298
 20
1.34413
 11
-3.64383
 21
1.4722
  0
LINE
  8
0
 10
-3.64383
 20
1.4722
 11
-3.59023
 21
1.59846
  0
LINE
  8
0
 10
-3.59023
 20
1.59846
 11
-3.53226
 21
1.72279
  0
LINE
  8
0
 10
-3.53226
 20
1.72279
 11
-3.46997
 21
1.84502
  0
LINE
  8
0
 10
-3.46997
 20
1.84502
 11
-3.40347
 21
1.965
  0
LINE
  8
0
 10
-3.40347
 20
1.965
 11
-3.33282
 21
2.08258
  0
LINE
  8
0
 10
-3.33282
 20
2.08258
 11
-3.2581
 21
2.19762
  0
LINE
  8
0
 10
-3.2581
 20
2.19762
 11
-3.17943
 21
2.30998
  0
LINE
  8
0
 10
-3.17943
 20
2.30998
 11
-3.09688
 21
2.41954
  0
LINE
  8
0
 10
-3.09688
 20
2.41954
 11
-3.01054
 21
2.52615
  0
LINE
  8
0
 10
-3.01054
 20
2.52615
 11
-2.92055
 21
2.62967
  0
LINE
  8
0
 10
-2.92055
 20
2.62967
 11
-2.827
 21
2.73
  0
LINE
  8
0
 10
-2.827
 20
2.73
 11
-2.73
 21
2.827
  0
LINE
  8
0
 10
-2.73
 20
2.827
 11
-2.62967
 21
2.92055
  0
LINE
  8
0
 10
-2.62967
 20
2.92055
 11
-2.52615
 21
3.01054
  0
LINE
  8
0
 10
-2.52615
 20
3.01054
 11
-2.41954
 21
3.09688
  0
LINE
  8
0
 10
-2.41954
 20
3.09688
 11
-2.30998
 21
3.17943
  0
LINE
  8
0
 10
-2.30998
 20
3.17943
 11
-2.19762
 21
3.2581
  0
LINE
  8
0
 10
-2.19762
 20
3.2581
 11
-2.08258
 21
3.33282
  0
LINE
  8
0
 10
-2.08258
 20
3.33282
 11
-1.965
 21
3.40347
  0
LINE
  8
0
 10
-1.965
 20
3.40347
 11
-1.84502
 21
3.46997
  0
LINE
  8
0
 10
-1.84502
 20
3.46997
 11
-1.72279
 21
3.53226
  0
LINE
  8
0
 10
-1.72279
 20
3.53226
 11
-1.59846
 21
3.59023
  0
LINE
  8
0
 10
-1.59846
 20
3.59023
 11
-1.4722
 21
3.64383
  0
LINE
  8
0
 10
-1.4722
 20
3.64383
 11
-1.34413
 21
3.69298
  0
LINE
  8
0
 10
-1.34413
 20
3.69298
 11
-1.21443
 21
3.73764
  0
LINE
  8
0
 10
-1.21443
 20
3.73764
 11
-1.08325
 21
3.77776
  0
LINE
  8
0
 10
-1.08325
 20
3.77776
 11
-0.950745
 21
3.81325
  0
LINE
  8
0
 10
-0.950745
 20
3.81325
 11
-0.817093
 21
3.84412
  0
LINE
  8
0
 10
-0.817093
 20
3.84412
 11
-0.682434
 21
3.87029
  0
LINE
  8
0
 10
-0.682434
 20
3.87029
 11
-0.546936
 21
3.89174
  0
LINE
  8
0
 10
-0.546936
 20
3.89174
 11
-0.410782
 21
3.90846
  0
LINE
  8
0
 10
-0.410782
 20
3.90846
 11
-0.274139
 21
3.92043
  0
LINE
  8
0
 10
-0.274139
 20
3.92043
 11
-0.137146
 21
3.9276
  0
LINE
  8
0
 10
-0.137146
 20
3.9276
 11
0
 21
3.92999
  0
LINE
  8
0
 10
0
 20
3.92999
 11
0.137146
 21
3.9276
  0
LINE
  8
0
 10
0.137146
 20
3.9276
 11
0.274139
 21
3.92043
  0
LINE
  8
0
 10
0.274139
 20
3.92043
 11
0.410782
 21
3.90846
  0
LINE
  8
0
 10
0.410782
 20
3.90846
 11
0.546936
 21
3.89174
  0
LINE
  8
0
 10
0.546936
 20
3.89174
 11
0.682434
 21
3.87029
  0
LINE
  8
0
 10
0.682434
 20
3.87029
 11
0.817093
 21
3.84412
  0
LINE
  8
0
 10
0.817093
 20
3.84412
 11
0.950745
 21
3.81325
  0
LINE
  8
0
 10
0.950745
 20
3.81325
 11
1.08325
 21
3.77776
  0
LINE
  8
0
 10
1.08325
 20
3.77776
 11
1.21443
 21
3.73764
  0
LINE
  8
0
 10
1.21443
 20
3.73764
 11
1.34413
 21
3.69298
  0
LINE
  8
0
 10
1.34413
 20
3.69298
 11
1.4722
 21
3.64383
  0
LINE
  8
0
 10
1.4722
 20
3.64383
 11
1.59846
 21
3.59023
  0
LINE
  8
0
 10
1.59846
 20
3.59023
 11
1.72279
 21
3.53226
  0
LINE
  8
0
 10
1.72279
 20
3.53226
 11
1.84502
 21
3.46997
  0
LINE
  8
0
 10
1.84502
 20
3.46997
 11
1.965
 21
3.40347
  0
LINE
  8
0
 10
1.965
 20
3.40347
 11
2.08258
 21
3.33282
  0
LINE
  8
0
 10
2.08258
 20
3.33282
 11
2.19762
 21
3.2581
  0
LINE
  8
0
 10
2.19762
 20
3.2581
 11
2.30998
 21
3.17943
  0
LINE
  8
0
 10
2.30998
 20
3.17943
 11
2.41954
 21
3.09688
  0
LINE
  8
0
 10
2.41954
 20
3.09688
 11
2.52615
 21
3.01054
  0
LINE
  8
0
 10
2.52615
 20
3.01054
 11
2.62967
 21
2.92055
  0
LINE
  8
0
 10
2.62967
 20
2.92055
 11
2.73
 21
2.827
  0
LINE
  8
0
 10
2.73
 20
2.827
 11
2.827
 21
2.73
  0
LINE
  8
0
 10
2.827
 20
2.73
 11
2.92055
 21
2.62967
  0
LINE
  8
0
 10
2.92055
 20
2.62967
 11
3.01054
 21
2.52615
  0
LINE
  8
0
 10
3.01054
 20
2.52615
 11
3.09688
 21
2.41954
  0
LINE
  8
0
 10
3.09688
 20
2.41954
 11
3.17943
 21
2.30998
  0
LINE
  8
0
 10
3.17943
 20
2.30998
 11
3.2581
 21
2.19762
  0
LINE
  8
0
 10
3.2581
 20
2.19762
 11
3.33282
 21
2.08258
  0
LINE
  8
0
 10
3.33282
 20
2.08258
 11
3.40347
 21
1.965
  0
LINE
  8
0
 10
3.40347
 20
1.965
 11
3.46997
 21
1.84502
  0
LINE
  8
0
 10
3.46997
 20
1.84502
 11
3.53226
 21
1.72279
  0
LINE
  8
0
 10
3.53226
 20
1.72279
 11
3.59023
 21
1.59846
  0
LINE
  8
0
 10
3.59023
 20
1.59846
 11
3.64383
 21
1.4722
  0
LINE
  8
0
 10
3.64383
 20
1.4722
 11
3.69298
 21
1.34413
  0
LINE
  8
0
 10
3.69298
 20
1.34413
 11
3.73764
 21
1.21443
  0
LINE
  8
0
 10
3.73764
 20
1.21443
 11
3.77776
 21
1.08325
  0
LINE
  8
0
 10
3.77776
 20
1.08325
 11
3.81325
 21
0.950745
  0
LINE
  8
0
 10
3.81325
 20
0.950745
 11
3.84412
 21
0.817093
  0
LINE
  8
0
 10
3.84412
 20
0.817093
 11
3.87029
 21
0.682434
  0
LINE
  8
0
 10
3.87029
 20
0.682434
 11
3.89174
 21
0.546936
  0
LINE
  8
0
 10
3.89174
 20
0.546936
 11
3.90846
 21
0.410782
  0
LINE
  8
0
 10
3.90846
 20
0.410782
 11
3.92043
 21
0.274139
  0
LINE
  8
0
 10
3.92043
 20
0.274139
 11
3.9276
 21
0.137146
  0
LINE
  8
0
 10
3.9276
 20
0.137146
 11
3.92999
 21
0
  0
LINE
  8
0
 10
3.92999
 20
0
 11
3.9276
 21
-0.137146
  0
LINE
  8
0
 10
3.9276
 20
-0.137146
 11
3.92043
 21
-0.274139
  0
LINE
  8
0
 10
3.92043
 20
-0.274139
 11
3.90846
 21
-0.410782
  0
LINE
  8
0
 10
3.90846
 20
-0.410782
 11
3.89174
 21
-0.546936
  0
LINE
  8
0
 10
3.89174
 20
-0.546936
 11
3.87029
 21
-0.682434
  0
LINE
  8
0
 10
3.87029
 20
-0.682434
 11
3.84412
 21
-0.817093
  0
LINE
  8
0
 10
3.84412
 20
-0.817093
 11
3.81325
 21
-0.950745
  0
LINE
  8
0
 10
3.81325
 20
-0.950745
 11
3.77776
 21
-1.08325
  0
LINE
  8
0
 10
3.77776
 20
-1.08325
 11
3.73764
 21
-1.21443
  0
LINE
  8
0
 10
3.73764
 20
-1.21443
 11
3.69298
 21
-1.34413
  0
LINE
  8
0
 10
3.69298
 20
-1.34413
 11
3.64383
 21
-1.4722
  0
LINE
  8
0
 10
3.64383
 20
-1.4722
 11
3.59023
 21
-1.59846
  0
LINE
  8
0
 10
3.59023
 20
-1.59846
 11
3.53226
 21
-1.72279
  0
LINE
  8
0
 10
3.53226
 20
-1.72279
 11
3.46997
 21
-1.84502
  0
LINE
  8
0
 10
3.46997
 20
-1.84502
 11
3.40347
 21
-1.965
  0
LINE
  8
0
 10
3.40347
 20
-1.965
 11
3.33282
 21
-2.08258
  0
LINE
  8
0
 10
3.33282
 20
-2.08258
 11
3.2581
 21
-2.19762
  0
LINE
  8
0
 10
3.2581
 20
-2.19762
 11
3.17943
 21
-2.30998
  0
LINE
  8
0
 10
3.17943
 20
-2.30998
 11
3.09688
 21
-2.41954
  0
LINE
  8
0
 10
3.09688
 20
-2.41954
 11
3.01054
 21
-2.52615
  0
LINE
  8
0
 10
3.01054
 20
-2.52615
 11
2.92055
 21
-2.62967
  0
LINE
  8
0
 10
2.92055
 20
-2.62967
 11
2.827
 21
-2.73
  0
LINE
  8
0
 10
2.827
 20
-2.73
 11
2.73
 21
-2.827
  0
LINE
  8
0
 10
2.73
 20
-2.827
 11
2.62967
 21
-2.92055
  0
LINE
  8
0
 10
2.62967
 20
-2.92055
 11
2.52615
 21
-3.01054
  0
LINE
  8
0
 10
2.52615
 20
-3.01054
 11
2.41954
 21
-3.09688
  0
LINE
  8
0
 10
2.41954
 20
-3.09688
 11
2.30998
 21
-3.17943
  0
LINE
  8
0
 10
2.30998
 20
-3.17943
 11
2.19762
 21
-3.2581
  0
LINE
  8
0
 10
2.19762
 20
-3.2581
 11
2.08258
 21
-3.33282
  0
LINE
  8
0
 10
2.08258
 20
-3.33282
 11
1.965
 21
-3.40347
  0
LINE
  8
0
 10
1.965
 20
-3.40347
 11
1.84502
 21
-3.46997
  0
LINE
  8
0
 10
1.84502
 20
-3.46997
 11
1.72279
 21
-3.53226
  0
LINE
  8
0
 10
1.72279
 20
-3.53226
 11
1.59846
 21
-3.59023
  0
LINE
  8
0
 10
1.59846
 20
-3.59023
 11
1.4722
 21
-3.64383
  0
LINE
  8
0
 10
1.4722
 20
-3.64383
 11
1.34413
 21
-3.69298
  0
LINE
  8
0
 10
1.34413
 20
-3.69298
 11
1.21443
 21
-3.73764
  0
LINE
  8
0
 10
1.21443
 20
-3.73764
 11
1.08325
 21
-3.77776
  0
LINE
  8
0
 10
1.08325
 20
-3.77776
 11
0.950745
 21
-3.81325
  0
LINE
  8
0
 10
0.950745
 20
-3.81325
 11
0.817093
 21
-3.84412
  0
LINE
  8
0
 10
0.817093
 20
-3.84412
 11
0.682434
 21
-3.87029
  0
LINE
  8
0
 10
0.682434
 20
-3.87029
 11
0.546936
 21
-3.89174
  0
LINE
  8
0
 10
0.546936
 20
-3.89174
 11
0.410782
 21
-3.90846
  0
LINE
  8
0
 10
0.410782
 20
-3.90846
 11
0.274139
 21
-3.92043
  0
LINE
  8
0
 10
0.274139
 20
-3.92043
 11
0.137146
 21
-3.9276
  0
LINE
  8
0
 10
0.137146
 20
-3.9276
 11
0
 21
-3.92999
  0
LINE
  8
0
 10
0
 20
-3.92999
 11
-0.137146
 21
-3.9276
  0
LINE
  8
0
 10
97.3628
 20
-3.9276
 11
97.2258
 21
-3.92043
  0
LINE
  8
0
 10
97.2258
 20
-3.92043
 11
97.0892
 21
-3.90846
  0
LINE
  8
0
 10
97.0892
 20
-3.90846
 11
96.953
 21
-3.89174
  0
LINE
  8
0
 10
96.953
 20
-3.89174
 11
96.8176
 21
-3.87029
  0
LINE
  8
0
 10
96.8176
 20
-3.87029
 11
96.6829
 21
-3.84412
  0
LINE
  8
0
 10
96.6829
 20
-3.84412
 11
96.5492
 21
-3.81325
  0
LINE
  8
0
 10
96.5492
 20
-3.81325
 11
96.4167
 21
-3.77776
  0
LINE
  8
0
 10
96.4167
 20
-3.77776
 11
96.2856
 21
-3.73764
  0
LINE
  8
0
 10
96.2856
 20
-3.73764
 11
96.1559
 21
-3.69298
  0
LINE
  8
0
 10
96.1559
 20
-3.69298
 11
96.0278
 21
-3.64383
  0
LINE
  8
0
 10
96.0278
 20
-3.64383
 11
95.9015
 21
-3.59023
  0
LINE
  8
0
 10
95.9015
 20
-3.59023
 11
95.7772
 21
-3.53226
  0
LINE
  8
0
 10
95.7772
 20
-3.53226
 11
95.655
 21
-3.46997
  0
LINE
  8
0
 10
95.655
 20
-3.46997
 11
95.535
 21
-3.40347
  0
LINE
  8
0
 10
95.535
 20
-3.40347
 11
95.4174
 21
-3.33282
  0
LINE
  8
0
 10
95.4174
 20
-3.33282
 11
95.3024
 21
-3.2581
  0
LINE
  8
0
 10
95.3024
 20
-3.2581
 11
95.19
 21
-3.17943
  0
LINE
  8
0
 10
95.19
 20
-3.17943
 11
95.0804
 21
-3.09688
  0
LINE
  8
0
 10
95.0804
 20
-3.09688
 11
94.9738
 21
-3.01054
  0
LINE
  8
0
 10
94.9738
 20
-3.01054
 11
94.8703
 21
-2.92055
  0
LINE
  8
0
 10
94.8703
 20
-2.92055
 11
94.77
 21
-2.827
  0
LINE
  8
0
 10
94.77
 20
-2.827
 11
94.673
 21
-2.73
  0
LINE
  8
0
 10
94.673
 20
-2.73
 11
94.5794
 21
-2.62967
  0
LINE
  8
0
 10
94.5794
 20
-2.62967
 11
94.4894
 21
-2.52615
  0
LINE
  8
0
 10
94.4894
 20
-2.52615
 11
94.4031
 21
-2.41954
  0
LINE
  8
0
 10
94.4031
 20
-2.41954
 11
94.3206
 21
-2.30998
  0
LINE
  8
0
 10
94.3206
 20
-2.30998
 11
94.2419
 21
-2.19762
  0
LINE
  8
0
 10
94.2419
 20
-2.19762
 11
94.1672
 21
-2.08258
  0
LINE
  8
0
 10
94.1672
 20
-2.08258
 11
94.0965
 21
-1.965
  0
LINE
  8
0
 10
94.0965
 20
-1.965
 11
94.03
 21
-1.84502
  0
LINE
  8
0
 10
94.03
 20
-1.84502
 11
93.9677
 21
-1.72279
  0
LINE
  8
0
 10
93.9677
 20
-1.72279
 11
93.9098
 21
-1.59846
  0
LINE
  8
0
 10
93.9098
 20
-1.59846
 11
93.8562
 21
-1.4722
  0
LINE
  8
0
 10
93.8562
 20
-1.4722
 11
93.807
 21
-1.34413
  0
LINE
  8
0
 10
93.807
 20
-1.34413
 11
93.7623
 21
-1.21443
  0
LINE
  8
0
 10
93.7623
 20
-1.21443
 11
93.7222
 21
-1.08325
  0
LINE
  8
0
 10
93.7222
 20
-1.08325
 11
93.6867
 21
-0.950745
  0
LINE
  8
0
 10
93.6867
 20
-0.950745
 11
93.6559
 21
-0.817093
  0
LINE
  8
0
 10
93.6559
 20
-0.817093
 11
93.6297
 21
-0.682434
  0
LINE
  8
0
 10
93.6297
 20
-0.682434
 11
93.6082
 21
-0.546936
  0
LINE
  8
0
 10
93.6082
 20
-0.546936
 11
93.5915
 21
-0.410782
  0
LINE
  8
0
 10
93.5915
 20
-0.410782
 11
93.5796
 21
-0.274139
  0
LINE
  8
0
 10
93.5796
 20
-0.274139
 11
93.5724
 21
-0.137146
  0
LINE
  8
0
 10
93.5724
 20
-0.137146
 11
93.57
 21
0
  0
LINE
  8
0
 10
93.57
 20
0
 11
93.5724
 21
0.137146
  0
LINE
  8
0
 10
93.5724
 20
0.137146
 11
93.5796
 21
0.274139
  0
LINE
  8
0
 10
93.5796
 20
0.274139
 11
93.5915
 21
0.410782
  0
LINE
  8
0
 10
93.5915
 20
0.410782
 11
93.6082
 21
0.546936
  0
LINE
  8
0
 10
93.6082
 20
0.546936
 11
93.6297
 21
0.682434
  0
LINE
  8
0
 10
93.6297
 20
0.682434
 11
93.6559
 21
0.817093
  0
LINE
  8
0
 10
93.6559
 20
0.817093
 11
93.6867
 21
0.950745
  0
LINE
  8
0
 10
93.6867
 20
0.950745
 11
93.7222
 21
1.08325
  0
LINE
  8
0
 10
93.7222
 20
1.08325
 11
93.7623
 21
1.21443
  0
LINE
  8
0
 10
93.7623
 20
1.21443
 11
93.807
 21
1.34413
  0
LINE
  8
0
 10
93.807
 20
1.34413
 11
93.8562
 21
1.4722
  0
LINE
  8
0
 10
93.8562
 20
1.4722
 11
93.9098
 21
1.59846
  0
LINE
  8
0
 10
93.9098
 20
1.59846
 11
93.9677
 21
1.72279
  0
LINE
  8
0
 10
93.9677
 20
1.72279
 11
94.03
 21
1.84502
  0
LINE
  8
0
 10
94.03
 20
1.84502
 11
94.0965
 21
1.965
  0
LINE
  8
0
 10
94.0965
 20
1.965
 11
94.1672
 21
2.08258
  0
LINE
  8
0
 10
94.1672
 20
2.08258
 11
94.2419
 21
2.19762
  0
LINE
  8
0
 10
94.2419
 20
2.19762
 11
94.3206
 21
2.30998
  0
LINE
  8
0
 10
94.3206
 20
2.30998
 11
94.4031
 21
2.41954
  0
LINE
  8
0
 10
94.4031
 20
2.41954
 11
94.4894
 21
2.52615
  0
LINE
  8
0
 10
94.4894
 20
2.52615
 11
94.5794
 21
2.62967
  0
LINE
  8
0
 10
94.5794
 20
2.62967
 11
94.673
 21
2.73
  0
LINE
  8
0
 10
94.673
 20
2.73
 11
94.77
 21
2.827
  0
LINE
  8
0
 10
94.77
 20
2.827
 11
94.8703
 21
2.92055
  0
LINE
  8
0
 10
94.8703
 20
2.92055
 11
94.9738
 21
3.01054
  0
LINE
  8
0
 10
94.9738
 20
3.01054
 11
95.0804
 21
3.09688
  0
LINE
  8
0
 10
95.0804
 20
3.09688
 11
95.19
 21
3.17943
  0
LINE
  8
0
 10
95.19
 20
3.17943
 11
95.3024
 21
3.2581
  0
LINE
  8
0
 10
95.3024
 20
3.2581
 11
95.4174
 21
3.33282
  0
LINE
  8
0
 10
95.4174
 20
3.33282
 11
95.535
 21
3.40347
  0
LINE
  8
0
 10
95.535
 20
3.40347
 11
95.655
 21
3.46997
  0
LINE
  8
0
 10
95.655
 20
3.46997
 11
95.7772
 21
3.53226
  0
LINE
  8
0
 10
95.7772
 20
3.53226
 11
95.9015
 21
3.59023
  0
LINE
  8
0
 10
95.9015
 20
3.59023
 11
96.0278
 21
3.64383
  0
LINE
  8
0
 10
96.0278
 20
3.64383
 11
96.1559
 21
3.69298
  0
LINE
  8
0
 10
96.1559
 20
3.69298
 11
96.2856
 21
3.73764
  0
LINE
  8
0
 10
96.2856
 20
3.73764
 11
96.4167
 21
3.77776
  0
LINE
  8
0
 10
96.4167
 20
3.77776
 11
96.5492
 21
3.81325
  0
LINE
  8
0
 10
96.5492
 20
3.81325
 11
96.6829
 21
3.84412
  0
LINE
  8
0
 10
96.6829
 20
3.84412
 11
96.8176
 21
3.87029
  0
LINE
  8
0
 10
96.8176
 20
3.87029
 11
96.953
 21
3.89174
  0
LINE
  8
0
 10
96.953
 20
3.89174
 11
97.0892
 21
3.90846
  0
LINE
  8
0
 10
97.0892
 20
3.90846
 11
97.2258
 21
3.92043
  0
LINE
  8
0
 10
97.2258
 20
3.92043
 11
97.3628
 21
3.9276
  0
LINE
  8
0
 10
97.3628
 20
3.9276
 11
97.5
 21
3.92999
  0
LINE
  8
0
 10
97.5
 20
3.92999
 11
97.6371
 21
3.9276
  0
LINE
  8
0
 10
97.6371
 20
3.9276
 11
97.7741
 21
3.92043
  0
LINE
  8
0
 10
97.7741
 20
3.92043
 11
97.9108
 21
3.90846
  0
LINE
  8
0
 10
97.9108
 20
3.90846
 11
98.0469
 21
3.89174
  0
LINE
  8
0
 10
98.0469
 20
3.89174
 11
98.1824
 21
3.87029
  0
LINE
  8
0
 10
98.1824
 20
3.87029
 11
98.3171
 21
3.84412
  0
LINE
  8
0
 10
98.3171
 20
3.84412
 11
98.4507
 21
3.81325
  0
LINE
  8
0
 10
98.4507
 20
3.81325
 11
98.5833
 21
3.77776
  0
LINE
  8
0
 10
98.5833
 20
3.77776
 11
98.7144
 21
3.73764
  0
LINE
  8
0
 10
98.7144
 20
3.73764
 11
98.8441
 21
3.69298
  0
LINE
  8
0
 10
98.8441
 20
3.69298
 11
98.9722
 21
3.64383
  0
LINE
  8
0
 10
98.9722
 20
3.64383
 11
99.0985
 21
3.59023
  0
LINE
  8
0
 10
99.0985
 20
3.59023
 11
99.2228
 21
3.53226
  0
LINE
  8
0
 10
99.2228
 20
3.53226
 11
99.345
 21
3.46997
  0
LINE
  8
0
 10
99.345
 20
3.46997
 11
99.465
 21
3.40347
  0
LINE
  8
0
 10
99.465
 20
3.40347
 11
99.5826
 21
3.33282
  0
LINE
  8
0
 10
99.5826
 20
3.33282
 11
99.6976
 21
3.2581
  0
LINE
  8
0
 10
99.6976
 20
3.2581
 11
99.81
 21
3.17943
  0
LINE
  8
0
 10
99.81
 20
3.17943
 11
99.9195
 21
3.09688
  0
LINE
  8
0
 10
99.9195
 20
3.09688
 11
100.026
 21
3.01054
  0
LINE
  8
0
 10
100.026
 20
3.01054
 11
100.13
 21
2.92055
  0
LINE
  8
0
 10
100.13
 20
2.92055
 11
100.23
 21
2.827
  0
LINE
  8
0
 10
100.23
 20
2.827
 11
100.327
 21
2.73
  0
LINE
  8
0
 10
100.327
 20
2.73
 11
100.421
 21
2.62967
  0
LINE
  8
0
 10
100.421
 20
2.62967
 11
100.511
 21
2.52615
  0
LINE
  8
0
 10
100.511
 20
2.52615
 11
100.597
 21
2.41954
  0
LINE
  8
0
 10
100.597
 20
2.41954
 11
100.679
 21
2.30998
  0
LINE
  8
0
 10
100.679
 20
2.30998
 11
100.758
 21
2.19762
  0
LINE
  8
0
 10
100.758
 20
2.19762
 11
100.833
 21
2.08258
  0
LINE
  8
0
 10
100.833
 20
2.08258
 11
100.903
 21
1.965
  0
LINE
  8
0
 10
100.903
 20
1.965
 11
100.97
 21
1.84502
  0
LINE
  8
0
 10
100.97
 20
1.84502
 11
101.032
 21
1.72279
  0
LINE
  8
0
 10
101.032
 20
1.72279
 11
101.09
 21
1.59846
  0
LINE
  8
0
 10
101.09
 20
1.59846
 11
101.144
 21
1.4722
  0
LINE
  8
0
 10
101.144
 20
1.4722
 11
101.193
 21
1.34413
  0
LINE
  8
0
 10
101.193
 20
1.34413
 11
101.238
 21
1.21443
  0
LINE
  8
0
 10
101.238
 20
1.21443
 11
101.278
 21
1.08325
  0
LINE
  8
0
 10
101.278
 20
1.08325
 11
101.313
 21
0.950745
  0
LINE
  8
0
 10
101.313
 20
0.950745
 11
101.344
 21
0.817093
  0
LINE
  8
0
 10
101.344
 20
0.817093
 11
101.37
 21
0.682434
  0
LINE
  8
0
 10
101.37
 20
0.682434
 11
101.392
 21
0.546936
  0
LINE
  8
0
 10
101.392
 20
0.546936
 11
101.408
 21
0.410782
  0
LINE
  8
0
 10
101.408
 20
0.410782
 11
101.42
 21
0.274139
  0
LINE
  8
0
 10
101.42
 20
0.274139
 11
101.428
 21
0.137146
  0
LINE
  8
0
 10
101.428
 20
0.137146
 11
101.43
 21
0
  0
LINE
  8
0
 10
101.43
 20
0
 11
101.428
 21
-0.137146
  0
LINE
  8
0
 10
101.428
 20
-0.137146
 11
101.42
 21
-0.274139
  0
LINE
  8
0
 10
101.42
 20
-0.274139
 11
101.408
 21
-0.410782
  0
LINE
  8
0
 10
101.408
 20
-0.410782
 11
101.392
 21
-0.546936
  0
LINE
  8
0
 10
101.392
 20
-0.546936
 11
101.37
 21
-0.682434
  0
LINE
  8
0
 10
101.37
 20
-0.682434
 11
101.344
 21
-0.817093
  0
LINE
  8
0
 10
101.344
 20
-0.817093
 11
101.313
 21
-0.950745
  0
LINE
  8
0
 10
101.313
 20
-0.950745
 11
101.278
 21
-1.08325
  0
LINE
  8
0
 10
101.278
 20
-1.08325
 11
101.238
 21
-1.21443
  0
LINE
  8
0
 10
101.238
 20
-1.21443
 11
101.193
 21
-1.34413
  0
LINE
  8
0
 10
101.193
 20
-1.34413
 11
101.144
 21
-1.4722
  0
LINE
  8
0
 10
101.144
 20
-1.4722
 11
101.09
 21
-1.59846
  0
LINE
  8
0
 10
101.09
 20
-1.59846
 11
101.032
 21
-1.72279
  0
LINE
  8
0
 10
101.032
 20
-1.72279
 11
100.97
 21
-1.84502
  0
LINE
  8
0
 10
100.97
 20
-1.84502
 11
100.903
 21
-1.965
  0
LINE
  8
0
 10
100.903
 20
-1.965
 11
100.833
 21
-2.08258
  0
LINE
  8
0
 10
100.833
 20
-2.08258
 11
100.758
 21
-2.19762
  0
LINE
  8
0
 10
100.758
 20
-2.19762
 11
100.679
 21
-2.30998
  0
LINE
  8
0
 10
100.679
 20
-2.30998
 11
100.597
 21
-2.41954
  0
LINE
  8
0
 10
100.597
 20
-2.41954
 11
100.511
 21
-2.52615
  0
LINE
  8
0
 10
100.511
 20
-2.52615
 11
100.421
 21
-2.62967
  0
LINE
  8
0
 10
100.421
 20
-2.62967
 11
100.327
 21
-2.73
  0
LINE
  8
0
 10
100.327
 20
-2.73
 11
100.23
 21
-2.827
  0
LINE
  8
0
 10
100.23
 20
-2.827
 11
100.13
 21
-2.92055
  0
LINE
  8
0
 10
100.13
 20
-2.92055
 11
100.026
 21
-3.01054
  0
LINE
  8
0
 10
100.026
 20
-3.01054
 11
99.9195
 21
-3.09688
  0
LINE
  8
0
 10
99.9195
 20
-3.09688
 11
99.81
 21
-3.17943
  0
LINE
  8
0
 10
99.81
 20
-3.17943
 11
99.6976
 21
-3.2581
  0
LINE
  8
0
 10
99.6976
 20
-3.2581
 11
99.5826
 21
-3.33282
  0
LINE
  8
0
 10
99.5826
 20
-3.33282
 11
99.465
 21
-3.40347
  0
LINE
  8
0
 10
99.465
 20
-3.40347
 11
99.345
 21
-3.46997
  0
LINE
  8
0
 10
99.345
 20
-3.46997
 11
99.2228
 21
-3.53226
  0
LINE
  8
0
 10
99.2228
 20
-3.53226
 11
99.0985
 21
-3.59023
  0
LINE
  8
0
 10
99.0985
 20
-3.59023
 11
98.9722
 21
-3.64383
  0
LINE
  8
0
 10
98.9722
 20
-3.64383
 11
98.8441
 21
-3.69298
  0
LINE
  8
0
 10
98.8441
 20
-3.69298
 11
98.7144
 21
-3.73764
  0
LINE
  8
0
 10
98.7144
 20
-3.73764
 11
98.5833
 21
-3.77776
  0
LINE
  8
0
 10
98.5833
 20
-3.77776
 11
98.4507
 21
-3.81325
  0
LINE
  8
0
 10
98.4507
 20
-3.81325
 11
98.3171
 21
-3.84412
  0
LINE
  8
0
 10
98.3171
 20
-3.84412
 11
98.1824
 21
-3.87029
  0
LINE
  8
0
 10
98.1824
 20
-3.87029
 11
98.0469
 21
-3.89174
  0
LINE
  8
0
 10
98.0469
 20
-3.89174
 11
97.9108
 21
-3.90846
  0
LINE
  8
0
 10
97.9108
 20
-3.90846
 11
97.7741
 21
-3.92043
  0
LINE
  8
0
 10
97.7741
 20
-3.92043
 11
97.6371
 21
-3.9276
  0
LINE
  8
0
 10
97.6371
 20
-3.9276
 11
97.5
 21
-3.92999
  0
LINE
  8
0
 10
97.5
 20
-3.92999
 11
97.3628
 21
-3.9276
  0
LINE
  8
0
 10
206.363
 20
-3.9276
 11
206.226
 21
-3.92043
  0
LINE
  8
0
 10
206.226
 20
-3.92043
 11
206.089
 21
-3.90846
  0
LINE
  8
0
 10
206.089
 20
-3.90846
 11
205.953
 21
-3.89174
  0
LINE
  8
0
 10
205.953
 20
-3.89174
 11
205.818
 21
-3.87029
  0
LINE
  8
0
 10
205.818
 20
-3.87029
 11
205.683
 21
-3.84412
  0
LINE
  8
0
 10
205.683
 20
-3.84412
 11
205.549
 21
-3.81325
  0
LINE
  8
0
 10
205.549
 20
-3.81325
 11
205.417
 21
-3.77776
  0
LINE
  8
0
 10
205.417
 20
-3.77776
 11
205.286
 21
-3.73764
  0
LINE
  8
0
 10
205.286
 20
-3.73764
 11
205.156
 21
-3.69298
  0
LINE
  8
0
 10
205.156
 20
-3.69298
 11
205.028
 21
-3.64383
  0
LINE
  8
0
 10
205.028
 20
-3.64383
 11
204.902
 21
-3.59023
  0
LINE
  8
0
 10
204.902
 20
-3.59023
 11
204.777
 21
-3.53226
  0
LINE
  8
0
 10
204.777
 20
-3.53226
 11
204.655
 21
-3.46997
  0
LINE
  8
0
 10
204.655
 20
-3.46997
 11
204.535
 21
-3.40347
  0
LINE
  8
0
 10
204.535
 20
-3.40347
 11
204.417
 21
-3.33282
  0
LINE
  8
0
 10
204.417
 20
-3.33282
 11
204.302
 21
-3.2581
  0
LINE
  8
0
 10
204.302
 20
-3.2581
 11
204.19
 21
-3.17943
  0
LINE
  8
0
 10
204.19
 20
-3.17943
 11
204.08
 21
-3.09688
  0
LINE
  8
0
 10
204.08
 20
-3.09688
 11
203.974
 21
-3.01054
  0
LINE
  8
0
 10
203.974
 20
-3.01054
 11
203.87
 21
-2.92055
  0
LINE
  8
0
 10
203.87
 20
-2.92055
 11
203.77
 21
-2.827
  0
LINE
  8
0
 10
203.77
 20
-2.827
 11
203.673
 21
-2.73
  0
LINE
  8
0
 10
203.673
 20
-2.73
 11
203.579
 21
-2.62967
  0
LINE
  8
0
 10
203.579
 20
-2.62967
 11
203.489
 21
-2.52615
  0
LINE
  8
0
 10
203.489
 20
-2.52615
 11
203.403
 21
-2.41954
  0
LINE
  8
0
 10
203.403
 20
-2.41954
 11
203.321
 21
-2.30998
  0
LINE
  8
0
 10
203.321
 20
-2.30998
 11
203.242
 21
-2.19762
  0
LINE
  8
0
 10
203.242
 20
-2.19762
 11
203.167
 21
-2.08258
  0
LINE
  8
0
 10
203.167
 20
-2.08258
 11
203.097
 21
-1.965
  0
LINE
  8
0
 10
203.097
 20
-1.965
 11
203.03
 21
-1.84502
  0
LINE
  8
0
 10
203.03
 20
-1.84502
 11
202.968
 21
-1.72279
  0
LINE
  8
0
 10
202.968
 20
-1.72279
 11
202.91
 21
-1.59846
  0
LINE
  8
0
 10
202.91
 20
-1.59846
 11
202.856
 21
-1.4722
  0
LINE
  8
0
 10
202.856
 20
-1.4722
 11
202.807
 21
-1.34413
  0
LINE
  8
0
 10
202.807
 20
-1.34413
 11
202.762
 21
-1.21443
  0
LINE
  8
0
 10
202.762
 20
-1.21443
 11
202.722
 21
-1.08325
  0
LINE
  8
0
 10
202.722
 20
-1.08325
 11
202.687
 21
-0.950745
  0
LINE
  8
0
 10
202.687
 20
-0.950745
 11
202.656
 21
-0.817093
  0
LINE
  8
0
 10
202.656
 20
-0.817093
 11
202.63
 21
-0.682434
  0
LINE
  8
0
 10
202.63
 20
-0.682434
 11
202.608
 21
-0.546936
  0
LINE
  8
0
 10
202.608
 20
-0.546936
 11
202.592
 21
-0.410782
  0
LINE
  8
0
 10
202.592
 20
-0.410782
 11
202.58
 21
-0.274139
  0
LINE
  8
0
 10
202.58
 20
-0.274139
 11
202.572
 21
-0.137146
  0
LINE
  8
0
 10
202.572
 20
-0.137146
 11
202.57
 21
0
  0
LINE
  8
0
 10
202.57
 20
0
 11
202.572
 21
0.137146
  0
LINE
  8
0
 10
202.572
 20
0.137146
 11
202.58
 21
0.274139
  0
LINE
  8
0
 10
202.58
 20
0.274139
 11
202.592
 21
0.410782
  0
LINE
  8
0
 10
202.592
 20
0.410782
 11
202.608
 21
0.546936
  0
LINE
  8
0
 10
202.608
 20
0.546936
 11
202.63
 21
0.682434
  0
LINE
  8
0
 10
202.63
 20
0.682434
 11
202.656
 21
0.817093
  0
LINE
  8
0
 10
202.656
 20
0.817093
 11
202.687
 21
0.950745
  0
LINE
  8
0
 10
202.687
 20
0.950745
 11
202.722
 21
1.08325
  0
LINE
  8
0
 10
202.722
 20
1.08325
 11
202.762
 21
1.21443
  0
LINE
  8
0
 10
202.762
 20
1.21443
 11
202.807
 21
1.34413
  0
LINE
  8
0
 10
202.807
 20
1.34413
 11
202.856
 21
1.4722
  0
LINE
  8
0
 10
202.856
 20
1.4722
 11
202.91
 21
1.59846
  0
LINE
  8
0
 10
202.91
 20
1.59846
 11
202.968
 21
1.72279
  0
LINE
  8
0
 10
202.968
 20
1.72279
 11
203.03
 21
1.84502
  0
LINE
  8
0
 10
203.03
 20
1.84502
 11
203.097
 21
1.965
  0
LINE
  8
0
 10
203.097
 20
1.965
 11
203.167
 21
2.08258
  0
LINE
  8
0
 10
203.167
 20
2.08258
 11
203.242
 21
2.19762
  0
LINE
  8
0
 10
203.242
 20
2.19762
 11
203.321
 21
2.30998
  0
LINE
  8
0
 10
203.321
 20
2.30998
 11
203.403
 21
2.41954
  0
LINE
  8
0
 10
203.403
 20
2.41954
 11
203.489
 21
2.52615
  0
LINE
  8
0
 10
203.489
 20
2.52615
 11
203.579
 21
2.62967
  0
LINE
  8
0
 10
203.579
 20
2.62967
 11
203.673
 21
2.73
  0
LINE
  8
0
 10
203.673
 20
2.73
 11
203.77
 21
2.827
  0
LINE
  8
0
 10
203.77
 20
2.827
 11
203.87
 21
2.92055
  0
LINE
  8
0
 10
203.87
 20
2.92055
 11
203.974
 21
3.01054
  0
LINE
  8
0
 10
203.974
 20
3.01054
 11
204.08
 21
3.09688
  0
LINE
  8
0
 10
204.08
 20
3.09688
 11
204.19
 21
3.17943
  0
LINE
  8
0
 10
204.19
 20
3.17943
 11
204.302
 21
3.2581
  0
LINE
  8
0
 10
204.302
 20
3.2581
 11
204.417
 21
3.33282
  0
LINE
  8
0
 10
204.417
 20
3.33282
 11
204.535
 21
3.40347
  0
LINE
  8
0
 10
204.535
 20
3.40347
 11
204.655
 21
3.46997
  0
LINE
  8
0
 10
204.655
 20
3.46997
 11
204.777
 21
3.53226
  0
LINE
  8
0
 10
204.777
 20
3.53226
 11
204.902
 21
3.59023
  0
LINE
  8
0
 10
204.902
 20
3.59023
 11
205.028
 21
3.64383
  0
LINE
  8
0
 10
205.028
 20
3.64383
 11
205.156
 21
3.69298
  0
LINE
  8
0
 10
205.156
 20
3.69298
 11
205.286
 21
3.73764
  0
LINE
  8
0
 10
205.286
 20
3.73764
 11
205.417
 21
3.77776
  0
LINE
  8
0
 10
205.417
 20
3.77776
 11
205.549
 21
3.81325
  0
LINE
  8
0
 10
205.549
 20
3.81325
 11
205.683
 21
3.84412
  0
LINE
  8
0
 10
205.683
 20
3.84412
 11
205.818
 21
3.87029
  0
LINE
  8
0
 10
205.818
 20
3.87029
 11
205.953
 21
3.89174
  0
LINE
  8
0
 10
205.953
 20
3.89174
 11
206.089
 21
3.90846
  0
LINE
  8
0
 10
206.089
 20
3.90846
 11
206.226
 21
3.92043
  0
LINE
  8
0
 10
206.226
 20
3.92043
 11
206.363
 21
3.9276
  0
LINE
  8
0
 10
206.363
 20
3.9276
 11
206.5
 21
3.92999
  0
LINE
  8
0
 10
206.5
 20
3.92999
 11
206.637
 21
3.9276
  0
LINE
  8
0
 10
206.637
 20
3.9276
 11
206.774
 21
3.92043
  0
LINE
  8
0
 10
206.774
 20
3.92043
 11
206.911
 21
3.90846
  0
LINE
  8
0
 10
206.911
 20
3.90846
 11
207.047
 21
3.89174
  0
LINE
  8
0
 10
207.047
 20
3.89174
 11
207.182
 21
3.87029
  0
LINE
  8
0
 10
207.182
 20
3.87029
 11
207.317
 21
3.84412
  0
LINE
  8
0
 10
207.317
 20
3.84412
 11
207.451
 21
3.81325
  0
LINE
  8
0
 10
207.451
 20
3.81325
 11
207.583
 21
3.77776
  0
LINE
  8
0
 10
207.583
 20
3.77776
 11
207.714
 21
3.73764
  0
LINE
  8
0
 10
207.714
 20
3.73764
 11
207.844
 21
3.69298
  0
LINE
  8
0
 10
207.844
 20
3.69298
 11
207.972
 21
3.64383
  0
LINE
  8
0
 10
207.972
 20
3.64383
 11
208.098
 21
3.59023
  0
LINE
  8
0
 10
208.098
 20
3.59023
 11
208.223
 21
3.53226
  0
LINE
  8
0
 10
208.223
 20
3.53226
 11
208.345
 21
3.46997
  0
LINE
  8
0
 10
208.345
 20
3.46997
 11
208.465
 21
3.40347
  0
LINE
  8
0
 10
208.465
 20
3.40347
 11
208.583
 21
3.33282
  0
LINE
  8
0
 10
208.583
 20
3.33282
 11
208.698
 21
3.2581
  0
LINE
  8
0
 10
208.698
 20
3.2581
 11
208.81
 21
3.17943
  0
LINE
  8
0
 10
208.81
 20
3.17943
 11
208.92
 21
3.09688
  0
LINE
  8
0
 10
208.92
 20
3.09688
 11
209.026
 21
3.01054
  0
LINE
  8
0
 10
209.026
 20
3.01054
 11
209.13
 21
2.92055
  0
LINE
  8
0
 10
209.13
 20
2.92055
 11
209.23
 21
2.827
  0
LINE
  8
0
 10
209.23
 20
2.827
 11
209.327
 21
2.73
  0
LINE
  8
0
 10
209.327
 20
2.73
 11
209.421
 21
2.62967
  0
LINE
  8
0
 10
209.421
 20
2.62967
 11
209.511
 21
2.52615
  0
LINE
  8
0
 10
209.511
 20
2.52615
 11
209.597
 21
2.41954
  0
LINE
  8
0
 10
209.597
 20
2.41954
 11
209.679
 21
2.30998
  0
LINE
  8
0
 10
209.679
 20
2.30998
 11
209.758
 21
2.19762
  0
LINE
  8
0
 10
209.758
 20
2.19762
 11
209.833
 21
2.08258
  0
LINE
  8
0
 10
209.833
 20
2.08258
 11
209.903
 21
1.965
  0
LINE
  8
0
 10
209.903
 20
1.965
 11
209.97
 21
1.84502
  0
LINE
  8
0
 10
209.97
 20
1.84502
 11
210.032
 21
1.72279
  0
LINE
  8
0
 10
210.032
 20
1.72279
 11
210.09
 21
1.59846
  0
LINE
  8
0
 10
210.09
 20
1.59846
 11
210.144
 21
1.4722
  0
LINE
  8
0
 10
210.144
 20
1.4722
 11
210.193
 21
1.34413
  0
LINE
  8
0
 10
210.193
 20
1.34413
 11
210.238
 21
1.21443
  0
LINE
  8
0
 10
210.238
 20
1.21443
 11
210.278
 21
1.08325
  0
LINE
  8
0
 10
210.278
 20
1.08325
 11
210.313
 21
0.950745
  0
LINE
  8
0
 10
210.313
 20
0.950745
 11
210.344
 21
0.817093
  0
LINE
  8
0
 10
210.344
 20
0.817093
 11
210.37
 21
0.682434
  0
LINE
  8
0
 10
210.37
 20
0.682434
 11
210.392
 21
0.546936
  0
LINE
  8
0
 10
210.392
 20
0.546936
 11
210.408
 21
0.410782
  0
LINE
  8
0
 10
210.408
 20
0.410782
 11
210.42
 21
0.274139
  0
LINE
  8
0
 10
210.42
 20
0.274139
 11
210.428
 21
0.137146
  0
LINE
  8
0
 10
210.428
 20
0.137146
 11
210.43
 21
0
  0
LINE
  8
0
 10
210.43
 20
0
 11
210.428
 21
-0.137146
  0
LINE
  8
0
 10
210.428
 20
-0.137146
 11
210.42
 21
-0.274139
  0
LINE
  8
0
 10
210.42
 20
-0.274139
 11
210.408
 21
-0.410782
  0
LINE
  8
0
 10
210.408
 20
-0.410782
 11
210.392
 21
-0.546936
  0
LINE
  8
0
 10
210.392
 20
-0.546936
 11
210.37
 21
-0.682434
  0
LINE
  8
0
 10
210.37
 20
-0.682434
 11
210.344
 21
-0.817093
  0
LINE
  8
0
 10
210.344
 20
-0.817093
 11
210.313
 21
-0.950745
  0
LINE
  8
0
 10
210.313
 20
-0.950745
 11
210.278
 21
-1.08325
  0
LINE
  8
0
 10
210.278
 20
-1.08325
 11
210.238
 21
-1.21443
  0
LINE
  8
0
 10
210.238
 20
-1.21443
 11
210.193
 21
-1.34413
  0
LINE
  8
0
 10
210.193
 20
-1.34413
 11
210.144
 21
-1.4722
  0
LINE
  8
0
 10
210.144
 20
-1.4722
 11
210.09
 21
-1.59846
  0
LINE
  8
0
 10
210.09
 20
-1.59846
 11
210.032
 21
-1.72279
  0
LINE
  8
0
 10
210.032
 20
-1.72279
 11
209.97
 21
-1.84502
  0
LINE
  8
0
 10
209.97
 20
-1.84502
 11
209.903
 21
-1.965
  0
LINE
  8
0
 10
209.903
 20
-1.965
 11
209.833
 21
-2.08258
  0
LINE
  8
0
 10
209.833
 20
-2.08258
 11
209.758
 21
-2.19762
  0
LINE
  8
0
 10
209.758
 20
-2.19762
 11
209.679
 21
-2.30998
  0
LINE
  8
0
 10
209.679
 20
-2.30998
 11
209.597
 21
-2.41954
  0
LINE
  8
0
 10
209.597
 20
-2.41954
 11
209.511
 21
-2.52615
  0
LINE
  8
0
 10
209.511
 20
-2.52615
 11
209.421
 21
-2.62967
  0
LINE
  8
0
 10
209.421
 20
-2.62967
 11
209.327
 21
-2.73
  0
LINE
  8
0
 10
209.327
 20
-2.73
 11
209.23
 21
-2.827
  0
LINE
  8
0
 10
209.23
 20
-2.827
 11
209.13
 21
-2.92055
  0
LINE
  8
0
 10
209.13
 20
-2.92055
 11
209.026
 21
-3.01054
  0
LINE
  8
0
 10
209.026
 20
-3.01054
 11
208.92
 21
-3.09688
  0
LINE
  8
0
 10
208.92
 20
-3.09688
 11
208.81
 21
-3.17943
  0
LINE
  8
0
 10
208.81
 20
-3.17943
 11
208.698
 21
-3.2581
  0
LINE
  8
0
 10
208.698
 20
-3.2581
 11
208.583
 21
-3.33282
  0
LINE
  8
0
 10
208.583
 20
-3.33282
 11
208.465
 21
-3.40347
  0
LINE
  8
0
 10
208.465
 20
-3.40347
 11
208.345
 21
-3.46997
  0
LINE
  8
0
 10
208.345
 20
-3.46997
 11
208.223
 21
-3.53226
  0
LINE
  8
0
 10
208.223
 20
-3.53226
 11
208.098
 21
-3.59023
  0
LINE
  8
0
 10
208.098
 20
-3.59023
 11
207.972
 21
-3.64383
  0
LINE
  8
0
 10
207.972
 20
-3.64383
 11
207.844
 21
-3.69298
  0
LINE
  8
0
 10
207.844
 20
-3.69298
 11
207.714
 21
-3.73764
  0
LINE
  8
0
 10
207.714
 20
-3.73764
 11
207.583
 21
-3.77776
  0
LINE
  8
0
 10
207.583
 20
-3.77776
 11
207.451
 21
-3.81325
  0
LINE
  8
0
 10
207.451
 20
-3.81325
 11
207.317
 21
-3.84412
  0
LINE
  8
0
 10
207.317
 20
-3.84412
 11
207.182
 21
-3.87029
  0
LINE
  8
0
 10
207.182
 20
-3.87029
 11
207.047
 21
-3.89174
  0
LINE
  8
0
 10
207.047
 20
-3.89174
 11
206.911
 21
-3.90846
  0
LINE
  8
0
 10
206.911
 20
-3.90846
 11
206.774
 21
-3.92043
  0
LINE
  8
0
 10
206.774
 20
-3.92043
 11
206.637
 21
-3.9276
  0
LINE
  8
0
 10
206.637
 20
-3.9276
 11
206.5
 21
-3.92999
  0
LINE
  8
0
 10
206.5
 20
-3.92999
 11
206.363
 21
-3.9276
  0
LINE
  8
0
 10
255.145
 20
-2.99817
 11
255.041
 21
-2.99269
  0
LINE
  8
0
 10
255.041
 20
-2.99269
 11
254.936
 21
-2.98355
  0
LINE
  8
0
 10
254.936
 20
-2.98355
 11
254.832
 21
-2.97079
  0
LINE
  8
0
 10
254.832
 20
-2.97079
 11
254.729
 21
-2.95442
  0
LINE
  8
0
 10
254.729
 20
-2.95442
 11
254.626
 21
-2.93443
  0
LINE
  8
0
 10
254.626
 20
-2.93443
 11
254.524
 21
-2.91087
  0
LINE
  8
0
 10
254.524
 20
-2.91087
 11
254.423
 21
-2.88377
  0
LINE
  8
0
 10
254.423
 20
-2.88377
 11
254.323
 21
-2.85316
  0
LINE
  8
0
 10
254.323
 20
-2.85316
 11
254.224
 21
-2.81908
  0
LINE
  8
0
 10
254.224
 20
-2.81908
 11
254.126
 21
-2.78154
  0
LINE
  8
0
 10
254.126
 20
-2.78154
 11
254.03
 21
-2.74063
  0
LINE
  8
0
 10
254.03
 20
-2.74063
 11
253.935
 21
-2.69638
  0
LINE
  8
0
 10
253.935
 20
-2.69638
 11
253.842
 21
-2.64883
  0
LINE
  8
0
 10
253.842
 20
-2.64883
 11
253.75
 21
-2.59807
  0
LINE
  8
0
 10
253.75
 20
-2.59807
 11
253.66
 21
-2.54414
  0
LINE
  8
0
 10
253.66
 20
-2.54414
 11
253.572
 21
-2.48711
  0
LINE
  8
0
 10
253.572
 20
-2.48711
 11
253.487
 21
-2.42705
  0
LINE
  8
0
 10
253.487
 20
-2.42705
 11
253.403
 21
-2.36403
  0
LINE
  8
0
 10
253.403
 20
-2.36403
 11
253.322
 21
-2.29813
  0
LINE
  8
0
 10
253.322
 20
-2.29813
 11
253.243
 21
-2.22943
  0
LINE
  8
0
 10
253.243
 20
-2.22943
 11
253.166
 21
-2.158
  0
LINE
  8
0
 10
253.166
 20
-2.158
 11
253.092
 21
-2.08397
  0
LINE
  8
0
 10
253.092
 20
-2.08397
 11
253.021
 21
-2.00739
  0
LINE
  8
0
 10
253.021
 20
-2.00739
 11
252.952
 21
-1.92836
  0
LINE
  8
0
 10
252.952
 20
-1.92836
 11
252.886
 21
-1.84697
  0
LINE
  8
0
 10
252.886
 20
-1.84697
 11
252.823
 21
-1.76335
  0
LINE
  8
0
 10
252.823
 20
-1.76335
 11
252.763
 21
-1.67757
  0
LINE
  8
0
 10
252.763
 20
-1.67757
 11
252.706
 21
-1.58975
  0
LINE
  8
0
 10
252.706
 20
-1.58975
 11
252.652
 21
-1.5
  0
LINE
  8
0
 10
252.652
 20
-1.5
 11
252.601
 21
-1.4084
  0
LINE
  8
0
 10
252.601
 20
-1.4084
 11
252.554
 21
-1.31511
  0
LINE
  8
0
 10
252.554
 20
-1.31511
 11
252.509
 21
-1.2202
  0
LINE
  8
0
 10
252.509
 20
-1.2202
 11
252.468
 21
-1.12381
  0
LINE
  8
0
 10
252.468
 20
-1.12381
 11
252.431
 21
-1.02605
  0
LINE
  8
0
 10
252.431
 20
-1.02605
 11
252.397
 21
-0.927048
  0
LINE
  8
0
 10
252.397
 20
-0.927048
 11
252.366
 21
-0.826904
  0
LINE
  8
0
 10
252.366
 20
-0.826904
 11
252.339
 21
-0.725754
  0
LINE
  8
0
 10
252.339
 20
-0.725754
 11
252.316
 21
-0.623734
  0
LINE
  8
0
 10
252.316
 20
-0.623734
 11
252.296
 21
-0.520935
  0
LINE
  8
0
 10
252.296
 20
-0.520935
 11
252.279
 21
-0.417511
  0
LINE
  8
0
 10
252.279
 20
-0.417511
 11
252.266
 21
-0.313583
  0
LINE
  8
0
 10
252.266
 20
-0.313583
 11
252.257
 21
-0.209259
  0
LINE
  8
0
 10
252.257
 20
-0.209259
 11
252.252
 21
-0.104691
  0
LINE
  8
0
 10
252.252
 20
-0.104691
 11
252.25
 21
0
  0
LINE
  8
0
 10
252.25
 20
0
 11
252.252
 21
0.104691
  0
LINE
  8
0
 10
252.252
 20
0.104691
 11
252.257
 21
0.209259
  0
LINE
  8
0
 10
252.257
 20
0.209259
 11
252.266
 21
0.313583
  0
LINE
  8
0
 10
252.266
 20
0.313583
 11
252.279
 21
0.417511
  0
LINE
  8
0
 10
252.279
 20
0.417511
 11
252.296
 21
0.520935
  0
LINE
  8
0
 10
252.296
 20
0.520935
 11
252.316
 21
0.623734
  0
LINE
  8
0
 10
252.316
 20
0.623734
 11
252.339
 21
0.725754
  0
LINE
  8
0
 10
252.339
 20
0.725754
 11
252.366
 21
0.826904
  0
LINE
  8
0
 10
252.366
 20
0.826904
 11
252.397
 21
0.927048
  0
LINE
  8
0
 10
252.397
 20
0.927048
 11
252.431
 21
1.02605
  0
LINE
  8
0
 10
252.431
 20
1.02605
 11
252.468
 21
1.12381
  0
LINE
  8
0
 10
252.468
 20
1.12381
 11
252.509
 21
1.2202
  0
LINE
  8
0
 10
252.509
 20
1.2202
 11
252.554
 21
1.31511
  0
LINE
  8
0
 10
252.554
 20
1.31511
 11
252.601
 21
1.4084
  0
LINE
  8
0
 10
252.601
 20
1.4084
 11
252.652
 21
1.49998
  0
LINE
  8
0
 10
252.652
 20
1.49998
 11
252.706
 21
1.58975
  0
LINE
  8
0
 10
252.706
 20
1.58975
 11
252.763
 21
1.67757
  0
LINE
  8
0
 10
252.763
 20
1.67757
 11
252.823
 21
1.76335
  0
LINE
  8
0
 10
252.823
 20
1.76335
 11
252.886
 21
1.84697
  0
LINE
  8
0
 10
252.886
 20
1.84697
 11
252.952
 21
1.92836
  0
LINE
  8
0
 10
252.952
 20
1.92836
 11
253.021
 21
2.00739
  0
LINE
  8
0
 10
253.021
 20
2.00739
 11
253.092
 21
2.08397
  0
LINE
  8
0
 10
253.092
 20
2.08397
 11
253.166
 21
2.158
  0
LINE
  8
0
 10
253.166
 20
2.158
 11
253.243
 21
2.22943
  0
LINE
  8
0
 10
253.243
 20
2.22943
 11
253.322
 21
2.29813
  0
LINE
  8
0
 10
253.322
 20
2.29813
 11
253.403
 21
2.36403
  0
LINE
  8
0
 10
253.403
 20
2.36403
 11
253.487
 21
2.42705
  0
LINE
  8
0
 10
253.487
 20
2.42705
 11
253.572
 21
2.48711
  0
LINE
  8
0
 10
253.572
 20
2.48711
 11
253.66
 21
2.54414
  0
LINE
  8
0
 10
253.66
 20
2.54414
 11
253.75
 21
2.59807
  0
LINE
  8
0
 10
253.75
 20
2.59807
 11
253.842
 21
2.64883
  0
LINE
  8
0
 10
253.842
 20
2.64883
 11
253.935
 21
2.69638
  0
LINE
  8
0
 10
253.935
 20
2.69638
 11
254.03
 21
2.74063
  0
LINE
  8
0
 10
254.03
 20
2.74063
 11
254.126
 21
2.78154
  0
LINE
  8
0
 10
254.126
 20
2.78154
 11
254.224
 21
2.81908
  0
LINE
  8
0
 10
254.224
 20
2.81908
 11
254.323
 21
2.85316
  0
LINE
  8
0
 10
254.323
 20
2.85316
 11
254.423
 21
2.88377
  0
LINE
  8
0
 10
254.423
 20
2.88377
 11
254.524
 21
2.91087
  0
LINE
  8
0
 10
254.524
 20
2.91087
 11
254.626
 21
2.93443
  0
LINE
  8
0
 10
254.626
 20
2.93443
 11
254.729
 21
2.95442
  0
LINE
  8
0
 10
254.729
 20
2.95442
 11
254.832
 21
2.97079
  0
LINE
  8
0
 10
254.832
 20
2.97079
 11
254.936
 21
2.98355
  0
LINE
  8
0
 10
254.936
 20
2.98355
 11
255.041
 21
2.99269
  0
LINE
  8
0
 10
255.041
 20
2.99269
 11
255.145
 21
2.99817
  0
LINE
  8
0
 10
255.145
 20
2.99817
 11
255.25
 21
3
  0
LINE
  8
0
 10
255.25
 20
3
 11
255.355
 21
2.99817
  0
LINE
  8
0
 10
255.355
 20
2.99817
 11
255.459
 21
2.99269
  0
LINE
  8
0
 10
255.459
 20
2.99269
 11
255.564
 21
2.98355
  0
LINE
  8
0
 10
255.564
 20
2.98355
 11
255.668
 21
2.97079
  0
LINE
  8
0
 10
255.668
 20
2.97079
 11
255.771
 21
2.95442
  0
LINE
  8
0
 10
255.771
 20
2.95442
 11
255.874
 21
2.93443
  0
LINE
  8
0
 10
255.874
 20
2.93443
 11
255.976
 21
2.91087
  0
LINE
  8
0
 10
255.976
 20
2.91087
 11
256.077
 21
2.88377
  0
LINE
  8
0
 10
256.077
 20
2.88377
 11
256.177
 21
2.85316
  0
LINE
  8
0
 10
256.177
 20
2.85316
 11
256.276
 21
2.81908
  0
LINE
  8
0
 10
256.276
 20
2.81908
 11
256.374
 21
2.78154
  0
LINE
  8
0
 10
256.374
 20
2.78154
 11
256.47
 21
2.74063
  0
LINE
  8
0
 10
256.47
 20
2.74063
 11
256.565
 21
2.69638
  0
LINE
  8
0
 10
256.565
 20
2.69638
 11
256.658
 21
2.64883
  0
LINE
  8
0
 10
256.658
 20
2.64883
 11
256.75
 21
2.59807
  0
LINE
  8
0
 10
256.75
 20
2.59807
 11
256.84
 21
2.54414
  0
LINE
  8
0
 10
256.84
 20
2.54414
 11
256.928
 21
2.48711
  0
LINE
  8
0
 10
256.928
 20
2.48711
 11
257.013
 21
2.42705
  0
LINE
  8
0
 10
257.013
 20
2.42705
 11
257.097
 21
2.36403
  0
LINE
  8
0
 10
257.097
 20
2.36403
 11
257.178
 21
2.29813
  0
LINE
  8
0
 10
257.178
 20
2.29813
 11
257.257
 21
2.22943
  0
LINE
  8
0
 10
257.257
 20
2.22943
 11
257.334
 21
2.158
  0
LINE
  8
0
 10
257.334
 20
2.158
 11
257.408
 21
2.08397
  0
LINE
  8
0
 10
257.408
 20
2.08397
 11
257.479
 21
2.00739
  0
LINE
  8
0
 10
257.479
 20
2.00739
 11
257.548
 21
1.92836
  0
LINE
  8
0
 10
257.548
 20
1.92836
 11
257.614
 21
1.84697
  0
LINE
  8
0
 10
257.614
 20
1.84697
 11
257.677
 21
1.76335
  0
LINE
  8
0
 10
257.677
 20
1.76335
 11
257.737
 21
1.67757
  0
LINE
  8
0
 10
257.737
 20
1.67757
 11
257.794
 21
1.58975
  0
LINE
  8
0
 10
257.794
 20
1.58975
 11
257.848
 21
1.49998
  0
LINE
  8
0
 10
257.848
 20
1.49998
 11
257.899
 21
1.4084
  0
LINE
  8
0
 10
257.899
 20
1.4084
 11
257.946
 21
1.31511
  0
LINE
  8
0
 10
257.946
 20
1.31511
 11
257.991
 21
1.2202
  0
LINE
  8
0
 10
257.991
 20
1.2202
 11
258.032
 21
1.12381
  0
LINE
  8
0
 10
258.032
 20
1.12381
 11
258.069
 21
1.02605
  0
LINE
  8
0
 10
258.069
 20
1.02605
 11
258.103
 21
0.927048
  0
LINE
  8
0
 10
258.103
 20
0.927048
 11
258.134
 21
0.826904
  0
LINE
  8
0
 10
258.134
 20
0.826904
 11
258.161
 21
0.725754
  0
LINE
  8
0
 10
258.161
 20
0.725754
 11
258.184
 21
0.623734
  0
LINE
  8
0
 10
258.184
 20
0.623734
 11
258.204
 21
0.520935
  0
LINE
  8
0
 10
258.204
 20
0.520935
 11
258.221
 21
0.417511
  0
LINE
  8
0
 10
258.221
 20
0.417511
 11
258.234
 21
0.313583
  0
LINE
  8
0
 10
258.234
 20
0.313583
 11
258.243
 21
0.209259
  0
LINE
  8
0
 10
258.243
 20
0.209259
 11
258.248
 21
0.104691
  0
LINE
  8
0
 10
258.248
 20
0.104691
 11
258.25
 21
0
  0
LINE
  8
0
 10
258.25
 20
0
 11
258.248
 21
-0.104691
  0
LINE
  8
0
 10
258.248
 20
-0.104691
 11
258.243
 21
-0.209259
  0
LINE
  8
0
 10
258.243
 20
-0.209259
 11
258.234
 21
-0.313583
  0
LINE
  8
0
 10
258.234
 20
-0.313583
 11
258.221
 21
-0.417511
  0
LINE
  8
0
 10
258.221
 20
-0.417511
 11
258.204
 21
-0.520935
  0
LINE
  8
0
 10
258.204
 20
-0.520935
 11
258.184
 21
-0.623734
  0
LINE
  8
0
 10
258.184
 20
-0.623734
 11
258.161
 21
-0.725754
  0
LINE
  8
0
 10
258.161
 20
-0.725754
 11
258.134
 21
-0.826904
  0
LINE
  8
0
 10
258.134
 20
-0.826904
 11
258.103
 21
-0.927048
  0
LINE
  8
0
 10
258.103
 20
-0.927048
 11
258.069
 21
-1.02605
  0
LINE
  8
0
 10
258.069
 20
-1.02605
 11
258.032
 21
-1.12381
  0
LINE
  8
0
 10
258.032
 20
-1.12381
 11
257.991
 21
-1.2202
  0
LINE
  8
0
 10
257.991
 20
-1.2202
 11
257.946
 21
-1.31511
  0
LINE
  8
0
 10
257.946
 20
-1.31511
 11
257.899
 21
-1.4084
  0
LINE
  8
0
 10
257.899
 20
-1.4084
 11
257.848
 21
-1.5
  0
LINE
  8
0
 10
257.848
 20
-1.5
 11
257.794
 21
-1.58975
  0
LINE
  8
0
 10
257.794
 20
-1.58975
 11
257.737
 21
-1.67757
  0
LINE
  8
0
 10
257.737
 20
-1.67757
 11
257.677
 21
-1.76335
  0
LINE
  8
0
 10
257.677
 20
-1.76335
 11
257.614
 21
-1.84697
  0
LINE
  8
0
 10
257.614
 20
-1.84697
 11
257.548
 21
-1.92836
  0
LINE
  8
0
 10
257.548
 20
-1.92836
 11
257.479
 21
-2.00739
  0
LINE
  8
0
 10
257.479
 20
-2.00739
 11
257.408
 21
-2.08397
  0
LINE
  8
0
 10
257.408
 20
-2.08397
 11
257.334
 21
-2.158
  0
LINE
  8
0
 10
257.334
 20
-2.158
 11
257.257
 21
-2.22943
  0
LINE
  8
0
 10
257.257
 20
-2.22943
 11
257.178
 21
-2.29813
  0
LINE
  8
0
 10
257.178
 20
-2.29813
 11
257.097
 21
-2.36403
  0
LINE
  8
0
 10
257.097
 20
-2.36403
 11
257.013
 21
-2.42705
  0
LINE
  8
0
 10
257.013
 20
-2.42705
 11
256.928
 21
-2.48711
  0
LINE
  8
0
 10
256.928
 20
-2.48711
 11
256.84
 21
-2.54414
  0
LINE
  8
0
 10
256.84
 20
-2.54414
 11
256.75
 21
-2.59807
  0
LINE
  8
0
 10
256.75
 20
-2.59807
 11
256.658
 21
-2.64883
  0
LINE
  8
0
 10
256.658
 20
-2.64883
 11
256.565
 21
-2.69638
  0
LINE
  8
0
 10
256.565
 20
-2.69638
 11
256.47
 21
-2.74063
  0
LINE
  8
0
 10
256.47
 20
-2.74063
 11
256.374
 21
-2.78154
  0
LINE
  8
0
 10
256.374
 20
-2.78154
 11
256.276
 21
-2.81908
  0
LINE
  8
0
 10
256.276
 20
-2.81908
 11
256.177
 21
-2.85316
  0
LINE
  8
0
 10
256.177
 20
-2.85316
 11
256.077
 21
-2.88377
  0
LINE
  8
0
 10
256.077
 20
-2.88377
 11
255.976
 21
-2.91087
  0
LINE
  8
0
 10
255.976
 20
-2.91087
 11
255.874
 21
-2.93443
  0
LINE
  8
0
 10
255.874
 20
-2.93443
 11
255.771
 21
-2.95442
  0
LINE
  8
0
 10
255.771
 20
-2.95442
 11
255.668
 21
-2.97079
  0
LINE
  8
0
 10
255.668
 20
-2.97079
 11
255.564
 21
-2.98355
  0
LINE
  8
0
 10
255.564
 20
-2.98355
 11
255.459
 21
-2.99269
  0
LINE
  8
0
 10
255.459
 20
-2.99269
 11
255.355
 21
-2.99817
  0
LINE
  8
0
 10
255.355
 20
-2.99817
 11
255.25
 21
-3
  0
LINE
  8
0
 10
255.25
 20
-3
 11
255.145
 21
-2.99817
  0
LINE
  8
0
 10
48.6453
 20
-2.99817
 11
48.5407
 21
-2.99269
  0
LINE
  8
0
 10
48.5407
 20
-2.99269
 11
48.4364
 21
-2.98355
  0
LINE
  8
0
 10
48.4364
 20
-2.98355
 11
48.3325
 21
-2.97079
  0
LINE
  8
0
 10
48.3325
 20
-2.97079
 11
48.2291
 21
-2.95442
  0
LINE
  8
0
 10
48.2291
 20
-2.95442
 11
48.1263
 21
-2.93443
  0
LINE
  8
0
 10
48.1263
 20
-2.93443
 11
48.0242
 21
-2.91087
  0
LINE
  8
0
 10
48.0242
 20
-2.91087
 11
47.9231
 21
-2.88377
  0
LINE
  8
0
 10
47.9231
 20
-2.88377
 11
47.823
 21
-2.85316
  0
LINE
  8
0
 10
47.823
 20
-2.85316
 11
47.724
 21
-2.81908
  0
LINE
  8
0
 10
47.724
 20
-2.81908
 11
47.6262
 21
-2.78154
  0
LINE
  8
0
 10
47.6262
 20
-2.78154
 11
47.5298
 21
-2.74063
  0
LINE
  8
0
 10
47.5298
 20
-2.74063
 11
47.4349
 21
-2.69638
  0
LINE
  8
0
 10
47.4349
 20
-2.69638
 11
47.3416
 21
-2.64883
  0
LINE
  8
0
 10
47.3416
 20
-2.64883
 11
47.25
 21
-2.59807
  0
LINE
  8
0
 10
47.25
 20
-2.59807
 11
47.1602
 21
-2.54414
  0
LINE
  8
0
 10
47.1602
 20
-2.54414
 11
47.0724
 21
-2.48711
  0
LINE
  8
0
 10
47.0724
 20
-2.48711
 11
46.9866
 21
-2.42705
  0
LINE
  8
0
 10
46.9866
 20
-2.42705
 11
46.903
 21
-2.36403
  0
LINE
  8
0
 10
46.903
 20
-2.36403
 11
46.8216
 21
-2.29813
  0
LINE
  8
0
 10
46.8216
 20
-2.29813
 11
46.7426
 21
-2.22943
  0
LINE
  8
0
 10
46.7426
 20
-2.22943
 11
46.666
 21
-2.158
  0
LINE
  8
0
 10
46.666
 20
-2.158
 11
46.592
 21
-2.08397
  0
LINE
  8
0
 10
46.592
 20
-2.08397
 11
46.5206
 21
-2.00739
  0
LINE
  8
0
 10
46.5206
 20
-2.00739
 11
46.4519
 21
-1.92836
  0
LINE
  8
0
 10
46.4519
 20
-1.92836
 11
46.386
 21
-1.84697
  0
LINE
  8
0
 10
46.386
 20
-1.84697
 11
46.323
 21
-1.76335
  0
LINE
  8
0
 10
46.323
 20
-1.76335
 11
46.2629
 21
-1.67757
  0
LINE
  8
0
 10
46.2629
 20
-1.67757
 11
46.2059
 21
-1.58975
  0
LINE
  8
0
 10
46.2059
 20
-1.58975
 11
46.1519
 21
-1.5
  0
LINE
  8
0
 10
46.1519
 20
-1.5
 11
46.1012
 21
-1.4084
  0
LINE
  8
0
 10
46.1012
 20
-1.4084
 11
46.0536
 21
-1.31511
  0
LINE
  8
0
 10
46.0536
 20
-1.31511
 11
46.0094
 21
-1.2202
  0
LINE
  8
0
 10
46.0094
 20
-1.2202
 11
45.9685
 21
-1.12381
  0
LINE
  8
0
 10
45.9685
 20
-1.12381
 11
45.9309
 21
-1.02605
  0
LINE
  8
0
 10
45.9309
 20
-1.02605
 11
45.8968
 21
-0.927048
  0
LINE
  8
0
 10
45.8968
 20
-0.927048
 11
45.8662
 21
-0.826904
  0
LINE
  8
0
 10
45.8662
 20
-0.826904
 11
45.8391
 21
-0.725754
  0
LINE
  8
0
 10
45.8391
 20
-0.725754
 11
45.8156
 21
-0.623734
  0
LINE
  8
0
 10
45.8156
 20
-0.623734
 11
45.7956
 21
-0.520935
  0
LINE
  8
0
 10
45.7956
 20
-0.520935
 11
45.7792
 21
-0.417511
  0
LINE
  8
0
 10
45.7792
 20
-0.417511
 11
45.7664
 21
-0.313583
  0
LINE
  8
0
 10
45.7664
 20
-0.313583
 11
45.7573
 21
-0.209259
  0
LINE
  8
0
 10
45.7573
 20
-0.209259
 11
45.7518
 21
-0.104691
  0
LINE
  8
0
 10
45.7518
 20
-0.104691
 11
45.75
 21
0
  0
LINE
  8
0
 10
45.75
 20
0
 11
45.7518
 21
0.104691
  0
LINE
  8
0
 10
45.7518
 20
0.104691
 11
45.7573
 21
0.209259
  0
LINE
  8
0
 10
45.7573
 20
0.209259
 11
45.7664
 21
0.313583
  0
LINE
  8
0
 10
45.7664
 20
0.313583
 11
45.7792
 21
0.417511
  0
LINE
  8
0
 10
45.7792
 20
0.417511
 11
45.7956
 21
0.520935
  0
LINE
  8
0
 10
45.7956
 20
0.520935
 11
45.8156
 21
0.623734
  0
LINE
  8
0
 10
45.8156
 20
0.623734
 11
45.8391
 21
0.725754
  0
LINE
  8
0
 10
45.8391
 20
0.725754
 11
45.8662
 21
0.826904
  0
LINE
  8
0
 10
45.8662
 20
0.826904
 11
45.8968
 21
0.927048
  0
LINE
  8
0
 10
45.8968
 20
0.927048
 11
45.9309
 21
1.02605
  0
LINE
  8
0
 10
45.9309
 20
1.02605
 11
45.9685
 21
1.12381
  0
LINE
  8
0
 10
45.9685
 20
1.12381
 11
46.0094
 21
1.2202
  0
LINE
  8
0
 10
46.0094
 20
1.2202
 11
46.0536
 21
1.31511
  0
LINE
  8
0
 10
46.0536
 20
1.31511
 11
46.1012
 21
1.4084
  0
LINE
  8
0
 10
46.1012
 20
1.4084
 11
46.1519
 21
1.49998
  0
LINE
  8
0
 10
46.1519
 20
1.49998
 11
46.2059
 21
1.58975
  0
LINE
  8
0
 10
46.2059
 20
1.58975
 11
46.2629
 21
1.67757
  0
LINE
  8
0
 10
46.2629
 20
1.67757
 11
46.323
 21
1.76335
  0
LINE
  8
0
 10
46.323
 20
1.76335
 11
46.386
 21
1.84697
  0
LINE
  8
0
 10
46.386
 20
1.84697
 11
46.4519
 21
1.92836
  0
LINE
  8
0
 10
46.4519
 20
1.92836
 11
46.5206
 21
2.00739
  0
LINE
  8
0
 10
46.5206
 20
2.00739
 11
46.592
 21
2.08397
  0
LINE
  8
0
 10
46.592
 20
2.08397
 11
46.666
 21
2.158
  0
LINE
  8
0
 10
46.666
 20
2.158
 11
46.7426
 21
2.22943
  0
LINE
  8
0
 10
46.7426
 20
2.22943
 11
46.8216
 21
2.29813
  0
LINE
  8
0
 10
46.8216
 20
2.29813
 11
46.903
 21
2.36403
  0
LINE
  8
0
 10
46.903
 20
2.36403
 11
46.9866
 21
2.42705
  0
LINE
  8
0
 10
46.9866
 20
2.42705
 11
47.0724
 21
2.48711
  0
LINE
  8
0
 10
47.0724
 20
2.48711
 11
47.1602
 21
2.54414
  0
LINE
  8
0
 10
47.1602
 20
2.54414
 11
47.25
 21
2.59807
  0
LINE
  8
0
 10
47.25
 20
2.59807
 11
47.3416
 21
2.64883
  0
LINE
  8
0
 10
47.3416
 20
2.64883
 11
47.4349
 21
2.69638
  0
LINE
  8
0
 10
47.4349
 20
2.69638
 11
47.5298
 21
2.74063
  0
LINE
  8
0
 10
47.5298
 20
2.74063
 11
47.6262
 21
2.78154
  0
LINE
  8
0
 10
47.6262
 20
2.78154
 11
47.724
 21
2.81908
  0
LINE
  8
0
 10
47.724
 20
2.81908
 11
47.823
 21
2.85316
  0
LINE
  8
0
 10
47.823
 20
2.85316
 11
47.9231
 21
2.88377
  0
LINE
  8
0
 10
47.9231
 20
2.88377
 11
48.0242
 21
2.91087
  0
LINE
  8
0
 10
48.0242
 20
2.91087
 11
48.1263
 21
2.93443
  0
LINE
  8
0
 10
48.1263
 20
2.93443
 11
48.2291
 21
2.95442
  0
LINE
  8
0
 10
48.2291
 20
2.95442
 11
48.3325
 21
2.97079
  0
LINE
  8
0
 10
48.3325
 20
2.97079
 11
48.4364
 21
2.98355
  0
LINE
  8
0
 10
48.4364
 20
2.98355
 11
48.5407
 21
2.99269
  0
LINE
  8
0
 10
48.5407
 20
2.99269
 11
48.6453
 21
2.99817
  0
LINE
  8
0
 10
48.6453
 20
2.99817
 11
48.75
 21
3
  0
LINE
  8
0
 10
48.75
 20
3
 11
48.8547
 21
2.99817
  0
LINE
  8
0
 10
48.8547
 20
2.99817
 11
48.9593
 21
2.99269
  0
LINE
  8
0
 10
48.9593
 20
2.99269
 11
49.0636
 21
2.98355
  0
LINE
  8
0
 10
49.0636
 20
2.98355
 11
49.1675
 21
2.97079
  0
LINE
  8
0
 10
49.1675
 20
2.97079
 11
49.2709
 21
2.95442
  0
LINE
  8
0
 10
49.2709
 20
2.95442
 11
49.3737
 21
2.93443
  0
LINE
  8
0
 10
49.3737
 20
2.93443
 11
49.4758
 21
2.91087
  0
LINE
  8
0
 10
49.4758
 20
2.91087
 11
49.5769
 21
2.88377
  0
LINE
  8
0
 10
49.5769
 20
2.88377
 11
49.677
 21
2.85316
  0
LINE
  8
0
 10
49.677
 20
2.85316
 11
49.776
 21
2.81908
  0
LINE
  8
0
 10
49.776
 20
2.81908
 11
49.8738
 21
2.78154
  0
LINE
  8
0
 10
49.8738
 20
2.78154
 11
49.9702
 21
2.74063
  0
LINE
  8
0
 10
49.9702
 20
2.74063
 11
50.0651
 21
2.69638
  0
LINE
  8
0
 10
50.0651
 20
2.69638
 11
50.1584
 21
2.64883
  0
LINE
  8
0
 10
50.1584
 20
2.64883
 11
50.25
 21
2.59807
  0
LINE
  8
0
 10
50.25
 20
2.59807
 11
50.3398
 21
2.54414
  0
LINE
  8
0
 10
50.3398
 20
2.54414
 11
50.4276
 21
2.48711
  0
LINE
  8
0
 10
50.4276
 20
2.48711
 11
50.5134
 21
2.42705
  0
LINE
  8
0
 10
50.5134
 20
2.42705
 11
50.597
 21
2.36403
  0
LINE
  8
0
 10
50.597
 20
2.36403
 11
50.6784
 21
2.29813
  0
LINE
  8
0
 10
50.6784
 20
2.29813
 11
50.7574
 21
2.22943
  0
LINE
  8
0
 10
50.7574
 20
2.22943
 11
50.834
 21
2.158
  0
LINE
  8
0
 10
50.834
 20
2.158
 11
50.908
 21
2.08397
  0
LINE
  8
0
 10
50.908
 20
2.08397
 11
50.9794
 21
2.00739
  0
LINE
  8
0
 10
50.9794
 20
2.00739
 11
51.0481
 21
1.92836
  0
LINE
  8
0
 10
51.0481
 20
1.92836
 11
51.114
 21
1.84697
  0
LINE
  8
0
 10
51.114
 20
1.84697
 11
51.177
 21
1.76335
  0
LINE
  8
0
 10
51.177
 20
1.76335
 11
51.2371
 21
1.67757
  0
LINE
  8
0
 10
51.2371
 20
1.67757
 11
51.2941
 21
1.58975
  0
LINE
  8
0
 10
51.2941
 20
1.58975
 11
51.3481
 21
1.49998
  0
LINE
  8
0
 10
51.3481
 20
1.49998
 11
51.3988
 21
1.4084
  0
LINE
  8
0
 10
51.3988
 20
1.4084
 11
51.4464
 21
1.31511
  0
LINE
  8
0
 10
51.4464
 20
1.31511
 11
51.4906
 21
1.2202
  0
LINE
  8
0
 10
51.4906
 20
1.2202
 11
51.5315
 21
1.12381
  0
LINE
  8
0
 10
51.5315
 20
1.12381
 11
51.5691
 21
1.02605
  0
LINE
  8
0
 10
51.5691
 20
1.02605
 11
51.6032
 21
0.927048
  0
LINE
  8
0
 10
51.6032
 20
0.927048
 11
51.6338
 21
0.826904
  0
LINE
  8
0
 10
51.6338
 20
0.826904
 11
51.6609
 21
0.725754
  0
LINE
  8
0
 10
51.6609
 20
0.725754
 11
51.6844
 21
0.623734
  0
LINE
  8
0
 10
51.6844
 20
0.623734
 11
51.7044
 21
0.520935
  0
LINE
  8
0
 10
51.7044
 20
0.520935
 11
51.7208
 21
0.417511
  0
LINE
  8
0
 10
51.7208
 20
0.417511
 11
51.7336
 21
0.313583
  0
LINE
  8
0
 10
51.7336
 20
0.313583
 11
51.7427
 21
0.209259
  0
LINE
  8
0
 10
51.7427
 20
0.209259
 11
51.7482
 21
0.104691
  0
LINE
  8
0
 10
51.7482
 20
0.104691
 11
51.75
 21
0
  0
LINE
  8
0
 10
51.75
 20
0
 11
51.7482
 21
-0.104691
  0
LINE
  8
0
 10
51.7482
 20
-0.104691
 11
51.7427
 21
-0.209259
  0
LINE
  8
0
 10
51.7427
 20
-0.209259
 11
51.7336
 21
-0.313583
  0
LINE
  8
0
 10
51.7336
 20
-0.313583
 11
51.7208
 21
-0.417511
  0
LINE
  8
0
 10
51.7208
 20
-0.417511
 11
51.7044
 21
-0.520935
  0
LINE
  8
0
 10
51.7044
 20
-0.520935
 11
51.6844
 21
-0.623734
  0
LINE
  8
0
 10
51.6844
 20
-0.623734
 11
51.6609
 21
-0.725754
  0
LINE
  8
0
 10
51.6609
 20
-0.725754
 11
51.6338
 21
-0.826904
  0
LINE
  8
0
 10
51.6338
 20
-0.826904
 11
51.6032
 21
-0.927048
  0
LINE
  8
0
 10
51.6032
 20
-0.927048
 11
51.5691
 21
-1.02605
  0
LINE
  8
0
 10
51.5691
 20
-1.02605
 11
51.5315
 21
-1.12381
  0
LINE
  8
0
 10
51.5315
 20
-1.12381
 11
51.4906
 21
-1.2202
  0
LINE
  8
0
 10
51.4906
 20
-1.2202
 11
51.4464
 21
-1.31511
  0
LINE
  8
0
 10
51.4464
 20
-1.31511
 11
51.3988
 21
-1.4084
  0
LINE
  8
0
 10
51.3988
 20
-1.4084
 11
51.3481
 21
-1.5
  0
LINE
  8
0
 10
51.3481
 20
-1.5
 11
51.2941
 21
-1.58975
  0
LINE
  8
0
 10
51.2941
 20
-1.58975
 11
51.2371
 21
-1.67757
  0
LINE
  8
0
 10
51.2371
 20
-1.67757
 11
51.177
 21
-1.76335
  0
LINE
  8
0
 10
51.177
 20
-1.76335
 11
51.114
 21
-1.84697
  0
LINE
  8
0
 10
51.114
 20
-1.84697
 11
51.0481
 21
-1.92836
  0
LINE
  8
0
 10
51.0481
 20
-1.92836
 11
50.9794
 21
-2.00739
  0
LINE
  8
0
 10
50.9794
 20
-2.00739
 11
50.908
 21
-2.08397
  0
LINE
  8
0
 10
50.908
 20
-2.08397
 11
50.834
 21
-2.158
  0
LINE
  8
0
 10
50.834
 20
-2.158
 11
50.7574
 21
-2.22943
  0
LINE
  8
0
 10
50.7574
 20
-2.22943
 11
50.6784
 21
-2.29813
  0
LINE
  8
0
 10
50.6784
 20
-2.29813
 11
50.597
 21
-2.36403
  0
LINE
  8
0
 10
50.597
 20
-2.36403
 11
50.5134
 21
-2.42705
  0
LINE
  8
0
 10
50.5134
 20
-2.42705
 11
50.4276
 21
-2.48711
  0
LINE
  8
0
 10
50.4276
 20
-2.48711
 11
50.3398
 21
-2.54414
  0
LINE
  8
0
 10
50.3398
 20
-2.54414
 11
50.25
 21
-2.59807
  0
LINE
  8
0
 10
50.25
 20
-2.59807
 11
50.1584
 21
-2.64883
  0
LINE
  8
0
 10
50.1584
 20
-2.64883
 11
50.0651
 21
-2.69638
  0
LINE
  8
0
 10
50.0651
 20
-2.69638
 11
49.9702
 21
-2.74063
  0
LINE
  8
0
 10
49.9702
 20
-2.74063
 11
49.8738
 21
-2.78154
  0
LINE
  8
0
 10
49.8738
 20
-2.78154
 11
49.776
 21
-2.81908
  0
LINE
  8
0
 10
49.776
 20
-2.81908
 11
49.677
 21
-2.85316
  0
LINE
  8
0
 10
49.677
 20
-2.85316
 11
49.5769
 21
-2.88377
  0
LINE
  8
0
 10
49.5769
 20
-2.88377
 11
49.4758
 21
-2.91087
  0
LINE
  8
0
 10
49.4758
 20
-2.91087
 11
49.3737
 21
-2.93443
  0
LINE
  8
0
 10
49.3737
 20
-2.93443
 11
49.2709
 21
-2.95442
  0
LINE
  8
0
 10
49.2709
 20
-2.95442
 11
49.1675
 21
-2.97079
  0
LINE
  8
0
 10
49.1675
 20
-2.97079
 11
49.0636
 21
-2.98355
  0
LINE
  8
0
 10
49.0636
 20
-2.98355
 11
48.9593
 21
-2.99269
  0
LINE
  8
0
 10
48.9593
 20
-2.99269
 11
48.8547
 21
-2.99817
  0
LINE
  8
0
 10
48.8547
 20
-2.99817
 11
48.75
 21
-3
  0
LINE
  8
0
 10
48.75
 20
-3
 11
48.6453
 21
-2.99817
  0
LINE
  8
0
 10
151.895
 20
-2.99817
 11
151.791
 21
-2.99269
  0
LINE
  8
0
 10
151.791
 20
-2.99269
 11
151.686
 21
-2.98355
  0
LINE
  8
0
 10
151.686
 20
-2.98355
 11
151.582
 21
-2.97079
  0
LINE
  8
0
 10
151.582
 20
-2.97079
 11
151.479
 21
-2.95442
  0
LINE
  8
0
 10
151.479
 20
-2.95442
 11
151.376
 21
-2.93443
  0
LINE
  8
0
 10
151.376
 20
-2.93443
 11
151.274
 21
-2.91087
  0
LINE
  8
0
 10
151.274
 20
-2.91087
 11
151.173
 21
-2.88377
  0
LINE
  8
0
 10
151.173
 20
-2.88377
 11
151.073
 21
-2.85316
  0
LINE
  8
0
 10
151.073
 20
-2.85316
 11
150.974
 21
-2.81908
  0
LINE
  8
0
 10
150.974
 20
-2.81908
 11
150.876
 21
-2.78154
  0
LINE
  8
0
 10
150.876
 20
-2.78154
 11
150.78
 21
-2.74063
  0
LINE
  8
0
 10
150.78
 20
-2.74063
 11
150.685
 21
-2.69638
  0
LINE
  8
0
 10
150.685
 20
-2.69638
 11
150.592
 21
-2.64883
  0
LINE
  8
0
 10
150.592
 20
-2.64883
 11
150.5
 21
-2.59807
  0
LINE
  8
0
 10
150.5
 20
-2.59807
 11
150.41
 21
-2.54414
  0
LINE
  8
0
 10
150.41
 20
-2.54414
 11
150.322
 21
-2.48711
  0
LINE
  8
0
 10
150.322
 20
-2.48711
 11
150.237
 21
-2.42705
  0
LINE
  8
0
 10
150.237
 20
-2.42705
 11
150.153
 21
-2.36403
  0
LINE
  8
0
 10
150.153
 20
-2.36403
 11
150.072
 21
-2.29813
  0
LINE
  8
0
 10
150.072
 20
-2.29813
 11
149.993
 21
-2.22943
  0
LINE
  8
0
 10
149.993
 20
-2.22943
 11
149.916
 21
-2.158
  0
LINE
  8
0
 10
149.916
 20
-2.158
 11
149.842
 21
-2.08397
  0
LINE
  8
0
 10
149.842
 20
-2.08397
 11
149.771
 21
-2.00739
  0
LINE
  8
0
 10
149.771
 20
-2.00739
 11
149.702
 21
-1.92836
  0
LINE
  8
0
 10
149.702
 20
-1.92836
 11
149.636
 21
-1.84697
  0
LINE
  8
0
 10
149.636
 20
-1.84697
 11
149.573
 21
-1.76335
  0
LINE
  8
0
 10
149.573
 20
-1.76335
 11
149.513
 21
-1.67757
  0
LINE
  8
0
 10
149.513
 20
-1.67757
 11
149.456
 21
-1.58975
  0
LINE
  8
0
 10
149.456
 20
-1.58975
 11
149.402
 21
-1.5
  0
LINE
  8
0
 10
149.402
 20
-1.5
 11
149.351
 21
-1.4084
  0
LINE
  8
0
 10
149.351
 20
-1.4084
 11
149.304
 21
-1.31511
  0
LINE
  8
0
 10
149.304
 20
-1.31511
 11
149.259
 21
-1.2202
  0
LINE
  8
0
 10
149.259
 20
-1.2202
 11
149.218
 21
-1.12381
  0
LINE
  8
0
 10
149.218
 20
-1.12381
 11
149.181
 21
-1.02605
  0
LINE
  8
0
 10
149.181
 20
-1.02605
 11
149.147
 21
-0.927048
  0
LINE
  8
0
 10
149.147
 20
-0.927048
 11
149.116
 21
-0.826904
  0
LINE
  8
0
 10
149.116
 20
-0.826904
 11
149.089
 21
-0.725754
  0
LINE
  8
0
 10
149.089
 20
-0.725754
 11
149.066
 21
-0.623734
  0
LINE
  8
0
 10
149.066
 20
-0.623734
 11
149.046
 21
-0.520935
  0
LINE
  8
0
 10
149.046
 20
-0.520935
 11
149.029
 21
-0.417511
  0
LINE
  8
0
 10
149.029
 20
-0.417511
 11
149.016
 21
-0.313583
  0
LINE
  8
0
 10
149.016
 20
-0.313583
 11
149.007
 21
-0.209259
  0
LINE
  8
0
 10
149.007
 20
-0.209259
 11
149.002
 21
-0.104691
  0
LINE
  8
0
 10
149.002
 20
-0.104691
 11
149
 21
0
  0
LINE
  8
0
 10
149
 20
0
 11
149.002
 21
0.104691
  0
LINE
  8
0
 10
149.002
 20
0.104691
 11
149.007
 21
0.209259
  0
LINE
  8
0
 10
149.007
 20
0.209259
 11
149.016
 21
0.313583
  0
LINE
  8
0
 10
149.016
 20
0.313583
 11
149.029
 21
0.417511
  0
LINE
  8
0
 10
149.029
 20
0.417511
 11
149.046
 21
0.520935
  0
LINE
  8
0
 10
149.046
 20
0.520935
 11
149.066
 21
0.623734
  0
LINE
  8
0
 10
149.066
 20
0.623734
 11
149.089
 21
0.725754
  0
LINE
  8
0
 10
149.089
 20
0.725754
 11
149.116
 21
0.826904
  0
LINE
  8
0
 10
149.116
 20
0.826904
 11
149.147
 21
0.927048
  0
LINE
  8
0
 10
149.147
 20
0.927048
 11
149.181
 21
1.02605
  0
LINE
  8
0
 10
149.181
 20
1.02605
 11
149.218
 21
1.12381
  0
LINE
  8
0
 10
149.218
 20
1.12381
 11
149.259
 21
1.2202
  0
LINE
  8
0
 10
149.259
 20
1.2202
 11
149.304
 21
1.31511
  0
LINE
  8
0
 10
149.304
 20
1.31511
 11
149.351
 21
1.4084
  0
LINE
  8
0
 10
149.351
 20
1.4084
 11
149.402
 21
1.49998
  0
LINE
  8
0
 10
149.402
 20
1.49998
 11
149.456
 21
1.58975
  0
LINE
  8
0
 10
149.456
 20
1.58975
 11
149.513
 21
1.67757
  0
LINE
  8
0
 10
149.513
 20
1.67757
 11
149.573
 21
1.76335
  0
LINE
  8
0
 10
149.573
 20
1.76335
 11
149.636
 21
1.84697
  0
LINE
  8
0
 10
149.636
 20
1.84697
 11
149.702
 21
1.92836
  0
LINE
  8
0
 10
149.702
 20
1.92836
 11
149.771
 21
2.00739
  0
LINE
  8
0
 10
149.771
 20
2.00739
 11
149.842
 21
2.08397
  0
LINE
  8
0
 10
149.842
 20
2.08397
 11
149.916
 21
2.158
  0
LINE
  8
0
 10
149.916
 20
2.158
 11
149.993
 21
2.22943
  0
LINE
  8
0
 10
149.993
 20
2.22943
 11
150.072
 21
2.29813
  0
LINE
  8
0
 10
150.072
 20
2.29813
 11
150.153
 21
2.36403
  0
LINE
  8
0
 10
150.153
 20
2.36403
 11
150.237
 21
2.42705
  0
LINE
  8
0
 10
150.237
 20
2.42705
 11
150.322
 21
2.48711
  0
LINE
  8
0
 10
150.322
 20
2.48711
 11
150.41
 21
2.54414
  0
LINE
  8
0
 10
150.41
 20
2.54414
 11
150.5
 21
2.59807
  0
LINE
  8
0
 10
150.5
 20
2.59807
 11
150.592
 21
2.64883
  0
LINE
  8
0
 10
150.592
 20
2.64883
 11
150.685
 21
2.69638
  0
LINE
  8
0
 10
150.685
 20
2.69638
 11
150.78
 21
2.74063
  0
LINE
  8
0
 10
150.78
 20
2.74063
 11
150.876
 21
2.78154
  0
LINE
  8
0
 10
150.876
 20
2.78154
 11
150.974
 21
2.81908
  0
LINE
  8
0
 10
150.974
 20
2.81908
 11
151.073
 21
2.85316
  0
LINE
  8
0
 10
151.073
 20
2.85316
 11
151.173
 21
2.88377
  0
LINE
  8
0
 10
151.173
 20
2.88377
 11
151.274
 21
2.91087
  0
LINE
  8
0
 10
151.274
 20
2.91087
 11
151.376
 21
2.93443
  0
LINE
  8
0
 10
151.376
 20
2.93443
 11
151.479
 21
2.95442
  0
LINE
  8
0
 10
151.479
 20
2.95442
 11
151.582
 21
2.97079
  0
LINE
  8
0
 10
151.582
 20
2.97079
 11
151.686
 21
2.98355
  0
LINE
  8
0
 10
151.686
 20
2.98355
 11
151.791
 21
2.99269
  0
LINE
  8
0
 10
151.791
 20
2.99269
 11
151.895
 21
2.99817
  0
LINE
  8
0
 10
151.895
 20
2.99817
 11
152
 21
3
  0
LINE
  8
0
 10
152
 20
3
 11
152.105
 21
2.99817
  0
LINE
  8
0
 10
152.105
 20
2.99817
 11
152.209
 21
2.99269
  0
LINE
  8
0
 10
152.209
 20
2.99269
 11
152.314
 21
2.98355
  0
LINE
  8
0
 10
152.314
 20
2.98355
 11
152.418
 21
2.97079
  0
LINE
  8
0
 10
152.418
 20
2.97079
 11
152.521
 21
2.95442
  0
LINE
  8
0
 10
152.521
 20
2.95442
 11
152.624
 21
2.93443
  0
LINE
  8
0
 10
152.624
 20
2.93443
 11
152.726
 21
2.91087
  0
LINE
  8
0
 10
152.726
 20
2.91087
 11
152.827
 21
2.88377
  0
LINE
  8
0
 10
152.827
 20
2.88377
 11
152.927
 21
2.85316
  0
LINE
  8
0
 10
152.927
 20
2.85316
 11
153.026
 21
2.81908
  0
LINE
  8
0
 10
153.026
 20
2.81908
 11
153.124
 21
2.78154
  0
LINE
  8
0
 10
153.124
 20
2.78154
 11
153.22
 21
2.74063
  0
LINE
  8
0
 10
153.22
 20
2.74063
 11
153.315
 21
2.69638
  0
LINE
  8
0
 10
153.315
 20
2.69638
 11
153.408
 21
2.64883
  0
LINE
  8
0
 10
153.408
 20
2.64883
 11
153.5
 21
2.59807
  0
LINE
  8
0
 10
153.5
 20
2.59807
 11
153.59
 21
2.54414
  0
LINE
  8
0
 10
153.59
 20
2.54414
 11
153.678
 21
2.48711
  0
LINE
  8
0
 10
153.678
 20
2.48711
 11
153.763
 21
2.42705
  0
LINE
  8
0
 10
153.763
 20
2.42705
 11
153.847
 21
2.36403
  0
LINE
  8
0
 10
153.847
 20
2.36403
 11
153.928
 21
2.29813
  0
LINE
  8
0
 10
153.928
 20
2.29813
 11
154.007
 21
2.22943
  0
LINE
  8
0
 10
154.007
 20
2.22943
 11
154.084
 21
2.158
  0
LINE
  8
0
 10
154.084
 20
2.158
 11
154.158
 21
2.08397
  0
LINE
  8
0
 10
154.158
 20
2.08397
 11
154.229
 21
2.00739
  0
LINE
  8
0
 10
154.229
 20
2.00739
 11
154.298
 21
1.92836
  0
LINE
  8
0
 10
154.298
 20
1.92836
 11
154.364
 21
1.84697
  0
LINE
  8
0
 10
154.364
 20
1.84697
 11
154.427
 21
1.76335
  0
LINE
  8
0
 10
154.427
 20
1.76335
 11
154.487
 21
1.67757
  0
LINE
  8
0
 10
154.487
 20
1.67757
 11
154.544
 21
1.58975
  0
LINE
  8
0
 10
154.544
 20
1.58975
 11
154.598
 21
1.49998
  0
LINE
  8
0
 10
154.598
 20
1.49998
 11
154.649
 21
1.4084
  0
LINE
  8
0
 10
154.649
 20
1.4084
 11
154.696
 21
1.31511
  0
LINE
  8
0
 10
154.696
 20
1.31511
 11
154.741
 21
1.2202
  0
LINE
  8
0
 10
154.741
 20
1.2202
 11
154.782
 21
1.12381
  0
LINE
  8
0
 10
154.782
 20
1.12381
 11
154.819
 21
1.02605
  0
LINE
  8
0
 10
154.819
 20
1.02605
 11
154.853
 21
0.927048
  0
LINE
  8
0
 10
154.853
 20
0.927048
 11
154.884
 21
0.826904
  0
LINE
  8
0
 10
154.884
 20
0.826904
 11
154.911
 21
0.725754
  0
LINE
  8
0
 10
154.911
 20
0.725754
 11
154.934
 21
0.623734
  0
LINE
  8
0
 10
154.934
 20
0.623734
 11
154.954
 21
0.520935
  0
LINE
  8
0
 10
154.954
 20
0.520935
 11
154.971
 21
0.417511
  0
LINE
  8
0
 10
154.971
 20
0.417511
 11
154.984
 21
0.313583
  0
LINE
  8
0
 10
154.984
 20
0.313583
 11
154.993
 21
0.209259
  0
LINE
  8
0
 10
154.993
 20
0.209259
 11
154.998
 21
0.104691
  0
LINE
  8
0
 10
154.998
 20
0.104691
 11
155
 21
0
  0
LINE
  8
0
 10
155
 20
0
 11
154.998
 21
-0.104691
  0
LINE
  8
0
 10
154.998
 20
-0.104691
 11
154.993
 21
-0.209259
  0
LINE
  8
0
 10
154.993
 20
-0.209259
 11
154.984
 21
-0.313583
  0
LINE
  8
0
 10
154.984
 20
-0.313583
 11
154.971
 21
-0.417511
  0
LINE
  8
0
 10
154.971
 20
-0.417511
 11
154.954
 21
-0.520935
  0
LINE
  8
0
 10
154.954
 20
-0.520935
 11
154.934
 21
-0.623734
  0
LINE
  8
0
 10
154.934
 20
-0.623734
 11
154.911
 21
-0.725754
  0
LINE
  8
0
 10
154.911
 20
-0.725754
 11
154.884
 21
-0.826904
  0
LINE
  8
0
 10
154.884
 20
-0.826904
 11
154.853
 21
-0.927048
  0
LINE
  8
0
 10
154.853
 20
-0.927048
 11
154.819
 21
-1.02605
  0
LINE
  8
0
 10
154.819
 20
-1.02605
 11
154.782
 21
-1.12381
  0
LINE
  8
0
 10
154.782
 20
-1.12381
 11
154.741
 21
-1.2202
  0
LINE
  8
0
 10
154.741
 20
-1.2202
 11
154.696
 21
-1.31511
  0
LINE
  8
0
 10
154.696
 20
-1.31511
 11
154.649
 21
-1.4084
  0
LINE
  8
0
 10
154.649
 20
-1.4084
 11
154.598
 21
-1.5
  0
LINE
  8
0
 10
154.598
 20
-1.5
 11
154.544
 21
-1.58975
  0
LINE
  8
0
 10
154.544
 20
-1.58975
 11
154.487
 21
-1.67757
  0
LINE
  8
0
 10
154.487
 20
-1.67757
 11
154.427
 21
-1.76335
  0
LINE
  8
0
 10
154.427
 20
-1.76335
 11
154.364
 21
-1.84697
  0
LINE
  8
0
 10
154.364
 20
-1.84697
 11
154.298
 21
-1.92836
  0
LINE
  8
0
 10
154.298
 20
-1.92836
 11
154.229
 21
-2.00739
  0
LINE
  8
0
 10
154.229
 20
-2.00739
 11
154.158
 21
-2.08397
  0
LINE
  8
0
 10
154.158
 20
-2.08397
 11
154.084
 21
-2.158
  0
LINE
  8
0
 10
154.084
 20
-2.158
 11
154.007
 21
-2.22943
  0
LINE
  8
0
 10
154.007
 20
-2.22943
 11
153.928
 21
-2.29813
  0
LINE
  8
0
 10
153.928
 20
-2.29813
 11
153.847
 21
-2.36403
  0
LINE
  8
0
 10
153.847
 20
-2.36403
 11
153.763
 21
-2.42705
  0
LINE
  8
0
 10
153.763
 20
-2.42705
 11
153.678
 21
-2.48711
  0
LINE
  8
0
 10
153.678
 20
-2.48711
 11
153.59
 21
-2.54414
  0
LINE
  8
0
 10
153.59
 20
-2.54414
 11
153.5
 21
-2.59807
  0
LINE
  8
0
 10
153.5
 20
-2.59807
 11
153.408
 21
-2.64883
  0
LINE
  8
0
 10
153.408
 20
-2.64883
 11
153.315
 21
-2.69638
  0
LINE
  8
0
 10
153.315
 20
-2.69638
 11
153.22
 21
-2.74063
  0
LINE
  8
0
 10
153.22
 20
-2.74063
 11
153.124
 21
-2.78154
  0
LINE
  8
0
 10
153.124
 20
-2.78154
 11
153.026
 21
-2.81908
  0
LINE
  8
0
 10
153.026
 20
-2.81908
 11
152.927
 21
-2.85316
  0
LINE
  8
0
 10
152.927
 20
-2.85316
 11
152.827
 21
-2.88377
  0
LINE
  8
0
 10
152.827
 20
-2.88377
 11
152.726
 21
-2.91087
  0
LINE
  8
0
 10
152.726
 20
-2.91087
 11
152.624
 21
-2.93443
  0
LINE
  8
0
 10
152.624
 20
-2.93443
 11
152.521
 21
-2.95442
  0
LINE
  8
0
 10
152.521
 20
-2.95442
 11
152.418
 21
-2.97079
  0
LINE
  8
0
 10
152.418
 20
-2.97079
 11
152.314
 21
-2.98355
  0
LINE
  8
0
 10
152.314
 20
-2.98355
 11
152.209
 21
-2.99269
  0
LINE
  8
0
 10
152.209
 20
-2.99269
 11
152.105
 21
-2.99817
  0
LINE
  8
0
 10
152.105
 20
-2.99817
 11
152
 21
-3
  0
LINE
  8
0
 10
152
 20
-3
 11
151.895
 21
-2.99817
  0
LINE
  8
0
 10
14.9302
 20
-1.99878
 11
14.8605
 21
-1.99512
  0
LINE
  8
0
 10
14.8605
 20
-1.99512
 11
14.7909
 21
-1.98903
  0
LINE
  8
0
 10
14.7909
 20
-1.98903
 11
14.7216
 21
-1.98053
  0
LINE
  8
0
 10
14.7216
 20
-1.98053
 11
14.6527
 21
-1.9696
  0
LINE
  8
0
 10
14.6527
 20
-1.9696
 11
14.5842
 21
-1.95628
  0
LINE
  8
0
 10
14.5842
 20
-1.95628
 11
14.5161
 21
-1.94058
  0
LINE
  8
0
 10
14.5161
 20
-1.94058
 11
14.4487
 21
-1.92252
  0
LINE
  8
0
 10
14.4487
 20
-1.92252
 11
14.382
 21
-1.9021
  0
LINE
  8
0
 10
14.382
 20
-1.9021
 11
14.3159
 21
-1.87938
  0
LINE
  8
0
 10
14.3159
 20
-1.87938
 11
14.2508
 21
-1.85435
  0
LINE
  8
0
 10
14.2508
 20
-1.85435
 11
14.1865
 21
-1.82709
  0
LINE
  8
0
 10
14.1865
 20
-1.82709
 11
14.1232
 21
-1.79758
  0
LINE
  8
0
 10
14.1232
 20
-1.79758
 11
14.0611
 21
-1.76588
  0
LINE
  8
0
 10
14.0611
 20
-1.76588
 11
14
 21
-1.73204
  0
LINE
  8
0
 10
14
 20
-1.73204
 11
13.9402
 21
-1.69609
  0
LINE
  8
0
 10
13.9402
 20
-1.69609
 11
13.8816
 21
-1.65807
  0
LINE
  8
0
 10
13.8816
 20
-1.65807
 11
13.8244
 21
-1.61803
  0
LINE
  8
0
 10
13.8244
 20
-1.61803
 11
13.7687
 21
-1.57602
  0
LINE
  8
0
 10
13.7687
 20
-1.57602
 11
13.7144
 21
-1.53207
  0
LINE
  8
0
 10
13.7144
 20
-1.53207
 11
13.6617
 21
-1.48628
  0
LINE
  8
0
 10
13.6617
 20
-1.48628
 11
13.6107
 21
-1.43867
  0
LINE
  8
0
 10
13.6107
 20
-1.43867
 11
13.5613
 21
-1.38931
  0
LINE
  8
0
 10
13.5613
 20
-1.38931
 11
13.5137
 21
-1.33826
  0
LINE
  8
0
 10
13.5137
 20
-1.33826
 11
13.4679
 21
-1.28557
  0
LINE
  8
0
 10
13.4679
 20
-1.28557
 11
13.424
 21
-1.23131
  0
LINE
  8
0
 10
13.424
 20
-1.23131
 11
13.382
 21
-1.17557
  0
LINE
  8
0
 10
13.382
 20
-1.17557
 11
13.3419
 21
-1.11838
  0
LINE
  8
0
 10
13.3419
 20
-1.11838
 11
13.3039
 21
-1.05983
  0
LINE
  8
0
 10
13.3039
 20
-1.05983
 11
13.2679
 21
-1
  0
LINE
  8
0
 10
13.2679
 20
-1
 11
13.2341
 21
-0.938934
  0
LINE
  8
0
 10
13.2341
 20
-0.938934
 11
13.2024
 21
-0.87674
  0
LINE
  8
0
 10
13.2024
 20
-0.87674
 11
13.1729
 21
-0.813461
  0
LINE
  8
0
 10
13.1729
 20
-0.813461
 11
13.1456
 21
-0.749207
  0
LINE
  8
0
 10
13.1456
 20
-0.749207
 11
13.1206
 21
-0.684036
  0
LINE
  8
0
 10
13.1206
 20
-0.684036
 11
13.0979
 21
-0.618027
  0
LINE
  8
0
 10
13.0979
 20
-0.618027
 11
13.0775
 21
-0.55127
  0
LINE
  8
0
 10
13.0775
 20
-0.55127
 11
13.0594
 21
-0.483841
  0
LINE
  8
0
 10
13.0594
 20
-0.483841
 11
13.0437
 21
-0.415817
  0
LINE
  8
0
 10
13.0437
 20
-0.415817
 11
13.0304
 21
-0.34729
  0
LINE
  8
0
 10
13.0304
 20
-0.34729
 11
13.0195
 21
-0.278336
  0
LINE
  8
0
 10
13.0195
 20
-0.278336
 11
13.011
 21
-0.209045
  0
LINE
  8
0
 10
13.011
 20
-0.209045
 11
13.0049
 21
-0.139511
  0
LINE
  8
0
 10
13.0049
 20
-0.139511
 11
13.0012
 21
-0.0697937
  0
LINE
  8
0
 10
13.0012
 20
-0.0697937
 11
13
 21
0
  0
LINE
  8
0
 10
13
 20
0
 11
13.0012
 21
0.0697937
  0
LINE
  8
0
 10
13.0012
 20
0.0697937
 11
13.0049
 21
0.139511
  0
LINE
  8
0
 10
13.0049
 20
0.139511
 11
13.011
 21
0.209045
  0
LINE
  8
0
 10
13.011
 20
0.209045
 11
13.0195
 21
0.278336
  0
LINE
  8
0
 10
13.0195
 20
0.278336
 11
13.0304
 21
0.34729
  0
LINE
  8
0
 10
13.0304
 20
0.34729
 11
13.0437
 21
0.415817
  0
LINE
  8
0
 10
13.0437
 20
0.415817
 11
13.0594
 21
0.483841
  0
LINE
  8
0
 10
13.0594
 20
0.483841
 11
13.0775
 21
0.55127
  0
LINE
  8
0
 10
13.0775
 20
0.55127
 11
13.0979
 21
0.618027
  0
LINE
  8
0
 10
13.0979
 20
0.618027
 11
13.1206
 21
0.684036
  0
LINE
  8
0
 10
13.1206
 20
0.684036
 11
13.1456
 21
0.749207
  0
LINE
  8
0
 10
13.1456
 20
0.749207
 11
13.1729
 21
0.813461
  0
LINE
  8
0
 10
13.1729
 20
0.813461
 11
13.2024
 21
0.87674
  0
LINE
  8
0
 10
13.2024
 20
0.87674
 11
13.2341
 21
0.938934
  0
LINE
  8
0
 10
13.2341
 20
0.938934
 11
13.2679
 21
0.999985
  0
LINE
  8
0
 10
13.2679
 20
0.999985
 11
13.3039
 21
1.05983
  0
LINE
  8
0
 10
13.3039
 20
1.05983
 11
13.3419
 21
1.11838
  0
LINE
  8
0
 10
13.3419
 20
1.11838
 11
13.382
 21
1.17557
  0
LINE
  8
0
 10
13.382
 20
1.17557
 11
13.424
 21
1.23131
  0
LINE
  8
0
 10
13.424
 20
1.23131
 11
13.4679
 21
1.28557
  0
LINE
  8
0
 10
13.4679
 20
1.28557
 11
13.5137
 21
1.33826
  0
LINE
  8
0
 10
13.5137
 20
1.33826
 11
13.5613
 21
1.38931
  0
LINE
  8
0
 10
13.5613
 20
1.38931
 11
13.6107
 21
1.43867
  0
LINE
  8
0
 10
13.6107
 20
1.43867
 11
13.6617
 21
1.48628
  0
LINE
  8
0
 10
13.6617
 20
1.48628
 11
13.7144
 21
1.53207
  0
LINE
  8
0
 10
13.7144
 20
1.53207
 11
13.7687
 21
1.57602
  0
LINE
  8
0
 10
13.7687
 20
1.57602
 11
13.8244
 21
1.61803
  0
LINE
  8
0
 10
13.8244
 20
1.61803
 11
13.8816
 21
1.65807
  0
LINE
  8
0
 10
13.8816
 20
1.65807
 11
13.9402
 21
1.69609
  0
LINE
  8
0
 10
13.9402
 20
1.69609
 11
14
 21
1.73204
  0
LINE
  8
0
 10
14
 20
1.73204
 11
14.0611
 21
1.76588
  0
LINE
  8
0
 10
14.0611
 20
1.76588
 11
14.1232
 21
1.79758
  0
LINE
  8
0
 10
14.1232
 20
1.79758
 11
14.1865
 21
1.82709
  0
LINE
  8
0
 10
14.1865
 20
1.82709
 11
14.2508
 21
1.85435
  0
LINE
  8
0
 10
14.2508
 20
1.85435
 11
14.3159
 21
1.87938
  0
LINE
  8
0
 10
14.3159
 20
1.87938
 11
14.382
 21
1.9021
  0
LINE
  8
0
 10
14.382
 20
1.9021
 11
14.4487
 21
1.92252
  0
LINE
  8
0
 10
14.4487
 20
1.92252
 11
14.5161
 21
1.94058
  0
LINE
  8
0
 10
14.5161
 20
1.94058
 11
14.5842
 21
1.95628
  0
LINE
  8
0
 10
14.5842
 20
1.95628
 11
14.6527
 21
1.9696
  0
LINE
  8
0
 10
14.6527
 20
1.9696
 11
14.7216
 21
1.98053
  0
LINE
  8
0
 10
14.7216
 20
1.98053
 11
14.7909
 21
1.98903
  0
LINE
  8
0
 10
14.7909
 20
1.98903
 11
14.8605
 21
1.99512
  0
LINE
  8
0
 10
14.8605
 20
1.99512
 11
14.9302
 21
1.99878
  0
LINE
  8
0
 10
14.9302
 20
1.99878
 11
15
 21
2
  0
LINE
  8
0
 10
15
 20
2
 11
15.0698
 21
1.99878
  0
LINE
  8
0
 10
15.0698
 20
1.99878
 11
15.1395
 21
1.99512
  0
LINE
  8
0
 10
15.1395
 20
1.99512
 11
15.209
 21
1.98903
  0
LINE
  8
0
 10
15.209
 20
1.98903
 11
15.2783
 21
1.98053
  0
LINE
  8
0
 10
15.2783
 20
1.98053
 11
15.3473
 21
1.9696
  0
LINE
  8
0
 10
15.3473
 20
1.9696
 11
15.4158
 21
1.95628
  0
LINE
  8
0
 10
15.4158
 20
1.95628
 11
15.4838
 21
1.94058
  0
LINE
  8
0
 10
15.4838
 20
1.94058
 11
15.5513
 21
1.92252
  0
LINE
  8
0
 10
15.5513
 20
1.92252
 11
15.618
 21
1.9021
  0
LINE
  8
0
 10
15.618
 20
1.9021
 11
15.684
 21
1.87938
  0
LINE
  8
0
 10
15.684
 20
1.87938
 11
15.7492
 21
1.85435
  0
LINE
  8
0
 10
15.7492
 20
1.85435
 11
15.8135
 21
1.82709
  0
LINE
  8
0
 10
15.8135
 20
1.82709
 11
15.8767
 21
1.79758
  0
LINE
  8
0
 10
15.8767
 20
1.79758
 11
15.9389
 21
1.76588
  0
LINE
  8
0
 10
15.9389
 20
1.76588
 11
16
 21
1.73204
  0
LINE
  8
0
 10
16
 20
1.73204
 11
16.0598
 21
1.69609
  0
LINE
  8
0
 10
16.0598
 20
1.69609
 11
16.1184
 21
1.65807
  0
LINE
  8
0
 10
16.1184
 20
1.65807
 11
16.1756
 21
1.61803
  0
LINE
  8
0
 10
16.1756
 20
1.61803
 11
16.2313
 21
1.57602
  0
LINE
  8
0
 10
16.2313
 20
1.57602
 11
16.2856
 21
1.53207
  0
LINE
  8
0
 10
16.2856
 20
1.53207
 11
16.3383
 21
1.48628
  0
LINE
  8
0
 10
16.3383
 20
1.48628
 11
16.3893
 21
1.43867
  0
LINE
  8
0
 10
16.3893
 20
1.43867
 11
16.4387
 21
1.38931
  0
LINE
  8
0
 10
16.4387
 20
1.38931
 11
16.4863
 21
1.33826
  0
LINE
  8
0
 10
16.4863
 20
1.33826
 11
16.5321
 21
1.28557
  0
LINE
  8
0
 10
16.5321
 20
1.28557
 11
16.576
 21
1.23131
  0
LINE
  8
0
 10
16.576
 20
1.23131
 11
16.618
 21
1.17557
  0
LINE
  8
0
 10
16.618
 20
1.17557
 11
16.6581
 21
1.11838
  0
LINE
  8
0
 10
16.6581
 20
1.11838
 11
16.6961
 21
1.05983
  0
LINE
  8
0
 10
16.6961
 20
1.05983
 11
16.732
 21
0.999985
  0
LINE
  8
0
 10
16.732
 20
0.999985
 11
16.7659
 21
0.938934
  0
LINE
  8
0
 10
16.7659
 20
0.938934
 11
16.7976
 21
0.87674
  0
LINE
  8
0
 10
16.7976
 20
0.87674
 11
16.8271
 21
0.813461
  0
LINE
  8
0
 10
16.8271
 20
0.813461
 11
16.8544
 21
0.749207
  0
LINE
  8
0
 10
16.8544
 20
0.749207
 11
16.8794
 21
0.684036
  0
LINE
  8
0
 10
16.8794
 20
0.684036
 11
16.9021
 21
0.618027
  0
LINE
  8
0
 10
16.9021
 20
0.618027
 11
16.9225
 21
0.55127
  0
LINE
  8
0
 10
16.9225
 20
0.55127
 11
16.9406
 21
0.483841
  0
LINE
  8
0
 10
16.9406
 20
0.483841
 11
16.9563
 21
0.415817
  0
LINE
  8
0
 10
16.9563
 20
0.415817
 11
16.9696
 21
0.34729
  0
LINE
  8
0
 10
16.9696
 20
0.34729
 11
16.9805
 21
0.278336
  0
LINE
  8
0
 10
16.9805
 20
0.278336
 11
16.989
 21
0.209045
  0
LINE
  8
0
 10
16.989
 20
0.209045
 11
16.9951
 21
0.139511
  0
LINE
  8
0
 10
16.9951
 20
0.139511
 11
16.9988
 21
0.0697937
  0
LINE
  8
0
 10
16.9988
 20
0.0697937
 11
17
 21
0
  0
LINE
  8
0
 10
17
 20
0
 11
16.9988
 21
-0.0697937
  0
LINE
  8
0
 10
16.9988
 20
-0.0697937
 11
16.9951
 21
-0.139511
  0
LINE
  8
0
 10
16.9951
 20
-0.139511
 11
16.989
 21
-0.209045
  0
LINE
  8
0
 10
16.989
 20
-0.209045
 11
16.9805
 21
-0.278336
  0
LINE
  8
0
 10
16.9805
 20
-0.278336
 11
16.9696
 21
-0.34729
  0
LINE
  8
0
 10
16.9696
 20
-0.34729
 11
16.9563
 21
-0.415817
  0
LINE
  8
0
 10
16.9563
 20
-0.415817
 11
16.9406
 21
-0.483841
  0
LINE
  8
0
 10
16.9406
 20
-0.483841
 11
16.9225
 21
-0.55127
  0
LINE
  8
0
 10
16.9225
 20
-0.55127
 11
16.9021
 21
-0.618027
  0
LINE
  8
0
 10
16.9021
 20
-0.618027
 11
16.8794
 21
-0.684036
  0
LINE
  8
0
 10
16.8794
 20
-0.684036
 11
16.8544
 21
-0.749207
  0
LINE
  8
0
 10
16.8544
 20
-0.749207
 11
16.8271
 21
-0.813461
  0
LINE
  8
0
 10
16.8271
 20
-0.813461
 11
16.7976
 21
-0.87674
  0
LINE
  8
0
 10
16.7976
 20
-0.87674
 11
16.7659
 21
-0.938934
  0
LINE
  8
0
 10
16.7659
 20
-0.938934
 11
16.732
 21
-1
  0
LINE
  8
0
 10
16.732
 20
-1
 11
16.6961
 21
-1.05983
  0
LINE
  8
0
 10
16.6961
 20
-1.05983
 11
16.6581
 21
-1.11838
  0
LINE
  8
0
 10
16.6581
 20
-1.11838
 11
16.618
 21
-1.17557
  0
LINE
  8
0
 10
16.618
 20
-1.17557
 11
16.576
 21
-1.23131
  0
LINE
  8
0
 10
16.576
 20
-1.23131
 11
16.5321
 21
-1.28557
  0
LINE
  8
0
 10
16.5321
 20
-1.28557
 11
16.4863
 21
-1.33826
  0
LINE
  8
0
 10
16.4863
 20
-1.33826
 11
16.4387
 21
-1.38931
  0
LINE
  8
0
 10
16.4387
 20
-1.38931
 11
16.3893
 21
-1.43867
  0
LINE
  8
0
 10
16.3893
 20
-1.43867
 11
16.3383
 21
-1.48628
  0
LINE
  8
0
 10
16.3383
 20
-1.48628
 11
16.2856
 21
-1.53207
  0
LINE
  8
0
 10
16.2856
 20
-1.53207
 11
16.2313
 21
-1.57602
  0
LINE
  8
0
 10
16.2313
 20
-1.57602
 11
16.1756
 21
-1.61803
  0
LINE
  8
0
 10
16.1756
 20
-1.61803
 11
16.1184
 21
-1.65807
  0
LINE
  8
0
 10
16.1184
 20
-1.65807
 11
16.0598
 21
-1.69609
  0
LINE
  8
0
 10
16.0598
 20
-1.69609
 11
16
 21
-1.73204
  0
LINE
  8
0
 10
16
 20
-1.73204
 11
15.9389
 21
-1.76588
  0
LINE
  8
0
 10
15.9389
 20
-1.76588
 11
15.8767
 21
-1.79758
  0
LINE
  8
0
 10
15.8767
 20
-1.79758
 11
15.8135
 21
-1.82709
  0
LINE
  8
0
 10
15.8135
 20
-1.82709
 11
15.7492
 21
-1.85435
  0
LINE
  8
0
 10
15.7492
 20
-1.85435
 11
15.684
 21
-1.87938
  0
LINE
  8
0
 10
15.684
 20
-1.87938
 11
15.618
 21
-1.9021
  0
LINE
  8
0
 10
15.618
 20
-1.9021
 11
15.5513
 21
-1.92252
  0
LINE
  8
0
 10
15.5513
 20
-1.92252
 11
15.4838
 21
-1.94058
  0
LINE
  8
0
 10
15.4838
 20
-1.94058
 11
15.4158
 21
-1.95628
  0
LINE
  8
0
 10
15.4158
 20
-1.95628
 11
15.3473
 21
-1.9696
  0
LINE
  8
0
 10
15.3473
 20
-1.9696
 11
15.2783
 21
-1.98053
  0
LINE
  8
0
 10
15.2783
 20
-1.98053
 11
15.209
 21
-1.98903
  0
LINE
  8
0
 10
15.209
 20
-1.98903
 11
15.1395
 21
-1.99512
  0
LINE
  8
0
 10
15.1395
 20
-1.99512
 11
15.0698
 21
-1.99878
  0
LINE
  8
0
 10
15.0698
 20
-1.99878
 11
15
 21
-2
  0
LINE
  8
0
 10
15
 20
-2
 11
14.9302
 21
-1.99878
  0
LINE
  8
0
 10
316.944
 20
-1.59901
 11
316.833
 21
-1.59123
  0
LINE
  8
0
 10
316.833
 20
-1.59123
 11
316.722
 21
-1.57568
  0
LINE
  8
0
 10
316.722
 20
-1.57568
 11
316.613
 21
-1.55246
  0
LINE
  8
0
 10
316.613
 20
-1.55246
 11
316.506
 21
-1.52168
  0
LINE
  8
0
 10
316.506
 20
-1.52168
 11
316.401
 21
-1.48349
  0
LINE
  8
0
 10
316.401
 20
-1.48349
 11
316.299
 21
-1.43806
  0
LINE
  8
0
 10
316.299
 20
-1.43806
 11
316.2
 21
-1.38564
  0
LINE
  8
0
 10
316.2
 20
-1.38564
 11
316.105
 21
-1.32645
  0
LINE
  8
0
 10
316.105
 20
-1.32645
 11
316.015
 21
-1.2608
  0
LINE
  8
0
 10
316.015
 20
-1.2608
 11
315.929
 21
-1.18903
  0
LINE
  8
0
 10
315.929
 20
-1.18903
 11
315.849
 21
-1.11145
  0
LINE
  8
0
 10
315.849
 20
-1.11145
 11
315.774
 21
-1.02846
  0
LINE
  8
0
 10
315.774
 20
-1.02846
 11
315.706
 21
-0.940445
  0
LINE
  8
0
 10
315.706
 20
-0.940445
 11
315.643
 21
-0.84787
  0
LINE
  8
0
 10
315.643
 20
-0.84787
 11
315.587
 21
-0.751144
  0
LINE
  8
0
 10
315.587
 20
-0.751144
 11
315.538
 21
-0.650772
  0
LINE
  8
0
 10
315.538
 20
-0.650772
 11
315.496
 21
-0.547226
  0
LINE
  8
0
 10
315.496
 20
-0.547226
 11
315.462
 21
-0.44101
  0
LINE
  8
0
 10
315.462
 20
-0.44101
 11
315.435
 21
-0.332657
  0
LINE
  8
0
 10
315.435
 20
-0.332657
 11
315.416
 21
-0.222672
  0
LINE
  8
0
 10
315.416
 20
-0.222672
 11
315.404
 21
-0.111603
  0
LINE
  8
0
 10
315.404
 20
-0.111603
 11
315.4
 21
0
  0
LINE
  8
0
 10
315.4
 20
0
 11
315.404
 21
0.111603
  0
LINE
  8
0
 10
315.404
 20
0.111603
 11
315.416
 21
0.222672
  0
LINE
  8
0
 10
315.416
 20
0.222672
 11
315.435
 21
0.332657
  0
LINE
  8
0
 10
315.435
 20
0.332657
 11
315.462
 21
0.44101
  0
LINE
  8
0
 10
315.462
 20
0.44101
 11
315.496
 21
0.547226
  0
LINE
  8
0
 10
315.496
 20
0.547226
 11
315.538
 21
0.650772
  0
LINE
  8
0
 10
315.538
 20
0.650772
 11
315.587
 21
0.751144
  0
LINE
  8
0
 10
315.587
 20
0.751144
 11
315.643
 21
0.84787
  0
LINE
  8
0
 10
315.643
 20
0.84787
 11
315.706
 21
0.940445
  0
LINE
  8
0
 10
315.706
 20
0.940445
 11
315.774
 21
1.02846
  0
LINE
  8
0
 10
315.774
 20
1.02846
 11
315.849
 21
1.11145
  0
LINE
  8
0
 10
315.849
 20
1.11145
 11
315.929
 21
1.18903
  0
LINE
  8
0
 10
315.929
 20
1.18903
 11
316.015
 21
1.2608
  0
LINE
  8
0
 10
316.015
 20
1.2608
 11
316.105
 21
1.32645
  0
LINE
  8
0
 10
316.105
 20
1.32645
 11
316.2
 21
1.38564
  0
LINE
  8
0
 10
316.2
 20
1.38564
 11
316.299
 21
1.43806
  0
LINE
  8
0
 10
316.299
 20
1.43806
 11
316.401
 21
1.48349
  0
LINE
  8
0
 10
316.401
 20
1.48349
 11
316.506
 21
1.52168
  0
LINE
  8
0
 10
316.506
 20
1.52168
 11
316.613
 21
1.55246
  0
LINE
  8
0
 10
316.613
 20
1.55246
 11
316.722
 21
1.57568
  0
LINE
  8
0
 10
316.722
 20
1.57568
 11
316.833
 21
1.59123
  0
LINE
  8
0
 10
316.833
 20
1.59123
 11
316.944
 21
1.59901
  0
LINE
  8
0
 10
316.944
 20
1.59901
 11
319
 21
1.59999
  0
LINE
  8
0
 10
319
 20
1.59999
 11
319.112
 21
1.5961
  0
LINE
  8
0
 10
319.112
 20
1.5961
 11
319.223
 21
1.58443
  0
LINE
  8
0
 10
319.223
 20
1.58443
 11
319.333
 21
1.56503
  0
LINE
  8
0
 10
319.333
 20
1.56503
 11
319.441
 21
1.53801
  0
LINE
  8
0
 10
319.441
 20
1.53801
 11
319.547
 21
1.50349
  0
LINE
  8
0
 10
319.547
 20
1.50349
 11
319.651
 21
1.46167
  0
LINE
  8
0
 10
319.651
 20
1.46167
 11
319.751
 21
1.4127
  0
LINE
  8
0
 10
319.751
 20
1.4127
 11
319.848
 21
1.35687
  0
LINE
  8
0
 10
319.848
 20
1.35687
 11
319.94
 21
1.29442
  0
LINE
  8
0
 10
319.94
 20
1.29442
 11
320.028
 21
1.22566
  0
LINE
  8
0
 10
320.028
 20
1.22566
 11
320.111
 21
1.15094
  0
LINE
  8
0
 10
320.111
 20
1.15094
 11
320.189
 21
1.0706
  0
LINE
  8
0
 10
320.189
 20
1.0706
 11
320.261
 21
0.985046
  0
LINE
  8
0
 10
320.261
 20
0.985046
 11
320.326
 21
0.894699
  0
LINE
  8
0
 10
320.326
 20
0.894699
 11
320.386
 21
0.799988
  0
LINE
  8
0
 10
320.386
 20
0.799988
 11
320.438
 21
0.701385
  0
LINE
  8
0
 10
320.438
 20
0.701385
 11
320.483
 21
0.599365
  0
LINE
  8
0
 10
320.483
 20
0.599365
 11
320.522
 21
0.494415
  0
LINE
  8
0
 10
320.522
 20
0.494415
 11
320.552
 21
0.38707
  0
LINE
  8
0
 10
320.552
 20
0.38707
 11
320.576
 21
0.277832
  0
LINE
  8
0
 10
320.576
 20
0.277832
 11
320.591
 21
0.167236
  0
LINE
  8
0
 10
320.591
 20
0.167236
 11
320.599
 21
0.0558319
  0
LINE
  8
0
 10
320.599
 20
0.0558319
 11
320.599
 21
-0.0558319
  0
LINE
  8
0
 10
320.599
 20
-0.0558319
 11
320.591
 21
-0.167236
  0
LINE
  8
0
 10
320.591
 20
-0.167236
 11
320.576
 21
-0.277832
  0
LINE
  8
0
 10
320.576
 20
-0.277832
 11
320.552
 21
-0.38707
  0
LINE
  8
0
 10
320.552
 20
-0.38707
 11
320.522
 21
-0.494415
  0
LINE
  8
0
 10
320.522
 20
-0.494415
 11
320.483
 21
-0.599365
  0
LINE
  8
0
 10
320.483
 20
-0.599365
 11
320.438
 21
-0.701385
  0
LINE
  8
0
 10
320.438
 20
-0.701385
 11
320.386
 21
-0.799988
  0
LINE
  8
0
 10
320.386
 20
-0.799988
 11
320.326
 21
-0.894699
  0
LINE
  8
0
 10
320.326
 20
-0.894699
 11
320.261
 21
-0.985046
  0
LINE
  8
0
 10
320.261
 20
-0.985046
 11
320.189
 21
-1.0706
  0
LINE
  8
0
 10
320.189
 20
-1.0706
 11
320.111
 21
-1.15094
  0
LINE
  8
0
 10
320.111
 20
-1.15094
 11
320.028
 21
-1.22566
  0
LINE
  8
0
 10
320.028
 20
-1.22566
 11
319.94
 21
-1.29442
  0
LINE
  8
0
 10
319.94
 20
-1.29442
 11
319.848
 21
-1.35687
  0
LINE
  8
0
 10
319.848
 20
-1.35687
 11
319.751
 21
-1.4127
  0
LINE
  8
0
 10
319.751
 20
-1.4127
 11
319.651
 21
-1.46167
  0
LINE
  8
0
 10
319.651
 20
-1.46167
 11
319.547
 21
-1.50349
  0
LINE
  8
0
 10
319.547
 20
-1.50349
 11
319.441
 21
-1.53801
  0
LINE
  8
0
 10
319.441
 20
-1.53801
 11
319.333
 21
-1.56503
  0
LINE
  8
0
 10
319.333
 20
-1.56503
 11
319.223
 21
-1.58443
  0
LINE
  8
0
 10
319.223
 20
-1.58443
 11
319.112
 21
-1.5961
  0
LINE
  8
0
 10
319.112
 20
-1.5961
 11
319
 21
-1.59999
  0
LINE
  8
0
 10
319
 20
-1.59999
 11
316.944
 21
-1.59901
  0
LINE
  8
0
 10
15
 20
-9.09999
 11
14.8884
 21
-9.0961
  0
LINE
  8
0
 10
14.8884
 20
-9.0961
 11
14.7773
 21
-9.08443
  0
LINE
  8
0
 10
14.7773
 20
-9.08443
 11
14.6673
 21
-9.06503
  0
LINE
  8
0
 10
14.6673
 20
-9.06503
 11
14.559
 21
-9.03801
  0
LINE
  8
0
 10
14.559
 20
-9.03801
 11
14.4528
 21
-9.00349
  0
LINE
  8
0
 10
14.4528
 20
-9.00349
 11
14.3492
 21
-8.96167
  0
LINE
  8
0
 10
14.3492
 20
-8.96167
 11
14.2488
 21
-8.9127
  0
LINE
  8
0
 10
14.2488
 20
-8.9127
 11
14.1521
 21
-8.85687
  0
LINE
  8
0
 10
14.1521
 20
-8.85687
 11
14.0595
 21
-8.79442
  0
LINE
  8
0
 10
14.0595
 20
-8.79442
 11
13.9715
 21
-8.72566
  0
LINE
  8
0
 10
13.9715
 20
-8.72566
 11
13.8885
 21
-8.65094
  0
LINE
  8
0
 10
13.8885
 20
-8.65094
 11
13.811
 21
-8.5706
  0
LINE
  8
0
 10
13.811
 20
-8.5706
 11
13.7392
 21
-8.48505
  0
LINE
  8
0
 10
13.7392
 20
-8.48505
 11
13.6735
 21
-8.3947
  0
LINE
  8
0
 10
13.6735
 20
-8.3947
 11
13.6143
 21
-8.29999
  0
LINE
  8
0
 10
13.6143
 20
-8.29999
 11
13.5619
 21
-8.20139
  0
LINE
  8
0
 10
13.5619
 20
-8.20139
 11
13.5165
 21
-8.09937
  0
LINE
  8
0
 10
13.5165
 20
-8.09937
 11
13.4783
 21
-7.99442
  0
LINE
  8
0
 10
13.4783
 20
-7.99442
 11
13.4475
 21
-7.88707
  0
LINE
  8
0
 10
13.4475
 20
-7.88707
 11
13.4243
 21
-7.77783
  0
LINE
  8
0
 10
13.4243
 20
-7.77783
 11
13.4088
 21
-7.66724
  0
LINE
  8
0
 10
13.4088
 20
-7.66724
 11
13.401
 21
-7.55583
  0
LINE
  8
0
 10
13.401
 20
-7.55583
 11
13.401
 21
-7.44415
  0
LINE
  8
0
 10
13.401
 20
-7.44415
 11
13.4088
 21
-7.33275
  0
LINE
  8
0
 10
13.4088
 20
-7.33275
 11
13.4243
 21
-7.22215
  0
LINE
  8
0
 10
13.4243
 20
-7.22215
 11
13.4475
 21
-7.11292
  0
LINE
  8
0
 10
13.4475
 20
-7.11292
 11
13.4783
 21
-7.00557
  0
LINE
  8
0
 10
13.4783
 20
-7.00557
 11
13.5165
 21
-6.90062
  0
LINE
  8
0
 10
13.5165
 20
-6.90062
 11
13.5619
 21
-6.7986
  0
LINE
  8
0
 10
13.5619
 20
-6.7986
 11
13.6143
 21
-6.7
  0
LINE
  8
0
 10
13.6143
 20
-6.7
 11
13.6735
 21
-6.60529
  0
LINE
  8
0
 10
13.6735
 20
-6.60529
 11
13.7392
 21
-6.51494
  0
LINE
  8
0
 10
13.7392
 20
-6.51494
 11
13.811
 21
-6.42938
  0
LINE
  8
0
 10
13.811
 20
-6.42938
 11
13.8885
 21
-6.34904
  0
LINE
  8
0
 10
13.8885
 20
-6.34904
 11
13.9715
 21
-6.27432
  0
LINE
  8
0
 10
13.9715
 20
-6.27432
 11
14.0595
 21
-6.20557
  0
LINE
  8
0
 10
14.0595
 20
-6.20557
 11
14.1521
 21
-6.14311
  0
LINE
  8
0
 10
14.1521
 20
-6.14311
 11
14.2488
 21
-6.08728
  0
LINE
  8
0
 10
14.2488
 20
-6.08728
 11
14.3492
 21
-6.03831
  0
LINE
  8
0
 10
14.3492
 20
-6.03831
 11
14.4528
 21
-5.99649
  0
LINE
  8
0
 10
14.4528
 20
-5.99649
 11
14.559
 21
-5.96198
  0
LINE
  8
0
 10
14.559
 20
-5.96198
 11
14.6673
 21
-5.93495
  0
LINE
  8
0
 10
14.6673
 20
-5.93495
 11
14.7773
 21
-5.91556
  0
LINE
  8
0
 10
14.7773
 20
-5.91556
 11
14.8884
 21
-5.90388
  0
LINE
  8
0
 10
14.8884
 20
-5.90388
 11
15
 21
-5.89999
  0
LINE
  8
0
 10
15
 20
-5.89999
 11
15.1116
 21
-5.90388
  0
LINE
  8
0
 10
15.1116
 20
-5.90388
 11
15.2227
 21
-5.91556
  0
LINE
  8
0
 10
15.2227
 20
-5.91556
 11
15.3327
 21
-5.93495
  0
LINE
  8
0
 10
15.3327
 20
-5.93495
 11
15.441
 21
-5.96198
  0
LINE
  8
0
 10
15.441
 20
-5.96198
 11
15.5472
 21
-5.99649
  0
LINE
  8
0
 10
15.5472
 20
-5.99649
 11
15.6508
 21
-6.03831
  0
LINE
  8
0
 10
15.6508
 20
-6.03831
 11
15.7511
 21
-6.08728
  0
LINE
  8
0
 10
15.7511
 20
-6.08728
 11
15.8479
 21
-6.14311
  0
LINE
  8
0
 10
15.8479
 20
-6.14311
 11
15.9404
 21
-6.20557
  0
LINE
  8
0
 10
15.9404
 20
-6.20557
 11
16.0285
 21
-6.27432
  0
LINE
  8
0
 10
16.0285
 20
-6.27432
 11
16.1115
 21
-6.34904
  0
LINE
  8
0
 10
16.1115
 20
-6.34904
 11
16.189
 21
-6.42938
  0
LINE
  8
0
 10
16.189
 20
-6.42938
 11
16.2608
 21
-6.51494
  0
LINE
  8
0
 10
16.2608
 20
-6.51494
 11
16.3264
 21
-6.60529
  0
LINE
  8
0
 10
16.3264
 20
-6.60529
 11
16.3856
 21
-6.7
  0
LINE
  8
0
 10
16.3856
 20
-6.7
 11
16.4381
 21
-6.7986
  0
LINE
  8
0
 10
16.4381
 20
-6.7986
 11
16.4835
 21
-6.90062
  0
LINE
  8
0
 10
16.4835
 20
-6.90062
 11
16.5217
 21
-7.00557
  0
LINE
  8
0
 10
16.5217
 20
-7.00557
 11
16.5525
 21
-7.11292
  0
LINE
  8
0
 10
16.5525
 20
-7.11292
 11
16.5757
 21
-7.22215
  0
LINE
  8
0
 10
16.5757
 20
-7.22215
 11
16.5912
 21
-7.33275
  0
LINE
  8
0
 10
16.5912
 20
-7.33275
 11
16.599
 21
-7.44415
  0
LINE
  8
0
 10
16.599
 20
-7.44415
 11
16.599
 21
-7.55583
  0
LINE
  8
0
 10
16.599
 20
-7.55583
 11
16.5912
 21
-7.66724
  0
LINE
  8
0
 10
16.5912
 20
-7.66724
 11
16.5757
 21
-7.77783
  0
LINE
  8
0
 10
16.5757
 20
-7.77783
 11
16.5525
 21
-7.88707
  0
LINE
  8
0
 10
16.5525
 20
-7.88707
 11
16.5217
 21
-7.99442
  0
LINE
  8
0
 10
16.5217
 20
-7.99442
 11
16.4835
 21
-8.09937
  0
LINE
  8
0
 10
16.4835
 20
-8.09937
 11
16.4381
 21
-8.20139
  0
LINE
  8
0
 10
16.4381
 20
-8.20139
 11
16.3856
 21
-8.29999
  0
LINE
  8
0
 10
16.3856
 20
-8.29999
 11
16.3264
 21
-8.3947
  0
LINE
  8
0
 10
16.3264
 20
-8.3947
 11
16.2608
 21
-8.48505
  0
LINE
  8
0
 10
16.2608
 20
-8.48505
 11
16.189
 21
-8.5706
  0
LINE
  8
0
 10
16.189
 20
-8.5706
 11
16.1115
 21
-8.65094
  0
LINE
  8
0
 10
16.1115
 20
-8.65094
 11
16.0285
 21
-8.72566
  0
LINE
  8
0
 10
16.0285
 20
-8.72566
 11
15.9404
 21
-8.79442
  0
LINE
  8
0
 10
15.9404
 20
-8.79442
 11
15.8479
 21
-8.85687
  0
LINE
  8
0
 10
15.8479
 20
-8.85687
 11
15.7511
 21
-8.9127
  0
LINE
  8
0
 10
15.7511
 20
-8.9127
 11
15.6508
 21
-8.96167
  0
LINE
  8
0
 10
15.6508
 20
-8.96167
 11
15.5472
 21
-9.00349
  0
LINE
  8
0
 10
15.5472
 20
-9.00349
 11
15.441
 21
-9.03801
  0
LINE
  8
0
 10
15.441
 20
-9.03801
 11
15.3327
 21
-9.06503
  0
LINE
  8
0
 10
15.3327
 20
-9.06503
 11
15.2227
 21
-9.08443
  0
LINE
  8
0
 10
15.2227
 20
-9.08443
 11
15.1116
 21
-9.0961
  0
LINE
  8
0
 10
15.1116
 20
-9.0961
 11
15
 21
-9.09999
  0
LINE
  8
0
 10
295.944
 20
-13.7234
 11
295.833
 21
-13.7156
  0
LINE
  8
0
 10
295.833
 20
-13.7156
 11
295.722
 21
-13.7
  0
LINE
  8
0
 10
295.722
 20
-13.7
 11
295.613
 21
-13.6768
  0
LINE
  8
0
 10
295.613
 20
-13.6768
 11
295.506
 21
-13.646
  0
LINE
  8
0
 10
295.506
 20
-13.646
 11
295.401
 21
-13.6078
  0
LINE
  8
0
 10
295.401
 20
-13.6078
 11
295.299
 21
-13.5624
  0
LINE
  8
0
 10
295.299
 20
-13.5624
 11
295.2
 21
-13.51
  0
LINE
  8
0
 10
295.2
 20
-13.51
 11
295.105
 21
-13.4508
  0
LINE
  8
0
 10
295.105
 20
-13.4508
 11
295.015
 21
-13.3852
  0
LINE
  8
0
 10
295.015
 20
-13.3852
 11
294.929
 21
-13.3134
  0
LINE
  8
0
 10
294.929
 20
-13.3134
 11
294.849
 21
-13.2358
  0
LINE
  8
0
 10
294.849
 20
-13.2358
 11
294.774
 21
-13.1528
  0
LINE
  8
0
 10
294.774
 20
-13.1528
 11
294.706
 21
-13.0648
  0
LINE
  8
0
 10
294.706
 20
-13.0648
 11
294.643
 21
-12.9722
  0
LINE
  8
0
 10
294.643
 20
-12.9722
 11
294.587
 21
-12.8755
  0
LINE
  8
0
 10
294.587
 20
-12.8755
 11
294.538
 21
-12.7751
  0
LINE
  8
0
 10
294.538
 20
-12.7751
 11
294.497
 21
-12.6716
  0
LINE
  8
0
 10
294.497
 20
-12.6716
 11
294.462
 21
-12.5654
  0
LINE
  8
0
 10
294.462
 20
-12.5654
 11
294.435
 21
-12.457
  0
LINE
  8
0
 10
294.435
 20
-12.457
 11
294.416
 21
-12.347
  0
LINE
  8
0
 10
294.416
 20
-12.347
 11
294.404
 21
-12.236
  0
LINE
  8
0
 10
294.404
 20
-12.236
 11
294.4
 21
-12.1243
  0
LINE
  8
0
 10
294.4
 20
-12.1243
 11
294.404
 21
-12.0127
  0
LINE
  8
0
 10
294.404
 20
-12.0127
 11
294.416
 21
-11.9017
  0
LINE
  8
0
 10
294.416
 20
-11.9017
 11
294.435
 21
-11.7917
  0
LINE
  8
0
 10
294.435
 20
-11.7917
 11
294.462
 21
-11.6833
  0
LINE
  8
0
 10
294.462
 20
-11.6833
 11
294.497
 21
-11.5771
  0
LINE
  8
0
 10
294.497
 20
-11.5771
 11
294.538
 21
-11.4736
  0
LINE
  8
0
 10
294.538
 20
-11.4736
 11
294.587
 21
-11.3732
  0
LINE
  8
0
 10
294.587
 20
-11.3732
 11
294.643
 21
-11.2765
  0
LINE
  8
0
 10
294.643
 20
-11.2765
 11
294.706
 21
-11.1839
  0
LINE
  8
0
 10
294.706
 20
-11.1839
 11
294.774
 21
-11.0959
  0
LINE
  8
0
 10
294.774
 20
-11.0959
 11
294.849
 21
-11.0129
  0
LINE
  8
0
 10
294.849
 20
-11.0129
 11
294.929
 21
-10.9353
  0
LINE
  8
0
 10
294.929
 20
-10.9353
 11
295.015
 21
-10.8635
  0
LINE
  8
0
 10
295.015
 20
-10.8635
 11
295.105
 21
-10.7979
  0
LINE
  8
0
 10
295.105
 20
-10.7979
 11
295.2
 21
-10.7387
  0
LINE
  8
0
 10
295.2
 20
-10.7387
 11
295.299
 21
-10.6863
  0
LINE
  8
0
 10
295.299
 20
-10.6863
 11
295.401
 21
-10.6409
  0
LINE
  8
0
 10
295.401
 20
-10.6409
 11
295.506
 21
-10.6027
  0
LINE
  8
0
 10
295.506
 20
-10.6027
 11
295.613
 21
-10.5719
  0
LINE
  8
0
 10
295.613
 20
-10.5719
 11
295.722
 21
-10.5487
  0
LINE
  8
0
 10
295.722
 20
-10.5487
 11
295.833
 21
-10.5331
  0
LINE
  8
0
 10
295.833
 20
-10.5331
 11
295.944
 21
-10.5253
  0
LINE
  8
0
 10
295.944
 20
-10.5253
 11
298
 21
-10.5244
  0
LINE
  8
0
 10
298
 20
-10.5244
 11
298.112
 21
-10.5282
  0
LINE
  8
0
 10
298.112
 20
-10.5282
 11
298.223
 21
-10.5399
  0
LINE
  8
0
 10
298.223
 20
-10.5399
 11
298.333
 21
-10.5593
  0
LINE
  8
0
 10
298.333
 20
-10.5593
 11
298.441
 21
-10.5863
  0
LINE
  8
0
 10
298.441
 20
-10.5863
 11
298.547
 21
-10.6208
  0
LINE
  8
0
 10
298.547
 20
-10.6208
 11
298.651
 21
-10.6627
  0
LINE
  8
0
 10
298.651
 20
-10.6627
 11
298.751
 21
-10.7116
  0
LINE
  8
0
 10
298.751
 20
-10.7116
 11
298.848
 21
-10.7675
  0
LINE
  8
0
 10
298.848
 20
-10.7675
 11
298.94
 21
-10.8299
  0
LINE
  8
0
 10
298.94
 20
-10.8299
 11
299.028
 21
-10.8987
  0
LINE
  8
0
 10
299.028
 20
-10.8987
 11
299.111
 21
-10.9734
  0
LINE
  8
0
 10
299.111
 20
-10.9734
 11
299.189
 21
-11.0537
  0
LINE
  8
0
 10
299.189
 20
-11.0537
 11
299.261
 21
-11.1393
  0
LINE
  8
0
 10
299.261
 20
-11.1393
 11
299.326
 21
-11.2296
  0
LINE
  8
0
 10
299.326
 20
-11.2296
 11
299.386
 21
-11.3243
  0
LINE
  8
0
 10
299.386
 20
-11.3243
 11
299.438
 21
-11.423
  0
LINE
  8
0
 10
299.438
 20
-11.423
 11
299.484
 21
-11.525
  0
LINE
  8
0
 10
299.484
 20
-11.525
 11
299.522
 21
-11.6299
  0
LINE
  8
0
 10
299.522
 20
-11.6299
 11
299.552
 21
-11.7373
  0
LINE
  8
0
 10
299.552
 20
-11.7373
 11
299.576
 21
-11.8465
  0
LINE
  8
0
 10
299.576
 20
-11.8465
 11
299.591
 21
-11.9571
  0
LINE
  8
0
 10
299.591
 20
-11.9571
 11
299.599
 21
-12.0685
  0
LINE
  8
0
 10
299.599
 20
-12.0685
 11
299.599
 21
-12.1802
  0
LINE
  8
0
 10
299.599
 20
-12.1802
 11
299.591
 21
-12.2916
  0
LINE
  8
0
 10
299.591
 20
-12.2916
 11
299.576
 21
-12.4022
  0
LINE
  8
0
 10
299.576
 20
-12.4022
 11
299.552
 21
-12.5114
  0
LINE
  8
0
 10
299.552
 20
-12.5114
 11
299.522
 21
-12.6188
  0
LINE
  8
0
 10
299.522
 20
-12.6188
 11
299.484
 21
-12.7237
  0
LINE
  8
0
 10
299.484
 20
-12.7237
 11
299.438
 21
-12.8257
  0
LINE
  8
0
 10
299.438
 20
-12.8257
 11
299.386
 21
-12.9243
  0
LINE
  8
0
 10
299.386
 20
-12.9243
 11
299.326
 21
-13.0191
  0
LINE
  8
0
 10
299.326
 20
-13.0191
 11
299.261
 21
-13.1094
  0
LINE
  8
0
 10
299.261
 20
-13.1094
 11
299.189
 21
-13.195
  0
LINE
  8
0
 10
299.189
 20
-13.195
 11
299.111
 21
-13.2753
  0
LINE
  8
0
 10
299.111
 20
-13.2753
 11
299.028
 21
-13.35
  0
LINE
  8
0
 10
299.028
 20
-13.35
 11
298.94
 21
-13.4188
  0
LINE
  8
0
 10
298.94
 20
-13.4188
 11
298.848
 21
-13.4812
  0
LINE
  8
0
 10
298.848
 20
-13.4812
 11
298.751
 21
-13.5371
  0
LINE
  8
0
 10
298.751
 20
-13.5371
 11
298.651
 21
-13.586
  0
LINE
  8
0
 10
298.651
 20
-13.586
 11
298.547
 21
-13.6279
  0
LINE
  8
0
 10
298.547
 20
-13.6279
 11
298.441
 21
-13.6624
  0
LINE
  8
0
 10
298.441
 20
-13.6624
 11
298.333
 21
-13.6894
  0
LINE
  8
0
 10
298.333
 20
-13.6894
 11
298.223
 21
-13.7088
  0
LINE
  8
0
 10
298.223
 20
-13.7088
 11
298.112
 21
-13.7204
  0
LINE
  8
0
 10
298.112
 20
-13.7204
 11
298
 21
-13.7243
  0
LINE
  8
0
 10
298
 20
-13.7243
 11
295.944
 21
-13.7234
  0
LINE
  8
0
 10
151.93
 20
-25.9988
 11
151.86
 21
-25.9951
  0
LINE
  8
0
 10
151.86
 20
-25.9951
 11
151.791
 21
-25.989
  0
LINE
  8
0
 10
151.791
 20
-25.989
 11
151.722
 21
-25.9805
  0
LINE
  8
0
 10
151.722
 20
-25.9805
 11
151.653
 21
-25.9696
  0
LINE
  8
0
 10
151.653
 20
-25.9696
 11
151.584
 21
-25.9563
  0
LINE
  8
0
 10
151.584
 20
-25.9563
 11
151.516
 21
-25.9406
  0
LINE
  8
0
 10
151.516
 20
-25.9406
 11
151.449
 21
-25.9225
  0
LINE
  8
0
 10
151.449
 20
-25.9225
 11
151.382
 21
-25.9021
  0
LINE
  8
0
 10
151.382
 20
-25.9021
 11
151.316
 21
-25.8794
  0
LINE
  8
0
 10
151.316
 20
-25.8794
 11
151.251
 21
-25.8544
  0
LINE
  8
0
 10
151.251
 20
-25.8544
 11
151.187
 21
-25.8271
  0
LINE
  8
0
 10
151.187
 20
-25.8271
 11
151.123
 21
-25.7976
  0
LINE
  8
0
 10
151.123
 20
-25.7976
 11
151.061
 21
-25.7659
  0
LINE
  8
0
 10
151.061
 20
-25.7659
 11
151
 21
-25.732
  0
LINE
  8
0
 10
151
 20
-25.732
 11
150.94
 21
-25.6961
  0
LINE
  8
0
 10
150.94
 20
-25.6961
 11
150.882
 21
-25.6581
  0
LINE
  8
0
 10
150.882
 20
-25.6581
 11
150.824
 21
-25.618
  0
LINE
  8
0
 10
150.824
 20
-25.618
 11
150.769
 21
-25.576
  0
LINE
  8
0
 10
150.769
 20
-25.576
 11
150.714
 21
-25.5321
  0
LINE
  8
0
 10
150.714
 20
-25.5321
 11
150.662
 21
-25.4863
  0
LINE
  8
0
 10
150.662
 20
-25.4863
 11
150.611
 21
-25.4387
  0
LINE
  8
0
 10
150.611
 20
-25.4387
 11
150.561
 21
-25.3893
  0
LINE
  8
0
 10
150.561
 20
-25.3893
 11
150.514
 21
-25.3383
  0
LINE
  8
0
 10
150.514
 20
-25.3383
 11
150.468
 21
-25.2856
  0
LINE
  8
0
 10
150.468
 20
-25.2856
 11
150.424
 21
-25.2313
  0
LINE
  8
0
 10
150.424
 20
-25.2313
 11
150.382
 21
-25.1756
  0
LINE
  8
0
 10
150.382
 20
-25.1756
 11
150.342
 21
-25.1184
  0
LINE
  8
0
 10
150.342
 20
-25.1184
 11
150.304
 21
-25.0598
  0
LINE
  8
0
 10
150.304
 20
-25.0598
 11
150.268
 21
-25
  0
LINE
  8
0
 10
150.268
 20
-25
 11
150.234
 21
-24.9389
  0
LINE
  8
0
 10
150.234
 20
-24.9389
 11
150.202
 21
-24.8767
  0
LINE
  8
0
 10
150.202
 20
-24.8767
 11
150.173
 21
-24.8135
  0
LINE
  8
0
 10
150.173
 20
-24.8135
 11
150.146
 21
-24.7492
  0
LINE
  8
0
 10
150.146
 20
-24.7492
 11
150.121
 21
-24.684
  0
LINE
  8
0
 10
150.121
 20
-24.684
 11
150.098
 21
-24.618
  0
LINE
  8
0
 10
150.098
 20
-24.618
 11
150.077
 21
-24.5513
  0
LINE
  8
0
 10
150.077
 20
-24.5513
 11
150.059
 21
-24.4838
  0
LINE
  8
0
 10
150.059
 20
-24.4838
 11
150.044
 21
-24.4158
  0
LINE
  8
0
 10
150.044
 20
-24.4158
 11
150.03
 21
-24.3473
  0
LINE
  8
0
 10
150.03
 20
-24.3473
 11
150.019
 21
-24.2783
  0
LINE
  8
0
 10
150.019
 20
-24.2783
 11
150.011
 21
-24.209
  0
LINE
  8
0
 10
150.011
 20
-24.209
 11
150.005
 21
-24.1395
  0
LINE
  8
0
 10
150.005
 20
-24.1395
 11
150.001
 21
-24.0698
  0
LINE
  8
0
 10
150.001
 20
-24.0698
 11
150
 21
-24
  0
LINE
  8
0
 10
150
 20
-24
 11
150.001
 21
-23.9302
  0
LINE
  8
0
 10
150.001
 20
-23.9302
 11
150.005
 21
-23.8605
  0
LINE
  8
0
 10
150.005
 20
-23.8605
 11
150.011
 21
-23.7909
  0
LINE
  8
0
 10
150.011
 20
-23.7909
 11
150.019
 21
-23.7216
  0
LINE
  8
0
 10
150.019
 20
-23.7216
 11
150.03
 21
-23.6527
  0
LINE
  8
0
 10
150.03
 20
-23.6527
 11
150.044
 21
-23.5842
  0
LINE
  8
0
 10
150.044
 20
-23.5842
 11
150.059
 21
-23.5161
  0
LINE
  8
0
 10
150.059
 20
-23.5161
 11
150.077
 21
-23.4487
  0
LINE
  8
0
 10
150.077
 20
-23.4487
 11
150.098
 21
-23.382
  0
LINE
  8
0
 10
150.098
 20
-23.382
 11
150.121
 21
-23.3159
  0
LINE
  8
0
 10
150.121
 20
-23.3159
 11
150.146
 21
-23.2508
  0
LINE
  8
0
 10
150.146
 20
-23.2508
 11
150.173
 21
-23.1865
  0
LINE
  8
0
 10
150.173
 20
-23.1865
 11
150.202
 21
-23.1232
  0
LINE
  8
0
 10
150.202
 20
-23.1232
 11
150.234
 21
-23.0611
  0
LINE
  8
0
 10
150.234
 20
-23.0611
 11
150.268
 21
-23
  0
LINE
  8
0
 10
150.268
 20
-23
 11
150.304
 21
-22.9402
  0
LINE
  8
0
 10
150.304
 20
-22.9402
 11
150.342
 21
-22.8816
  0
LINE
  8
0
 10
150.342
 20
-22.8816
 11
150.382
 21
-22.8244
  0
LINE
  8
0
 10
150.382
 20
-22.8244
 11
150.424
 21
-22.7687
  0
LINE
  8
0
 10
150.424
 20
-22.7687
 11
150.468
 21
-22.7144
  0
LINE
  8
0
 10
150.468
 20
-22.7144
 11
150.514
 21
-22.6617
  0
LINE
  8
0
 10
150.514
 20
-22.6617
 11
150.561
 21
-22.6107
  0
LINE
  8
0
 10
150.561
 20
-22.6107
 11
150.611
 21
-22.5613
  0
LINE
  8
0
 10
150.611
 20
-22.5613
 11
150.662
 21
-22.5137
  0
LINE
  8
0
 10
150.662
 20
-22.5137
 11
150.714
 21
-22.4679
  0
LINE
  8
0
 10
150.714
 20
-22.4679
 11
150.769
 21
-22.424
  0
LINE
  8
0
 10
150.769
 20
-22.424
 11
150.824
 21
-22.382
  0
LINE
  8
0
 10
150.824
 20
-22.382
 11
150.882
 21
-22.3419
  0
LINE
  8
0
 10
150.882
 20
-22.3419
 11
150.94
 21
-22.3039
  0
LINE
  8
0
 10
150.94
 20
-22.3039
 11
151
 21
-22.2679
  0
LINE
  8
0
 10
151
 20
-22.2679
 11
151.061
 21
-22.2341
  0
LINE
  8
0
 10
151.061
 20
-22.2341
 11
151.123
 21
-22.2024
  0
LINE
  8
0
 10
151.123
 20
-22.2024
 11
151.187
 21
-22.1729
  0
LINE
  8
0
 10
151.187
 20
-22.1729
 11
151.251
 21
-22.1456
  0
LINE
  8
0
 10
151.251
 20
-22.1456
 11
151.316
 21
-22.1206
  0
LINE
  8
0
 10
151.316
 20
-22.1206
 11
151.382
 21
-22.0979
  0
LINE
  8
0
 10
151.382
 20
-22.0979
 11
151.449
 21
-22.0775
  0
LINE
  8
0
 10
151.449
 20
-22.0775
 11
151.516
 21
-22.0594
  0
LINE
  8
0
 10
151.516
 20
-22.0594
 11
151.584
 21
-22.0437
  0
LINE
  8
0
 10
151.584
 20
-22.0437
 11
151.653
 21
-22.0304
  0
LINE
  8
0
 10
151.653
 20
-22.0304
 11
151.722
 21
-22.0195
  0
LINE
  8
0
 10
151.722
 20
-22.0195
 11
151.791
 21
-22.011
  0
LINE
  8
0
 10
151.791
 20
-22.011
 11
151.86
 21
-22.0049
  0
LINE
  8
0
 10
151.86
 20
-22.0049
 11
151.93
 21
-22.0012
  0
LINE
  8
0
 10
151.93
 20
-22.0012
 11
152
 21
-22
  0
LINE
  8
0
 10
152
 20
-22
 11
152.07
 21
-22.0012
  0
LINE
  8
0
 10
152.07
 20
-22.0012
 11
152.14
 21
-22.0049
  0
LINE
  8
0
 10
152.14
 20
-22.0049
 11
152.209
 21
-22.011
  0
LINE
  8
0
 10
152.209
 20
-22.011
 11
152.278
 21
-22.0195
  0
LINE
  8
0
 10
152.278
 20
-22.0195
 11
152.347
 21
-22.0304
  0
LINE
  8
0
 10
152.347
 20
-22.0304
 11
152.416
 21
-22.0437
  0
LINE
  8
0
 10
152.416
 20
-22.0437
 11
152.484
 21
-22.0594
  0
LINE
  8
0
 10
152.484
 20
-22.0594
 11
152.551
 21
-22.0775
  0
LINE
  8
0
 10
152.551
 20
-22.0775
 11
152.618
 21
-22.0979
  0
LINE
  8
0
 10
152.618
 20
-22.0979
 11
152.684
 21
-22.1206
  0
LINE
  8
0
 10
152.684
 20
-22.1206
 11
152.749
 21
-22.1456
  0
LINE
  8
0
 10
152.749
 20
-22.1456
 11
152.813
 21
-22.1729
  0
LINE
  8
0
 10
152.813
 20
-22.1729
 11
152.877
 21
-22.2024
  0
LINE
  8
0
 10
152.877
 20
-22.2024
 11
152.939
 21
-22.2341
  0
LINE
  8
0
 10
152.939
 20
-22.2341
 11
153
 21
-22.2679
  0
LINE
  8
0
 10
153
 20
-22.2679
 11
153.06
 21
-22.3039
  0
LINE
  8
0
 10
153.06
 20
-22.3039
 11
153.118
 21
-22.3419
  0
LINE
  8
0
 10
153.118
 20
-22.3419
 11
153.176
 21
-22.382
  0
LINE
  8
0
 10
153.176
 20
-22.382
 11
153.231
 21
-22.424
  0
LINE
  8
0
 10
153.231
 20
-22.424
 11
153.286
 21
-22.4679
  0
LINE
  8
0
 10
153.286
 20
-22.4679
 11
153.338
 21
-22.5137
  0
LINE
  8
0
 10
153.338
 20
-22.5137
 11
153.389
 21
-22.5613
  0
LINE
  8
0
 10
153.389
 20
-22.5613
 11
153.439
 21
-22.6107
  0
LINE
  8
0
 10
153.439
 20
-22.6107
 11
153.486
 21
-22.6617
  0
LINE
  8
0
 10
153.486
 20
-22.6617
 11
153.532
 21
-22.7144
  0
LINE
  8
0
 10
153.532
 20
-22.7144
 11
153.576
 21
-22.7687
  0
LINE
  8
0
 10
153.576
 20
-22.7687
 11
153.618
 21
-22.8244
  0
LINE
  8
0
 10
153.618
 20
-22.8244
 11
153.658
 21
-22.8816
  0
LINE
  8
0
 10
153.658
 20
-22.8816
 11
153.696
 21
-22.9402
  0
LINE
  8
0
 10
153.696
 20
-22.9402
 11
153.732
 21
-23
  0
LINE
  8
0
 10
153.732
 20
-23
 11
153.766
 21
-23.0611
  0
LINE
  8
0
 10
153.766
 20
-23.0611
 11
153.798
 21
-23.1232
  0
LINE
  8
0
 10
153.798
 20
-23.1232
 11
153.827
 21
-23.1865
  0
LINE
  8
0
 10
153.827
 20
-23.1865
 11
153.854
 21
-23.2508
  0
LINE
  8
0
 10
153.854
 20
-23.2508
 11
153.879
 21
-23.3159
  0
LINE
  8
0
 10
153.879
 20
-23.3159
 11
153.902
 21
-23.382
  0
LINE
  8
0
 10
153.902
 20
-23.382
 11
153.923
 21
-23.4487
  0
LINE
  8
0
 10
153.923
 20
-23.4487
 11
153.941
 21
-23.5161
  0
LINE
  8
0
 10
153.941
 20
-23.5161
 11
153.956
 21
-23.5842
  0
LINE
  8
0
 10
153.956
 20
-23.5842
 11
153.97
 21
-23.6527
  0
LINE
  8
0
 10
153.97
 20
-23.6527
 11
153.981
 21
-23.7216
  0
LINE
  8
0
 10
153.981
 20
-23.7216
 11
153.989
 21
-23.7909
  0
LINE
  8
0
 10
153.989
 20
-23.7909
 11
153.995
 21
-23.8605
  0
LINE
  8
0
 10
153.995
 20
-23.8605
 11
153.999
 21
-23.9302
  0
LINE
  8
0
 10
153.999
 20
-23.9302
 11
154
 21
-24
  0
LINE
  8
0
 10
154
 20
-24
 11
153.999
 21
-24.0698
  0
LINE
  8
0
 10
153.999
 20
-24.0698
 11
153.995
 21
-24.1395
  0
LINE
  8
0
 10
153.995
 20
-24.1395
 11
153.989
 21
-24.209
  0
LINE
  8
0
 10
153.989
 20
-24.209
 11
153.981
 21
-24.2783
  0
LINE
  8
0
 10
153.981
 20
-24.2783
 11
153.97
 21
-24.3473
  0
LINE
  8
0
 10
153.97
 20
-24.3473
 11
153.956
 21
-24.4158
  0
LINE
  8
0
 10
153.956
 20
-24.4158
 11
153.941
 21
-24.4838
  0
LINE
  8
0
 10
153.941
 20
-24.4838
 11
153.923
 21
-24.5513
  0
LINE
  8
0
 10
153.923
 20
-24.5513
 11
153.902
 21
-24.618
  0
LINE
  8
0
 10
153.902
 20
-24.618
 11
153.879
 21
-24.684
  0
LINE
  8
0
 10
153.879
 20
-24.684
 11
153.854
 21
-24.7492
  0
LINE
  8
0
 10
153.854
 20
-24.7492
 11
153.827
 21
-24.8135
  0
LINE
  8
0
 10
153.827
 20
-24.8135
 11
153.798
 21
-24.8767
  0
LINE
  8
0
 10
153.798
 20
-24.8767
 11
153.766
 21
-24.9389
  0
LINE
  8
0
 10
153.766
 20
-24.9389
 11
153.732
 21
-25
  0
LINE
  8
0
 10
153.732
 20
-25
 11
153.696
 21
-25.0598
  0
LINE
  8
0
 10
153.696
 20
-25.0598
 11
153.658
 21
-25.1184
  0
LINE
  8
0
 10
153.658
 20
-25.1184
 11
153.618
 21
-25.1756
  0
LINE
  8
0
 10
153.618
 20
-25.1756
 11
153.576
 21
-25.2313
  0
LINE
  8
0
 10
153.576
 20
-25.2313
 11
153.532
 21
-25.2856
  0
LINE
  8
0
 10
153.532
 20
-25.2856
 11
153.486
 21
-25.3383
  0
LINE
  8
0
 10
153.486
 20
-25.3383
 11
153.439
 21
-25.3893
  0
LINE
  8
0
 10
153.439
 20
-25.3893
 11
153.389
 21
-25.4387
  0
LINE
  8
0
 10
153.389
 20
-25.4387
 11
153.338
 21
-25.4863
  0
LINE
  8
0
 10
153.338
 20
-25.4863
 11
153.286
 21
-25.5321
  0
LINE
  8
0
 10
153.286
 20
-25.5321
 11
153.231
 21
-25.576
  0
LINE
  8
0
 10
153.231
 20
-25.576
 11
153.176
 21
-25.618
  0
LINE
  8
0
 10
153.176
 20
-25.618
 11
153.118
 21
-25.6581
  0
LINE
  8
0
 10
153.118
 20
-25.6581
 11
153.06
 21
-25.6961
  0
LINE
  8
0
 10
153.06
 20
-25.6961
 11
153
 21
-25.732
  0
LINE
  8
0
 10
153
 20
-25.732
 11
152.939
 21
-25.7659
  0
LINE
  8
0
 10
152.939
 20
-25.7659
 11
152.877
 21
-25.7976
  0
LINE
  8
0
 10
152.877
 20
-25.7976
 11
152.813
 21
-25.8271
  0
LINE
  8
0
 10
152.813
 20
-25.8271
 11
152.749
 21
-25.8544
  0
LINE
  8
0
 10
152.749
 20
-25.8544
 11
152.684
 21
-25.8794
  0
LINE
  8
0
 10
152.684
 20
-25.8794
 11
152.618
 21
-25.9021
  0
LINE
  8
0
 10
152.618
 20
-25.9021
 11
152.551
 21
-25.9225
  0
LINE
  8
0
 10
152.551
 20
-25.9225
 11
152.484
 21
-25.9406
  0
LINE
  8
0
 10
152.484
 20
-25.9406
 11
152.416
 21
-25.9563
  0
LINE
  8
0
 10
152.416
 20
-25.9563
 11
152.347
 21
-25.9696
  0
LINE
  8
0
 10
152.347
 20
-25.9696
 11
152.278
 21
-25.9805
  0
LINE
  8
0
 10
152.278
 20
-25.9805
 11
152.209
 21
-25.989
  0
LINE
  8
0
 10
152.209
 20
-25.989
 11
152.14
 21
-25.9951
  0
LINE
  8
0
 10
152.14
 20
-25.9951
 11
152.07
 21
-25.9988
  0
LINE
  8
0
 10
152.07
 20
-25.9988
 11
152
 21
-26
  0
LINE
  8
0
 10
152
 20
-26
 11
151.93
 21
-25.9988
  0
LINE
  8
0
 10
48.6802
 20
-25.9988
 11
48.6105
 21
-25.9951
  0
LINE
  8
0
 10
48.6105
 20
-25.9951
 11
48.541
 21
-25.989
  0
LINE
  8
0
 10
48.541
 20
-25.989
 11
48.4717
 21
-25.9805
  0
LINE
  8
0
 10
48.4717
 20
-25.9805
 11
48.4027
 21
-25.9696
  0
LINE
  8
0
 10
48.4027
 20
-25.9696
 11
48.3342
 21
-25.9563
  0
LINE
  8
0
 10
48.3342
 20
-25.9563
 11
48.2662
 21
-25.9406
  0
LINE
  8
0
 10
48.2662
 20
-25.9406
 11
48.1987
 21
-25.9225
  0
LINE
  8
0
 10
48.1987
 20
-25.9225
 11
48.132
 21
-25.9021
  0
LINE
  8
0
 10
48.132
 20
-25.9021
 11
48.066
 21
-25.8794
  0
LINE
  8
0
 10
48.066
 20
-25.8794
 11
48.0008
 21
-25.8544
  0
LINE
  8
0
 10
48.0008
 20
-25.8544
 11
47.9365
 21
-25.8271
  0
LINE
  8
0
 10
47.9365
 20
-25.8271
 11
47.8733
 21
-25.7976
  0
LINE
  8
0
 10
47.8733
 20
-25.7976
 11
47.8111
 21
-25.7659
  0
LINE
  8
0
 10
47.8111
 20
-25.7659
 11
47.75
 21
-25.732
  0
LINE
  8
0
 10
47.75
 20
-25.732
 11
47.6902
 21
-25.6961
  0
LINE
  8
0
 10
47.6902
 20
-25.6961
 11
47.6316
 21
-25.6581
  0
LINE
  8
0
 10
47.6316
 20
-25.6581
 11
47.5744
 21
-25.618
  0
LINE
  8
0
 10
47.5744
 20
-25.618
 11
47.5187
 21
-25.576
  0
LINE
  8
0
 10
47.5187
 20
-25.576
 11
47.4644
 21
-25.5321
  0
LINE
  8
0
 10
47.4644
 20
-25.5321
 11
47.4117
 21
-25.4863
  0
LINE
  8
0
 10
47.4117
 20
-25.4863
 11
47.3607
 21
-25.4387
  0
LINE
  8
0
 10
47.3607
 20
-25.4387
 11
47.3113
 21
-25.3893
  0
LINE
  8
0
 10
47.3113
 20
-25.3893
 11
47.2637
 21
-25.3383
  0
LINE
  8
0
 10
47.2637
 20
-25.3383
 11
47.2179
 21
-25.2856
  0
LINE
  8
0
 10
47.2179
 20
-25.2856
 11
47.174
 21
-25.2313
  0
LINE
  8
0
 10
47.174
 20
-25.2313
 11
47.132
 21
-25.1756
  0
LINE
  8
0
 10
47.132
 20
-25.1756
 11
47.0919
 21
-25.1184
  0
LINE
  8
0
 10
47.0919
 20
-25.1184
 11
47.0539
 21
-25.0598
  0
LINE
  8
0
 10
47.0539
 20
-25.0598
 11
47.018
 21
-25
  0
LINE
  8
0
 10
47.018
 20
-25
 11
46.9841
 21
-24.9389
  0
LINE
  8
0
 10
46.9841
 20
-24.9389
 11
46.9524
 21
-24.8767
  0
LINE
  8
0
 10
46.9524
 20
-24.8767
 11
46.9229
 21
-24.8135
  0
LINE
  8
0
 10
46.9229
 20
-24.8135
 11
46.8956
 21
-24.7492
  0
LINE
  8
0
 10
46.8956
 20
-24.7492
 11
46.8706
 21
-24.684
  0
LINE
  8
0
 10
46.8706
 20
-24.684
 11
46.8479
 21
-24.618
  0
LINE
  8
0
 10
46.8479
 20
-24.618
 11
46.8275
 21
-24.5513
  0
LINE
  8
0
 10
46.8275
 20
-24.5513
 11
46.8094
 21
-24.4838
  0
LINE
  8
0
 10
46.8094
 20
-24.4838
 11
46.7937
 21
-24.4158
  0
LINE
  8
0
 10
46.7937
 20
-24.4158
 11
46.7804
 21
-24.3473
  0
LINE
  8
0
 10
46.7804
 20
-24.3473
 11
46.7695
 21
-24.2783
  0
LINE
  8
0
 10
46.7695
 20
-24.2783
 11
46.761
 21
-24.209
  0
LINE
  8
0
 10
46.761
 20
-24.209
 11
46.7549
 21
-24.1395
  0
LINE
  8
0
 10
46.7549
 20
-24.1395
 11
46.7512
 21
-24.0698
  0
LINE
  8
0
 10
46.7512
 20
-24.0698
 11
46.75
 21
-24
  0
LINE
  8
0
 10
46.75
 20
-24
 11
46.7512
 21
-23.9302
  0
LINE
  8
0
 10
46.7512
 20
-23.9302
 11
46.7549
 21
-23.8605
  0
LINE
  8
0
 10
46.7549
 20
-23.8605
 11
46.761
 21
-23.7909
  0
LINE
  8
0
 10
46.761
 20
-23.7909
 11
46.7695
 21
-23.7216
  0
LINE
  8
0
 10
46.7695
 20
-23.7216
 11
46.7804
 21
-23.6527
  0
LINE
  8
0
 10
46.7804
 20
-23.6527
 11
46.7937
 21
-23.5842
  0
LINE
  8
0
 10
46.7937
 20
-23.5842
 11
46.8094
 21
-23.5161
  0
LINE
  8
0
 10
46.8094
 20
-23.5161
 11
46.8275
 21
-23.4487
  0
LINE
  8
0
 10
46.8275
 20
-23.4487
 11
46.8479
 21
-23.382
  0
LINE
  8
0
 10
46.8479
 20
-23.382
 11
46.8706
 21
-23.3159
  0
LINE
  8
0
 10
46.8706
 20
-23.3159
 11
46.8956
 21
-23.2508
  0
LINE
  8
0
 10
46.8956
 20
-23.2508
 11
46.9229
 21
-23.1865
  0
LINE
  8
0
 10
46.9229
 20
-23.1865
 11
46.9524
 21
-23.1232
  0
LINE
  8
0
 10
46.9524
 20
-23.1232
 11
46.9841
 21
-23.0611
  0
LINE
  8
0
 10
46.9841
 20
-23.0611
 11
47.018
 21
-23
  0
LINE
  8
0
 10
47.018
 20
-23
 11
47.0539
 21
-22.9402
  0
LINE
  8
0
 10
47.0539
 20
-22.9402
 11
47.0919
 21
-22.8816
  0
LINE
  8
0
 10
47.0919
 20
-22.8816
 11
47.132
 21
-22.8244
  0
LINE
  8
0
 10
47.132
 20
-22.8244
 11
47.174
 21
-22.7687
  0
LINE
  8
0
 10
47.174
 20
-22.7687
 11
47.2179
 21
-22.7144
  0
LINE
  8
0
 10
47.2179
 20
-22.7144
 11
47.2637
 21
-22.6617
  0
LINE
  8
0
 10
47.2637
 20
-22.6617
 11
47.3113
 21
-22.6107
  0
LINE
  8
0
 10
47.3113
 20
-22.6107
 11
47.3607
 21
-22.5613
  0
LINE
  8
0
 10
47.3607
 20
-22.5613
 11
47.4117
 21
-22.5137
  0
LINE
  8
0
 10
47.4117
 20
-22.5137
 11
47.4644
 21
-22.4679
  0
LINE
  8
0
 10
47.4644
 20
-22.4679
 11
47.5187
 21
-22.424
  0
LINE
  8
0
 10
47.5187
 20
-22.424
 11
47.5744
 21
-22.382
  0
LINE
  8
0
 10
47.5744
 20
-22.382
 11
47.6316
 21
-22.3419
  0
LINE
  8
0
 10
47.6316
 20
-22.3419
 11
47.6902
 21
-22.3039
  0
LINE
  8
0
 10
47.6902
 20
-22.3039
 11
47.75
 21
-22.2679
  0
LINE
  8
0
 10
47.75
 20
-22.2679
 11
47.8111
 21
-22.2341
  0
LINE
  8
0
 10
47.8111
 20
-22.2341
 11
47.8733
 21
-22.2024
  0
LINE
  8
0
 10
47.8733
 20
-22.2024
 11
47.9365
 21
-22.1729
  0
LINE
  8
0
 10
47.9365
 20
-22.1729
 11
48.0008
 21
-22.1456
  0
LINE
  8
0
 10
48.0008
 20
-22.1456
 11
48.066
 21
-22.1206
  0
LINE
  8
0
 10
48.066
 20
-22.1206
 11
48.132
 21
-22.0979
  0
LINE
  8
0
 10
48.132
 20
-22.0979
 11
48.1987
 21
-22.0775
  0
LINE
  8
0
 10
48.1987
 20
-22.0775
 11
48.2662
 21
-22.0594
  0
LINE
  8
0
 10
48.2662
 20
-22.0594
 11
48.3342
 21
-22.0437
  0
LINE
  8
0
 10
48.3342
 20
-22.0437
 11
48.4027
 21
-22.0304
  0
LINE
  8
0
 10
48.4027
 20
-22.0304
 11
48.4717
 21
-22.0195
  0
LINE
  8
0
 10
48.4717
 20
-22.0195
 11
48.541
 21
-22.011
  0
LINE
  8
0
 10
48.541
 20
-22.011
 11
48.6105
 21
-22.0049
  0
LINE
  8
0
 10
48.6105
 20
-22.0049
 11
48.6802
 21
-22.0012
  0
LINE
  8
0
 10
48.6802
 20
-22.0012
 11
48.75
 21
-22
  0
LINE
  8
0
 10
48.75
 20
-22
 11
48.8198
 21
-22.0012
  0
LINE
  8
0
 10
48.8198
 20
-22.0012
 11
48.8895
 21
-22.0049
  0
LINE
  8
0
 10
48.8895
 20
-22.0049
 11
48.959
 21
-22.011
  0
LINE
  8
0
 10
48.959
 20
-22.011
 11
49.0283
 21
-22.0195
  0
LINE
  8
0
 10
49.0283
 20
-22.0195
 11
49.0973
 21
-22.0304
  0
LINE
  8
0
 10
49.0973
 20
-22.0304
 11
49.1658
 21
-22.0437
  0
LINE
  8
0
 10
49.1658
 20
-22.0437
 11
49.2338
 21
-22.0594
  0
LINE
  8
0
 10
49.2338
 20
-22.0594
 11
49.3013
 21
-22.0775
  0
LINE
  8
0
 10
49.3013
 20
-22.0775
 11
49.368
 21
-22.0979
  0
LINE
  8
0
 10
49.368
 20
-22.0979
 11
49.434
 21
-22.1206
  0
LINE
  8
0
 10
49.434
 20
-22.1206
 11
49.4992
 21
-22.1456
  0
LINE
  8
0
 10
49.4992
 20
-22.1456
 11
49.5635
 21
-22.1729
  0
LINE
  8
0
 10
49.5635
 20
-22.1729
 11
49.6267
 21
-22.2024
  0
LINE
  8
0
 10
49.6267
 20
-22.2024
 11
49.6889
 21
-22.2341
  0
LINE
  8
0
 10
49.6889
 20
-22.2341
 11
49.75
 21
-22.2679
  0
LINE
  8
0
 10
49.75
 20
-22.2679
 11
49.8098
 21
-22.3039
  0
LINE
  8
0
 10
49.8098
 20
-22.3039
 11
49.8684
 21
-22.3419
  0
LINE
  8
0
 10
49.8684
 20
-22.3419
 11
49.9256
 21
-22.382
  0
LINE
  8
0
 10
49.9256
 20
-22.382
 11
49.9813
 21
-22.424
  0
LINE
  8
0
 10
49.9813
 20
-22.424
 11
50.0356
 21
-22.4679
  0
LINE
  8
0
 10
50.0356
 20
-22.4679
 11
50.0883
 21
-22.5137
  0
LINE
  8
0
 10
50.0883
 20
-22.5137
 11
50.1393
 21
-22.5613
  0
LINE
  8
0
 10
50.1393
 20
-22.5613
 11
50.1887
 21
-22.6107
  0
LINE
  8
0
 10
50.1887
 20
-22.6107
 11
50.2363
 21
-22.6617
  0
LINE
  8
0
 10
50.2363
 20
-22.6617
 11
50.2821
 21
-22.7144
  0
LINE
  8
0
 10
50.2821
 20
-22.7144
 11
50.326
 21
-22.7687
  0
LINE
  8
0
 10
50.326
 20
-22.7687
 11
50.368
 21
-22.8244
  0
LINE
  8
0
 10
50.368
 20
-22.8244
 11
50.4081
 21
-22.8816
  0
LINE
  8
0
 10
50.4081
 20
-22.8816
 11
50.4461
 21
-22.9402
  0
LINE
  8
0
 10
50.4461
 20
-22.9402
 11
50.482
 21
-23
  0
LINE
  8
0
 10
50.482
 20
-23
 11
50.5159
 21
-23.0611
  0
LINE
  8
0
 10
50.5159
 20
-23.0611
 11
50.5476
 21
-23.1232
  0
LINE
  8
0
 10
50.5476
 20
-23.1232
 11
50.5771
 21
-23.1865
  0
LINE
  8
0
 10
50.5771
 20
-23.1865
 11
50.6044
 21
-23.2508
  0
LINE
  8
0
 10
50.6044
 20
-23.2508
 11
50.6294
 21
-23.3159
  0
LINE
  8
0
 10
50.6294
 20
-23.3159
 11
50.6521
 21
-23.382
  0
LINE
  8
0
 10
50.6521
 20
-23.382
 11
50.6725
 21
-23.4487
  0
LINE
  8
0
 10
50.6725
 20
-23.4487
 11
50.6906
 21
-23.5161
  0
LINE
  8
0
 10
50.6906
 20
-23.5161
 11
50.7063
 21
-23.5842
  0
LINE
  8
0
 10
50.7063
 20
-23.5842
 11
50.7196
 21
-23.6527
  0
LINE
  8
0
 10
50.7196
 20
-23.6527
 11
50.7305
 21
-23.7216
  0
LINE
  8
0
 10
50.7305
 20
-23.7216
 11
50.739
 21
-23.7909
  0
LINE
  8
0
 10
50.739
 20
-23.7909
 11
50.7451
 21
-23.8605
  0
LINE
  8
0
 10
50.7451
 20
-23.8605
 11
50.7488
 21
-23.9302
  0
LINE
  8
0
 10
50.7488
 20
-23.9302
 11
50.75
 21
-24
  0
LINE
  8
0
 10
50.75
 20
-24
 11
50.7488
 21
-24.0698
  0
LINE
  8
0
 10
50.7488
 20
-24.0698
 11
50.7451
 21
-24.1395
  0
LINE
  8
0
 10
50.7451
 20
-24.1395
 11
50.739
 21
-24.209
  0
LINE
  8
0
 10
50.739
 20
-24.209
 11
50.7305
 21
-24.2783
  0
LINE
  8
0
 10
50.7305
 20
-24.2783
 11
50.7196
 21
-24.3473
  0
LINE
  8
0
 10
50.7196
 20
-24.3473
 11
50.7063
 21
-24.4158
  0
LINE
  8
0
 10
50.7063
 20
-24.4158
 11
50.6906
 21
-24.4838
  0
LINE
  8
0
 10
50.6906
 20
-24.4838
 11
50.6725
 21
-24.5513
  0
LINE
  8
0
 10
50.6725
 20
-24.5513
 11
50.6521
 21
-24.618
  0
LINE
  8
0
 10
50.6521
 20
-24.618
 11
50.6294
 21
-24.684
  0
LINE
  8
0
 10
50.6294
 20
-24.684
 11
50.6044
 21
-24.7492
  0
LINE
  8
0
 10
50.6044
 20
-24.7492
 11
50.5771
 21
-24.8135
  0
LINE
  8
0
 10
50.5771
 20
-24.8135
 11
50.5476
 21
-24.8767
  0
LINE
  8
0
 10
50.5476
 20
-24.8767
 11
50.5159
 21
-24.9389
  0
LINE
  8
0
 10
50.5159
 20
-24.9389
 11
50.482
 21
-25
  0
LINE
  8
0
 10
50.482
 20
-25
 11
50.4461
 21
-25.0598
  0
LINE
  8
0
 10
50.4461
 20
-25.0598
 11
50.4081
 21
-25.1184
  0
LINE
  8
0
 10
50.4081
 20
-25.1184
 11
50.368
 21
-25.1756
  0
LINE
  8
0
 10
50.368
 20
-25.1756
 11
50.326
 21
-25.2313
  0
LINE
  8
0
 10
50.326
 20
-25.2313
 11
50.2821
 21
-25.2856
  0
LINE
  8
0
 10
50.2821
 20
-25.2856
 11
50.2363
 21
-25.3383
  0
LINE
  8
0
 10
50.2363
 20
-25.3383
 11
50.1887
 21
-25.3893
  0
LINE
  8
0
 10
50.1887
 20
-25.3893
 11
50.1393
 21
-25.4387
  0
LINE
  8
0
 10
50.1393
 20
-25.4387
 11
50.0883
 21
-25.4863
  0
LINE
  8
0
 10
50.0883
 20
-25.4863
 11
50.0356
 21
-25.5321
  0
LINE
  8
0
 10
50.0356
 20
-25.5321
 11
49.9813
 21
-25.576
  0
LINE
  8
0
 10
49.9813
 20
-25.576
 11
49.9256
 21
-25.618
  0
LINE
  8
0
 10
49.9256
 20
-25.618
 11
49.8684
 21
-25.6581
  0
LINE
  8
0
 10
49.8684
 20
-25.6581
 11
49.8098
 21
-25.6961
  0
LINE
  8
0
 10
49.8098
 20
-25.6961
 11
49.75
 21
-25.732
  0
LINE
  8
0
 10
49.75
 20
-25.732
 11
49.6889
 21
-25.7659
  0
LINE
  8
0
 10
49.6889
 20
-25.7659
 11
49.6267
 21
-25.7976
  0
LINE
  8
0
 10
49.6267
 20
-25.7976
 11
49.5635
 21
-25.8271
  0
LINE
  8
0
 10
49.5635
 20
-25.8271
 11
49.4992
 21
-25.8544
  0
LINE
  8
0
 10
49.4992
 20
-25.8544
 11
49.434
 21
-25.8794
  0
LINE
  8
0
 10
49.434
 20
-25.8794
 11
49.368
 21
-25.9021
  0
LINE
  8
0
 10
49.368
 20
-25.9021
 11
49.3013
 21
-25.9225
  0
LINE
  8
0
 10
49.3013
 20
-25.9225
 11
49.2338
 21
-25.9406
  0
LINE
  8
0
 10
49.2338
 20
-25.9406
 11
49.1658
 21
-25.9563
  0
LINE
  8
0
 10
49.1658
 20
-25.9563
 11
49.0973
 21
-25.9696
  0
LINE
  8
0
 10
49.0973
 20
-25.9696
 11
49.0283
 21
-25.9805
  0
LINE
  8
0
 10
49.0283
 20
-25.9805
 11
48.959
 21
-25.989
  0
LINE
  8
0
 10
48.959
 20
-25.989
 11
48.8895
 21
-25.9951
  0
LINE
  8
0
 10
48.8895
 20
-25.9951
 11
48.8198
 21
-25.9988
  0
LINE
  8
0
 10
48.8198
 20
-25.9988
 11
48.75
 21
-26
  0
LINE
  8
0
 10
48.75
 20
-26
 11
48.6802
 21
-25.9988
  0
LINE
  8
0
 10
255.18
 20
-25.9988
 11
255.11
 21
-25.9951
  0
LINE
  8
0
 10
255.11
 20
-25.9951
 11
255.041
 21
-25.989
  0
LINE
  8
0
 10
255.041
 20
-25.989
 11
254.972
 21
-25.9805
  0
LINE
  8
0
 10
254.972
 20
-25.9805
 11
254.903
 21
-25.9696
  0
LINE
  8
0
 10
254.903
 20
-25.9696
 11
254.834
 21
-25.9563
  0
LINE
  8
0
 10
254.834
 20
-25.9563
 11
254.766
 21
-25.9406
  0
LINE
  8
0
 10
254.766
 20
-25.9406
 11
254.699
 21
-25.9225
  0
LINE
  8
0
 10
254.699
 20
-25.9225
 11
254.632
 21
-25.9021
  0
LINE
  8
0
 10
254.632
 20
-25.9021
 11
254.566
 21
-25.8794
  0
LINE
  8
0
 10
254.566
 20
-25.8794
 11
254.501
 21
-25.8544
  0
LINE
  8
0
 10
254.501
 20
-25.8544
 11
254.437
 21
-25.8271
  0
LINE
  8
0
 10
254.437
 20
-25.8271
 11
254.373
 21
-25.7976
  0
LINE
  8
0
 10
254.373
 20
-25.7976
 11
254.311
 21
-25.7659
  0
LINE
  8
0
 10
254.311
 20
-25.7659
 11
254.25
 21
-25.732
  0
LINE
  8
0
 10
254.25
 20
-25.732
 11
254.19
 21
-25.6961
  0
LINE
  8
0
 10
254.19
 20
-25.6961
 11
254.132
 21
-25.6581
  0
LINE
  8
0
 10
254.132
 20
-25.6581
 11
254.074
 21
-25.618
  0
LINE
  8
0
 10
254.074
 20
-25.618
 11
254.019
 21
-25.576
  0
LINE
  8
0
 10
254.019
 20
-25.576
 11
253.964
 21
-25.5321
  0
LINE
  8
0
 10
253.964
 20
-25.5321
 11
253.912
 21
-25.4863
  0
LINE
  8
0
 10
253.912
 20
-25.4863
 11
253.861
 21
-25.4387
  0
LINE
  8
0
 10
253.861
 20
-25.4387
 11
253.811
 21
-25.3893
  0
LINE
  8
0
 10
253.811
 20
-25.3893
 11
253.764
 21
-25.3383
  0
LINE
  8
0
 10
253.764
 20
-25.3383
 11
253.718
 21
-25.2856
  0
LINE
  8
0
 10
253.718
 20
-25.2856
 11
253.674
 21
-25.2313
  0
LINE
  8
0
 10
253.674
 20
-25.2313
 11
253.632
 21
-25.1756
  0
LINE
  8
0
 10
253.632
 20
-25.1756
 11
253.592
 21
-25.1184
  0
LINE
  8
0
 10
253.592
 20
-25.1184
 11
253.554
 21
-25.0598
  0
LINE
  8
0
 10
253.554
 20
-25.0598
 11
253.518
 21
-25
  0
LINE
  8
0
 10
253.518
 20
-25
 11
253.484
 21
-24.9389
  0
LINE
  8
0
 10
253.484
 20
-24.9389
 11
253.452
 21
-24.8767
  0
LINE
  8
0
 10
253.452
 20
-24.8767
 11
253.423
 21
-24.8135
  0
LINE
  8
0
 10
253.423
 20
-24.8135
 11
253.396
 21
-24.7492
  0
LINE
  8
0
 10
253.396
 20
-24.7492
 11
253.371
 21
-24.684
  0
LINE
  8
0
 10
253.371
 20
-24.684
 11
253.348
 21
-24.618
  0
LINE
  8
0
 10
253.348
 20
-24.618
 11
253.327
 21
-24.5513
  0
LINE
  8
0
 10
253.327
 20
-24.5513
 11
253.309
 21
-24.4838
  0
LINE
  8
0
 10
253.309
 20
-24.4838
 11
253.294
 21
-24.4158
  0
LINE
  8
0
 10
253.294
 20
-24.4158
 11
253.28
 21
-24.3473
  0
LINE
  8
0
 10
253.28
 20
-24.3473
 11
253.269
 21
-24.2783
  0
LINE
  8
0
 10
253.269
 20
-24.2783
 11
253.261
 21
-24.209
  0
LINE
  8
0
 10
253.261
 20
-24.209
 11
253.255
 21
-24.1395
  0
LINE
  8
0
 10
253.255
 20
-24.1395
 11
253.251
 21
-24.0698
  0
LINE
  8
0
 10
253.251
 20
-24.0698
 11
253.25
 21
-24
  0
LINE
  8
0
 10
253.25
 20
-24
 11
253.251
 21
-23.9302
  0
LINE
  8
0
 10
253.251
 20
-23.9302
 11
253.255
 21
-23.8605
  0
LINE
  8
0
 10
253.255
 20
-23.8605
 11
253.261
 21
-23.7909
  0
LINE
  8
0
 10
253.261
 20
-23.7909
 11
253.269
 21
-23.7216
  0
LINE
  8
0
 10
253.269
 20
-23.7216
 11
253.28
 21
-23.6527
  0
LINE
  8
0
 10
253.28
 20
-23.6527
 11
253.294
 21
-23.5842
  0
LINE
  8
0
 10
253.294
 20
-23.5842
 11
253.309
 21
-23.5161
  0
LINE
  8
0
 10
253.309
 20
-23.5161
 11
253.327
 21
-23.4487
  0
LINE
  8
0
 10
253.327
 20
-23.4487
 11
253.348
 21
-23.382
  0
LINE
  8
0
 10
253.348
 20
-23.382
 11
253.371
 21
-23.3159
  0
LINE
  8
0
 10
253.371
 20
-23.3159
 11
253.396
 21
-23.2508
  0
LINE
  8
0
 10
253.396
 20
-23.2508
 11
253.423
 21
-23.1865
  0
LINE
  8
0
 10
253.423
 20
-23.1865
 11
253.452
 21
-23.1232
  0
LINE
  8
0
 10
253.452
 20
-23.1232
 11
253.484
 21
-23.0611
  0
LINE
  8
0
 10
253.484
 20
-23.0611
 11
253.518
 21
-23
  0
LINE
  8
0
 10
253.518
 20
-23
 11
253.554
 21
-22.9402
  0
LINE
  8
0
 10
253.554
 20
-22.9402
 11
253.592
 21
-22.8816
  0
LINE
  8
0
 10
253.592
 20
-22.8816
 11
253.632
 21
-22.8244
  0
LINE
  8
0
 10
253.632
 20
-22.8244
 11
253.674
 21
-22.7687
  0
LINE
  8
0
 10
253.674
 20
-22.7687
 11
253.718
 21
-22.7144
  0
LINE
  8
0
 10
253.718
 20
-22.7144
 11
253.764
 21
-22.6617
  0
LINE
  8
0
 10
253.764
 20
-22.6617
 11
253.811
 21
-22.6107
  0
LINE
  8
0
 10
253.811
 20
-22.6107
 11
253.861
 21
-22.5613
  0
LINE
  8
0
 10
253.861
 20
-22.5613
 11
253.912
 21
-22.5137
  0
LINE
  8
0
 10
253.912
 20
-22.5137
 11
253.964
 21
-22.4679
  0
LINE
  8
0
 10
253.964
 20
-22.4679
 11
254.019
 21
-22.424
  0
LINE
  8
0
 10
254.019
 20
-22.424
 11
254.074
 21
-22.382
  0
LINE
  8
0
 10
254.074
 20
-22.382
 11
254.132
 21
-22.3419
  0
LINE
  8
0
 10
254.132
 20
-22.3419
 11
254.19
 21
-22.3039
  0
LINE
  8
0
 10
254.19
 20
-22.3039
 11
254.25
 21
-22.2679
  0
LINE
  8
0
 10
254.25
 20
-22.2679
 11
254.311
 21
-22.2341
  0
LINE
  8
0
 10
254.311
 20
-22.2341
 11
254.373
 21
-22.2024
  0
LINE
  8
0
 10
254.373
 20
-22.2024
 11
254.437
 21
-22.1729
  0
LINE
  8
0
 10
254.437
 20
-22.1729
 11
254.501
 21
-22.1456
  0
LINE
  8
0
 10
254.501
 20
-22.1456
 11
254.566
 21
-22.1206
  0
LINE
  8
0
 10
254.566
 20
-22.1206
 11
254.632
 21
-22.0979
  0
LINE
  8
0
 10
254.632
 20
-22.0979
 11
254.699
 21
-22.0775
  0
LINE
  8
0
 10
254.699
 20
-22.0775
 11
254.766
 21
-22.0594
  0
LINE
  8
0
 10
254.766
 20
-22.0594
 11
254.834
 21
-22.0437
  0
LINE
  8
0
 10
254.834
 20
-22.0437
 11
254.903
 21
-22.0304
  0
LINE
  8
0
 10
254.903
 20
-22.0304
 11
254.972
 21
-22.0195
  0
LINE
  8
0
 10
254.972
 20
-22.0195
 11
255.041
 21
-22.011
  0
LINE
  8
0
 10
255.041
 20
-22.011
 11
255.11
 21
-22.0049
  0
LINE
  8
0
 10
255.11
 20
-22.0049
 11
255.18
 21
-22.0012
  0
LINE
  8
0
 10
255.18
 20
-22.0012
 11
255.25
 21
-22
  0
LINE
  8
0
 10
255.25
 20
-22
 11
255.32
 21
-22.0012
  0
LINE
  8
0
 10
255.32
 20
-22.0012
 11
255.39
 21
-22.0049
  0
LINE
  8
0
 10
255.39
 20
-22.0049
 11
255.459
 21
-22.011
  0
LINE
  8
0
 10
255.459
 20
-22.011
 11
255.528
 21
-22.0195
  0
LINE
  8
0
 10
255.528
 20
-22.0195
 11
255.597
 21
-22.0304
  0
LINE
  8
0
 10
255.597
 20
-22.0304
 11
255.666
 21
-22.0437
  0
LINE
  8
0
 10
255.666
 20
-22.0437
 11
255.734
 21
-22.0594
  0
LINE
  8
0
 10
255.734
 20
-22.0594
 11
255.801
 21
-22.0775
  0
LINE
  8
0
 10
255.801
 20
-22.0775
 11
255.868
 21
-22.0979
  0
LINE
  8
0
 10
255.868
 20
-22.0979
 11
255.934
 21
-22.1206
  0
LINE
  8
0
 10
255.934
 20
-22.1206
 11
255.999
 21
-22.1456
  0
LINE
  8
0
 10
255.999
 20
-22.1456
 11
256.063
 21
-22.1729
  0
LINE
  8
0
 10
256.063
 20
-22.1729
 11
256.127
 21
-22.2024
  0
LINE
  8
0
 10
256.127
 20
-22.2024
 11
256.189
 21
-22.2341
  0
LINE
  8
0
 10
256.189
 20
-22.2341
 11
256.25
 21
-22.2679
  0
LINE
  8
0
 10
256.25
 20
-22.2679
 11
256.31
 21
-22.3039
  0
LINE
  8
0
 10
256.31
 20
-22.3039
 11
256.368
 21
-22.3419
  0
LINE
  8
0
 10
256.368
 20
-22.3419
 11
256.426
 21
-22.382
  0
LINE
  8
0
 10
256.426
 20
-22.382
 11
256.481
 21
-22.424
  0
LINE
  8
0
 10
256.481
 20
-22.424
 11
256.536
 21
-22.4679
  0
LINE
  8
0
 10
256.536
 20
-22.4679
 11
256.588
 21
-22.5137
  0
LINE
  8
0
 10
256.588
 20
-22.5137
 11
256.639
 21
-22.5613
  0
LINE
  8
0
 10
256.639
 20
-22.5613
 11
256.689
 21
-22.6107
  0
LINE
  8
0
 10
256.689
 20
-22.6107
 11
256.736
 21
-22.6617
  0
LINE
  8
0
 10
256.736
 20
-22.6617
 11
256.782
 21
-22.7144
  0
LINE
  8
0
 10
256.782
 20
-22.7144
 11
256.826
 21
-22.7687
  0
LINE
  8
0
 10
256.826
 20
-22.7687
 11
256.868
 21
-22.8244
  0
LINE
  8
0
 10
256.868
 20
-22.8244
 11
256.908
 21
-22.8816
  0
LINE
  8
0
 10
256.908
 20
-22.8816
 11
256.946
 21
-22.9402
  0
LINE
  8
0
 10
256.946
 20
-22.9402
 11
256.982
 21
-23
  0
LINE
  8
0
 10
256.982
 20
-23
 11
257.016
 21
-23.0611
  0
LINE
  8
0
 10
257.016
 20
-23.0611
 11
257.048
 21
-23.1232
  0
LINE
  8
0
 10
257.048
 20
-23.1232
 11
257.077
 21
-23.1865
  0
LINE
  8
0
 10
257.077
 20
-23.1865
 11
257.104
 21
-23.2508
  0
LINE
  8
0
 10
257.104
 20
-23.2508
 11
257.129
 21
-23.3159
  0
LINE
  8
0
 10
257.129
 20
-23.3159
 11
257.152
 21
-23.382
  0
LINE
  8
0
 10
257.152
 20
-23.382
 11
257.173
 21
-23.4487
  0
LINE
  8
0
 10
257.173
 20
-23.4487
 11
257.191
 21
-23.5161
  0
LINE
  8
0
 10
257.191
 20
-23.5161
 11
257.206
 21
-23.5842
  0
LINE
  8
0
 10
257.206
 20
-23.5842
 11
257.22
 21
-23.6527
  0
LINE
  8
0
 10
257.22
 20
-23.6527
 11
257.231
 21
-23.7216
  0
LINE
  8
0
 10
257.231
 20
-23.7216
 11
257.239
 21
-23.7909
  0
LINE
  8
0
 10
257.239
 20
-23.7909
 11
257.245
 21
-23.8605
  0
LINE
  8
0
 10
257.245
 20
-23.8605
 11
257.249
 21
-23.9302
  0
LINE
  8
0
 10
257.249
 20
-23.9302
 11
257.25
 21
-24
  0
LINE
  8
0
 10
257.25
 20
-24
 11
257.249
 21
-24.0698
  0
LINE
  8
0
 10
257.249
 20
-24.0698
 11
257.245
 21
-24.1395
  0
LINE
  8
0
 10
257.245
 20
-24.1395
 11
257.239
 21
-24.209
  0
LINE
  8
0
 10
257.239
 20
-24.209
 11
257.231
 21
-24.2783
  0
LINE
  8
0
 10
257.231
 20
-24.2783
 11
257.22
 21
-24.3473
  0
LINE
  8
0
 10
257.22
 20
-24.3473
 11
257.206
 21
-24.4158
  0
LINE
  8
0
 10
257.206
 20
-24.4158
 11
257.191
 21
-24.4838
  0
LINE
  8
0
 10
257.191
 20
-24.4838
 11
257.173
 21
-24.5513
  0
LINE
  8
0
 10
257.173
 20
-24.5513
 11
257.152
 21
-24.618
  0
LINE
  8
0
 10
257.152
 20
-24.618
 11
257.129
 21
-24.684
  0
LINE
  8
0
 10
257.129
 20
-24.684
 11
257.104
 21
-24.7492
  0
LINE
  8
0
 10
257.104
 20
-24.7492
 11
257.077
 21
-24.8135
  0
LINE
  8
0
 10
257.077
 20
-24.8135
 11
257.048
 21
-24.8767
  0
LINE
  8
0
 10
257.048
 20
-24.8767
 11
257.016
 21
-24.9389
  0
LINE
  8
0
 10
257.016
 20
-24.9389
 11
256.982
 21
-25
  0
LINE
  8
0
 10
256.982
 20
-25
 11
256.946
 21
-25.0598
  0
LINE
  8
0
 10
256.946
 20
-25.0598
 11
256.908
 21
-25.1184
  0
LINE
  8
0
 10
256.908
 20
-25.1184
 11
256.868
 21
-25.1756
  0
LINE
  8
0
 10
256.868
 20
-25.1756
 11
256.826
 21
-25.2313
  0
LINE
  8
0
 10
256.826
 20
-25.2313
 11
256.782
 21
-25.2856
  0
LINE
  8
0
 10
256.782
 20
-25.2856
 11
256.736
 21
-25.3383
  0
LINE
  8
0
 10
256.736
 20
-25.3383
 11
256.689
 21
-25.3893
  0
LINE
  8
0
 10
256.689
 20
-25.3893
 11
256.639
 21
-25.4387
  0
LINE
  8
0
 10
256.639
 20
-25.4387
 11
256.588
 21
-25.4863
  0
LINE
  8
0
 10
256.588
 20
-25.4863
 11
256.536
 21
-25.5321
  0
LINE
  8
0
 10
256.536
 20
-25.5321
 11
256.481
 21
-25.576
  0
LINE
  8
0
 10
256.481
 20
-25.576
 11
256.426
 21
-25.618
  0
LINE
  8
0
 10
256.426
 20
-25.618
 11
256.368
 21
-25.6581
  0
LINE
  8
0
 10
256.368
 20
-25.6581
 11
256.31
 21
-25.6961
  0
LINE
  8
0
 10
256.31
 20
-25.6961
 11
256.25
 21
-25.732
  0
LINE
  8
0
 10
256.25
 20
-25.732
 11
256.189
 21
-25.7659
  0
LINE
  8
0
 10
256.189
 20
-25.7659
 11
256.127
 21
-25.7976
  0
LINE
  8
0
 10
256.127
 20
-25.7976
 11
256.063
 21
-25.8271
  0
LINE
  8
0
 10
256.063
 20
-25.8271
 11
255.999
 21
-25.8544
  0
LINE
  8
0
 10
255.999
 20
-25.8544
 11
255.934
 21
-25.8794
  0
LINE
  8
0
 10
255.934
 20
-25.8794
 11
255.868
 21
-25.9021
  0
LINE
  8
0
 10
255.868
 20
-25.9021
 11
255.801
 21
-25.9225
  0
LINE
  8
0
 10
255.801
 20
-25.9225
 11
255.734
 21
-25.9406
  0
LINE
  8
0
 10
255.734
 20
-25.9406
 11
255.666
 21
-25.9563
  0
LINE
  8
0
 10
255.666
 20
-25.9563
 11
255.597
 21
-25.9696
  0
LINE
  8
0
 10
255.597
 20
-25.9696
 11
255.528
 21
-25.9805
  0
LINE
  8
0
 10
255.528
 20
-25.9805
 11
255.459
 21
-25.989
  0
LINE
  8
0
 10
255.459
 20
-25.989
 11
255.39
 21
-25.9951
  0
LINE
  8
0
 10
255.39
 20
-25.9951
 11
255.32
 21
-25.9988
  0
LINE
  8
0
 10
255.32
 20
-25.9988
 11
255.25
 21
-26
  0
LINE
  8
0
 10
255.25
 20
-26
 11
255.18
 21
-25.9988
  0
ENDSEC
  0
SECTION
  2
OBJECTS
  0
DICTIONARY
  0
ENDSEC
  0
EOF
