  0
SECTION
  2
BLOCKS
  0
ENDSEC
  0
SECTION
  2
ENTITIES
  0
LINE
  8
0
 10
304
 20
106
 11
0
 21
106
  0
LINE
  8
0
 10
0
 20
106
 11
0
 21
0
  0
LINE
  8
0
 10
0
 20
0
 11
304
 21
0
  0
LINE
  8
0
 10
304
 20
0
 11
304
 21
106
  0
LINE
  8
0
 10
25.2635
 20
100.826
 11
25.1938
 21
100.83
  0
LINE
  8
0
 10
25.1938
 20
100.83
 11
25.1243
 21
100.836
  0
LINE
  8
0
 10
25.1243
 20
100.836
 11
25.055
 21
100.844
  0
LINE
  8
0
 10
25.055
 20
100.844
 11
24.986
 21
100.855
  0
LINE
  8
0
 10
24.986
 20
100.855
 11
24.9175
 21
100.869
  0
LINE
  8
0
 10
24.9175
 20
100.869
 11
24.8495
 21
100.884
  0
LINE
  8
0
 10
24.8495
 20
100.884
 11
24.782
 21
100.902
  0
LINE
  8
0
 10
24.782
 20
100.902
 11
24.7153
 21
100.923
  0
LINE
  8
0
 10
24.7153
 20
100.923
 11
24.6493
 21
100.946
  0
LINE
  8
0
 10
24.6493
 20
100.946
 11
24.5841
 21
100.971
  0
LINE
  8
0
 10
24.5841
 20
100.971
 11
24.5199
 21
100.998
  0
LINE
  8
0
 10
24.5199
 20
100.998
 11
24.4566
 21
101.027
  0
LINE
  8
0
 10
24.4566
 20
101.027
 11
24.3944
 21
101.059
  0
LINE
  8
0
 10
24.3944
 20
101.059
 11
24.3333
 21
101.093
  0
LINE
  8
0
 10
24.3333
 20
101.093
 11
24.2735
 21
101.129
  0
LINE
  8
0
 10
24.2735
 20
101.129
 11
24.2149
 21
101.167
  0
LINE
  8
0
 10
24.2149
 20
101.167
 11
24.1578
 21
101.207
  0
LINE
  8
0
 10
24.1578
 20
101.207
 11
24.102
 21
101.249
  0
LINE
  8
0
 10
24.102
 20
101.249
 11
24.0477
 21
101.293
  0
LINE
  8
0
 10
24.0477
 20
101.293
 11
23.9951
 21
101.339
  0
LINE
  8
0
 10
23.9951
 20
101.339
 11
23.944
 21
101.386
  0
LINE
  8
0
 10
23.944
 20
101.386
 11
23.8947
 21
101.436
  0
LINE
  8
0
 10
23.8947
 20
101.436
 11
23.847
 21
101.487
  0
LINE
  8
0
 10
23.847
 20
101.487
 11
23.8012
 21
101.539
  0
LINE
  8
0
 10
23.8012
 20
101.539
 11
23.7573
 21
101.594
  0
LINE
  8
0
 10
23.7573
 20
101.594
 11
23.7153
 21
101.649
  0
LINE
  8
0
 10
23.7153
 20
101.649
 11
23.6752
 21
101.707
  0
LINE
  8
0
 10
23.6752
 20
101.707
 11
23.6372
 21
101.765
  0
LINE
  8
0
 10
23.6372
 20
101.765
 11
23.6013
 21
101.825
  0
LINE
  8
0
 10
23.6013
 20
101.825
 11
23.5674
 21
101.886
  0
LINE
  8
0
 10
23.5674
 20
101.886
 11
23.5357
 21
101.948
  0
LINE
  8
0
 10
23.5357
 20
101.948
 11
23.5062
 21
102.012
  0
LINE
  8
0
 10
23.5062
 20
102.012
 11
23.479
 21
102.076
  0
LINE
  8
0
 10
23.479
 20
102.076
 11
23.4539
 21
102.141
  0
LINE
  8
0
 10
23.4539
 20
102.141
 11
23.4312
 21
102.207
  0
LINE
  8
0
 10
23.4312
 20
102.207
 11
23.4108
 21
102.274
  0
LINE
  8
0
 10
23.4108
 20
102.274
 11
23.3927
 21
102.341
  0
LINE
  8
0
 10
23.3927
 20
102.341
 11
23.377
 21
102.409
  0
LINE
  8
0
 10
23.377
 20
102.409
 11
23.3637
 21
102.478
  0
LINE
  8
0
 10
23.3637
 20
102.478
 11
23.3528
 21
102.547
  0
LINE
  8
0
 10
23.3528
 20
102.547
 11
23.3443
 21
102.616
  0
LINE
  8
0
 10
23.3443
 20
102.616
 11
23.3382
 21
102.685
  0
LINE
  8
0
 10
23.3382
 20
102.685
 11
23.3345
 21
102.755
  0
LINE
  8
0
 10
23.3345
 20
102.755
 11
23.3333
 21
102.825
  0
LINE
  8
0
 10
23.3333
 20
102.825
 11
23.3345
 21
102.895
  0
LINE
  8
0
 10
23.3345
 20
102.895
 11
23.3382
 21
102.965
  0
LINE
  8
0
 10
23.3382
 20
102.965
 11
23.3443
 21
103.034
  0
LINE
  8
0
 10
23.3443
 20
103.034
 11
23.3528
 21
103.103
  0
LINE
  8
0
 10
23.3528
 20
103.103
 11
23.3637
 21
103.172
  0
LINE
  8
0
 10
23.3637
 20
103.172
 11
23.377
 21
103.241
  0
LINE
  8
0
 10
23.377
 20
103.241
 11
23.3927
 21
103.309
  0
LINE
  8
0
 10
23.3927
 20
103.309
 11
23.4108
 21
103.376
  0
LINE
  8
0
 10
23.4108
 20
103.376
 11
23.4312
 21
103.443
  0
LINE
  8
0
 10
23.4312
 20
103.443
 11
23.4539
 21
103.509
  0
LINE
  8
0
 10
23.4539
 20
103.509
 11
23.479
 21
103.574
  0
LINE
  8
0
 10
23.479
 20
103.574
 11
23.5062
 21
103.638
  0
LINE
  8
0
 10
23.5062
 20
103.638
 11
23.5357
 21
103.702
  0
LINE
  8
0
 10
23.5357
 20
103.702
 11
23.5674
 21
103.764
  0
LINE
  8
0
 10
23.5674
 20
103.764
 11
23.6013
 21
103.825
  0
LINE
  8
0
 10
23.6013
 20
103.825
 11
23.6372
 21
103.885
  0
LINE
  8
0
 10
23.6372
 20
103.885
 11
23.6752
 21
103.943
  0
LINE
  8
0
 10
23.6752
 20
103.943
 11
23.7153
 21
104.001
  0
LINE
  8
0
 10
23.7153
 20
104.001
 11
23.7573
 21
104.056
  0
LINE
  8
0
 10
23.7573
 20
104.056
 11
23.8012
 21
104.111
  0
LINE
  8
0
 10
23.8012
 20
104.111
 11
23.847
 21
104.163
  0
LINE
  8
0
 10
23.847
 20
104.163
 11
23.8947
 21
104.214
  0
LINE
  8
0
 10
23.8947
 20
104.214
 11
23.944
 21
104.264
  0
LINE
  8
0
 10
23.944
 20
104.264
 11
23.9951
 21
104.311
  0
LINE
  8
0
 10
23.9951
 20
104.311
 11
24.0477
 21
104.357
  0
LINE
  8
0
 10
24.0477
 20
104.357
 11
24.102
 21
104.401
  0
LINE
  8
0
 10
24.102
 20
104.401
 11
24.1578
 21
104.443
  0
LINE
  8
0
 10
24.1578
 20
104.443
 11
24.2149
 21
104.483
  0
LINE
  8
0
 10
24.2149
 20
104.483
 11
24.2735
 21
104.521
  0
LINE
  8
0
 10
24.2735
 20
104.521
 11
24.3333
 21
104.557
  0
LINE
  8
0
 10
24.3333
 20
104.557
 11
24.3944
 21
104.591
  0
LINE
  8
0
 10
24.3944
 20
104.591
 11
24.4566
 21
104.623
  0
LINE
  8
0
 10
24.4566
 20
104.623
 11
24.5199
 21
104.652
  0
LINE
  8
0
 10
24.5199
 20
104.652
 11
24.5841
 21
104.679
  0
LINE
  8
0
 10
24.5841
 20
104.679
 11
24.6493
 21
104.704
  0
LINE
  8
0
 10
24.6493
 20
104.704
 11
24.7153
 21
104.727
  0
LINE
  8
0
 10
24.7153
 20
104.727
 11
24.782
 21
104.748
  0
LINE
  8
0
 10
24.782
 20
104.748
 11
24.8495
 21
104.766
  0
LINE
  8
0
 10
24.8495
 20
104.766
 11
24.9175
 21
104.781
  0
LINE
  8
0
 10
24.9175
 20
104.781
 11
24.986
 21
104.795
  0
LINE
  8
0
 10
24.986
 20
104.795
 11
25.055
 21
104.806
  0
LINE
  8
0
 10
25.055
 20
104.806
 11
25.1243
 21
104.814
  0
LINE
  8
0
 10
25.1243
 20
104.814
 11
25.1938
 21
104.82
  0
LINE
  8
0
 10
25.1938
 20
104.82
 11
25.2635
 21
104.824
  0
LINE
  8
0
 10
25.2635
 20
104.824
 11
25.3333
 21
104.825
  0
LINE
  8
0
 10
25.3333
 20
104.825
 11
25.4031
 21
104.824
  0
LINE
  8
0
 10
25.4031
 20
104.824
 11
25.4728
 21
104.82
  0
LINE
  8
0
 10
25.4728
 20
104.82
 11
25.5424
 21
104.814
  0
LINE
  8
0
 10
25.5424
 20
104.814
 11
25.6117
 21
104.806
  0
LINE
  8
0
 10
25.6117
 20
104.806
 11
25.6806
 21
104.795
  0
LINE
  8
0
 10
25.6806
 20
104.795
 11
25.7491
 21
104.781
  0
LINE
  8
0
 10
25.7491
 20
104.781
 11
25.8172
 21
104.766
  0
LINE
  8
0
 10
25.8172
 20
104.766
 11
25.8846
 21
104.748
  0
LINE
  8
0
 10
25.8846
 20
104.748
 11
25.9514
 21
104.727
  0
LINE
  8
0
 10
25.9514
 20
104.727
 11
26.0174
 21
104.704
  0
LINE
  8
0
 10
26.0174
 20
104.704
 11
26.0825
 21
104.679
  0
LINE
  8
0
 10
26.0825
 20
104.679
 11
26.1468
 21
104.652
  0
LINE
  8
0
 10
26.1468
 20
104.652
 11
26.2101
 21
104.623
  0
LINE
  8
0
 10
26.2101
 20
104.623
 11
26.2723
 21
104.591
  0
LINE
  8
0
 10
26.2723
 20
104.591
 11
26.3333
 21
104.557
  0
LINE
  8
0
 10
26.3333
 20
104.557
 11
26.3932
 21
104.521
  0
LINE
  8
0
 10
26.3932
 20
104.521
 11
26.4517
 21
104.483
  0
LINE
  8
0
 10
26.4517
 20
104.483
 11
26.5089
 21
104.443
  0
LINE
  8
0
 10
26.5089
 20
104.443
 11
26.5647
 21
104.401
  0
LINE
  8
0
 10
26.5647
 20
104.401
 11
26.6189
 21
104.357
  0
LINE
  8
0
 10
26.6189
 20
104.357
 11
26.6716
 21
104.311
  0
LINE
  8
0
 10
26.6716
 20
104.311
 11
26.7226
 21
104.264
  0
LINE
  8
0
 10
26.7226
 20
104.264
 11
26.772
 21
104.214
  0
LINE
  8
0
 10
26.772
 20
104.214
 11
26.8196
 21
104.163
  0
LINE
  8
0
 10
26.8196
 20
104.163
 11
26.8654
 21
104.111
  0
LINE
  8
0
 10
26.8654
 20
104.111
 11
26.9093
 21
104.056
  0
LINE
  8
0
 10
26.9093
 20
104.056
 11
26.9514
 21
104.001
  0
LINE
  8
0
 10
26.9514
 20
104.001
 11
26.9914
 21
103.943
  0
LINE
  8
0
 10
26.9914
 20
103.943
 11
27.0294
 21
103.885
  0
LINE
  8
0
 10
27.0294
 20
103.885
 11
27.0654
 21
103.825
  0
LINE
  8
0
 10
27.0654
 20
103.825
 11
27.0992
 21
103.764
  0
LINE
  8
0
 10
27.0992
 20
103.764
 11
27.1309
 21
103.702
  0
LINE
  8
0
 10
27.1309
 20
103.702
 11
27.1604
 21
103.638
  0
LINE
  8
0
 10
27.1604
 20
103.638
 11
27.1877
 21
103.574
  0
LINE
  8
0
 10
27.1877
 20
103.574
 11
27.2127
 21
103.509
  0
LINE
  8
0
 10
27.2127
 20
103.509
 11
27.2354
 21
103.443
  0
LINE
  8
0
 10
27.2354
 20
103.443
 11
27.2558
 21
103.376
  0
LINE
  8
0
 10
27.2558
 20
103.376
 11
27.2739
 21
103.309
  0
LINE
  8
0
 10
27.2739
 20
103.309
 11
27.2896
 21
103.241
  0
LINE
  8
0
 10
27.2896
 20
103.241
 11
27.3029
 21
103.172
  0
LINE
  8
0
 10
27.3029
 20
103.172
 11
27.3139
 21
103.103
  0
LINE
  8
0
 10
27.3139
 20
103.103
 11
27.3224
 21
103.034
  0
LINE
  8
0
 10
27.3224
 20
103.034
 11
27.3285
 21
102.965
  0
LINE
  8
0
 10
27.3285
 20
102.965
 11
27.3321
 21
102.895
  0
LINE
  8
0
 10
27.3321
 20
102.895
 11
27.3333
 21
102.825
  0
LINE
  8
0
 10
27.3333
 20
102.825
 11
27.3321
 21
102.755
  0
LINE
  8
0
 10
27.3321
 20
102.755
 11
27.3285
 21
102.685
  0
LINE
  8
0
 10
27.3285
 20
102.685
 11
27.3224
 21
102.616
  0
LINE
  8
0
 10
27.3224
 20
102.616
 11
27.3139
 21
102.547
  0
LINE
  8
0
 10
27.3139
 20
102.547
 11
27.3029
 21
102.478
  0
LINE
  8
0
 10
27.3029
 20
102.478
 11
27.2896
 21
102.409
  0
LINE
  8
0
 10
27.2896
 20
102.409
 11
27.2739
 21
102.341
  0
LINE
  8
0
 10
27.2739
 20
102.341
 11
27.2558
 21
102.274
  0
LINE
  8
0
 10
27.2558
 20
102.274
 11
27.2354
 21
102.207
  0
LINE
  8
0
 10
27.2354
 20
102.207
 11
27.2127
 21
102.141
  0
LINE
  8
0
 10
27.2127
 20
102.141
 11
27.1877
 21
102.076
  0
LINE
  8
0
 10
27.1877
 20
102.076
 11
27.1604
 21
102.012
  0
LINE
  8
0
 10
27.1604
 20
102.012
 11
27.1309
 21
101.948
  0
LINE
  8
0
 10
27.1309
 20
101.948
 11
27.0992
 21
101.886
  0
LINE
  8
0
 10
27.0992
 20
101.886
 11
27.0654
 21
101.825
  0
LINE
  8
0
 10
27.0654
 20
101.825
 11
27.0294
 21
101.765
  0
LINE
  8
0
 10
27.0294
 20
101.765
 11
26.9914
 21
101.707
  0
LINE
  8
0
 10
26.9914
 20
101.707
 11
26.9514
 21
101.649
  0
LINE
  8
0
 10
26.9514
 20
101.649
 11
26.9093
 21
101.594
  0
LINE
  8
0
 10
26.9093
 20
101.594
 11
26.8654
 21
101.539
  0
LINE
  8
0
 10
26.8654
 20
101.539
 11
26.8196
 21
101.487
  0
LINE
  8
0
 10
26.8196
 20
101.487
 11
26.772
 21
101.436
  0
LINE
  8
0
 10
26.772
 20
101.436
 11
26.7226
 21
101.386
  0
LINE
  8
0
 10
26.7226
 20
101.386
 11
26.6716
 21
101.339
  0
LINE
  8
0
 10
26.6716
 20
101.339
 11
26.6189
 21
101.293
  0
LINE
  8
0
 10
26.6189
 20
101.293
 11
26.5647
 21
101.249
  0
LINE
  8
0
 10
26.5647
 20
101.249
 11
26.5089
 21
101.207
  0
LINE
  8
0
 10
26.5089
 20
101.207
 11
26.4517
 21
101.167
  0
LINE
  8
0
 10
26.4517
 20
101.167
 11
26.3932
 21
101.129
  0
LINE
  8
0
 10
26.3932
 20
101.129
 11
26.3333
 21
101.093
  0
LINE
  8
0
 10
26.3333
 20
101.093
 11
26.2723
 21
101.059
  0
LINE
  8
0
 10
26.2723
 20
101.059
 11
26.2101
 21
101.027
  0
LINE
  8
0
 10
26.2101
 20
101.027
 11
26.1468
 21
100.998
  0
LINE
  8
0
 10
26.1468
 20
100.998
 11
26.0825
 21
100.971
  0
LINE
  8
0
 10
26.0825
 20
100.971
 11
26.0174
 21
100.946
  0
LINE
  8
0
 10
26.0174
 20
100.946
 11
25.9514
 21
100.923
  0
LINE
  8
0
 10
25.9514
 20
100.923
 11
25.8846
 21
100.902
  0
LINE
  8
0
 10
25.8846
 20
100.902
 11
25.8172
 21
100.884
  0
LINE
  8
0
 10
25.8172
 20
100.884
 11
25.7491
 21
100.869
  0
LINE
  8
0
 10
25.7491
 20
100.869
 11
25.6806
 21
100.855
  0
LINE
  8
0
 10
25.6806
 20
100.855
 11
25.6117
 21
100.844
  0
LINE
  8
0
 10
25.6117
 20
100.844
 11
25.5424
 21
100.836
  0
LINE
  8
0
 10
25.5424
 20
100.836
 11
25.4728
 21
100.83
  0
LINE
  8
0
 10
25.4728
 20
100.83
 11
25.4031
 21
100.826
  0
LINE
  8
0
 10
25.4031
 20
100.826
 11
25.3333
 21
100.825
  0
LINE
  8
0
 10
25.3333
 20
100.825
 11
25.2635
 21
100.826
  0
LINE
  8
0
 10
75.9302
 20
100.826
 11
75.8605
 21
100.83
  0
LINE
  8
0
 10
75.8605
 20
100.83
 11
75.7909
 21
100.836
  0
LINE
  8
0
 10
75.7909
 20
100.836
 11
75.7216
 21
100.844
  0
LINE
  8
0
 10
75.7216
 20
100.844
 11
75.6527
 21
100.855
  0
LINE
  8
0
 10
75.6527
 20
100.855
 11
75.5842
 21
100.869
  0
LINE
  8
0
 10
75.5842
 20
100.869
 11
75.5161
 21
100.884
  0
LINE
  8
0
 10
75.5161
 20
100.884
 11
75.4487
 21
100.902
  0
LINE
  8
0
 10
75.4487
 20
100.902
 11
75.382
 21
100.923
  0
LINE
  8
0
 10
75.382
 20
100.923
 11
75.3159
 21
100.946
  0
LINE
  8
0
 10
75.3159
 20
100.946
 11
75.2508
 21
100.971
  0
LINE
  8
0
 10
75.2508
 20
100.971
 11
75.1865
 21
100.998
  0
LINE
  8
0
 10
75.1865
 20
100.998
 11
75.1232
 21
101.027
  0
LINE
  8
0
 10
75.1232
 20
101.027
 11
75.0611
 21
101.059
  0
LINE
  8
0
 10
75.0611
 20
101.059
 11
75
 21
101.093
  0
LINE
  8
0
 10
75
 20
101.093
 11
74.9402
 21
101.129
  0
LINE
  8
0
 10
74.9402
 20
101.129
 11
74.8816
 21
101.167
  0
LINE
  8
0
 10
74.8816
 20
101.167
 11
74.8244
 21
101.207
  0
LINE
  8
0
 10
74.8244
 20
101.207
 11
74.7687
 21
101.249
  0
LINE
  8
0
 10
74.7687
 20
101.249
 11
74.7144
 21
101.293
  0
LINE
  8
0
 10
74.7144
 20
101.293
 11
74.6617
 21
101.339
  0
LINE
  8
0
 10
74.6617
 20
101.339
 11
74.6107
 21
101.386
  0
LINE
  8
0
 10
74.6107
 20
101.386
 11
74.5613
 21
101.436
  0
LINE
  8
0
 10
74.5613
 20
101.436
 11
74.5137
 21
101.487
  0
LINE
  8
0
 10
74.5137
 20
101.487
 11
74.4679
 21
101.539
  0
LINE
  8
0
 10
74.4679
 20
101.539
 11
74.424
 21
101.594
  0
LINE
  8
0
 10
74.424
 20
101.594
 11
74.382
 21
101.649
  0
LINE
  8
0
 10
74.382
 20
101.649
 11
74.3419
 21
101.707
  0
LINE
  8
0
 10
74.3419
 20
101.707
 11
74.3039
 21
101.765
  0
LINE
  8
0
 10
74.3039
 20
101.765
 11
74.2679
 21
101.825
  0
LINE
  8
0
 10
74.2679
 20
101.825
 11
74.2341
 21
101.886
  0
LINE
  8
0
 10
74.2341
 20
101.886
 11
74.2024
 21
101.948
  0
LINE
  8
0
 10
74.2024
 20
101.948
 11
74.1729
 21
102.012
  0
LINE
  8
0
 10
74.1729
 20
102.012
 11
74.1456
 21
102.076
  0
LINE
  8
0
 10
74.1456
 20
102.076
 11
74.1206
 21
102.141
  0
LINE
  8
0
 10
74.1206
 20
102.141
 11
74.0979
 21
102.207
  0
LINE
  8
0
 10
74.0979
 20
102.207
 11
74.0775
 21
102.274
  0
LINE
  8
0
 10
74.0775
 20
102.274
 11
74.0594
 21
102.341
  0
LINE
  8
0
 10
74.0594
 20
102.341
 11
74.0437
 21
102.409
  0
LINE
  8
0
 10
74.0437
 20
102.409
 11
74.0304
 21
102.478
  0
LINE
  8
0
 10
74.0304
 20
102.478
 11
74.0195
 21
102.547
  0
LINE
  8
0
 10
74.0195
 20
102.547
 11
74.011
 21
102.616
  0
LINE
  8
0
 10
74.011
 20
102.616
 11
74.0049
 21
102.685
  0
LINE
  8
0
 10
74.0049
 20
102.685
 11
74.0012
 21
102.755
  0
LINE
  8
0
 10
74.0012
 20
102.755
 11
74
 21
102.825
  0
LINE
  8
0
 10
74
 20
102.825
 11
74.0012
 21
102.895
  0
LINE
  8
0
 10
74.0012
 20
102.895
 11
74.0049
 21
102.965
  0
LINE
  8
0
 10
74.0049
 20
102.965
 11
74.011
 21
103.034
  0
LINE
  8
0
 10
74.011
 20
103.034
 11
74.0195
 21
103.103
  0
LINE
  8
0
 10
74.0195
 20
103.103
 11
74.0304
 21
103.172
  0
LINE
  8
0
 10
74.0304
 20
103.172
 11
74.0437
 21
103.241
  0
LINE
  8
0
 10
74.0437
 20
103.241
 11
74.0594
 21
103.309
  0
LINE
  8
0
 10
74.0594
 20
103.309
 11
74.0775
 21
103.376
  0
LINE
  8
0
 10
74.0775
 20
103.376
 11
74.0979
 21
103.443
  0
LINE
  8
0
 10
74.0979
 20
103.443
 11
74.1206
 21
103.509
  0
LINE
  8
0
 10
74.1206
 20
103.509
 11
74.1456
 21
103.574
  0
LINE
  8
0
 10
74.1456
 20
103.574
 11
74.1729
 21
103.638
  0
LINE
  8
0
 10
74.1729
 20
103.638
 11
74.2024
 21
103.702
  0
LINE
  8
0
 10
74.2024
 20
103.702
 11
74.2341
 21
103.764
  0
LINE
  8
0
 10
74.2341
 20
103.764
 11
74.2679
 21
103.825
  0
LINE
  8
0
 10
74.2679
 20
103.825
 11
74.3039
 21
103.885
  0
LINE
  8
0
 10
74.3039
 20
103.885
 11
74.3419
 21
103.943
  0
LINE
  8
0
 10
74.3419
 20
103.943
 11
74.382
 21
104.001
  0
LINE
  8
0
 10
74.382
 20
104.001
 11
74.424
 21
104.056
  0
LINE
  8
0
 10
74.424
 20
104.056
 11
74.4679
 21
104.111
  0
LINE
  8
0
 10
74.4679
 20
104.111
 11
74.5137
 21
104.163
  0
LINE
  8
0
 10
74.5137
 20
104.163
 11
74.5613
 21
104.214
  0
LINE
  8
0
 10
74.5613
 20
104.214
 11
74.6107
 21
104.264
  0
LINE
  8
0
 10
74.6107
 20
104.264
 11
74.6617
 21
104.311
  0
LINE
  8
0
 10
74.6617
 20
104.311
 11
74.7144
 21
104.357
  0
LINE
  8
0
 10
74.7144
 20
104.357
 11
74.7687
 21
104.401
  0
LINE
  8
0
 10
74.7687
 20
104.401
 11
74.8244
 21
104.443
  0
LINE
  8
0
 10
74.8244
 20
104.443
 11
74.8816
 21
104.483
  0
LINE
  8
0
 10
74.8816
 20
104.483
 11
74.9402
 21
104.521
  0
LINE
  8
0
 10
74.9402
 20
104.521
 11
75
 21
104.557
  0
LINE
  8
0
 10
75
 20
104.557
 11
75.0611
 21
104.591
  0
LINE
  8
0
 10
75.0611
 20
104.591
 11
75.1232
 21
104.623
  0
LINE
  8
0
 10
75.1232
 20
104.623
 11
75.1865
 21
104.652
  0
LINE
  8
0
 10
75.1865
 20
104.652
 11
75.2508
 21
104.679
  0
LINE
  8
0
 10
75.2508
 20
104.679
 11
75.3159
 21
104.704
  0
LINE
  8
0
 10
75.3159
 20
104.704
 11
75.382
 21
104.727
  0
LINE
  8
0
 10
75.382
 20
104.727
 11
75.4487
 21
104.748
  0
LINE
  8
0
 10
75.4487
 20
104.748
 11
75.5161
 21
104.766
  0
LINE
  8
0
 10
75.5161
 20
104.766
 11
75.5842
 21
104.781
  0
LINE
  8
0
 10
75.5842
 20
104.781
 11
75.6527
 21
104.795
  0
LINE
  8
0
 10
75.6527
 20
104.795
 11
75.7216
 21
104.806
  0
LINE
  8
0
 10
75.7216
 20
104.806
 11
75.7909
 21
104.814
  0
LINE
  8
0
 10
75.7909
 20
104.814
 11
75.8605
 21
104.82
  0
LINE
  8
0
 10
75.8605
 20
104.82
 11
75.9302
 21
104.824
  0
LINE
  8
0
 10
75.9302
 20
104.824
 11
76
 21
104.825
  0
LINE
  8
0
 10
76
 20
104.825
 11
76.0698
 21
104.824
  0
LINE
  8
0
 10
76.0698
 20
104.824
 11
76.1395
 21
104.82
  0
LINE
  8
0
 10
76.1395
 20
104.82
 11
76.209
 21
104.814
  0
LINE
  8
0
 10
76.209
 20
104.814
 11
76.2783
 21
104.806
  0
LINE
  8
0
 10
76.2783
 20
104.806
 11
76.3473
 21
104.795
  0
LINE
  8
0
 10
76.3473
 20
104.795
 11
76.4158
 21
104.781
  0
LINE
  8
0
 10
76.4158
 20
104.781
 11
76.4838
 21
104.766
  0
LINE
  8
0
 10
76.4838
 20
104.766
 11
76.5513
 21
104.748
  0
LINE
  8
0
 10
76.5513
 20
104.748
 11
76.618
 21
104.727
  0
LINE
  8
0
 10
76.618
 20
104.727
 11
76.684
 21
104.704
  0
LINE
  8
0
 10
76.684
 20
104.704
 11
76.7492
 21
104.679
  0
LINE
  8
0
 10
76.7492
 20
104.679
 11
76.8135
 21
104.652
  0
LINE
  8
0
 10
76.8135
 20
104.652
 11
76.8767
 21
104.623
  0
LINE
  8
0
 10
76.8767
 20
104.623
 11
76.9389
 21
104.591
  0
LINE
  8
0
 10
76.9389
 20
104.591
 11
77
 21
104.557
  0
LINE
  8
0
 10
77
 20
104.557
 11
77.0598
 21
104.521
  0
LINE
  8
0
 10
77.0598
 20
104.521
 11
77.1184
 21
104.483
  0
LINE
  8
0
 10
77.1184
 20
104.483
 11
77.1756
 21
104.443
  0
LINE
  8
0
 10
77.1756
 20
104.443
 11
77.2313
 21
104.401
  0
LINE
  8
0
 10
77.2313
 20
104.401
 11
77.2856
 21
104.357
  0
LINE
  8
0
 10
77.2856
 20
104.357
 11
77.3383
 21
104.311
  0
LINE
  8
0
 10
77.3383
 20
104.311
 11
77.3893
 21
104.264
  0
LINE
  8
0
 10
77.3893
 20
104.264
 11
77.4387
 21
104.214
  0
LINE
  8
0
 10
77.4387
 20
104.214
 11
77.4863
 21
104.163
  0
LINE
  8
0
 10
77.4863
 20
104.163
 11
77.5321
 21
104.111
  0
LINE
  8
0
 10
77.5321
 20
104.111
 11
77.576
 21
104.056
  0
LINE
  8
0
 10
77.576
 20
104.056
 11
77.618
 21
104.001
  0
LINE
  8
0
 10
77.618
 20
104.001
 11
77.6581
 21
103.943
  0
LINE
  8
0
 10
77.6581
 20
103.943
 11
77.6961
 21
103.885
  0
LINE
  8
0
 10
77.6961
 20
103.885
 11
77.732
 21
103.825
  0
LINE
  8
0
 10
77.732
 20
103.825
 11
77.7659
 21
103.764
  0
LINE
  8
0
 10
77.7659
 20
103.764
 11
77.7976
 21
103.702
  0
LINE
  8
0
 10
77.7976
 20
103.702
 11
77.8271
 21
103.638
  0
LINE
  8
0
 10
77.8271
 20
103.638
 11
77.8544
 21
103.574
  0
LINE
  8
0
 10
77.8544
 20
103.574
 11
77.8794
 21
103.509
  0
LINE
  8
0
 10
77.8794
 20
103.509
 11
77.9021
 21
103.443
  0
LINE
  8
0
 10
77.9021
 20
103.443
 11
77.9225
 21
103.376
  0
LINE
  8
0
 10
77.9225
 20
103.376
 11
77.9406
 21
103.309
  0
LINE
  8
0
 10
77.9406
 20
103.309
 11
77.9563
 21
103.241
  0
LINE
  8
0
 10
77.9563
 20
103.241
 11
77.9696
 21
103.172
  0
LINE
  8
0
 10
77.9696
 20
103.172
 11
77.9805
 21
103.103
  0
LINE
  8
0
 10
77.9805
 20
103.103
 11
77.989
 21
103.034
  0
LINE
  8
0
 10
77.989
 20
103.034
 11
77.9951
 21
102.965
  0
LINE
  8
0
 10
77.9951
 20
102.965
 11
77.9988
 21
102.895
  0
LINE
  8
0
 10
77.9988
 20
102.895
 11
78
 21
102.825
  0
LINE
  8
0
 10
78
 20
102.825
 11
77.9988
 21
102.755
  0
LINE
  8
0
 10
77.9988
 20
102.755
 11
77.9951
 21
102.685
  0
LINE
  8
0
 10
77.9951
 20
102.685
 11
77.989
 21
102.616
  0
LINE
  8
0
 10
77.989
 20
102.616
 11
77.9805
 21
102.547
  0
LINE
  8
0
 10
77.9805
 20
102.547
 11
77.9696
 21
102.478
  0
LINE
  8
0
 10
77.9696
 20
102.478
 11
77.9563
 21
102.409
  0
LINE
  8
0
 10
77.9563
 20
102.409
 11
77.9406
 21
102.341
  0
LINE
  8
0
 10
77.9406
 20
102.341
 11
77.9225
 21
102.274
  0
LINE
  8
0
 10
77.9225
 20
102.274
 11
77.9021
 21
102.207
  0
LINE
  8
0
 10
77.9021
 20
102.207
 11
77.8794
 21
102.141
  0
LINE
  8
0
 10
77.8794
 20
102.141
 11
77.8544
 21
102.076
  0
LINE
  8
0
 10
77.8544
 20
102.076
 11
77.8271
 21
102.012
  0
LINE
  8
0
 10
77.8271
 20
102.012
 11
77.7976
 21
101.948
  0
LINE
  8
0
 10
77.7976
 20
101.948
 11
77.7659
 21
101.886
  0
LINE
  8
0
 10
77.7659
 20
101.886
 11
77.732
 21
101.825
  0
LINE
  8
0
 10
77.732
 20
101.825
 11
77.6961
 21
101.765
  0
LINE
  8
0
 10
77.6961
 20
101.765
 11
77.6581
 21
101.707
  0
LINE
  8
0
 10
77.6581
 20
101.707
 11
77.618
 21
101.649
  0
LINE
  8
0
 10
77.618
 20
101.649
 11
77.576
 21
101.594
  0
LINE
  8
0
 10
77.576
 20
101.594
 11
77.5321
 21
101.539
  0
LINE
  8
0
 10
77.5321
 20
101.539
 11
77.4863
 21
101.487
  0
LINE
  8
0
 10
77.4863
 20
101.487
 11
77.4387
 21
101.436
  0
LINE
  8
0
 10
77.4387
 20
101.436
 11
77.3893
 21
101.386
  0
LINE
  8
0
 10
77.3893
 20
101.386
 11
77.3383
 21
101.339
  0
LINE
  8
0
 10
77.3383
 20
101.339
 11
77.2856
 21
101.293
  0
LINE
  8
0
 10
77.2856
 20
101.293
 11
77.2313
 21
101.249
  0
LINE
  8
0
 10
77.2313
 20
101.249
 11
77.1756
 21
101.207
  0
LINE
  8
0
 10
77.1756
 20
101.207
 11
77.1184
 21
101.167
  0
LINE
  8
0
 10
77.1184
 20
101.167
 11
77.0598
 21
101.129
  0
LINE
  8
0
 10
77.0598
 20
101.129
 11
77
 21
101.093
  0
LINE
  8
0
 10
77
 20
101.093
 11
76.9389
 21
101.059
  0
LINE
  8
0
 10
76.9389
 20
101.059
 11
76.8767
 21
101.027
  0
LINE
  8
0
 10
76.8767
 20
101.027
 11
76.8135
 21
100.998
  0
LINE
  8
0
 10
76.8135
 20
100.998
 11
76.7492
 21
100.971
  0
LINE
  8
0
 10
76.7492
 20
100.971
 11
76.684
 21
100.946
  0
LINE
  8
0
 10
76.684
 20
100.946
 11
76.618
 21
100.923
  0
LINE
  8
0
 10
76.618
 20
100.923
 11
76.5513
 21
100.902
  0
LINE
  8
0
 10
76.5513
 20
100.902
 11
76.4838
 21
100.884
  0
LINE
  8
0
 10
76.4838
 20
100.884
 11
76.4158
 21
100.869
  0
LINE
  8
0
 10
76.4158
 20
100.869
 11
76.3473
 21
100.855
  0
LINE
  8
0
 10
76.3473
 20
100.855
 11
76.2783
 21
100.844
  0
LINE
  8
0
 10
76.2783
 20
100.844
 11
76.209
 21
100.836
  0
LINE
  8
0
 10
76.209
 20
100.836
 11
76.1395
 21
100.83
  0
LINE
  8
0
 10
76.1395
 20
100.83
 11
76.0698
 21
100.826
  0
LINE
  8
0
 10
76.0698
 20
100.826
 11
76
 21
100.825
  0
LINE
  8
0
 10
76
 20
100.825
 11
75.9302
 21
100.826
  0
LINE
  8
0
 10
126.597
 20
100.826
 11
126.527
 21
100.83
  0
LINE
  8
0
 10
126.527
 20
100.83
 11
126.458
 21
100.836
  0
LINE
  8
0
 10
126.458
 20
100.836
 11
126.388
 21
100.844
  0
LINE
  8
0
 10
126.388
 20
100.844
 11
126.319
 21
100.855
  0
LINE
  8
0
 10
126.319
 20
100.855
 11
126.251
 21
100.869
  0
LINE
  8
0
 10
126.251
 20
100.869
 11
126.183
 21
100.884
  0
LINE
  8
0
 10
126.183
 20
100.884
 11
126.115
 21
100.902
  0
LINE
  8
0
 10
126.115
 20
100.902
 11
126.049
 21
100.923
  0
LINE
  8
0
 10
126.049
 20
100.923
 11
125.983
 21
100.946
  0
LINE
  8
0
 10
125.983
 20
100.946
 11
125.917
 21
100.971
  0
LINE
  8
0
 10
125.917
 20
100.971
 11
125.853
 21
100.998
  0
LINE
  8
0
 10
125.853
 20
100.998
 11
125.79
 21
101.027
  0
LINE
  8
0
 10
125.79
 20
101.027
 11
125.728
 21
101.059
  0
LINE
  8
0
 10
125.728
 20
101.059
 11
125.667
 21
101.093
  0
LINE
  8
0
 10
125.667
 20
101.093
 11
125.607
 21
101.129
  0
LINE
  8
0
 10
125.607
 20
101.129
 11
125.548
 21
101.167
  0
LINE
  8
0
 10
125.548
 20
101.167
 11
125.491
 21
101.207
  0
LINE
  8
0
 10
125.491
 20
101.207
 11
125.435
 21
101.249
  0
LINE
  8
0
 10
125.435
 20
101.249
 11
125.381
 21
101.293
  0
LINE
  8
0
 10
125.381
 20
101.293
 11
125.328
 21
101.339
  0
LINE
  8
0
 10
125.328
 20
101.339
 11
125.277
 21
101.386
  0
LINE
  8
0
 10
125.277
 20
101.386
 11
125.228
 21
101.436
  0
LINE
  8
0
 10
125.228
 20
101.436
 11
125.18
 21
101.487
  0
LINE
  8
0
 10
125.18
 20
101.487
 11
125.135
 21
101.539
  0
LINE
  8
0
 10
125.135
 20
101.539
 11
125.091
 21
101.594
  0
LINE
  8
0
 10
125.091
 20
101.594
 11
125.049
 21
101.649
  0
LINE
  8
0
 10
125.049
 20
101.649
 11
125.009
 21
101.707
  0
LINE
  8
0
 10
125.009
 20
101.707
 11
124.971
 21
101.765
  0
LINE
  8
0
 10
124.971
 20
101.765
 11
124.935
 21
101.825
  0
LINE
  8
0
 10
124.935
 20
101.825
 11
124.901
 21
101.886
  0
LINE
  8
0
 10
124.901
 20
101.886
 11
124.869
 21
101.948
  0
LINE
  8
0
 10
124.869
 20
101.948
 11
124.84
 21
102.012
  0
LINE
  8
0
 10
124.84
 20
102.012
 11
124.812
 21
102.076
  0
LINE
  8
0
 10
124.812
 20
102.076
 11
124.787
 21
102.141
  0
LINE
  8
0
 10
124.787
 20
102.141
 11
124.765
 21
102.207
  0
LINE
  8
0
 10
124.765
 20
102.207
 11
124.744
 21
102.274
  0
LINE
  8
0
 10
124.744
 20
102.274
 11
124.726
 21
102.341
  0
LINE
  8
0
 10
124.726
 20
102.341
 11
124.71
 21
102.409
  0
LINE
  8
0
 10
124.71
 20
102.409
 11
124.697
 21
102.478
  0
LINE
  8
0
 10
124.697
 20
102.478
 11
124.686
 21
102.547
  0
LINE
  8
0
 10
124.686
 20
102.547
 11
124.678
 21
102.616
  0
LINE
  8
0
 10
124.678
 20
102.616
 11
124.672
 21
102.685
  0
LINE
  8
0
 10
124.672
 20
102.685
 11
124.668
 21
102.755
  0
LINE
  8
0
 10
124.668
 20
102.755
 11
124.667
 21
102.825
  0
LINE
  8
0
 10
124.667
 20
102.825
 11
124.668
 21
102.895
  0
LINE
  8
0
 10
124.668
 20
102.895
 11
124.672
 21
102.965
  0
LINE
  8
0
 10
124.672
 20
102.965
 11
124.678
 21
103.034
  0
LINE
  8
0
 10
124.678
 20
103.034
 11
124.686
 21
103.103
  0
LINE
  8
0
 10
124.686
 20
103.103
 11
124.697
 21
103.172
  0
LINE
  8
0
 10
124.697
 20
103.172
 11
124.71
 21
103.241
  0
LINE
  8
0
 10
124.71
 20
103.241
 11
124.726
 21
103.309
  0
LINE
  8
0
 10
124.726
 20
103.309
 11
124.744
 21
103.376
  0
LINE
  8
0
 10
124.744
 20
103.376
 11
124.765
 21
103.443
  0
LINE
  8
0
 10
124.765
 20
103.443
 11
124.787
 21
103.509
  0
LINE
  8
0
 10
124.787
 20
103.509
 11
124.812
 21
103.574
  0
LINE
  8
0
 10
124.812
 20
103.574
 11
124.84
 21
103.638
  0
LINE
  8
0
 10
124.84
 20
103.638
 11
124.869
 21
103.702
  0
LINE
  8
0
 10
124.869
 20
103.702
 11
124.901
 21
103.764
  0
LINE
  8
0
 10
124.901
 20
103.764
 11
124.935
 21
103.825
  0
LINE
  8
0
 10
124.935
 20
103.825
 11
124.971
 21
103.885
  0
LINE
  8
0
 10
124.971
 20
103.885
 11
125.009
 21
103.943
  0
LINE
  8
0
 10
125.009
 20
103.943
 11
125.049
 21
104.001
  0
LINE
  8
0
 10
125.049
 20
104.001
 11
125.091
 21
104.056
  0
LINE
  8
0
 10
125.091
 20
104.056
 11
125.135
 21
104.111
  0
LINE
  8
0
 10
125.135
 20
104.111
 11
125.18
 21
104.163
  0
LINE
  8
0
 10
125.18
 20
104.163
 11
125.228
 21
104.214
  0
LINE
  8
0
 10
125.228
 20
104.214
 11
125.277
 21
104.264
  0
LINE
  8
0
 10
125.277
 20
104.264
 11
125.328
 21
104.311
  0
LINE
  8
0
 10
125.328
 20
104.311
 11
125.381
 21
104.357
  0
LINE
  8
0
 10
125.381
 20
104.357
 11
125.435
 21
104.401
  0
LINE
  8
0
 10
125.435
 20
104.401
 11
125.491
 21
104.443
  0
LINE
  8
0
 10
125.491
 20
104.443
 11
125.548
 21
104.483
  0
LINE
  8
0
 10
125.548
 20
104.483
 11
125.607
 21
104.521
  0
LINE
  8
0
 10
125.607
 20
104.521
 11
125.667
 21
104.557
  0
LINE
  8
0
 10
125.667
 20
104.557
 11
125.728
 21
104.591
  0
LINE
  8
0
 10
125.728
 20
104.591
 11
125.79
 21
104.623
  0
LINE
  8
0
 10
125.79
 20
104.623
 11
125.853
 21
104.652
  0
LINE
  8
0
 10
125.853
 20
104.652
 11
125.917
 21
104.679
  0
LINE
  8
0
 10
125.917
 20
104.679
 11
125.983
 21
104.704
  0
LINE
  8
0
 10
125.983
 20
104.704
 11
126.049
 21
104.727
  0
LINE
  8
0
 10
126.049
 20
104.727
 11
126.115
 21
104.748
  0
LINE
  8
0
 10
126.115
 20
104.748
 11
126.183
 21
104.766
  0
LINE
  8
0
 10
126.183
 20
104.766
 11
126.251
 21
104.781
  0
LINE
  8
0
 10
126.251
 20
104.781
 11
126.319
 21
104.795
  0
LINE
  8
0
 10
126.319
 20
104.795
 11
126.388
 21
104.806
  0
LINE
  8
0
 10
126.388
 20
104.806
 11
126.458
 21
104.814
  0
LINE
  8
0
 10
126.458
 20
104.814
 11
126.527
 21
104.82
  0
LINE
  8
0
 10
126.527
 20
104.82
 11
126.597
 21
104.824
  0
LINE
  8
0
 10
126.597
 20
104.824
 11
126.667
 21
104.825
  0
LINE
  8
0
 10
126.667
 20
104.825
 11
126.736
 21
104.824
  0
LINE
  8
0
 10
126.736
 20
104.824
 11
126.806
 21
104.82
  0
LINE
  8
0
 10
126.806
 20
104.82
 11
126.876
 21
104.814
  0
LINE
  8
0
 10
126.876
 20
104.814
 11
126.945
 21
104.806
  0
LINE
  8
0
 10
126.945
 20
104.806
 11
127.014
 21
104.795
  0
LINE
  8
0
 10
127.014
 20
104.795
 11
127.082
 21
104.781
  0
LINE
  8
0
 10
127.082
 20
104.781
 11
127.15
 21
104.766
  0
LINE
  8
0
 10
127.15
 20
104.766
 11
127.218
 21
104.748
  0
LINE
  8
0
 10
127.218
 20
104.748
 11
127.285
 21
104.727
  0
LINE
  8
0
 10
127.285
 20
104.727
 11
127.351
 21
104.704
  0
LINE
  8
0
 10
127.351
 20
104.704
 11
127.416
 21
104.679
  0
LINE
  8
0
 10
127.416
 20
104.679
 11
127.48
 21
104.652
  0
LINE
  8
0
 10
127.48
 20
104.652
 11
127.543
 21
104.623
  0
LINE
  8
0
 10
127.543
 20
104.623
 11
127.606
 21
104.591
  0
LINE
  8
0
 10
127.606
 20
104.591
 11
127.667
 21
104.557
  0
LINE
  8
0
 10
127.667
 20
104.557
 11
127.727
 21
104.521
  0
LINE
  8
0
 10
127.727
 20
104.521
 11
127.785
 21
104.483
  0
LINE
  8
0
 10
127.785
 20
104.483
 11
127.842
 21
104.443
  0
LINE
  8
0
 10
127.842
 20
104.443
 11
127.898
 21
104.401
  0
LINE
  8
0
 10
127.898
 20
104.401
 11
127.952
 21
104.357
  0
LINE
  8
0
 10
127.952
 20
104.357
 11
128.005
 21
104.311
  0
LINE
  8
0
 10
128.005
 20
104.311
 11
128.056
 21
104.264
  0
LINE
  8
0
 10
128.056
 20
104.264
 11
128.105
 21
104.214
  0
LINE
  8
0
 10
128.105
 20
104.214
 11
128.153
 21
104.163
  0
LINE
  8
0
 10
128.153
 20
104.163
 11
128.199
 21
104.111
  0
LINE
  8
0
 10
128.199
 20
104.111
 11
128.243
 21
104.056
  0
LINE
  8
0
 10
128.243
 20
104.056
 11
128.285
 21
104.001
  0
LINE
  8
0
 10
128.285
 20
104.001
 11
128.325
 21
103.943
  0
LINE
  8
0
 10
128.325
 20
103.943
 11
128.363
 21
103.885
  0
LINE
  8
0
 10
128.363
 20
103.885
 11
128.399
 21
103.825
  0
LINE
  8
0
 10
128.399
 20
103.825
 11
128.433
 21
103.764
  0
LINE
  8
0
 10
128.433
 20
103.764
 11
128.464
 21
103.702
  0
LINE
  8
0
 10
128.464
 20
103.702
 11
128.494
 21
103.638
  0
LINE
  8
0
 10
128.494
 20
103.638
 11
128.521
 21
103.574
  0
LINE
  8
0
 10
128.521
 20
103.574
 11
128.546
 21
103.509
  0
LINE
  8
0
 10
128.546
 20
103.509
 11
128.569
 21
103.443
  0
LINE
  8
0
 10
128.569
 20
103.443
 11
128.589
 21
103.376
  0
LINE
  8
0
 10
128.589
 20
103.376
 11
128.607
 21
103.309
  0
LINE
  8
0
 10
128.607
 20
103.309
 11
128.623
 21
103.241
  0
LINE
  8
0
 10
128.623
 20
103.241
 11
128.636
 21
103.172
  0
LINE
  8
0
 10
128.636
 20
103.172
 11
128.647
 21
103.103
  0
LINE
  8
0
 10
128.647
 20
103.103
 11
128.656
 21
103.034
  0
LINE
  8
0
 10
128.656
 20
103.034
 11
128.662
 21
102.965
  0
LINE
  8
0
 10
128.662
 20
102.965
 11
128.665
 21
102.895
  0
LINE
  8
0
 10
128.665
 20
102.895
 11
128.667
 21
102.825
  0
LINE
  8
0
 10
128.667
 20
102.825
 11
128.665
 21
102.755
  0
LINE
  8
0
 10
128.665
 20
102.755
 11
128.662
 21
102.685
  0
LINE
  8
0
 10
128.662
 20
102.685
 11
128.656
 21
102.616
  0
LINE
  8
0
 10
128.656
 20
102.616
 11
128.647
 21
102.547
  0
LINE
  8
0
 10
128.647
 20
102.547
 11
128.636
 21
102.478
  0
LINE
  8
0
 10
128.636
 20
102.478
 11
128.623
 21
102.409
  0
LINE
  8
0
 10
128.623
 20
102.409
 11
128.607
 21
102.341
  0
LINE
  8
0
 10
128.607
 20
102.341
 11
128.589
 21
102.274
  0
LINE
  8
0
 10
128.589
 20
102.274
 11
128.569
 21
102.207
  0
LINE
  8
0
 10
128.569
 20
102.207
 11
128.546
 21
102.141
  0
LINE
  8
0
 10
128.546
 20
102.141
 11
128.521
 21
102.076
  0
LINE
  8
0
 10
128.521
 20
102.076
 11
128.494
 21
102.012
  0
LINE
  8
0
 10
128.494
 20
102.012
 11
128.464
 21
101.948
  0
LINE
  8
0
 10
128.464
 20
101.948
 11
128.433
 21
101.886
  0
LINE
  8
0
 10
128.433
 20
101.886
 11
128.399
 21
101.825
  0
LINE
  8
0
 10
128.399
 20
101.825
 11
128.363
 21
101.765
  0
LINE
  8
0
 10
128.363
 20
101.765
 11
128.325
 21
101.707
  0
LINE
  8
0
 10
128.325
 20
101.707
 11
128.285
 21
101.649
  0
LINE
  8
0
 10
128.285
 20
101.649
 11
128.243
 21
101.594
  0
LINE
  8
0
 10
128.243
 20
101.594
 11
128.199
 21
101.539
  0
LINE
  8
0
 10
128.199
 20
101.539
 11
128.153
 21
101.487
  0
LINE
  8
0
 10
128.153
 20
101.487
 11
128.105
 21
101.436
  0
LINE
  8
0
 10
128.105
 20
101.436
 11
128.056
 21
101.386
  0
LINE
  8
0
 10
128.056
 20
101.386
 11
128.005
 21
101.339
  0
LINE
  8
0
 10
128.005
 20
101.339
 11
127.952
 21
101.293
  0
LINE
  8
0
 10
127.952
 20
101.293
 11
127.898
 21
101.249
  0
LINE
  8
0
 10
127.898
 20
101.249
 11
127.842
 21
101.207
  0
LINE
  8
0
 10
127.842
 20
101.207
 11
127.785
 21
101.167
  0
LINE
  8
0
 10
127.785
 20
101.167
 11
127.727
 21
101.129
  0
LINE
  8
0
 10
127.727
 20
101.129
 11
127.667
 21
101.093
  0
LINE
  8
0
 10
127.667
 20
101.093
 11
127.606
 21
101.059
  0
LINE
  8
0
 10
127.606
 20
101.059
 11
127.543
 21
101.027
  0
LINE
  8
0
 10
127.543
 20
101.027
 11
127.48
 21
100.998
  0
LINE
  8
0
 10
127.48
 20
100.998
 11
127.416
 21
100.971
  0
LINE
  8
0
 10
127.416
 20
100.971
 11
127.351
 21
100.946
  0
LINE
  8
0
 10
127.351
 20
100.946
 11
127.285
 21
100.923
  0
LINE
  8
0
 10
127.285
 20
100.923
 11
127.218
 21
100.902
  0
LINE
  8
0
 10
127.218
 20
100.902
 11
127.15
 21
100.884
  0
LINE
  8
0
 10
127.15
 20
100.884
 11
127.082
 21
100.869
  0
LINE
  8
0
 10
127.082
 20
100.869
 11
127.014
 21
100.855
  0
LINE
  8
0
 10
127.014
 20
100.855
 11
126.945
 21
100.844
  0
LINE
  8
0
 10
126.945
 20
100.844
 11
126.876
 21
100.836
  0
LINE
  8
0
 10
126.876
 20
100.836
 11
126.806
 21
100.83
  0
LINE
  8
0
 10
126.806
 20
100.83
 11
126.736
 21
100.826
  0
LINE
  8
0
 10
126.736
 20
100.826
 11
126.667
 21
100.825
  0
LINE
  8
0
 10
126.667
 20
100.825
 11
126.597
 21
100.826
  0
LINE
  8
0
 10
177.264
 20
100.826
 11
177.194
 21
100.83
  0
LINE
  8
0
 10
177.194
 20
100.83
 11
177.124
 21
100.836
  0
LINE
  8
0
 10
177.124
 20
100.836
 11
177.055
 21
100.844
  0
LINE
  8
0
 10
177.055
 20
100.844
 11
176.986
 21
100.855
  0
LINE
  8
0
 10
176.986
 20
100.855
 11
176.917
 21
100.869
  0
LINE
  8
0
 10
176.917
 20
100.869
 11
176.849
 21
100.884
  0
LINE
  8
0
 10
176.849
 20
100.884
 11
176.782
 21
100.902
  0
LINE
  8
0
 10
176.782
 20
100.902
 11
176.715
 21
100.923
  0
LINE
  8
0
 10
176.715
 20
100.923
 11
176.649
 21
100.946
  0
LINE
  8
0
 10
176.649
 20
100.946
 11
176.584
 21
100.971
  0
LINE
  8
0
 10
176.584
 20
100.971
 11
176.52
 21
100.998
  0
LINE
  8
0
 10
176.52
 20
100.998
 11
176.457
 21
101.027
  0
LINE
  8
0
 10
176.457
 20
101.027
 11
176.394
 21
101.059
  0
LINE
  8
0
 10
176.394
 20
101.059
 11
176.333
 21
101.093
  0
LINE
  8
0
 10
176.333
 20
101.093
 11
176.273
 21
101.129
  0
LINE
  8
0
 10
176.273
 20
101.129
 11
176.215
 21
101.167
  0
LINE
  8
0
 10
176.215
 20
101.167
 11
176.158
 21
101.207
  0
LINE
  8
0
 10
176.158
 20
101.207
 11
176.102
 21
101.249
  0
LINE
  8
0
 10
176.102
 20
101.249
 11
176.048
 21
101.293
  0
LINE
  8
0
 10
176.048
 20
101.293
 11
175.995
 21
101.339
  0
LINE
  8
0
 10
175.995
 20
101.339
 11
175.944
 21
101.386
  0
LINE
  8
0
 10
175.944
 20
101.386
 11
175.895
 21
101.436
  0
LINE
  8
0
 10
175.895
 20
101.436
 11
175.847
 21
101.487
  0
LINE
  8
0
 10
175.847
 20
101.487
 11
175.801
 21
101.539
  0
LINE
  8
0
 10
175.801
 20
101.539
 11
175.757
 21
101.594
  0
LINE
  8
0
 10
175.757
 20
101.594
 11
175.715
 21
101.649
  0
LINE
  8
0
 10
175.715
 20
101.649
 11
175.675
 21
101.707
  0
LINE
  8
0
 10
175.675
 20
101.707
 11
175.637
 21
101.765
  0
LINE
  8
0
 10
175.637
 20
101.765
 11
175.601
 21
101.825
  0
LINE
  8
0
 10
175.601
 20
101.825
 11
175.567
 21
101.886
  0
LINE
  8
0
 10
175.567
 20
101.886
 11
175.536
 21
101.948
  0
LINE
  8
0
 10
175.536
 20
101.948
 11
175.506
 21
102.012
  0
LINE
  8
0
 10
175.506
 20
102.012
 11
175.479
 21
102.076
  0
LINE
  8
0
 10
175.479
 20
102.076
 11
175.454
 21
102.141
  0
LINE
  8
0
 10
175.454
 20
102.141
 11
175.431
 21
102.207
  0
LINE
  8
0
 10
175.431
 20
102.207
 11
175.411
 21
102.274
  0
LINE
  8
0
 10
175.411
 20
102.274
 11
175.393
 21
102.341
  0
LINE
  8
0
 10
175.393
 20
102.341
 11
175.377
 21
102.409
  0
LINE
  8
0
 10
175.377
 20
102.409
 11
175.364
 21
102.478
  0
LINE
  8
0
 10
175.364
 20
102.478
 11
175.353
 21
102.547
  0
LINE
  8
0
 10
175.353
 20
102.547
 11
175.344
 21
102.616
  0
LINE
  8
0
 10
175.344
 20
102.616
 11
175.338
 21
102.685
  0
LINE
  8
0
 10
175.338
 20
102.685
 11
175.335
 21
102.755
  0
LINE
  8
0
 10
175.335
 20
102.755
 11
175.333
 21
102.825
  0
LINE
  8
0
 10
175.333
 20
102.825
 11
175.335
 21
102.895
  0
LINE
  8
0
 10
175.335
 20
102.895
 11
175.338
 21
102.965
  0
LINE
  8
0
 10
175.338
 20
102.965
 11
175.344
 21
103.034
  0
LINE
  8
0
 10
175.344
 20
103.034
 11
175.353
 21
103.103
  0
LINE
  8
0
 10
175.353
 20
103.103
 11
175.364
 21
103.172
  0
LINE
  8
0
 10
175.364
 20
103.172
 11
175.377
 21
103.241
  0
LINE
  8
0
 10
175.377
 20
103.241
 11
175.393
 21
103.309
  0
LINE
  8
0
 10
175.393
 20
103.309
 11
175.411
 21
103.376
  0
LINE
  8
0
 10
175.411
 20
103.376
 11
175.431
 21
103.443
  0
LINE
  8
0
 10
175.431
 20
103.443
 11
175.454
 21
103.509
  0
LINE
  8
0
 10
175.454
 20
103.509
 11
175.479
 21
103.574
  0
LINE
  8
0
 10
175.479
 20
103.574
 11
175.506
 21
103.638
  0
LINE
  8
0
 10
175.506
 20
103.638
 11
175.536
 21
103.702
  0
LINE
  8
0
 10
175.536
 20
103.702
 11
175.567
 21
103.764
  0
LINE
  8
0
 10
175.567
 20
103.764
 11
175.601
 21
103.825
  0
LINE
  8
0
 10
175.601
 20
103.825
 11
175.637
 21
103.885
  0
LINE
  8
0
 10
175.637
 20
103.885
 11
175.675
 21
103.943
  0
LINE
  8
0
 10
175.675
 20
103.943
 11
175.715
 21
104.001
  0
LINE
  8
0
 10
175.715
 20
104.001
 11
175.757
 21
104.056
  0
LINE
  8
0
 10
175.757
 20
104.056
 11
175.801
 21
104.111
  0
LINE
  8
0
 10
175.801
 20
104.111
 11
175.847
 21
104.163
  0
LINE
  8
0
 10
175.847
 20
104.163
 11
175.895
 21
104.214
  0
LINE
  8
0
 10
175.895
 20
104.214
 11
175.944
 21
104.264
  0
LINE
  8
0
 10
175.944
 20
104.264
 11
175.995
 21
104.311
  0
LINE
  8
0
 10
175.995
 20
104.311
 11
176.048
 21
104.357
  0
LINE
  8
0
 10
176.048
 20
104.357
 11
176.102
 21
104.401
  0
LINE
  8
0
 10
176.102
 20
104.401
 11
176.158
 21
104.443
  0
LINE
  8
0
 10
176.158
 20
104.443
 11
176.215
 21
104.483
  0
LINE
  8
0
 10
176.215
 20
104.483
 11
176.273
 21
104.521
  0
LINE
  8
0
 10
176.273
 20
104.521
 11
176.333
 21
104.557
  0
LINE
  8
0
 10
176.333
 20
104.557
 11
176.394
 21
104.591
  0
LINE
  8
0
 10
176.394
 20
104.591
 11
176.457
 21
104.623
  0
LINE
  8
0
 10
176.457
 20
104.623
 11
176.52
 21
104.652
  0
LINE
  8
0
 10
176.52
 20
104.652
 11
176.584
 21
104.679
  0
LINE
  8
0
 10
176.584
 20
104.679
 11
176.649
 21
104.704
  0
LINE
  8
0
 10
176.649
 20
104.704
 11
176.715
 21
104.727
  0
LINE
  8
0
 10
176.715
 20
104.727
 11
176.782
 21
104.748
  0
LINE
  8
0
 10
176.782
 20
104.748
 11
176.849
 21
104.766
  0
LINE
  8
0
 10
176.849
 20
104.766
 11
176.917
 21
104.781
  0
LINE
  8
0
 10
176.917
 20
104.781
 11
176.986
 21
104.795
  0
LINE
  8
0
 10
176.986
 20
104.795
 11
177.055
 21
104.806
  0
LINE
  8
0
 10
177.055
 20
104.806
 11
177.124
 21
104.814
  0
LINE
  8
0
 10
177.124
 20
104.814
 11
177.194
 21
104.82
  0
LINE
  8
0
 10
177.194
 20
104.82
 11
177.264
 21
104.824
  0
LINE
  8
0
 10
177.264
 20
104.824
 11
177.333
 21
104.825
  0
LINE
  8
0
 10
177.333
 20
104.825
 11
177.403
 21
104.824
  0
LINE
  8
0
 10
177.403
 20
104.824
 11
177.473
 21
104.82
  0
LINE
  8
0
 10
177.473
 20
104.82
 11
177.542
 21
104.814
  0
LINE
  8
0
 10
177.542
 20
104.814
 11
177.612
 21
104.806
  0
LINE
  8
0
 10
177.612
 20
104.806
 11
177.681
 21
104.795
  0
LINE
  8
0
 10
177.681
 20
104.795
 11
177.749
 21
104.781
  0
LINE
  8
0
 10
177.749
 20
104.781
 11
177.817
 21
104.766
  0
LINE
  8
0
 10
177.817
 20
104.766
 11
177.885
 21
104.748
  0
LINE
  8
0
 10
177.885
 20
104.748
 11
177.951
 21
104.727
  0
LINE
  8
0
 10
177.951
 20
104.727
 11
178.017
 21
104.704
  0
LINE
  8
0
 10
178.017
 20
104.704
 11
178.083
 21
104.679
  0
LINE
  8
0
 10
178.083
 20
104.679
 11
178.147
 21
104.652
  0
LINE
  8
0
 10
178.147
 20
104.652
 11
178.21
 21
104.623
  0
LINE
  8
0
 10
178.21
 20
104.623
 11
178.272
 21
104.591
  0
LINE
  8
0
 10
178.272
 20
104.591
 11
178.333
 21
104.557
  0
LINE
  8
0
 10
178.333
 20
104.557
 11
178.393
 21
104.521
  0
LINE
  8
0
 10
178.393
 20
104.521
 11
178.452
 21
104.483
  0
LINE
  8
0
 10
178.452
 20
104.483
 11
178.509
 21
104.443
  0
LINE
  8
0
 10
178.509
 20
104.443
 11
178.565
 21
104.401
  0
LINE
  8
0
 10
178.565
 20
104.401
 11
178.619
 21
104.357
  0
LINE
  8
0
 10
178.619
 20
104.357
 11
178.672
 21
104.311
  0
LINE
  8
0
 10
178.672
 20
104.311
 11
178.723
 21
104.264
  0
LINE
  8
0
 10
178.723
 20
104.264
 11
178.772
 21
104.214
  0
LINE
  8
0
 10
178.772
 20
104.214
 11
178.82
 21
104.163
  0
LINE
  8
0
 10
178.82
 20
104.163
 11
178.865
 21
104.111
  0
LINE
  8
0
 10
178.865
 20
104.111
 11
178.909
 21
104.056
  0
LINE
  8
0
 10
178.909
 20
104.056
 11
178.951
 21
104.001
  0
LINE
  8
0
 10
178.951
 20
104.001
 11
178.991
 21
103.943
  0
LINE
  8
0
 10
178.991
 20
103.943
 11
179.029
 21
103.885
  0
LINE
  8
0
 10
179.029
 20
103.885
 11
179.065
 21
103.825
  0
LINE
  8
0
 10
179.065
 20
103.825
 11
179.099
 21
103.764
  0
LINE
  8
0
 10
179.099
 20
103.764
 11
179.131
 21
103.702
  0
LINE
  8
0
 10
179.131
 20
103.702
 11
179.16
 21
103.638
  0
LINE
  8
0
 10
179.16
 20
103.638
 11
179.188
 21
103.574
  0
LINE
  8
0
 10
179.188
 20
103.574
 11
179.213
 21
103.509
  0
LINE
  8
0
 10
179.213
 20
103.509
 11
179.235
 21
103.443
  0
LINE
  8
0
 10
179.235
 20
103.443
 11
179.256
 21
103.376
  0
LINE
  8
0
 10
179.256
 20
103.376
 11
179.274
 21
103.309
  0
LINE
  8
0
 10
179.274
 20
103.309
 11
179.29
 21
103.241
  0
LINE
  8
0
 10
179.29
 20
103.241
 11
179.303
 21
103.172
  0
LINE
  8
0
 10
179.303
 20
103.172
 11
179.314
 21
103.103
  0
LINE
  8
0
 10
179.314
 20
103.103
 11
179.322
 21
103.034
  0
LINE
  8
0
 10
179.322
 20
103.034
 11
179.328
 21
102.965
  0
LINE
  8
0
 10
179.328
 20
102.965
 11
179.332
 21
102.895
  0
LINE
  8
0
 10
179.332
 20
102.895
 11
179.333
 21
102.825
  0
LINE
  8
0
 10
179.333
 20
102.825
 11
179.332
 21
102.755
  0
LINE
  8
0
 10
179.332
 20
102.755
 11
179.328
 21
102.685
  0
LINE
  8
0
 10
179.328
 20
102.685
 11
179.322
 21
102.616
  0
LINE
  8
0
 10
179.322
 20
102.616
 11
179.314
 21
102.547
  0
LINE
  8
0
 10
179.314
 20
102.547
 11
179.303
 21
102.478
  0
LINE
  8
0
 10
179.303
 20
102.478
 11
179.29
 21
102.409
  0
LINE
  8
0
 10
179.29
 20
102.409
 11
179.274
 21
102.341
  0
LINE
  8
0
 10
179.274
 20
102.341
 11
179.256
 21
102.274
  0
LINE
  8
0
 10
179.256
 20
102.274
 11
179.235
 21
102.207
  0
LINE
  8
0
 10
179.235
 20
102.207
 11
179.213
 21
102.141
  0
LINE
  8
0
 10
179.213
 20
102.141
 11
179.188
 21
102.076
  0
LINE
  8
0
 10
179.188
 20
102.076
 11
179.16
 21
102.012
  0
LINE
  8
0
 10
179.16
 20
102.012
 11
179.131
 21
101.948
  0
LINE
  8
0
 10
179.131
 20
101.948
 11
179.099
 21
101.886
  0
LINE
  8
0
 10
179.099
 20
101.886
 11
179.065
 21
101.825
  0
LINE
  8
0
 10
179.065
 20
101.825
 11
179.029
 21
101.765
  0
LINE
  8
0
 10
179.029
 20
101.765
 11
178.991
 21
101.707
  0
LINE
  8
0
 10
178.991
 20
101.707
 11
178.951
 21
101.649
  0
LINE
  8
0
 10
178.951
 20
101.649
 11
178.909
 21
101.594
  0
LINE
  8
0
 10
178.909
 20
101.594
 11
178.865
 21
101.539
  0
LINE
  8
0
 10
178.865
 20
101.539
 11
178.82
 21
101.487
  0
LINE
  8
0
 10
178.82
 20
101.487
 11
178.772
 21
101.436
  0
LINE
  8
0
 10
178.772
 20
101.436
 11
178.723
 21
101.386
  0
LINE
  8
0
 10
178.723
 20
101.386
 11
178.672
 21
101.339
  0
LINE
  8
0
 10
178.672
 20
101.339
 11
178.619
 21
101.293
  0
LINE
  8
0
 10
178.619
 20
101.293
 11
178.565
 21
101.249
  0
LINE
  8
0
 10
178.565
 20
101.249
 11
178.509
 21
101.207
  0
LINE
  8
0
 10
178.509
 20
101.207
 11
178.452
 21
101.167
  0
LINE
  8
0
 10
178.452
 20
101.167
 11
178.393
 21
101.129
  0
LINE
  8
0
 10
178.393
 20
101.129
 11
178.333
 21
101.093
  0
LINE
  8
0
 10
178.333
 20
101.093
 11
178.272
 21
101.059
  0
LINE
  8
0
 10
178.272
 20
101.059
 11
178.21
 21
101.027
  0
LINE
  8
0
 10
178.21
 20
101.027
 11
178.147
 21
100.998
  0
LINE
  8
0
 10
178.147
 20
100.998
 11
178.083
 21
100.971
  0
LINE
  8
0
 10
178.083
 20
100.971
 11
178.017
 21
100.946
  0
LINE
  8
0
 10
178.017
 20
100.946
 11
177.951
 21
100.923
  0
LINE
  8
0
 10
177.951
 20
100.923
 11
177.885
 21
100.902
  0
LINE
  8
0
 10
177.885
 20
100.902
 11
177.817
 21
100.884
  0
LINE
  8
0
 10
177.817
 20
100.884
 11
177.749
 21
100.869
  0
LINE
  8
0
 10
177.749
 20
100.869
 11
177.681
 21
100.855
  0
LINE
  8
0
 10
177.681
 20
100.855
 11
177.612
 21
100.844
  0
LINE
  8
0
 10
177.612
 20
100.844
 11
177.542
 21
100.836
  0
LINE
  8
0
 10
177.542
 20
100.836
 11
177.473
 21
100.83
  0
LINE
  8
0
 10
177.473
 20
100.83
 11
177.403
 21
100.826
  0
LINE
  8
0
 10
177.403
 20
100.826
 11
177.333
 21
100.825
  0
LINE
  8
0
 10
177.333
 20
100.825
 11
177.264
 21
100.826
  0
LINE
  8
0
 10
227.93
 20
100.826
 11
227.86
 21
100.83
  0
LINE
  8
0
 10
227.86
 20
100.83
 11
227.791
 21
100.836
  0
LINE
  8
0
 10
227.791
 20
100.836
 11
227.722
 21
100.844
  0
LINE
  8
0
 10
227.722
 20
100.844
 11
227.653
 21
100.855
  0
LINE
  8
0
 10
227.653
 20
100.855
 11
227.584
 21
100.869
  0
LINE
  8
0
 10
227.584
 20
100.869
 11
227.516
 21
100.884
  0
LINE
  8
0
 10
227.516
 20
100.884
 11
227.449
 21
100.902
  0
LINE
  8
0
 10
227.449
 20
100.902
 11
227.382
 21
100.923
  0
LINE
  8
0
 10
227.382
 20
100.923
 11
227.316
 21
100.946
  0
LINE
  8
0
 10
227.316
 20
100.946
 11
227.251
 21
100.971
  0
LINE
  8
0
 10
227.251
 20
100.971
 11
227.187
 21
100.998
  0
LINE
  8
0
 10
227.187
 20
100.998
 11
227.123
 21
101.027
  0
LINE
  8
0
 10
227.123
 20
101.027
 11
227.061
 21
101.059
  0
LINE
  8
0
 10
227.061
 20
101.059
 11
227
 21
101.093
  0
LINE
  8
0
 10
227
 20
101.093
 11
226.94
 21
101.129
  0
LINE
  8
0
 10
226.94
 20
101.129
 11
226.882
 21
101.167
  0
LINE
  8
0
 10
226.882
 20
101.167
 11
226.824
 21
101.207
  0
LINE
  8
0
 10
226.824
 20
101.207
 11
226.769
 21
101.249
  0
LINE
  8
0
 10
226.769
 20
101.249
 11
226.714
 21
101.293
  0
LINE
  8
0
 10
226.714
 20
101.293
 11
226.662
 21
101.339
  0
LINE
  8
0
 10
226.662
 20
101.339
 11
226.611
 21
101.386
  0
LINE
  8
0
 10
226.611
 20
101.386
 11
226.561
 21
101.436
  0
LINE
  8
0
 10
226.561
 20
101.436
 11
226.514
 21
101.487
  0
LINE
  8
0
 10
226.514
 20
101.487
 11
226.468
 21
101.539
  0
LINE
  8
0
 10
226.468
 20
101.539
 11
226.424
 21
101.594
  0
LINE
  8
0
 10
226.424
 20
101.594
 11
226.382
 21
101.649
  0
LINE
  8
0
 10
226.382
 20
101.649
 11
226.342
 21
101.707
  0
LINE
  8
0
 10
226.342
 20
101.707
 11
226.304
 21
101.765
  0
LINE
  8
0
 10
226.304
 20
101.765
 11
226.268
 21
101.825
  0
LINE
  8
0
 10
226.268
 20
101.825
 11
226.234
 21
101.886
  0
LINE
  8
0
 10
226.234
 20
101.886
 11
226.202
 21
101.948
  0
LINE
  8
0
 10
226.202
 20
101.948
 11
226.173
 21
102.012
  0
LINE
  8
0
 10
226.173
 20
102.012
 11
226.146
 21
102.076
  0
LINE
  8
0
 10
226.146
 20
102.076
 11
226.121
 21
102.141
  0
LINE
  8
0
 10
226.121
 20
102.141
 11
226.098
 21
102.207
  0
LINE
  8
0
 10
226.098
 20
102.207
 11
226.077
 21
102.274
  0
LINE
  8
0
 10
226.077
 20
102.274
 11
226.059
 21
102.341
  0
LINE
  8
0
 10
226.059
 20
102.341
 11
226.044
 21
102.409
  0
LINE
  8
0
 10
226.044
 20
102.409
 11
226.03
 21
102.478
  0
LINE
  8
0
 10
226.03
 20
102.478
 11
226.019
 21
102.547
  0
LINE
  8
0
 10
226.019
 20
102.547
 11
226.011
 21
102.616
  0
LINE
  8
0
 10
226.011
 20
102.616
 11
226.005
 21
102.685
  0
LINE
  8
0
 10
226.005
 20
102.685
 11
226.001
 21
102.755
  0
LINE
  8
0
 10
226.001
 20
102.755
 11
226
 21
102.825
  0
LINE
  8
0
 10
226
 20
102.825
 11
226.001
 21
102.895
  0
LINE
  8
0
 10
226.001
 20
102.895
 11
226.005
 21
102.965
  0
LINE
  8
0
 10
226.005
 20
102.965
 11
226.011
 21
103.034
  0
LINE
  8
0
 10
226.011
 20
103.034
 11
226.019
 21
103.103
  0
LINE
  8
0
 10
226.019
 20
103.103
 11
226.03
 21
103.172
  0
LINE
  8
0
 10
226.03
 20
103.172
 11
226.044
 21
103.241
  0
LINE
  8
0
 10
226.044
 20
103.241
 11
226.059
 21
103.309
  0
LINE
  8
0
 10
226.059
 20
103.309
 11
226.077
 21
103.376
  0
LINE
  8
0
 10
226.077
 20
103.376
 11
226.098
 21
103.443
  0
LINE
  8
0
 10
226.098
 20
103.443
 11
226.121
 21
103.509
  0
LINE
  8
0
 10
226.121
 20
103.509
 11
226.146
 21
103.574
  0
LINE
  8
0
 10
226.146
 20
103.574
 11
226.173
 21
103.638
  0
LINE
  8
0
 10
226.173
 20
103.638
 11
226.202
 21
103.702
  0
LINE
  8
0
 10
226.202
 20
103.702
 11
226.234
 21
103.764
  0
LINE
  8
0
 10
226.234
 20
103.764
 11
226.268
 21
103.825
  0
LINE
  8
0
 10
226.268
 20
103.825
 11
226.304
 21
103.885
  0
LINE
  8
0
 10
226.304
 20
103.885
 11
226.342
 21
103.943
  0
LINE
  8
0
 10
226.342
 20
103.943
 11
226.382
 21
104.001
  0
LINE
  8
0
 10
226.382
 20
104.001
 11
226.424
 21
104.056
  0
LINE
  8
0
 10
226.424
 20
104.056
 11
226.468
 21
104.111
  0
LINE
  8
0
 10
226.468
 20
104.111
 11
226.514
 21
104.163
  0
LINE
  8
0
 10
226.514
 20
104.163
 11
226.561
 21
104.214
  0
LINE
  8
0
 10
226.561
 20
104.214
 11
226.611
 21
104.264
  0
LINE
  8
0
 10
226.611
 20
104.264
 11
226.662
 21
104.311
  0
LINE
  8
0
 10
226.662
 20
104.311
 11
226.714
 21
104.357
  0
LINE
  8
0
 10
226.714
 20
104.357
 11
226.769
 21
104.401
  0
LINE
  8
0
 10
226.769
 20
104.401
 11
226.824
 21
104.443
  0
LINE
  8
0
 10
226.824
 20
104.443
 11
226.882
 21
104.483
  0
LINE
  8
0
 10
226.882
 20
104.483
 11
226.94
 21
104.521
  0
LINE
  8
0
 10
226.94
 20
104.521
 11
227
 21
104.557
  0
LINE
  8
0
 10
227
 20
104.557
 11
227.061
 21
104.591
  0
LINE
  8
0
 10
227.061
 20
104.591
 11
227.123
 21
104.623
  0
LINE
  8
0
 10
227.123
 20
104.623
 11
227.187
 21
104.652
  0
LINE
  8
0
 10
227.187
 20
104.652
 11
227.251
 21
104.679
  0
LINE
  8
0
 10
227.251
 20
104.679
 11
227.316
 21
104.704
  0
LINE
  8
0
 10
227.316
 20
104.704
 11
227.382
 21
104.727
  0
LINE
  8
0
 10
227.382
 20
104.727
 11
227.449
 21
104.748
  0
LINE
  8
0
 10
227.449
 20
104.748
 11
227.516
 21
104.766
  0
LINE
  8
0
 10
227.516
 20
104.766
 11
227.584
 21
104.781
  0
LINE
  8
0
 10
227.584
 20
104.781
 11
227.653
 21
104.795
  0
LINE
  8
0
 10
227.653
 20
104.795
 11
227.722
 21
104.806
  0
LINE
  8
0
 10
227.722
 20
104.806
 11
227.791
 21
104.814
  0
LINE
  8
0
 10
227.791
 20
104.814
 11
227.86
 21
104.82
  0
LINE
  8
0
 10
227.86
 20
104.82
 11
227.93
 21
104.824
  0
LINE
  8
0
 10
227.93
 20
104.824
 11
228
 21
104.825
  0
LINE
  8
0
 10
228
 20
104.825
 11
228.07
 21
104.824
  0
LINE
  8
0
 10
228.07
 20
104.824
 11
228.14
 21
104.82
  0
LINE
  8
0
 10
228.14
 20
104.82
 11
228.209
 21
104.814
  0
LINE
  8
0
 10
228.209
 20
104.814
 11
228.278
 21
104.806
  0
LINE
  8
0
 10
228.278
 20
104.806
 11
228.347
 21
104.795
  0
LINE
  8
0
 10
228.347
 20
104.795
 11
228.416
 21
104.781
  0
LINE
  8
0
 10
228.416
 20
104.781
 11
228.484
 21
104.766
  0
LINE
  8
0
 10
228.484
 20
104.766
 11
228.551
 21
104.748
  0
LINE
  8
0
 10
228.551
 20
104.748
 11
228.618
 21
104.727
  0
LINE
  8
0
 10
228.618
 20
104.727
 11
228.684
 21
104.704
  0
LINE
  8
0
 10
228.684
 20
104.704
 11
228.749
 21
104.679
  0
LINE
  8
0
 10
228.749
 20
104.679
 11
228.813
 21
104.652
  0
LINE
  8
0
 10
228.813
 20
104.652
 11
228.877
 21
104.623
  0
LINE
  8
0
 10
228.877
 20
104.623
 11
228.939
 21
104.591
  0
LINE
  8
0
 10
228.939
 20
104.591
 11
229
 21
104.557
  0
LINE
  8
0
 10
229
 20
104.557
 11
229.06
 21
104.521
  0
LINE
  8
0
 10
229.06
 20
104.521
 11
229.118
 21
104.483
  0
LINE
  8
0
 10
229.118
 20
104.483
 11
229.176
 21
104.443
  0
LINE
  8
0
 10
229.176
 20
104.443
 11
229.231
 21
104.401
  0
LINE
  8
0
 10
229.231
 20
104.401
 11
229.286
 21
104.357
  0
LINE
  8
0
 10
229.286
 20
104.357
 11
229.338
 21
104.311
  0
LINE
  8
0
 10
229.338
 20
104.311
 11
229.389
 21
104.264
  0
LINE
  8
0
 10
229.389
 20
104.264
 11
229.439
 21
104.214
  0
LINE
  8
0
 10
229.439
 20
104.214
 11
229.486
 21
104.163
  0
LINE
  8
0
 10
229.486
 20
104.163
 11
229.532
 21
104.111
  0
LINE
  8
0
 10
229.532
 20
104.111
 11
229.576
 21
104.056
  0
LINE
  8
0
 10
229.576
 20
104.056
 11
229.618
 21
104.001
  0
LINE
  8
0
 10
229.618
 20
104.001
 11
229.658
 21
103.943
  0
LINE
  8
0
 10
229.658
 20
103.943
 11
229.696
 21
103.885
  0
LINE
  8
0
 10
229.696
 20
103.885
 11
229.732
 21
103.825
  0
LINE
  8
0
 10
229.732
 20
103.825
 11
229.766
 21
103.764
  0
LINE
  8
0
 10
229.766
 20
103.764
 11
229.798
 21
103.702
  0
LINE
  8
0
 10
229.798
 20
103.702
 11
229.827
 21
103.638
  0
LINE
  8
0
 10
229.827
 20
103.638
 11
229.854
 21
103.574
  0
LINE
  8
0
 10
229.854
 20
103.574
 11
229.879
 21
103.509
  0
LINE
  8
0
 10
229.879
 20
103.509
 11
229.902
 21
103.443
  0
LINE
  8
0
 10
229.902
 20
103.443
 11
229.923
 21
103.376
  0
LINE
  8
0
 10
229.923
 20
103.376
 11
229.941
 21
103.309
  0
LINE
  8
0
 10
229.941
 20
103.309
 11
229.956
 21
103.241
  0
LINE
  8
0
 10
229.956
 20
103.241
 11
229.97
 21
103.172
  0
LINE
  8
0
 10
229.97
 20
103.172
 11
229.981
 21
103.103
  0
LINE
  8
0
 10
229.981
 20
103.103
 11
229.989
 21
103.034
  0
LINE
  8
0
 10
229.989
 20
103.034
 11
229.995
 21
102.965
  0
LINE
  8
0
 10
229.995
 20
102.965
 11
229.999
 21
102.895
  0
LINE
  8
0
 10
229.999
 20
102.895
 11
230
 21
102.825
  0
LINE
  8
0
 10
230
 20
102.825
 11
229.999
 21
102.755
  0
LINE
  8
0
 10
229.999
 20
102.755
 11
229.995
 21
102.685
  0
LINE
  8
0
 10
229.995
 20
102.685
 11
229.989
 21
102.616
  0
LINE
  8
0
 10
229.989
 20
102.616
 11
229.981
 21
102.547
  0
LINE
  8
0
 10
229.981
 20
102.547
 11
229.97
 21
102.478
  0
LINE
  8
0
 10
229.97
 20
102.478
 11
229.956
 21
102.409
  0
LINE
  8
0
 10
229.956
 20
102.409
 11
229.941
 21
102.341
  0
LINE
  8
0
 10
229.941
 20
102.341
 11
229.923
 21
102.274
  0
LINE
  8
0
 10
229.923
 20
102.274
 11
229.902
 21
102.207
  0
LINE
  8
0
 10
229.902
 20
102.207
 11
229.879
 21
102.141
  0
LINE
  8
0
 10
229.879
 20
102.141
 11
229.854
 21
102.076
  0
LINE
  8
0
 10
229.854
 20
102.076
 11
229.827
 21
102.012
  0
LINE
  8
0
 10
229.827
 20
102.012
 11
229.798
 21
101.948
  0
LINE
  8
0
 10
229.798
 20
101.948
 11
229.766
 21
101.886
  0
LINE
  8
0
 10
229.766
 20
101.886
 11
229.732
 21
101.825
  0
LINE
  8
0
 10
229.732
 20
101.825
 11
229.696
 21
101.765
  0
LINE
  8
0
 10
229.696
 20
101.765
 11
229.658
 21
101.707
  0
LINE
  8
0
 10
229.658
 20
101.707
 11
229.618
 21
101.649
  0
LINE
  8
0
 10
229.618
 20
101.649
 11
229.576
 21
101.594
  0
LINE
  8
0
 10
229.576
 20
101.594
 11
229.532
 21
101.539
  0
LINE
  8
0
 10
229.532
 20
101.539
 11
229.486
 21
101.487
  0
LINE
  8
0
 10
229.486
 20
101.487
 11
229.439
 21
101.436
  0
LINE
  8
0
 10
229.439
 20
101.436
 11
229.389
 21
101.386
  0
LINE
  8
0
 10
229.389
 20
101.386
 11
229.338
 21
101.339
  0
LINE
  8
0
 10
229.338
 20
101.339
 11
229.286
 21
101.293
  0
LINE
  8
0
 10
229.286
 20
101.293
 11
229.231
 21
101.249
  0
LINE
  8
0
 10
229.231
 20
101.249
 11
229.176
 21
101.207
  0
LINE
  8
0
 10
229.176
 20
101.207
 11
229.118
 21
101.167
  0
LINE
  8
0
 10
229.118
 20
101.167
 11
229.06
 21
101.129
  0
LINE
  8
0
 10
229.06
 20
101.129
 11
229
 21
101.093
  0
LINE
  8
0
 10
229
 20
101.093
 11
228.939
 21
101.059
  0
LINE
  8
0
 10
228.939
 20
101.059
 11
228.877
 21
101.027
  0
LINE
  8
0
 10
228.877
 20
101.027
 11
228.813
 21
100.998
  0
LINE
  8
0
 10
228.813
 20
100.998
 11
228.749
 21
100.971
  0
LINE
  8
0
 10
228.749
 20
100.971
 11
228.684
 21
100.946
  0
LINE
  8
0
 10
228.684
 20
100.946
 11
228.618
 21
100.923
  0
LINE
  8
0
 10
228.618
 20
100.923
 11
228.551
 21
100.902
  0
LINE
  8
0
 10
228.551
 20
100.902
 11
228.484
 21
100.884
  0
LINE
  8
0
 10
228.484
 20
100.884
 11
228.416
 21
100.869
  0
LINE
  8
0
 10
228.416
 20
100.869
 11
228.347
 21
100.855
  0
LINE
  8
0
 10
228.347
 20
100.855
 11
228.278
 21
100.844
  0
LINE
  8
0
 10
228.278
 20
100.844
 11
228.209
 21
100.836
  0
LINE
  8
0
 10
228.209
 20
100.836
 11
228.14
 21
100.83
  0
LINE
  8
0
 10
228.14
 20
100.83
 11
228.07
 21
100.826
  0
LINE
  8
0
 10
228.07
 20
100.826
 11
228
 21
100.825
  0
LINE
  8
0
 10
228
 20
100.825
 11
227.93
 21
100.826
  0
LINE
  8
0
 10
278.597
 20
100.826
 11
278.527
 21
100.83
  0
LINE
  8
0
 10
278.527
 20
100.83
 11
278.458
 21
100.836
  0
LINE
  8
0
 10
278.458
 20
100.836
 11
278.388
 21
100.844
  0
LINE
  8
0
 10
278.388
 20
100.844
 11
278.319
 21
100.855
  0
LINE
  8
0
 10
278.319
 20
100.855
 11
278.251
 21
100.869
  0
LINE
  8
0
 10
278.251
 20
100.869
 11
278.183
 21
100.884
  0
LINE
  8
0
 10
278.183
 20
100.884
 11
278.115
 21
100.902
  0
LINE
  8
0
 10
278.115
 20
100.902
 11
278.049
 21
100.923
  0
LINE
  8
0
 10
278.049
 20
100.923
 11
277.983
 21
100.946
  0
LINE
  8
0
 10
277.983
 20
100.946
 11
277.917
 21
100.971
  0
LINE
  8
0
 10
277.917
 20
100.971
 11
277.853
 21
100.998
  0
LINE
  8
0
 10
277.853
 20
100.998
 11
277.79
 21
101.027
  0
LINE
  8
0
 10
277.79
 20
101.027
 11
277.728
 21
101.059
  0
LINE
  8
0
 10
277.728
 20
101.059
 11
277.667
 21
101.093
  0
LINE
  8
0
 10
277.667
 20
101.093
 11
277.607
 21
101.129
  0
LINE
  8
0
 10
277.607
 20
101.129
 11
277.548
 21
101.167
  0
LINE
  8
0
 10
277.548
 20
101.167
 11
277.491
 21
101.207
  0
LINE
  8
0
 10
277.491
 20
101.207
 11
277.435
 21
101.249
  0
LINE
  8
0
 10
277.435
 20
101.249
 11
277.381
 21
101.293
  0
LINE
  8
0
 10
277.381
 20
101.293
 11
277.328
 21
101.339
  0
LINE
  8
0
 10
277.328
 20
101.339
 11
277.277
 21
101.386
  0
LINE
  8
0
 10
277.277
 20
101.386
 11
277.228
 21
101.436
  0
LINE
  8
0
 10
277.228
 20
101.436
 11
277.18
 21
101.487
  0
LINE
  8
0
 10
277.18
 20
101.487
 11
277.135
 21
101.539
  0
LINE
  8
0
 10
277.135
 20
101.539
 11
277.091
 21
101.594
  0
LINE
  8
0
 10
277.091
 20
101.594
 11
277.049
 21
101.649
  0
LINE
  8
0
 10
277.049
 20
101.649
 11
277.009
 21
101.707
  0
LINE
  8
0
 10
277.009
 20
101.707
 11
276.971
 21
101.765
  0
LINE
  8
0
 10
276.971
 20
101.765
 11
276.935
 21
101.825
  0
LINE
  8
0
 10
276.935
 20
101.825
 11
276.901
 21
101.886
  0
LINE
  8
0
 10
276.901
 20
101.886
 11
276.869
 21
101.948
  0
LINE
  8
0
 10
276.869
 20
101.948
 11
276.84
 21
102.012
  0
LINE
  8
0
 10
276.84
 20
102.012
 11
276.812
 21
102.076
  0
LINE
  8
0
 10
276.812
 20
102.076
 11
276.787
 21
102.141
  0
LINE
  8
0
 10
276.787
 20
102.141
 11
276.765
 21
102.207
  0
LINE
  8
0
 10
276.765
 20
102.207
 11
276.744
 21
102.274
  0
LINE
  8
0
 10
276.744
 20
102.274
 11
276.726
 21
102.341
  0
LINE
  8
0
 10
276.726
 20
102.341
 11
276.71
 21
102.409
  0
LINE
  8
0
 10
276.71
 20
102.409
 11
276.697
 21
102.478
  0
LINE
  8
0
 10
276.697
 20
102.478
 11
276.686
 21
102.547
  0
LINE
  8
0
 10
276.686
 20
102.547
 11
276.678
 21
102.616
  0
LINE
  8
0
 10
276.678
 20
102.616
 11
276.672
 21
102.685
  0
LINE
  8
0
 10
276.672
 20
102.685
 11
276.668
 21
102.755
  0
LINE
  8
0
 10
276.668
 20
102.755
 11
276.667
 21
102.825
  0
LINE
  8
0
 10
276.667
 20
102.825
 11
276.668
 21
102.895
  0
LINE
  8
0
 10
276.668
 20
102.895
 11
276.672
 21
102.965
  0
LINE
  8
0
 10
276.672
 20
102.965
 11
276.678
 21
103.034
  0
LINE
  8
0
 10
276.678
 20
103.034
 11
276.686
 21
103.103
  0
LINE
  8
0
 10
276.686
 20
103.103
 11
276.697
 21
103.172
  0
LINE
  8
0
 10
276.697
 20
103.172
 11
276.71
 21
103.241
  0
LINE
  8
0
 10
276.71
 20
103.241
 11
276.726
 21
103.309
  0
LINE
  8
0
 10
276.726
 20
103.309
 11
276.744
 21
103.376
  0
LINE
  8
0
 10
276.744
 20
103.376
 11
276.765
 21
103.443
  0
LINE
  8
0
 10
276.765
 20
103.443
 11
276.787
 21
103.509
  0
LINE
  8
0
 10
276.787
 20
103.509
 11
276.812
 21
103.574
  0
LINE
  8
0
 10
276.812
 20
103.574
 11
276.84
 21
103.638
  0
LINE
  8
0
 10
276.84
 20
103.638
 11
276.869
 21
103.702
  0
LINE
  8
0
 10
276.869
 20
103.702
 11
276.901
 21
103.764
  0
LINE
  8
0
 10
276.901
 20
103.764
 11
276.935
 21
103.825
  0
LINE
  8
0
 10
276.935
 20
103.825
 11
276.971
 21
103.885
  0
LINE
  8
0
 10
276.971
 20
103.885
 11
277.009
 21
103.943
  0
LINE
  8
0
 10
277.009
 20
103.943
 11
277.049
 21
104.001
  0
LINE
  8
0
 10
277.049
 20
104.001
 11
277.091
 21
104.056
  0
LINE
  8
0
 10
277.091
 20
104.056
 11
277.135
 21
104.111
  0
LINE
  8
0
 10
277.135
 20
104.111
 11
277.18
 21
104.163
  0
LINE
  8
0
 10
277.18
 20
104.163
 11
277.228
 21
104.214
  0
LINE
  8
0
 10
277.228
 20
104.214
 11
277.277
 21
104.264
  0
LINE
  8
0
 10
277.277
 20
104.264
 11
277.328
 21
104.311
  0
LINE
  8
0
 10
277.328
 20
104.311
 11
277.381
 21
104.357
  0
LINE
  8
0
 10
277.381
 20
104.357
 11
277.435
 21
104.401
  0
LINE
  8
0
 10
277.435
 20
104.401
 11
277.491
 21
104.443
  0
LINE
  8
0
 10
277.491
 20
104.443
 11
277.548
 21
104.483
  0
LINE
  8
0
 10
277.548
 20
104.483
 11
277.607
 21
104.521
  0
LINE
  8
0
 10
277.607
 20
104.521
 11
277.667
 21
104.557
  0
LINE
  8
0
 10
277.667
 20
104.557
 11
277.728
 21
104.591
  0
LINE
  8
0
 10
277.728
 20
104.591
 11
277.79
 21
104.623
  0
LINE
  8
0
 10
277.79
 20
104.623
 11
277.853
 21
104.652
  0
LINE
  8
0
 10
277.853
 20
104.652
 11
277.917
 21
104.679
  0
LINE
  8
0
 10
277.917
 20
104.679
 11
277.983
 21
104.704
  0
LINE
  8
0
 10
277.983
 20
104.704
 11
278.049
 21
104.727
  0
LINE
  8
0
 10
278.049
 20
104.727
 11
278.115
 21
104.748
  0
LINE
  8
0
 10
278.115
 20
104.748
 11
278.183
 21
104.766
  0
LINE
  8
0
 10
278.183
 20
104.766
 11
278.251
 21
104.781
  0
LINE
  8
0
 10
278.251
 20
104.781
 11
278.319
 21
104.795
  0
LINE
  8
0
 10
278.319
 20
104.795
 11
278.388
 21
104.806
  0
LINE
  8
0
 10
278.388
 20
104.806
 11
278.458
 21
104.814
  0
LINE
  8
0
 10
278.458
 20
104.814
 11
278.527
 21
104.82
  0
LINE
  8
0
 10
278.527
 20
104.82
 11
278.597
 21
104.824
  0
LINE
  8
0
 10
278.597
 20
104.824
 11
278.667
 21
104.825
  0
LINE
  8
0
 10
278.667
 20
104.825
 11
278.736
 21
104.824
  0
LINE
  8
0
 10
278.736
 20
104.824
 11
278.806
 21
104.82
  0
LINE
  8
0
 10
278.806
 20
104.82
 11
278.876
 21
104.814
  0
LINE
  8
0
 10
278.876
 20
104.814
 11
278.945
 21
104.806
  0
LINE
  8
0
 10
278.945
 20
104.806
 11
279.014
 21
104.795
  0
LINE
  8
0
 10
279.014
 20
104.795
 11
279.082
 21
104.781
  0
LINE
  8
0
 10
279.082
 20
104.781
 11
279.15
 21
104.766
  0
LINE
  8
0
 10
279.15
 20
104.766
 11
279.218
 21
104.748
  0
LINE
  8
0
 10
279.218
 20
104.748
 11
279.285
 21
104.727
  0
LINE
  8
0
 10
279.285
 20
104.727
 11
279.351
 21
104.704
  0
LINE
  8
0
 10
279.351
 20
104.704
 11
279.416
 21
104.679
  0
LINE
  8
0
 10
279.416
 20
104.679
 11
279.48
 21
104.652
  0
LINE
  8
0
 10
279.48
 20
104.652
 11
279.543
 21
104.623
  0
LINE
  8
0
 10
279.543
 20
104.623
 11
279.606
 21
104.591
  0
LINE
  8
0
 10
279.606
 20
104.591
 11
279.667
 21
104.557
  0
LINE
  8
0
 10
279.667
 20
104.557
 11
279.727
 21
104.521
  0
LINE
  8
0
 10
279.727
 20
104.521
 11
279.785
 21
104.483
  0
LINE
  8
0
 10
279.785
 20
104.483
 11
279.842
 21
104.443
  0
LINE
  8
0
 10
279.842
 20
104.443
 11
279.898
 21
104.401
  0
LINE
  8
0
 10
279.898
 20
104.401
 11
279.952
 21
104.357
  0
LINE
  8
0
 10
279.952
 20
104.357
 11
280.005
 21
104.311
  0
LINE
  8
0
 10
280.005
 20
104.311
 11
280.056
 21
104.264
  0
LINE
  8
0
 10
280.056
 20
104.264
 11
280.105
 21
104.214
  0
LINE
  8
0
 10
280.105
 20
104.214
 11
280.153
 21
104.163
  0
LINE
  8
0
 10
280.153
 20
104.163
 11
280.199
 21
104.111
  0
LINE
  8
0
 10
280.199
 20
104.111
 11
280.243
 21
104.056
  0
LINE
  8
0
 10
280.243
 20
104.056
 11
280.285
 21
104.001
  0
LINE
  8
0
 10
280.285
 20
104.001
 11
280.325
 21
103.943
  0
LINE
  8
0
 10
280.325
 20
103.943
 11
280.363
 21
103.885
  0
LINE
  8
0
 10
280.363
 20
103.885
 11
280.399
 21
103.825
  0
LINE
  8
0
 10
280.399
 20
103.825
 11
280.433
 21
103.764
  0
LINE
  8
0
 10
280.433
 20
103.764
 11
280.464
 21
103.702
  0
LINE
  8
0
 10
280.464
 20
103.702
 11
280.494
 21
103.638
  0
LINE
  8
0
 10
280.494
 20
103.638
 11
280.521
 21
103.574
  0
LINE
  8
0
 10
280.521
 20
103.574
 11
280.546
 21
103.509
  0
LINE
  8
0
 10
280.546
 20
103.509
 11
280.569
 21
103.443
  0
LINE
  8
0
 10
280.569
 20
103.443
 11
280.589
 21
103.376
  0
LINE
  8
0
 10
280.589
 20
103.376
 11
280.607
 21
103.309
  0
LINE
  8
0
 10
280.607
 20
103.309
 11
280.623
 21
103.241
  0
LINE
  8
0
 10
280.623
 20
103.241
 11
280.636
 21
103.172
  0
LINE
  8
0
 10
280.636
 20
103.172
 11
280.647
 21
103.103
  0
LINE
  8
0
 10
280.647
 20
103.103
 11
280.656
 21
103.034
  0
LINE
  8
0
 10
280.656
 20
103.034
 11
280.662
 21
102.965
  0
LINE
  8
0
 10
280.662
 20
102.965
 11
280.665
 21
102.895
  0
LINE
  8
0
 10
280.665
 20
102.895
 11
280.667
 21
102.825
  0
LINE
  8
0
 10
280.667
 20
102.825
 11
280.665
 21
102.755
  0
LINE
  8
0
 10
280.665
 20
102.755
 11
280.662
 21
102.685
  0
LINE
  8
0
 10
280.662
 20
102.685
 11
280.656
 21
102.616
  0
LINE
  8
0
 10
280.656
 20
102.616
 11
280.647
 21
102.547
  0
LINE
  8
0
 10
280.647
 20
102.547
 11
280.636
 21
102.478
  0
LINE
  8
0
 10
280.636
 20
102.478
 11
280.623
 21
102.409
  0
LINE
  8
0
 10
280.623
 20
102.409
 11
280.607
 21
102.341
  0
LINE
  8
0
 10
280.607
 20
102.341
 11
280.589
 21
102.274
  0
LINE
  8
0
 10
280.589
 20
102.274
 11
280.569
 21
102.207
  0
LINE
  8
0
 10
280.569
 20
102.207
 11
280.546
 21
102.141
  0
LINE
  8
0
 10
280.546
 20
102.141
 11
280.521
 21
102.076
  0
LINE
  8
0
 10
280.521
 20
102.076
 11
280.494
 21
102.012
  0
LINE
  8
0
 10
280.494
 20
102.012
 11
280.464
 21
101.948
  0
LINE
  8
0
 10
280.464
 20
101.948
 11
280.433
 21
101.886
  0
LINE
  8
0
 10
280.433
 20
101.886
 11
280.399
 21
101.825
  0
LINE
  8
0
 10
280.399
 20
101.825
 11
280.363
 21
101.765
  0
LINE
  8
0
 10
280.363
 20
101.765
 11
280.325
 21
101.707
  0
LINE
  8
0
 10
280.325
 20
101.707
 11
280.285
 21
101.649
  0
LINE
  8
0
 10
280.285
 20
101.649
 11
280.243
 21
101.594
  0
LINE
  8
0
 10
280.243
 20
101.594
 11
280.199
 21
101.539
  0
LINE
  8
0
 10
280.199
 20
101.539
 11
280.153
 21
101.487
  0
LINE
  8
0
 10
280.153
 20
101.487
 11
280.105
 21
101.436
  0
LINE
  8
0
 10
280.105
 20
101.436
 11
280.056
 21
101.386
  0
LINE
  8
0
 10
280.056
 20
101.386
 11
280.005
 21
101.339
  0
LINE
  8
0
 10
280.005
 20
101.339
 11
279.952
 21
101.293
  0
LINE
  8
0
 10
279.952
 20
101.293
 11
279.898
 21
101.249
  0
LINE
  8
0
 10
279.898
 20
101.249
 11
279.842
 21
101.207
  0
LINE
  8
0
 10
279.842
 20
101.207
 11
279.785
 21
101.167
  0
LINE
  8
0
 10
279.785
 20
101.167
 11
279.727
 21
101.129
  0
LINE
  8
0
 10
279.727
 20
101.129
 11
279.667
 21
101.093
  0
LINE
  8
0
 10
279.667
 20
101.093
 11
279.606
 21
101.059
  0
LINE
  8
0
 10
279.606
 20
101.059
 11
279.543
 21
101.027
  0
LINE
  8
0
 10
279.543
 20
101.027
 11
279.48
 21
100.998
  0
LINE
  8
0
 10
279.48
 20
100.998
 11
279.416
 21
100.971
  0
LINE
  8
0
 10
279.416
 20
100.971
 11
279.351
 21
100.946
  0
LINE
  8
0
 10
279.351
 20
100.946
 11
279.285
 21
100.923
  0
LINE
  8
0
 10
279.285
 20
100.923
 11
279.218
 21
100.902
  0
LINE
  8
0
 10
279.218
 20
100.902
 11
279.15
 21
100.884
  0
LINE
  8
0
 10
279.15
 20
100.884
 11
279.082
 21
100.869
  0
LINE
  8
0
 10
279.082
 20
100.869
 11
279.014
 21
100.855
  0
LINE
  8
0
 10
279.014
 20
100.855
 11
278.945
 21
100.844
  0
LINE
  8
0
 10
278.945
 20
100.844
 11
278.876
 21
100.836
  0
LINE
  8
0
 10
278.876
 20
100.836
 11
278.806
 21
100.83
  0
LINE
  8
0
 10
278.806
 20
100.83
 11
278.736
 21
100.826
  0
LINE
  8
0
 10
278.736
 20
100.826
 11
278.667
 21
100.825
  0
LINE
  8
0
 10
278.667
 20
100.825
 11
278.597
 21
100.826
  0
LINE
  8
0
 10
25.2635
 20
1.17621
 11
25.1938
 21
1.17987
  0
LINE
  8
0
 10
25.1938
 20
1.17987
 11
25.1243
 21
1.18594
  0
LINE
  8
0
 10
25.1243
 20
1.18594
 11
25.055
 21
1.19446
  0
LINE
  8
0
 10
25.055
 20
1.19446
 11
24.986
 21
1.20538
  0
LINE
  8
0
 10
24.986
 20
1.20538
 11
24.9175
 21
1.2187
  0
LINE
  8
0
 10
24.9175
 20
1.2187
 11
24.8495
 21
1.23441
  0
LINE
  8
0
 10
24.8495
 20
1.23441
 11
24.782
 21
1.25247
  0
LINE
  8
0
 10
24.782
 20
1.25247
 11
24.7153
 21
1.27287
  0
LINE
  8
0
 10
24.7153
 20
1.27287
 11
24.6493
 21
1.29561
  0
LINE
  8
0
 10
24.6493
 20
1.29561
 11
24.5841
 21
1.32062
  0
LINE
  8
0
 10
24.5841
 20
1.32062
 11
24.5199
 21
1.3479
  0
LINE
  8
0
 10
24.5199
 20
1.3479
 11
24.4566
 21
1.37741
  0
LINE
  8
0
 10
24.4566
 20
1.37741
 11
24.3944
 21
1.4091
  0
LINE
  8
0
 10
24.3944
 20
1.4091
 11
24.3333
 21
1.44295
  0
LINE
  8
0
 10
24.3333
 20
1.44295
 11
24.2735
 21
1.4789
  0
LINE
  8
0
 10
24.2735
 20
1.4789
 11
24.2149
 21
1.51692
  0
LINE
  8
0
 10
24.2149
 20
1.51692
 11
24.1578
 21
1.55696
  0
LINE
  8
0
 10
24.1578
 20
1.55696
 11
24.102
 21
1.59897
  0
LINE
  8
0
 10
24.102
 20
1.59897
 11
24.0477
 21
1.6429
  0
LINE
  8
0
 10
24.0477
 20
1.6429
 11
23.9951
 21
1.68871
  0
LINE
  8
0
 10
23.9951
 20
1.68871
 11
23.944
 21
1.73631
  0
LINE
  8
0
 10
23.944
 20
1.73631
 11
23.8947
 21
1.78568
  0
LINE
  8
0
 10
23.8947
 20
1.78568
 11
23.847
 21
1.83673
  0
LINE
  8
0
 10
23.847
 20
1.83673
 11
23.8012
 21
1.88942
  0
LINE
  8
0
 10
23.8012
 20
1.88942
 11
23.7573
 21
1.94366
  0
LINE
  8
0
 10
23.7573
 20
1.94366
 11
23.7153
 21
1.99942
  0
LINE
  8
0
 10
23.7153
 20
1.99942
 11
23.6752
 21
2.05661
  0
LINE
  8
0
 10
23.6752
 20
2.05661
 11
23.6372
 21
2.11516
  0
LINE
  8
0
 10
23.6372
 20
2.11516
 11
23.6013
 21
2.17499
  0
LINE
  8
0
 10
23.6013
 20
2.17499
 11
23.5674
 21
2.23605
  0
LINE
  8
0
 10
23.5674
 20
2.23605
 11
23.5357
 21
2.29825
  0
LINE
  8
0
 10
23.5357
 20
2.29825
 11
23.5062
 21
2.36153
  0
LINE
  8
0
 10
23.5062
 20
2.36153
 11
23.479
 21
2.42578
  0
LINE
  8
0
 10
23.479
 20
2.42578
 11
23.4539
 21
2.49095
  0
LINE
  8
0
 10
23.4539
 20
2.49095
 11
23.4312
 21
2.55696
  0
LINE
  8
0
 10
23.4312
 20
2.55696
 11
23.4108
 21
2.62372
  0
LINE
  8
0
 10
23.4108
 20
2.62372
 11
23.3927
 21
2.69115
  0
LINE
  8
0
 10
23.3927
 20
2.69115
 11
23.377
 21
2.75917
  0
LINE
  8
0
 10
23.377
 20
2.75917
 11
23.3637
 21
2.8277
  0
LINE
  8
0
 10
23.3637
 20
2.8277
 11
23.3528
 21
2.89665
  0
LINE
  8
0
 10
23.3528
 20
2.89665
 11
23.3443
 21
2.96594
  0
LINE
  8
0
 10
23.3443
 20
2.96594
 11
23.3382
 21
3.03548
  0
LINE
  8
0
 10
23.3382
 20
3.03548
 11
23.3345
 21
3.10519
  0
LINE
  8
0
 10
23.3345
 20
3.10519
 11
23.3333
 21
3.17499
  0
LINE
  8
0
 10
23.3333
 20
3.17499
 11
23.3345
 21
3.2448
  0
LINE
  8
0
 10
23.3345
 20
3.2448
 11
23.3382
 21
3.3145
  0
LINE
  8
0
 10
23.3382
 20
3.3145
 11
23.3443
 21
3.38405
  0
LINE
  8
0
 10
23.3443
 20
3.38405
 11
23.3528
 21
3.45334
  0
LINE
  8
0
 10
23.3528
 20
3.45334
 11
23.3637
 21
3.52229
  0
LINE
  8
0
 10
23.3637
 20
3.52229
 11
23.377
 21
3.59082
  0
LINE
  8
0
 10
23.377
 20
3.59082
 11
23.3927
 21
3.65883
  0
LINE
  8
0
 10
23.3927
 20
3.65883
 11
23.4108
 21
3.72627
  0
LINE
  8
0
 10
23.4108
 20
3.72627
 11
23.4312
 21
3.79303
  0
LINE
  8
0
 10
23.4312
 20
3.79303
 11
23.4539
 21
3.85904
  0
LINE
  8
0
 10
23.4539
 20
3.85904
 11
23.479
 21
3.92421
  0
LINE
  8
0
 10
23.479
 20
3.92421
 11
23.5062
 21
3.98846
  0
LINE
  8
0
 10
23.5062
 20
3.98846
 11
23.5357
 21
4.05173
  0
LINE
  8
0
 10
23.5357
 20
4.05173
 11
23.5674
 21
4.11394
  0
LINE
  8
0
 10
23.5674
 20
4.11394
 11
23.6013
 21
4.17499
  0
LINE
  8
0
 10
23.6013
 20
4.17499
 11
23.6372
 21
4.23483
  0
LINE
  8
0
 10
23.6372
 20
4.23483
 11
23.6752
 21
4.29338
  0
LINE
  8
0
 10
23.6752
 20
4.29338
 11
23.7153
 21
4.35056
  0
LINE
  8
0
 10
23.7153
 20
4.35056
 11
23.7573
 21
4.40631
  0
LINE
  8
0
 10
23.7573
 20
4.40631
 11
23.8012
 21
4.46057
  0
LINE
  8
0
 10
23.8012
 20
4.46057
 11
23.847
 21
4.51326
  0
LINE
  8
0
 10
23.847
 20
4.51326
 11
23.8947
 21
4.56432
  0
LINE
  8
0
 10
23.8947
 20
4.56432
 11
23.944
 21
4.61368
  0
LINE
  8
0
 10
23.944
 20
4.61368
 11
23.9951
 21
4.66129
  0
LINE
  8
0
 10
23.9951
 20
4.66129
 11
24.0477
 21
4.70708
  0
LINE
  8
0
 10
24.0477
 20
4.70708
 11
24.102
 21
4.75101
  0
LINE
  8
0
 10
24.102
 20
4.75101
 11
24.1578
 21
4.79303
  0
LINE
  8
0
 10
24.1578
 20
4.79303
 11
24.2149
 21
4.83307
  0
LINE
  8
0
 10
24.2149
 20
4.83307
 11
24.2735
 21
4.87109
  0
LINE
  8
0
 10
24.2735
 20
4.87109
 11
24.3333
 21
4.90704
  0
LINE
  8
0
 10
24.3333
 20
4.90704
 11
24.3944
 21
4.94089
  0
LINE
  8
0
 10
24.3944
 20
4.94089
 11
24.4566
 21
4.97258
  0
LINE
  8
0
 10
24.4566
 20
4.97258
 11
24.5199
 21
5.00209
  0
LINE
  8
0
 10
24.5199
 20
5.00209
 11
24.5841
 21
5.02936
  0
LINE
  8
0
 10
24.5841
 20
5.02936
 11
24.6493
 21
5.05438
  0
LINE
  8
0
 10
24.6493
 20
5.05438
 11
24.7153
 21
5.0771
  0
LINE
  8
0
 10
24.7153
 20
5.0771
 11
24.782
 21
5.09752
  0
LINE
  8
0
 10
24.782
 20
5.09752
 11
24.8495
 21
5.11559
  0
LINE
  8
0
 10
24.8495
 20
5.11559
 11
24.9175
 21
5.13129
  0
LINE
  8
0
 10
24.9175
 20
5.13129
 11
24.986
 21
5.14461
  0
LINE
  8
0
 10
24.986
 20
5.14461
 11
25.055
 21
5.15553
  0
LINE
  8
0
 10
25.055
 20
5.15553
 11
25.1243
 21
5.16403
  0
LINE
  8
0
 10
25.1243
 20
5.16403
 11
25.1938
 21
5.17012
  0
LINE
  8
0
 10
25.1938
 20
5.17012
 11
25.2635
 21
5.17377
  0
LINE
  8
0
 10
25.2635
 20
5.17377
 11
25.3333
 21
5.17499
  0
LINE
  8
0
 10
25.3333
 20
5.17499
 11
25.4031
 21
5.17377
  0
LINE
  8
0
 10
25.4031
 20
5.17377
 11
25.4728
 21
5.17012
  0
LINE
  8
0
 10
25.4728
 20
5.17012
 11
25.5424
 21
5.16403
  0
LINE
  8
0
 10
25.5424
 20
5.16403
 11
25.6117
 21
5.15553
  0
LINE
  8
0
 10
25.6117
 20
5.15553
 11
25.6806
 21
5.14461
  0
LINE
  8
0
 10
25.6806
 20
5.14461
 11
25.7491
 21
5.13129
  0
LINE
  8
0
 10
25.7491
 20
5.13129
 11
25.8172
 21
5.11559
  0
LINE
  8
0
 10
25.8172
 20
5.11559
 11
25.8846
 21
5.09752
  0
LINE
  8
0
 10
25.8846
 20
5.09752
 11
25.9514
 21
5.0771
  0
LINE
  8
0
 10
25.9514
 20
5.0771
 11
26.0174
 21
5.05438
  0
LINE
  8
0
 10
26.0174
 20
5.05438
 11
26.0825
 21
5.02936
  0
LINE
  8
0
 10
26.0825
 20
5.02936
 11
26.1468
 21
5.00209
  0
LINE
  8
0
 10
26.1468
 20
5.00209
 11
26.2101
 21
4.97258
  0
LINE
  8
0
 10
26.2101
 20
4.97258
 11
26.2723
 21
4.94089
  0
LINE
  8
0
 10
26.2723
 20
4.94089
 11
26.3333
 21
4.90704
  0
LINE
  8
0
 10
26.3333
 20
4.90704
 11
26.3932
 21
4.87109
  0
LINE
  8
0
 10
26.3932
 20
4.87109
 11
26.4517
 21
4.83307
  0
LINE
  8
0
 10
26.4517
 20
4.83307
 11
26.5089
 21
4.79303
  0
LINE
  8
0
 10
26.5089
 20
4.79303
 11
26.5647
 21
4.75101
  0
LINE
  8
0
 10
26.5647
 20
4.75101
 11
26.6189
 21
4.70708
  0
LINE
  8
0
 10
26.6189
 20
4.70708
 11
26.6716
 21
4.66129
  0
LINE
  8
0
 10
26.6716
 20
4.66129
 11
26.7226
 21
4.61368
  0
LINE
  8
0
 10
26.7226
 20
4.61368
 11
26.772
 21
4.56432
  0
LINE
  8
0
 10
26.772
 20
4.56432
 11
26.8196
 21
4.51326
  0
LINE
  8
0
 10
26.8196
 20
4.51326
 11
26.8654
 21
4.46057
  0
LINE
  8
0
 10
26.8654
 20
4.46057
 11
26.9093
 21
4.40631
  0
LINE
  8
0
 10
26.9093
 20
4.40631
 11
26.9514
 21
4.35056
  0
LINE
  8
0
 10
26.9514
 20
4.35056
 11
26.9914
 21
4.29338
  0
LINE
  8
0
 10
26.9914
 20
4.29338
 11
27.0294
 21
4.23483
  0
LINE
  8
0
 10
27.0294
 20
4.23483
 11
27.0654
 21
4.17499
  0
LINE
  8
0
 10
27.0654
 20
4.17499
 11
27.0992
 21
4.11394
  0
LINE
  8
0
 10
27.0992
 20
4.11394
 11
27.1309
 21
4.05173
  0
LINE
  8
0
 10
27.1309
 20
4.05173
 11
27.1604
 21
3.98846
  0
LINE
  8
0
 10
27.1604
 20
3.98846
 11
27.1877
 21
3.92421
  0
LINE
  8
0
 10
27.1877
 20
3.92421
 11
27.2127
 21
3.85904
  0
LINE
  8
0
 10
27.2127
 20
3.85904
 11
27.2354
 21
3.79303
  0
LINE
  8
0
 10
27.2354
 20
3.79303
 11
27.2558
 21
3.72627
  0
LINE
  8
0
 10
27.2558
 20
3.72627
 11
27.2739
 21
3.65883
  0
LINE
  8
0
 10
27.2739
 20
3.65883
 11
27.2896
 21
3.59082
  0
LINE
  8
0
 10
27.2896
 20
3.59082
 11
27.3029
 21
3.52229
  0
LINE
  8
0
 10
27.3029
 20
3.52229
 11
27.3139
 21
3.45334
  0
LINE
  8
0
 10
27.3139
 20
3.45334
 11
27.3224
 21
3.38405
  0
LINE
  8
0
 10
27.3224
 20
3.38405
 11
27.3285
 21
3.3145
  0
LINE
  8
0
 10
27.3285
 20
3.3145
 11
27.3321
 21
3.2448
  0
LINE
  8
0
 10
27.3321
 20
3.2448
 11
27.3333
 21
3.17499
  0
LINE
  8
0
 10
27.3333
 20
3.17499
 11
27.3321
 21
3.10519
  0
LINE
  8
0
 10
27.3321
 20
3.10519
 11
27.3285
 21
3.03548
  0
LINE
  8
0
 10
27.3285
 20
3.03548
 11
27.3224
 21
2.96594
  0
LINE
  8
0
 10
27.3224
 20
2.96594
 11
27.3139
 21
2.89665
  0
LINE
  8
0
 10
27.3139
 20
2.89665
 11
27.3029
 21
2.8277
  0
LINE
  8
0
 10
27.3029
 20
2.8277
 11
27.2896
 21
2.75917
  0
LINE
  8
0
 10
27.2896
 20
2.75917
 11
27.2739
 21
2.69115
  0
LINE
  8
0
 10
27.2739
 20
2.69115
 11
27.2558
 21
2.62372
  0
LINE
  8
0
 10
27.2558
 20
2.62372
 11
27.2354
 21
2.55696
  0
LINE
  8
0
 10
27.2354
 20
2.55696
 11
27.2127
 21
2.49095
  0
LINE
  8
0
 10
27.2127
 20
2.49095
 11
27.1877
 21
2.42578
  0
LINE
  8
0
 10
27.1877
 20
2.42578
 11
27.1604
 21
2.36153
  0
LINE
  8
0
 10
27.1604
 20
2.36153
 11
27.1309
 21
2.29825
  0
LINE
  8
0
 10
27.1309
 20
2.29825
 11
27.0992
 21
2.23605
  0
LINE
  8
0
 10
27.0992
 20
2.23605
 11
27.0654
 21
2.17499
  0
LINE
  8
0
 10
27.0654
 20
2.17499
 11
27.0294
 21
2.11516
  0
LINE
  8
0
 10
27.0294
 20
2.11516
 11
26.9914
 21
2.05661
  0
LINE
  8
0
 10
26.9914
 20
2.05661
 11
26.9514
 21
1.99942
  0
LINE
  8
0
 10
26.9514
 20
1.99942
 11
26.9093
 21
1.94366
  0
LINE
  8
0
 10
26.9093
 20
1.94366
 11
26.8654
 21
1.88942
  0
LINE
  8
0
 10
26.8654
 20
1.88942
 11
26.8196
 21
1.83673
  0
LINE
  8
0
 10
26.8196
 20
1.83673
 11
26.772
 21
1.78568
  0
LINE
  8
0
 10
26.772
 20
1.78568
 11
26.7226
 21
1.73631
  0
LINE
  8
0
 10
26.7226
 20
1.73631
 11
26.6716
 21
1.68871
  0
LINE
  8
0
 10
26.6716
 20
1.68871
 11
26.6189
 21
1.6429
  0
LINE
  8
0
 10
26.6189
 20
1.6429
 11
26.5647
 21
1.59897
  0
LINE
  8
0
 10
26.5647
 20
1.59897
 11
26.5089
 21
1.55696
  0
LINE
  8
0
 10
26.5089
 20
1.55696
 11
26.4517
 21
1.51692
  0
LINE
  8
0
 10
26.4517
 20
1.51692
 11
26.3932
 21
1.4789
  0
LINE
  8
0
 10
26.3932
 20
1.4789
 11
26.3333
 21
1.44295
  0
LINE
  8
0
 10
26.3333
 20
1.44295
 11
26.2723
 21
1.4091
  0
LINE
  8
0
 10
26.2723
 20
1.4091
 11
26.2101
 21
1.37741
  0
LINE
  8
0
 10
26.2101
 20
1.37741
 11
26.1468
 21
1.3479
  0
LINE
  8
0
 10
26.1468
 20
1.3479
 11
26.0825
 21
1.32062
  0
LINE
  8
0
 10
26.0825
 20
1.32062
 11
26.0174
 21
1.29561
  0
LINE
  8
0
 10
26.0174
 20
1.29561
 11
25.9514
 21
1.27287
  0
LINE
  8
0
 10
25.9514
 20
1.27287
 11
25.8846
 21
1.25247
  0
LINE
  8
0
 10
25.8846
 20
1.25247
 11
25.8172
 21
1.23441
  0
LINE
  8
0
 10
25.8172
 20
1.23441
 11
25.7491
 21
1.2187
  0
LINE
  8
0
 10
25.7491
 20
1.2187
 11
25.6806
 21
1.20538
  0
LINE
  8
0
 10
25.6806
 20
1.20538
 11
25.6117
 21
1.19446
  0
LINE
  8
0
 10
25.6117
 20
1.19446
 11
25.5424
 21
1.18594
  0
LINE
  8
0
 10
25.5424
 20
1.18594
 11
25.4728
 21
1.17987
  0
LINE
  8
0
 10
25.4728
 20
1.17987
 11
25.4031
 21
1.17621
  0
LINE
  8
0
 10
25.4031
 20
1.17621
 11
25.3333
 21
1.17499
  0
LINE
  8
0
 10
25.3333
 20
1.17499
 11
25.2635
 21
1.17621
  0
LINE
  8
0
 10
75.9302
 20
1.17621
 11
75.8605
 21
1.17987
  0
LINE
  8
0
 10
75.8605
 20
1.17987
 11
75.7909
 21
1.18594
  0
LINE
  8
0
 10
75.7909
 20
1.18594
 11
75.7216
 21
1.19446
  0
LINE
  8
0
 10
75.7216
 20
1.19446
 11
75.6527
 21
1.20538
  0
LINE
  8
0
 10
75.6527
 20
1.20538
 11
75.5842
 21
1.2187
  0
LINE
  8
0
 10
75.5842
 20
1.2187
 11
75.5161
 21
1.23441
  0
LINE
  8
0
 10
75.5161
 20
1.23441
 11
75.4487
 21
1.25247
  0
LINE
  8
0
 10
75.4487
 20
1.25247
 11
75.382
 21
1.27287
  0
LINE
  8
0
 10
75.382
 20
1.27287
 11
75.3159
 21
1.29561
  0
LINE
  8
0
 10
75.3159
 20
1.29561
 11
75.2508
 21
1.32062
  0
LINE
  8
0
 10
75.2508
 20
1.32062
 11
75.1865
 21
1.3479
  0
LINE
  8
0
 10
75.1865
 20
1.3479
 11
75.1232
 21
1.37741
  0
LINE
  8
0
 10
75.1232
 20
1.37741
 11
75.0611
 21
1.4091
  0
LINE
  8
0
 10
75.0611
 20
1.4091
 11
75
 21
1.44295
  0
LINE
  8
0
 10
75
 20
1.44295
 11
74.9402
 21
1.4789
  0
LINE
  8
0
 10
74.9402
 20
1.4789
 11
74.8816
 21
1.51692
  0
LINE
  8
0
 10
74.8816
 20
1.51692
 11
74.8244
 21
1.55696
  0
LINE
  8
0
 10
74.8244
 20
1.55696
 11
74.7687
 21
1.59897
  0
LINE
  8
0
 10
74.7687
 20
1.59897
 11
74.7144
 21
1.6429
  0
LINE
  8
0
 10
74.7144
 20
1.6429
 11
74.6617
 21
1.68871
  0
LINE
  8
0
 10
74.6617
 20
1.68871
 11
74.6107
 21
1.73631
  0
LINE
  8
0
 10
74.6107
 20
1.73631
 11
74.5613
 21
1.78568
  0
LINE
  8
0
 10
74.5613
 20
1.78568
 11
74.5137
 21
1.83673
  0
LINE
  8
0
 10
74.5137
 20
1.83673
 11
74.4679
 21
1.88942
  0
LINE
  8
0
 10
74.4679
 20
1.88942
 11
74.424
 21
1.94366
  0
LINE
  8
0
 10
74.424
 20
1.94366
 11
74.382
 21
1.99942
  0
LINE
  8
0
 10
74.382
 20
1.99942
 11
74.3419
 21
2.05661
  0
LINE
  8
0
 10
74.3419
 20
2.05661
 11
74.3039
 21
2.11516
  0
LINE
  8
0
 10
74.3039
 20
2.11516
 11
74.2679
 21
2.17499
  0
LINE
  8
0
 10
74.2679
 20
2.17499
 11
74.2341
 21
2.23605
  0
LINE
  8
0
 10
74.2341
 20
2.23605
 11
74.2024
 21
2.29825
  0
LINE
  8
0
 10
74.2024
 20
2.29825
 11
74.1729
 21
2.36153
  0
LINE
  8
0
 10
74.1729
 20
2.36153
 11
74.1456
 21
2.42578
  0
LINE
  8
0
 10
74.1456
 20
2.42578
 11
74.1206
 21
2.49095
  0
LINE
  8
0
 10
74.1206
 20
2.49095
 11
74.0979
 21
2.55696
  0
LINE
  8
0
 10
74.0979
 20
2.55696
 11
74.0775
 21
2.62372
  0
LINE
  8
0
 10
74.0775
 20
2.62372
 11
74.0594
 21
2.69115
  0
LINE
  8
0
 10
74.0594
 20
2.69115
 11
74.0437
 21
2.75917
  0
LINE
  8
0
 10
74.0437
 20
2.75917
 11
74.0304
 21
2.8277
  0
LINE
  8
0
 10
74.0304
 20
2.8277
 11
74.0195
 21
2.89665
  0
LINE
  8
0
 10
74.0195
 20
2.89665
 11
74.011
 21
2.96594
  0
LINE
  8
0
 10
74.011
 20
2.96594
 11
74.0049
 21
3.03548
  0
LINE
  8
0
 10
74.0049
 20
3.03548
 11
74.0012
 21
3.10519
  0
LINE
  8
0
 10
74.0012
 20
3.10519
 11
74
 21
3.17499
  0
LINE
  8
0
 10
74
 20
3.17499
 11
74.0012
 21
3.2448
  0
LINE
  8
0
 10
74.0012
 20
3.2448
 11
74.0049
 21
3.3145
  0
LINE
  8
0
 10
74.0049
 20
3.3145
 11
74.011
 21
3.38405
  0
LINE
  8
0
 10
74.011
 20
3.38405
 11
74.0195
 21
3.45334
  0
LINE
  8
0
 10
74.0195
 20
3.45334
 11
74.0304
 21
3.52229
  0
LINE
  8
0
 10
74.0304
 20
3.52229
 11
74.0437
 21
3.59082
  0
LINE
  8
0
 10
74.0437
 20
3.59082
 11
74.0594
 21
3.65883
  0
LINE
  8
0
 10
74.0594
 20
3.65883
 11
74.0775
 21
3.72627
  0
LINE
  8
0
 10
74.0775
 20
3.72627
 11
74.0979
 21
3.79303
  0
LINE
  8
0
 10
74.0979
 20
3.79303
 11
74.1206
 21
3.85904
  0
LINE
  8
0
 10
74.1206
 20
3.85904
 11
74.1456
 21
3.92421
  0
LINE
  8
0
 10
74.1456
 20
3.92421
 11
74.1729
 21
3.98846
  0
LINE
  8
0
 10
74.1729
 20
3.98846
 11
74.2024
 21
4.05173
  0
LINE
  8
0
 10
74.2024
 20
4.05173
 11
74.2341
 21
4.11394
  0
LINE
  8
0
 10
74.2341
 20
4.11394
 11
74.2679
 21
4.17499
  0
LINE
  8
0
 10
74.2679
 20
4.17499
 11
74.3039
 21
4.23483
  0
LINE
  8
0
 10
74.3039
 20
4.23483
 11
74.3419
 21
4.29338
  0
LINE
  8
0
 10
74.3419
 20
4.29338
 11
74.382
 21
4.35056
  0
LINE
  8
0
 10
74.382
 20
4.35056
 11
74.424
 21
4.40631
  0
LINE
  8
0
 10
74.424
 20
4.40631
 11
74.4679
 21
4.46057
  0
LINE
  8
0
 10
74.4679
 20
4.46057
 11
74.5137
 21
4.51326
  0
LINE
  8
0
 10
74.5137
 20
4.51326
 11
74.5613
 21
4.56432
  0
LINE
  8
0
 10
74.5613
 20
4.56432
 11
74.6107
 21
4.61368
  0
LINE
  8
0
 10
74.6107
 20
4.61368
 11
74.6617
 21
4.66129
  0
LINE
  8
0
 10
74.6617
 20
4.66129
 11
74.7144
 21
4.70708
  0
LINE
  8
0
 10
74.7144
 20
4.70708
 11
74.7687
 21
4.75101
  0
LINE
  8
0
 10
74.7687
 20
4.75101
 11
74.8244
 21
4.79303
  0
LINE
  8
0
 10
74.8244
 20
4.79303
 11
74.8816
 21
4.83307
  0
LINE
  8
0
 10
74.8816
 20
4.83307
 11
74.9402
 21
4.87109
  0
LINE
  8
0
 10
74.9402
 20
4.87109
 11
75
 21
4.90704
  0
LINE
  8
0
 10
75
 20
4.90704
 11
75.0611
 21
4.94089
  0
LINE
  8
0
 10
75.0611
 20
4.94089
 11
75.1232
 21
4.97258
  0
LINE
  8
0
 10
75.1232
 20
4.97258
 11
75.1865
 21
5.00209
  0
LINE
  8
0
 10
75.1865
 20
5.00209
 11
75.2508
 21
5.02936
  0
LINE
  8
0
 10
75.2508
 20
5.02936
 11
75.3159
 21
5.05438
  0
LINE
  8
0
 10
75.3159
 20
5.05438
 11
75.382
 21
5.0771
  0
LINE
  8
0
 10
75.382
 20
5.0771
 11
75.4487
 21
5.09752
  0
LINE
  8
0
 10
75.4487
 20
5.09752
 11
75.5161
 21
5.11559
  0
LINE
  8
0
 10
75.5161
 20
5.11559
 11
75.5842
 21
5.13129
  0
LINE
  8
0
 10
75.5842
 20
5.13129
 11
75.6527
 21
5.14461
  0
LINE
  8
0
 10
75.6527
 20
5.14461
 11
75.7216
 21
5.15553
  0
LINE
  8
0
 10
75.7216
 20
5.15553
 11
75.7909
 21
5.16403
  0
LINE
  8
0
 10
75.7909
 20
5.16403
 11
75.8605
 21
5.17012
  0
LINE
  8
0
 10
75.8605
 20
5.17012
 11
75.9302
 21
5.17377
  0
LINE
  8
0
 10
75.9302
 20
5.17377
 11
76
 21
5.17499
  0
LINE
  8
0
 10
76
 20
5.17499
 11
76.0698
 21
5.17377
  0
LINE
  8
0
 10
76.0698
 20
5.17377
 11
76.1395
 21
5.17012
  0
LINE
  8
0
 10
76.1395
 20
5.17012
 11
76.209
 21
5.16403
  0
LINE
  8
0
 10
76.209
 20
5.16403
 11
76.2783
 21
5.15553
  0
LINE
  8
0
 10
76.2783
 20
5.15553
 11
76.3473
 21
5.14461
  0
LINE
  8
0
 10
76.3473
 20
5.14461
 11
76.4158
 21
5.13129
  0
LINE
  8
0
 10
76.4158
 20
5.13129
 11
76.4838
 21
5.11559
  0
LINE
  8
0
 10
76.4838
 20
5.11559
 11
76.5513
 21
5.09752
  0
LINE
  8
0
 10
76.5513
 20
5.09752
 11
76.618
 21
5.0771
  0
LINE
  8
0
 10
76.618
 20
5.0771
 11
76.684
 21
5.05438
  0
LINE
  8
0
 10
76.684
 20
5.05438
 11
76.7492
 21
5.02936
  0
LINE
  8
0
 10
76.7492
 20
5.02936
 11
76.8135
 21
5.00209
  0
LINE
  8
0
 10
76.8135
 20
5.00209
 11
76.8767
 21
4.97258
  0
LINE
  8
0
 10
76.8767
 20
4.97258
 11
76.9389
 21
4.94089
  0
LINE
  8
0
 10
76.9389
 20
4.94089
 11
77
 21
4.90704
  0
LINE
  8
0
 10
77
 20
4.90704
 11
77.0598
 21
4.87109
  0
LINE
  8
0
 10
77.0598
 20
4.87109
 11
77.1184
 21
4.83307
  0
LINE
  8
0
 10
77.1184
 20
4.83307
 11
77.1756
 21
4.79303
  0
LINE
  8
0
 10
77.1756
 20
4.79303
 11
77.2313
 21
4.75101
  0
LINE
  8
0
 10
77.2313
 20
4.75101
 11
77.2856
 21
4.70708
  0
LINE
  8
0
 10
77.2856
 20
4.70708
 11
77.3383
 21
4.66129
  0
LINE
  8
0
 10
77.3383
 20
4.66129
 11
77.3893
 21
4.61368
  0
LINE
  8
0
 10
77.3893
 20
4.61368
 11
77.4387
 21
4.56432
  0
LINE
  8
0
 10
77.4387
 20
4.56432
 11
77.4863
 21
4.51326
  0
LINE
  8
0
 10
77.4863
 20
4.51326
 11
77.5321
 21
4.46057
  0
LINE
  8
0
 10
77.5321
 20
4.46057
 11
77.576
 21
4.40631
  0
LINE
  8
0
 10
77.576
 20
4.40631
 11
77.618
 21
4.35056
  0
LINE
  8
0
 10
77.618
 20
4.35056
 11
77.6581
 21
4.29338
  0
LINE
  8
0
 10
77.6581
 20
4.29338
 11
77.6961
 21
4.23483
  0
LINE
  8
0
 10
77.6961
 20
4.23483
 11
77.732
 21
4.17499
  0
LINE
  8
0
 10
77.732
 20
4.17499
 11
77.7659
 21
4.11394
  0
LINE
  8
0
 10
77.7659
 20
4.11394
 11
77.7976
 21
4.05173
  0
LINE
  8
0
 10
77.7976
 20
4.05173
 11
77.8271
 21
3.98846
  0
LINE
  8
0
 10
77.8271
 20
3.98846
 11
77.8544
 21
3.92421
  0
LINE
  8
0
 10
77.8544
 20
3.92421
 11
77.8794
 21
3.85904
  0
LINE
  8
0
 10
77.8794
 20
3.85904
 11
77.9021
 21
3.79303
  0
LINE
  8
0
 10
77.9021
 20
3.79303
 11
77.9225
 21
3.72627
  0
LINE
  8
0
 10
77.9225
 20
3.72627
 11
77.9406
 21
3.65883
  0
LINE
  8
0
 10
77.9406
 20
3.65883
 11
77.9563
 21
3.59082
  0
LINE
  8
0
 10
77.9563
 20
3.59082
 11
77.9696
 21
3.52229
  0
LINE
  8
0
 10
77.9696
 20
3.52229
 11
77.9805
 21
3.45334
  0
LINE
  8
0
 10
77.9805
 20
3.45334
 11
77.989
 21
3.38405
  0
LINE
  8
0
 10
77.989
 20
3.38405
 11
77.9951
 21
3.3145
  0
LINE
  8
0
 10
77.9951
 20
3.3145
 11
77.9988
 21
3.2448
  0
LINE
  8
0
 10
77.9988
 20
3.2448
 11
78
 21
3.17499
  0
LINE
  8
0
 10
78
 20
3.17499
 11
77.9988
 21
3.10519
  0
LINE
  8
0
 10
77.9988
 20
3.10519
 11
77.9951
 21
3.03548
  0
LINE
  8
0
 10
77.9951
 20
3.03548
 11
77.989
 21
2.96594
  0
LINE
  8
0
 10
77.989
 20
2.96594
 11
77.9805
 21
2.89665
  0
LINE
  8
0
 10
77.9805
 20
2.89665
 11
77.9696
 21
2.8277
  0
LINE
  8
0
 10
77.9696
 20
2.8277
 11
77.9563
 21
2.75917
  0
LINE
  8
0
 10
77.9563
 20
2.75917
 11
77.9406
 21
2.69115
  0
LINE
  8
0
 10
77.9406
 20
2.69115
 11
77.9225
 21
2.62372
  0
LINE
  8
0
 10
77.9225
 20
2.62372
 11
77.9021
 21
2.55696
  0
LINE
  8
0
 10
77.9021
 20
2.55696
 11
77.8794
 21
2.49095
  0
LINE
  8
0
 10
77.8794
 20
2.49095
 11
77.8544
 21
2.42578
  0
LINE
  8
0
 10
77.8544
 20
2.42578
 11
77.8271
 21
2.36153
  0
LINE
  8
0
 10
77.8271
 20
2.36153
 11
77.7976
 21
2.29825
  0
LINE
  8
0
 10
77.7976
 20
2.29825
 11
77.7659
 21
2.23605
  0
LINE
  8
0
 10
77.7659
 20
2.23605
 11
77.732
 21
2.17499
  0
LINE
  8
0
 10
77.732
 20
2.17499
 11
77.6961
 21
2.11516
  0
LINE
  8
0
 10
77.6961
 20
2.11516
 11
77.6581
 21
2.05661
  0
LINE
  8
0
 10
77.6581
 20
2.05661
 11
77.618
 21
1.99942
  0
LINE
  8
0
 10
77.618
 20
1.99942
 11
77.576
 21
1.94366
  0
LINE
  8
0
 10
77.576
 20
1.94366
 11
77.5321
 21
1.88942
  0
LINE
  8
0
 10
77.5321
 20
1.88942
 11
77.4863
 21
1.83673
  0
LINE
  8
0
 10
77.4863
 20
1.83673
 11
77.4387
 21
1.78568
  0
LINE
  8
0
 10
77.4387
 20
1.78568
 11
77.3893
 21
1.73631
  0
LINE
  8
0
 10
77.3893
 20
1.73631
 11
77.3383
 21
1.68871
  0
LINE
  8
0
 10
77.3383
 20
1.68871
 11
77.2856
 21
1.6429
  0
LINE
  8
0
 10
77.2856
 20
1.6429
 11
77.2313
 21
1.59897
  0
LINE
  8
0
 10
77.2313
 20
1.59897
 11
77.1756
 21
1.55696
  0
LINE
  8
0
 10
77.1756
 20
1.55696
 11
77.1184
 21
1.51692
  0
LINE
  8
0
 10
77.1184
 20
1.51692
 11
77.0598
 21
1.4789
  0
LINE
  8
0
 10
77.0598
 20
1.4789
 11
77
 21
1.44295
  0
LINE
  8
0
 10
77
 20
1.44295
 11
76.9389
 21
1.4091
  0
LINE
  8
0
 10
76.9389
 20
1.4091
 11
76.8767
 21
1.37741
  0
LINE
  8
0
 10
76.8767
 20
1.37741
 11
76.8135
 21
1.3479
  0
LINE
  8
0
 10
76.8135
 20
1.3479
 11
76.7492
 21
1.32062
  0
LINE
  8
0
 10
76.7492
 20
1.32062
 11
76.684
 21
1.29561
  0
LINE
  8
0
 10
76.684
 20
1.29561
 11
76.618
 21
1.27287
  0
LINE
  8
0
 10
76.618
 20
1.27287
 11
76.5513
 21
1.25247
  0
LINE
  8
0
 10
76.5513
 20
1.25247
 11
76.4838
 21
1.23441
  0
LINE
  8
0
 10
76.4838
 20
1.23441
 11
76.4158
 21
1.2187
  0
LINE
  8
0
 10
76.4158
 20
1.2187
 11
76.3473
 21
1.20538
  0
LINE
  8
0
 10
76.3473
 20
1.20538
 11
76.2783
 21
1.19446
  0
LINE
  8
0
 10
76.2783
 20
1.19446
 11
76.209
 21
1.18594
  0
LINE
  8
0
 10
76.209
 20
1.18594
 11
76.1395
 21
1.17987
  0
LINE
  8
0
 10
76.1395
 20
1.17987
 11
76.0698
 21
1.17621
  0
LINE
  8
0
 10
76.0698
 20
1.17621
 11
76
 21
1.17499
  0
LINE
  8
0
 10
76
 20
1.17499
 11
75.9302
 21
1.17621
  0
LINE
  8
0
 10
126.597
 20
1.17621
 11
126.527
 21
1.17987
  0
LINE
  8
0
 10
126.527
 20
1.17987
 11
126.458
 21
1.18594
  0
LINE
  8
0
 10
126.458
 20
1.18594
 11
126.388
 21
1.19446
  0
LINE
  8
0
 10
126.388
 20
1.19446
 11
126.319
 21
1.20538
  0
LINE
  8
0
 10
126.319
 20
1.20538
 11
126.251
 21
1.2187
  0
LINE
  8
0
 10
126.251
 20
1.2187
 11
126.183
 21
1.23441
  0
LINE
  8
0
 10
126.183
 20
1.23441
 11
126.115
 21
1.25247
  0
LINE
  8
0
 10
126.115
 20
1.25247
 11
126.049
 21
1.27287
  0
LINE
  8
0
 10
126.049
 20
1.27287
 11
125.983
 21
1.29561
  0
LINE
  8
0
 10
125.983
 20
1.29561
 11
125.917
 21
1.32062
  0
LINE
  8
0
 10
125.917
 20
1.32062
 11
125.853
 21
1.3479
  0
LINE
  8
0
 10
125.853
 20
1.3479
 11
125.79
 21
1.37741
  0
LINE
  8
0
 10
125.79
 20
1.37741
 11
125.728
 21
1.4091
  0
LINE
  8
0
 10
125.728
 20
1.4091
 11
125.667
 21
1.44295
  0
LINE
  8
0
 10
125.667
 20
1.44295
 11
125.607
 21
1.4789
  0
LINE
  8
0
 10
125.607
 20
1.4789
 11
125.548
 21
1.51692
  0
LINE
  8
0
 10
125.548
 20
1.51692
 11
125.491
 21
1.55696
  0
LINE
  8
0
 10
125.491
 20
1.55696
 11
125.435
 21
1.59897
  0
LINE
  8
0
 10
125.435
 20
1.59897
 11
125.381
 21
1.6429
  0
LINE
  8
0
 10
125.381
 20
1.6429
 11
125.328
 21
1.68871
  0
LINE
  8
0
 10
125.328
 20
1.68871
 11
125.277
 21
1.73631
  0
LINE
  8
0
 10
125.277
 20
1.73631
 11
125.228
 21
1.78568
  0
LINE
  8
0
 10
125.228
 20
1.78568
 11
125.18
 21
1.83673
  0
LINE
  8
0
 10
125.18
 20
1.83673
 11
125.135
 21
1.88942
  0
LINE
  8
0
 10
125.135
 20
1.88942
 11
125.091
 21
1.94366
  0
LINE
  8
0
 10
125.091
 20
1.94366
 11
125.049
 21
1.99942
  0
LINE
  8
0
 10
125.049
 20
1.99942
 11
125.009
 21
2.05661
  0
LINE
  8
0
 10
125.009
 20
2.05661
 11
124.971
 21
2.11516
  0
LINE
  8
0
 10
124.971
 20
2.11516
 11
124.935
 21
2.17499
  0
LINE
  8
0
 10
124.935
 20
2.17499
 11
124.901
 21
2.23605
  0
LINE
  8
0
 10
124.901
 20
2.23605
 11
124.869
 21
2.29825
  0
LINE
  8
0
 10
124.869
 20
2.29825
 11
124.84
 21
2.36153
  0
LINE
  8
0
 10
124.84
 20
2.36153
 11
124.812
 21
2.42578
  0
LINE
  8
0
 10
124.812
 20
2.42578
 11
124.787
 21
2.49095
  0
LINE
  8
0
 10
124.787
 20
2.49095
 11
124.765
 21
2.55696
  0
LINE
  8
0
 10
124.765
 20
2.55696
 11
124.744
 21
2.62372
  0
LINE
  8
0
 10
124.744
 20
2.62372
 11
124.726
 21
2.69115
  0
LINE
  8
0
 10
124.726
 20
2.69115
 11
124.71
 21
2.75917
  0
LINE
  8
0
 10
124.71
 20
2.75917
 11
124.697
 21
2.8277
  0
LINE
  8
0
 10
124.697
 20
2.8277
 11
124.686
 21
2.89665
  0
LINE
  8
0
 10
124.686
 20
2.89665
 11
124.678
 21
2.96594
  0
LINE
  8
0
 10
124.678
 20
2.96594
 11
124.672
 21
3.03548
  0
LINE
  8
0
 10
124.672
 20
3.03548
 11
124.668
 21
3.10519
  0
LINE
  8
0
 10
124.668
 20
3.10519
 11
124.667
 21
3.17499
  0
LINE
  8
0
 10
124.667
 20
3.17499
 11
124.668
 21
3.2448
  0
LINE
  8
0
 10
124.668
 20
3.2448
 11
124.672
 21
3.3145
  0
LINE
  8
0
 10
124.672
 20
3.3145
 11
124.678
 21
3.38405
  0
LINE
  8
0
 10
124.678
 20
3.38405
 11
124.686
 21
3.45334
  0
LINE
  8
0
 10
124.686
 20
3.45334
 11
124.697
 21
3.52229
  0
LINE
  8
0
 10
124.697
 20
3.52229
 11
124.71
 21
3.59082
  0
LINE
  8
0
 10
124.71
 20
3.59082
 11
124.726
 21
3.65883
  0
LINE
  8
0
 10
124.726
 20
3.65883
 11
124.744
 21
3.72627
  0
LINE
  8
0
 10
124.744
 20
3.72627
 11
124.765
 21
3.79303
  0
LINE
  8
0
 10
124.765
 20
3.79303
 11
124.787
 21
3.85904
  0
LINE
  8
0
 10
124.787
 20
3.85904
 11
124.812
 21
3.92421
  0
LINE
  8
0
 10
124.812
 20
3.92421
 11
124.84
 21
3.98846
  0
LINE
  8
0
 10
124.84
 20
3.98846
 11
124.869
 21
4.05173
  0
LINE
  8
0
 10
124.869
 20
4.05173
 11
124.901
 21
4.11394
  0
LINE
  8
0
 10
124.901
 20
4.11394
 11
124.935
 21
4.17499
  0
LINE
  8
0
 10
124.935
 20
4.17499
 11
124.971
 21
4.23483
  0
LINE
  8
0
 10
124.971
 20
4.23483
 11
125.009
 21
4.29338
  0
LINE
  8
0
 10
125.009
 20
4.29338
 11
125.049
 21
4.35056
  0
LINE
  8
0
 10
125.049
 20
4.35056
 11
125.091
 21
4.40631
  0
LINE
  8
0
 10
125.091
 20
4.40631
 11
125.135
 21
4.46057
  0
LINE
  8
0
 10
125.135
 20
4.46057
 11
125.18
 21
4.51326
  0
LINE
  8
0
 10
125.18
 20
4.51326
 11
125.228
 21
4.56432
  0
LINE
  8
0
 10
125.228
 20
4.56432
 11
125.277
 21
4.61368
  0
LINE
  8
0
 10
125.277
 20
4.61368
 11
125.328
 21
4.66129
  0
LINE
  8
0
 10
125.328
 20
4.66129
 11
125.381
 21
4.70708
  0
LINE
  8
0
 10
125.381
 20
4.70708
 11
125.435
 21
4.75101
  0
LINE
  8
0
 10
125.435
 20
4.75101
 11
125.491
 21
4.79303
  0
LINE
  8
0
 10
125.491
 20
4.79303
 11
125.548
 21
4.83307
  0
LINE
  8
0
 10
125.548
 20
4.83307
 11
125.607
 21
4.87109
  0
LINE
  8
0
 10
125.607
 20
4.87109
 11
125.667
 21
4.90704
  0
LINE
  8
0
 10
125.667
 20
4.90704
 11
125.728
 21
4.94089
  0
LINE
  8
0
 10
125.728
 20
4.94089
 11
125.79
 21
4.97258
  0
LINE
  8
0
 10
125.79
 20
4.97258
 11
125.853
 21
5.00209
  0
LINE
  8
0
 10
125.853
 20
5.00209
 11
125.917
 21
5.02936
  0
LINE
  8
0
 10
125.917
 20
5.02936
 11
125.983
 21
5.05438
  0
LINE
  8
0
 10
125.983
 20
5.05438
 11
126.049
 21
5.0771
  0
LINE
  8
0
 10
126.049
 20
5.0771
 11
126.115
 21
5.09752
  0
LINE
  8
0
 10
126.115
 20
5.09752
 11
126.183
 21
5.11559
  0
LINE
  8
0
 10
126.183
 20
5.11559
 11
126.251
 21
5.13129
  0
LINE
  8
0
 10
126.251
 20
5.13129
 11
126.319
 21
5.14461
  0
LINE
  8
0
 10
126.319
 20
5.14461
 11
126.388
 21
5.15553
  0
LINE
  8
0
 10
126.388
 20
5.15553
 11
126.458
 21
5.16403
  0
LINE
  8
0
 10
126.458
 20
5.16403
 11
126.527
 21
5.17012
  0
LINE
  8
0
 10
126.527
 20
5.17012
 11
126.597
 21
5.17377
  0
LINE
  8
0
 10
126.597
 20
5.17377
 11
126.667
 21
5.17499
  0
LINE
  8
0
 10
126.667
 20
5.17499
 11
126.736
 21
5.17377
  0
LINE
  8
0
 10
126.736
 20
5.17377
 11
126.806
 21
5.17012
  0
LINE
  8
0
 10
126.806
 20
5.17012
 11
126.876
 21
5.16403
  0
LINE
  8
0
 10
126.876
 20
5.16403
 11
126.945
 21
5.15553
  0
LINE
  8
0
 10
126.945
 20
5.15553
 11
127.014
 21
5.14461
  0
LINE
  8
0
 10
127.014
 20
5.14461
 11
127.082
 21
5.13129
  0
LINE
  8
0
 10
127.082
 20
5.13129
 11
127.15
 21
5.11559
  0
LINE
  8
0
 10
127.15
 20
5.11559
 11
127.218
 21
5.09752
  0
LINE
  8
0
 10
127.218
 20
5.09752
 11
127.285
 21
5.0771
  0
LINE
  8
0
 10
127.285
 20
5.0771
 11
127.351
 21
5.05438
  0
LINE
  8
0
 10
127.351
 20
5.05438
 11
127.416
 21
5.02936
  0
LINE
  8
0
 10
127.416
 20
5.02936
 11
127.48
 21
5.00209
  0
LINE
  8
0
 10
127.48
 20
5.00209
 11
127.543
 21
4.97258
  0
LINE
  8
0
 10
127.543
 20
4.97258
 11
127.606
 21
4.94089
  0
LINE
  8
0
 10
127.606
 20
4.94089
 11
127.667
 21
4.90704
  0
LINE
  8
0
 10
127.667
 20
4.90704
 11
127.727
 21
4.87109
  0
LINE
  8
0
 10
127.727
 20
4.87109
 11
127.785
 21
4.83307
  0
LINE
  8
0
 10
127.785
 20
4.83307
 11
127.842
 21
4.79303
  0
LINE
  8
0
 10
127.842
 20
4.79303
 11
127.898
 21
4.75101
  0
LINE
  8
0
 10
127.898
 20
4.75101
 11
127.952
 21
4.70708
  0
LINE
  8
0
 10
127.952
 20
4.70708
 11
128.005
 21
4.66129
  0
LINE
  8
0
 10
128.005
 20
4.66129
 11
128.056
 21
4.61368
  0
LINE
  8
0
 10
128.056
 20
4.61368
 11
128.105
 21
4.56432
  0
LINE
  8
0
 10
128.105
 20
4.56432
 11
128.153
 21
4.51326
  0
LINE
  8
0
 10
128.153
 20
4.51326
 11
128.199
 21
4.46057
  0
LINE
  8
0
 10
128.199
 20
4.46057
 11
128.243
 21
4.40631
  0
LINE
  8
0
 10
128.243
 20
4.40631
 11
128.285
 21
4.35056
  0
LINE
  8
0
 10
128.285
 20
4.35056
 11
128.325
 21
4.29338
  0
LINE
  8
0
 10
128.325
 20
4.29338
 11
128.363
 21
4.23483
  0
LINE
  8
0
 10
128.363
 20
4.23483
 11
128.399
 21
4.17499
  0
LINE
  8
0
 10
128.399
 20
4.17499
 11
128.433
 21
4.11394
  0
LINE
  8
0
 10
128.433
 20
4.11394
 11
128.464
 21
4.05173
  0
LINE
  8
0
 10
128.464
 20
4.05173
 11
128.494
 21
3.98846
  0
LINE
  8
0
 10
128.494
 20
3.98846
 11
128.521
 21
3.92421
  0
LINE
  8
0
 10
128.521
 20
3.92421
 11
128.546
 21
3.85904
  0
LINE
  8
0
 10
128.546
 20
3.85904
 11
128.569
 21
3.79303
  0
LINE
  8
0
 10
128.569
 20
3.79303
 11
128.589
 21
3.72627
  0
LINE
  8
0
 10
128.589
 20
3.72627
 11
128.607
 21
3.65883
  0
LINE
  8
0
 10
128.607
 20
3.65883
 11
128.623
 21
3.59082
  0
LINE
  8
0
 10
128.623
 20
3.59082
 11
128.636
 21
3.52229
  0
LINE
  8
0
 10
128.636
 20
3.52229
 11
128.647
 21
3.45334
  0
LINE
  8
0
 10
128.647
 20
3.45334
 11
128.656
 21
3.38405
  0
LINE
  8
0
 10
128.656
 20
3.38405
 11
128.662
 21
3.3145
  0
LINE
  8
0
 10
128.662
 20
3.3145
 11
128.665
 21
3.2448
  0
LINE
  8
0
 10
128.665
 20
3.2448
 11
128.667
 21
3.17499
  0
LINE
  8
0
 10
128.667
 20
3.17499
 11
128.665
 21
3.10519
  0
LINE
  8
0
 10
128.665
 20
3.10519
 11
128.662
 21
3.03548
  0
LINE
  8
0
 10
128.662
 20
3.03548
 11
128.656
 21
2.96594
  0
LINE
  8
0
 10
128.656
 20
2.96594
 11
128.647
 21
2.89665
  0
LINE
  8
0
 10
128.647
 20
2.89665
 11
128.636
 21
2.8277
  0
LINE
  8
0
 10
128.636
 20
2.8277
 11
128.623
 21
2.75917
  0
LINE
  8
0
 10
128.623
 20
2.75917
 11
128.607
 21
2.69115
  0
LINE
  8
0
 10
128.607
 20
2.69115
 11
128.589
 21
2.62372
  0
LINE
  8
0
 10
128.589
 20
2.62372
 11
128.569
 21
2.55696
  0
LINE
  8
0
 10
128.569
 20
2.55696
 11
128.546
 21
2.49095
  0
LINE
  8
0
 10
128.546
 20
2.49095
 11
128.521
 21
2.42578
  0
LINE
  8
0
 10
128.521
 20
2.42578
 11
128.494
 21
2.36153
  0
LINE
  8
0
 10
128.494
 20
2.36153
 11
128.464
 21
2.29825
  0
LINE
  8
0
 10
128.464
 20
2.29825
 11
128.433
 21
2.23605
  0
LINE
  8
0
 10
128.433
 20
2.23605
 11
128.399
 21
2.17499
  0
LINE
  8
0
 10
128.399
 20
2.17499
 11
128.363
 21
2.11516
  0
LINE
  8
0
 10
128.363
 20
2.11516
 11
128.325
 21
2.05661
  0
LINE
  8
0
 10
128.325
 20
2.05661
 11
128.285
 21
1.99942
  0
LINE
  8
0
 10
128.285
 20
1.99942
 11
128.243
 21
1.94366
  0
LINE
  8
0
 10
128.243
 20
1.94366
 11
128.199
 21
1.88942
  0
LINE
  8
0
 10
128.199
 20
1.88942
 11
128.153
 21
1.83673
  0
LINE
  8
0
 10
128.153
 20
1.83673
 11
128.105
 21
1.78568
  0
LINE
  8
0
 10
128.105
 20
1.78568
 11
128.056
 21
1.73631
  0
LINE
  8
0
 10
128.056
 20
1.73631
 11
128.005
 21
1.68871
  0
LINE
  8
0
 10
128.005
 20
1.68871
 11
127.952
 21
1.6429
  0
LINE
  8
0
 10
127.952
 20
1.6429
 11
127.898
 21
1.59897
  0
LINE
  8
0
 10
127.898
 20
1.59897
 11
127.842
 21
1.55696
  0
LINE
  8
0
 10
127.842
 20
1.55696
 11
127.785
 21
1.51692
  0
LINE
  8
0
 10
127.785
 20
1.51692
 11
127.727
 21
1.4789
  0
LINE
  8
0
 10
127.727
 20
1.4789
 11
127.667
 21
1.44295
  0
LINE
  8
0
 10
127.667
 20
1.44295
 11
127.606
 21
1.4091
  0
LINE
  8
0
 10
127.606
 20
1.4091
 11
127.543
 21
1.37741
  0
LINE
  8
0
 10
127.543
 20
1.37741
 11
127.48
 21
1.3479
  0
LINE
  8
0
 10
127.48
 20
1.3479
 11
127.416
 21
1.32062
  0
LINE
  8
0
 10
127.416
 20
1.32062
 11
127.351
 21
1.29561
  0
LINE
  8
0
 10
127.351
 20
1.29561
 11
127.285
 21
1.27287
  0
LINE
  8
0
 10
127.285
 20
1.27287
 11
127.218
 21
1.25247
  0
LINE
  8
0
 10
127.218
 20
1.25247
 11
127.15
 21
1.23441
  0
LINE
  8
0
 10
127.15
 20
1.23441
 11
127.082
 21
1.2187
  0
LINE
  8
0
 10
127.082
 20
1.2187
 11
127.014
 21
1.20538
  0
LINE
  8
0
 10
127.014
 20
1.20538
 11
126.945
 21
1.19446
  0
LINE
  8
0
 10
126.945
 20
1.19446
 11
126.876
 21
1.18594
  0
LINE
  8
0
 10
126.876
 20
1.18594
 11
126.806
 21
1.17987
  0
LINE
  8
0
 10
126.806
 20
1.17987
 11
126.736
 21
1.17621
  0
LINE
  8
0
 10
126.736
 20
1.17621
 11
126.667
 21
1.17499
  0
LINE
  8
0
 10
126.667
 20
1.17499
 11
126.597
 21
1.17621
  0
LINE
  8
0
 10
177.264
 20
1.17621
 11
177.194
 21
1.17987
  0
LINE
  8
0
 10
177.194
 20
1.17987
 11
177.124
 21
1.18594
  0
LINE
  8
0
 10
177.124
 20
1.18594
 11
177.055
 21
1.19446
  0
LINE
  8
0
 10
177.055
 20
1.19446
 11
176.986
 21
1.20538
  0
LINE
  8
0
 10
176.986
 20
1.20538
 11
176.917
 21
1.2187
  0
LINE
  8
0
 10
176.917
 20
1.2187
 11
176.849
 21
1.23441
  0
LINE
  8
0
 10
176.849
 20
1.23441
 11
176.782
 21
1.25247
  0
LINE
  8
0
 10
176.782
 20
1.25247
 11
176.715
 21
1.27287
  0
LINE
  8
0
 10
176.715
 20
1.27287
 11
176.649
 21
1.29561
  0
LINE
  8
0
 10
176.649
 20
1.29561
 11
176.584
 21
1.32062
  0
LINE
  8
0
 10
176.584
 20
1.32062
 11
176.52
 21
1.3479
  0
LINE
  8
0
 10
176.52
 20
1.3479
 11
176.457
 21
1.37741
  0
LINE
  8
0
 10
176.457
 20
1.37741
 11
176.394
 21
1.4091
  0
LINE
  8
0
 10
176.394
 20
1.4091
 11
176.333
 21
1.44295
  0
LINE
  8
0
 10
176.333
 20
1.44295
 11
176.273
 21
1.4789
  0
LINE
  8
0
 10
176.273
 20
1.4789
 11
176.215
 21
1.51692
  0
LINE
  8
0
 10
176.215
 20
1.51692
 11
176.158
 21
1.55696
  0
LINE
  8
0
 10
176.158
 20
1.55696
 11
176.102
 21
1.59897
  0
LINE
  8
0
 10
176.102
 20
1.59897
 11
176.048
 21
1.6429
  0
LINE
  8
0
 10
176.048
 20
1.6429
 11
175.995
 21
1.68871
  0
LINE
  8
0
 10
175.995
 20
1.68871
 11
175.944
 21
1.73631
  0
LINE
  8
0
 10
175.944
 20
1.73631
 11
175.895
 21
1.78568
  0
LINE
  8
0
 10
175.895
 20
1.78568
 11
175.847
 21
1.83673
  0
LINE
  8
0
 10
175.847
 20
1.83673
 11
175.801
 21
1.88942
  0
LINE
  8
0
 10
175.801
 20
1.88942
 11
175.757
 21
1.94366
  0
LINE
  8
0
 10
175.757
 20
1.94366
 11
175.715
 21
1.99942
  0
LINE
  8
0
 10
175.715
 20
1.99942
 11
175.675
 21
2.05661
  0
LINE
  8
0
 10
175.675
 20
2.05661
 11
175.637
 21
2.11516
  0
LINE
  8
0
 10
175.637
 20
2.11516
 11
175.601
 21
2.17499
  0
LINE
  8
0
 10
175.601
 20
2.17499
 11
175.567
 21
2.23605
  0
LINE
  8
0
 10
175.567
 20
2.23605
 11
175.536
 21
2.29825
  0
LINE
  8
0
 10
175.536
 20
2.29825
 11
175.506
 21
2.36153
  0
LINE
  8
0
 10
175.506
 20
2.36153
 11
175.479
 21
2.42578
  0
LINE
  8
0
 10
175.479
 20
2.42578
 11
175.454
 21
2.49095
  0
LINE
  8
0
 10
175.454
 20
2.49095
 11
175.431
 21
2.55696
  0
LINE
  8
0
 10
175.431
 20
2.55696
 11
175.411
 21
2.62372
  0
LINE
  8
0
 10
175.411
 20
2.62372
 11
175.393
 21
2.69115
  0
LINE
  8
0
 10
175.393
 20
2.69115
 11
175.377
 21
2.75917
  0
LINE
  8
0
 10
175.377
 20
2.75917
 11
175.364
 21
2.8277
  0
LINE
  8
0
 10
175.364
 20
2.8277
 11
175.353
 21
2.89665
  0
LINE
  8
0
 10
175.353
 20
2.89665
 11
175.344
 21
2.96594
  0
LINE
  8
0
 10
175.344
 20
2.96594
 11
175.338
 21
3.03548
  0
LINE
  8
0
 10
175.338
 20
3.03548
 11
175.335
 21
3.10519
  0
LINE
  8
0
 10
175.335
 20
3.10519
 11
175.333
 21
3.17499
  0
LINE
  8
0
 10
175.333
 20
3.17499
 11
175.335
 21
3.2448
  0
LINE
  8
0
 10
175.335
 20
3.2448
 11
175.338
 21
3.3145
  0
LINE
  8
0
 10
175.338
 20
3.3145
 11
175.344
 21
3.38405
  0
LINE
  8
0
 10
175.344
 20
3.38405
 11
175.353
 21
3.45334
  0
LINE
  8
0
 10
175.353
 20
3.45334
 11
175.364
 21
3.52229
  0
LINE
  8
0
 10
175.364
 20
3.52229
 11
175.377
 21
3.59082
  0
LINE
  8
0
 10
175.377
 20
3.59082
 11
175.393
 21
3.65883
  0
LINE
  8
0
 10
175.393
 20
3.65883
 11
175.411
 21
3.72627
  0
LINE
  8
0
 10
175.411
 20
3.72627
 11
175.431
 21
3.79303
  0
LINE
  8
0
 10
175.431
 20
3.79303
 11
175.454
 21
3.85904
  0
LINE
  8
0
 10
175.454
 20
3.85904
 11
175.479
 21
3.92421
  0
LINE
  8
0
 10
175.479
 20
3.92421
 11
175.506
 21
3.98846
  0
LINE
  8
0
 10
175.506
 20
3.98846
 11
175.536
 21
4.05173
  0
LINE
  8
0
 10
175.536
 20
4.05173
 11
175.567
 21
4.11394
  0
LINE
  8
0
 10
175.567
 20
4.11394
 11
175.601
 21
4.17499
  0
LINE
  8
0
 10
175.601
 20
4.17499
 11
175.637
 21
4.23483
  0
LINE
  8
0
 10
175.637
 20
4.23483
 11
175.675
 21
4.29338
  0
LINE
  8
0
 10
175.675
 20
4.29338
 11
175.715
 21
4.35056
  0
LINE
  8
0
 10
175.715
 20
4.35056
 11
175.757
 21
4.40631
  0
LINE
  8
0
 10
175.757
 20
4.40631
 11
175.801
 21
4.46057
  0
LINE
  8
0
 10
175.801
 20
4.46057
 11
175.847
 21
4.51326
  0
LINE
  8
0
 10
175.847
 20
4.51326
 11
175.895
 21
4.56432
  0
LINE
  8
0
 10
175.895
 20
4.56432
 11
175.944
 21
4.61368
  0
LINE
  8
0
 10
175.944
 20
4.61368
 11
175.995
 21
4.66129
  0
LINE
  8
0
 10
175.995
 20
4.66129
 11
176.048
 21
4.70708
  0
LINE
  8
0
 10
176.048
 20
4.70708
 11
176.102
 21
4.75101
  0
LINE
  8
0
 10
176.102
 20
4.75101
 11
176.158
 21
4.79303
  0
LINE
  8
0
 10
176.158
 20
4.79303
 11
176.215
 21
4.83307
  0
LINE
  8
0
 10
176.215
 20
4.83307
 11
176.273
 21
4.87109
  0
LINE
  8
0
 10
176.273
 20
4.87109
 11
176.333
 21
4.90704
  0
LINE
  8
0
 10
176.333
 20
4.90704
 11
176.394
 21
4.94089
  0
LINE
  8
0
 10
176.394
 20
4.94089
 11
176.457
 21
4.97258
  0
LINE
  8
0
 10
176.457
 20
4.97258
 11
176.52
 21
5.00209
  0
LINE
  8
0
 10
176.52
 20
5.00209
 11
176.584
 21
5.02936
  0
LINE
  8
0
 10
176.584
 20
5.02936
 11
176.649
 21
5.05438
  0
LINE
  8
0
 10
176.649
 20
5.05438
 11
176.715
 21
5.0771
  0
LINE
  8
0
 10
176.715
 20
5.0771
 11
176.782
 21
5.09752
  0
LINE
  8
0
 10
176.782
 20
5.09752
 11
176.849
 21
5.11559
  0
LINE
  8
0
 10
176.849
 20
5.11559
 11
176.917
 21
5.13129
  0
LINE
  8
0
 10
176.917
 20
5.13129
 11
176.986
 21
5.14461
  0
LINE
  8
0
 10
176.986
 20
5.14461
 11
177.055
 21
5.15553
  0
LINE
  8
0
 10
177.055
 20
5.15553
 11
177.124
 21
5.16403
  0
LINE
  8
0
 10
177.124
 20
5.16403
 11
177.194
 21
5.17012
  0
LINE
  8
0
 10
177.194
 20
5.17012
 11
177.264
 21
5.17377
  0
LINE
  8
0
 10
177.264
 20
5.17377
 11
177.333
 21
5.17499
  0
LINE
  8
0
 10
177.333
 20
5.17499
 11
177.403
 21
5.17377
  0
LINE
  8
0
 10
177.403
 20
5.17377
 11
177.473
 21
5.17012
  0
LINE
  8
0
 10
177.473
 20
5.17012
 11
177.542
 21
5.16403
  0
LINE
  8
0
 10
177.542
 20
5.16403
 11
177.612
 21
5.15553
  0
LINE
  8
0
 10
177.612
 20
5.15553
 11
177.681
 21
5.14461
  0
LINE
  8
0
 10
177.681
 20
5.14461
 11
177.749
 21
5.13129
  0
LINE
  8
0
 10
177.749
 20
5.13129
 11
177.817
 21
5.11559
  0
LINE
  8
0
 10
177.817
 20
5.11559
 11
177.885
 21
5.09752
  0
LINE
  8
0
 10
177.885
 20
5.09752
 11
177.951
 21
5.0771
  0
LINE
  8
0
 10
177.951
 20
5.0771
 11
178.017
 21
5.05438
  0
LINE
  8
0
 10
178.017
 20
5.05438
 11
178.083
 21
5.02936
  0
LINE
  8
0
 10
178.083
 20
5.02936
 11
178.147
 21
5.00209
  0
LINE
  8
0
 10
178.147
 20
5.00209
 11
178.21
 21
4.97258
  0
LINE
  8
0
 10
178.21
 20
4.97258
 11
178.272
 21
4.94089
  0
LINE
  8
0
 10
178.272
 20
4.94089
 11
178.333
 21
4.90704
  0
LINE
  8
0
 10
178.333
 20
4.90704
 11
178.393
 21
4.87109
  0
LINE
  8
0
 10
178.393
 20
4.87109
 11
178.452
 21
4.83307
  0
LINE
  8
0
 10
178.452
 20
4.83307
 11
178.509
 21
4.79303
  0
LINE
  8
0
 10
178.509
 20
4.79303
 11
178.565
 21
4.75101
  0
LINE
  8
0
 10
178.565
 20
4.75101
 11
178.619
 21
4.70708
  0
LINE
  8
0
 10
178.619
 20
4.70708
 11
178.672
 21
4.66129
  0
LINE
  8
0
 10
178.672
 20
4.66129
 11
178.723
 21
4.61368
  0
LINE
  8
0
 10
178.723
 20
4.61368
 11
178.772
 21
4.56432
  0
LINE
  8
0
 10
178.772
 20
4.56432
 11
178.82
 21
4.51326
  0
LINE
  8
0
 10
178.82
 20
4.51326
 11
178.865
 21
4.46057
  0
LINE
  8
0
 10
178.865
 20
4.46057
 11
178.909
 21
4.40631
  0
LINE
  8
0
 10
178.909
 20
4.40631
 11
178.951
 21
4.35056
  0
LINE
  8
0
 10
178.951
 20
4.35056
 11
178.991
 21
4.29338
  0
LINE
  8
0
 10
178.991
 20
4.29338
 11
179.029
 21
4.23483
  0
LINE
  8
0
 10
179.029
 20
4.23483
 11
179.065
 21
4.17499
  0
LINE
  8
0
 10
179.065
 20
4.17499
 11
179.099
 21
4.11394
  0
LINE
  8
0
 10
179.099
 20
4.11394
 11
179.131
 21
4.05173
  0
LINE
  8
0
 10
179.131
 20
4.05173
 11
179.16
 21
3.98846
  0
LINE
  8
0
 10
179.16
 20
3.98846
 11
179.188
 21
3.92421
  0
LINE
  8
0
 10
179.188
 20
3.92421
 11
179.213
 21
3.85904
  0
LINE
  8
0
 10
179.213
 20
3.85904
 11
179.235
 21
3.79303
  0
LINE
  8
0
 10
179.235
 20
3.79303
 11
179.256
 21
3.72627
  0
LINE
  8
0
 10
179.256
 20
3.72627
 11
179.274
 21
3.65883
  0
LINE
  8
0
 10
179.274
 20
3.65883
 11
179.29
 21
3.59082
  0
LINE
  8
0
 10
179.29
 20
3.59082
 11
179.303
 21
3.52229
  0
LINE
  8
0
 10
179.303
 20
3.52229
 11
179.314
 21
3.45334
  0
LINE
  8
0
 10
179.314
 20
3.45334
 11
179.322
 21
3.38405
  0
LINE
  8
0
 10
179.322
 20
3.38405
 11
179.328
 21
3.3145
  0
LINE
  8
0
 10
179.328
 20
3.3145
 11
179.332
 21
3.2448
  0
LINE
  8
0
 10
179.332
 20
3.2448
 11
179.333
 21
3.17499
  0
LINE
  8
0
 10
179.333
 20
3.17499
 11
179.332
 21
3.10519
  0
LINE
  8
0
 10
179.332
 20
3.10519
 11
179.328
 21
3.03548
  0
LINE
  8
0
 10
179.328
 20
3.03548
 11
179.322
 21
2.96594
  0
LINE
  8
0
 10
179.322
 20
2.96594
 11
179.314
 21
2.89665
  0
LINE
  8
0
 10
179.314
 20
2.89665
 11
179.303
 21
2.8277
  0
LINE
  8
0
 10
179.303
 20
2.8277
 11
179.29
 21
2.75917
  0
LINE
  8
0
 10
179.29
 20
2.75917
 11
179.274
 21
2.69115
  0
LINE
  8
0
 10
179.274
 20
2.69115
 11
179.256
 21
2.62372
  0
LINE
  8
0
 10
179.256
 20
2.62372
 11
179.235
 21
2.55696
  0
LINE
  8
0
 10
179.235
 20
2.55696
 11
179.213
 21
2.49095
  0
LINE
  8
0
 10
179.213
 20
2.49095
 11
179.188
 21
2.42578
  0
LINE
  8
0
 10
179.188
 20
2.42578
 11
179.16
 21
2.36153
  0
LINE
  8
0
 10
179.16
 20
2.36153
 11
179.131
 21
2.29825
  0
LINE
  8
0
 10
179.131
 20
2.29825
 11
179.099
 21
2.23605
  0
LINE
  8
0
 10
179.099
 20
2.23605
 11
179.065
 21
2.17499
  0
LINE
  8
0
 10
179.065
 20
2.17499
 11
179.029
 21
2.11516
  0
LINE
  8
0
 10
179.029
 20
2.11516
 11
178.991
 21
2.05661
  0
LINE
  8
0
 10
178.991
 20
2.05661
 11
178.951
 21
1.99942
  0
LINE
  8
0
 10
178.951
 20
1.99942
 11
178.909
 21
1.94366
  0
LINE
  8
0
 10
178.909
 20
1.94366
 11
178.865
 21
1.88942
  0
LINE
  8
0
 10
178.865
 20
1.88942
 11
178.82
 21
1.83673
  0
LINE
  8
0
 10
178.82
 20
1.83673
 11
178.772
 21
1.78568
  0
LINE
  8
0
 10
178.772
 20
1.78568
 11
178.723
 21
1.73631
  0
LINE
  8
0
 10
178.723
 20
1.73631
 11
178.672
 21
1.68871
  0
LINE
  8
0
 10
178.672
 20
1.68871
 11
178.619
 21
1.6429
  0
LINE
  8
0
 10
178.619
 20
1.6429
 11
178.565
 21
1.59897
  0
LINE
  8
0
 10
178.565
 20
1.59897
 11
178.509
 21
1.55696
  0
LINE
  8
0
 10
178.509
 20
1.55696
 11
178.452
 21
1.51692
  0
LINE
  8
0
 10
178.452
 20
1.51692
 11
178.393
 21
1.4789
  0
LINE
  8
0
 10
178.393
 20
1.4789
 11
178.333
 21
1.44295
  0
LINE
  8
0
 10
178.333
 20
1.44295
 11
178.272
 21
1.4091
  0
LINE
  8
0
 10
178.272
 20
1.4091
 11
178.21
 21
1.37741
  0
LINE
  8
0
 10
178.21
 20
1.37741
 11
178.147
 21
1.3479
  0
LINE
  8
0
 10
178.147
 20
1.3479
 11
178.083
 21
1.32062
  0
LINE
  8
0
 10
178.083
 20
1.32062
 11
178.017
 21
1.29561
  0
LINE
  8
0
 10
178.017
 20
1.29561
 11
177.951
 21
1.27287
  0
LINE
  8
0
 10
177.951
 20
1.27287
 11
177.885
 21
1.25247
  0
LINE
  8
0
 10
177.885
 20
1.25247
 11
177.817
 21
1.23441
  0
LINE
  8
0
 10
177.817
 20
1.23441
 11
177.749
 21
1.2187
  0
LINE
  8
0
 10
177.749
 20
1.2187
 11
177.681
 21
1.20538
  0
LINE
  8
0
 10
177.681
 20
1.20538
 11
177.612
 21
1.19446
  0
LINE
  8
0
 10
177.612
 20
1.19446
 11
177.542
 21
1.18594
  0
LINE
  8
0
 10
177.542
 20
1.18594
 11
177.473
 21
1.17987
  0
LINE
  8
0
 10
177.473
 20
1.17987
 11
177.403
 21
1.17621
  0
LINE
  8
0
 10
177.403
 20
1.17621
 11
177.333
 21
1.17499
  0
LINE
  8
0
 10
177.333
 20
1.17499
 11
177.264
 21
1.17621
  0
LINE
  8
0
 10
227.93
 20
1.17621
 11
227.86
 21
1.17987
  0
LINE
  8
0
 10
227.86
 20
1.17987
 11
227.791
 21
1.18594
  0
LINE
  8
0
 10
227.791
 20
1.18594
 11
227.722
 21
1.19446
  0
LINE
  8
0
 10
227.722
 20
1.19446
 11
227.653
 21
1.20538
  0
LINE
  8
0
 10
227.653
 20
1.20538
 11
227.584
 21
1.2187
  0
LINE
  8
0
 10
227.584
 20
1.2187
 11
227.516
 21
1.23441
  0
LINE
  8
0
 10
227.516
 20
1.23441
 11
227.449
 21
1.25247
  0
LINE
  8
0
 10
227.449
 20
1.25247
 11
227.382
 21
1.27287
  0
LINE
  8
0
 10
227.382
 20
1.27287
 11
227.316
 21
1.29561
  0
LINE
  8
0
 10
227.316
 20
1.29561
 11
227.251
 21
1.32062
  0
LINE
  8
0
 10
227.251
 20
1.32062
 11
227.187
 21
1.3479
  0
LINE
  8
0
 10
227.187
 20
1.3479
 11
227.123
 21
1.37741
  0
LINE
  8
0
 10
227.123
 20
1.37741
 11
227.061
 21
1.4091
  0
LINE
  8
0
 10
227.061
 20
1.4091
 11
227
 21
1.44295
  0
LINE
  8
0
 10
227
 20
1.44295
 11
226.94
 21
1.4789
  0
LINE
  8
0
 10
226.94
 20
1.4789
 11
226.882
 21
1.51692
  0
LINE
  8
0
 10
226.882
 20
1.51692
 11
226.824
 21
1.55696
  0
LINE
  8
0
 10
226.824
 20
1.55696
 11
226.769
 21
1.59897
  0
LINE
  8
0
 10
226.769
 20
1.59897
 11
226.714
 21
1.6429
  0
LINE
  8
0
 10
226.714
 20
1.6429
 11
226.662
 21
1.68871
  0
LINE
  8
0
 10
226.662
 20
1.68871
 11
226.611
 21
1.73631
  0
LINE
  8
0
 10
226.611
 20
1.73631
 11
226.561
 21
1.78568
  0
LINE
  8
0
 10
226.561
 20
1.78568
 11
226.514
 21
1.83673
  0
LINE
  8
0
 10
226.514
 20
1.83673
 11
226.468
 21
1.88942
  0
LINE
  8
0
 10
226.468
 20
1.88942
 11
226.424
 21
1.94366
  0
LINE
  8
0
 10
226.424
 20
1.94366
 11
226.382
 21
1.99942
  0
LINE
  8
0
 10
226.382
 20
1.99942
 11
226.342
 21
2.05661
  0
LINE
  8
0
 10
226.342
 20
2.05661
 11
226.304
 21
2.11516
  0
LINE
  8
0
 10
226.304
 20
2.11516
 11
226.268
 21
2.17499
  0
LINE
  8
0
 10
226.268
 20
2.17499
 11
226.234
 21
2.23605
  0
LINE
  8
0
 10
226.234
 20
2.23605
 11
226.202
 21
2.29825
  0
LINE
  8
0
 10
226.202
 20
2.29825
 11
226.173
 21
2.36153
  0
LINE
  8
0
 10
226.173
 20
2.36153
 11
226.146
 21
2.42578
  0
LINE
  8
0
 10
226.146
 20
2.42578
 11
226.121
 21
2.49095
  0
LINE
  8
0
 10
226.121
 20
2.49095
 11
226.098
 21
2.55696
  0
LINE
  8
0
 10
226.098
 20
2.55696
 11
226.077
 21
2.62372
  0
LINE
  8
0
 10
226.077
 20
2.62372
 11
226.059
 21
2.69115
  0
LINE
  8
0
 10
226.059
 20
2.69115
 11
226.044
 21
2.75917
  0
LINE
  8
0
 10
226.044
 20
2.75917
 11
226.03
 21
2.8277
  0
LINE
  8
0
 10
226.03
 20
2.8277
 11
226.019
 21
2.89665
  0
LINE
  8
0
 10
226.019
 20
2.89665
 11
226.011
 21
2.96594
  0
LINE
  8
0
 10
226.011
 20
2.96594
 11
226.005
 21
3.03548
  0
LINE
  8
0
 10
226.005
 20
3.03548
 11
226.001
 21
3.10519
  0
LINE
  8
0
 10
226.001
 20
3.10519
 11
226
 21
3.17499
  0
LINE
  8
0
 10
226
 20
3.17499
 11
226.001
 21
3.2448
  0
LINE
  8
0
 10
226.001
 20
3.2448
 11
226.005
 21
3.3145
  0
LINE
  8
0
 10
226.005
 20
3.3145
 11
226.011
 21
3.38405
  0
LINE
  8
0
 10
226.011
 20
3.38405
 11
226.019
 21
3.45334
  0
LINE
  8
0
 10
226.019
 20
3.45334
 11
226.03
 21
3.52229
  0
LINE
  8
0
 10
226.03
 20
3.52229
 11
226.044
 21
3.59082
  0
LINE
  8
0
 10
226.044
 20
3.59082
 11
226.059
 21
3.65883
  0
LINE
  8
0
 10
226.059
 20
3.65883
 11
226.077
 21
3.72627
  0
LINE
  8
0
 10
226.077
 20
3.72627
 11
226.098
 21
3.79303
  0
LINE
  8
0
 10
226.098
 20
3.79303
 11
226.121
 21
3.85904
  0
LINE
  8
0
 10
226.121
 20
3.85904
 11
226.146
 21
3.92421
  0
LINE
  8
0
 10
226.146
 20
3.92421
 11
226.173
 21
3.98846
  0
LINE
  8
0
 10
226.173
 20
3.98846
 11
226.202
 21
4.05173
  0
LINE
  8
0
 10
226.202
 20
4.05173
 11
226.234
 21
4.11394
  0
LINE
  8
0
 10
226.234
 20
4.11394
 11
226.268
 21
4.17499
  0
LINE
  8
0
 10
226.268
 20
4.17499
 11
226.304
 21
4.23483
  0
LINE
  8
0
 10
226.304
 20
4.23483
 11
226.342
 21
4.29338
  0
LINE
  8
0
 10
226.342
 20
4.29338
 11
226.382
 21
4.35056
  0
LINE
  8
0
 10
226.382
 20
4.35056
 11
226.424
 21
4.40631
  0
LINE
  8
0
 10
226.424
 20
4.40631
 11
226.468
 21
4.46057
  0
LINE
  8
0
 10
226.468
 20
4.46057
 11
226.514
 21
4.51326
  0
LINE
  8
0
 10
226.514
 20
4.51326
 11
226.561
 21
4.56432
  0
LINE
  8
0
 10
226.561
 20
4.56432
 11
226.611
 21
4.61368
  0
LINE
  8
0
 10
226.611
 20
4.61368
 11
226.662
 21
4.66129
  0
LINE
  8
0
 10
226.662
 20
4.66129
 11
226.714
 21
4.70708
  0
LINE
  8
0
 10
226.714
 20
4.70708
 11
226.769
 21
4.75101
  0
LINE
  8
0
 10
226.769
 20
4.75101
 11
226.824
 21
4.79303
  0
LINE
  8
0
 10
226.824
 20
4.79303
 11
226.882
 21
4.83307
  0
LINE
  8
0
 10
226.882
 20
4.83307
 11
226.94
 21
4.87109
  0
LINE
  8
0
 10
226.94
 20
4.87109
 11
227
 21
4.90704
  0
LINE
  8
0
 10
227
 20
4.90704
 11
227.061
 21
4.94089
  0
LINE
  8
0
 10
227.061
 20
4.94089
 11
227.123
 21
4.97258
  0
LINE
  8
0
 10
227.123
 20
4.97258
 11
227.187
 21
5.00209
  0
LINE
  8
0
 10
227.187
 20
5.00209
 11
227.251
 21
5.02936
  0
LINE
  8
0
 10
227.251
 20
5.02936
 11
227.316
 21
5.05438
  0
LINE
  8
0
 10
227.316
 20
5.05438
 11
227.382
 21
5.0771
  0
LINE
  8
0
 10
227.382
 20
5.0771
 11
227.449
 21
5.09752
  0
LINE
  8
0
 10
227.449
 20
5.09752
 11
227.516
 21
5.11559
  0
LINE
  8
0
 10
227.516
 20
5.11559
 11
227.584
 21
5.13129
  0
LINE
  8
0
 10
227.584
 20
5.13129
 11
227.653
 21
5.14461
  0
LINE
  8
0
 10
227.653
 20
5.14461
 11
227.722
 21
5.15553
  0
LINE
  8
0
 10
227.722
 20
5.15553
 11
227.791
 21
5.16403
  0
LINE
  8
0
 10
227.791
 20
5.16403
 11
227.86
 21
5.17012
  0
LINE
  8
0
 10
227.86
 20
5.17012
 11
227.93
 21
5.17377
  0
LINE
  8
0
 10
227.93
 20
5.17377
 11
228
 21
5.17499
  0
LINE
  8
0
 10
228
 20
5.17499
 11
228.07
 21
5.17377
  0
LINE
  8
0
 10
228.07
 20
5.17377
 11
228.14
 21
5.17012
  0
LINE
  8
0
 10
228.14
 20
5.17012
 11
228.209
 21
5.16403
  0
LINE
  8
0
 10
228.209
 20
5.16403
 11
228.278
 21
5.15553
  0
LINE
  8
0
 10
228.278
 20
5.15553
 11
228.347
 21
5.14461
  0
LINE
  8
0
 10
228.347
 20
5.14461
 11
228.416
 21
5.13129
  0
LINE
  8
0
 10
228.416
 20
5.13129
 11
228.484
 21
5.11559
  0
LINE
  8
0
 10
228.484
 20
5.11559
 11
228.551
 21
5.09752
  0
LINE
  8
0
 10
228.551
 20
5.09752
 11
228.618
 21
5.0771
  0
LINE
  8
0
 10
228.618
 20
5.0771
 11
228.684
 21
5.05438
  0
LINE
  8
0
 10
228.684
 20
5.05438
 11
228.749
 21
5.02936
  0
LINE
  8
0
 10
228.749
 20
5.02936
 11
228.813
 21
5.00209
  0
LINE
  8
0
 10
228.813
 20
5.00209
 11
228.877
 21
4.97258
  0
LINE
  8
0
 10
228.877
 20
4.97258
 11
228.939
 21
4.94089
  0
LINE
  8
0
 10
228.939
 20
4.94089
 11
229
 21
4.90704
  0
LINE
  8
0
 10
229
 20
4.90704
 11
229.06
 21
4.87109
  0
LINE
  8
0
 10
229.06
 20
4.87109
 11
229.118
 21
4.83307
  0
LINE
  8
0
 10
229.118
 20
4.83307
 11
229.176
 21
4.79303
  0
LINE
  8
0
 10
229.176
 20
4.79303
 11
229.231
 21
4.75101
  0
LINE
  8
0
 10
229.231
 20
4.75101
 11
229.286
 21
4.70708
  0
LINE
  8
0
 10
229.286
 20
4.70708
 11
229.338
 21
4.66129
  0
LINE
  8
0
 10
229.338
 20
4.66129
 11
229.389
 21
4.61368
  0
LINE
  8
0
 10
229.389
 20
4.61368
 11
229.439
 21
4.56432
  0
LINE
  8
0
 10
229.439
 20
4.56432
 11
229.486
 21
4.51326
  0
LINE
  8
0
 10
229.486
 20
4.51326
 11
229.532
 21
4.46057
  0
LINE
  8
0
 10
229.532
 20
4.46057
 11
229.576
 21
4.40631
  0
LINE
  8
0
 10
229.576
 20
4.40631
 11
229.618
 21
4.35056
  0
LINE
  8
0
 10
229.618
 20
4.35056
 11
229.658
 21
4.29338
  0
LINE
  8
0
 10
229.658
 20
4.29338
 11
229.696
 21
4.23483
  0
LINE
  8
0
 10
229.696
 20
4.23483
 11
229.732
 21
4.17499
  0
LINE
  8
0
 10
229.732
 20
4.17499
 11
229.766
 21
4.11394
  0
LINE
  8
0
 10
229.766
 20
4.11394
 11
229.798
 21
4.05173
  0
LINE
  8
0
 10
229.798
 20
4.05173
 11
229.827
 21
3.98846
  0
LINE
  8
0
 10
229.827
 20
3.98846
 11
229.854
 21
3.92421
  0
LINE
  8
0
 10
229.854
 20
3.92421
 11
229.879
 21
3.85904
  0
LINE
  8
0
 10
229.879
 20
3.85904
 11
229.902
 21
3.79303
  0
LINE
  8
0
 10
229.902
 20
3.79303
 11
229.923
 21
3.72627
  0
LINE
  8
0
 10
229.923
 20
3.72627
 11
229.941
 21
3.65883
  0
LINE
  8
0
 10
229.941
 20
3.65883
 11
229.956
 21
3.59082
  0
LINE
  8
0
 10
229.956
 20
3.59082
 11
229.97
 21
3.52229
  0
LINE
  8
0
 10
229.97
 20
3.52229
 11
229.981
 21
3.45334
  0
LINE
  8
0
 10
229.981
 20
3.45334
 11
229.989
 21
3.38405
  0
LINE
  8
0
 10
229.989
 20
3.38405
 11
229.995
 21
3.3145
  0
LINE
  8
0
 10
229.995
 20
3.3145
 11
229.999
 21
3.2448
  0
LINE
  8
0
 10
229.999
 20
3.2448
 11
230
 21
3.17499
  0
LINE
  8
0
 10
230
 20
3.17499
 11
229.999
 21
3.10519
  0
LINE
  8
0
 10
229.999
 20
3.10519
 11
229.995
 21
3.03548
  0
LINE
  8
0
 10
229.995
 20
3.03548
 11
229.989
 21
2.96594
  0
LINE
  8
0
 10
229.989
 20
2.96594
 11
229.981
 21
2.89665
  0
LINE
  8
0
 10
229.981
 20
2.89665
 11
229.97
 21
2.8277
  0
LINE
  8
0
 10
229.97
 20
2.8277
 11
229.956
 21
2.75917
  0
LINE
  8
0
 10
229.956
 20
2.75917
 11
229.941
 21
2.69115
  0
LINE
  8
0
 10
229.941
 20
2.69115
 11
229.923
 21
2.62372
  0
LINE
  8
0
 10
229.923
 20
2.62372
 11
229.902
 21
2.55696
  0
LINE
  8
0
 10
229.902
 20
2.55696
 11
229.879
 21
2.49095
  0
LINE
  8
0
 10
229.879
 20
2.49095
 11
229.854
 21
2.42578
  0
LINE
  8
0
 10
229.854
 20
2.42578
 11
229.827
 21
2.36153
  0
LINE
  8
0
 10
229.827
 20
2.36153
 11
229.798
 21
2.29825
  0
LINE
  8
0
 10
229.798
 20
2.29825
 11
229.766
 21
2.23605
  0
LINE
  8
0
 10
229.766
 20
2.23605
 11
229.732
 21
2.17499
  0
LINE
  8
0
 10
229.732
 20
2.17499
 11
229.696
 21
2.11516
  0
LINE
  8
0
 10
229.696
 20
2.11516
 11
229.658
 21
2.05661
  0
LINE
  8
0
 10
229.658
 20
2.05661
 11
229.618
 21
1.99942
  0
LINE
  8
0
 10
229.618
 20
1.99942
 11
229.576
 21
1.94366
  0
LINE
  8
0
 10
229.576
 20
1.94366
 11
229.532
 21
1.88942
  0
LINE
  8
0
 10
229.532
 20
1.88942
 11
229.486
 21
1.83673
  0
LINE
  8
0
 10
229.486
 20
1.83673
 11
229.439
 21
1.78568
  0
LINE
  8
0
 10
229.439
 20
1.78568
 11
229.389
 21
1.73631
  0
LINE
  8
0
 10
229.389
 20
1.73631
 11
229.338
 21
1.68871
  0
LINE
  8
0
 10
229.338
 20
1.68871
 11
229.286
 21
1.6429
  0
LINE
  8
0
 10
229.286
 20
1.6429
 11
229.231
 21
1.59897
  0
LINE
  8
0
 10
229.231
 20
1.59897
 11
229.176
 21
1.55696
  0
LINE
  8
0
 10
229.176
 20
1.55696
 11
229.118
 21
1.51692
  0
LINE
  8
0
 10
229.118
 20
1.51692
 11
229.06
 21
1.4789
  0
LINE
  8
0
 10
229.06
 20
1.4789
 11
229
 21
1.44295
  0
LINE
  8
0
 10
229
 20
1.44295
 11
228.939
 21
1.4091
  0
LINE
  8
0
 10
228.939
 20
1.4091
 11
228.877
 21
1.37741
  0
LINE
  8
0
 10
228.877
 20
1.37741
 11
228.813
 21
1.3479
  0
LINE
  8
0
 10
228.813
 20
1.3479
 11
228.749
 21
1.32062
  0
LINE
  8
0
 10
228.749
 20
1.32062
 11
228.684
 21
1.29561
  0
LINE
  8
0
 10
228.684
 20
1.29561
 11
228.618
 21
1.27287
  0
LINE
  8
0
 10
228.618
 20
1.27287
 11
228.551
 21
1.25247
  0
LINE
  8
0
 10
228.551
 20
1.25247
 11
228.484
 21
1.23441
  0
LINE
  8
0
 10
228.484
 20
1.23441
 11
228.416
 21
1.2187
  0
LINE
  8
0
 10
228.416
 20
1.2187
 11
228.347
 21
1.20538
  0
LINE
  8
0
 10
228.347
 20
1.20538
 11
228.278
 21
1.19446
  0
LINE
  8
0
 10
228.278
 20
1.19446
 11
228.209
 21
1.18594
  0
LINE
  8
0
 10
228.209
 20
1.18594
 11
228.14
 21
1.17987
  0
LINE
  8
0
 10
228.14
 20
1.17987
 11
228.07
 21
1.17621
  0
LINE
  8
0
 10
228.07
 20
1.17621
 11
228
 21
1.17499
  0
LINE
  8
0
 10
228
 20
1.17499
 11
227.93
 21
1.17621
  0
LINE
  8
0
 10
278.597
 20
1.17621
 11
278.527
 21
1.17987
  0
LINE
  8
0
 10
278.527
 20
1.17987
 11
278.458
 21
1.18594
  0
LINE
  8
0
 10
278.458
 20
1.18594
 11
278.388
 21
1.19446
  0
LINE
  8
0
 10
278.388
 20
1.19446
 11
278.319
 21
1.20538
  0
LINE
  8
0
 10
278.319
 20
1.20538
 11
278.251
 21
1.2187
  0
LINE
  8
0
 10
278.251
 20
1.2187
 11
278.183
 21
1.23441
  0
LINE
  8
0
 10
278.183
 20
1.23441
 11
278.115
 21
1.25247
  0
LINE
  8
0
 10
278.115
 20
1.25247
 11
278.049
 21
1.27287
  0
LINE
  8
0
 10
278.049
 20
1.27287
 11
277.983
 21
1.29561
  0
LINE
  8
0
 10
277.983
 20
1.29561
 11
277.917
 21
1.32062
  0
LINE
  8
0
 10
277.917
 20
1.32062
 11
277.853
 21
1.3479
  0
LINE
  8
0
 10
277.853
 20
1.3479
 11
277.79
 21
1.37741
  0
LINE
  8
0
 10
277.79
 20
1.37741
 11
277.728
 21
1.4091
  0
LINE
  8
0
 10
277.728
 20
1.4091
 11
277.667
 21
1.44295
  0
LINE
  8
0
 10
277.667
 20
1.44295
 11
277.607
 21
1.4789
  0
LINE
  8
0
 10
277.607
 20
1.4789
 11
277.548
 21
1.51692
  0
LINE
  8
0
 10
277.548
 20
1.51692
 11
277.491
 21
1.55696
  0
LINE
  8
0
 10
277.491
 20
1.55696
 11
277.435
 21
1.59897
  0
LINE
  8
0
 10
277.435
 20
1.59897
 11
277.381
 21
1.6429
  0
LINE
  8
0
 10
277.381
 20
1.6429
 11
277.328
 21
1.68871
  0
LINE
  8
0
 10
277.328
 20
1.68871
 11
277.277
 21
1.73631
  0
LINE
  8
0
 10
277.277
 20
1.73631
 11
277.228
 21
1.78568
  0
LINE
  8
0
 10
277.228
 20
1.78568
 11
277.18
 21
1.83673
  0
LINE
  8
0
 10
277.18
 20
1.83673
 11
277.135
 21
1.88942
  0
LINE
  8
0
 10
277.135
 20
1.88942
 11
277.091
 21
1.94366
  0
LINE
  8
0
 10
277.091
 20
1.94366
 11
277.049
 21
1.99942
  0
LINE
  8
0
 10
277.049
 20
1.99942
 11
277.009
 21
2.05661
  0
LINE
  8
0
 10
277.009
 20
2.05661
 11
276.971
 21
2.11516
  0
LINE
  8
0
 10
276.971
 20
2.11516
 11
276.935
 21
2.17499
  0
LINE
  8
0
 10
276.935
 20
2.17499
 11
276.901
 21
2.23605
  0
LINE
  8
0
 10
276.901
 20
2.23605
 11
276.869
 21
2.29825
  0
LINE
  8
0
 10
276.869
 20
2.29825
 11
276.84
 21
2.36153
  0
LINE
  8
0
 10
276.84
 20
2.36153
 11
276.812
 21
2.42578
  0
LINE
  8
0
 10
276.812
 20
2.42578
 11
276.787
 21
2.49095
  0
LINE
  8
0
 10
276.787
 20
2.49095
 11
276.765
 21
2.55696
  0
LINE
  8
0
 10
276.765
 20
2.55696
 11
276.744
 21
2.62372
  0
LINE
  8
0
 10
276.744
 20
2.62372
 11
276.726
 21
2.69115
  0
LINE
  8
0
 10
276.726
 20
2.69115
 11
276.71
 21
2.75917
  0
LINE
  8
0
 10
276.71
 20
2.75917
 11
276.697
 21
2.8277
  0
LINE
  8
0
 10
276.697
 20
2.8277
 11
276.686
 21
2.89665
  0
LINE
  8
0
 10
276.686
 20
2.89665
 11
276.678
 21
2.96594
  0
LINE
  8
0
 10
276.678
 20
2.96594
 11
276.672
 21
3.03548
  0
LINE
  8
0
 10
276.672
 20
3.03548
 11
276.668
 21
3.10519
  0
LINE
  8
0
 10
276.668
 20
3.10519
 11
276.667
 21
3.17499
  0
LINE
  8
0
 10
276.667
 20
3.17499
 11
276.668
 21
3.2448
  0
LINE
  8
0
 10
276.668
 20
3.2448
 11
276.672
 21
3.3145
  0
LINE
  8
0
 10
276.672
 20
3.3145
 11
276.678
 21
3.38405
  0
LINE
  8
0
 10
276.678
 20
3.38405
 11
276.686
 21
3.45334
  0
LINE
  8
0
 10
276.686
 20
3.45334
 11
276.697
 21
3.52229
  0
LINE
  8
0
 10
276.697
 20
3.52229
 11
276.71
 21
3.59082
  0
LINE
  8
0
 10
276.71
 20
3.59082
 11
276.726
 21
3.65883
  0
LINE
  8
0
 10
276.726
 20
3.65883
 11
276.744
 21
3.72627
  0
LINE
  8
0
 10
276.744
 20
3.72627
 11
276.765
 21
3.79303
  0
LINE
  8
0
 10
276.765
 20
3.79303
 11
276.787
 21
3.85904
  0
LINE
  8
0
 10
276.787
 20
3.85904
 11
276.812
 21
3.92421
  0
LINE
  8
0
 10
276.812
 20
3.92421
 11
276.84
 21
3.98846
  0
LINE
  8
0
 10
276.84
 20
3.98846
 11
276.869
 21
4.05173
  0
LINE
  8
0
 10
276.869
 20
4.05173
 11
276.901
 21
4.11394
  0
LINE
  8
0
 10
276.901
 20
4.11394
 11
276.935
 21
4.17499
  0
LINE
  8
0
 10
276.935
 20
4.17499
 11
276.971
 21
4.23483
  0
LINE
  8
0
 10
276.971
 20
4.23483
 11
277.009
 21
4.29338
  0
LINE
  8
0
 10
277.009
 20
4.29338
 11
277.049
 21
4.35056
  0
LINE
  8
0
 10
277.049
 20
4.35056
 11
277.091
 21
4.40631
  0
LINE
  8
0
 10
277.091
 20
4.40631
 11
277.135
 21
4.46057
  0
LINE
  8
0
 10
277.135
 20
4.46057
 11
277.18
 21
4.51326
  0
LINE
  8
0
 10
277.18
 20
4.51326
 11
277.228
 21
4.56432
  0
LINE
  8
0
 10
277.228
 20
4.56432
 11
277.277
 21
4.61368
  0
LINE
  8
0
 10
277.277
 20
4.61368
 11
277.328
 21
4.66129
  0
LINE
  8
0
 10
277.328
 20
4.66129
 11
277.381
 21
4.70708
  0
LINE
  8
0
 10
277.381
 20
4.70708
 11
277.435
 21
4.75101
  0
LINE
  8
0
 10
277.435
 20
4.75101
 11
277.491
 21
4.79303
  0
LINE
  8
0
 10
277.491
 20
4.79303
 11
277.548
 21
4.83307
  0
LINE
  8
0
 10
277.548
 20
4.83307
 11
277.607
 21
4.87109
  0
LINE
  8
0
 10
277.607
 20
4.87109
 11
277.667
 21
4.90704
  0
LINE
  8
0
 10
277.667
 20
4.90704
 11
277.728
 21
4.94089
  0
LINE
  8
0
 10
277.728
 20
4.94089
 11
277.79
 21
4.97258
  0
LINE
  8
0
 10
277.79
 20
4.97258
 11
277.853
 21
5.00209
  0
LINE
  8
0
 10
277.853
 20
5.00209
 11
277.917
 21
5.02936
  0
LINE
  8
0
 10
277.917
 20
5.02936
 11
277.983
 21
5.05438
  0
LINE
  8
0
 10
277.983
 20
5.05438
 11
278.049
 21
5.0771
  0
LINE
  8
0
 10
278.049
 20
5.0771
 11
278.115
 21
5.09752
  0
LINE
  8
0
 10
278.115
 20
5.09752
 11
278.183
 21
5.11559
  0
LINE
  8
0
 10
278.183
 20
5.11559
 11
278.251
 21
5.13129
  0
LINE
  8
0
 10
278.251
 20
5.13129
 11
278.319
 21
5.14461
  0
LINE
  8
0
 10
278.319
 20
5.14461
 11
278.388
 21
5.15553
  0
LINE
  8
0
 10
278.388
 20
5.15553
 11
278.458
 21
5.16403
  0
LINE
  8
0
 10
278.458
 20
5.16403
 11
278.527
 21
5.17012
  0
LINE
  8
0
 10
278.527
 20
5.17012
 11
278.597
 21
5.17377
  0
LINE
  8
0
 10
278.597
 20
5.17377
 11
278.667
 21
5.17499
  0
LINE
  8
0
 10
278.667
 20
5.17499
 11
278.736
 21
5.17377
  0
LINE
  8
0
 10
278.736
 20
5.17377
 11
278.806
 21
5.17012
  0
LINE
  8
0
 10
278.806
 20
5.17012
 11
278.876
 21
5.16403
  0
LINE
  8
0
 10
278.876
 20
5.16403
 11
278.945
 21
5.15553
  0
LINE
  8
0
 10
278.945
 20
5.15553
 11
279.014
 21
5.14461
  0
LINE
  8
0
 10
279.014
 20
5.14461
 11
279.082
 21
5.13129
  0
LINE
  8
0
 10
279.082
 20
5.13129
 11
279.15
 21
5.11559
  0
LINE
  8
0
 10
279.15
 20
5.11559
 11
279.218
 21
5.09752
  0
LINE
  8
0
 10
279.218
 20
5.09752
 11
279.285
 21
5.0771
  0
LINE
  8
0
 10
279.285
 20
5.0771
 11
279.351
 21
5.05438
  0
LINE
  8
0
 10
279.351
 20
5.05438
 11
279.416
 21
5.02936
  0
LINE
  8
0
 10
279.416
 20
5.02936
 11
279.48
 21
5.00209
  0
LINE
  8
0
 10
279.48
 20
5.00209
 11
279.543
 21
4.97258
  0
LINE
  8
0
 10
279.543
 20
4.97258
 11
279.606
 21
4.94089
  0
LINE
  8
0
 10
279.606
 20
4.94089
 11
279.667
 21
4.90704
  0
LINE
  8
0
 10
279.667
 20
4.90704
 11
279.727
 21
4.87109
  0
LINE
  8
0
 10
279.727
 20
4.87109
 11
279.785
 21
4.83307
  0
LINE
  8
0
 10
279.785
 20
4.83307
 11
279.842
 21
4.79303
  0
LINE
  8
0
 10
279.842
 20
4.79303
 11
279.898
 21
4.75101
  0
LINE
  8
0
 10
279.898
 20
4.75101
 11
279.952
 21
4.70708
  0
LINE
  8
0
 10
279.952
 20
4.70708
 11
280.005
 21
4.66129
  0
LINE
  8
0
 10
280.005
 20
4.66129
 11
280.056
 21
4.61368
  0
LINE
  8
0
 10
280.056
 20
4.61368
 11
280.105
 21
4.56432
  0
LINE
  8
0
 10
280.105
 20
4.56432
 11
280.153
 21
4.51326
  0
LINE
  8
0
 10
280.153
 20
4.51326
 11
280.199
 21
4.46057
  0
LINE
  8
0
 10
280.199
 20
4.46057
 11
280.243
 21
4.40631
  0
LINE
  8
0
 10
280.243
 20
4.40631
 11
280.285
 21
4.35056
  0
LINE
  8
0
 10
280.285
 20
4.35056
 11
280.325
 21
4.29338
  0
LINE
  8
0
 10
280.325
 20
4.29338
 11
280.363
 21
4.23483
  0
LINE
  8
0
 10
280.363
 20
4.23483
 11
280.399
 21
4.17499
  0
LINE
  8
0
 10
280.399
 20
4.17499
 11
280.433
 21
4.11394
  0
LINE
  8
0
 10
280.433
 20
4.11394
 11
280.464
 21
4.05173
  0
LINE
  8
0
 10
280.464
 20
4.05173
 11
280.494
 21
3.98846
  0
LINE
  8
0
 10
280.494
 20
3.98846
 11
280.521
 21
3.92421
  0
LINE
  8
0
 10
280.521
 20
3.92421
 11
280.546
 21
3.85904
  0
LINE
  8
0
 10
280.546
 20
3.85904
 11
280.569
 21
3.79303
  0
LINE
  8
0
 10
280.569
 20
3.79303
 11
280.589
 21
3.72627
  0
LINE
  8
0
 10
280.589
 20
3.72627
 11
280.607
 21
3.65883
  0
LINE
  8
0
 10
280.607
 20
3.65883
 11
280.623
 21
3.59082
  0
LINE
  8
0
 10
280.623
 20
3.59082
 11
280.636
 21
3.52229
  0
LINE
  8
0
 10
280.636
 20
3.52229
 11
280.647
 21
3.45334
  0
LINE
  8
0
 10
280.647
 20
3.45334
 11
280.656
 21
3.38405
  0
LINE
  8
0
 10
280.656
 20
3.38405
 11
280.662
 21
3.3145
  0
LINE
  8
0
 10
280.662
 20
3.3145
 11
280.665
 21
3.2448
  0
LINE
  8
0
 10
280.665
 20
3.2448
 11
280.667
 21
3.17499
  0
LINE
  8
0
 10
280.667
 20
3.17499
 11
280.665
 21
3.10519
  0
LINE
  8
0
 10
280.665
 20
3.10519
 11
280.662
 21
3.03548
  0
LINE
  8
0
 10
280.662
 20
3.03548
 11
280.656
 21
2.96594
  0
LINE
  8
0
 10
280.656
 20
2.96594
 11
280.647
 21
2.89665
  0
LINE
  8
0
 10
280.647
 20
2.89665
 11
280.636
 21
2.8277
  0
LINE
  8
0
 10
280.636
 20
2.8277
 11
280.623
 21
2.75917
  0
LINE
  8
0
 10
280.623
 20
2.75917
 11
280.607
 21
2.69115
  0
LINE
  8
0
 10
280.607
 20
2.69115
 11
280.589
 21
2.62372
  0
LINE
  8
0
 10
280.589
 20
2.62372
 11
280.569
 21
2.55696
  0
LINE
  8
0
 10
280.569
 20
2.55696
 11
280.546
 21
2.49095
  0
LINE
  8
0
 10
280.546
 20
2.49095
 11
280.521
 21
2.42578
  0
LINE
  8
0
 10
280.521
 20
2.42578
 11
280.494
 21
2.36153
  0
LINE
  8
0
 10
280.494
 20
2.36153
 11
280.464
 21
2.29825
  0
LINE
  8
0
 10
280.464
 20
2.29825
 11
280.433
 21
2.23605
  0
LINE
  8
0
 10
280.433
 20
2.23605
 11
280.399
 21
2.17499
  0
LINE
  8
0
 10
280.399
 20
2.17499
 11
280.363
 21
2.11516
  0
LINE
  8
0
 10
280.363
 20
2.11516
 11
280.325
 21
2.05661
  0
LINE
  8
0
 10
280.325
 20
2.05661
 11
280.285
 21
1.99942
  0
LINE
  8
0
 10
280.285
 20
1.99942
 11
280.243
 21
1.94366
  0
LINE
  8
0
 10
280.243
 20
1.94366
 11
280.199
 21
1.88942
  0
LINE
  8
0
 10
280.199
 20
1.88942
 11
280.153
 21
1.83673
  0
LINE
  8
0
 10
280.153
 20
1.83673
 11
280.105
 21
1.78568
  0
LINE
  8
0
 10
280.105
 20
1.78568
 11
280.056
 21
1.73631
  0
LINE
  8
0
 10
280.056
 20
1.73631
 11
280.005
 21
1.68871
  0
LINE
  8
0
 10
280.005
 20
1.68871
 11
279.952
 21
1.6429
  0
LINE
  8
0
 10
279.952
 20
1.6429
 11
279.898
 21
1.59897
  0
LINE
  8
0
 10
279.898
 20
1.59897
 11
279.842
 21
1.55696
  0
LINE
  8
0
 10
279.842
 20
1.55696
 11
279.785
 21
1.51692
  0
LINE
  8
0
 10
279.785
 20
1.51692
 11
279.727
 21
1.4789
  0
LINE
  8
0
 10
279.727
 20
1.4789
 11
279.667
 21
1.44295
  0
LINE
  8
0
 10
279.667
 20
1.44295
 11
279.606
 21
1.4091
  0
LINE
  8
0
 10
279.606
 20
1.4091
 11
279.543
 21
1.37741
  0
LINE
  8
0
 10
279.543
 20
1.37741
 11
279.48
 21
1.3479
  0
LINE
  8
0
 10
279.48
 20
1.3479
 11
279.416
 21
1.32062
  0
LINE
  8
0
 10
279.416
 20
1.32062
 11
279.351
 21
1.29561
  0
LINE
  8
0
 10
279.351
 20
1.29561
 11
279.285
 21
1.27287
  0
LINE
  8
0
 10
279.285
 20
1.27287
 11
279.218
 21
1.25247
  0
LINE
  8
0
 10
279.218
 20
1.25247
 11
279.15
 21
1.23441
  0
LINE
  8
0
 10
279.15
 20
1.23441
 11
279.082
 21
1.2187
  0
LINE
  8
0
 10
279.082
 20
1.2187
 11
279.014
 21
1.20538
  0
LINE
  8
0
 10
279.014
 20
1.20538
 11
278.945
 21
1.19446
  0
LINE
  8
0
 10
278.945
 20
1.19446
 11
278.876
 21
1.18594
  0
LINE
  8
0
 10
278.876
 20
1.18594
 11
278.806
 21
1.17987
  0
LINE
  8
0
 10
278.806
 20
1.17987
 11
278.736
 21
1.17621
  0
LINE
  8
0
 10
278.736
 20
1.17621
 11
278.667
 21
1.17499
  0
LINE
  8
0
 10
278.667
 20
1.17499
 11
278.597
 21
1.17621
  0
ENDSEC
  0
SECTION
  2
OBJECTS
  0
DICTIONARY
  0
ENDSEC
  0
EOF
